<svg xmlns="http://www.w3.org/2000/svg" viewBox="0 0 45.28 18.53"><defs><style>.cls-1{fill:#fef2e2;}</style></defs><g id="Layer_2" data-name="Layer 2"><g id="rocket_fire" data-name="rocket fire"><path class="cls-1" d="M41.53,5.34a16.84,16.84,0,0,0-2.87-.78,5,5,0,0,0-1.84-2c-1.81-1.06-2.76-.06-4.41.32-2.45.58-4.86-.37-7.31-.44-1.43,0-2.32.7-3.61.82a1.67,1.67,0,0,0-.63.13,2.54,2.54,0,0,0-.56-.91A2.68,2.68,0,0,0,16.93,2,2.33,2.33,0,0,0,16,1.46q-.75-.51-1.47-1A5.27,5.27,0,0,0,12.14,0c-2,.06-5,.74-6.28,2.33A3,3,0,0,0,5.32,5.4a5.09,5.09,0,0,0-.23.85C3.46,6.48,1.9,6.39.78,8.07-1.75,11.9,2.35,16.3,6,16.89a25.83,25.83,0,0,0,10.65-1,17.38,17.38,0,0,0,2.23-1,2.64,2.64,0,0,0,2.85,2.35c2.24-.09,3.7,2,6.38,1.18a3.7,3.7,0,0,0,2.44-2,49.45,49.45,0,0,0,5.56.3c4.17,0,5.14-1,8.17-3.68a2.59,2.59,0,0,0,.23-3.83A4.24,4.24,0,0,0,41.53,5.34Z"/></g></g></svg>