<?xml version="1.0" encoding="utf-8"?><!--Generator: Adobe Illustrator 26.0.2, SVG Export Plug-In . SVG Version: 6.00 Build 0)--><svg version="1.1" id="Layer_1" xmlns="http://www.w3.org/2000/svg" xmlns:xlink="http://www.w3.org/1999/xlink" x="0px" y="0px" viewBox="0 0 1920 1080" style="enable-background:new 0 0 1920 1080" xml:space="preserve"><style type="text/css">.st0{opacity:0.1;fill:#111934;enable-background:new    ;}</style><g id="Layer_2_00000014591832371113091760000008823434195470734987_"><g id="bg"><path class="st0" d="M146.4,0c-7.3,6-14.3,12.2-21.1,18.7C93.5,49,67.3,84.6,47.9,124c-16.2,33.1-27.4,71.9-14.7,106.5
			c11.9,32.3,43,54.5,76,64.5s68,9.6,102.5,9.1l189.9-2.7c30.5-0.4,68.5,3.9,79.3,32.4c5,13.3,2.1,28.1-1,42
			c-11.6,51-26.5,101.6-30.3,153.7S454,636.6,484.5,679c45.6,63.3,129.4,85,206.9,94.2c222.1,26.2,459.5-19.5,643.5-150.5
			c167.7-119.5,230.4-310.5,340.4-475.3c32.4-48.5,70.8-95.1,122.5-122.1c17.9-9.4,36.3-17.8,55.1-25.2h-97.3
			c-26.1,20.9-48.3,47.2-68.9,72.9c-39.6,49.5-74.5,105.6-105.9,161.7c-31.1,55.6-59.7,115.6-97.9,167.9
			c-122.1,167-348.8,233.1-547.7,227.2c-100.4-3-217.4-22.3-299.9-83.1c-66-48.5-55-102.2-33.7-171.7c8.9-29.2,12.8-63.6-5.8-87.9
			c-10.3-13.5-26.2-21.7-42-28.1c-102.7-41.6-219-23.8-328.6-40.1c-42.4-6.3-94-31.1-89.6-73.8c1.4-13.1,8.3-25,15-36.3L215.4,0
			H146.4z"/><path class="st0" d="M1920,440.1v6c-114.7,23.2-210.8,110.2-284.6,203.5c-46.1,58.3-90.2,119.4-132.9,180.2
			c-31.3,44.5-76.6,81.3-121.2,112.5c-46,32.2-95.9,58.5-148.4,78.2c-142,53.3-297.2,56.8-448.8,57.7c7.4-8.2,30.4-5.2,40.5-5.6
			c15.6-0.6,31.3-1,46.8-3c34.2-4.2,68.1-10.4,101.6-18.6c66.2-16,130.2-40.3,190.5-72.1c33.5-17.8,65.6-38.1,96.1-60.7
			c116.5-86.8,204.8-205.6,310.7-305.2C1667.1,522,1789.1,444.2,1920,440.1z"/></g></g></svg>