<svg xmlns="http://www.w3.org/2000/svg" viewBox="0 0 79.47 125.33"><defs><style>.cls-1{fill:#f9e341;}.cls-2{fill:#fef2e2;}</style></defs><g id="Layer_2" data-name="Layer 2"><g id="rocket_fire" data-name="rocket fire"><path class="cls-1" d="M47.69,0S37.65,39.78,10,104.1l45.91,4.28s1.85-40.57,7.39-70.09l2.18-9.67-23.67-12"/><path class="cls-2" d="M.89,106.5c1.72,1.94,4.84,1.28,7.3.47L4.34,115c1.51,1.56,4.07,1.68,6.08.85A16.55,16.55,0,0,0,15.56,112a4.59,4.59,0,0,0,3,5.59,4.6,4.6,0,0,0,5.46-3.29c.39,3,.86,6.28,2.81,8.66s5.93,3.38,8.11,1.19a6.35,6.35,0,0,0,1.57-3.87,13.13,13.13,0,0,0-1.6-7.74,5.65,5.65,0,0,0,2.37,4.16,9.29,9.29,0,0,0,2-5.39,4.31,4.31,0,0,0,8.43.71c1.59,2.55,3.33,5.24,6,6.51s6.7.32,7.5-2.58c2.54,3.38,7.91,1.9,11.52-.3a15.46,15.46,0,0,0,5.69-5.22c1.28-2.27,1.4-5.37-.34-7.31s-4.37-2.14-6.68-1.48a19.41,19.41,0,0,0-6.21,3.6c2-2.08,4-4.26,4.72-7S69.78,92,67.15,91c-2.41-1-5.27.41-6.79,2.53s-2,4.78-2.49,7.34a7.24,7.24,0,0,0-13.18,2.65L51.5,63.61c-7.73,11.18-6.2,26.46-12.26,38.63a189.12,189.12,0,0,1,3.59-56.55c-9.54,15.94-4.91,36.9-12.22,54,.71-2.25-.42-5.1-2.69-5.76s-5,1.77-4.12,4a3.18,3.18,0,0,0-5.17-1.59,131.66,131.66,0,0,1,8.51-38.52c-6.45,12.75-9.5,26.89-12.49,40.86.2-.93-1.67-2.18-2.28-2.43-1.8,4.81-4.35,2-8.08,3.26C1.72,100.34-1.62,103.68.89,106.5Z"/></g></g></svg>