<svg xmlns="http://www.w3.org/2000/svg" viewBox="0 0 108.7 65.27"><defs><style>.cls-1{fill:#f1e1ac;}</style></defs><g id="Layer_2" data-name="Layer 2"><g id="fire_comets" data-name="fire comets"><path class="cls-1" d="M49.71,29.17c3.28,1.63,8.11,3.59,10.93.2,1.25-1.41,1.67-3.84,0-5.12S57,22.82,55.12,22.43a28.67,28.67,0,0,0-15.49,1.7c-4.6,1.67-2.64,6.54.09,9.09a21.28,21.28,0,0,0,2.15,2c6.61,5,15.26,6,23.36,5.61,7-.47,17-1.63,20.2-8.81,2-4.75-.43-10.25-4.17-13.42-4-3.38-9.09-5-14.06-6.39C55.88,9.27,39.38,8.17,28.92,14c-4.38,2.38-7.86,6.71-7.7,11.84.46,11,11.55,16.7,20.27,21,16.66,8.43,36.07,9,52.8.44,10.1-5.18,15.32-13.82,10.52-24.89-5.63-12.2-20-16.62-32.23-19-13-2.36-26.37-1.94-39.45-.39-9.86,1.15-20.81,3-27.48,11A18,18,0,0,0,1.22,26.47C2,35.64,10.51,41.32,17.54,46.05A143.59,143.59,0,0,0,61,65.27a145.75,145.75,0,0,1-15.31-4.48,142.75,142.75,0,0,1-28.64-14C10.46,42.43,3,37.61.6,29.61c-2-6.77,1.19-13.95,6.13-18.61,7-6.61,17-8.36,26.2-9.53C50.1-.75,68-1,84.65,4.48c11.81,3.75,23.27,11.79,24,25.2.83,17.53-22.51,25-36.75,25.85C57.91,56.45,45.38,52,33.45,45c-4.68-2.71-9.34-6.16-12-11-3.74-6.55-2.88-14.39,3.08-19.31,9.27-7.63,23.91-7.43,35.23-5.86,7.46,1.28,16.73,3.52,22.55,8.55,7,6.11,7.58,16.47-1.28,21.15C76.16,41.12,70.68,41.72,65.29,42c-8.61.39-18.07-.86-24.76-6.78a14.28,14.28,0,0,1-3.8-4.78c-.91-1.89-1-4.53.81-5.94,1.66-1.26,3.72-1.69,5.67-2.23a29.36,29.36,0,0,1,12-.3c1.95.43,4.06.74,5.69,2s1.33,4.05-.07,5.55a5.11,5.11,0,0,1-3.52,1.81c-2.71.26-5.23-1-7.59-2.17Z"/></g></g></svg>