<?xml version="1.0" encoding="utf-8"?>
<!-- Generator: Adobe Illustrator 26.0.2, SVG Export Plug-In . SVG Version: 6.00 Build 0)  -->
<svg version="1.1" id="Layer_1" xmlns="http://www.w3.org/2000/svg" xmlns:xlink="http://www.w3.org/1999/xlink" x="0px" y="0px"
	 viewBox="0 0 1932.2 381.8" style="enable-background:new 0 0 1932.2 381.8;" xml:space="preserve">
<style type="text/css">
	.st0{fill:#80AF62;}
	.st1{fill:#45AA62;}
	.st2{fill:#00803A;}
	.st3{fill:#775A44;}
</style>
<g id="Layer_2_00000080898380672217006110000017296716054533104267_">
	<g id="bg">
		<path class="st0" d="M456,10.3v4.8c0,0.8,0.7,1.5,1.5,1.5s1.5-0.7,1.5-1.5v-4.8c0-0.8-0.7-1.5-1.5-1.5S456,9.5,456,10.3z"/>
		<path class="st0" d="M461,1.9l1.4,9.6c0.2,0.8,1,1.3,1.9,1.1c0.8-0.2,1.2-1.1,1-1.9l-1.4-9.6c-0.2-0.8-1.1-1.2-1.8-1
			C461.3,0.3,460.8,1.1,461,1.9z"/>
		<path class="st0" d="M469.7,8.3l0.9,6.4c0.1,0.4,0.4,0.7,0.7,0.9c0.4,0.2,0.8,0.3,1.2,0.2c0.4-0.1,0.7-0.4,0.9-0.7
			c0.2-0.4,0.2-0.8,0.1-1.2l-0.9-6.4c-0.2-0.8-1.1-1.2-1.8-1c-0.4,0.1-0.7,0.3-0.9,0.7C469.7,7.5,469.6,8,469.7,8.3L469.7,8.3z"/>
		<path class="st0" d="M59.6,316.3v4.8c0,0.8,0.7,1.5,1.5,1.5s1.5-0.7,1.5-1.5v-4.8c0-0.8-0.7-1.5-1.5-1.5S59.6,315.5,59.6,316.3z"
			/>
		<path class="st0" d="M64.5,307.9l1.4,9.6c0.2,0.8,1,1.3,1.8,1c0.8-0.3,1.2-1.1,1-1.9l-1.4-9.6c-0.2-0.8-1.1-1.2-1.8-1
			C64.7,306.4,64.3,307.2,64.5,307.9L64.5,307.9z"/>
		<path class="st0" d="M73.2,314.3l0.9,6.4c0.1,0.4,0.3,0.7,0.7,0.9c0.3,0.2,0.8,0.3,1.2,0.1c0.4-0.1,0.7-0.4,0.9-0.7
			c0.2-0.4,0.2-0.8,0.2-1.1l-0.9-6.4c-0.1-0.4-0.3-0.7-0.7-0.9c-0.7-0.4-1.6-0.2-2.1,0.5C73.2,313.5,73.1,313.9,73.2,314.3z"/>
		<path class="st0" d="M1109.6,32.8v4.8c0,0.8,0.7,1.5,1.5,1.5s1.5-0.7,1.5-1.5v-4.8c0-0.8-0.7-1.5-1.5-1.5S1109.6,32,1109.6,32.8z"
			/>
		<path class="st0" d="M1114.5,24.4l1.4,9.6c0.2,0.8,1.1,1.2,1.8,1c0.8-0.3,1.2-1.1,1-1.8l-1.4-9.6c-0.2-0.8-1.1-1.2-1.8-1
			C1114.8,22.8,1114.3,23.6,1114.5,24.4L1114.5,24.4z"/>
		<path class="st0" d="M1123.2,30.8l0.9,6.4c0.2,0.8,1,1.3,1.8,1c0.4-0.1,0.7-0.4,0.9-0.7c0.2-0.4,0.2-0.8,0.2-1.2l-0.9-6.4
			c-0.2-0.8-1-1.3-1.8-1.1c0,0,0,0,0,0c-0.4,0.1-0.7,0.4-0.9,0.7C1123.2,30,1123.1,30.4,1123.2,30.8z"/>
		<path class="st0" d="M1278.4,48.4v4.8c0,0.8,0.7,1.5,1.5,1.5s1.5-0.7,1.5-1.5v-4.8c0-0.8-0.7-1.5-1.5-1.5S1278.4,47.5,1278.4,48.4
			z"/>
		<path class="st0" d="M1283.3,40l1.4,9.6c0.2,0.8,1,1.3,1.8,1c0.8-0.2,1.2-1,1.1-1.8l-1.4-9.6c-0.2-0.8-1.1-1.2-1.8-1
			C1283.6,38.4,1283.2,39.2,1283.3,40L1283.3,40z"/>
		<path class="st0" d="M1292,46.4l0.9,6.4c0.1,0.4,0.4,0.7,0.7,0.9c0.4,0.2,0.8,0.3,1.2,0.2c0.4-0.1,0.7-0.4,0.9-0.7
			c0.2-0.4,0.2-0.8,0.2-1.2l-0.9-6.4c-0.1-0.4-0.4-0.7-0.7-0.9c-0.7-0.4-1.6-0.1-2,0.5C1292,45.6,1292,46,1292,46.4L1292,46.4z"/>
		<path class="st0" d="M1385.6,314.3v4.8c0,0.8,0.7,1.5,1.5,1.5s1.5-0.7,1.5-1.5v-4.8c0-0.8-0.7-1.5-1.5-1.5
			S1385.6,313.5,1385.6,314.3z"/>
		<path class="st0" d="M1390.6,305.9l1.4,9.6c0.2,0.8,1.1,1.2,1.8,1c0.8-0.3,1.2-1.1,1-1.8l-1.4-9.6c-0.2-0.8-1.1-1.2-1.8-1
			C1390.8,304.3,1390.3,305.1,1390.6,305.9L1390.6,305.9z"/>
		<path class="st0" d="M1399.3,312.3l0.9,6.4c0.2,0.8,1.1,1.2,1.8,1c0.4-0.1,0.7-0.4,0.9-0.7c0.2-0.4,0.2-0.8,0.2-1.2l-0.9-6.4
			c-0.2-0.8-1-1.3-1.8-1.1c0,0,0,0,0,0c-0.4,0.1-0.7,0.4-0.9,0.7C1399.3,311.4,1399.2,311.8,1399.3,312.3L1399.3,312.3z"/>
		<path class="st0" d="M1230.5,259.5v4.8c0,0.8,0.7,1.5,1.5,1.5s1.5-0.7,1.5-1.5v-4.8c0-0.8-0.7-1.5-1.5-1.5
			S1230.5,258.7,1230.5,259.5z"/>
		<path class="st0" d="M1235.5,251.1l1.4,9.6c0.2,0.8,1.1,1.2,1.8,1c0.8-0.3,1.2-1.1,1-1.8l-1.4-9.6c-0.2-0.8-1.1-1.2-1.8-1
			C1235.7,249.5,1235.3,250.3,1235.5,251.1L1235.5,251.1z"/>
		<path class="st0" d="M1244.2,257.5l0.9,6.4c0.1,0.4,0.3,0.7,0.7,0.9c0.4,0.2,0.8,0.3,1.2,0.2c0.4-0.1,0.7-0.4,0.9-0.7
			c0.2-0.4,0.2-0.8,0.2-1.2l-0.9-6.4c-0.1-0.4-0.3-0.7-0.7-0.9c-0.3-0.2-0.8-0.3-1.2-0.1c-0.4,0.1-0.7,0.4-0.9,0.7
			C1244.2,256.7,1244.1,257.1,1244.2,257.5L1244.2,257.5z"/>
		<path class="st0" d="M1330.7,145.9v4.8c0,0.8,0.7,1.5,1.5,1.5s1.5-0.7,1.5-1.5v-4.8c0-0.8-0.7-1.5-1.5-1.5
			S1330.7,145.1,1330.7,145.9z"/>
		<path class="st0" d="M1335.6,137.5l1.4,9.6c0.2,0.8,1.1,1.2,1.8,1c0.8-0.2,1.2-1.1,1.1-1.9l-1.4-9.6c-0.2-0.8-1-1.3-1.8-1.1
			c0,0,0,0,0,0C1335.9,135.9,1335.5,136.7,1335.6,137.5L1335.6,137.5z"/>
		<path class="st0" d="M1344.3,143.9l0.9,6.4c0.2,0.8,1,1.3,1.8,1c0.4-0.1,0.7-0.4,0.9-0.7c0.2-0.4,0.2-0.8,0.2-1.1l-0.9-6.4
			c-0.1-0.4-0.4-0.7-0.7-0.9c-0.4-0.2-0.8-0.2-1.2-0.1c-0.4,0.1-0.7,0.4-0.9,0.7C1344.3,143.1,1344.2,143.5,1344.3,143.9
			L1344.3,143.9z"/>
		<path class="st0" d="M1772,307.5v4.8c0,0.8,0.7,1.5,1.5,1.5s1.5-0.7,1.5-1.5v-4.8c0-0.8-0.7-1.5-1.5-1.5S1772,306.7,1772,307.5z"
			/>
		<path class="st0" d="M1777,299.1l1.4,9.6c0.2,0.8,1,1.3,1.8,1c0.8-0.3,1.2-1.1,1-1.9l-1.4-9.6c-0.2-0.8-1-1.3-1.8-1
			C1777.2,297.5,1776.8,298.3,1777,299.1z"/>
		<path class="st0" d="M1785.7,305.5l0.9,6.4c0.1,0.4,0.4,0.7,0.7,0.9c0.4,0.2,0.8,0.3,1.2,0.1c0.4-0.1,0.7-0.4,0.9-0.7
			c0.2-0.4,0.2-0.8,0.2-1.1l-0.9-6.4c-0.1-0.4-0.4-0.7-0.7-0.9c-0.7-0.4-1.6-0.1-2,0.5C1785.7,304.7,1785.6,305.1,1785.7,305.5
			L1785.7,305.5z"/>
		<path class="st0" d="M1653.8,152.7v4.8c0,0.8,0.7,1.5,1.5,1.5s1.5-0.7,1.5-1.5v-4.8c0-0.8-0.7-1.5-1.5-1.5
			S1653.8,151.9,1653.8,152.7z"/>
		<path class="st0" d="M1658.8,144.3l1.4,9.6c0.2,0.8,1,1.3,1.8,1.1c0.8-0.3,1.2-1.1,1-1.8l-1.4-9.6c-0.2-0.8-1.1-1.2-1.8-1
			C1659,142.8,1658.6,143.6,1658.8,144.3L1658.8,144.3z"/>
		<path class="st0" d="M1667.4,150.7l0.9,6.4c0.1,0.4,0.4,0.7,0.7,0.9c0.4,0.2,0.8,0.2,1.2,0.1c0.4-0.1,0.7-0.4,0.9-0.7
			c0.2-0.4,0.2-0.8,0.2-1.2l-0.9-6.4c-0.2-0.8-1-1.3-1.8-1c-0.4,0.1-0.7,0.4-0.9,0.7C1667.4,149.9,1667.4,150.3,1667.4,150.7
			L1667.4,150.7z"/>
		<path class="st0" d="M1535.7,300.5v4.8c0,0.8,0.7,1.5,1.5,1.5s1.5-0.7,1.5-1.5v-4.8c0-0.8-0.7-1.5-1.5-1.5
			S1535.7,299.7,1535.7,300.5z"/>
		<path class="st0" d="M1540.6,292.1l1.4,9.6c0.2,0.8,1,1.3,1.8,1c0.8-0.2,1.2-1,1.1-1.8l-1.4-9.6c-0.2-0.8-1.1-1.2-1.8-1
			C1540.9,290.5,1540.4,291.3,1540.6,292.1L1540.6,292.1z"/>
		<path class="st0" d="M1549.3,298.5l0.9,6.4c0.1,0.4,0.4,0.7,0.7,0.9c0.4,0.2,0.8,0.2,1.2,0.1c0.4-0.1,0.7-0.4,0.9-0.7
			c0.2-0.4,0.2-0.8,0.2-1.2l-0.9-6.4c-0.2-0.8-1-1.3-1.8-1c-0.4,0.1-0.7,0.4-0.9,0.7C1549.3,297.7,1549.2,298.1,1549.3,298.5z"/>
		<path class="st0" d="M913.2,46v4.8c0,0.8,0.7,1.5,1.5,1.5s1.5-0.7,1.5-1.5V46c0-0.8-0.7-1.5-1.5-1.5S913.2,45.2,913.2,46z"/>
		<path class="st0" d="M918.2,37.6l1.4,9.6c0.2,0.8,1.1,1.2,1.8,1c0.8-0.3,1.2-1.1,1-1.8l-1.4-9.6c-0.2-0.8-1-1.3-1.8-1
			C918.4,35.9,918,36.7,918.2,37.6L918.2,37.6z"/>
		<path class="st0" d="M926.9,44l0.9,6.4c0.1,0.4,0.3,0.7,0.7,0.9c0.7,0.4,1.6,0.1,2-0.5c0.2-0.4,0.2-0.8,0.2-1.2l-0.9-6.4
			c-0.1-0.4-0.3-0.7-0.7-0.9c-0.4-0.2-0.8-0.3-1.2-0.2c-0.4,0.1-0.7,0.4-0.9,0.7C926.8,43.2,926.8,43.6,926.9,44L926.9,44z"/>
		<path class="st0" d="M1778.4,34.8v4.8c0,0.8,0.7,1.5,1.5,1.5s1.5-0.7,1.5-1.5v-4.8c0-0.8-0.7-1.5-1.5-1.5S1778.4,34,1778.4,34.8z"
			/>
		<path class="st0" d="M1783.3,26.4l1.4,9.6c0.2,0.8,1.1,1.2,1.8,1c0.8-0.3,1.2-1.1,1-1.8l-1.4-9.6c-0.2-0.8-1.1-1.2-1.8-1
			C1783.5,24.8,1783.1,25.6,1783.3,26.4z"/>
		<path class="st0" d="M1792,32.8l0.9,6.4c0.1,0.4,0.4,0.7,0.7,0.9c0.7,0.4,1.6,0.2,2.1-0.5c0.2-0.4,0.2-0.8,0.2-1.2l-0.9-6.4
			c-0.1-0.4-0.4-0.7-0.7-0.9c-0.7-0.4-1.6-0.1-2,0.5C1792,32,1792,32.4,1792,32.8L1792,32.8z"/>
		<path class="st0" d="M771.1,254.3v4.8c0,0.8,0.7,1.5,1.5,1.5s1.5-0.7,1.5-1.5v-4.8c0-0.8-0.7-1.5-1.5-1.5S771.1,253.5,771.1,254.3
			L771.1,254.3z"/>
		<path class="st0" d="M776.1,245.9l1.4,9.6c0.2,0.8,1.1,1.2,1.8,1c0.8-0.3,1.2-1.1,1-1.9l-1.4-9.6c-0.2-0.8-1.1-1.2-1.8-1
			C776.3,244.3,775.9,245.1,776.1,245.9L776.1,245.9z"/>
		<path class="st0" d="M784.8,252.3l0.9,6.4c0.2,0.8,1,1.3,1.8,1c0.4-0.1,0.7-0.4,0.9-0.7c0.2-0.4,0.2-0.8,0.2-1.1l-0.9-6.4
			c-0.1-0.4-0.4-0.7-0.7-0.9c-0.4-0.2-0.8-0.2-1.2-0.1c-0.4,0.1-0.7,0.4-0.9,0.7C784.8,251.5,784.7,251.9,784.8,252.3L784.8,252.3z"
			/>
		<path class="st0" d="M1000.4,272.3v4.8c0,0.8,0.7,1.5,1.5,1.5c0.8,0,1.5-0.7,1.5-1.5v-4.8c0-0.8-0.7-1.5-1.5-1.5
			S1000.4,271.5,1000.4,272.3z"/>
		<path class="st0" d="M1005.4,263.9l1.4,9.6c0.2,0.8,1.1,1.3,1.8,1c0.8-0.3,1.2-1.1,1-1.9l-1.4-9.6c-0.2-0.8-1-1.3-1.8-1
			C1005.6,262.3,1005.2,263.1,1005.4,263.9z"/>
		<path class="st0" d="M1014.1,270.3l0.9,6.4c0.2,0.8,1,1.3,1.8,1.1c0,0,0,0,0,0c0.4-0.1,0.7-0.4,0.9-0.7c0.2-0.4,0.2-0.8,0.2-1.1
			l-0.9-6.4c-0.1-0.4-0.4-0.7-0.7-0.9c-0.7-0.4-1.6-0.2-2,0.5C1014.1,269.5,1014,269.9,1014.1,270.3L1014.1,270.3z"/>
		<path class="st0" d="M680,48.3v4.8c0,0.8,0.7,1.5,1.5,1.5s1.5-0.7,1.5-1.5v-4.8c0-0.8-0.7-1.5-1.5-1.5S680,47.5,680,48.3z"/>
		<path class="st0" d="M685,39.9l1.4,9.6c0.2,0.8,1,1.3,1.8,1c0.8-0.3,1.2-1.1,1-1.8l-1.4-9.6c-0.2-0.8-1-1.3-1.8-1
			C685.2,38.3,684.8,39.1,685,39.9z"/>
		<path class="st0" d="M693.7,46.3l0.9,6.4c0.1,0.4,0.4,0.7,0.7,0.9c0.7,0.4,1.6,0.2,2.1-0.5c0.2-0.4,0.2-0.8,0.2-1.2l-0.9-6.4
			c-0.1-0.4-0.4-0.7-0.7-0.9c-0.3-0.2-0.8-0.3-1.2-0.2c-0.4,0.1-0.7,0.3-0.9,0.7C693.6,45.5,693.6,45.9,693.7,46.3L693.7,46.3z"/>
		<path class="st0" d="M275.2,344.1v4.8c0,0.8,0.7,1.5,1.5,1.5s1.5-0.7,1.5-1.5v-4.8c0-0.8-0.7-1.5-1.5-1.5S275.2,343.3,275.2,344.1
			z"/>
		<path class="st0" d="M280.2,335.7l1.4,9.6c0.2,0.8,1,1.3,1.8,1c0.8-0.2,1.2-1.1,1-1.9l-1.4-9.6c-0.2-0.8-1-1.3-1.9-1
			C280.5,334.1,280,334.9,280.2,335.7z"/>
		<path class="st0" d="M288.9,342.1l0.9,6.4c0.1,0.4,0.3,0.7,0.7,0.9c0.3,0.2,0.8,0.3,1.1,0.1c0.4-0.1,0.7-0.4,0.9-0.7
			c0.2-0.4,0.2-0.8,0.1-1.1l-0.9-6.4c-0.1-0.4-0.3-0.7-0.7-0.9c-0.7-0.4-1.6-0.1-2,0.5C288.9,341.3,288.9,341.7,288.9,342.1
			L288.9,342.1z"/>
		<path class="st0" d="M882,181.3v4.8c0,0.8,0.7,1.5,1.5,1.5s1.5-0.7,1.5-1.5v-4.8c0-0.8-0.7-1.5-1.5-1.5S882,180.5,882,181.3z"/>
		<path class="st0" d="M887,172.9l1.4,9.6c0.2,0.8,1.1,1.2,1.8,1c0.8-0.3,1.2-1.1,1-1.8l-1.4-9.6c-0.2-0.8-1-1.3-1.8-1.1
			C887.2,171.3,886.8,172.1,887,172.9L887,172.9z"/>
		<path class="st0" d="M895.7,179.3l0.9,6.4c0.1,0.4,0.4,0.7,0.7,0.9c0.3,0.2,0.8,0.3,1.2,0.1c0.4-0.1,0.7-0.4,0.9-0.7
			c0.2-0.4,0.2-0.8,0.2-1.2l-0.9-6.4c-0.2-0.8-1-1.3-1.8-1.1c0,0,0,0,0,0c-0.4,0.1-0.7,0.4-0.9,0.7
			C895.6,178.5,895.6,178.9,895.7,179.3L895.7,179.3z"/>
		<path class="st0" d="M326.7,128.3v4.8c0,0.8,0.7,1.5,1.5,1.5s1.5-0.7,1.5-1.5v-4.8c0-0.8-0.7-1.5-1.5-1.5S326.7,127.5,326.7,128.3
			z"/>
		<path class="st0" d="M331.6,119.9l1.4,9.6c0.2,0.8,1,1.3,1.8,1.1c0.8-0.2,1.2-1,1-1.8l-1.4-9.6c-0.2-0.8-1.1-1.2-1.9-1
			C331.9,118.4,331.5,119.2,331.6,119.9L331.6,119.9z"/>
		<path class="st0" d="M340.3,126.3l0.9,6.4c0.1,0.4,0.4,0.7,0.7,0.9c0.7,0.4,1.6,0.2,2-0.5c0.2-0.4,0.2-0.8,0.1-1.2l-0.9-6.4
			c-0.2-0.8-1-1.3-1.8-1.1c0,0,0,0,0,0c-0.4,0.1-0.7,0.4-0.9,0.7C340.2,125.5,340.2,125.9,340.3,126.3L340.3,126.3z"/>
		<path class="st0" d="M438.9,159.5v4.8c0,0.8,0.7,1.5,1.5,1.5s1.5-0.7,1.5-1.5v-4.8c0-0.8-0.7-1.5-1.5-1.5
			C439.6,158,439,158.7,438.9,159.5z"/>
		<path class="st0" d="M443.9,151.1l1.4,9.6c0.2,0.8,1.1,1.2,1.9,1c0.8-0.3,1.2-1.1,1-1.9l-1.4-9.6c-0.2-0.8-1-1.3-1.8-1.1
			c0,0,0,0,0,0C444.1,149.5,443.7,150.3,443.9,151.1L443.9,151.1z"/>
		<path class="st0" d="M452.6,157.5l0.9,6.4c0.2,0.8,1,1.3,1.8,1c0.4-0.1,0.7-0.4,0.9-0.7c0.2-0.4,0.2-0.8,0.1-1.1l-0.9-6.4
			c-0.1-0.4-0.4-0.7-0.7-0.9c-0.4-0.2-0.8-0.3-1.2-0.2c-0.4,0.1-0.7,0.4-0.9,0.7C452.6,156.7,452.5,157.1,452.6,157.5L452.6,157.5z"
			/>
		<path class="st0" d="M196.7,46v4.8c0,0.8,0.7,1.5,1.5,1.5s1.5-0.7,1.5-1.5V46c0-0.8-0.7-1.5-1.5-1.5S196.7,45.2,196.7,46z"/>
		<path class="st0" d="M201.7,37.6l1.4,9.6c0.2,0.8,1.1,1.2,1.9,1c0.8-0.3,1.2-1.1,1-1.8l-1.4-9.6c-0.2-0.8-1-1.3-1.8-1
			C201.9,35.9,201.4,36.7,201.7,37.6L201.7,37.6z"/>
		<path class="st0" d="M210.4,44l0.9,6.4c0.1,0.4,0.4,0.7,0.7,0.9c0.4,0.2,0.8,0.2,1.2,0.2c0.4-0.1,0.7-0.4,0.9-0.7
			c0.2-0.4,0.2-0.8,0.1-1.2l-0.9-6.4c-0.2-0.8-1.1-1.2-1.9-1c-0.4,0.1-0.7,0.4-0.9,0.7C210.3,43.3,210.3,43.7,210.4,44L210.4,44z"/>
		<path class="st0" d="M605.7,121.5v4.8c0,0.8,0.7,1.5,1.5,1.5s1.5-0.7,1.5-1.5l0,0v-4.8c0-0.8-0.7-1.5-1.5-1.5
			S605.7,120.7,605.7,121.5z"/>
		<path class="st0" d="M610.7,113.1l1.4,9.6c0.2,0.8,1.1,1.2,1.8,1c0.8-0.3,1.2-1.1,1-1.8l-1.4-9.6c-0.2-0.8-1.1-1.2-1.8-1
			C610.9,111.6,610.5,112.4,610.7,113.1L610.7,113.1z"/>
		<path class="st0" d="M619.4,119.5l0.9,6.4c0.1,0.4,0.3,0.7,0.7,0.9c0.4,0.2,0.8,0.3,1.2,0.2c0.4-0.1,0.7-0.4,0.9-0.7
			c0.2-0.4,0.2-0.8,0.2-1.2l-0.9-6.4c-0.1-0.4-0.3-0.7-0.7-0.9c-0.3-0.2-0.8-0.3-1.2-0.2c-0.4,0.1-0.7,0.4-0.9,0.7
			C619.4,118.7,619.3,119.1,619.4,119.5L619.4,119.5z"/>
		<path class="st1" d="M1738.8,234.7c0.9-0.2,1.9-0.4,2.8-0.4c7.1-0.4,14.9,2.3,19.3,8c0.2-8.3,3.5-16.9,10.1-21.8
			s17.1-5.1,22.8,0.9c5.4,5.7,5.1,15.3,0.9,21.9c3.7-4.7,10.4-5.6,15.2-1.9c4.5,3.5,5.5,9.9,2.3,14.6c3-1.5,6.2-3.1,9.5-2.6
			s6.3,4.1,4.9,7.2c8-2.4,16.6,0,22.3,6.2c5.8,6.5,3.5,17.6-6.7,16.2c-3.4-0.5-6.5-2-9.9-2.9c-8.9-2.2-18,1.2-27.1,1.9
			c-22.6,1.7-43.6-12.7-66.2-12.9c-13.7-0.1-28.4,4.8-40.3-1.9c-3-1.7-5.8-4.5-6-8c-0.2-5.5,6.4-8.9,12-8.7
			c2.5-10.3,17.1-15.2,25.4-8.5C1731.2,238.1,1734.8,235.6,1738.8,234.7z"/>
		<path class="st1" d="M1150.8,93.4c0.8-0.2,1.6-0.3,2.4-0.4c6.1-0.3,12.8,2,16.6,6.9c0.2-7.1,3-14.5,8.7-18.8
			c5.7-4.2,14.7-4.4,19.5,0.8c4.6,4.9,4.4,13.1,0.8,18.8c3.1-4.1,8.9-4.8,13-1.7c3.9,3,4.8,8.5,2,12.6c2.6-1.3,5.3-2.6,8.2-2.2
			c2.8,0.4,5.4,3.5,4.2,6.1c6.9-2.1,14.3,0,19.2,5.3c5,5.6,3,15.1-5.7,13.9c-2.9-0.4-5.6-1.8-8.5-2.5c-7.6-1.9-15.5,1-23.3,1.6
			c-19.4,1.5-37.5-10.9-56.9-11.1c-11.7-0.1-24.4,4.1-34.6-1.6c-2.6-1.5-5-3.9-5.1-6.8c-0.2-4.8,5.5-7.6,10.3-7.4
			c2.2-8.9,14.7-13,21.8-7.3C1144.4,96.3,1147.4,94.2,1150.8,93.4z"/>
		<path class="st2" d="M167,126.6c1-0.3,2-0.5,3-0.6c7.8-0.8,16.4,1.7,21.6,7.7c-0.2-9.1,2.9-18.7,9.9-24.5s18.4-6.5,25-0.2
			c6.2,6,6.4,16.4,2.2,23.9c3.7-5.4,11.1-6.7,16.5-3c5.2,3.6,6.6,10.6,3.4,15.9c3.2-1.8,6.6-3.7,10.3-3.4s7.1,4.1,5.7,7.6
			c8.6-3.1,18.2-0.9,24.7,5.5c6.6,6.8,4.8,19.1-6.4,18.1c-3.7-0.3-7.3-1.9-11-2.6c-9.8-1.9-19.7,2.3-29.6,3.5
			c-24.6,3.2-48.4-11.5-73.2-10.5c-15,0.6-30.8,6.8-44.2,0.1c-3.4-1.7-6.6-4.6-7-8.4c-0.5-6.1,6.6-10.1,12.6-10.2
			c2.2-11.4,17.9-17.6,27.3-10.7C158.9,130.8,162.7,127.9,167,126.6z"/>
		<path class="st1" d="M401.1,224.8c0.8-3.5,2.8-6.7,5.6-9c4.7-3.7,11.2-3.5,17.2-3.1c1.5,0.1,3.4,0.5,3.6,2
			c0.1,0.8-0.1,1.5-0.5,2.2c-2.8,5.7-6,11.8-11.9,14.1c-2.9,1.1-6.1,1.1-8.9,2.5C398.7,237.2,399.3,231.3,401.1,224.8z"/>
		<path class="st2" d="M726.8,194c-1.7,3.2-4.4,5.7-7.7,7.2c-5.5,2.3-11.8,0.4-17.4-1.5c-1.4-0.5-3.1-1.4-3-2.9
			c0.1-0.7,0.5-1.4,1.1-1.9c4.2-4.7,8.9-9.8,15.2-10.4c3.1-0.3,6.2,0.5,9.2-0.1C732.4,182.7,730.2,188.2,726.8,194z"/>
		<path class="st2" d="M1607.2,68.6c-1.7,3.2-4.5,5.7-7.7,7.2c-5.5,2.3-11.8,0.4-17.4-1.5c-1.4-0.5-3.1-1.4-3-2.9
			c0.1-0.8,0.5-1.5,1.1-2c4.2-4.7,8.9-9.8,15.2-10.4c3.1-0.3,6.2,0.5,9.2-0.1C1612.8,57.3,1610.6,62.8,1607.2,68.6z"/>
		<path class="st1" d="M89.3,351.5c-2.9,3.7-5,7.8-6.3,12.3c-0.4,1.1-1.2,2-2.3,2.4c-9,4.5-40.1-2-45-3.7
			c-7.6-2.6-14.9-6.4-21.4-11.1l-0.6-0.4c-4.9-3.7-9.5-7.9-13.7-12.3c4.8-0.9,9.7-0.6,14.3,1c3.7,1.3,7,3.3,9.9,6
			c-0.4-10.2,2.2-20.3,7.5-29c-2.1,10.6-2.8,21.5-2,32.3c5-9.6,16.5-13.5,26.9-16.4c-3.8,5.9-6.4,12.4-7.7,19.3
			c7.9-5.6,17.4-8.6,27.2-8.5l-8,10.7C74.7,351.1,82.1,350.2,89.3,351.5z"/>
		<path class="st1" d="M332.9,352l-2-0.1c3.4-0.8,7-0.9,10.5-0.5c-5.8,2.5-10.6,7-13.4,12.6c9.7-3.6,20.9-7.2,30.1-2.4
			c-8.3,0.1-16.5,1.7-24.1,4.8c9.3-0.8,18.7,0.2,27.7,3c-25.4,2.4-50.9,9.3-76.5,8.4c-12.9-0.5-26.5-3.4-38.2,2.2
			c6.4-3.6,13.6-5.8,21-6.3c-8.3-3.4-17.3-4.7-26.2-3.7c2.7-1.7,5.5-3.1,8.5-4.1c6.8-2.4,14.1-3,21.2-1.8c-1.2-10.5-0.4-21,2.5-31.2
			c0.7,10.8,2.9,21.5,6.5,31.7c2.3-10.6,12.4-17.3,21.6-22.9c-2.1,6.7-2.9,13.7-2.4,20.6c6.2-7.5,14.6-12.8,24-15.2l-4.9,12.4
			c2.2-5.6,18.6-7.4,23.4-7.2c-5.4,2.3-10,6.3-13,11.4c9-3.3,19-2.6,27.5,1.8c-8.4-4.4-25.9,5.3-34.1,7.3c-3.3,0.8-6.7,1.6-10.1,2.3
			L332.9,352z"/>
		<path class="st1" d="M1524.4,188.8l-2-0.1c3.4-0.8,7-0.9,10.5-0.5c-5.8,2.5-10.6,6.9-13.5,12.6c9.7-3.6,20.9-7.2,30.1-2.4
			c-8.3,0.1-16.5,1.7-24.2,4.8c9.3-0.8,18.7,0.2,27.7,3c-25.4,2.4-50.9,9.3-76.5,8.4c-12.9-0.5-26.6-3.4-38.2,2.2
			c6.4-3.7,13.6-5.8,21-6.3c-8.3-3.4-17.3-4.7-26.2-3.7c2.7-1.7,5.5-3.1,8.5-4.1c6.8-2.4,14.1-3,21.2-1.8c-1.2-10.5-0.4-21,2.5-31.2
			c0.7,10.8,2.9,21.5,6.4,31.7c2.3-10.6,12.4-17.3,21.7-22.9c-2.1,6.7-2.9,13.7-2.4,20.6c6.2-7.5,14.6-12.8,24-15.2l-4.9,12.4
			c2.2-5.6,18.7-7.4,23.4-7.2c-5.4,2.3-10,6.3-13,11.4c9-3.3,19-2.6,27.5,1.7c-8.4-4.4-25.8,5.3-34.1,7.3c-3.3,0.8-6.7,1.6-10.1,2.3
			L1524.4,188.8z"/>
		<path class="st1" d="M1260.6,319.6l-2,0.2c3.3-1.2,6.8-1.9,10.3-2c-5.4,3.3-9.6,8.3-11.6,14.3c9.1-4.9,19.7-10,29.5-6.5
			c-8.2,1.2-16.1,4-23.3,8.1c9.1-2.1,18.6-2.4,27.8-0.9c-24.8,5.9-49.1,16.2-74.6,18.9c-12.8,1.3-26.8,0.3-37.5,7.4
			c5.9-4.5,12.7-7.6,19.9-9.2c-8.7-2.3-17.8-2.3-26.4-0.1c2.4-2,5-3.8,7.8-5.3c6.4-3.3,13.5-4.9,20.7-4.7
			c-2.6-10.2-3.2-20.8-1.8-31.2c2.2,10.6,5.8,20.9,10.8,30.5c0.8-10.8,9.9-18.8,18.3-25.6c-1.2,6.9-1,13.9,0.5,20.8
			c5.1-8.3,12.7-14.7,21.7-18.4l-3.2,13c1.4-5.9,17.4-9.9,22.2-10.4c-5.1,3-9,7.6-11.3,13.1c8.5-4.5,18.4-5.2,27.5-2
			c-8.9-3.2-24.9,8.8-32.8,11.9c-3.2,1.3-6.4,2.5-9.7,3.7L1260.6,319.6z"/>
		<path class="st2" d="M1903,351.3h-2c3.4-0.9,7-1.1,10.5-0.8c-5.8,2.6-10.4,7.3-13.1,13c9.6-3.9,20.7-7.8,30-3.3
			c-8.3,0.3-16.4,2.2-24,5.5c9.3-1.1,18.7-0.4,27.8,2.2c-25.3,3.2-50.6,10.8-76.2,10.6c-12.9-0.1-26.6-2.6-38.1,3.3
			c6.3-3.8,13.4-6.2,20.8-6.9c-8.4-3.2-17.4-4.2-26.3-3c2.6-1.8,5.4-3.2,8.3-4.4c6.7-2.6,14-3.4,21.1-2.4c-1.5-10.4-1-21,1.6-31.2
			c1,10.8,3.5,21.4,7.4,31.5c2-10.6,11.9-17.6,21-23.5c-1.9,6.7-2.5,13.7-1.8,20.7c6-7.7,14.2-13.3,23.6-16l-4.5,12.5
			c2.1-5.7,18.4-8,23.2-7.9c-5.3,2.5-9.8,6.6-12.6,11.8c8.9-3.5,18.9-3.2,27.5,0.9c-8.5-4.1-25.7,6-33.9,8.3
			c-3.3,0.9-6.7,1.8-10,2.6L1903,351.3z"/>
		<path class="st3" d="M264.3,231c9.8-4.4,21.4-4.9,31.2,0.4c4.3,2.4,7.6,6.3,11.8,8.8s9.2,3.6,13.3,6.4s7,8.4,4.5,12.6
			c-1.3,1.8-3.1,3.2-5.2,3.9c-8.2,3.5-17.5,3-26.4,4c-8.4,1-16.5,3.3-24.9,4.5s-17.2,1.1-24.8-2.7c-5.5-2.7,1-17.8,3.1-22
			C250.8,239.9,256.9,234.2,264.3,231z"/>
		<path class="st3" d="M709.6,330c3-0.1,5.9,0.5,8.7,1.6c5,1.8,9.8,4.6,12.6,9.1s2.9,10.9-0.8,14.7c-3.3,3.4-8.6,4-13.3,3.2
			c-6-1-11.5-3-17.6-3.4c-4.4-0.3-9.4,0.1-9.2-5.5C690.3,340.7,700.8,330.5,709.6,330z"/>
		<path class="st3" d="M543.7,69.3c1.8,0,3.6,0.3,5.2,1c3,1.1,5.9,2.8,7.6,5.5s1.7,6.6-0.5,8.9c-2,2.1-5.2,2.4-8,1.9
			c-3.6-0.6-6.9-1.8-10.6-2.1c-2.6-0.2-5.7,0.1-5.5-3.3C532.1,75.7,538.4,69.6,543.7,69.3z"/>
		<path class="st3" d="M94.8,67.2c1.8,0,3.6,0.3,5.2,1c3,1.1,5.9,2.9,7.5,5.6s1.6,6.6-0.6,8.8c-2,2-5.2,2.3-8,1.8
			c-3.6-0.6-6.9-1.9-10.6-2.2c-2.6-0.2-5.7,0-5.5-3.4C83,73.4,89.4,67.4,94.8,67.2z"/>
		<path class="st3" d="M1841.2,168.6c3.1,0,6.2,0.6,9.1,1.8c4.5,1.7,20.3,11.8,17.3,18.4c-2,4.6-11.1,0.2-14.3-0.6
			c-5.4-1.3-11-2.1-16.4-0.4c-2.3,0.7-4.4,1.9-6.7,2.5s-4.9,0.8-7-0.4C1812.7,184,1834.9,168.9,1841.2,168.6z"/>
		<path class="st3" d="M393,300.2c1.8-0.1,3.5,0.2,5.1,0.8c3,1,5.9,2.6,7.5,5.3s1.8,6.4-0.3,8.7c-1.9,2.1-5,2.5-7.8,2.1
			c-3.5-0.5-6.8-1.7-10.5-1.8c-2.6-0.1-5.5,0.2-5.5-3.1C381.8,306.7,387.8,300.5,393,300.2z"/>
		<path class="st1" d="M494.5,232c-1.2-2.6-3.3-4.7-5.9-5.9c2.6-0.3,5.3,0.1,7.6,1.4c-1.6-9.8,1-19.9,7.2-27.7
			c-2.7,7.2-2.6,15.1,0.4,22.2c2.5-6.3,8.9-10,15.6-9.2l-3.3,9.8c4-3,8.7-4.8,13.7-5.1c-1.2,3-2.7,5.8-4.5,8.4
			c4.3-2.5,9.2-3.6,14.2-3.4c-2.4,2.1-4.4,4.7-5.8,7.5c6.4-5.1,14.7-7.1,22.7-5.5c-2.3,2.4-3.9,5.4-4.6,8.6
			c7.7-9.1,18-11.9,29.5-12.6c-4.2,3.7-8,7.9-11.1,12.6c7.2-3.3,15.3-4.1,22.9-2.3c-2.2-0.5-7.8,3.2-9.8,4.3c-2.6,1.1-4.7,3-6.1,5.4
			c-1.5,2.5-0.6,4.8-4.1,6.2c-2.5,1-5.4,0.8-8.1,0.5c-15.1-1.4-30-3.6-44.9-6.4c-10.8-2.1-25.9-2.9-35.5-8.4
			C486.3,231.7,493.1,229.4,494.5,232z"/>
		<path class="st1" d="M844.4,281.8c3.1,2.9,5.5,6.5,7.1,10.4c-7-3.9-15.2-5.2-23.2-4.9s-15.8,2.2-23.5,4.4
			c12.1-0.6,24,3.2,33.4,10.8c-4.2,0.5-8.2,1.8-11.9,3.7c3.3-0.9,6.8-1.4,10.3-1.4c12.8,0,22,3,33.2-4.8c6.9-4.8,14.5-8.5,22.5-11
			c-6.4-2.7-13.6-3.1-20.3-1.2c1.3-4,3.5-7.6,6.5-10.5c-5.3,1.8-12.4,9.4-17.3,9.8S850.2,281.5,844.4,281.8z"/>
	</g>
</g>
</svg>
