<svg xmlns="http://www.w3.org/2000/svg" viewBox="0 0 292.87 310.22"><defs><style>.cls-1{fill:#664944;}</style></defs><g id="Layer_2" data-name="Layer 2"><g id="bg"><path class="cls-1" d="M287.74,292.94a25.54,25.54,0,0,0-2.07-4.07,5.65,5.65,0,0,0,.43-1.43c.3-1.94-.63-3.61-1.4-5.31a9.6,9.6,0,0,0-.33-3,29.06,29.06,0,0,0-1.11-3,17.89,17.89,0,0,1,.71-5.45,3,3,0,0,0,.08-1.39c5.39-4.08,1.87-13.47,3.1-20.53,1.88-10.86,6-21.45,5.7-32.46-.31-10.32-4.53-20.08-6.53-30.21-2.23-11.29-1.66-22.92-1.09-34.42.89-17.76,10.77-55.09-4.41-69-3-2.77-7.13-4-11.15-4.89-28.48-6.15-58.38,3.3-87.15-1.32A10,10,0,0,1,178,74.94c-2.66-2-2.7-6-2.48-9.32.34-5.05,6.27-62.59,3.6-62.69-1.27-.05-88.48-7.3-173.2,1.2,6.43,0-4.95,80.54-5.51,87-3,34.54,11.51,68.85,8.32,103.37-.59,6.33-1.72,13,.81,18.85,5.3,12.19,36.94,8.87,47,8.75,22.94-.29,45.09-3.4,68-4.42,4.57-.2,9.47-.32,13.3,2.18,6.44,4.2,6.73,13.36,6.13,21-.62,8.1-.35,16.32-.31,24.44.06,10.43,1.76,20.61,1.62,31l-.47,13.87c11.57-.91,23.23-1.91,34.91-3l6.79-.63q9.75-.92,19.48-1.88,8.75-.89,17.44-1.79c11.36-1.2,22.64-2.44,33.77-3.72q8.88-1,17.62-2.08l8.35-1h0l4.05-.5.37-.05-.12-.27A2.63,2.63,0,0,0,287.74,292.94ZM22,87.37c-6.45,0-6.43-10,0-10S28.39,87.37,22,87.37ZM125.1,200.45c-7.73,0-7.72-12,0-12S132.83,200.45,125.1,200.45Zm12.74-82c-6.45,0-6.44-10,0-10S144.27,118.46,137.84,118.46ZM249.1,148.82a10,10,0,0,1,5.32,0l2.39,1a10.19,10.19,0,0,1,4.6,6,.09.09,0,0,1,0,0q.19.26.36.51a11.25,11.25,0,0,1,1,7.7,7.49,7.49,0,0,1-1.79,3.41,7.61,7.61,0,0,1-2.8,2.57,11.24,11.24,0,0,1-11.18.05,11.76,11.76,0,0,1-4.46-4.58,12.31,12.31,0,0,1-1.19-3,11.72,11.72,0,0,1,0-5.91,11.15,11.15,0,0,1,2.79-4.83A11.43,11.43,0,0,1,249.1,148.82ZM242.41,83c6.45,0,6.44,10,0,10S236,83,242.41,83Zm-18.2,150c7.73,0,7.72,12,0,12S216.49,233,224.21,233ZM160.45,60.41c6.45,0,6.43,10,0,10S154,60.41,160.45,60.41Z"/></g></g></svg>