<svg xmlns="http://www.w3.org/2000/svg" xmlns:xlink="http://www.w3.org/1999/xlink" viewBox="0 0 293 189.37"><defs><style>.cls-1{fill:none;}.cls-2{fill:#3a3a3a;}.cls-3{fill:#5ebae1;}.cls-4{fill:#e5ba03;}.cls-5{clip-path:url(#clip-path);}.cls-6{fill:#ffda03;}.cls-7{fill:#c7c3b8;}</style><clipPath id="clip-path" transform="translate(30.55)"><path class="cls-1" d="M226.36,122.73c0,28.25-36.16,66.64-115.34,66.64-61.32,0-111-25.62-111-69.89C0,79.31,49.7,52.74,111,52.74S226.36,94.34,226.36,122.73Z"/></clipPath></defs><g id="Layer_2" data-name="Layer 2"><g id="submarine"><g id="Fan"><path class="cls-2" d="M252.73,127.55c-2.4,7.65-6.84,20.83-4.28,25.17s11,3.49,12.38-.16c2.09-5.54-3.11-20.69-4.41-25Z" transform="translate(30.55)"/><path class="cls-2" d="M255.63,121.12c2.4-7.64,6.84-20.82,4.28-25.17s-11-3.48-12.38.16c-2.09,5.55,3.1,20.7,4.41,25.06Z" transform="translate(30.55)"/><path class="cls-2" d="M260.24,124.07A4.28,4.28,0,0,1,256,128.4l-20.41.26a4.27,4.27,0,0,1-4.33-4.21h0a4.28,4.28,0,0,1,4.22-4.33l20.4-.26a4.27,4.27,0,0,1,4.33,4.21Z" transform="translate(30.55)"/><path class="cls-2" d="M223.79,110.78s14.55-1.51,16.15,2.44,2.47,19.71-.8,23.85c-2.88,3.66-16.31,1.32-16.31,1.32Z" transform="translate(30.55)"/><path class="cls-3" d="M248,116.39c3.56-.07,11.05-.6,13,1.19s2.16,11.49-.83,13.88c-2,1.59-8.77,1.28-11.92,1a1.73,1.73,0,0,1-1.67-1.82l-.16-12.72A1.43,1.43,0,0,1,248,116.39Z" transform="translate(30.55)"/></g><rect class="cls-4" x="148.96" y="10.65" width="4.9" height="20.58"/><circle class="cls-2" cx="151.41" cy="7.85" r="5.17"/><path class="cls-4" d="M92,7.28v7.6a3.79,3.79,0,0,0,3.79,3.79h2.69a1.9,1.9,0,0,1,1.9,1.89V31.23h9.94V9.58a6.09,6.09,0,0,0-6.09-6.09H95.79A3.79,3.79,0,0,0,92,7.28Z" transform="translate(30.55)"/><rect class="cls-2" x="119.27" width="6.94" height="21.3" rx="2.96"/><g class="cls-5"><path class="cls-6" d="M226.36,122.73c0,28.25-36.16,66.64-115.34,66.64-61.32,0-111-25.62-111-69.89C0,79.31,49.7,52.74,111,52.74S226.36,94.34,226.36,122.73Z" transform="translate(30.55)"/><path class="cls-4" d="M20.29,64.71s23.81,50.84,0,109.41l-50.84-38Z" transform="translate(30.55)"/></g><circle class="cls-2" cx="111.7" cy="121.05" r="28.03"/><circle class="cls-3" cx="111.7" cy="121.05" r="16.22"/><circle class="cls-7" cx="111.7" cy="99.08" r="1.84"/><circle class="cls-7" cx="89.85" cy="121.05" r="1.84"/><circle class="cls-7" cx="133.56" cy="121.05" r="1.84"/><circle class="cls-7" cx="111.7" cy="143.03" r="1.84"/><circle class="cls-2" cx="177.73" cy="121.05" r="28.03"/><circle class="cls-3" cx="177.73" cy="121.05" r="16.22"/><circle class="cls-7" cx="177.73" cy="99.08" r="1.84"/><circle class="cls-7" cx="155.88" cy="121.05" r="1.84"/><circle class="cls-7" cx="199.59" cy="121.05" r="1.84"/><circle class="cls-7" cx="177.73" cy="143.03" r="1.84"/><path class="cls-6" d="M67.94,62.77s9.91-31.15,18.49-33.13c6.23-1.44,36.36-.79,52.44-.33A10.46,10.46,0,0,1,149,39.76V66Z" transform="translate(30.55)"/><circle class="cls-3" cx="119.27" cy="47.35" r="6.12"/><circle class="cls-3" cx="140.88" cy="47.35" r="6.12"/><circle class="cls-3" cx="163.84" cy="47.35" r="6.12"/><path class="cls-6" d="M205.22,88.82c3.6-5.67,9.46-16.1,13.75-23.47,2.69-4.64,6-5.31,8.47-4.83l20.91,4.07c6.61,1.29,5,4.7,3.79,9.18a60.24,60.24,0,0,1-3.55,9.84c-1.69,3.33-4.32,4.79-9.4,3.8L227.82,85.2c-4.37-.86-5,1.65-7,4.55-2.29,3.4-4,7.79-5.06,10C212,95.52,205.22,88.82,205.22,88.82Z" transform="translate(30.55)"/><path class="cls-4" d="M221.44,70.24c2.7-4.64,6.05-5.31,8.47-4.83l20.91,4.07a11.62,11.62,0,0,1,2.25.64c.49-2.66-.06-4.62-4.72-5.53l-20.91-4.07c-2.43-.48-5.78.19-8.47,4.83-4.29,7.37-10.15,17.8-13.75,23.47,0,0,1.47,1.44,3.41,3.4C212.25,86.35,217.51,77,221.44,70.24Z" transform="translate(30.55)"/><path class="cls-6" d="M205.22,160.94c3.6,5.67,9.46,16.1,13.75,23.47,2.69,4.64,6,5.31,8.47,4.83l20.91-4.07c6.61-1.29,5-4.7,3.79-9.18a60.24,60.24,0,0,0-3.55-9.84c-1.69-3.33-4.32-4.79-9.4-3.8l-11.37,2.21c-4.37.85-5-1.65-7-4.55-2.29-3.4-4-7.8-5.06-10C212,154.24,205.22,160.94,205.22,160.94Z" transform="translate(30.55)"/><path class="cls-4" d="M221.44,179.52c2.7,4.64,6.05,5.3,8.47,4.83l20.91-4.07a11.62,11.62,0,0,0,2.25-.64c.49,2.66-.06,4.62-4.72,5.53l-20.91,4.07c-2.43.48-5.78-.19-8.47-4.83-4.29-7.37-10.15-17.8-13.75-23.47,0,0,1.47-1.44,3.41-3.4C212.25,163.41,217.51,172.75,221.44,179.52Z" transform="translate(30.55)"/><g id="_1" data-name="1"><path class="cls-2" d="M26.29,76.69c-1.35-1.89-8.9,1.61-7.61,4,8.43,11.87,19.88,41.17,5.32,82.7-1.26,3.62,5.92,7.48,7.12,4.81C45.89,125.34,36.33,93.53,26.29,76.69Z" transform="translate(30.55)"/><path class="cls-7" d="M27,84a1.66,1.66,0,1,1-1.68-1.63A1.66,1.66,0,0,1,27,84Z" transform="translate(30.55)"/><path class="cls-7" d="M33.15,99.14a1.66,1.66,0,0,1-3.31,0,1.66,1.66,0,1,1,3.31,0Z" transform="translate(30.55)"/><path class="cls-7" d="M36.59,119.17A1.65,1.65,0,0,1,35,120.85a1.66,1.66,0,1,1,0-3.31A1.65,1.65,0,0,1,36.59,119.17Z" transform="translate(30.55)"/><path class="cls-7" d="M35.73,139.11a1.66,1.66,0,1,1-1.68-1.64A1.65,1.65,0,0,1,35.73,139.11Z" transform="translate(30.55)"/><path class="cls-7" d="M31.47,157.18a1.66,1.66,0,1,1-1.67-1.63A1.65,1.65,0,0,1,31.47,157.18Z" transform="translate(30.55)"/></g></g></g></svg>