<svg xmlns="http://www.w3.org/2000/svg" xmlns:xlink="http://www.w3.org/1999/xlink" viewBox="0 0 159.44 84.87"><defs><style>.cls-1{fill:none;}.cls-2{isolation:isolate;}.cls-3{fill:#0f6026;}.cls-4{fill:#2bb251;}.cls-5{fill:#fff;}.cls-6{clip-path:url(#clip-path);}.cls-7{fill:#0e0e0e;}.cls-8{opacity:0.79;}.cls-9{mix-blend-mode:multiply;opacity:0.5;}.cls-10{fill:#cc6c28;}</style><clipPath id="clip-path"><path class="cls-1" d="M128.49,41.07l20.32-12.63C143,19.15,135.68,13.3,128.2,17.94,120.46,22.76,122.72,31.78,128.49,41.07Z"/></clipPath></defs><g class="cls-2"><g id="Layer_2" data-name="Layer 2"><g id="fish_group" data-name="fish group"><path class="cls-3" d="M132.12,53.82l-22,16.84c-6,4.61-12.14,9.28-19.52,12.68q-1.16-5-2.27-10c-.8-3.52-1.41-7.54,1.86-10.74"/><path class="cls-3" d="M112.63,15.24,91.45,5.93C85.65,3.38,79.75.8,73.46,0q1,5.58,2.12,11.14c.75,3.93,1.81,8.31,5.22,10.41"/><path class="cls-3" d="M0,46.05s19.82.71,29.07,11.83C29.07,57.88,14.91,67.43,0,46.05Z"/><path class="cls-3" d="M12.31,84.87S27.07,70.14,27.7,55C27.7,55,11.33,57.84,12.31,84.87Z"/><path class="cls-4" d="M159.44,30.41S92.86-19.56,22,58.94C22,58.94,114.24,92.64,159.44,30.41Z"/><path class="cls-5" d="M128.47,41.05,148.8,28.42c-5.77-9.28-13.13-15.14-20.61-10.49C120.45,22.74,122.71,31.77,128.47,41.05Z"/><g class="cls-6"><circle class="cls-7" cx="140.85" cy="29.34" r="6.08"/></g><circle class="cls-5" cx="141.68" cy="28.03" r="1.72"/><g class="cls-8"><g class="cls-9"><path class="cls-10" d="M114.26,52.73c-2-1.21-5-3.07-5.28-6.24-.4-3.91,1.19-7.1,1.37-10.89l2.1,2.43c-4,.18-10.23.1-11-6.56a18.77,18.77,0,0,1,.66-6.46,16.77,16.77,0,0,0,.57-2.75c0-.52.65.58.25.47a10,10,0,0,1-2-.67c-1.8-.91-2.38-4.69-.39-5.43,3.68-1.35,7.76,1.9,7.11,7.06a30.28,30.28,0,0,1-1.72,6.14c-1.52,4.44,3.24,4,5.76,3.94a2.19,2.19,0,0,1,2.11,2.44c-.34,5-3.92,9.65,1.39,13,1.78,1.14.92,4.6-.94,3.48Z"/></g><g class="cls-9"><path class="cls-10" d="M73.93,58.22c-1.72-1.35-2.6-3.29-3.82-5.26-1-1.67-2.66-1.53-4.11-1.74-4-.59-5.86-4.45-6.27-9,.87,1,1.76,2,2.64,3.06a11.57,11.57,0,0,1-6.88-4.23c-1.77-2-.09-5.75,2.06-5.18,1.84.48,3.27,2.07,5.1,2.41a3.59,3.59,0,0,1,2.64,3.06c.08,1-.09,2.9,1,3.26a28.82,28.82,0,0,1,3.84,1.28c3.4,1.63,4.82,6.28,6,10.07.6,1.86-.79,3.39-2.22,2.27Z"/></g><g class="cls-9"><path class="cls-10" d="M97.14,49.67c-1.72-1.35-2.6-3.29-3.82-5.26-1-1.67-2.66-1.53-4.11-1.74-4-.59-5.86-4.45-6.27-9l2.63,3.06A11.58,11.58,0,0,1,78.7,32.5c-1.77-2-.09-5.75,2.06-5.18,1.84.48,3.27,2.07,5.1,2.41a3.59,3.59,0,0,1,2.64,3.06c.08,1-.09,2.9,1,3.26a28.82,28.82,0,0,1,3.84,1.28c3.39,1.63,4.82,6.28,6,10.07.6,1.86-.8,3.39-2.22,2.27Z"/></g><g class="cls-9"><path class="cls-10" d="M57,59.29a17.52,17.52,0,0,0-3.6-.2c-1.89.28-2.44-.33-3.86-2-2.36-2.67-5.58-2.84-8.22-4.75-1.78-1.28-1.24-5.22.76-5.23,4.37,0,8.8,3,11.72,7.3L52.2,53.33c2,0,3.54,1.46,5.37,2.49,1.62.92,1.1,3.57-.53,3.47Z"/></g></g><path class="cls-3" d="M70.16,41.89a6,6,0,0,0,1.45,2.94l3,4a7.9,7.9,0,0,0,2.49,2.43,6,6,0,0,0,4.21.19,23.65,23.65,0,0,0,7.29-4c3.12-2.24,13.51-7.21,13-11.48C99.07,35.75,70.14,40.77,70.16,41.89Z"/></g></g></g></svg>