<svg xmlns="http://www.w3.org/2000/svg" xmlns:xlink="http://www.w3.org/1999/xlink" viewBox="0 0 260.33 136.2"><defs><style>.cls-1,.cls-4,.cls-5{fill:none;}.cls-2{fill:#dd3a90;}.cls-3{fill:#ff7dbb;}.cls-4{stroke:#fdcfff;stroke-miterlimit:10;stroke-width:0.78px;}.cls-4,.cls-5{stroke-linecap:round;}.cls-5{stroke:#231f20;stroke-linejoin:round;stroke-width:0.56px;}.cls-6{fill:#fff;}.cls-7{clip-path:url(#clip-path);}.cls-8{fill:#0e0e0e;}.cls-9{clip-path:url(#clip-path-2);}</style><clipPath id="clip-path"><path class="cls-1" d="M182,94.83l-8.08-4.36c2-3.69,4.68-6.11,7.65-4.5S184,91.14,182,94.83Z"/></clipPath><clipPath id="clip-path-2"><path class="cls-1" d="M22.92,28.81,9,19.68c4.17-6.35,9.39-10.28,14.5-6.92C28.82,16.24,27.09,22.46,22.92,28.81Z"/></clipPath></defs><g id="Layer_2" data-name="Layer 2"><g id="pink_fish" data-name="pink fish"><path class="cls-2" d="M193.14,81.29a66.71,66.71,0,0,1,38.21-4.37c-5.82,2.27-10.25,11.27-9.35,19"/><path class="cls-2" d="M185.22,117.8c10.58,4.74,23.56,9.31,34.95,10.51-3.11-2.65-4.56-8.23-3.5-13.44"/><path class="cls-3" d="M236,105,216.53,90.6a56.61,56.61,0,0,0-7.78-5.11,37.48,37.48,0,0,0-12.13-3.43,30.65,30.65,0,0,0-10.42.08c-6.27,1.34-12.42,5.84-17,12.41,2.45,7,4.93,14.3,9.52,18.79,7.29,7.16,17.51,7.58,27.06,5.28s18.91-7,28.46-9.42"/><path class="cls-2" d="M235.78,104.59c6.11-10.45,15.27-17.67,24.55-19.34-.22,10-3.8,20.35-9.55,27.56a64,64,0,0,1-.43,23.39c-9.42-2.13-16.56-13.41-16.83-26.59"/><path class="cls-4" d="M192.85,81.47a235.19,235.19,0,0,0-7.54,35.81"/><path class="cls-5" d="M170,97.07a3,3,0,0,0,3,2.25,4.23,4.23,0,0,0,3.15-2.82"/><path class="cls-4" d="M194.16,82.47c1.18.08,1.76,1.63,1.33,2.73A5.73,5.73,0,0,1,193,87.63a2.95,2.95,0,0,1-.52,5.79,2.61,2.61,0,0,1,.45,3.47,7.68,7.68,0,0,1-3,2.4,4.09,4.09,0,0,1-.5,7.41,3.89,3.89,0,0,1,2.95,3.14c.13,1.53-1.44,3.08-2.88,2.57.27,1.11,1.73,1.52,2.15,2.57a2.08,2.08,0,0,1-1.15,2.44,4.82,4.82,0,0,1-2.89.25"/><path class="cls-4" d="M200.56,84.3a2.46,2.46,0,0,1,1.68,3.29,3.84,3.84,0,0,1-3.37,2.21,5.35,5.35,0,0,1,3.74,4.64c0,2.12-1.94,4.18-4,3.84,1.71.69,3.73,1.91,3.48,3.73-.21,1.43-1.74,2.22-3.09,2.76a6.15,6.15,0,0,1,2.7,1.56,2.18,2.18,0,0,1,.11,2.86c-1.13,1.11-3.41.21-4.36,1.47a6.13,6.13,0,0,1,1.87,1.67,2.08,2.08,0,0,1,0,2.37c-.67.8-2.11.87-2.43,1.86a3,3,0,0,1,1.15,2.08c-.05.82-1.26,1.43-1.7.74"/><path class="cls-4" d="M209.31,88.21a4.83,4.83,0,0,1-1.66,8.44,3.76,3.76,0,0,1,3.19,1.46,3.08,3.08,0,0,1,.14,3.44,5.54,5.54,0,0,1-3.19,1.86,8.74,8.74,0,0,1,3.11.82,3,3,0,0,1,1.65,2.59c-.1,1.76-2.11,2.67-3.79,3.19a2.12,2.12,0,0,1,2.49,2.5,2.7,2.7,0,0,1-3.43,1.68,2.58,2.58,0,0,1,1.4,2.23c-.11.92-1.58,1.44-2,.59"/><path class="cls-4" d="M218.9,96.36a4.11,4.11,0,0,1-1.28,6.83,2.59,2.59,0,0,1-.25,5.08c.73-.09,1.33.65,1.47,1.38a3,3,0,0,1-2.23,3.35"/><path class="cls-2" d="M215.73,94.16c-1.51,3.43-6,4.19-8.75,6.77-2.13,2-3,5-3.74,7.86l-7.16-4.53a9.27,9.27,0,0,1-2-1.5,6.24,6.24,0,0,1-1.42-2.89c-1.17-5,5.15-4.33,8.49-4.75,2.41-.3,4.83-.52,7.26-.69C209.21,94.38,215.56,94.55,215.73,94.16Z"/><path class="cls-6" d="M182,94.82l-8.08-4.36c2-3.69,4.68-6.11,7.65-4.5S184,91.13,182,94.82Z"/><g class="cls-7"><circle class="cls-8" cx="176.96" cy="90.63" r="2.33"/></g><circle class="cls-6" cx="176.61" cy="90.15" r="0.66"/><path class="cls-2" d="M45.18,6.14C68.78-1.34,92.73-2,114.77,4.23,103.92,7.43,94.53,23,94.93,37"/><path class="cls-2" d="M25.18,70.73c18.34,10.21,41,20.48,61.38,24.42-5.18-5.25-6.93-15.55-4.21-24.78"/><path class="cls-3" d="M118.83,55.6l-32.92-29A102.25,102.25,0,0,0,72.67,16.16c-6.59-4.09-13.91-6.42-21.34-8.08C45.23,6.72,39,5.79,32.53,6.59,21,8,9.23,15.17,0,26.31c3.3,13,6.65,26.55,14.21,35.38,12,14,30.39,16.4,48,13.74S97.39,65.7,115,62.9"/><path class="cls-2" d="M118.44,54.82c12.63-17.89,30.28-29.46,47.29-31-2,18-10,36.09-21.54,48.2a116.09,116.09,0,0,1-4.43,42.1c-16.65-5.3-27.77-26.77-26.2-50.58"/><path class="cls-4" d="M44.62,6.42A424.16,424.16,0,0,0,25.44,69.81"/><path class="cls-5" d="M1,31c.71,2.72,2.71,4.54,5,4.52s4.74-1.86,6.12-4.6"/><path class="cls-4" d="M46.83,8.43c2.12.32,2.93,3.22,2,5.13s-3,3-4.87,4a5.51,5.51,0,0,1,3.46,5.95,5.51,5.51,0,0,1-5.29,4.41c1.83,1.45,1.66,4.45.26,6.33s-3.62,2.9-5.76,3.86a7.4,7.4,0,0,1-2.06,13.27c2.58,1,4.84,3.37,4.83,6.14s-3.08,5.32-5.61,4.19c.32,2,2.89,3,3.47,5,.51,1.71-.79,3.55-2.44,4.21a8.74,8.74,0,0,1-5.26,0"/><path class="cls-4" d="M58.1,12.72c2.5.58,3.64,3.91,2.51,6.21s-3.86,3.49-6.43,3.45c3.51,1.54,6.26,5.13,6,9s-4.15,7.23-7.86,6.28c3,1.52,6.43,4,5.68,7.28-.6,2.55-3.49,3.72-6,4.49a11.19,11.19,0,0,1,4.62,3.24c1.1,1.55,1.22,4-.25,5.17-2.21,1.82-6.19-.16-8.1,2a10.93,10.93,0,0,1,3.12,3.31,3.74,3.74,0,0,1-.36,4.27c-1.34,1.34-3.94,1.24-4.67,3,1,1.13,2,2.46,1.75,3.93s-2.5,2.37-3.18,1.06"/><path class="cls-4" d="M73.25,21.14a8.73,8.73,0,0,1-4.3,15,6.84,6.84,0,0,1,5.52,3.15,5.59,5.59,0,0,1-.28,6.21c-1.42,1.78-3.83,2.37-6.06,2.85a15.67,15.67,0,0,1,5.48,2,5.37,5.37,0,0,1,2.58,4.92c-.45,3.17-4.22,4.49-7.34,5.16,2.52-.62,5,2.43,4.11,4.89s-4.09,3.56-6.46,2.5c1.32,1,2.53,2.6,2.19,4.24s-3.09,2.35-3.65.77"/><path class="cls-4" d="M89.27,37.34a7.43,7.43,0,0,1-3.38,12.12,4.69,4.69,0,0,1-1.24,9.12c1.34,0,2.29,1.39,2.44,2.72A5.38,5.38,0,0,1,82.54,67"/><path class="cls-2" d="M83.9,32.88c-3.26,5.94-11.54,6.6-16.84,10.84-4.15,3.32-6.15,8.58-8,13.58L46.9,48a17.26,17.26,0,0,1-3.31-3,11.45,11.45,0,0,1-2.11-5.44c-1.32-9.24,10-7,16.06-7.23q6.59-.24,13.19-.1C72.11,32.27,83.53,33.55,83.9,32.88Z"/><path class="cls-6" d="M22.93,28.79,9,19.67c4.17-6.35,9.39-10.28,14.5-6.92C28.83,16.22,27.1,22.45,22.93,28.79Z"/><g class="cls-9"><circle class="cls-8" cx="14.54" cy="20.44" r="4.23"/></g><circle class="cls-6" cx="13.99" cy="19.52" r="1.2"/></g></g></svg>