<svg xmlns="http://www.w3.org/2000/svg" xmlns:xlink="http://www.w3.org/1999/xlink" viewBox="0 0 192.26 151.23"><defs><style>.cls-1{fill:none;}.cls-2{fill:#f8d84d;}.cls-3{fill:#faab19;}.cls-4{fill:#fff;}.cls-5{clip-path:url(#clip-path);}.cls-6{fill:#0e0e0e;}.cls-7{clip-path:url(#clip-path-2);}.cls-8{fill:#dfbe35;opacity:0.63;}</style><clipPath id="clip-path"><path class="cls-1" d="M151.92,61.79l26.33-4.13C176,43.51,170.72,32.58,161,34.1,151,35.67,149.68,47.64,151.92,61.79Z"/></clipPath><clipPath id="clip-path-2"><path class="cls-1" d="M145,64.59l-25.26,8.84c-4-13.7-4-26,5.3-29.22C134.66,40.84,141,50.89,145,64.59Z"/></clipPath></defs><g id="Layer_2" data-name="Layer 2"><g id="round_fish" data-name="round fish"><path class="cls-2" d="M26.41,80.46,9.59,74a4.64,4.64,0,0,0-1.84-.32c-2.39.09-7.85.87-4.84,6.33,1.73,2.41,3.34,5-.72,6.69-2.75,1.19-3.45,4.59,1.12,7,1.19,0,2.15,1.3-.74,5.65-.63,2.21.14,4.07,4.23,5.88A6.16,6.16,0,0,1,8,106c.46.37.89.46,1.19,1.36a4.4,4.4,0,0,1-.17,3.13c-1.13,2.56-1.49,5.86,3.63,7.17a5,5,0,0,0,2,.07c2.47-.43,4.36-.72,5.16,2.62.7,1.54,2.41,3.8,5.25-.84a142.12,142.12,0,0,0,9.1-16.38c.48-1,1.28-3,.93-4.07C33.62,94.3,31.37,86,30.18,82.21,29.75,80.83,27.75,81,26.41,80.46Z"/><path class="cls-3" d="M29.7,86.63c6.14,38.37,47,63.73,91.14,56.65,30.94-5,55.87-22.63,67.19-53.08,10.71-15.06-2.74-28.46-5-33.31-4.5-41.81-41.72-59.4-84.48-52.55C54.39,11.42,23.55,48.26,29.7,86.63Z"/><path class="cls-2" d="M188,90.2s5.67-4.43,3.78-15.16c-.71-4-12.28-21.25-50,7.44-4.13,3.14-46.38,49.93-106.54,21.65a42,42,0,0,0,4.4,7.58c10.06,14.23,34.87,39,81.18,31.57C140.85,140.07,175.38,128.75,188,90.2Z"/><g id="Expression"><path class="cls-4" d="M156.74,61l26.32-4.13c-2.23-14.16-7.52-25.09-17.2-23.57C155.82,34.9,154.5,46.86,156.74,61Z"/><g class="cls-5"><ellipse class="cls-6" cx="163.27" cy="55.62" rx="6.78" ry="7.98" transform="translate(-6.75 26.57) rotate(-9.11)"/></g><ellipse class="cls-4" cx="160.28" cy="55.58" rx="1.57" ry="1.85" transform="translate(-6.78 26.09) rotate(-9.11)"/><path class="cls-4" d="M151.16,62.42,125.9,71.26c-4.05-13.7-4-26,5.3-29.22C140.83,38.67,147.11,48.73,151.16,62.42Z"/><g class="cls-7"><ellipse class="cls-6" cx="132.23" cy="64.49" rx="6.78" ry="7.98" transform="translate(-8.52 21.66) rotate(-9.07)"/></g><ellipse class="cls-4" cx="129.24" cy="65.54" rx="1.57" ry="1.85" transform="matrix(0.99, -0.16, 0.16, 0.99, -8.72, 21.2)"/></g><path class="cls-2" d="M88.56,82.46a5.15,5.15,0,0,0-2.4-4.3c-3.18-2-8.84-5.26-13.44-6.2C67.18,70.42,60.64,73,61.93,80.73a5.45,5.45,0,0,0,.2.82C64.5,88.62,66,92.93,65.8,97.36c0,2.94-.72,9.87,7.46,9,6.45-1.86,10.84-5.6,15.27-9.47a5.17,5.17,0,0,0,1.53-5.6A25.42,25.42,0,0,1,88.56,82.46Z"/><path class="cls-2" d="M93.59,44.77l-6.47-1.08c-.83-.13-1.63.83-1.09,1.48A37.44,37.44,0,0,0,91,50.35Z"/><path class="cls-3" d="M123,115.58l-3.77,5.36c-.48.69,0,1.84.85,1.63a37.29,37.29,0,0,0,6.81-2.21Z"/><path class="cls-3" d="M108.63,111.13,103,114.39c-.73.42-.74,1.68.08,1.84a37.68,37.68,0,0,0,7.11.87Z"/><path class="cls-3" d="M93,122.76l-5.11,4.1c-.66.53-.47,1.77.37,1.8a37.44,37.44,0,0,0,7.15-.24Z"/><path class="cls-3" d="M127.29,101.93l-4.35,4.9c-.56.63-.17,1.83.66,1.71a37.52,37.52,0,0,0,7-1.44Z"/><path class="cls-3" d="M64.82,116.94l-3.32,5.65c-.43.73.19,1.83,1,1.55a38,38,0,0,0,6.6-2.76Z"/><path class="cls-3" d="M73.23,126.43l-2.1,6.21c-.27.79.56,1.74,1.28,1.31a38,38,0,0,0,5.91-4Z"/><path class="cls-3" d="M41.83,114.55l-3.74,5.38c-.48.69,0,1.83.86,1.62a37.72,37.72,0,0,0,6.8-2.25Z"/><path class="cls-3" d="M54.17,127l-2.77,6.34c-.57,1.32.59,2,1.3,1.44,3.34-2.5,5.89-4.2,5.89-4.2Z"/><path class="cls-3" d="M70.75,137.63,70,144.5c-.16,1.43,1.14,1.72,1.67,1,2.45-3.37,4.4-5.74,4.4-5.74Z"/><path class="cls-2" d="M68.67,48.76l-6.14-1c-1-.16-1.89,1-1.27,1.74a33.15,33.15,0,0,0,4.79,4.86Z"/><path class="cls-2" d="M52.1,42.47l-6.14-1c-1-.16-1.9,1-1.27,1.74A33.15,33.15,0,0,0,49.48,48Z"/><path class="cls-2" d="M68.44,30l-6-1c-1-.17-2,1-1.33,1.82a28.44,28.44,0,0,0,4.84,4.55Z"/><path class="cls-2" d="M92.63,21.63l-6.15-2.91a1.56,1.56,0,0,0-1.58,2.44l3.61,5.13Z"/><path class="cls-2" d="M117.15,23.65,111,20.75a1.56,1.56,0,0,0-1.59,2.43L113,28.31Z"/><path class="cls-2" d="M94,7.1,90,1.64A1.57,1.57,0,0,0,87.41,3l.77,6.22Z"/><path class="cls-2" d="M73.39,12.68l-3.12-2.42A.82.82,0,0,0,69,11a31.54,31.54,0,0,0,.69,3.43Z"/><path class="cls-2" d="M52.79,27.6l-5.74-1.75c-1.39-.28-1.93.86-1.12,2l2.94,4Z"/><path class="cls-2" d="M44.17,55.49l-7,.22a1.56,1.56,0,0,0-.37,2.88l6.69,3.79Z"/><path class="cls-2" d="M57.34,66.2l-7,.22a1.56,1.56,0,0,0-.37,2.88l6.7,3.8Z"/><path class="cls-2" d="M45.08,81.51l-6.62,2.42A1.56,1.56,0,0,0,39,86.78l7.55,1.51Z"/><path class="cls-2" d="M32.28,73.52l-7,.23a1.56,1.56,0,0,0-.37,2.88l6.71,3.79Z"/><path class="cls-2" d="M40.52,41.59l-5.36-1.11c-1-.34-1.7.25-1.08,1.44l3.1,5.38Z"/><path class="cls-2" d="M121,6.85,118.15.62a1.56,1.56,0,0,0-2.8.78l-.67,6.24Z"/><path class="cls-2" d="M139.82,9.85,139.48,3a1.56,1.56,0,0,0-2.89-.3l-2.9,5.56Z"/><path class="cls-8" d="M67.82,136.22c8.46,5.1,28.26,11.09,52.66,7.36,14-2.49,34.39-7.94,50.77-25,4.8-4.7,13.4-16.5,16.78-28.35a12.81,12.81,0,0,0,4.16-10.47c.2-1.13.14-7.47-2.39-8.4-5.71,11.54-22.56,35.84-46.05,48.27C118.14,133.16,85.31,134.44,67.82,136.22Z"/><path class="cls-3" d="M95.69,134.88l-1.4,6.41c-.18.82.74,1.67,1.42,1.17a37.85,37.85,0,0,0,5.41-4.68Z"/><path class="cls-3" d="M119.12,132.66l-.34,6.55c0,.84,1,1.53,1.59.92a37.4,37.4,0,0,0,4.59-5.5Z"/><path class="cls-3" d="M126.91,141.79l3,5.83c.39.75,1.65.82,1.84,0a38.2,38.2,0,0,0,1.2-7.06Z"/><path class="cls-3" d="M90.18,143.29l1.08,6.83c.23,1.43,1.56,1.35,1.88.52,1.46-3.91,2.7-6.71,2.7-6.71Z"/><path class="cls-3" d="M108.83,142.14l-.35,6.54c0,.84,1,1.54,1.59.93a38.08,38.08,0,0,0,4.59-5.5Z"/><path class="cls-6" d="M177.87,76.73a1,1,0,0,0-.43.06,1.2,1.2,0,0,0-.36.22,1.07,1.07,0,0,0-.25.35,1.17,1.17,0,0,0-.1.41,9.29,9.29,0,0,0,.15,2.47,7.46,7.46,0,0,1-5.07,8.93c-2.18.81-5.55-.63-7-3A12,12,0,0,1,163,81.75a5,5,0,0,0-.71-1.69,1.1,1.1,0,0,0-.49-.53,1.13,1.13,0,0,0-.72-.13c-.67.08-.62.66-.78,1.1a4.77,4.77,0,0,0,.32,3.44c1.34,4.2,3.27,7.31,7.71,8.1a9.75,9.75,0,0,0,7-1.73,9.37,9.37,0,0,0,3.8-6.06,14.74,14.74,0,0,0-.41-6.57C178.68,77.16,178.47,76.74,177.87,76.73Z"/></g></g></svg>