<?xml version="1.0" encoding="utf-8"?><!--Generator: Adobe Illustrator 26.0.2, SVG Export Plug-In . SVG Version: 6.00 Build 0)--><svg version="1.1" id="Layer_1" xmlns="http://www.w3.org/2000/svg" xmlns:xlink="http://www.w3.org/1999/xlink" x="0px" y="0px" viewBox="0 0 1920 1080" style="enable-background:new 0 0 1920 1080" xml:space="preserve"><style type="text/css">.st0{fill:url(#SVGID_1_);}
	.st1{fill:#80AF62;}
	.st2{opacity:0.1;fill:#2CC0EF;enable-background:new    ;}
	.st3{opacity:0.1;fill:#23C0EE;enable-background:new    ;}
	.st4{opacity:0.2;fill:#0689D0;enable-background:new    ;}
	.st5{opacity:0.1;fill:#FFFFFF;enable-background:new    ;}
	.st6{opacity:5.000000e-02;fill:#71D5F4;enable-background:new    ;}
	.st7{fill:none;}
	.st8{fill:#915B36;}
	.st9{fill:#45AA62;}
	.st10{fill:#00803A;}
	.st11{fill:#775A44;}</style><g id="Layer_2_00000065764527506338352220000013478142683221368457_"><g id="bg"><linearGradient id="SVGID_1_" gradientUnits="userSpaceOnUse" x1="952.9171" y1="-387.0799" x2="961.8871" y2="787.0001" gradientTransform="matrix(1 0 0 -1 0 1080)"><stop offset="1.000000e-02" style="stop-color:#0285CE"/><stop offset="0.36" style="stop-color:#0083CD"/><stop offset="0.49" style="stop-color:#198FC0"/><stop offset="0.76" style="stop-color:#5AAC9F"/><stop offset="1" style="stop-color:#9AC97F"/></linearGradient><rect class="st0" width="1920" height="1080"/><path class="st1" d="M441.7,18.6v4.8c0,0.8,0.7,1.5,1.5,1.5s1.5-0.7,1.5-1.5v-4.8c0-0.8-0.7-1.5-1.5-1.5S441.7,17.8,441.7,18.6z"/><path class="st1" d="M446.7,10.2l1.4,9.6c0.2,0.8,1,1.3,1.9,1c0.8-0.2,1.3-1,1.1-1.8l-1.4-9.6c-0.2-0.8-1-1.3-1.8-1.1
			C447,8.6,446.5,9.4,446.7,10.2L446.7,10.2z"/><path class="st1" d="M455.4,16.6l0.9,6.4c0.1,0.4,0.4,0.7,0.7,0.9c0.4,0.2,0.8,0.2,1.2,0.1c0.4-0.1,0.7-0.4,0.9-0.7
			c0.2-0.4,0.2-0.8,0.1-1.2l-0.9-6.4c-0.2-0.8-1-1.3-1.8-1c-0.4,0.1-0.7,0.4-0.9,0.7C455.4,15.8,455.3,16.2,455.4,16.6L455.4,16.6z"/><path class="st1" d="M45.2,324.6v4.8c0,0.8,0.7,1.5,1.5,1.5s1.5-0.7,1.5-1.5v-4.8c0-0.8-0.7-1.5-1.5-1.5S45.2,323.8,45.2,324.6z"/><path class="st1" d="M50.2,316.2l1.4,9.6c0.2,0.8,1.1,1.2,1.8,1c0.8-0.3,1.2-1.1,1-1.8l-1.4-9.6c-0.2-0.8-1.1-1.2-1.8-1
			C50.4,314.6,50,315.4,50.2,316.2L50.2,316.2z"/><path class="st1" d="M58.9,322.6l0.9,6.4c0.1,0.4,0.3,0.7,0.7,0.9c0.3,0.2,0.8,0.3,1.2,0.2c0.4-0.1,0.7-0.4,0.9-0.7
			c0.2-0.4,0.2-0.8,0.2-1.2l-0.9-6.4c-0.1-0.4-0.3-0.7-0.7-0.9c-0.4-0.2-0.8-0.3-1.2-0.1c-0.4,0.1-0.7,0.4-0.9,0.7
			C58.9,321.8,58.8,322.2,58.9,322.6L58.9,322.6z"/><path class="st1" d="M1095.2,41.1v4.8c0,0.8,0.7,1.5,1.5,1.5s1.5-0.7,1.5-1.5v-4.8c0-0.8-0.7-1.5-1.5-1.5
			C1095.9,39.6,1095.3,40.2,1095.2,41.1z"/><path class="st1" d="M1100.2,32.7l1.4,9.6c0.2,0.8,1.1,1.2,1.8,1c0.8-0.3,1.2-1.1,1-1.8l-1.4-9.6c-0.2-0.8-1-1.3-1.8-1.1
			c0,0,0,0,0,0C1100.4,31,1100,31.8,1100.2,32.7L1100.2,32.7z"/><path class="st1" d="M1108.9,39.1l0.9,6.4c0.2,0.8,1,1.3,1.8,1c0.4-0.1,0.7-0.4,0.9-0.7c0.2-0.4,0.2-0.8,0.2-1.2l-0.9-6.4
			c-0.1-0.4-0.4-0.7-0.7-0.9c-0.4-0.2-0.8-0.2-1.2-0.2c-0.4,0.1-0.7,0.4-0.9,0.7C1108.9,38.3,1108.8,38.7,1108.9,39.1z"/><path class="st1" d="M1264.1,56.7v4.8c0,0.8,0.7,1.5,1.5,1.5s1.5-0.7,1.5-1.5v-4.8c0-0.8-0.7-1.5-1.5-1.5S1264.1,55.8,1264.1,56.7
			z"/><path class="st1" d="M1269,48.3l1.4,9.6c0.2,0.8,1,1.3,1.8,1c0.8-0.3,1.2-1.1,1-1.8l-1.4-9.6c-0.2-0.8-1.1-1.2-1.8-1
			C1269.2,46.7,1268.8,47.5,1269,48.3L1269,48.3z"/><path class="st1" d="M1277.7,54.7l0.9,6.4c0.1,0.4,0.4,0.7,0.7,0.9c0.4,0.2,0.8,0.2,1.2,0.2c0.4-0.1,0.7-0.4,0.9-0.7
			c0.2-0.4,0.2-0.8,0.2-1.2l-0.9-6.4c-0.1-0.4-0.4-0.7-0.7-0.9c-0.7-0.4-1.6-0.1-2,0.5C1277.8,53.9,1277.7,54.3,1277.7,54.7
			L1277.7,54.7z"/><path class="st1" d="M1371.3,322.6v4.8c0,0.8,0.7,1.5,1.5,1.5s1.5-0.7,1.5-1.5v-4.8c0-0.8-0.7-1.5-1.5-1.5
			C1372,321.1,1371.3,321.8,1371.3,322.6z"/><path class="st1" d="M1376.3,314.2l1.4,9.6c0.2,0.8,1.1,1.2,1.8,1c0.8-0.3,1.2-1.1,1-1.9l-1.4-9.6c-0.2-0.8-1-1.3-1.8-1
			C1376.5,312.5,1376.1,313.3,1376.3,314.2L1376.3,314.2z"/><path class="st1" d="M1385,320.6l0.9,6.4c0.2,0.8,1,1.3,1.8,1.1c0,0,0,0,0,0c0.4-0.1,0.7-0.4,0.9-0.7c0.2-0.4,0.2-0.8,0.2-1.1
			l-0.9-6.4c-0.1-0.4-0.4-0.7-0.7-0.9c-0.4-0.2-0.8-0.2-1.2-0.1c-0.4,0.1-0.7,0.4-0.9,0.7C1385,319.8,1384.9,320.2,1385,320.6z"/><path class="st1" d="M1216.2,267.8v4.8c0,0.8,0.7,1.5,1.5,1.5s1.5-0.7,1.5-1.5v-4.8c0-0.8-0.7-1.5-1.5-1.5
			S1216.2,267,1216.2,267.8z"/><path class="st1" d="M1221.2,259.4l1.4,9.6c0.2,0.8,1,1.3,1.8,1c0.8-0.3,1.2-1.1,1-1.8l-1.4-9.6c-0.2-0.8-1-1.3-1.8-1
			C1221.4,257.8,1221,258.6,1221.2,259.4z"/><path class="st1" d="M1229.9,265.8l0.9,6.4c0.1,0.4,0.3,0.7,0.7,0.9c0.4,0.2,0.8,0.2,1.2,0.1c0.4-0.1,0.7-0.4,0.9-0.7
			c0.2-0.4,0.2-0.8,0.2-1.2l-0.9-6.4c-0.1-0.4-0.3-0.7-0.7-0.9c-0.3-0.2-0.8-0.3-1.2-0.1c-0.4,0.1-0.7,0.4-0.9,0.7
			C1229.8,265,1229.8,265.4,1229.9,265.8L1229.9,265.8z"/><path class="st1" d="M1316.4,154.2v4.8c0,0.8,0.7,1.5,1.5,1.5s1.5-0.7,1.5-1.5v-4.8c0-0.8-0.7-1.5-1.5-1.5
			S1316.4,153.4,1316.4,154.2L1316.4,154.2z"/><path class="st1" d="M1321.3,145.8l1.4,9.6c0.2,0.8,1,1.3,1.8,1.1c0.8-0.3,1.2-1.1,1-1.9l-1.4-9.6c-0.2-0.8-1-1.3-1.8-1.1
			c0,0,0,0,0,0C1321.5,144.2,1321.1,145,1321.3,145.8L1321.3,145.8z"/><path class="st1" d="M1330,152.2l0.9,6.4c0.2,0.8,1,1.3,1.8,1.1c0.4-0.1,0.7-0.3,0.9-0.7c0.2-0.4,0.2-0.8,0.2-1.1l-0.9-6.4
			c-0.1-0.4-0.4-0.7-0.7-0.9c-0.4-0.2-0.8-0.3-1.2-0.2c-0.4,0.1-0.7,0.4-0.9,0.7C1330,151.4,1329.9,151.8,1330,152.2z"/><path class="st1" d="M1757.7,315.8v4.8c0,0.8,0.7,1.5,1.5,1.5s1.5-0.7,1.5-1.5v-4.8c0-0.8-0.7-1.5-1.5-1.5
			S1757.7,315,1757.7,315.8z"/><path class="st1" d="M1762.7,307.4l1.4,9.6c0.2,0.8,1,1.3,1.8,1c0.8-0.3,1.2-1.1,1-1.8l-1.4-9.6c-0.2-0.8-1.1-1.2-1.8-1
			C1762.9,305.8,1762.5,306.6,1762.7,307.4L1762.7,307.4z"/><path class="st1" d="M1771.3,313.8l0.9,6.4c0.1,0.4,0.4,0.7,0.7,0.9c0.4,0.2,0.8,0.3,1.2,0.2c0.4-0.1,0.7-0.4,0.9-0.7
			c0.2-0.4,0.2-0.8,0.2-1.2l-0.9-6.4c-0.2-0.8-1-1.3-1.8-1c-0.4,0.1-0.7,0.4-0.9,0.7C1771.3,313,1771.3,313.4,1771.3,313.8
			L1771.3,313.8z"/><path class="st1" d="M1639.5,161v4.8c0,0.8,0.7,1.5,1.5,1.5s1.5-0.7,1.5-1.5V161c0-0.8-0.7-1.5-1.5-1.5S1639.5,160.2,1639.5,161z"/><path class="st1" d="M1644.4,152.6l1.4,9.6c0.2,0.8,1.1,1.2,1.8,1c0.8-0.3,1.2-1.1,1-1.8l-1.4-9.6c-0.2-0.8-1-1.3-1.8-1.1
			C1644.7,151,1644.2,151.8,1644.4,152.6L1644.4,152.6z"/><path class="st1" d="M1653.1,159l0.9,6.4c0.2,0.8,1.1,1.2,1.8,1c0.4-0.1,0.7-0.4,0.9-0.7c0.2-0.4,0.2-0.8,0.2-1.2l-0.9-6.4
			c-0.2-0.8-1-1.3-1.8-1c-0.4,0.1-0.7,0.4-0.9,0.7C1653.1,158.1,1653.1,158.6,1653.1,159L1653.1,159z"/><path class="st1" d="M1521.4,308.8v4.8c0,0.8,0.7,1.5,1.5,1.5s1.5-0.7,1.5-1.5v-4.8c0-0.8-0.7-1.5-1.5-1.5
			S1521.4,308,1521.4,308.8z"/><path class="st1" d="M1526.3,300.4l1.4,9.6c0.2,0.8,1.1,1.2,1.8,1c0.8-0.3,1.2-1.1,1-1.8l-1.4-9.6c-0.2-0.8-1-1.3-1.8-1
			C1526.6,298.8,1526.1,299.6,1526.3,300.4L1526.3,300.4z"/><path class="st1" d="M1535,306.8l0.9,6.4c0.2,0.8,1,1.3,1.8,1.1c0,0,0,0,0,0c0.4-0.1,0.7-0.4,0.9-0.7c0.2-0.4,0.2-0.8,0.2-1.2
			l-0.9-6.4c-0.2-0.8-1-1.3-1.8-1c-0.4,0.1-0.7,0.4-0.9,0.7C1535,306,1534.9,306.4,1535,306.8z"/><path class="st1" d="M898.9,54.3v4.8c0,0.8,0.7,1.5,1.5,1.5s1.5-0.7,1.5-1.5l0,0v-4.8c0-0.8-0.7-1.5-1.5-1.5
			S898.9,53.4,898.9,54.3z"/><path class="st1" d="M903.9,45.9l1.4,9.6c0.2,0.8,1.1,1.2,1.8,1c0.8-0.3,1.2-1.1,1-1.8l-1.4-9.6c-0.2-0.8-1.1-1.2-1.8-1
			C904.1,44.3,903.7,45.1,903.9,45.9L903.9,45.9z"/><path class="st1" d="M912.6,52.3l0.9,6.4c0.1,0.4,0.3,0.7,0.7,0.9c0.3,0.2,0.8,0.3,1.2,0.2c0.4-0.1,0.7-0.4,0.9-0.7
			c0.2-0.4,0.2-0.8,0.2-1.2l-0.9-6.4c-0.1-0.4-0.3-0.7-0.7-0.9c-0.4-0.2-0.8-0.3-1.2-0.2c-0.4,0.1-0.7,0.4-0.9,0.7
			C912.6,51.5,912.5,51.9,912.6,52.3L912.6,52.3z"/><path class="st1" d="M1764.1,43.1v4.8c0,0.8,0.7,1.5,1.5,1.5s1.5-0.7,1.5-1.5v-4.8c0-0.8-0.7-1.5-1.5-1.5S1764.1,42.2,1764.1,43.1
			z"/><path class="st1" d="M1769,34.7l1.4,9.6c0.2,0.8,1.1,1.2,1.8,1c0.8-0.3,1.2-1.1,1-1.8l-1.4-9.6c-0.2-0.8-1.1-1.2-1.8-1
			C1769.2,33.1,1768.8,33.9,1769,34.7L1769,34.7z"/><path class="st1" d="M1777.7,41.1l0.9,6.4c0.1,0.4,0.4,0.7,0.7,0.9c0.4,0.2,0.8,0.3,1.2,0.2c0.4-0.1,0.7-0.4,0.9-0.7
			c0.2-0.4,0.2-0.8,0.2-1.2l-0.9-6.4c-0.2-0.8-1-1.3-1.8-1c-0.4,0.1-0.7,0.4-0.9,0.7C1777.7,40.3,1777.6,40.7,1777.7,41.1z"/><path class="st1" d="M756.8,262.6v4.8c0,0.8,0.7,1.5,1.5,1.5s1.5-0.7,1.5-1.5v-4.8c0-0.8-0.7-1.5-1.5-1.5S756.8,261.8,756.8,262.6
			z"/><path class="st1" d="M761.8,254.2l1.4,9.6c0.2,0.8,1,1.3,1.8,1.1c0,0,0,0,0,0c0.8-0.3,1.2-1.1,1-1.9l-1.4-9.6
			c-0.2-0.8-1.1-1.2-1.8-1C762,252.7,761.6,253.5,761.8,254.2L761.8,254.2z"/><path class="st1" d="M770.5,260.6l0.9,6.4c0.1,0.4,0.4,0.7,0.7,0.9c0.3,0.2,0.8,0.3,1.2,0.1c0.4-0.1,0.7-0.3,0.9-0.7
			c0.2-0.4,0.2-0.8,0.2-1.1l-0.9-6.4c-0.1-0.4-0.4-0.7-0.7-0.9c-0.4-0.2-0.8-0.3-1.2-0.1c-0.4,0.1-0.7,0.3-0.9,0.7
			C770.4,259.8,770.4,260.2,770.5,260.6L770.5,260.6z"/><path class="st1" d="M986.1,280.6v4.8c0,0.8,0.7,1.5,1.5,1.5s1.5-0.7,1.5-1.5v-4.8c0-0.8-0.7-1.5-1.5-1.5S986.1,279.8,986.1,280.6
			z"/><path class="st1" d="M991,272.2l1.4,9.6c0.2,0.8,1,1.3,1.8,1c0.8-0.2,1.2-1.1,1-1.9l-1.4-9.6c-0.2-0.8-1-1.3-1.8-1
			C991.3,270.6,990.9,271.4,991,272.2z"/><path class="st1" d="M999.8,278.6l0.9,6.4c0.1,0.4,0.4,0.7,0.7,0.9c0.4,0.2,0.8,0.3,1.2,0.1c0.4-0.1,0.7-0.3,0.9-0.7
			c0.2-0.4,0.2-0.8,0.2-1.2l-0.9-6.4c-0.1-0.4-0.4-0.7-0.7-0.9c-0.3-0.2-0.8-0.3-1.2-0.1c-0.4,0.1-0.7,0.3-0.9,0.7
			C999.7,277.8,999.7,278.2,999.8,278.6L999.8,278.6z"/><path class="st1" d="M665.7,56.6v4.8c0,0.8,0.7,1.5,1.5,1.5s1.5-0.7,1.5-1.5l0,0v-4.8c0-0.8-0.7-1.5-1.5-1.5
			S665.7,55.8,665.7,56.6L665.7,56.6z"/><path class="st1" d="M670.7,48.2l1.4,9.6c0.2,0.8,1,1.3,1.8,1c0.8-0.2,1.3-1.1,1.1-1.9l-1.4-9.6c-0.2-0.8-1.1-1.2-1.8-1
			C671,46.6,670.5,47.4,670.7,48.2L670.7,48.2z"/><path class="st1" d="M679.3,54.6l0.9,6.4c0.1,0.4,0.4,0.7,0.7,0.9c0.4,0.2,0.8,0.2,1.2,0.2c0.4-0.1,0.7-0.4,0.9-0.7
			c0.2-0.4,0.2-0.8,0.2-1.2l-0.9-6.4c-0.2-0.8-1-1.3-1.8-1c-0.4,0.1-0.7,0.4-0.9,0.7C679.3,53.8,679.3,54.2,679.3,54.6z"/><path class="st1" d="M260.9,352.4v4.8c0,0.8,0.7,1.5,1.5,1.5s1.5-0.7,1.5-1.5v-4.8c0-0.8-0.7-1.5-1.5-1.5S260.9,351.6,260.9,352.4
			z"/><path class="st1" d="M265.9,344l1.4,9.6c0.2,0.8,1,1.3,1.8,1c0.8-0.2,1.2-1.1,1-1.9l-1.4-9.6c-0.2-0.8-1.1-1.3-1.9-1
			C266.1,342.4,265.7,343.2,265.9,344z"/><path class="st1" d="M274.6,350.4l0.9,6.4c0.1,0.4,0.3,0.7,0.7,0.9c0.3,0.2,0.8,0.3,1.1,0.1c0.4-0.1,0.7-0.4,0.9-0.7
			c0.2-0.4,0.2-0.8,0.1-1.1l-0.9-6.4c-0.1-0.4-0.3-0.7-0.7-0.9c-0.3-0.2-0.8-0.3-1.1-0.1c-0.4,0.1-0.7,0.3-0.9,0.7
			C274.6,349.6,274.5,350,274.6,350.4z"/><path class="st1" d="M867.7,189.6v4.8c0,0.8,0.7,1.5,1.5,1.5s1.5-0.7,1.5-1.5v-4.8c0-0.8-0.7-1.5-1.5-1.5S867.7,188.8,867.7,189.6
			z"/><path class="st1" d="M872.7,181.2l1.4,9.6c0.2,0.8,1.1,1.2,1.8,1c0.8-0.3,1.2-1.1,1-1.8l-1.4-9.6c-0.2-0.8-1.1-1.2-1.8-1
			C872.9,179.6,872.4,180.4,872.7,181.2L872.7,181.2z"/><path class="st1" d="M881.3,187.6l0.9,6.4c0.2,0.8,1,1.3,1.8,1c0.4-0.1,0.7-0.4,0.9-0.7c0.2-0.4,0.2-0.8,0.2-1.1l-0.9-6.4
			c-0.1-0.4-0.4-0.7-0.7-0.9c-0.4-0.2-0.8-0.2-1.2-0.1c-0.4,0.1-0.7,0.4-0.9,0.7C881.3,186.8,881.3,187.2,881.3,187.6L881.3,187.6z"/><path class="st1" d="M312.4,136.6v4.8c0,0.8,0.7,1.5,1.5,1.5s1.5-0.7,1.5-1.5v-4.8c0-0.8-0.7-1.5-1.5-1.5S312.4,135.8,312.4,136.6
			z"/><path class="st1" d="M317.3,128.2l1.4,9.6c0.2,0.8,1.1,1.2,1.8,1c0.8-0.2,1.2-1,1-1.8l-1.4-9.6c-0.2-0.8-1-1.3-1.8-1.1
			c0,0,0,0,0,0C317.6,126.6,317.2,127.4,317.3,128.2L317.3,128.2z"/><path class="st1" d="M326,134.6l0.9,6.4c0.1,0.4,0.4,0.7,0.7,0.9c0.4,0.2,0.8,0.2,1.1,0.1c0.4-0.1,0.7-0.4,0.9-0.7
			c0.2-0.4,0.2-0.8,0.1-1.2l-0.9-6.4c-0.2-0.8-1-1.3-1.8-1.1c0,0,0,0,0,0c-0.4,0.1-0.7,0.4-0.9,0.7C326,133.8,325.9,134.2,326,134.6
			L326,134.6z"/><path class="st1" d="M424.6,167.8v4.8c0,0.8,0.7,1.5,1.5,1.5s1.5-0.7,1.5-1.5v-4.8c0-0.8-0.7-1.5-1.5-1.5S424.6,167,424.6,167.8z"/><path class="st1" d="M429.6,159.4l1.4,9.6c0.2,0.8,1,1.3,1.8,1.1c0,0,0,0,0,0c0.8-0.3,1.2-1.1,1-1.9l-1.4-9.6
			c-0.2-0.8-1-1.3-1.9-1.1C429.8,157.8,429.4,158.6,429.6,159.4L429.6,159.4z"/><path class="st1" d="M438.3,165.8l0.9,6.4c0.1,0.4,0.4,0.7,0.7,0.9c0.7,0.4,1.6,0.2,2-0.5c0.2-0.4,0.2-0.8,0.1-1.2l-0.9-6.4
			c-0.1-0.4-0.4-0.7-0.7-0.9c-0.4-0.2-0.8-0.3-1.2-0.1c-0.4,0.1-0.7,0.4-0.9,0.7C438.3,165,438.2,165.4,438.3,165.8L438.3,165.8z"/><path class="st1" d="M182.4,54.3v4.8c0,0.8,0.7,1.5,1.5,1.5s1.5-0.7,1.5-1.5l0,0v-4.8c0-0.8-0.7-1.5-1.5-1.5
			S182.4,53.4,182.4,54.3z"/><path class="st1" d="M187.4,45.9l1.4,9.6c0.2,0.8,1.1,1.2,1.9,1c0.8-0.3,1.2-1.1,1-1.8l-1.4-9.6c-0.2-0.8-1.1-1.2-1.8-1
			C187.6,44.3,187.1,45.1,187.4,45.9L187.4,45.9z"/><path class="st1" d="M196.1,52.3l0.9,6.4c0.1,0.4,0.4,0.7,0.7,0.9c0.4,0.2,0.8,0.3,1.2,0.2c0.4-0.1,0.7-0.4,0.9-0.7
			c0.2-0.4,0.2-0.8,0.1-1.2l-0.9-6.4c-0.2-0.8-1.1-1.2-1.9-1c-0.4,0.1-0.7,0.4-0.9,0.7C196,51.5,196,51.9,196.1,52.3L196.1,52.3z"/><path class="st1" d="M591.4,129.8v4.8c0,0.8,0.7,1.5,1.5,1.5c0.8,0,1.5-0.7,1.5-1.5v-4.8c0-0.8-0.7-1.5-1.5-1.5
			C592.1,128.3,591.4,129,591.4,129.8z"/><path class="st1" d="M596.4,121.4l1.4,9.6c0.2,0.8,1,1.3,1.8,1.1c0.8-0.3,1.2-1.1,1-1.9l-1.4-9.6c-0.2-0.8-1.1-1.2-1.8-1
			C596.6,119.9,596.2,120.7,596.4,121.4L596.4,121.4z"/><path class="st1" d="M605.1,127.8l0.9,6.4c0.1,0.4,0.3,0.7,0.7,0.9c0.4,0.2,0.8,0.3,1.2,0.1c0.4-0.1,0.7-0.4,0.9-0.7
			c0.2-0.4,0.2-0.8,0.2-1.1L608,127c-0.1-0.4-0.3-0.7-0.7-0.9c-0.3-0.2-0.8-0.3-1.2-0.2c-0.4,0.1-0.7,0.4-0.9,0.7
			C605.1,127,605,127.4,605.1,127.8L605.1,127.8z"/><path class="st2" d="M1556,970.2c-3.3,2.4-6.8,5.2-7.8,9.2c-1.4,5.7,3.3,11.5,8.9,13.2s11.6,0.5,17.2-1.1
			c43.2-12.4,79-45.4,99-85.7c5-10.2,8.4-24.1-0.3-31.4c-5.6-4.7-14.2-4-20.6-0.5s-11,9.5-15.5,15.2
			C1611.4,921.9,1589.3,945.7,1556,970.2z"/><path class="st3" d="M60.7,870.5c-7.4,4.5-14.9,9.6-19,17.2c-8,14.8-0.8,33.4,9.7,46.6s24.1,24.2,31.3,39.4
			c4.7,10,6.4,21.1,10.1,31.5s10.3,20.8,20.7,24.4c14.5,5,30.3-5,39-17.6c15.4-22.2,16.1-53.8,1.6-76.6
			c-6.8-10.7-17.2-18.9-23.8-29.7c-6-9.9-6.2-28.1-12-35.8C104.2,851.7,79.4,859.2,60.7,870.5z"/><path class="st4" d="M561.7,1080c-0.8-1.8-1.9-3.5-3.1-5c-12.6-16.4-16.6-31.4-26.6-48.6c-9.1-15.8-26.2-24.8-39.5-37.2
			c-20.5-19.2-31.5-46.2-41.9-72.3c-21.5-54.3-43.3-109.2-50.4-167.2c-1.4-11.4-3-24.3-11.5-31.6c-0.6-0.5-1.2-1-1.8-1.4
			c-7-4.8-16.1-4.8-24.6-4.5c-40.8,1.2-81.5,3.7-122.2,7.5c-2.6,0.2-5.3,0.6-7.4,2.2c-1.3,1.2-2.3,2.7-2.7,4.4
			c-0.4,1.7-0.7,3.5-0.8,5.3c-2.6,45.5,4.2,91.1,20,133.8c6.6,17.7,14.8,35,26.6,49.8c21.4,26.7,37.3,41.6,45.4,75.3
			c1.5,6.1,3.3,12.2,5.4,18.2c9.1,25.5,24,50.2,40,71.4L561.7,1080z"/><path class="st4" d="M1874.5,782.6c11.9-14.6,27.8-24.8,45.5-29.7c0,0,0,5.5,0,11.9c-17.6,13.3-32.1,30.2-42.7,49.8
			c-7,12.9-12,26.8-18.5,40c-7.4,15.1-16.6,29.3-27.3,42.3c-10.9,13.1-23.4,25-32.2,39.5c-12.6,20.8-16.5,45.2-18,69.1
			c-0.5,7.5-1.8,74.6-6.2,74.6h-53.4c3.4-6.5,6.4-13.3,7.6-21c4.8-31,4.4-62.7,11.2-93.6c6.3-28.6,18.2-56.7,38.7-77.6
			c19.5-19.9,45.9-32.4,63.2-54.2C1854.9,817.8,1861.9,798.3,1874.5,782.6z"/><path class="st5" d="M1103.9,815.8c-5.2,7-7,15.9-7.2,24.6c-0.2,5.2,0.5,10.3,2,15.2c2.3,6.6,6.6,12.4,12.4,16.5
			c6.7,4.8,14.9,7.2,23.1,6.7c15.2-0.9,28.9-12.3,33.5-26.8C1180,813.4,1130,780.6,1103.9,815.8z"/><path class="st5" d="M1247,879.8c-3.3,4.5-4.5,10.2-4.6,15.8c-0.1,3.3,0.3,6.6,1.3,9.8c1.5,4.3,4.3,8,7.9,10.6
			c4.3,3.1,9.6,4.6,14.9,4.3c9.7-0.6,18.6-7.9,21.5-17.2C1295.8,878.3,1263.7,857.2,1247,879.8z"/><path class="st6" d="M600,818.9c-8.9,12.1-12.1,27.5-12.3,42.5c-0.2,8.9,0.7,17.9,3.5,26.3c4,11.4,11.5,21.4,21.3,28.4
			c11.6,8.3,25.7,12.4,40,11.5c26.2-1.6,49.9-21.2,57.8-46.2C731.4,814.8,645,758.1,600,818.9z"/><path class="st5" d="M1461.8,837.3c-0.6,1.1-0.9,2.3-1.1,3.5c-0.7,6.3-1.4,13.4,0.8,19.8c1.7,4.8,4.8,9,8.9,11.9
			c4.9,3.5,10.8,5.2,16.7,4.8c11-0.7,20.9-8.9,24.2-19.4C1520.8,828.3,1479.2,803.3,1461.8,837.3z"/><path class="st7" d="M1920,391.7v300.7c-15.6,4.8-58.9,14.6-140.4,9.6c-172.5-10.4-450.8-46.2-513.7-32.5
			c-101.6,22-452.4,65.4-534.7,36c-2.6-0.9-5.5-1.8-8.6-2.6c-1-0.3-2.1-0.5-3.2-0.8l-1.7-0.4c-0.6-0.1-1.2-0.3-1.8-0.4l-0.3-0.1
			L714,701c-1-0.2-2-0.4-3.1-0.6h-0.1l-3.4-0.6l-1.6-0.3c-117.2-18.9-451.2,5.8-499.5,2.4l-5.4-0.4h-0.2
			C103.3,694.1,0,663.9,0,663.9V385.6l0.9,0.2l0.3,0.1c16.2,3.6,190.9,40.9,374.4,28.7c3.3-0.2,6.7-0.5,10-0.7
			c195.2-14.9,347.1-12.1,439.2,2.7l1.4,0.2c32.3,5.2,96.7-2.2,170.3-13.5c135.7-20.7,303.2-54,361.1-43.8
			C1443.6,374.8,1848.4,419.5,1920,391.7z"/><path class="st8" d="M1272.8,401.7c6.4,0,6.4-10,0-10S1266.4,401.7,1272.8,401.7z"/><polygon class="st7" points="0,0 1920,0 1920,764.8 1920,1080 0,1080 		"/><path class="st9" d="M1724.4,243c0.9-0.2,1.9-0.4,2.8-0.4c7.1-0.4,14.9,2.3,19.3,8c0.2-8.3,3.5-16.9,10.1-21.9s17.1-5.1,22.8,0.9
			c5.4,5.7,5.1,15.2,0.9,21.9c3.7-4.7,10.4-5.6,15.2-1.9c4.5,3.5,5.5,9.9,2.3,14.6c3-1.5,6.2-3.1,9.5-2.6s6.3,4.1,4.9,7.1
			c8-2.4,16.7,0,22.3,6.2c5.8,6.5,3.5,17.6-6.7,16.2c-3.4-0.5-6.5-2-9.9-2.9c-8.9-2.2-18,1.1-27.1,1.9
			c-22.6,1.7-43.6-12.7-66.2-12.9c-13.7-0.1-28.4,4.8-40.3-1.9c-3-1.7-5.8-4.5-6-8c-0.2-5.5,6.4-8.9,12-8.7
			c2.5-10.3,17.1-15.2,25.4-8.5C1716.9,246.4,1720.5,243.9,1724.4,243z"/><path class="st9" d="M926.5,129.5c0.9-0.2,1.9-0.4,2.8-0.4c7.1-0.4,14.9,2.3,19.3,8c0.2-8.3,3.5-16.9,10.1-21.8s17.1-5.1,22.8,0.9
			c5.4,5.7,5.1,15.3,0.9,21.9c3.6-4.8,10.3-5.7,15.1-2.2c4.7,3.5,5.7,10.1,2.4,14.8c3-1.5,6.2-3.1,9.5-2.6s6.3,4.1,4.9,7.1
			c8-2.4,16.7,0,22.3,6.2c5.7,6.5,3.5,17.6-6.7,16.2c-3.4-0.4-6.5-2-9.9-2.9c-8.8-2.2-18,1.1-27.1,1.9
			c-22.6,1.7-43.6-12.7-66.2-12.9c-13.7-0.1-28.4,4.8-40.3-1.9c-3-1.7-5.8-4.5-6-7.9c-0.2-5.6,6.5-8.9,12-8.7
			c2.5-10.3,17.1-15.2,25.4-8.5C918.9,133,922.5,130.5,926.5,129.5z"/><path class="st10" d="M152.6,134.9c1-0.3,2-0.5,3-0.6c7.8-0.8,16.4,1.7,21.6,7.7c-0.2-9.1,2.9-18.7,9.9-24.5s18.4-6.5,25-0.2
			c6.2,6,6.4,16.4,2.2,23.9c3.7-5.4,11.1-6.7,16.5-3c5.2,3.6,6.6,10.6,3.4,15.9c3.2-1.8,6.6-3.7,10.3-3.4s7.1,4.2,5.7,7.6
			c8.6-3.1,18.2-0.9,24.7,5.5c6.6,6.8,4.8,19-6.4,18.1c-3.7-0.3-7.3-1.9-11-2.6c-9.8-1.9-19.7,2.3-29.6,3.5
			c-24.6,3.2-48.4-11.5-73.2-10.5c-15,0.6-30.8,6.8-44.2,0.1c-3.4-1.7-6.6-4.6-7-8.4c-0.5-6.1,6.6-10.1,12.7-10.2
			c2.2-11.4,17.9-17.6,27.3-10.7C144.6,139.1,148.4,136.2,152.6,134.9z"/><path class="st9" d="M386.8,233.1c0.8-3.5,2.8-6.7,5.6-9c4.7-3.7,11.2-3.5,17.2-3.1c1.5,0.1,3.4,0.5,3.6,2
			c0.1,0.8-0.1,1.5-0.5,2.2c-2.8,5.7-6,11.8-11.9,14.1c-2.9,1.1-6.1,1.1-8.9,2.5C384.4,245.5,385,239.6,386.8,233.1z"/><path class="st10" d="M712.5,202.3c-1.7,3.2-4.4,5.7-7.7,7.2c-5.5,2.3-11.8,0.4-17.4-1.5c-1.4-0.5-3.1-1.4-3-2.9
			c0.1-0.7,0.5-1.4,1.1-1.9c4.2-4.7,8.9-9.8,15.2-10.4c3.1-0.3,6.2,0.5,9.2-0.1C718.1,191,715.9,196.5,712.5,202.3z"/><path class="st10" d="M1592.9,76.9c-1.7,3.2-4.5,5.7-7.7,7.2c-5.5,2.3-11.8,0.4-17.4-1.5c-1.4-0.5-3.1-1.4-3-2.9
			c0.1-0.8,0.5-1.5,1.1-2c4.2-4.7,8.9-9.8,15.2-10.4c3.1-0.3,6.2,0.5,9.2-0.1C1598.5,65.6,1596.3,71.1,1592.9,76.9z"/><path class="st9" d="M75,359.8c-2.9,3.7-5,7.8-6.3,12.3c-0.4,1.1-1.2,2-2.3,2.4c-9,4.5-40.1-2-45-3.7c-7.7-2.6-14.9-6.3-21.4-11.1
			v-11.7c3.7,1.2,7,3.3,9.9,5.9c-0.4-10.2,2.2-20.3,7.6-29c-2.1,10.6-2.8,21.5-2,32.3c5-9.6,16.5-13.5,26.9-16.4
			c-3.8,5.9-6.4,12.4-7.6,19.3c7.9-5.6,17.4-8.6,27.2-8.5l-8,10.7C60.4,359.3,67.8,358.4,75,359.8z"/><path class="st9" d="M318.6,360.3l-2-0.1c3.4-0.8,7-0.9,10.5-0.5c-5.8,2.5-10.6,6.9-13.5,12.6c9.7-3.6,20.9-7.2,30.1-2.4
			c-8.3,0.1-16.5,1.7-24.1,4.8c9.3-0.8,18.7,0.2,27.7,3c-25.4,2.4-50.9,9.3-76.5,8.4c-12.9-0.5-26.5-3.4-38.2,2.2
			c6.4-3.7,13.6-5.8,21-6.3c-8.3-3.4-17.3-4.7-26.2-3.7c2.7-1.7,5.5-3.1,8.5-4.2c6.8-2.4,14.1-3,21.2-1.8c-1.2-10.5-0.4-21,2.5-31.2
			c0.7,10.8,2.8,21.5,6.4,31.8c2.3-10.6,12.4-17.3,21.6-22.9c-2.1,6.7-2.9,13.7-2.4,20.6c6.2-7.5,14.6-12.8,24-15.2l-4.9,12.4
			c2.2-5.6,18.6-7.4,23.4-7.2c-5.4,2.3-10,6.3-13,11.4c9-3.3,19-2.6,27.5,1.8c-8.4-4.4-25.9,5.3-34.1,7.3c-3.3,0.8-6.7,1.6-10.1,2.3
			L318.6,360.3z"/><path class="st9" d="M1510.1,197.1l-2-0.1c3.4-0.8,7-0.9,10.5-0.5c-5.8,2.5-10.6,6.9-13.5,12.6c9.7-3.6,20.9-7.2,30.1-2.4
			c-8.3,0.1-16.5,1.7-24.2,4.8c9.3-0.8,18.7,0.2,27.7,3c-25.4,2.4-50.9,9.3-76.5,8.4c-12.9-0.5-26.6-3.4-38.2,2.2
			c6.4-3.7,13.6-5.8,21-6.3c-8.3-3.4-17.3-4.7-26.2-3.7c2.7-1.7,5.5-3.1,8.5-4.1c6.8-2.4,14.1-3,21.2-1.8c-1.2-10.5-0.4-21,2.5-31.2
			c0.7,10.8,2.9,21.5,6.4,31.7c2.3-10.6,12.4-17.3,21.7-22.9c-2.1,6.7-2.9,13.7-2.4,20.6c6.2-7.5,14.6-12.8,24-15.2l-4.8,12.4
			c2.2-5.6,18.7-7.4,23.4-7.2c-5.4,2.3-10,6.3-13,11.4c9-3.3,19-2.6,27.5,1.8c-8.4-4.4-25.8,5.3-34.1,7.2c-3.3,0.8-6.7,1.6-10.1,2.3
			L1510.1,197.1z"/><path class="st9" d="M1084.5,340.4l-2,0.2c3.3-1.2,6.8-1.9,10.3-2c-5.4,3.3-9.6,8.4-11.6,14.4c9.1-4.9,19.7-10,29.5-6.5
			c-8.2,1.2-16.1,4-23.3,8.1c9.1-2.1,18.6-2.4,27.8-0.9c-24.8,5.9-49.1,16.2-74.6,18.9c-12.8,1.3-26.8,0.3-37.5,7.4
			c5.9-4.5,12.7-7.6,19.9-9.2c-8.7-2.3-17.8-2.3-26.4-0.1c2.4-2,5-3.8,7.8-5.3c6.4-3.3,13.5-4.9,20.7-4.7
			c-2.6-10.2-3.2-20.8-1.8-31.2c2.2,10.6,5.8,20.9,10.8,30.5c0.8-10.8,9.9-18.8,18.3-25.6c-1.2,6.9-1,13.9,0.5,20.8
			c5.1-8.3,12.7-14.7,21.7-18.4l-3.2,13c1.4-5.9,17.4-9.9,22.2-10.4c-5.1,3-9,7.6-11.3,13.1c8.5-4.5,18.4-5.2,27.5-2
			c-8.9-3.2-24.9,8.8-32.8,11.9c-3.2,1.3-6.4,2.5-9.7,3.7L1084.5,340.4z"/><path class="st10" d="M1888.7,359.6h-2c3.4-0.9,7-1.1,10.5-0.8c-5.8,2.6-10.4,7.3-13.1,13c9.6-3.9,20.7-7.8,30-3.3
			c-8.3,0.3-16.4,2.2-24,5.5c9.3-1.1,18.7-0.4,27.8,2.2c-25.3,3.2-50.6,10.8-76.2,10.6c-12.9-0.1-26.6-2.6-38.1,3.3
			c6.3-3.8,13.4-6.2,20.8-6.9c-8.4-3.2-17.4-4.2-26.3-3c2.6-1.8,5.4-3.2,8.3-4.4c6.7-2.6,14-3.4,21.1-2.4c-1.5-10.4-1-21,1.6-31.2
			c1,10.8,3.5,21.4,7.4,31.5c2-10.6,11.9-17.7,21-23.5c-1.9,6.7-2.5,13.7-1.8,20.7c6-7.7,14.2-13.3,23.6-16l-4.5,12.5
			c2-5.7,18.4-8,23.2-7.9c-5.4,2.5-9.8,6.6-12.6,11.8c8.9-3.5,18.9-3.2,27.5,0.9c-8.5-4.1-25.7,6-33.9,8.3c-3.3,0.9-6.7,1.8-10,2.6
			L1888.7,359.6z"/><path class="st11" d="M250,239.2c9.8-4.4,21.4-4.9,31.2,0.4c4.3,2.4,7.6,6.3,11.8,8.8s9.2,3.6,13.3,6.4c4.1,2.8,7,8.4,4.5,12.6
			c-1.3,1.8-3.1,3.2-5.2,3.9c-8.2,3.5-17.5,3-26.4,4c-8.4,1-16.5,3.3-24.9,4.5s-17.2,1.1-24.8-2.7c-5.5-2.7,1-17.8,3.1-22
			C236.5,248.1,242.6,242.5,250,239.2z"/><path class="st11" d="M695.3,338.3c3-0.1,5.9,0.5,8.7,1.6c5,1.8,9.8,4.6,12.6,9.2s2.9,10.9-0.8,14.7c-3.3,3.4-8.6,4-13.3,3.2
			c-6-1-11.5-3-17.6-3.4c-4.4-0.3-9.4,0.1-9.2-5.5C676,349,686.5,338.8,695.3,338.3z"/><path class="st11" d="M564.7,300.4c1.8,0,3.6,0.3,5.2,0.9c3,1.1,5.9,2.8,7.6,5.5s1.7,6.5-0.5,8.9c-2,2.1-5.2,2.4-8,1.9
			c-3.6-0.6-6.9-1.8-10.6-2.1c-2.6-0.2-5.7,0.1-5.5-3.3C553,306.9,559.4,300.7,564.7,300.4z"/><path class="st11" d="M80.4,75.5c1.8,0,3.6,0.3,5.2,1c3,1.1,5.9,2.9,7.5,5.6s1.6,6.6-0.6,8.8c-2,2-5.2,2.3-8,1.8
			c-3.6-0.6-6.9-1.9-10.6-2.2c-2.6-0.2-5.7,0-5.5-3.4C68.7,81.7,75.1,75.7,80.4,75.5z"/><path class="st11" d="M1826.8,176.9c3.1,0,6.2,0.6,9.1,1.8c4.5,1.7,20.3,11.8,17.3,18.4c-2,4.6-11.1,0.2-14.3-0.6
			c-5.4-1.3-11-2.1-16.4-0.4c-2.3,0.7-4.4,1.9-6.7,2.5s-4.9,0.8-7-0.4C1798.4,192.3,1820.6,177.2,1826.8,176.9z"/><path class="st11" d="M319.8,300.6c1.8-0.1,3.5,0.2,5.1,0.8c3,1,5.9,2.6,7.5,5.3s1.8,6.4-0.3,8.7c-1.9,2.1-5,2.5-7.8,2
			c-3.5-0.5-6.8-1.7-10.5-1.8c-2.6-0.1-5.5,0.2-5.5-3.1C308.5,307.2,314.6,301,319.8,300.6z"/></g></g></svg>