<svg xmlns="http://www.w3.org/2000/svg" viewBox="0 0 1920.56 398.81"><defs><style>.cls-1{fill:#915b36;}.cls-2{fill:#9e653e;}.cls-3{fill:#ea8063;}.cls-4{fill:#664944;}.cls-5{fill:#577377;}</style></defs><g id="Layer_2" data-name="Layer 2"><g id="bg"><path class="cls-1" d="M1920.56,53.32V354c-15.64,4.78-58.9,14.56-140.39,9.64-172.5-10.42-450.83-46.15-513.73-32.49-33.18,7.2-93,16.67-161.3,25.14l-.37.05-4,.5-8.36,1q-8.73,1-17.62,2.08c-11.13,1.28-22.41,2.53-33.77,3.72q-8.7.91-17.44,1.79-9.74,1-19.48,1.88l-6.79.63c-11.68,1.07-23.34,2.07-34.91,3-100,7.91-193.14,9.61-230.64-3.76-2.58-.92-5.46-1.78-8.62-2.58-1.05-.27-2.13-.53-3.25-.79l-1.69-.38-1.75-.37-.32-.07-1.54-.31c-1-.2-2-.4-3.07-.58l-.1,0-3.43-.6-1.56-.26c-117.23-18.76-451.26,6.69-499.55,2.44-1.64-.14-3.43-.27-5.35-.39h-.23C161.74,360.87,65.3,363.4.56,347.34V47.25l.9.17.32.07C60.36,58.9,221.7,86.29,376.22,76.19q5-.33,10-.71C581.43,60.6,733.3,63.41,825.41,78.15l1.44.23c32.35,5.26,96.67-2.23,170.35-13.45,135.73-20.68,303.22-54,361.1-43.77C1444.18,36.39,1848.93,81.14,1920.56,53.32Z"/><path class="cls-2" d="M1920.56,53.32v183C1843,239.54,1767.94,194.2,1689.11,189c-68-4.46-133.86,21.12-199.75,38.61a863.29,863.29,0,0,1-386.46,12.55l-6.16-1.24c-94.41-19.31-185.24-54.41-279.13-75.14-18.23-4-36.58-7.52-55.1-10.24C564,124.37,364.07,184.7,163.61,194c-54.39,2.53-110.7.49-163-15.86V47.22l.9.2.32.07c16.16,3.57,190.94,40.88,374.44,28.7q5-.33,10-.71C581.43,60.6,733.3,63.41,825.41,78.15l1.44.23c32.35,5.26,96.67-2.23,170.35-13.45,135.73-20.68,303.22-54,361.1-43.77C1444.18,36.39,1848.93,81.14,1920.56,53.32Z"/><path class="cls-1" d="M306.78,259.73c6.43,0,6.44-10,0-10s-6.45,10,0,10Z"/><path class="cls-1" d="M124.48,249.83c6.43,0,6.44-10,0-10s-6.45,10,0,10Z"/><path class="cls-1" d="M176.76,124.06c6.44,0,6.45-10,0-10s-6.44,10,0,10Z"/><path class="cls-1" d="M56.65,114.17c6.43,0,6.44-10,0-10s-6.45,10,0,10Z"/><path class="cls-1" d="M376,148.09c6.44,0,6.45-10,0-10s-6.44,10,0,10Z"/><path class="cls-1" d="M275.69,165c6.43,0,6.44-10,0-10s-6.45,10,0,10Z"/><path class="cls-1" d="M540,98.63c6.43,0,6.44-10,0-10s-6.45,10,0,10Z"/><path class="cls-1" d="M534.3,129.71c6.43,0,6.44-10,0-10s-6.45,10,0,10Z"/><path class="cls-1" d="M703.88,105.69c6.43,0,6.44-10,0-10s-6.45,10,0,10Z"/><path class="cls-1" d="M1122.17,83.08c6.44,0,6.45-10,0-10s-6.44,10,0,10Z"/><path class="cls-1" d="M1156.09,227.22c6.43,0,6.44-10,0-10s-6.45,10,0,10Z"/><path class="cls-1" d="M1201.31,158c6.43,0,6.45-10,0-10s-6.45,10,0,10Z"/><path class="cls-1" d="M1150.44,152.33c6.43,0,6.44-10,0-10s-6.45,10,0,10Z"/><path class="cls-1" d="M1259.25,162.22c6.43,0,6.45-10,0-10s-6.45,10,0,10Z"/><path class="cls-1" d="M1431.66,174.94c6.43,0,6.44-10,0-10s-6.45,10,0,10Z"/><path class="cls-1" d="M1325.67,234.29c6.43,0,6.44-10,0-10s-6.45,10,0,10Z"/><path class="cls-1" d="M1406.22,105.69c6.43,0,6.44-10,0-10s-6.45,10,0,10Z"/><path class="cls-1" d="M1506.55,87.32c6.44,0,6.45-10,0-10s-6.44,10,0,10Z"/><path class="cls-1" d="M1508,153.74c6.43,0,6.44-10,0-10s-6.45,10,0,10Z"/><path class="cls-1" d="M1708.64,176.35c6.43,0,6.44-10,0-10s-6.45,10,0,10Z"/><path class="cls-1" d="M1611.13,104.28c6.43,0,6.44-10,0-10s-6.45,10,0,10Z"/><path class="cls-1" d="M1840.06,97.21c6.44,0,6.45-10,0-10s-6.44,10,0,10Z"/><path class="cls-1" d="M1734.07,93c6.44,0,6.45-10,0-10s-6.44,10,0,10Z"/><path class="cls-1" d="M1857,194.72c6.43,0,6.44-10,0-10s-6.45,10,0,10Z"/><path class="cls-1" d="M1890.94,139.61c6.43,0,6.44-10,0-10s-6.45,10,0,10Z"/><path class="cls-1" d="M1792,159.39c6.44,0,6.45-10,0-10s-6.44,10,0,10Z"/><path class="cls-2" d="M251.44,282.46c6.43,0,6.44-10,0-10s-6.45,10,0,10Z"/><path class="cls-2" d="M112.69,294.85c6.44,0,6.45-10,0-10s-6.44,10,0,10Z"/><path class="cls-2" d="M75.53,237.87c6.44,0,6.45-10,0-10s-6.44,10,0,10Z"/><path class="cls-2" d="M45.8,312.19c6.43,0,6.45-10,0-10s-6.45,10,0,10Z"/><path class="cls-2" d="M439.74,243.82c7.72,0,7.73-12,0-12s-7.74,12,0,12Z"/><path class="cls-2" d="M415,308.24c7.72,0,7.73-12,0-12s-7.73,12,0,12Z"/><path class="cls-2" d="M345.59,236.39c7.72,0,7.73-12,0-12s-7.74,12,0,12Z"/><path class="cls-2" d="M605.73,189.32c7.72,0,7.74-12,0-12s-7.73,12,0,12Z"/><path class="cls-2" d="M492.68,279.55c7.72,0,7.73-12,0-12s-7.73,12,0,12Z"/><path class="cls-2" d="M766.78,323.11c7.72,0,7.73-12,0-12s-7.74,12,0,12Z"/><path class="cls-2" d="M645.37,313.19c7.73,0,7.74-12,0-12s-7.73,12,0,12Z"/><path class="cls-2" d="M732.93,191.79c7.72,0,7.73-12,0-12s-7.73,12,0,12Z"/><path class="cls-2" d="M875.79,310.72c7.72,0,7.73-12,0-12s-7.74,12,0,12Z"/><path class="cls-2" d="M821.28,226.48c7.72,0,7.74-12,0-12s-7.73,12,0,12Z"/><path class="cls-2" d="M955.07,342.93c7.72,0,7.74-12,0-12s-7.73,12,0,12Z"/><path class="cls-2" d="M1175.58,296.85c9,0,9-14,0-14s-9,14,0,14Z"/><path class="cls-2" d="M1254.86,306.76c9,0,9-14,0-14s-9,14,0,14Z"/><path class="cls-2" d="M1463,286.94c9,0,9-14,0-14s-9,14,0,14Z"/><path class="cls-2" d="M1363.87,299.33c9,0,9-14,0-14s-9,14,0,14Z"/><path class="cls-2" d="M1512.53,339c9,0,9-14,0-14s-9,14,0,14Z"/><path class="cls-2" d="M1544.74,252.26c9,0,9-14,0-14s-9,14,0,14Z"/><path class="cls-2" d="M1581.9,334c9,0,9-14,0-14s-9,14,0,14Z"/><path class="cls-2" d="M1648.79,230c9,0,9-14,0-14s-9,14,0,14Z"/><path class="cls-2" d="M1671.09,334c9,0,9-14,0-14s-9,14,0,14Z"/><path class="cls-2" d="M1782.58,304.28c9,0,9-14,0-14s-9,14,0,14Z"/><path class="cls-2" d="M1688.43,274.55c9,0,9-14,0-14s-9,14,0,14Z"/><path class="cls-2" d="M1809.84,267.12c9,0,9-14,0-14s-9,14,0,14Z"/><path class="cls-2" d="M1876.73,336.49c9,0,9-14,0-14s-9,14,0,14Z"/><path class="cls-3" d="M1347.75,107.92c12.87,0,12.89-20,0-20s-12.89,20,0,20Z"/><path class="cls-3" d="M1385.23,213.2c12.87,0,12.89-20,0-20s-12.89,20,0,20Z"/><path class="cls-3" d="M782.76,129.71c12.87,0,12.89-20,0-20s-12.89,20,0,20Z"/><path class="cls-3" d="M321.67,124c12.87,0,12.89-20,0-20s-12.89,20,0,20Z"/><path class="cls-3" d="M208.54,321v-1.79a11.11,11.11,0,0,0-2.93-7.07,11.26,11.26,0,0,0-7.07-2.93l-2.66.36a10,10,0,0,0-4.41,2.57l-1.57,2a9.93,9.93,0,0,0-1.36,5V321a9.66,9.66,0,0,0,6.15,9.14,7.59,7.59,0,0,0,3.85.86l2.66-.36a10,10,0,0,0,4.41-2.57l1.56-2a10,10,0,0,0,1.37-5Z"/><path class="cls-3" d="M25.44,179.3c12.87,0,12.89-20,0-20s-12.89,20,0,20Z"/><path class="cls-3" d="M1747.48,250.68c12.87,0,12.89-20,0-20s-12.89,20,0,20Z"/><path class="cls-3" d="M1597.58,157.88c12.87,0,12.89-20,0-20s-12.89,20,0,20Z"/><path class="cls-4" d="M1460.41,0V37l-10.7,0c-65.18.39-234.51,3.2-284.82,11.8-29,4.95-58.54,11.47-87.1,17.77C1021.15,79.11,962.59,92,902.91,94.13q-9.12.32-18.25.31c-49.9,0-99.45-6.77-147.55-13.35-8.58-1.18-17.25-2.36-26-3.51-21.53-2.85-43.34-5.49-64.81-7.25q-22.49-1.85-45.25-2.53-8.07-.27-16.16-.4c-34.47-.59-69.26.39-103.94,2.12-31.78,1.58-63.47,3.78-94.78,6C258,84.38,125.83,93.56.56,59.6V21.41L0,21a5.15,5.15,0,0,0,.56.16A578.43,578.43,0,0,0,67,36.22a780.46,780.46,0,0,0,104.82,10c56.79,1.82,115.57-1.2,173.43-5l5.51-.36h.11l4.5-.3q14.21-1,28.31-2L407.06,37c3-.2,6-.41,9-.6q13.75-.93,27.59-1.79c18.57-1.15,35.54-1.94,53.87-5.72,24.56-5.05,49.7-1.84,74.41.09,24.43,1.9,48.78,2.44,73.26,4.19,1.4.1,2.79.22,4.19.33,17.44,1.43,34.94,3.4,52.28,5.59,13.62,1.71,27.15,3.57,40.48,5.39,45,6.16,91.35,12.49,137,13l2.54,0q10,.06,19.91-.28c2.35-.08,4.71-.18,7.06-.31,12.19-.61,24.39-1.69,36.6-3.14,41.87-5,83.73-14.21,124.55-23.21,29-6.4,59-13,88.84-18.12,52.53-9,222.48-11.91,289.88-12.32H1450Z"/><path class="cls-4" d="M1920.56,35.46V74c-88.93,24.19-194.94,5.4-297.81-12.84-58.25-10.33-123.55-22.57-173-24.14h-.09l-2-.06,1-36.94V0L1450,0h0c3.41.1,6.89.25,10.42.44C1511,3.21,1573.19,14.82,1629.2,24.75c59,10.47,119.17,21.13,175.31,23.3,25.73,1,50.62.23,74.18-3.17a270.74,270.74,0,0,0,27.7-5.4q3.78-.94,7.5-2Q1917.25,36.51,1920.56,35.46Z"/><path class="cls-5" d="M.56,364c75,20.33,152.48,25.2,230.1,23.92,52-.85,104.09-4.47,155.55-8l3.05-.21c73.72-5.12,149.55-10.27,223.42-7,2.85.13,5.7.26,8.54.42q12.6.66,25.12,1.68c25.81,2.11,52.1,5.5,77.82,9l6.73.92,3.24.44,3,.41,17.73,2.41c42.51,5.73,86,10.95,129.82,10.95q9.12,0,18.25-.32c59.68-2.09,118.24-15,174.88-27.51,28.56-6.3,58.08-12.82,87.1-17.77,53.37-9.11,227.89-11.73,282.7-11.83v-37c-56.48.09-233,2.81-288.93,12.37-29.89,5.1-59.86,11.71-88.84,18.11-55,12.14-111.91,24.69-168.21,26.66-52.88,1.86-107.08-5.55-159.49-12.72l-.8-.11c-30-4.11-61.07-8.33-92-10.87q-14-1.15-28.14-1.85c-79.14-4-159.55,1.55-237.58,7-70,4.86-142.44,9.88-211.86,7.65C107.62,348.52,51.28,340.29.56,325.52Z"/><path class="cls-5" d="M1920.56,339.82v38.57c-88.93,24.19-194.94,5.4-297.81-12.84-59.09-10.47-125.43-22.92-175.16-24.19l1-37c38.48,1,85.11,8.06,131.09,16l6.63,1.14c14.52,2.54,28.92,5.13,42.94,7.62C1732,347.33,1838,366.14,1920.56,339.82Z"/><path class="cls-4" d="M481,69.52S620.3,58.4,711.15,77.58l8.07-36.26s-104.88-20-180.09-17.12c-14.85.57-41.63,4.64-41.63,4.64Z"/></g></g></svg>