<?xml version="1.0" encoding="utf-8"?><!--Generator: Adobe Illustrator 26.0.3, SVG Export Plug-In . SVG Version: 6.00 Build 0)--><svg version="1.1" id="Layer_1" xmlns="http://www.w3.org/2000/svg" xmlns:xlink="http://www.w3.org/1999/xlink" x="0px" y="0px" viewBox="0 0 383.6 642.1" style="enable-background:new 0 0 383.6 642.1" xml:space="preserve"><style type="text/css">.st0{opacity:0.15;fill:#6B6B6B;enable-background:new    ;}
	.st1{fill:#DD5E7C;}
	.st2{fill:#5E6163;}
	.st3{fill:#C0CED8;}
	.st4{fill:#C45872;}
	.st5{fill:#EF7592;}</style><path class="st0" d="M20.9,289.1l-0.1,27v-24.8C20.8,290.6,20.8,289.8,20.9,289.1z"/><path class="st1" d="M368.9,291.4v190.2c0,16.5-13.4,29.9-29.9,29.9h-72c-4.9,0-9.5,1.9-12.9,5.4c-3.4,3.4-5.4,8.1-5.4,12.9v95
	L150,611l-1.5-99.5v-63c0-11.9,9.7-21.6,21.6-21.6h82.7c8.9,0,16.2-7.3,16.2-16.2l0.5-31c0.1-8.1-6.3-14.7-14.4-14.8
	c-0.1,0-0.1,0-0.2,0H63.7c-12.6-0.1-22.8-10.3-22.9-22.9V160.4c0-16.5,13.4-29.9,29.9-29.9h62c4.9,0,9.5-1.9,12.9-5.4
	c3.4-3.4,5.4-8.1,5.4-12.9v-95h98.8l1.5,113.3v71c0,11.9-9.7,21.6-21.6,21.6H157c-8.9,0-16.2,7.3-16.2,16.2l-0.4,15.6
	c-0.1,7.4,5.8,13.6,13.2,13.7c0.1,0,0.1,0,0.2,0H346c12.5-0.1,22.8,9.9,22.9,22.5C368.9,291.2,368.9,291.3,368.9,291.4z"/><ellipse transform="matrix(3.036395e-02 -0.9995 0.9995 3.036395e-02 -143.9396 333.0713)" class="st1" cx="99.7" cy="240.7" rx="61.8" ry="68.8"/><path class="st2" d="M129.5,18.7V9.4c0-5.2,4.6-9.4,10.3-9.4h122.1c5.7,0,10.3,4.2,10.3,9.4v9.2c0,5.2-4.6,9.4-10.3,9.4H139.8
	C134.1,28.1,129.5,23.9,129.5,18.7z"/><circle class="st3" cx="157.1" cy="14" r="3.2"/><circle class="st3" cx="200.8" cy="14" r="3.2"/><circle class="st3" cx="241.5" cy="14" r="3.2"/><path class="st4" d="M165.8,258.4H34.1l-4.2-17h137.5C167.4,247.1,169.3,250.7,165.8,258.4z"/><path class="st5" d="M20.9,240.4L20.9,240.4c0-5.3,5.1-9.5,11.4-9.5h134.8c6.4,0,11.4,4.3,11.4,9.5l0,0c0,5.3-5.1,9.5-11.4,9.5H32.3
	C26,249.9,20.9,245.7,20.9,240.4z"/><rect x="145.8" y="552.4" class="st4" width="100.2" height="17"/><path class="st2" d="M269.3,621.3v10.3c0,5.8-4.7,10.5-10.5,10.5H134.7c-5.8,0-10.5-4.7-10.5-10.5v-10.3c0-5.8,4.7-10.5,10.5-10.5
	h124.2C264.6,610.8,269.3,615.5,269.3,621.3C269.3,621.2,269.3,621.3,269.3,621.3z"/><circle class="st3" cx="245.3" cy="626.4" r="3.5"/><circle class="st3" cx="196.8" cy="626.4" r="3.5"/><circle class="st3" cx="151.6" cy="626.4" r="3.5"/><path class="st5" d="M256.4,551L256.4,551c0,5.2-4.3,9.5-9.5,9.5l0,0H146.6c-5.2,0-9.5-4.3-9.5-9.5l0,0l0,0c0-5.2,4.3-9.5,9.5-9.5
	h100.3c5.2,0,9.5,4.2,9.5,9.4C256.4,550.9,256.4,551,256.4,551z"/><path class="st4" d="M267.7,417.3c0.6-2.4,0.6-10.9,0.6-10.9h100.3v17H264.3C264.3,423.4,267.2,419.2,267.7,417.3z"/><path class="st5" d="M383.6,401.6L383.6,401.6c0,5.2-4.3,9.5-9.5,9.5H261.6c-5.2,0-9.5-4.3-9.5-9.5l0,0c0-5.2,4.3-9.5,9.5-9.5l0,0
	h112.5c5.2-0.1,9.4,4.1,9.5,9.2C383.6,401.4,383.6,401.5,383.6,401.6z"/><polygon class="st4" points="151.2,77.3 250.4,77.3 254.5,88.5 146.8,88.5 "/><path class="st5" d="M138.3,90L138.3,90c0-4.6,4.4-8.3,9.8-8.3h103c5.4,0,9.8,3.8,9.8,8.3l0,0c0,4.6-4.4,8.3-9.8,8.3h-103
	C142.6,98.3,138.3,94.6,138.3,90z"/></svg>