<svg id="Layer_1" data-name="Layer 1" xmlns="http://www.w3.org/2000/svg" viewBox="0 0 382.8 642.1"><defs><style>.cls-1{fill:#6b6b6b;isolation:isolate;opacity:0.15;}.cls-2{fill:#dd5e7c;}.cls-3{fill:#5e6163;}.cls-4{fill:#c0ced8;}.cls-5{fill:#c45872;}.cls-6{fill:#ef7592;}</style></defs><path class="cls-1" d="M20.9,289.1l-.1,27V291.3A16.2,16.2,0,0,1,20.9,289.1Z" transform="translate(-20.8)"/><path class="cls-2" d="M368.9,291.4V481.6A29.92,29.92,0,0,1,339,511.5H267a17.9,17.9,0,0,0-12.9,5.4,18.31,18.31,0,0,0-5.4,12.9v95L150,611l-1.5-99.5v-63a21.64,21.64,0,0,1,21.6-21.6h82.7A16.2,16.2,0,0,0,269,410.7l.5-31a14.6,14.6,0,0,0-14.6-14.8H63.7A23,23,0,0,1,40.8,342V160.4a29.92,29.92,0,0,1,29.9-29.9h62a17.9,17.9,0,0,0,12.9-5.4,18.31,18.31,0,0,0,5.4-12.9v-95h98.8l1.5,113.3v71a21.64,21.64,0,0,1-21.6,21.6H157a16.2,16.2,0,0,0-16.2,16.2l-.4,15.6a13.47,13.47,0,0,0,13.4,13.7H346A22.69,22.69,0,0,1,368.9,291.4Z" transform="translate(-20.8)"/><ellipse class="cls-2" cx="316.45" cy="401.6" rx="73.07" ry="71.01" transform="translate(-115.35 705.74) rotate(-88.26)"/><path class="cls-3" d="M129.5,18.7V9.4c0-5.2,4.6-9.4,10.3-9.4H261.9c5.7,0,10.3,4.2,10.3,9.4v9.2c0,5.2-4.6,9.4-10.3,9.4H139.8C134.1,28.1,129.5,23.9,129.5,18.7Z" transform="translate(-20.8)"/><circle class="cls-4" cx="136.3" cy="14" r="3.2"/><circle class="cls-4" cx="180" cy="14" r="3.2"/><circle class="cls-4" cx="220.7" cy="14" r="3.2"/><path class="cls-5" d="M141.4,258.4H41.1v-17H141.4Z" transform="translate(-20.8)"/><path class="cls-6" d="M26.1,240.4h0a9.5,9.5,0,0,1,9.5-9.5H148.1a9.5,9.5,0,0,1,9.5,9.5h0a9.5,9.5,0,0,1-9.5,9.5H35.6A9.5,9.5,0,0,1,26.1,240.4Z" transform="translate(-20.8)"/><rect class="cls-5" x="125" y="552.4" width="100.2" height="17"/><path class="cls-3" d="M269.3,621.3v10.3a10.5,10.5,0,0,1-10.5,10.5H134.7a10.5,10.5,0,0,1-10.5-10.5V621.3a10.5,10.5,0,0,1,10.5-10.5H258.9A10.41,10.41,0,0,1,269.3,621.3Z" transform="translate(-20.8)"/><circle class="cls-4" cx="224.5" cy="626.4" r="3.5"/><circle class="cls-4" cx="176" cy="626.4" r="3.5"/><circle class="cls-4" cx="130.8" cy="626.4" r="3.5"/><path class="cls-6" d="M256.4,551h0a9.5,9.5,0,0,1-9.5,9.5H146.6a9.5,9.5,0,0,1-9.5-9.5h0a9.5,9.5,0,0,1,9.5-9.5H246.9A9.43,9.43,0,0,1,256.4,551Z" transform="translate(-20.8)"/><path class="cls-5" d="M246,411c.76-2.4,10.36-4.59,10.36-4.59H387.94l-3.49,17H248.62S245.37,412.89,246,411Z" transform="translate(-20.8)"/><path class="cls-6" d="M403.6,401.6h0c0,5.3-5.49,9.5-12.13,9.5H247.81c-6.77,0-12.13-4.3-12.13-9.5h0c0-5.3,5.49-9.5,12.13-9.5H391.47C398.24,392,403.6,396.3,403.6,401.6Z" transform="translate(-20.8)"/><polygon class="cls-5" points="130.41 77.26 229.58 77.26 233.69 88.54 125.94 88.54 130.41 77.26"/><path class="cls-6" d="M138.32,90h0c0-4.63,4.42-8.3,9.76-8.3h103c5.45,0,9.76,3.76,9.76,8.3h0c0,4.63-4.41,8.29-9.76,8.29h-103C142.63,98.33,138.32,94.58,138.32,90Z" transform="translate(-20.8)"/></svg>