<svg id="Layer_1" data-name="Layer 1" xmlns="http://www.w3.org/2000/svg" xmlns:xlink="http://www.w3.org/1999/xlink" viewBox="0 0 149.25 148.49"><defs><style>.cls-1{fill:none;}.cls-2{fill:#c767db;}.cls-3{fill:#373753;}.cls-4{clip-path:url(#clip-path);}.cls-5{fill:#f7fbff;}.cls-6{clip-path:url(#clip-path-2);}</style><clipPath id="clip-path" transform="translate(-77.05 -1.51)"><path class="cls-1" d="M157.76,35.68s-1.28,2.18-2.55,1.31,0-3.48,0-3.48A9.39,9.39,0,0,1,157.76,35.68Z"/></clipPath><clipPath id="clip-path-2" transform="translate(-77.05 -1.51)"><path class="cls-1" d="M149.75,33.07s1.28,2.61,0,3.48-2.54-1.3-2.54-1.3A23.44,23.44,0,0,1,149.75,33.07Z"/></clipPath></defs><path id="wingr" class="cls-2" d="M214.32,18.58a28.18,28.18,0,0,1,12-16.66c-14.42-1.62-42.45.61-63.17,23.36s-7.11,62.15,9.14,82.06,24.17,46.3,24.78,42.24,7.72-16.65,22.34-51-23.76-50.77-23.76-50.77C205.78,46.4,211.07,30.36,214.32,18.58Z" transform="translate(-77.05 -1.51)"/><path id="wingr-2" data-name="wingr" class="cls-2" d="M107.72,47.83S69.33,64.28,84,98.6s21.73,46.92,22.34,51,8.53-22.34,24.78-42.24S160.93,48,140.22,25.28,91.47.3,77.05,1.92A28.18,28.18,0,0,1,89,18.58C92.28,30.36,97.56,46.4,107.72,47.83Z" transform="translate(-77.05 -1.51)"/><path class="cls-3" d="M156.12,89.84c.36,1.74.55,4.14-.91,5a2.7,2.7,0,0,1-1.27.21c-3.1-.43-5.1-4.35-6.37-7.61a60,60,0,0,1-3.27-11.31c-1.64-10.22.72-20.88,6.54-28.71,2.37-3.26,2.91-2.18,4.55,1.74,2,4.78,3.28,9.35,3.09,13.92C158.12,71.79,154.12,80.93,156.12,89.84Z" transform="translate(-77.05 -1.51)"/><ellipse class="cls-3" cx="75.25" cy="39.18" rx="6.55" ry="7.83"/><ellipse class="cls-3" cx="163.17" cy="6.77" rx="2.87" ry="3.51" transform="translate(-70.39 51.9) rotate(-18.97)"/><path class="cls-3" d="M153.75,35.9A51.66,51.66,0,0,1,161,5.23l1.09,1.31a49.62,49.62,0,0,0-6.91,29.14Z" transform="translate(-77.05 -1.51)"/><ellipse class="cls-3" cx="142.08" cy="6.79" rx="3.51" ry="2.87" transform="translate(12.42 137.44) rotate(-71.03)"/><path class="cls-3" d="M150.12,35.68A49.63,49.63,0,0,0,143.2,6.54l1.1-1.31a50,50,0,0,1,7.27,30.67Z" transform="translate(-77.05 -1.51)"/><g class="cls-4"><path class="cls-5" d="M157.76,35.68s-1.28,2.18-2.55,1.31,0-3.48,0-3.48A9.39,9.39,0,0,1,157.76,35.68Z" transform="translate(-77.05 -1.51)"/><ellipse cx="78.9" cy="33.4" rx="0.91" ry="1.09"/><ellipse class="cls-5" cx="78.53" cy="33.01" rx="0.36" ry="0.44"/></g><g class="cls-6"><path class="cls-5" d="M149.75,33.07s1.28,2.61,0,3.48-2.54-1.3-2.54-1.3A23.44,23.44,0,0,1,149.75,33.07Z" transform="translate(-77.05 -1.51)"/><ellipse cx="72.19" cy="33.11" rx="0.91" ry="1.09"/><ellipse class="cls-5" cx="72.53" cy="32.67" rx="0.36" ry="0.44"/></g></svg>