<svg xmlns="http://www.w3.org/2000/svg" viewBox="0 0 71.19 154.8"><defs><style>.cls-1{fill:#ffc470;}.cls-2{fill:#f6b15e;}.cls-3{fill:#fecd9b;}.cls-4{fill:#f3edff;}</style></defs><g id="Layer_2" data-name="Layer 2"><g id="spaceship"><path class="cls-1" d="M0,.07H9.81C9.81,0,61.38,0,61.38.07h9.81c0,46.66-11.41,93.33-11.41,93.33s-.18,5.78-2.58-8.1c-7.7,47.81-21.86,69.5-21.86,69.5S19.3,93.81,11.75,46C9.3,59.88,11.19,93.4,11.19,93.4S0,46.73,0,.07Z"/><path class="cls-2" d="M7.83.07h9.24c0-.08,36.77-.08,36.77,0h7c0,37.44-8.14,74.88-8.14,74.88s-.13,4.64-1.84-6.5c-5.49,38.36-15.58,55.77-15.58,55.77S18.54,62.43,13.16,24.06C11.41,35.21,7.79,53.9,7.79,53.9A341.19,341.19,0,0,1,7.83.07Z"/><path class="cls-3" d="M20,0H24.3S46.89,0,46.89,0h4.29c0,26.35-2.89,58.07-2.89,58.07s-1.09-6.38-3.24-10c-3.37,27-9.57,39.24-9.57,39.24S28.46,53,25.15,26c-1.07,7.85-.24,26.77-.24,26.77S20,26.39,20,0Z"/><path class="cls-4" d="M29.66,0h1.63S39.9,0,39.9,0h1.63a327.42,327.42,0,0,1-1.9,32.84s0,2-.43-2.84c-1.29,16.82-3.65,24.45-3.65,24.45S32.88,33,31.62,16.18c-.41,4.89-.1,16.68-.1,16.68S29.66,16.44,29.66,0Z"/></g></g></svg>