<svg xmlns="http://www.w3.org/2000/svg" viewBox="0 0 641.77 600"><defs><style>.cls-1,.cls-2{fill:none;stroke:#9c3000;stroke-miterlimit:10;}.cls-1{stroke-width:4px;}.cls-2{stroke-width:5px;}.cls-3{fill:#9c3000;}</style></defs><g id="Layer_2" data-name="Layer 2"><g id="tower_v" data-name="tower]v"><rect class="cls-1" x="140.11" y="2" width="94.64" height="553.66"/><path class="cls-2" d="M140.11,2l90.82,105.77a1.29,1.29,0,0,1-1,2.12H144.83L234.75,2"/><path class="cls-2" d="M232.75,109.89,142.12,220.08a1.49,1.49,0,0,0,1.15,2.44h85.55a2.75,2.75,0,0,0,2.11-4.53L140.11,110.47"/><path class="cls-2" d="M234.75,222.52,142.6,332.18a1.81,1.81,0,0,0,1.39,3h85a2.7,2.7,0,0,0,2.06-4.43l-90.92-108.2"/><path class="cls-2" d="M234.75,335.15l-92,109.49a1.91,1.91,0,0,0,1.47,3.13h84.13a3,3,0,0,0,2.29-4.9L140.11,335.15"/><line class="cls-2" x1="140.11" y1="447.77" x2="234.75" y2="555.66"/><line class="cls-2" x1="234.75" y1="447.77" x2="140.11" y2="555.66"/><polyline class="cls-2" points="140.11 318.75 48.56 268.95 48.56 555.66 140.11 555.66 140.11 318.75"/><path class="cls-2" d="M141.66,317.07,49.51,426.73a1.81,1.81,0,0,0,1.38,3h85a2.69,2.69,0,0,0,2.06-4.42L48.57,313.89"/><line class="cls-2" x1="50.89" y1="429.7" x2="140.11" y2="555.66"/><line class="cls-2" x1="135.88" y1="429.7" x2="48.57" y2="555.66"/><rect class="cls-3" y="555.66" width="641.77" height="44.34" rx="16.73"/><rect class="cls-3" x="349.43" y="538.22" width="236.13" height="24.99" rx="10.59"/></g></g></svg>