<svg xmlns="http://www.w3.org/2000/svg" xmlns:xlink="http://www.w3.org/1999/xlink" viewBox="0 0 228.16 365.06"><defs><style>.cls-1{fill:none;}.cls-2{fill:#e5ba03;}.cls-3{fill:#3a3a3a;}.cls-4{clip-path:url(#clip-path);}.cls-5{fill:#ffda03;}.cls-6{fill:#5ebae1;}.cls-7{fill:#c7c3b8;}</style><clipPath id="clip-path" transform="translate(0 39.43)"><path class="cls-1" d="M114.85,290.41C78.6,290,29.85,243.08,31,141.47,31.81,62.8,65.38-.62,122.19,0c51.55.57,84.94,64.71,84.09,143.39S151.27,290.81,114.85,290.41Z"/></clipPath></defs><g id="Layer_2" data-name="Layer 2"><g id="spaceship"><path class="cls-2" d="M39.24,206.71s-40.3,21-39.22,41.61c0,0,41,15.12,57.93,3.32Z" transform="translate(0 39.43)"/><g id="Fan"><path class="cls-3" d="M130.22,287.28S132,306,126.86,308s-25.32,2.89-30.59-1.36c-4.66-3.75-1.46-21-1.46-21Z" transform="translate(0 39.43)"/></g><g class="cls-4"><path class="cls-5" d="M114.85,290.41C78.6,290,29.85,243.08,31,141.47,31.81,62.8,65.38-.62,122.19,0c51.55.57,84.94,64.71,84.09,143.39S151.27,290.81,114.85,290.41Z" transform="translate(0 39.43)"/><path class="cls-2" d="M192.19,26.81S126.62,56.65,51.8,25.27l49.43-64.7Z" transform="translate(0 39.43)"/></g><path class="cls-2" d="M192.29,210.45s38.46,24.23,35.73,44.64c0,0-61.7.63-59.45-1.36C174.93,248.11,192.29,210.45,192.29,210.45Z" transform="translate(0 39.43)"/><circle class="cls-3" cx="119.03" cy="143.54" r="35.97"/><circle class="cls-6" cx="119.03" cy="143.54" r="20.81"/><circle class="cls-7" cx="147.22" cy="143.85" r="2.36"/><circle class="cls-7" cx="119.34" cy="115.5" r="2.36"/><circle class="cls-7" cx="118.73" cy="171.58" r="2.36"/><circle class="cls-7" cx="90.84" cy="143.24" r="2.36"/><circle class="cls-3" cx="118.11" cy="228.27" r="35.97"/><circle class="cls-6" cx="118.11" cy="228.27" r="20.81"/><circle class="cls-7" cx="146.3" cy="228.58" r="2.36"/><circle class="cls-7" cx="118.42" cy="200.23" r="2.36"/><circle class="cls-7" cx="117.8" cy="256.31" r="2.36"/><circle class="cls-7" cx="89.92" cy="227.96" r="2.36"/><path class="cls-5" d="M158.66,263.76c7.22,4.7,20.52,12.37,29.92,18,5.92,3.52,6.73,7.83,6.09,10.93-1.44,7-4.19,20.31-5.52,26.77-1.75,8.47-6.1,6.3-11.83,4.75a77.71,77.71,0,0,1-12.58-4.7c-4.25-2.21-6.09-5.6-4.75-12.11,1-4.72,2-9.51,3-14.56,1.16-5.6-2.05-6.5-5.74-9-4.33-3-9.95-5.26-12.75-6.63C150,272.41,158.66,263.76,158.66,263.76Z" transform="translate(0 39.43)"/><path class="cls-2" d="M182.27,284.83c5.92,3.53,6.73,7.84,6.09,10.94-1.44,7-4.19,20.31-5.52,26.77a15.66,15.66,0,0,1-.85,2.88c3.4.67,5.93,0,7.16-6,1.33-6.46,4.08-19.81,5.52-26.77.64-3.1-.17-7.41-6.09-10.93-9.4-5.6-22.7-13.27-29.92-18,0,0-1.87,1.86-4.42,4.32C161.73,272.81,173.64,279.69,182.27,284.83Z" transform="translate(0 39.43)"/><path class="cls-5" d="M66.12,262.75c-7.33,4.54-20.79,11.91-30.31,17.31-6,3.39-6.89,7.68-6.32,10.8l4.93,26.89c1.56,8.5,6,6.43,11.73,5a77.79,77.79,0,0,0,12.68-4.42c4.29-2.11,6.21-5.47,5-12-.87-4.74-1.75-9.55-2.69-14.63-1-5.62,2.19-6.44,5.94-8.9,4.4-2.89,10.06-5.05,12.89-6.35C74.63,271.59,66.12,262.75,66.12,262.75Z" transform="translate(0 39.43)"/><path class="cls-2" d="M42.05,283.3c-6,3.4-6.89,7.69-6.32,10.81L40.66,321a16.52,16.52,0,0,0,.79,2.9c-3.41.59-5.93-.14-7-6.14l-4.93-26.89c-.57-3.12.33-7.41,6.32-10.8,9.52-5.4,23-12.77,30.31-17.31,0,0,1.83,1.9,4.32,4.42C62.85,271.73,50.79,278.35,42.05,283.3Z" transform="translate(0 39.43)"/></g></g></svg>