<svg xmlns="http://www.w3.org/2000/svg" viewBox="0 0 92.89 78.96"><defs><style>.cls-1{fill:#fff;}</style></defs><g id="Layer_2" data-name="Layer 2"><g id="temp"><path class="cls-1" d="M39.21,8.67a10.36,10.36,0,0,0-1.33,4.58,18.48,18.48,0,0,0-10.09,18.8A23.75,23.75,0,0,0,13.52,43.47a14.08,14.08,0,0,0-5.4,1.43A12.7,12.7,0,0,0,.06,57.8a13.65,13.65,0,0,0,11.5,12.1,12.91,12.91,0,0,0,5-.27A21.74,21.74,0,0,0,34.47,79,20,20,0,0,0,50,71.57a18.4,18.4,0,0,0,15.24,5.56A20,20,0,0,0,82.93,53.7l.57-.08a11.72,11.72,0,0,0,9.39-11.69A17.9,17.9,0,0,0,82.27,25.58a9.09,9.09,0,0,0-2.34-3.36,8.06,8.06,0,0,0-9.19,6.56,16.77,16.77,0,0,0-4.37-1.68,18.19,18.19,0,0,0-7.18-11.65,10.07,10.07,0,0,0,1.15-5.61A10.89,10.89,0,0,0,49.88,0,10.21,10.21,0,0,0,39.21,8.67Z"/></g></g></svg>