<svg xmlns="http://www.w3.org/2000/svg" viewBox="0 0 80.11 72.86"><defs><style>.cls-1{fill:#fff;}</style></defs><g id="Layer_2" data-name="Layer 2"><g id="temp"><path class="cls-1" d="M33.57,6.76a14.26,14.26,0,0,0-1.17,3.39A21.15,21.15,0,0,0,19.85,22.7a21,21,0,0,0-10.53,10,8.19,8.19,0,0,0-4.21,1.23C1.05,36.46-1.08,42.28.55,48.12A14.75,14.75,0,0,0,6.16,56a8.94,8.94,0,0,0,3.75,5.14,7.92,7.92,0,0,0,3.5,1.11A17.92,17.92,0,0,0,29.78,72.86a16.17,16.17,0,0,0,12.69-6.1A14.4,14.4,0,0,0,54.68,70.7,15.92,15.92,0,0,0,68.13,54.81a15.7,15.7,0,0,0-1.34-6.37l.09-.16.45-.11A17.12,17.12,0,0,0,80.11,31.56c0-5-3.37-9.23-7.61-10.2-4-.92-7.47,1.06-8.3,3.91a16.49,16.49,0,0,0-3.86-1.72,17.88,17.88,0,0,0-7-10.28,9,9,0,0,0,.36-4.8A10.76,10.76,0,0,0,43.78,0,10.46,10.46,0,0,0,33.57,6.76Z"/></g></g></svg>