<svg xmlns="http://www.w3.org/2000/svg" viewBox="0 0 71.19 154.8"><defs><style>.cls-1{fill:#ffc470;}.cls-2{fill:#f6b15e;}.cls-3{fill:#fecd9b;}.cls-4{fill:#f3edff;}</style></defs><g id="Layer_2" data-name="Layer 2"><g id="spaceship"><path class="cls-1" d="M71.19.07H61.38C61.38,0,9.81,0,9.81.07H0C0,46.73,11.41,93.4,11.41,93.4s2.13-8.88,4.53-22.75A586.08,586.08,0,0,0,35.85,154.8,595.63,595.63,0,0,0,55.38,70.61C57.83,84.51,60,93.4,60,93.4S71.19,46.73,71.19.07Z"/><path class="cls-2" d="M63.31.06H55.67c0-.08-40.15-.08-40.15,0H7.88c0,37.44,8.89,74.88,8.89,74.88s1.65-7.12,3.52-18.26a481.52,481.52,0,0,0,15.5,67.53A490.27,490.27,0,0,0,51,56.65c1.9,11.15,3.6,18.29,3.6,18.29S63.31,37.5,63.31.06Z"/><path class="cls-3" d="M52,0H47.46S23.73,0,23.73,0H19.22c0,26.55,5.25,53.09,5.25,53.09s1-5.05,2.08-12.94a399.25,399.25,0,0,0,9.16,47.87,406.61,406.61,0,0,0,9-47.89c1.13,7.9,2.13,13,2.13,13S52,26.59,52,0Z"/><path class="cls-4" d="M42.68,0h-2S30.46,0,30.46,0H28.51a320.37,320.37,0,0,0,2.27,35.48s.43-3.37.9-8.65c1.54,18.18,4,32,4,32S38,45,39.53,26.85c.49,5.28.92,8.66.92,8.66A326,326,0,0,0,42.68,0Z"/><path class="cls-1" d="M71.19.07H61.38C61.38,0,9.81,0,9.81.07H0C0,46.73,11.41,93.4,11.41,93.4s2.13-8.88,4.53-22.75A586.08,586.08,0,0,0,35.85,154.8,595.63,595.63,0,0,0,55.38,70.61C57.83,84.51,60,93.4,60,93.4S71.19,46.73,71.19.07Z"/><path class="cls-2" d="M63.31.06H55.67c0-.08-40.15-.08-40.15,0H7.88c0,37.44,8.89,74.88,8.89,74.88s1.65-7.12,3.52-18.26a481.52,481.52,0,0,0,15.5,67.53A490.27,490.27,0,0,0,51,56.65c1.9,11.15,3.6,18.29,3.6,18.29S63.31,37.5,63.31.06Z"/><path class="cls-3" d="M52,0H47.46S23.73,0,23.73,0H19.22c0,26.55,5.25,53.09,5.25,53.09s1-5.05,2.08-12.94a399.25,399.25,0,0,0,9.16,47.87,406.61,406.61,0,0,0,9-47.89c1.13,7.9,2.13,13,2.13,13S52,26.59,52,0Z"/><path class="cls-4" d="M42.68,0h-2S30.46,0,30.46,0H28.51a320.37,320.37,0,0,0,2.27,35.48s.43-3.37.9-8.65c1.54,18.18,4,32,4,32S38,45,39.53,26.85c.49,5.28.92,8.66.92,8.66A326,326,0,0,0,42.68,0Z"/></g></g></svg>