<svg xmlns="http://www.w3.org/2000/svg" viewBox="0 0 1042.76 1083.41"><defs><style>.cls-1{fill:#333;}.cls-2{fill:#f90;}.cls-3{fill:#999;}.cls-4{fill:#fc3;}.cls-5{fill:#c33;}.cls-6{fill:#3c3;}.cls-7{fill:#060;}</style></defs><g id="Layer_2" data-name="Layer 2"><g id="Layer_1-2" data-name="Layer 1"><path class="cls-1" d="M1041.62,712.18c0,97.27-210,270.4-497.63,270.4S0,888.73,0,712.18C0,614.9,1041.62,614.9,1041.62,712.18Z"/><path class="cls-1" d="M194.19,737.21c-50,107.49-86.38,229.4-85.75,346.2l156.75-42.6C229.23,971.58,203.12,863.38,194.19,737.21Z"/><path class="cls-1" d="M839.51,737.21c50,107.49,86.38,229.4,85.75,346.2l-156.76-42.6C804.47,971.58,830.57,863.38,839.51,737.21Z"/><ellipse class="cls-2" cx="521.95" cy="699.67" rx="520.81" ry="150.47"/><path class="cls-3" d="M1009.82,699.66c0,32.1-54.32,61.15-142.1,82.15-87.4,20.92-208,33.84-341.15,33.84-139.41,0-265-16.9-353.24-42.17-80.66-23.11-130-53.22-130-83.82,0-27.48,39.83-50.89,106.38-68.66,30.79-8.22,67.29-15.23,108.21-20.89q17.46-2.42,36-4.49c69-7.75,148.35-11.94,232.71-11.94q13.51,0,26.85.18a1806.32,1806.32,0,0,1,184.76,11.5c3.55.42,7.08.84,10.58,1.28q18.94,2.36,36.89,5.1c40.15,6.13,76.27,13.65,107.2,22.27C965.75,644.32,1009.82,670.76,1009.82,699.66Z"/><path class="cls-4" d="M76.81,829.22a20.08,20.08,0,1,1,20.07-20.07A20.09,20.09,0,0,1,76.81,829.22Z"/><path class="cls-4" d="M126.81,859.22a20.08,20.08,0,1,1,20.07-20.07A20.09,20.09,0,0,1,126.81,859.22Z"/><path class="cls-4" d="M186.81,879.22a20.08,20.08,0,1,1,20.07-20.07A20.09,20.09,0,0,1,186.81,879.22Z"/><path class="cls-5" d="M896.92,560.28c0,18.4-1.65,40.69-4.12,63.73-7.28,68-21.67,142.64-21.67,142.64s-.38,2.14-1.18,5.78c-.56,2.49-1.31,5.69-2.28,9.38-87.4,20.92-208,33.84-341.15,33.84-139.41,0-265-16.9-353.24-42.17l-1.65-6.83s-14.82-76.8-22-145.65c-2.29-22-3.8-43.13-3.8-60.72,0-110.17,32.25-230.73,86.44-318.6,21.22-34.41,45.81-63.81,73.15-85.6h431.9c.7.76,1.4,1.52,2.08,2.29l0,0a579.35,579.35,0,0,1,53.75,68.93c.41.6.8,1.18,1.17,1.75l1.48,2.25c.09.15.18.29.28.43C857.36,325.32,896.92,441.64,896.92,560.28Z"/><path class="cls-1" d="M521.91,813.67c-148.88,0-270-121.13-270-270s121.12-270,270-270,270,121.12,270,270S670.78,813.67,521.91,813.67Z"/><circle class="cls-6" cx="521.39" cy="539.04" r="234.46"/><path class="cls-7" d="M521.26,312.67c123.81,0,224.52,100.72,224.52,224.52S645.07,761.7,521.26,761.7c-61.9,0,37.71-114.71,37.7-227S459.36,312.67,521.26,312.67Z"/><path class="cls-1" d="M523.32,0a179.36,179.36,0,0,0-54,8.67c-91.75,30.2-236.94,222.72-238.09,233H801.39c-2.07-13.8-147.18-201.92-235.45-233C554.15,4.52,540.73,0,523.32,0Z"/><path class="cls-4" d="M799.39,384.77a20.07,20.07,0,1,1,20.07-20.07A20.09,20.09,0,0,1,799.39,384.77Z"/><path class="cls-4" d="M826.76,449.22a20.08,20.08,0,1,1,20.07-20.07A20.09,20.09,0,0,1,826.76,449.22Z"/></g></g></svg>