<svg xmlns="http://www.w3.org/2000/svg" xmlns:xlink="http://www.w3.org/1999/xlink" viewBox="0 0 189.37 293"><defs><style>.cls-1{fill:none;}.cls-2{fill:#3a3a3a;}.cls-3{fill:#5ebae1;}.cls-4{fill:#e5ba03;}.cls-5{clip-path:url(#clip-path);}.cls-6{fill:#ffda03;}.cls-7{fill:#c7c3b8;}</style><clipPath id="clip-path" transform="translate(0 30.55)"><path class="cls-1" d="M66.64,226.36C38.39,226.36,0,190.2,0,111,0,49.7,25.62,0,69.89,0c40.18,0,66.74,49.7,66.74,111S95,226.36,66.64,226.36Z"/></clipPath></defs><g id="Layer_2" data-name="Layer 2"><g id="submarine"><g id="Fan"><path class="cls-2" d="M61.82,252.73c-7.64-2.4-20.83-6.84-25.17-4.28s-3.49,11,.16,12.38c5.54,2.09,20.7-3.11,25.06-4.41C61.83,253.69,61.82,252.73,61.82,252.73Z" transform="translate(0 30.55)"/><path class="cls-2" d="M68.25,255.63c7.64,2.4,20.83,6.84,25.17,4.28s3.49-11-.16-12.38c-5.55-2.09-20.7,3.1-25.06,4.41C68.24,254.67,68.25,255.63,68.25,255.63Z" transform="translate(0 30.55)"/><path class="cls-2" d="M65.3,260.24A4.27,4.27,0,0,1,61,256l-.27-20.41a4.28,4.28,0,0,1,4.22-4.33h0a4.27,4.27,0,0,1,4.32,4.22l.26,20.4a4.27,4.27,0,0,1-4.21,4.33Z" transform="translate(0 30.55)"/><path class="cls-2" d="M78.59,223.79s1.51,14.55-2.44,16.15-19.7,2.47-23.85-.8C48.64,236.26,51,222.83,51,222.83Z" transform="translate(0 30.55)"/><path class="cls-3" d="M73,248c.08,3.56.6,11.05-1.18,13s-11.5,2.16-13.89-.83c-1.59-2-1.27-8.77-1-11.92a1.72,1.72,0,0,1,1.81-1.67l12.72-.16A1.43,1.43,0,0,1,73,248Z" transform="translate(0 30.55)"/></g><rect class="cls-4" x="165.98" y="110.56" width="4.9" height="20.58" transform="translate(289.29 -17.02) rotate(90)"/><circle class="cls-2" cx="181.52" cy="151.41" r="5.17"/><path class="cls-4" d="M182.1,92h-7.61a3.79,3.79,0,0,0-3.79,3.79v2.69a1.9,1.9,0,0,1-1.89,1.9H158.14v9.94h21.65a6.09,6.09,0,0,0,6.09-6.09V95.79A3.79,3.79,0,0,0,182.1,92Z" transform="translate(0 30.55)"/><rect class="cls-2" x="175.25" y="81.54" width="6.94" height="21.3" rx="2.96" transform="translate(270.91 -55.98) rotate(90)"/><g class="cls-5"><path class="cls-6" d="M66.64,226.36C38.39,226.36,0,190.2,0,111,0,49.7,25.62,0,69.89,0c40.18,0,66.74,49.7,66.74,111S95,226.36,66.64,226.36Z" transform="translate(0 30.55)"/><path class="cls-4" d="M124.67,20.29s-50.85,23.81-109.42,0l38-50.84Z" transform="translate(0 30.55)"/></g><circle class="cls-2" cx="68.32" cy="111.7" r="28.03"/><circle class="cls-3" cx="68.32" cy="111.7" r="16.22"/><circle class="cls-7" cx="90.29" cy="111.7" r="1.84"/><circle class="cls-7" cx="68.32" cy="89.85" r="1.84"/><circle class="cls-7" cx="68.32" cy="133.56" r="1.84"/><circle class="cls-7" cx="46.35" cy="111.7" r="1.84"/><circle class="cls-2" cx="68.32" cy="177.73" r="28.03"/><circle class="cls-3" cx="68.32" cy="177.73" r="16.22"/><circle class="cls-7" cx="90.29" cy="177.73" r="1.84"/><circle class="cls-7" cx="68.32" cy="155.88" r="1.84"/><circle class="cls-7" cx="68.32" cy="199.59" r="1.84"/><circle class="cls-7" cx="46.35" cy="177.73" r="1.84"/><path class="cls-6" d="M126.6,67.94s31.15,9.91,33.13,18.49c1.44,6.23.79,36.36.33,52.44A10.45,10.45,0,0,1,149.61,149H123.42Z" transform="translate(0 30.55)"/><circle class="cls-3" cx="142.02" cy="119.27" r="6.12"/><circle class="cls-3" cx="142.02" cy="140.88" r="6.12"/><circle class="cls-3" cx="142.02" cy="163.84" r="6.12"/><path class="cls-6" d="M100.55,205.22c5.67,3.6,16.1,9.46,23.47,13.75,4.64,2.69,5.31,6,4.84,8.47-1.06,5.43-3.09,15.86-4.08,20.91-1.28,6.61-4.69,5-9.18,3.79a60.58,60.58,0,0,1-9.84-3.55c-3.32-1.69-4.79-4.32-3.8-9.4l2.22-11.37c.85-4.37-1.66-5-4.55-7-3.41-2.29-7.8-4-10-5.06C93.85,212,100.55,205.22,100.55,205.22Z" transform="translate(0 30.55)"/><path class="cls-4" d="M119.13,221.44c4.64,2.7,5.31,6.05,4.84,8.47-1.06,5.44-3.09,15.87-4.08,20.91a11.67,11.67,0,0,1-.63,2.25c2.65.49,4.61-.06,5.52-4.72,1-5,3-15.48,4.08-20.91.47-2.43-.2-5.78-4.84-8.47-7.37-4.29-17.8-10.15-23.47-13.75,0,0-1.44,1.47-3.4,3.41C103,212.25,112.36,217.51,119.13,221.44Z" transform="translate(0 30.55)"/><path class="cls-6" d="M28.43,205.22C22.76,208.82,12.33,214.68,5,219c-4.64,2.69-5.3,6-4.83,8.47,1.06,5.43,3.09,15.86,4.07,20.91,1.29,6.61,4.7,5,9.18,3.79a60.24,60.24,0,0,0,9.84-3.55c3.33-1.69,4.79-4.32,3.8-9.4-.71-3.69-1.44-7.42-2.21-11.37-.85-4.37,1.65-5,4.55-7,3.4-2.29,7.8-4,10-5.06C35.14,212,28.43,205.22,28.43,205.22Z" transform="translate(0 30.55)"/><path class="cls-4" d="M9.85,221.44c-4.64,2.7-5.3,6.05-4.83,8.47l4.07,20.91a12.38,12.38,0,0,0,.64,2.25c-2.65.49-4.62-.06-5.53-4.72-1-5-3-15.48-4.07-20.91C-.34,225,.32,221.66,5,219c7.37-4.29,17.8-10.15,23.47-13.75,0,0,1.44,1.47,3.41,3.41C26,212.25,16.62,217.51,9.85,221.44Z" transform="translate(0 30.55)"/><g id="_1" data-name="1"><path class="cls-2" d="M112.69,26.29c1.88-1.35-1.62-8.9-4-7.61C96.8,27.11,67.49,38.56,26,24c-3.62-1.26-7.48,5.92-4.81,7.12C64,45.89,95.84,36.33,112.69,26.29Z" transform="translate(0 30.55)"/><path class="cls-7" d="M105.39,27A1.66,1.66,0,1,1,107,25.35,1.66,1.66,0,0,1,105.39,27Z" transform="translate(0 30.55)"/><path class="cls-7" d="M90.23,33.15a1.65,1.65,0,0,1-1.67-1.63,1.66,1.66,0,1,1,1.67,1.63Z" transform="translate(0 30.55)"/><path class="cls-7" d="M70.2,36.59a1.66,1.66,0,1,1,1.63-1.67A1.66,1.66,0,0,1,70.2,36.59Z" transform="translate(0 30.55)"/><path class="cls-7" d="M50.27,35.73a1.66,1.66,0,1,1,1.63-1.68A1.65,1.65,0,0,1,50.27,35.73Z" transform="translate(0 30.55)"/><path class="cls-7" d="M32.19,31.47a1.66,1.66,0,0,1,0-3.31,1.66,1.66,0,1,1,0,3.31Z" transform="translate(0 30.55)"/></g></g></g></svg>