<?xml version="1.0" encoding="utf-8"?>
<!-- Generator: Adobe Illustrator 26.0.3, SVG Export Plug-In . SVG Version: 6.00 Build 0)  -->
<svg version="1.1" id="Layer_1" xmlns="http://www.w3.org/2000/svg" xmlns:xlink="http://www.w3.org/1999/xlink" x="0px" y="0px"
	 viewBox="0 0 1920 1920" style="enable-background:new 0 0 1920 1920;" xml:space="preserve">
<style type="text/css">
	.st0{fill:#006837;}
	.st1{fill:#754C24;}
	.st2{fill:#39B54A;}
	.st3{fill:#07FF00;}
	.st4{fill:#FF9900;}
	.st5{fill:#0000FF;}
	.st6{fill:#FF00FF;}
	.st7{fill:#3366FF;}
</style>
<g>
	<path class="st0" d="M959.2,1597.6c-352.1-0.4-637.2-286.3-636.8-638.4c0.4-352.1,286.3-637.2,638.4-636.8
		c352.1,0.4,637.2,286.3,636.8,638.4c-0.3,256-153.7,486.9-389.5,586.5C1129.4,1580.6,1044.7,1597.7,959.2,1597.6z"/>
	<path d="M960,321c127.3-0.2,251.8,37.8,357.3,109.1c102.7,69.4,183.2,167,231.5,281.1c84.2,199,62,427-58.9,606
		c-69.4,102.7-167,183.2-281.1,231.5c-199,84.2-427,62-606-58.9c-102.7-69.4-183.2-167-231.5-281.1c-84.2-199-62-427,58.9-606
		c69.4-102.7,167-183.2,281.1-231.5C790,337.9,874.6,320.8,960,321L960,321 M960,320L960,320c-353.5,0-640,286.5-640,640l0,0
		c0,353.5,286.5,640,640,640l0,0c353.5,0,640-286.5,640-640l0,0C1600,606.5,1313.5,320,960,320L960,320z"/>
	<g>
		<rect x="976.7" y="138.3" class="st1" width="11.3" height="182.2"/>
		<g>
			<path class="st2" d="M963.4,219c-23.3,0-42.1-18.9-42.1-42.1c0-23.3,18.9-42.1,42.1-42.1c23.3,0,42.1,18.9,42.1,42.1
				C1005.4,200.2,986.6,219,963.4,219z"/>
			<path class="st2" d="M956.8,180.4c-23.3,0-42.1-18.9-42.1-42.1c0-23.3,18.9-42.1,42.1-42.1c23.3,0,42.1,18.9,42.1,42.1
				C998.8,161.5,980,180.4,956.8,180.4z"/>
			<path class="st2" d="M1023.6,173.8c-15.7,0-28.4-12.7-28.4-28.4s12.7-28.4,28.4-28.4c15.7,0,28.4,12.7,28.4,28.4
				S1039.3,173.8,1023.6,173.8z"/>
			<path class="st2" d="M1017.6,213.7c-16.4,0-29.7-13.3-29.7-29.7s13.3-29.7,29.7-29.7s29.7,13.3,29.7,29.7
				C1047.3,200.4,1034,213.7,1017.6,213.7z"/>
			<path class="st2" d="M988.7,138.3c-17.6,0-31.9-14.3-31.9-31.9s14.3-31.9,31.9-31.9c17.6,0,31.9,14.3,31.9,31.9
				C1020.6,124,1006.3,138.3,988.7,138.3z"/>
			<path class="st2" d="M921.3,190.4c-12.4,0-22.5-10.1-22.5-22.5s10.1-22.5,22.5-22.5s22.5,10.1,22.5,22.5
				C943.8,180.4,933.7,190.4,921.3,190.4z"/>
		</g>
	</g>
	<g>
		
			<rect x="1037.9" y="280.9" transform="matrix(0.2652 -0.9642 0.9642 0.2652 529.8739 1264.0901)" class="st1" width="112.8" height="7"/>
		<g>
			<path class="st2" d="M1084.6,275c-13.9-3.8-22-18.2-18.2-32c3.8-13.9,18.2-22,32-18.2c13.9,3.8,22,18.2,18.2,32
				C1112.8,270.7,1098.5,278.9,1084.6,275z"/>
			<path class="st2" d="M1087.1,250.9c-13.9-3.8-22-18.2-18.2-32c3.8-13.9,18.2-22,32-18.2c13.9,3.8,22,18.2,18.2,32
				C1115.3,246.5,1100.9,254.7,1087.1,250.9z"/>
			<path class="st2" d="M1128.1,257.9c-9.4-2.6-14.9-12.3-12.3-21.6c2.6-9.4,12.3-14.9,21.6-12.3c9.4,2.6,14.9,12.3,12.3,21.6
				C1147.1,255,1137.4,260.5,1128.1,257.9z"/>
			<path class="st2" d="M1117.9,280.8c-9.8-2.7-15.5-12.8-12.8-22.6c2.7-9.8,12.8-15.5,22.6-12.8c9.8,2.7,15.5,12.8,12.8,22.6
				C1137.8,277.7,1127.7,283.5,1117.9,280.8z"/>
			<path class="st2" d="M1113,231c-10.5-2.9-16.7-13.8-13.8-24.3c2.9-10.5,13.8-16.7,24.3-13.8s16.7,13.8,13.8,24.3
				C1134.4,227.7,1123.5,233.9,1113,231z"/>
			<path class="st2" d="M1064.2,251.1c-7.4-2-11.8-9.7-9.7-17.1c2-7.4,9.7-11.8,17.1-9.7c7.4,2,11.8,9.7,9.7,17.1
				C1079.3,248.7,1071.6,253.1,1064.2,251.1z"/>
		</g>
	</g>
	<g>
		
			<rect x="415.9" y="1393.7" transform="matrix(0.7677 -0.6408 0.6408 0.7677 -789.6096 613.5145)" class="st1" width="71" height="4.4"/>
		<g>
			<path class="st2" d="M453,1404.1c5.8,7,4.9,17.3-2.1,23.1c-7,5.8-17.3,4.9-23.1-2.1c-5.8-7-4.9-17.3,2.1-23.1
				C436.8,1396.2,447.2,1397.2,453,1404.1z"/>
			<path class="st2" d="M443.1,1415.7c5.8,7,4.9,17.3-2.1,23.1c-7,5.8-17.3,4.9-23.1-2.1c-5.8-7-4.9-17.3,2.1-23.1
				C426.9,1407.8,437.3,1408.8,443.1,1415.7z"/>
			<path class="st2" d="M424.4,1397.4c3.9,4.7,3.3,11.7-1.4,15.6c-4.7,3.9-11.7,3.3-15.6-1.4c-3.9-4.7-3.3-11.7,1.4-15.6
				C413.5,1392,420.5,1392.7,424.4,1397.4z"/>
			<path class="st2" d="M437.8,1389.2c4.1,4.9,3.4,12.2-1.5,16.3c-4.9,4.1-12.2,3.4-16.3-1.5c-4.1-4.9-3.4-12.2,1.5-16.3
				C426.5,1383.6,433.8,1384.3,437.8,1389.2z"/>
			<path class="st2" d="M422.5,1416.7c4.4,5.3,3.7,13.1-1.6,17.5c-5.3,4.4-13.1,3.7-17.5-1.6c-4.4-5.3-3.7-13.1,1.6-17.5
				C410.3,1410.7,418.1,1411.4,422.5,1416.7z"/>
			<path class="st2" d="M454.9,1423.8c3.1,3.7,2.6,9.3-1.1,12.3c-3.7,3.1-9.3,2.6-12.3-1.1c-3.1-3.7-2.6-9.3,1.1-12.3
				C446.3,1419.6,451.8,1420.1,454.9,1423.8z"/>
		</g>
	</g>
	<g>
		
			<rect x="476.2" y="1418" transform="matrix(0.7677 -0.6408 0.6408 0.7677 -794.3212 647.2172)" class="st1" width="38.7" height="2.4"/>
		<g>
			<path class="st2" d="M496.4,1423.7c3.2,3.8,2.6,9.4-1.1,12.6c-3.8,3.2-9.4,2.6-12.6-1.1c-3.2-3.8-2.6-9.4,1.1-12.6
				C487.6,1419.4,493.3,1419.9,496.4,1423.7z"/>
			<path class="st2" d="M491,1430c3.2,3.8,2.6,9.4-1.1,12.6c-3.8,3.2-9.4,2.6-12.6-1.1c-3.2-3.8-2.6-9.4,1.1-12.6
				C482.2,1425.7,487.9,1426.2,491,1430z"/>
			<path class="st2" d="M480.9,1420c2.1,2.6,1.8,6.4-0.8,8.5c-2.6,2.1-6.4,1.8-8.5-0.8c-2.1-2.6-1.8-6.4,0.8-8.5
				C474.9,1417.1,478.7,1417.5,480.9,1420z"/>
			<path class="st2" d="M488.2,1415.6c2.2,2.7,1.9,6.7-0.8,8.9c-2.7,2.2-6.7,1.9-8.9-0.8c-2.2-2.7-1.9-6.7,0.8-8.9
				C482,1412.5,486,1412.9,488.2,1415.6z"/>
			<path class="st2" d="M479.8,1430.6c2.4,2.9,2,7.1-0.9,9.5s-7.1,2-9.5-0.9s-2-7.1,0.9-9.5C473.2,1427.3,477.4,1427.7,479.8,1430.6
				z"/>
			<path class="st2" d="M497.5,1434.4c1.7,2,1.4,5-0.6,6.7s-5,1.4-6.7-0.6s-1.4-5,0.6-6.7C492.8,1432.2,495.8,1432.4,497.5,1434.4z"
				/>
		</g>
	</g>
	<path class="st3" d="M-0.1,960c640.1,0,1280.2,0,1920.2,0"/>
	<path class="st4" d="M281.1,281.1c452.6,452.6,905.2,905.2,1357.8,1357.8"/>
	<path class="st5" d="M960-0.1c0,640.1,0,1280.2,0,1920.2"/>
	<path class="st6" d="M1638.9,281.1c-452.6,452.6-905.2,905.2-1357.8,1357.8"/>
</g>
<path class="st7" d="M756.9,485c102.8,36.4,103.3,64.1,160.4,72.9c100.7,15.6,134-65.2,222.9-54.2c79.7,9.9,161.7,88.2,181.2,172.9
	c36.4,157.5-159.1,267.4-108.3,387.5c26.7,63,85.6,44.8,152.1,143.8c17.2,25.6,86.2,128.4,46.6,203.9
	c-34,64.8-129.2,73.8-144.5,75.3c-130.8,12.3-162.5-89.3-333.3-120.8c-115.2-21.2-137.5,18.2-233.3-16.7
	c-8.3-3-178-66.6-181.2-160.4c-4.1-117.1,256-138.3,293.8-308.3c23.5-105.7-46-237.4-127.1-258.3c-101.4-26.2-210.3,123.4-250,91.7
	c-22.1-17.7-2.2-75.4,6.2-100c2.4-7.1,49.2-136.6,162.5-158.3C649.9,447.2,685.6,459.8,756.9,485z"/>
</svg>
