<svg xmlns="http://www.w3.org/2000/svg" xmlns:xlink="http://www.w3.org/1999/xlink" viewBox="0 0 174.54 269.95"><defs><style>.cls-1{fill:none;}.cls-2{fill:#3a3a3a;}.cls-3{clip-path:url(#clip-path);}.cls-4{fill:#ffda03;}.cls-5{fill:#e5ba03;}.cls-6{fill:#5ebae1;}.cls-7{fill:#c7c3b8;}</style><clipPath id="clip-path" transform="translate(0 29.51)"><path class="cls-1" d="M72.44,203.13C47.21,196.24,21.77,154.58,41.1,83.89c15-54.74,50-92.86,89.5-82,35.86,9.8,47.45,60.66,32.48,115.4S97.78,210.06,72.44,203.13Z"/></clipPath></defs><g id="Layer_2" data-name="Layer 2"><g id="rocket"><g id="Fan"><path class="cls-2" d="M83.73,203.75s-2.2,13.36-6.12,13.82S59.42,215,56.51,211c-2.56-3.46,2.81-14.89,2.81-14.89Z" transform="translate(0 29.51)"/></g><g class="cls-3"><path class="cls-4" d="M72.44,203.13C47.21,196.24,21.77,154.58,41.1,83.89c15-54.74,50-92.86,89.5-82,35.86,9.8,47.45,60.66,32.48,115.4S97.78,210.06,72.44,203.13Z" transform="translate(0 29.51)"/><path class="cls-5" d="M174.54,33.32s-51.2,8.85-97.68-26.71l46.32-36.12Z" transform="translate(0 29.51)"/></g><path class="cls-5" d="M35,130.92S3,138.24,0,152.79c0,0,25.88,18.05,39.82,12.9Z" transform="translate(0 29.51)"/><path class="cls-5" d="M141.07,161.48s22.42,23.93,16.78,37.68c0,0-31.54.51-40.23-11.55Z" transform="translate(0 29.51)"/><circle class="cls-2" cx="109.38" cy="103.41" r="25.94"/><circle class="cls-6" cx="109.38" cy="103.41" r="15.01"/><circle class="cls-7" cx="128.99" cy="108.77" r="1.7"/><circle class="cls-7" cx="114.72" cy="83.9" r="1.7"/><circle class="cls-7" cx="104.05" cy="122.92" r="1.7"/><circle class="cls-7" cx="89.77" cy="98.05" r="1.7"/><circle class="cls-2" cx="93.26" cy="162.36" r="25.94"/><circle class="cls-6" cx="93.26" cy="162.36" r="15.01"/><circle class="cls-7" cx="112.88" cy="167.72" r="1.7"/><circle class="cls-7" cx="98.6" cy="142.85" r="1.7"/><circle class="cls-7" cx="87.93" cy="181.87" r="1.7"/><circle class="cls-7" cx="73.65" cy="156.99" r="1.7"/><path class="cls-4" d="M107.87,192.54c4.18,4.59,12.06,12.37,17.6,18,3.49,3.54,3.26,6.69,2.25,8.74L119,237c-2.77,5.59-5.41,3.28-9.12,1.15a56.92,56.92,0,0,1-7.92-5.58c-2.56-2.32-3.23-5-1.11-9.31,1.55-3.12,3.11-6.28,4.76-9.62,1.83-3.69-.24-4.9-2.36-7.35a66.91,66.91,0,0,0-7.68-7C100.22,197,107.87,192.54,107.87,192.54Z" transform="translate(0 29.51)"/><path class="cls-5" d="M120.5,211.55c3.49,3.54,3.26,6.69,2.25,8.74-2.28,4.6-6.63,13.41-8.74,17.68a12.31,12.31,0,0,1-1.12,1.85c2.25,1.09,4.14,1.07,6.09-2.87l8.74-17.67c1-2.05,1.24-5.2-2.25-8.74-5.54-5.63-13.42-13.41-17.6-18,0,0-1.64,1-3.87,2.2C108.36,199.41,115.42,206.39,120.5,211.55Z" transform="translate(0 29.51)"/><path class="cls-4" d="M43.48,174.93c-5.93,1.83-16.68,4.52-24.3,6.54-4.81,1.27-6.22,4.1-6.39,6.38-.38,5.11-1.11,14.92-1.46,19.66-.47,6.22,3,5.58,7.26,5.63a56,56,0,0,0,9.66-.77c3.38-.69,5.33-2.68,5.69-7.45.25-3.47.52-7,.79-10.7.31-4.11,2.71-4.1,5.77-5.13A68.9,68.9,0,0,1,50.66,187C47.81,182.65,43.48,174.93,43.48,174.93Z" transform="translate(0 29.51)"/><path class="cls-5" d="M22.94,184.88c-4.8,1.27-6.21,4.1-6.38,6.38-.39,5.11-1.12,14.91-1.47,19.66a10.18,10.18,0,0,0,0,2.16c-2.49-.21-4.11-1.18-3.78-5.57.35-4.74,1.08-14.55,1.46-19.66.17-2.28,1.58-5.11,6.39-6.38,7.62-2,18.37-4.71,24.3-6.54,0,0,.93,1.66,2.21,3.87C39.57,180.6,29.94,183,22.94,184.88Z" transform="translate(0 29.51)"/><g id="_1" data-name="1"><path class="cls-2" d="M162.38,35.75c2-.74.74-8.34-1.73-7.77C148,32.61,119,35.68,85.52,12.53c-2.93-2-8.12,3.46-6,5.19C114.16,41.37,144.89,40.61,162.38,35.75Z" transform="translate(0 29.51)"/><path class="cls-7" d="M155.69,34.63a1.53,1.53,0,1,1,1.87-1.1A1.54,1.54,0,0,1,155.69,34.63Z" transform="translate(0 29.51)"/><path class="cls-7" d="M140.66,36.4a1.53,1.53,0,0,1,.77-3,1.53,1.53,0,1,1-.77,3Z" transform="translate(0 29.51)"/><path class="cls-7" d="M121.94,34.58a1.53,1.53,0,1,1,1.87-1.1A1.54,1.54,0,0,1,121.94,34.58Z" transform="translate(0 29.51)"/><path class="cls-7" d="M104.35,28.94a1.53,1.53,0,1,1,1.87-1.09A1.52,1.52,0,0,1,104.35,28.94Z" transform="translate(0 29.51)"/><path class="cls-7" d="M89.26,20.73a1.53,1.53,0,1,1,.77-3,1.53,1.53,0,0,1-.77,3Z" transform="translate(0 29.51)"/></g></g></g></svg>