<?xml version="1.0" encoding="utf-8"?>
<!-- Generator: Adobe Illustrator 26.0.3, SVG Export Plug-In . SVG Version: 6.00 Build 0)  -->
<svg version="1.1" id="Layer_1" xmlns="http://www.w3.org/2000/svg" xmlns:xlink="http://www.w3.org/1999/xlink" x="0px" y="0px"
	 viewBox="0 0 400 400" style="enable-background:new 0 0 400 400;" xml:space="preserve">
<style type="text/css">
	.st0{fill:none;stroke:#CC0099;stroke-width:3;stroke-miterlimit:10;}
	.st1{fill:#54CE3E;}
</style>
<path class="st0" d="M378.14,87.95C258.16,66.14,155.91,42.9,30.09,14.55C19.51,12.16,6.3,26.83,9.86,37.02
	c33.63,96.18,78.4,232.39,110.49,338.18c3.13,10.33,22.35,14.26,29.56,6.23c78.95-88.01,162.35-183.1,237.63-264.76
	C394.84,108.72,388.77,89.88,378.14,87.95z"/>
<g>
	<path class="st1" d="M16.9,237.13c8.97,52.86,51.16,109.3,114.22,124.03c59.16,13.82,95.68-0.7,142.71-26.22
		c34.48-18.71,81.73-55.65,100.7-112.62c44.72-134.31-57.94-182.32-123.2-141.64c-28.03,17.47-43.02,17.1-62.97-20.12
		c-14.3-26.67-48.56-35.28-73.55-18.22C49.82,86.69,3.35,157.26,16.9,237.13z"/>
</g>
</svg>
