<svg xmlns="http://www.w3.org/2000/svg" viewBox="0 0 115.05 51.32"><defs><style>.cls-1{fill:#b249c4;}.cls-2{fill:#993eb7;}.cls-3{fill:#f48eea;}</style></defs><g id="Layer_2" data-name="Layer 2"><g id="jlly_fish" data-name="jlly fish"><path class="cls-1" d="M39.74,7.22A29.32,29.32,0,0,1,57.72,0,23.21,23.21,0,0,1,75.43,7.28c2.34,2.58,4,5.7,5.76,8.69,3.68,6.18,8.15,12,13.87,16.38s12.79,7.22,20,7c-1.59,4.54-6.65,7.14-11.45,7.22s-9.4-1.85-13.7-4A11.92,11.92,0,0,1,76.1,49c-2.33-.69-4.39-2.1-6.67-2.93s-5.09-1-6.91.62c-1.19,1.05-1.78,2.71-3.11,3.58-1.74,1.15-4.11.54-5.93-.49S50,47.34,48,46.86c-4.21-1-8.11,2.23-12.2,3.66a15.3,15.3,0,0,1-13.84-2.1A15.73,15.73,0,0,0,18.34,46c-3.43-1.29-7.11,1.27-10.78,1.24-4.61,0-8.47-5-7.37-9.49-.31,1.26,11,2.51,12.68,1.8,3.6-1.56,7.06-6.42,9.37-9.42C28.09,22.52,32.32,13.54,39.74,7.22Z"/><path class="cls-2" d="M45.65,7.2C43.83,8.85,41.7,10,40.08,11.84a47,47,0,0,0-5,7.75c-2.91,5.21-4,15.5-11.67,15.61-2,0,1,2.18,2,2.17C31.52,37.28,34,32.24,36,27.1a60.74,60.74,0,0,1,4.82-9.48c2.27-3.73,4.9-5.7,8-8.55.95-.85-2.38-2.65-3.23-1.87Z"/><path class="cls-3" d="M49.29,16.79l.09,0-.42.06a1.85,1.85,0,0,1,.47,0L49,16.77a1.89,1.89,0,0,1,.34.09L49,16.7a1.26,1.26,0,0,1,.23.13l-.32-.25a1.06,1.06,0,0,1,.15.15l-.26-.33a.86.86,0,0,1,.1.16l-.16-.39a1.24,1.24,0,0,1,0,.16l-.06-.42a.38.38,0,0,1,0,.15l.06-.43a.84.84,0,0,1,0,.17l.16-.38a1.18,1.18,0,0,1-.11.19l.25-.32a2.28,2.28,0,0,1-.22.22l.32-.25a1.77,1.77,0,0,1-.33.19,1.29,1.29,0,0,0-.45.42A1.46,1.46,0,0,0,48,17.05a1.18,1.18,0,0,0,.19.6l.25.32a1.66,1.66,0,0,0,.71.42l.42.05a1.54,1.54,0,0,0,.81-.22,3.07,3.07,0,0,0,.67-.46,2.43,2.43,0,0,0,.47-.54l.08-.12,0-.06c.06-.15.13-.29.18-.44a1.82,1.82,0,0,0,.08-.65,2.21,2.21,0,0,0-.27-1,.31.31,0,0,0,0-.1,4.63,4.63,0,0,0-.32-.42,2.35,2.35,0,0,0-.53-.41l-.12-.06a4.77,4.77,0,0,0-.52-.22,3.42,3.42,0,0,0-.79-.11,3.92,3.92,0,0,0-.84.08,1.27,1.27,0,0,0-.55.29,1.36,1.36,0,0,0-.41.45,1.21,1.21,0,0,0-.19.6,1.16,1.16,0,0,0,0,.64l.16.38a1.59,1.59,0,0,0,.57.58l.39.16a1.54,1.54,0,0,0,.85,0Z"/><path class="cls-3" d="M58.09,11.84a1.61,1.61,0,0,0,0-3.21,1.61,1.61,0,0,0,0,3.21Z"/><path class="cls-3" d="M63.93,19a.64.64,0,0,0,0-1.28.64.64,0,0,0,0,1.28Z"/><path class="cls-3" d="M68.49,13.73a.64.64,0,0,0,0-1.28.64.64,0,0,0,0,1.28Z"/><path class="cls-3" d="M47.28,8.39l.78,0a.54.54,0,0,0,.25-.06.39.39,0,0,0,.2-.13A.49.49,0,0,0,48.65,8a.4.4,0,0,0,.05-.24.62.62,0,0,0-.19-.46l-.13-.1a.59.59,0,0,0-.32-.09l-.78,0a.54.54,0,0,0-.25.06.63.63,0,0,0-.2.13.46.46,0,0,0-.13.21.54.54,0,0,0-.06.25.65.65,0,0,0,.19.45l.13.1a.62.62,0,0,0,.32.09Z"/><path class="cls-3" d="M37.16,24.14a1.28,1.28,0,0,0,0-2.56,1.28,1.28,0,0,0,0,2.56Z"/><path class="cls-3" d="M48,25.92A1,1,0,0,0,48,24a1,1,0,0,0,0,1.92Z"/><path class="cls-3" d="M42.31,29.68a.32.32,0,0,0,0-.64.32.32,0,0,0,0,.64Z"/><path class="cls-3" d="M56.77,29.23a.32.32,0,0,0,0-.64.32.32,0,0,0,0,.64Z"/><path class="cls-3" d="M65.56,28.41l.14.14c.06.07,0-.05,0,0l.05.08,0,.07c-.05-.09,0,0,0,0s0,.05,0,.07,0,0,0,0,0,0,0,0v.1c0,.05,0-.09,0,0a.5.5,0,0,1,0,.13c0,.05,0-.08,0,0v0a.21.21,0,0,1,0,.06l0,.06v0c0-.09,0,0,0,0a.47.47,0,0,1-.1.1s0,0,0,0l0,0c.07-.06,0,0,0,0a1.82,1.82,0,0,1-.27.15s.07,0,0,0h0l-.07,0-.16,0-.07,0h-.23l-.07,0h0l-.07,0,0,0,0,0s0,0-.06-.06l0,0c-.06-.06,0,.06,0,0l0,.25s0-.05,0-.07,0,0,0,0a.54.54,0,0,1,.07-.13,1.32,1.32,0,0,1,.16-.25s0,0,0,0l0,0,.05-.06L65,29l.1-.1.06-.05,0,0a.32.32,0,0,0,.15-.19.36.36,0,0,0,0-.25.33.33,0,0,0-.44-.11,2.75,2.75,0,0,0-.59.59,1.92,1.92,0,0,0-.18.31c-.08.17-.2.37-.07.55a1,1,0,0,0,.89.42,1.63,1.63,0,0,0,1.53-1.05A1.14,1.14,0,0,0,66,28a.33.33,0,1,0-.46.46Z"/><path class="cls-3" d="M72.31,23.93A3.1,3.1,0,0,1,73,24l-.34-.05a2.58,2.58,0,0,1,.71.19l-.3-.13a2.7,2.7,0,0,1,.52.3l-.26-.2a3.06,3.06,0,0,1,.36.36l-.2-.26,0,0a1,1,0,0,0,.33.36,1,1,0,0,0,.44.23,1.28,1.28,0,0,0,1-.13,1.26,1.26,0,0,0,.58-.77,1.2,1.2,0,0,0-.12-1,5,5,0,0,0-.41-.5,4.66,4.66,0,0,0-.49-.39,3.53,3.53,0,0,0-.87-.43,3.62,3.62,0,0,0-.79-.18,4,4,0,0,0-.85,0,1.39,1.39,0,0,0-.91.38,1.3,1.3,0,0,0,0,1.82,1.25,1.25,0,0,0,.91.37Z"/><path class="cls-3" d="M76.91,33.53a1.29,1.29,0,0,0,0-2.57,1.29,1.29,0,0,0,0,2.57Z"/><path class="cls-3" d="M82.92,30a1,1,0,0,0,0-1.92,1,1,0,0,0,0,1.92Z"/><path class="cls-3" d="M75.77,16.76a1,1,0,0,0,0-1.93,1,1,0,0,0,0,1.93Z"/><path class="cls-3" d="M67.61,8.15a1,1,0,0,0,0-1.92,1,1,0,0,0,0,1.92Z"/><path class="cls-3" d="M60.56,16.39a1,1,0,0,0,0-1.92,1,1,0,0,0,0,1.92Z"/><path class="cls-3" d="M54.61,26.25a1,1,0,0,0,0-1.93,1,1,0,0,0,0,1.93Z"/><path class="cls-3" d="M29.42,30.47a1,1,0,0,0,0-1.93,1,1,0,0,0,0,1.93Z"/><path class="cls-3" d="M47.24,33.3a1,1,0,0,0,0-1.92,1,1,0,0,0,0,1.92Z"/><path class="cls-3" d="M45,39.05a1,1,0,0,0,0-1.93,1,1,0,0,0,0,1.93Z"/></g></g></svg>