<svg xmlns="http://www.w3.org/2000/svg" viewBox="0 0 122.56 80.78"><defs><style>.cls-1{fill:#23c0ee;}</style></defs><g id="Layer_2" data-name="Layer 2"><g id="bubbles"><path class="cls-1" d="M1.22,42.35A7.28,7.28,0,0,0,0,46.56a8,8,0,0,0,.35,2.61A6,6,0,0,0,2.46,52a6.16,6.16,0,0,0,4,1.14,6.64,6.64,0,0,0,5.72-4.57C14.22,42,5.68,36.33,1.22,42.35Z"/><path class="cls-1" d="M42.91,18.27a7.22,7.22,0,0,0-1.23,4.21,7.86,7.86,0,0,0,.35,2.6,5.88,5.88,0,0,0,2.12,2.82,6.11,6.11,0,0,0,4,1.14,6.64,6.64,0,0,0,5.72-4.57C55.91,17.86,47.36,12.25,42.91,18.27Z"/><path class="cls-1" d="M110.35,73.44a4.94,4.94,0,0,0-.83,2.86,5.11,5.11,0,0,0,.24,1.78A4,4,0,0,0,111.2,80a4.17,4.17,0,0,0,2.69.78,4.52,4.52,0,0,0,3.89-3.11C119.2,73.16,113.38,69.34,110.35,73.44Z"/><path class="cls-1" d="M6.5,3.48a4.93,4.93,0,0,0-.84,2.87A5.26,5.26,0,0,0,5.9,8.12,4,4,0,0,0,7.34,10a4.22,4.22,0,0,0,2.69.77A4.49,4.49,0,0,0,13.92,7.7C15.34,3.21,9.53-.61,6.5,3.48Z"/><path class="cls-1" d="M114.92,1.75a4.87,4.87,0,0,0-.83,2.86,5,5,0,0,0,.23,1.77,4,4,0,0,0,1.44,1.92,4.29,4.29,0,0,0,2.69.78A4.54,4.54,0,0,0,122.35,6C123.76,1.47,118-2.35,114.92,1.75Z"/><path class="cls-1" d="M60.57,30.43a5,5,0,0,0-.84,2.86A5.36,5.36,0,0,0,60,35.07,4,4,0,0,0,61.41,37a4.17,4.17,0,0,0,2.69.78A4.54,4.54,0,0,0,68,34.65C69.41,30.15,63.6,26.33,60.57,30.43Z"/></g></g></svg>