<svg version="1.1" x="0" y="0" viewBox="0 0 1920 1920" xml:space="preserve" id="prefix__svg1937" xmlns="http://www.w3.org/2000/svg"><style type="text/css" id="style1385">.prefix__st0{fill:#a3d8e8}.prefix__st1{fill:#8fcad8}.prefix__st5{fill:#c75720}.prefix__st6{fill:#5a1e21}.prefix__st7{fill:#a03d17}.prefix__st9{fill:#fdaf16}.prefix__st10{fill:#b23909}.prefix__st11{fill:#684218}.prefix__st12{fill:#51a567}.prefix__st13{fill:#8ead42}.prefix__st14{fill:#edc35a}.prefix__st15{fill:#00803a}.prefix__st16{fill:#fcbe32}.prefix__st17{fill:#b27006}.prefix__st18{fill:#f77d69}.prefix__st21{fill:#45aa62}</style><g id="prefix__Layer_3"><g id="prefix__g1391"><path class="prefix__st0" d="M1543 488.8l-110.6 368.4-900.8-270.4 94.3-314.1c2.1-1.2 4.2-2.5 6.3-3.6.8-.5 1.7-.9 2.5-1.4.8-.5 1.6-.9 2.5-1.4 3.6-2 7.3-4 10.9-5.8.5-.3 1-.5 1.4-.7 4.6-2.4 9.2-4.6 13.7-6.7 8.3-3.9 16.6-7.5 24.9-10.8 6.2-2.5 12.4-4.8 18.7-6.8 15.9-5.4 31.9-9.7 47.8-12.7 11.4-2.3 22.7-3.9 34-4.9 4.4-.4 8.7-.7 13-1 63.2-3.1 123.2 13.2 174.9 49 61 42.4 111.5 110.8 180.8 130.6 21.7 6.2 44.4 7.4 67.7 6.2 1.9-.1 3.8-.2 5.8-.4 39.1-2.6 79.5-11.5 118.8-14.5 7.5-.6 14.9-1 22.3-1h1.1c7.1 0 14.1.2 21.1.8 5.6.4 11.2 1.2 16.7 2.2 13.6 2.4 26.7 6.5 39.4 12.1 36.7 16.7 68.4 46.3 92.8 86.9z" id="prefix__path1387"/><path class="prefix__st1" d="M609.7 407.9l35.5 12.7c21.9 7.9 30 19.7 50.2 32.4 238 150.1 509.5 223.3 793.6 213.9l44.5-146.4c-6.7-14.4-15.3-27.5-23.9-39.8-17.7-25.3-45.3-38.7-69.7-50.7-26.7-13.1-55.6-21.1-86.4-19.1-34.8 2.3-71 17.5-106.2 23-57.8 8.9-111.3-7.8-154-48.3-14.7-14-28.9-31.2-48.2-32.6-20.6-1.4-43.5 15.8-64.8 17.9-50.7 4.8-71.7-68.9-111-93.1-47.6-29.4-93.8-42.2-153.9-18.8z" id="prefix__path1389"/></g><g id="prefix__g1397"><path class="prefix__st0" d="M789.4 268.9l284.7 447.8-651.9 414.5-242.7-381.8c-.1-2.8-.4-5.7-.4-8.4-.1-1.1-.1-2.2-.2-3.3-.1-1.1-.1-2.1-.1-3.2-.2-4.7-.3-9.5-.4-14v-1.8c-.1-5.8-.1-11.5.1-17.1.2-10.2.7-19.9 1.4-29.4.6-7.2 1.3-14.1 2.2-20.9 2.3-17.4 5.6-33.8 10-48.7 3.1-10.9 6.7-21 10.9-30.6 1.6-3.7 3.2-7.3 5-10.8 25.7-50.9 67.5-80.2 123.4-84 66-4.3 151 25.1 200.2-7.7 15.4-10.3 26.8-26.3 36.2-45.1.8-1.5 1.6-3.1 2.3-4.7 15.2-32.2 25.5-71.5 40.5-104.2 2.8-6.3 5.9-12.2 9.1-17.9l.5-.8c3.1-5.4 6.6-10.5 10.2-15.1 2.9-3.8 6.1-7.3 9.5-10.5 8.3-7.9 18-13.8 28.8-17.8 31.7-11.4 72.8-6.1 120.7 15.5z" id="prefix__path1393"/><path class="prefix__st1" d="M295 895.2l27.6-14.3c17-8.7 31.4-3.3 52-6C618.3 843.2 807.2 710 926.8 485.7L813.9 307.5c-16.1-9.1-31.9-15.6-47-21.3-30.9-11.6-55.6-4-77.4 2.7-24 7.3-44.3 21.2-56.3 46.5-13.5 28.6-16.2 71-27 103.1-18 52.5-57.3 76.5-113.3 68.8-19.4-2.7-41.4-9-51.3 4.2-10.6 14.2-5.2 48.6-13 66.7-18.5 43.1-94.9-13.8-134.7-8-48.2 6.9-80.6 29.3-86.5 97.9z" id="prefix__path1395"/></g><g id="prefix__g1403"><path class="prefix__st0" d="M177.9 736.4l265.8-190.6 450.2 627.7L667.3 1336c-2-.2-4.1-.4-6-.7l-2.4-.3c-.8-.1-1.5-.2-2.3-.3-3.4-.5-6.9-1-10.2-1.5-.5-.1-.9-.1-1.3-.2-4.3-.7-8.4-1.5-12.6-2.3-7.5-1.5-14.8-3.2-22-5.2-5.4-1.4-10.7-3-15.9-4.7-13.3-4.3-26.1-9.4-38.1-15.2-8.7-4.2-17-8.7-24.9-13.6-3.1-1.9-6.1-3.8-9-5.8-43.1-29.3-74-70-89.3-119.6-17.9-58.6-15.2-129.3-50.3-176.9-11-14.9-25.3-27-41.2-37.8-1.3-.9-2.6-1.8-4-2.6-27.1-17.7-58.3-31.9-85.7-49.4-5.2-3.3-10.3-6.8-15.2-10.4l-.7-.6c-4.7-3.5-9.1-7.2-13.4-11-3.5-3.1-6.7-6.4-9.9-9.8-7.7-8.4-14.1-17.6-19.5-27.7-15.4-29.4-20.7-64.8-15.5-104z" id="prefix__path1399"/><path class="prefix__st1" d="M748.8 1253.9l-16.6-26.1c-10.2-16.1-9.4-28.1-16-46.5-77.7-218.3-217.7-402-409.3-536.8l-106 75.5c-3.1 12.9-4.3 25.9-5.2 38.4-1.6 25.6 9.4 48.3 19.2 68.4 10.7 22 25.5 41.7 46.8 55.6 24.1 15.7 55.8 23.6 81.9 37.4 42.6 22.8 69 60.5 75.8 108.7 2.3 16.7 2.6 35.2 14.6 45.6 12.8 11.2 36.9 11.1 52 20.3 35.8 22 11 81.5 24.1 117.2 15.9 43.2 39.5 74.7 91.3 89z" id="prefix__path1401"/></g><g id="prefix__g1409"><path class="prefix__st0" d="M423.5 1303.6l167-119.8 282.8 394.4-142.4 102.1c-1.3-.2-2.6-.3-3.8-.5-.5 0-1-.1-1.5-.2s-1-.1-1.5-.2c-2.2-.3-4.3-.6-6.4-1-.3 0-.6-.1-.8-.1-2.7-.4-5.3-.9-7.9-1.5-4.7-.9-9.3-2-13.8-3.3-3.4-.9-6.7-1.9-10-3-8.4-2.7-16.4-5.9-23.9-9.6-5.5-2.6-10.7-5.5-15.7-8.6l-5.7-3.6c-27.1-18.4-46.5-44-56.1-75.1-11.2-36.8-9.5-81.2-31.6-111.1-6.9-9.3-15.9-17-25.9-23.7-.8-.6-1.6-1.1-2.5-1.7-17-11.1-36.6-20-53.8-31-3.3-2.1-6.5-4.3-9.5-6.5l-.5-.4c-2.9-2.2-5.7-4.5-8.4-6.9-2.2-1.9-4.2-4-6.2-6.1-4.8-5.3-8.9-11.1-12.2-17.4-9.7-18.3-13-40.5-9.7-65.2z" id="prefix__path1405"/><path class="prefix__st1" d="M782.1 1628.8l-10.5-16.4c-6.4-10.1-5.9-17.6-10.1-29.2-48.8-137.2-136.8-252.6-257.2-337.3l-66.6 47.4c-2 8.1-2.7 16.3-3.3 24.1-1 16.1 5.9 30.4 12.1 43 6.7 13.8 16 26.2 29.4 35 15.1 9.9 35.1 14.9 51.4 23.5 26.8 14.3 43.4 38 47.7 68.3 1.5 10.5 1.6 22.1 9.2 28.7 8 7 23.2 6.9 32.6 12.7 22.5 13.8 6.9 51.2 15.1 73.7 10 27.2 24.8 47 57.4 55.9z" id="prefix__path1407"/></g><g id="prefix__g1415"><path class="prefix__st0" d="M1131.7 1580.2c-6.3 3.3-12.9 5.9-19.9 7.6-2.8.7-5.7 1.2-8.6 1.6-3.6.5-7.2.9-10.9 1h-.6c-3.8.2-7.7.2-11.6.1-20.4-.5-41.7-4-62-4.3h-3c-12.1 0-23.8 1.3-34.7 5.2-35 12.5-58.4 50.3-88.3 74.5-25.3 20.5-55.7 30.9-88.5 31-2.2 0-4.5-.1-6.7-.1-5.9-.2-11.8-.8-17.8-1.6-8.3-1.2-16.7-3-25.2-5.4-3.3-.9-6.6-2-9.9-3.1-4.4-1.5-8.8-3.1-13.3-5-2.5-1-4.9-2.1-7.4-3.2-.2-.1-.5-.2-.8-.3-1.9-.9-3.9-1.8-5.9-2.8-.5-.2-.9-.4-1.3-.6-.4-.2-.9-.4-1.3-.7-1.1-.5-2.3-1.2-3.4-1.7L649.7 1508l454.9-169.2 71.7 192.6c-11 22.3-26.3 38.9-44.6 48.8z" id="prefix__path1411"/><path class="prefix__st1" d="M757.6 1677c32 10.7 55.4 2.6 78.8-14.4 19.4-14 27.3-53.7 53.7-52.6 11.1.5 23.6 9 34.2 7.7 9.9-1.3 16.6-10.8 23.6-18.7 20.5-22.7 47.5-33.1 77.7-30 18.4 2 37.7 9 55.8 9.2 16 .2 30.6-4.9 43.9-12.6 12.1-7 25.9-15 34-28.9 3.9-6.8 7.9-14 10.8-21.8l-28.7-76.5c-147.2 3.1-284.6 49.6-401.7 136.2-9.9 7.3-13.7 13.8-24.7 18.6l-17.8 7.8z" id="prefix__path1413"/></g><g id="prefix__g1421"><path class="prefix__st0" d="M1220.2 1555.7l-125.3-162.9 384.7-295.9 106.8 138.9c-.1 1.3-.2 2.6-.3 3.8 0 .5-.1 1-.1 1.5s-.1 1-.1 1.5c-.2 2.2-.5 4.3-.7 6.5 0 .3-.1.6-.1.8-.3 2.7-.8 5.3-1.2 7.9-.8 4.8-1.7 9.4-2.8 13.9-.8 3.4-1.6 6.8-2.6 10.1-2.4 8.5-5.3 16.6-8.8 24.2-2.4 5.5-5.1 10.8-8 16-1.1 2-2.3 3.9-3.5 5.8-17.5 27.7-42.4 48-73.2 58.6-36.4 12.5-80.9 12.2-110 35.3-9.1 7.2-16.4 16.5-22.8 26.7-.5.8-1.1 1.7-1.6 2.6-10.5 17.4-18.8 37.3-29.2 54.8-2 3.4-4 6.6-6.2 9.7l-.3.5c-2.1 3-4.3 5.9-6.6 8.7-1.9 2.2-3.9 4.4-5.9 6.4-5.1 5-10.8 9.3-17 12.8-18.3 10.2-40.5 14.3-65.2 11.8z" id="prefix__path1417"/><path class="prefix__st1" d="M1533.2 1186.4l-16.1 11c-9.9 6.8-17.4 6.5-28.9 11-135.5 53.4-247.8 145.2-328.5 268.4l49.6 65c8.2 1.7 16.4 2.2 24.2 2.4 16.1.5 30.1-7 42.5-13.5 13.6-7.2 25.6-16.9 33.9-30.5 9.4-15.4 13.7-35.5 21.8-52.2 13.4-27.2 36.5-44.6 66.7-49.9 10.4-1.8 22-2.4 28.4-10.1 6.8-8.3 6.2-23.4 11.6-33.1 13.1-22.9 51-8.6 73.1-17.6 26.8-10.9 46.1-26.4 54-59.2z" id="prefix__path1419"/></g><g id="prefix__g1427"><path class="prefix__st0" d="M1633.1 853.8L1440 924.3l-166.5-455.9 164.6-60.1c1.2.5 2.4 1 3.5 1.5.5.2.9.4 1.4.6.5.2.9.4 1.4.6 2 .9 4 1.7 5.9 2.7.3.1.5.2.8.4 2.5 1.1 4.9 2.3 7.2 3.5 4.3 2.2 8.4 4.5 12.4 6.8 3 1.8 6 3.6 8.8 5.5 7.3 4.9 14.2 10.1 20.5 15.6 4.6 4 8.8 8.1 12.8 12.5 1.5 1.7 3 3.3 4.5 5 21.2 25 33 54.9 33.8 87.4.9 38.5-12.6 80.8.6 115.5 4.1 10.9 10.8 20.6 18.6 29.8.6.8 1.3 1.5 2 2.3 13.4 15.3 29.9 29.1 43.5 44.4 2.6 2.9 5.1 5.8 7.4 8.9l.4.5c2.2 2.9 4.3 5.9 6.3 8.9 1.6 2.5 3 5 4.3 7.6 3.2 6.4 5.6 13.1 7.1 20 4.3 20.4 1.6 42.7-8.2 65.5z" id="prefix__path1423"/><path class="prefix__st1" d="M1375 444.3l5.7 18.6c3.5 11.5 1 18.6 1.8 30.8 10.2 145.2 63.9 280 157.1 394l76.9-27.8c4.1-7.3 7-15 9.6-22.4 5.3-15.2 2.4-30.8-.1-44.6-2.8-15.1-8.4-29.5-18.9-41.6-11.9-13.6-29.8-23.7-43.2-36.5-21.9-21-31.6-48.3-27.6-78.6 1.4-10.5 4.4-21.7-1.1-30.1-5.9-8.9-20.5-12.9-28-21-17.9-19.4 7.1-51.2 5.2-75-2.3-28.8-11.3-51.9-40.2-69.3z" id="prefix__path1425"/></g><g id="prefix__g1433"><path class="prefix__st0" d="M1456.8 1049.1l-96.6-79.6 187.9-228.1 82.4 67.9c.1.8.2 1.6.3 2.3.1.3.1.6.1.9.1.3.1.6.1.9.2 1.3.3 2.6.4 3.9v.5c.2 1.6.3 3.3.4 4.9.2 2.9.3 5.8.2 8.6 0 2.1-.1 4.2-.2 6.3-.3 5.3-.9 10.6-1.9 15.6-.7 3.6-1.6 7.1-2.6 10.6-.4 1.3-.8 2.6-1.3 3.9-6.6 18.8-18.6 34.3-35.5 44.8-19.9 12.4-46.3 18.3-60.5 36-4.4 5.5-7.5 12-9.9 19-.2.6-.4 1.1-.6 1.7-3.9 11.7-6.1 24.7-9.9 36.5-.7 2.3-1.5 4.5-2.4 6.6l-.1.3c-.8 2.1-1.7 4.1-2.8 6-.8 1.6-1.7 3.1-2.6 4.6-2.3 3.7-5.1 7-8.3 9.9-9 8.6-21.6 14.1-36.6 16z" id="prefix__path1429"/><path class="prefix__st1" d="M1592.1 787.1l-8 8.7c-5 5.4-9.5 6.2-15.6 10.5-73.1 50.2-127.3 120-158.3 204.1l38.3 31.8c5.1-.1 10-.9 14.7-1.9 9.6-1.9 16.9-8.2 23.4-13.8 7.1-6.1 12.9-13.5 16-22.8 3.4-10.4 3.3-23 5.8-34 4.2-18 15.6-31.5 32.7-38.7 5.9-2.5 12.7-4.4 15.5-9.9 2.9-5.8.5-14.7 2.4-21.2 4.6-15.4 29.1-12.1 41-20.4 14.4-10.1 23.8-22 23.9-42.5z" id="prefix__path1431"/></g><g id="prefix__g1439"><path class="prefix__st0" d="M1472.8 838.6c3.6 6.2 6.3 12.7 8.2 19.6.8 2.8 1.4 5.6 1.9 8.5.6 3.6 1.1 7.2 1.4 10.8l.1.6c.3 3.8.5 7.7.5 11.5.2 20.4-2.6 41.8-2.2 62.1 0 1 0 2 .1 3 .4 12.1 2.1 23.7 6.4 34.5 13.6 34.6 52.2 56.7 77.5 85.7 21.3 24.6 32.7 54.6 34 87.4.1 2.2.1 4.5.1 6.7 0 5.9-.4 11.8-1 17.8-.9 8.3-2.4 16.8-4.6 25.3-.8 3.3-1.7 6.7-2.8 10-1.4 4.5-2.8 8.9-4.6 13.4-.9 2.5-1.9 5-2.9 7.5-.1.3-.2.5-.3.8-.8 2-1.7 4-2.6 6-.2.5-.4.9-.6 1.3-.2.5-.4.9-.6 1.4-.5 1.1-1.1 2.3-1.6 3.5l-162.1 66.6-184.4-448.9 190.1-78.1c22.4 10.4 39.5 25 50 43z" id="prefix__path1435"/><path class="prefix__st1" d="M1582.2 1209.2c9.6-32.3.8-55.4-17-78.3-14.6-18.9-54.6-25.5-54.4-51.9.1-11.1 8.2-23.9 6.5-34.4-1.6-9.9-11.4-16.2-19.5-23-23.4-19.7-34.7-46.3-32.6-76.6 1.3-18.5 7.7-38 7.3-56.1-.3-16-5.9-30.4-14.1-43.4-7.4-11.9-15.8-25.4-30-33-6.9-3.7-14.3-7.4-22.2-10l-75.5 31.3c8 147 59.2 282.8 149.6 396.9 7.6 9.7 14.2 13.2 19.4 24l8.4 17.6z" id="prefix__path1437"/></g></g><g id="prefix__g1900"><path d="M955.1 1597.6c-352.1-.4-637.2-286.3-636.8-638.4.4-352.1 286.3-637.2 638.4-636.8 352.1.4 637.2 286.3 636.8 638.4-.3 256-153.7 486.9-389.5 586.5-78.7 33.3-163.4 50.4-248.9 50.3z" id="prefix__path1442" fill="#68c382"/><path d="M963 1594.4c-345-.4-624.4-281.8-624-628.3.4-346.5 280.5-627.1 625.6-626.7 345.1.4 624.4 281.8 624 628.3-.3 251.9-150.6 479.2-381.7 577.2-77.1 32.8-160.1 49.6-243.9 49.5z" id="prefix__path1444" fill="#9ac97f"/><g id="prefix__g1486"><path class="prefix__st5" d="M1407.3 503.6c-1-1.9-2.1-3.6-3.4-5.3-1.2-1.6-2.7-3.4-4.6-6.3-.9-1.3-1.5-2.4-1.4-3.7.2-1 .6-2 1.4-2.7 5.2-5.5 21.7-9.6 21.7-9.6 1.9-.5 11.3-2.8 20.9-2.9 1.9 0 5.6 0 8.2 2.4 1.2 1 1.9 2.4 2.2 4 .4 2.3-.7 4.2-1.4 5.4-3.4 5.7-8 10.3-9.5 11.8-5 4.9-4.9 4.9-9.8 9.7-3.7 3.5-7.2 7-12.1 8.4-1.4.5-2.9.5-4.3.2-2.5-.7-4-2.7-4.8-3.9-1.8-2.8-1.1-3.7-3.1-7.5z" id="prefix__path1448"/><path class="prefix__st6" d="M1403.2 509.7c2.3-1.6 4.5-3.7 6.9-5 2.5-2.2 7.6-5.7 18.4-11.8 4.1-2.1 5.8-2.7 9.4-5.1 4.1-2.7 7.4-5.7 7.3-5.9-.1-.2-2.3 1.6-6 3.9-3.5 2.2-6.3 3.5-10.4 5.5-1 .5-5.1 2.5-11.2 5.1-8.3 3.6-17.2 7.1-24.3 12.8-.6.5-1.2 1-1.4 1.8-.3.9.2 1.9.6 2.8.3.6.7 1.4 1.5 1.5.5.1 1.1-.2 1.6-.6 2.5-1.6 5.1-3.3 7.6-5z" id="prefix__path1450"/><path class="prefix__st6" d="M1425.9 493.3c.1 0 .1 0 .2-.1.6-.9 1.1-1.9 1.6-2.9.9-1.7 1.7-3.3 2.3-4.8 0-.1.1-.1.2-.1.4 0 1-.2 1.6-.3 3.6-.9 6.1-2.8 6.1-2.9-.1-.1-2.1.9-5.6 2-.8.2-1.5.5-1.6.2-.2-.4 1.3-1.7 1.5-1.9.6-.5 1.3-1 2.1-1.4.1-.1.2-.2.1-.3 0-.1-.2-.2-.3-.2-.9.2-1.8.7-2.5 1.2-1.1.9-1.6 2-2.8 4.2-1.1 2.1-1.1 2.6-1.9 4.1-.6 1.1-1.3 2.1-2.1 3-.1.1-.1.3 0 .4 0 .1.2.1.2.1z" id="prefix__path1452"/><path class="prefix__st6" d="M1437.3 487.4c1 .3 2 .5 3.1.6 2.5.2 4.4-.4 4.4-.3 0 .1-1.3.7-2.9.9-1.8.3-3.6.2-5.4-.4z" id="prefix__path1454"/><path class="prefix__st6" d="M1410.8 502.4c.1 0 .1-.1.2-.1.7-1.2 1.2-2.4 1.6-3.7.4-1.4.5-2.7.7-5.3.3-2.8.1-3.3.6-4.3.5-1.1 1.2-1.8 2.4-2.9 1-.9 2.2-1.9 3.5-3 .1-.1.1-.3 0-.4-.1-.1-.2-.1-.3 0-2 1.2-3.8 2.7-5.4 4.4-.1.1-.3.1-.4 0 0-.1-.1-.1-.1-.2 0-.3.1-.6.1-.9 0-.3.1-.7.1-1.1 0-.1-.1-.3-.2-.3s-.2.1-.2.1c-.2.4-.3.7-.4 1.1-.4 1.3-.6 2.7-.5 4 0 .1-.1.3-.2.3s-.2-.1-.2-.1c-.5-.9-1.2-1.7-2.1-2.2-.7-.3-1.3-.8-1.8-1.3-.1-.1-.2-.1-.4 0-.1.1-.1.2 0 .3.1.1.2.3.2.4.6.9 1.3 1.2 1.9 1.7 1.2 1 2 2.2 2.5 3.6v.1c.1 3.3-.7 6.7-2.5 9.5-.1.1 0 .3.1.3h.2z" id="prefix__path1456"/><path class="prefix__st6" d="M1418.3 497.8h.2c.6.1 1.2.1 1.8.2.6 0 1.1.1 1.7.1h.1c4.3-2.4 6.5-3.5 6.6-3.4.1.1-1.6 1.2-5 3.3-.1.1-.2.2-.1.3 0 .1.1.1.1.1 1 .2 1.6.8 2.3 1 1.1.4 1.7.7 3 .8 1 0 1.8.1 1.8.2s-1.1.1-2 .1c-1.7-.1-3.4-.5-5.1-1.1-1.4-.5-3.5-.8-6.6-.1-.1 0-.3 0-.3-.2 0-.1 0-.2.1-.3z" id="prefix__path1458"/><path class="prefix__st7" d="M1414.2 484.8s.1-1.6 1.6-1.4c0 .7-.6 1.3-1.3 1.4h-.3z" id="prefix__path1460"/><path class="prefix__st7" d="M1413.4 484.4s-1.4-1.5.1-2.7c0 0 1.4 1.3-.1 2.7z" id="prefix__path1462"/><path class="prefix__st7" d="M1413 484.8s-1.5 1.5-2.7 0c0-.1 1.2-1.5 2.7 0z" id="prefix__path1464"/><path class="prefix__st7" d="M1428.5 485.6s-1.1-1.2 0-2.1c.6.5.6 1.3.2 1.9l-.2.2z" id="prefix__path1466"/><path class="prefix__st7" d="M1427.6 486s-2.1 0-1.9-1.9c0 0 1.9-.2 1.9 1.9z" id="prefix__path1468"/><path class="prefix__st7" d="M1427.7 486.5s.1 2.1-1.8 2c-.1 0-.3-1.9 1.8-2z" id="prefix__path1470"/><path class="prefix__st7" d="M1445.8 482.4s1.1-1.2 2.1-.1c0 0-.9 1.2-2.1.1z" id="prefix__path1472"/><path class="prefix__st7" d="M1445.5 481.6s-.1-2.1 1.8-2c-.1 0 .2 1.8-1.8 2z" id="prefix__path1474"/><path class="prefix__st7" d="M1444.9 481.6s-2.1.2-2-1.7c0 0 1.8-.4 2 1.7z" id="prefix__path1476"/><path class="prefix__st7" d="M1437.2 489.4s-.2 1.6 1.3 1.6c.2-.7-.3-1.4-1-1.6h-.3z" id="prefix__path1478"/><path class="prefix__st7" d="M1436.3 489.6s-1.6 1.3-.4 2.6c.1.1 1.7-.9.4-2.6z" id="prefix__path1480"/><path class="prefix__st7" d="M1430.5 499.7s1.2 1 2-.2c-.5-.5-1.3-.6-1.9-.1 0 .2-.1.3-.1.3z" id="prefix__path1482"/><path class="prefix__st7" d="M1430.2 500.6s.1 2.1 2 1.8c0 0 .1-1.9-2-1.8z" id="prefix__path1484"/></g><g id="prefix__g1526"><path class="prefix__st5" d="M1432.6 545.6c-.6-1.1-1.2-2.1-2-3.1-.7-.9-1.6-2-2.7-3.7-.5-.8-.9-1.4-.8-2.2.1-.6.4-1.2.8-1.6 3.1-3.2 12.6-5.6 12.6-5.6 1.1-.3 6.6-1.6 12.2-1.7 1.1 0 3.3 0 4.8 1.4.7.6 1.1 1.4 1.3 2.3.2 1.3-.4 2.5-.8 3.1-2 3.4-4.7 6-5.6 6.9l-5.7 5.7c-2.1 2.1-4.2 4.1-7 4.9-.8.3-1.7.3-2.5.1-1.5-.4-2.3-1.6-2.8-2.3-1.1-1.5-.7-2-1.8-4.2z" id="prefix__path1488"/><path class="prefix__st6" d="M1430.2 549.1c1.4-.9 2.6-2.1 4-2.9 1.5-1.3 4.4-3.3 10.8-6.9 2.4-1.2 3.4-1.5 5.5-3 2.4-1.6 4.3-3.3 4.2-3.4-.1-.1-1.3.9-3.5 2.3-2.1 1.3-3.7 2.1-6.1 3.2-.6.3-3 1.5-6.5 3-4.8 2.1-10 4.1-14.2 7.5-.3.3-.7.6-.8 1.1-.2.5.1 1.1.4 1.6.2.4.4.8.9.9.3 0 .6-.1.9-.3 1.4-1.1 2.9-2.1 4.4-3.1z" id="prefix__path1490"/><path class="prefix__st6" d="M1443.4 539.6s.1-.1 0 0c.4-.6.7-1.2 1-1.7.5-1 1-1.9 1.3-2.8l.1-.1c.3 0 .6-.1.9-.2 2.1-.5 3.6-1.6 3.5-1.7 0-.1-1.2.5-3.3 1.2-.5.1-.9.3-1 .1-.1-.2.7-1 .9-1.1.4-.3.8-.6 1.2-.8.1 0 .1-.1.1-.2s-.1-.1-.2-.1c-.5.1-1.1.4-1.5.7-.6.5-1 1.2-1.6 2.5-.6 1.2-.6 1.5-1.1 2.4-.3.6-.8 1.2-1.2 1.7-.1.1-.1.2 0 .2h.1z" id="prefix__path1492"/><path class="prefix__st6" d="M1450.1 536.1c.6.2 1.2.3 1.8.3 1.5.1 2.6-.3 2.6-.2 0 .1-.7.4-1.7.5-1 .2-2.1.1-3.1-.2z" id="prefix__path1494"/><path class="prefix__st6" d="M1434.6 544.9s.1 0 .1-.1c.4-.7.7-1.4.9-2.2.2-.8.3-1.6.4-3.1.1-1.7.1-1.9.3-2.5.3-.7.7-1 1.4-1.7.6-.5 1.3-1.1 2-1.8.1-.1.1-.2 0-.2 0-.1-.1 0-.2 0-1.2.7-2.2 1.6-3.2 2.6-.1.1-.2.1-.2 0 0 0-.1-.1 0-.1v-.5c0-.2 0-.4.1-.6 0-.1-.1-.2-.1-.1-.1 0-.1 0-.1.1-.1.2-.2.4-.2.6-.2.8-.3 1.5-.3 2.4 0 .1-.1.2-.1.2s-.1 0-.1-.1c-.3-.5-.7-1-1.2-1.3-.4-.2-.7-.5-1.1-.8-.1-.1-.1-.1-.2 0s-.1.1 0 .2c0 .1.1.2.1.2.4.5.7.7 1.1 1 .7.6 1.1 1.3 1.4 2.1.1 2-.4 3.9-1.5 5.6v.2h.1z" id="prefix__path1496"/><path class="prefix__st6" d="M1439 542.2c0-.1 0-.1 0 0 .4 0 .8.1 1.2.1.3 0 .6 0 1 .1h.1c2.5-1.4 3.8-2 3.8-2s-.9.7-2.9 1.9c-.1.1-.1.1 0 .2 0 0 0 .1.1.1.6.1 1 .4 1.3.6.6.2 1 .4 1.8.5.6 0 1.1.1 1.1.1s-.7.1-1.2.1c-1 0-2-.3-3-.6-.8-.3-2-.5-3.8 0-.1 0-.2 0-.2-.1 0 0 0-.1.1-.2z" id="prefix__path1498"/><path class="prefix__st7" d="M1436.6 534.6s0-.9.9-.8c0 .4-.3.8-.7.8h-.2z" id="prefix__path1500"/><path class="prefix__st7" d="M1436.1 534.3s-.8-.9.1-1.6c0 .1.8.8-.1 1.6z" id="prefix__path1502"/><path class="prefix__st7" d="M1435.9 534.6s-.9.9-1.6 0c0-.1.8-.9 1.6 0z" id="prefix__path1504"/><path class="prefix__st7" d="M1444.9 535.1s-.7-.7 0-1.2c.3.3.4.8.1 1.1l-.1.1z" id="prefix__path1506"/><path class="prefix__st7" d="M1444.4 535.3s-1.2 0-1.1-1.1c0 0 1.1-.1 1.1 1.1z" id="prefix__path1508"/><path class="prefix__st7" d="M1444.5 535.6s0 1.2-1.1 1.1c0 0-.2-1 1.1-1.1z" id="prefix__path1510"/><path class="prefix__st7" d="M1455.1 533.2s.6-.7 1.2 0c0-.1-.6.6-1.2 0z" id="prefix__path1512"/><path class="prefix__st7" d="M1454.8 532.7s-.1-1.2 1-1.2c.1.1.2 1.1-1 1.2z" id="prefix__path1514"/><path class="prefix__st7" d="M1454.5 532.7s-1.2.1-1.2-1c0 0 1.1-.2 1.2 1z" id="prefix__path1516"/><path class="prefix__st7" d="M1450 537.3s-.1.9.7.9c.1-.4-.2-.8-.6-.9h-.1z" id="prefix__path1518"/><path class="prefix__st7" d="M1449.5 537.4s-1 .7-.2 1.5c0 .1.9-.5.2-1.5z" id="prefix__path1520"/><path class="prefix__st7" d="M1446.1 543.3s.7.6 1.2-.1c-.3-.3-.8-.3-1.1 0l-.1.1z" id="prefix__path1522"/><path class="prefix__st7" d="M1445.9 543.8s.1 1.2 1.2 1c0 .1.1-1-1.2-1z" id="prefix__path1524"/></g><g id="prefix__g1566"><path class="prefix__st5" d="M467.6 614.4c-.8 1.6-1.4 3.2-1.9 4.9-.5 1.6-1 3.5-2.1 6.3-.5 1.2-.9 2.2-1.9 2.8-.8.4-1.7.6-2.6.4-6.4-.9-17.3-10.1-17.3-10.1-1.3-1.1-7.5-6.4-12.3-12.9-1-1.3-2.8-3.8-2.4-6.8.1-1.3.7-2.5 1.6-3.5 1.4-1.4 3.2-1.6 4.4-1.7 5.6-.5 11.1.4 12.8.7 5.9 1 5.8.9 11.5 1.9 4.2.8 8.4 1.5 11.7 4.1 1 .7 1.8 1.7 2.2 2.9.8 2.1.1 4-.3 5.2-.8 2.6-1.8 2.5-3.4 5.8z" id="prefix__path1528"/><path class="prefix__st6" d="M473.8 614.2c-2.2-.8-4.7-1.3-6.9-2.2-2.7-.7-7.6-2.4-17.2-6.8-3.5-1.7-4.7-2.7-8.1-3.9-3.9-1.5-7.6-2.3-7.6-2.1 0 .2 2.2.8 5.6 2.2 3.2 1.4 5.5 2.6 9 4.4.8.5 4.2 2.3 9 5.2 6.6 3.9 13.3 8.3 20.8 10.3.6.2 1.3.3 1.9.1.8-.3 1.2-1.1 1.6-1.8.3-.5.6-1.2.3-1.7-.2-.4-.7-.6-1.1-.8-2.4-1.1-4.8-2-7.3-2.9z" id="prefix__path1530"/><path class="prefix__st6" d="M451.4 606.7s-.1-.1-.2 0c-.9.1-1.8.2-2.8.3-1.6.2-3.1.5-4.4.8-.1 0-.1 0-.2-.1-.3-.3-.6-.6-1-.9-2.4-2.1-4.9-2.8-5-2.7 0 .1 1.6 1 4.1 2.8.6.4 1.1.8 1 1-.1.4-1.8 0-2-.1-.7-.2-1.3-.4-2-.7-.1-.1-.2 0-.3.1-.1.1 0 .2 0 .3.6.5 1.3.9 2.1 1.1 1.1.3 2.2.1 4.3-.2 2-.3 2.3-.6 3.8-.7 1-.1 2.1-.1 3.1 0 .1 0 .2-.1.2-.2s0-.1-.1-.2z" id="prefix__path1532"/><path class="prefix__st6" d="M441.6 601.8c-.3-.8-.6-1.7-1.1-2.4-1.1-1.8-2.5-2.8-2.4-2.9.1-.1 1.1.5 2 1.5 1.1 1.1 1.9 2.4 2.4 3.9z" id="prefix__path1534"/><path class="prefix__st6" d="M465.1 612.6c-.1 0-.1-.1-.2-.1-1.1.1-2.3.4-3.3.7-1.1.4-2.1 1-4 2.1-2.1 1.2-2.3 1.6-3.2 1.7-1 .2-1.8.1-3.2-.3-1.1-.2-2.4-.5-3.8-.9-.1 0-.2.1-.3.2 0 .1 0 .2.1.2 1.8.8 3.7 1.3 5.7 1.5.1 0 .2.1.2.3 0 .1 0 .1-.1.1-.2.1-.4.2-.6.4-.2.1-.5.3-.8.4-.1.1-.1.2-.1.3 0 .1.1.1.2.1.3-.1.6-.1.9-.3 1.1-.4 2.1-.9 3-1.7.1-.1.2-.1.3 0 .1 0 .1.2 0 .2-.4.8-.6 1.7-.5 2.6.1.6.1 1.3 0 1.9 0 .1 0 .2.2.3.1 0 .2 0 .2-.1.1-.1.1-.2.1-.4.3-.9.2-1.5.3-2.2.1-1.3.5-2.4 1.3-3.5v-.1c2.3-1.7 5-2.8 7.8-3 .1 0 .2-.1.2-.2 0 0 0-.1-.1-.1z" id="prefix__path1536"/><path class="prefix__st6" d="M458.2 609.7c-.1 0-.1-.1-.1-.1-.2-.4-.5-.9-.8-1.3-.3-.4-.5-.8-.8-1.2 0 0-.1 0-.1-.1-3.8-1.8-5.6-2.7-5.6-2.8 0-.1 1.6.5 4.8 1.8.1 0 .2 0 .3-.1v-.2c-.3-.8-.3-1.5-.5-2-.3-.9-.4-1.5-.9-2.5-.4-.7-.8-1.3-.8-1.3s.7.7 1.1 1.3c.8 1.2 1.4 2.6 1.7 4 .3 1.2 1.2 2.8 3.2 4.5.1.1.1.2 0 .3 0 .1-.1.1-.2.1z" id="prefix__path1538"/><path class="prefix__st7" d="M451.3 619s-1.1.7-1.7-.4c.5-.4 1.2-.3 1.6.2 0 0 0 .1.1.2z" id="prefix__path1540"/><path class="prefix__st7" d="M451.4 619.7s-.4 1.7-1.9 1.2c0 0 .2-1.5 1.9-1.2z" id="prefix__path1542"/><path class="prefix__st7" d="M451.8 619.8s1.7.3 1.3 1.9c0 0-1.5-.2-1.3-1.9z" id="prefix__path1544"/><path class="prefix__st7" d="M444.8 608.8s-.2 1.3-1.4 1c.1-.6.6-1.1 1.2-1.1 0 0 .1 0 .2.1z" id="prefix__path1546"/><path class="prefix__st7" d="M445.5 609.2s1.1 1.4-.3 2.2c-.1 0-1.2-1.2.3-2.2z" id="prefix__path1548"/><path class="prefix__st7" d="M445.8 608.9s1.4-1.1 2.3.3c0-.1-1.2 1-2.3-.3z" id="prefix__path1550"/><path class="prefix__st7" d="M434 598.4s-1.3-.2-1.1-1.4c0 .1 1.3.1 1.1 1.4z" id="prefix__path1552"/><path class="prefix__st7" d="M433.6 599.1s-1.4 1.1-2.2-.2c0 0 1.1-1.2 2.2.2z" id="prefix__path1554"/><path class="prefix__st7" d="M433.9 599.5s1.1 1.3-.2 2.2c0 0-1.1-1.1.2-2.2z" id="prefix__path1556"/><path class="prefix__st7" d="M443.1 600.9s1.2-.7.5-1.7c-.6.2-.8.9-.6 1.5 0 .1 0 .1.1.2z" id="prefix__path1558"/><path class="prefix__st7" d="M443.6 601.4s1.7.5 2-1.1c.1 0-1.4-.6-2 1.1z" id="prefix__path1560"/><path class="prefix__st7" d="M453.5 600.4s.1-1.4-1.1-1.3c-.1.6.3 1.2.9 1.3h.2z" id="prefix__path1562"/><path class="prefix__st7" d="M454.2 600.2s1.4-1.1.2-2.2c.1-.1-1.3.8-.2 2.2z" id="prefix__path1564"/></g><g id="prefix__g1604"><path d="M439.6 497.2c-18.6-10.7-45.4-9.2-50.7-1.2-5.3 8 4.1 33.2 21.3 46 19.6 14.5 35 10 43.8-3.4 8.8-13.4 6.8-29.3-14.4-41.4z" id="prefix__path1568" fill="#f4957f"/><path class="prefix__st9" d="M392.8 525.1c-1.6-1-2-3.2-2-3.2s2.2-.7 3.7.3c1.6 1 2 3.2 2 3.2s-2.2.7-3.7-.3z" id="prefix__path1570"/><path class="prefix__st10" d="M430.9 511.6c-.6-1.8.4-3.7.4-3.7s2.1.9 2.7 2.6c.6 1.8-.4 3.7-.4 3.7s-2.1-.8-2.7-2.6z" id="prefix__path1572"/><path class="prefix__st10" d="M396.8 508.9c1.8.5 2.9 2.4 2.9 2.4s-1.8 1.2-3.7.8c-1.9-.4-2.9-2.4-2.9-2.4s1.9-1.3 3.7-.8z" id="prefix__path1574"/><path class="prefix__st10" d="M403 494.3c1.2 1.4 1.1 3.6 1.1 3.6s-2.2 0-3.5-1.4c-1.3-1.4-1.1-3.6-1.1-3.6s2.3 0 3.5 1.4z" id="prefix__path1576"/><path class="prefix__st10" d="M437.2 511.3c1.7-.8 3.7-.1 3.7-.1s-.6 2.2-2.2 3c-1.6.8-3.7.1-3.7.1s.6-2.2 2.2-3z" id="prefix__path1578"/><path class="prefix__st10" d="M432.1 531c1 1.6.4 3.7.4 3.7s-2.2-.3-3.2-1.9c-1-1.6-.4-3.7-.4-3.7s2.2.3 3.2 1.9z" id="prefix__path1580"/><path class="prefix__st10" d="M417.3 497.6c1.8-.3 3.6 1.2 3.6 1.2s-1.2 1.9-3.1 2.2c-1.9.3-3.6-1.2-3.6-1.2s1.3-1.9 3.1-2.2z" id="prefix__path1582"/><path class="prefix__st9" d="M410.4 525.5c1 1.6.4 3.7.4 3.7s-2.2-.3-3.2-1.9c-1-1.6-.4-3.7-.4-3.7s2.2.4 3.2 1.9z" id="prefix__path1584"/><path class="prefix__st9" d="M450.5 516.3c1.8.2 3.2 2 3.2 2s-1.7 1.5-3.5 1.4c-1.8-.1-3.2-2-3.2-2s1.7-1.6 3.5-1.4z" id="prefix__path1586"/><path class="prefix__st10" d="M432.7 544.2c1.8.2 3.2 2 3.2 2s-1.7 1.5-3.5 1.4c-1.8-.1-3.2-2-3.2-2s1.7-1.5 3.5-1.4z" id="prefix__path1588"/><path class="prefix__st9" d="M443.1 499.4c-1.6 1-3.8.2-3.8.2s.5-2.2 2.1-3.1c1.6-1 3.8-.2 3.8-.2s-.6 2.1-2.1 3.1z" id="prefix__path1590"/><path class="prefix__st9" d="M440.4 495.9c.7 1.7-.3 3.8-.3 3.8s-2.1-.7-2.8-2.4c-.7-1.7.3-3.8.3-3.8s2.2.7 2.8 2.4z" id="prefix__path1592"/><path class="prefix__st9" d="M415.3 547.9c-1.8 0-3.4-1.6-3.4-1.6s1.4-1.7 3.3-1.8c1.9-.1 3.4 1.6 3.4 1.6s-1.5 1.8-3.3 1.8z" id="prefix__path1594"/><path class="prefix__st9" d="M421.1 546.7c.7 1.8-.3 3.7-.3 3.7s-2.1-.8-2.8-2.5c-.7-1.7.3-3.7.3-3.7s2.1.9 2.8 2.5z" id="prefix__path1596"/><path class="prefix__st11" d="M435.7 526.7l.5-.1c.4 0 .7-.4.6-.9l-1.9-11.2c0-.4-.4-.7-.9-.6z" id="prefix__path1598"/><path class="prefix__st11" d="M447.3 533.9l.4 1.6-15.3 3.7c-.5.1-1.1-.2-1.2-.7z" id="prefix__path1600"/><path class="prefix__st11" d="M470.1 546.6l-2.5 3.7c-.1.3-.5.3-.8.2l-50.6-35.9c-.3-.2-.3-.5-.2-.8.2-.3.5-.3.8-.2l53.1 32.1c.3.2.4.5.2.9z" id="prefix__path1602"/></g><g id="prefix__g1656"><path class="prefix__st10" d="M968.3 189c.2-.1.4-.2.6-.2 1.5-.4 3.1-.2 4.3.7-.3-1.7-.1-3.6 1.1-4.9 1.1-1.3 3.2-1.8 4.7-.8 1.4.9 1.7 2.9 1.1 4.4.5-1.2 1.8-1.7 3-1.2s1.7 1.8 1.2 3c.5-.5 1.1-.9 1.8-1 .7 0 1.5.6 1.3 1.3 1.5-.8 3.4-.8 4.8.3 1.5 1 1.5 3.4-.6 3.6-.7 0-1.4-.1-2.1-.1-1.9-.1-3.6 1.1-5.4 1.6-4.5 1.4-9.5-.6-14.1.4-2.8.6-5.6 2.3-8.3 1.4-.7-.2-1.4-.7-1.6-1.3-.3-1.1.9-2.1 2-2.3.1-2.2 2.8-3.9 4.8-2.9 0-1 .6-1.7 1.4-2z" id="prefix__path1606"/><path class="prefix__st12" d="M959.5 254.6l.2 1.9c0 .3.3.5.6.5s.5-.3.5-.6l-.2-1.9c0-.3-.3-.5-.6-.5s-.5.3-.5.6z" id="prefix__path1608"/><path class="prefix__st12" d="M961.1 251.1l1 3.7c.1.3.4.5.7.3.3-.2.4-.5.3-.8l-1-3.7c-.1-.3-.5-.5-.7-.3-.3.2-.4.5-.3.8z" id="prefix__path1610"/><path class="prefix__st12" d="M964.7 253.2l.6 2.4c.1.2.2.3.3.3.3.1.6 0 .8-.3.1-.2 0-.3 0-.4l-.6-2.4c-.1-.2-.2-.3-.3-.3-.3-.1-.6 0-.8.3v.4z" id="prefix__path1612"/><path class="prefix__st12" d="M1002.6 215.6l.2 1.9c0 .3.3.5.6.5s.5-.3.5-.6l-.2-1.9c0-.3-.3-.5-.6-.5s-.6.3-.5.6z" id="prefix__path1614"/><path class="prefix__st12" d="M1004.1 212.1l1 3.7c.1.3.5.5.7.3.3-.2.4-.5.3-.8l-1-3.7c-.1-.3-.5-.4-.7-.3-.3.2-.4.5-.3.8z" id="prefix__path1616"/><path class="prefix__st12" d="M1007.7 214.2l.6 2.4c.1.3.5.4.7.3.2-.1.3-.2.3-.3.1-.2 0-.3 0-.4l-.6-2.4c-.1-.2-.2-.3-.3-.3-.2-.1-.3 0-.5 0-.2.1-.3.2-.3.3.1.1.1.2.1.4z" id="prefix__path1618"/><path class="prefix__st13" d="M1016.9 229.2c-1.4-27.1-21.3-54.6-33.4-54.7-12.1-.1-32.5 27-34.3 54.1-2.1 30.7 13.3 44 33.5 44.2 20.1.2 35.7-12.8 34.2-43.6z" id="prefix__path1620"/><path class="prefix__st10" d="M960.9 203.3c-.1-2.3 2-4.3 2-4.3s2.2 1.8 2.3 4.2c.1 2.4-2 4.3-2 4.3s-2.2-1.9-2.3-4.2z" id="prefix__path1622"/><path class="prefix__st10" d="M995.5 229.8c1.4-1.9 4.3-2.1 4.3-2.1s.5 2.8-.9 4.7c-1.4 1.9-4.3 2.1-4.3 2.1s-.5-2.9.9-4.7z" id="prefix__path1624"/><path class="prefix__st14" d="M975.2 191.7c.8 2.2-.6 4.7-.6 4.7s-2.6-1.1-3.4-3.3c-.8-2.2.6-4.7.6-4.7s2.6 1.1 3.4 3.3z" id="prefix__path1626"/><path class="prefix__st14" d="M994.9 188.3c-.6 2.3-3.1 3.6-3.1 3.6s-1.5-2.4-1-4.6c.5-2.2 3.1-3.6 3.1-3.6s1.6 2.4 1 4.6z" id="prefix__path1628"/><path class="prefix__st10" d="M1000.2 236.3c2 1.2 2.6 3.9 2.6 3.9s-2.7.9-4.7-.3-2.6-3.9-2.6-3.9 2.7-.8 4.7.3z" id="prefix__path1630"/><path class="prefix__st10" d="M975.8 244.3c-.9 2.1-3.6 3-3.6 3s-1.2-2.6-.2-4.7c.9-2.1 3.6-3 3.6-3s1.1 2.6.2 4.7z" id="prefix__path1632"/><path class="prefix__st14" d="M1001.1 205.8c1.5 1.7 1.2 4.6 1.2 4.6s-2.8 0-4.4-1.8c-1.6-1.8-1.2-4.6-1.2-4.6s2.9 0 4.4 1.8z" id="prefix__path1634"/><path class="prefix__st15" d="M966.7 217.5c-.9 2.1-3.6 3-3.6 3s-1.2-2.6-.2-4.7c.9-2.1 3.6-3 3.6-3s1.2 2.6.2 4.7z" id="prefix__path1636"/><path class="prefix__st14" d="M1004.1 253.9c1.1 2.1 0 4.7 0 4.7s-2.8-.7-3.8-2.8c-1.1-2.1 0-4.7 0-4.7s2.7.7 3.8 2.8z" id="prefix__path1638"/><path class="prefix__st10" d="M962.1 254c1.1 2.1 0 4.7 0 4.7s-2.8-.7-3.8-2.8c-1.1-2.1 0-4.7 0-4.7s2.8.7 3.8 2.8z" id="prefix__path1640"/><path class="prefix__st15" d="M1016.9 234.3c-2.1-1.1-2.8-3.8-2.8-3.8s2.7-1 4.8.1c2.1 1.1 2.8 3.8 2.8 3.8s-2.7 1-4.8-.1z" id="prefix__path1642"/><path class="prefix__st15" d="M1018.8 229.3c-1.3 1.9-4.2 2.3-4.2 2.3s-.7-2.7.7-4.7 4.2-2.3 4.2-2.3.6 2.7-.7 4.7z" id="prefix__path1644"/><path class="prefix__st15" d="M947.6 234c-1.3-1.9-.6-4.7-.6-4.7s2.8.4 4.1 2.3c1.3 2 .6 4.7.6 4.7s-2.8-.4-4.1-2.3z" id="prefix__path1646"/><path class="prefix__st16" d="M953.1 241.6c-1.4 1.9-4.2 2.2-4.2 2.2s-.6-2.8.8-4.7c1.4-1.9 4.2-2.2 4.2-2.2s.6 2.7-.8 4.7z" id="prefix__path1648"/><path class="prefix__st11" d="M982.9 245.2l.4.5c.4.4 1 .4 1.3.1l10.5-9.7c.4-.4.4-.9.1-1.3z" id="prefix__path1650"/><path class="prefix__st11" d="M983.2 262.5l-1.4 1.5-14.4-13.7c-.5-.5-.5-1.2-.1-1.8z" id="prefix__path1652"/><path class="prefix__st11" d="M986.3 331.6l-5.3-1.4c-.4 0-.8-.4-.8-1l2.2-112.9c0-.5.3-.9.7-.9.4 0 .8.4.8.9l3.5 113.1c0 .5.4 2 0 2z" id="prefix__path1654"/></g><g id="prefix__g1708"><path class="prefix__st10" d="M1615.5 653.7c.2.1.3.3.4.4.9 1.2 1.2 2.7.8 4.1 1.4-.9 3.2-1.3 4.8-.8 1.6.6 2.7 2.3 2.4 3.9-.4 1.5-2 2.5-3.5 2.6 1.2 0 2.1 1 2.1 2.2 0 1.2-1 2.1-2.2 2.1.6.3 1.2.7 1.5 1.3.3.6 0 1.5-.7 1.6 1.3 1.1 1.9 2.8 1.4 4.4-.4 1.7-2.5 2.5-3.4.7-.2-.6-.4-1.3-.6-2-.6-1.7-2.2-2.9-3.3-4.3-2.8-3.6-2.7-8.7-5.2-12.5-1.5-2.3-4-4.2-4.1-6.9-.1-.7.1-1.5.7-1.9.9-.6 2.2.1 2.8 1 2-.7 4.4 1.2 4.2 3.3.5-.1 1.3.2 1.9.8z" id="prefix__path1658"/><path class="prefix__st12" d="M1553.8 668.6l-1.6.8c-.3.1-.4.5-.2.8.1.3.5.4.8.2l1.6-.8c.3-.1.4-.5.2-.8-.2-.2-.6-.3-.8-.2z" id="prefix__path1660"/><path class="prefix__st12" d="M1557.4 668.8l-2.9 2.1c-.2.2-.3.6 0 .8.2.2.6.2.8 0l2.9-2.1c.2-.2.2-.6 0-.8-.2-.2-.6-.2-.8 0z" id="prefix__path1662"/><path class="prefix__st12" d="M1556.8 672.8l-2 1.4c-.1.1-.2.3-.2.4 0 .3.2.5.5.6.2 0 .3-.1.4-.1l2-1.4c.1-.1.2-.3.2-.4 0-.3-.2-.6-.5-.6-.1-.1-.3 0-.4.1z" id="prefix__path1664"/><path class="prefix__st12" d="M1603.6 693.5l-1.6.8c-.3.1-.4.5-.2.8.1.3.5.4.8.2l1.6-.8c.3-.1.4-.5.2-.8-.2-.3-.5-.3-.8-.2z" id="prefix__path1666"/><path class="prefix__st12" d="M1607.2 693.7l-2.9 2.1c-.2.2-.2.6 0 .8.2.2.6.2.8 0l2.9-2.1c.2-.2.2-.6 0-.8-.2-.2-.6-.2-.8 0z" id="prefix__path1668"/><path class="prefix__st12" d="M1606.6 697.7l-2 1.4c-.2.2-.2.6 0 .8.1.1.3.2.4.2.2 0 .3-.1.4-.1l2-1.4c.1-.1.2-.3.2-.4 0-.2-.1-.3-.2-.4-.1-.1-.3-.2-.4-.2-.1-.1-.3 0-.4.1z" id="prefix__path1670"/><path class="prefix__st13" d="M1596.3 711.1c23.8-10.6 41.4-38 37.3-48.8-4.1-10.9-35.4-19.7-60.3-11.9-28.2 8.8-34.7 27.1-27.8 45.3 6.9 18.2 23.8 27.4 50.8 15.4z" id="prefix__path1672"/><path class="prefix__st10" d="M1600.1 652.1c2.1-.9 4.6.3 4.6.3s-.9 2.6-2.9 3.5c-2.1.9-4.6-.3-4.6-.3s.9-2.7 2.9-3.5z" id="prefix__path1674"/><path class="prefix__st10" d="M1588.5 692.2c2.2.6 3.3 3.1 3.3 3.1s-2.3 1.4-4.5.8c-2.2-.6-3.3-3.1-3.3-3.1s2.3-1.5 4.5-.8z" id="prefix__path1676"/><path class="prefix__st14" d="M1615.4 660.8c-1.7 1.5-4.4 1.1-4.4 1.1s.1-2.7 1.8-4.2 4.4-1.1 4.4-1.1-.1 2.8-1.8 4.2z" id="prefix__path1678"/><path class="prefix__st14" d="M1625.3 677.3c-2.2.3-4.3-1.5-4.3-1.5s1.6-2.2 3.8-2.5c2.2-.3 4.3 1.5 4.3 1.5s-1.6 2.2-3.8 2.5z" id="prefix__path1680"/><path class="prefix__st10" d="M1584.3 698.6c-.3 2.2-2.6 3.7-2.6 3.7s-1.8-2.1-1.4-4.3c.3-2.2 2.6-3.7 2.6-3.7s1.7 2.1 1.4 4.3z" id="prefix__path1682"/><path class="prefix__st10" d="M1568.6 679.6c-2.2-.1-4-2.2-4-2.2s1.9-2 4.1-1.9c2.2.1 4 2.2 4 2.2s-1.8 2-4.1 1.9z" id="prefix__path1684"/><path class="prefix__st14" d="M1611.9 688.9c-1 2-3.7 2.7-3.7 2.7s-1-2.5 0-4.5 3.7-2.7 3.7-2.7 1 2.5 0 4.5z" id="prefix__path1686"/><path class="prefix__st15" d="M1589.4 662.2c-2.2-.1-4-2.2-4-2.2s1.9-2 4.1-1.9c2.2.1 4 2.2 4 2.2s-1.9 2-4.1 1.9z" id="prefix__path1688"/><path class="prefix__st14" d="M1569.9 708.2c-1.5 1.7-4.2 1.7-4.2 1.7s-.3-2.7 1.2-4.4c1.5-1.7 4.2-1.7 4.2-1.7s.3 2.7-1.2 4.4z" id="prefix__path1690"/><path class="prefix__st10" d="M1555.2 670.7c-1.5 1.7-4.2 1.7-4.2 1.7s-.3-2.7 1.2-4.4c1.5-1.7 4.2-1.7 4.2-1.7s.3 2.8-1.2 4.4z" id="prefix__path1692"/><path class="prefix__st15" d="M1591.8 712.8c.2-2.2 2.4-3.8 2.4-3.8s1.8 2 1.6 4.3c-.2 2.3-2.4 3.8-2.4 3.8s-1.9-2-1.6-4.3z" id="prefix__path1694"/><path class="prefix__st15" d="M1597 712.8c-2.2-.5-3.5-2.9-3.5-2.9s2.2-1.6 4.4-1c2.2.5 3.5 2.9 3.5 2.9s-2.2 1.5-4.4 1z" id="prefix__path1696"/><path class="prefix__st15" d="M1568.1 650.8c1.3-1.9 4-2.2 4-2.2s.6 2.7-.7 4.5c-1.3 1.8-4 2.2-4 2.2s-.6-2.6.7-4.5z" id="prefix__path1698"/><path class="prefix__st16" d="M1563.2 658.4c-2.2-.6-3.4-3-3.4-3s2.3-1.5 4.5-.9 3.4 3 3.4 3-2.3 1.4-4.5.9z" id="prefix__path1700"/><path class="prefix__st11" d="M1570.3 686.2l-.3.5c-.2.5-.1 1 .4 1.2l12.3 6c.5.2 1 0 1.2-.4z" id="prefix__path1702"/><path class="prefix__st11" d="M1554.9 692.5l-1.9-.7 7.3-17.6c.2-.6.9-.9 1.6-.7z" id="prefix__path1704"/><path class="prefix__st11" d="M1514.5 708.5l-1-5.1c-.2-.4 0-.8.4-.9l82.1-26.8c.4-.2.8.1.9.4.2.4 0 .8-.4.9l-80.2 31.9c-.4.2-1.3.9-1.4.5z" id="prefix__path1706"/></g><g id="prefix__g1760"><path class="prefix__st10" d="M537.8 1566.8c-.2-.1-.4-.1-.5-.2-1.3-.7-2.1-1.9-2.3-3.3-.9 1.3-2.3 2.4-3.9 2.5-1.6.1-3.3-1-3.6-2.5-.3-1.5.8-3 2.1-3.7-1.1.4-2.3-.1-2.7-1.2-.4-1.1.1-2.3 1.2-2.7-.7-.1-1.3-.1-1.8-.6-.5-.4-.6-1.3 0-1.7-1.5-.4-2.7-1.7-3-3.3-.3-1.6 1.3-3.2 2.8-2 .5.5.9 1 1.3 1.5 1.2 1.3 3.1 1.7 4.6 2.5 3.9 2.1 5.8 6.6 9.5 9 2.2 1.4 5.2 2.2 6.4 4.5.3.6.5 1.3.1 1.9-.5.9-2 .8-2.9.2-1.5 1.4-4.4.7-5-1.2-.7.5-1.6.6-2.3.3z" id="prefix__path1710"/><path class="prefix__st12" d="M586.7 1529.3l1.1-1.4c.2-.2.1-.6-.1-.8-.2-.2-.6-.1-.8.1l-1.1 1.4c-.2.2-.1.6.1.8.3.2.7.1.8-.1z" id="prefix__path1712"/><path class="prefix__st12" d="M583.4 1530.6l1.8-3c.1-.3 0-.6-.3-.7-.3-.1-.6 0-.7.3l-1.8 3c-.1.3 0 .6.3.7.3.1.6 0 .7-.3z" id="prefix__path1714"/><path class="prefix__st12" d="M582.4 1526.8l1.2-2c.1-.1 0-.3 0-.4-.1-.3-.4-.4-.7-.3l-.3.3-1.2 2c-.1.1 0 .3 0 .4.1.3.4.4.7.3.1 0 .2-.2.3-.3z" id="prefix__path1716"/><path class="prefix__st12" d="M532.7 1526.7l1.1-1.4c.2-.2.1-.6-.1-.8-.2-.2-.6-.1-.8.1l-1.1 1.4c-.2.2-.1.6.1.8.2.2.7.1.8-.1z" id="prefix__path1718"/><path class="prefix__st12" d="M529.5 1528l1.8-3c.1-.3 0-.6-.3-.7-.3-.1-.6 0-.7.3l-1.8 3c-.1.3 0 .6.3.7.2 0 .6-.1.7-.3z" id="prefix__path1720"/><path class="prefix__st12" d="M528.4 1524.2l1.2-2c.1-.3 0-.6-.3-.7-.1-.1-.3 0-.4 0l-.3.3-1.2 2c-.1.1 0 .3 0 .4l.3.3c.1.1.3 0 .4 0 .1-.1.3-.2.3-.3z" id="prefix__path1722"/><path class="prefix__st13" d="M532.3 1508.3c-16.9 18.7-21.9 49.9-14 58 7.9 8.1 39.2 3.6 58.2-13 21.6-18.9 20.2-37.7 7-51.1-13.2-13.5-31.9-15.2-51.2 6.1z" id="prefix__path1724"/><path class="prefix__st10" d="M552 1562.2c-1.5 1.6-4.2 1.5-4.2 1.5s-.2-2.6 1.3-4.2 4.2-1.5 4.2-1.5.2 2.6-1.3 4.2z" id="prefix__path1726"/><path class="prefix__st10" d="M546.7 1522c-2.2.3-4.2-1.4-4.2-1.4s1.5-2.2 3.7-2.5c2.2-.3 4.2 1.4 4.2 1.4s-1.5 2.2-3.7 2.5z" id="prefix__path1728"/><path class="prefix__st14" d="M535 1560.4c1-2 3.5-2.7 3.5-2.7s1 2.4 0 4.4c-1 2-3.5 2.7-3.5 2.7s-.9-2.5 0-4.4z" id="prefix__path1730"/><path class="prefix__st14" d="M519.9 1549.6c1.9-1.1 4.4-.3 4.4-.3s-.5 2.6-2.4 3.7-4.4.3-4.4.3.5-2.6 2.4-3.7z" id="prefix__path1732"/><path class="prefix__st10" d="M547.9 1514.6c-.6-2.1.9-4.3.9-4.3s2.4 1.2 2.9 3.3c.6 2.1-.9 4.3-.9 4.3s-2.3-1.2-2.9-3.3z" id="prefix__path1734"/><path class="prefix__st10" d="M569.3 1525.4c2-.8 4.4.4 4.4.4s-.9 2.5-2.9 3.3c-2 .8-4.4-.4-4.4-.4s.8-2.5 2.9-3.3z" id="prefix__path1736"/><path class="prefix__st14" d="M527.2 1534.1c.1-2.2 2.2-3.8 2.2-3.8s1.8 1.9 1.7 4.1c-.1 2.2-2.2 3.8-2.2 3.8s-1.8-1.9-1.7-4.1z" id="prefix__path1738"/><path class="prefix__st15" d="M557.6 1549c2-.8 4.4.4 4.4.4s-.9 2.5-2.9 3.3c-2 .8-4.4-.4-4.4-.4s.9-2.6 2.9-3.3z" id="prefix__path1740"/><path class="prefix__st14" d="M556.9 1500.5c.7-2.1 3.1-3.2 3.1-3.2s1.4 2.3.7 4.4c-.7 2.1-3.1 3.2-3.1 3.2s-1.3-2.3-.7-4.4z" id="prefix__path1742"/><path class="prefix__st10" d="M584.6 1528c.7-2.1 3.1-3.2 3.1-3.2s1.4 2.3.7 4.4c-.7 2.1-3.1 3.2-3.1 3.2s-1.3-2.3-.7-4.4z" id="prefix__path1744"/><path class="prefix__st15" d="M535.7 1504.9c.7 2.1-.7 4.4-.7 4.4s-2.4-1.1-3.1-3.2c-.7-2.1.7-4.4.7-4.4s2.4 1.1 3.1 3.2z" id="prefix__path1746"/><path class="prefix__st15" d="M531.1 1507c2.1-.4 4.3 1.2 4.3 1.2s-1.4 2.3-3.5 2.7c-2.1.4-4.3-1.2-4.3-1.2s1.3-2.2 3.5-2.7z" id="prefix__path1748"/><path class="prefix__st15" d="M581 1550.7c-.4 2.1-2.7 3.5-2.7 3.5s-1.6-2.1-1.2-4.3c.4-2.2 2.7-3.5 2.7-3.5s1.6 2.2 1.2 4.3z" id="prefix__path1750"/><path class="prefix__st16" d="M582.4 1542.1c2.2-.3 4.2 1.3 4.2 1.3s-1.4 2.2-3.6 2.6c-2.2.3-4.2-1.3-4.2-1.3s1.4-2.2 3.6-2.6z" id="prefix__path1752"/><path class="prefix__st11" d="M565.2 1520.2v-.6c0-.5-.3-.9-.8-.9l-13.3-.5c-.5 0-.9.4-.9.8z" id="prefix__path1754"/><path class="prefix__st11" d="M576.3 1508.5l1.9-.1.5 18.5c0 .6-.5 1.1-1.1 1.2z" id="prefix__path1756"/><path class="prefix__st11" d="M619.8 1461l2.6 4.4c.3.3.2.8-.1 1.1l-75.7 72.8c-.3.4-.8.4-1.1.1-.3-.3-.2-.8.1-1.1l72.1-76.7c.3-.4 1-1.6 1.3-1.3z" id="prefix__path1758"/></g><g id="prefix__g1806"><path class="prefix__st12" d="M935.8 324.7l.2.8c0 .1.2.2.3.2.1 0 .2-.2.2-.3l-.2-.8c0-.1-.2-.2-.3-.2-.1 0-.2.2-.2.3z" id="prefix__path1762"/><path class="prefix__st12" d="M936.3 323.1l.6 1.6c.1.1.2.2.3.1.1-.1.2-.2.1-.4l-.6-1.6c-.1-.1-.2-.2-.3-.1-.1.1-.1.2-.1.4z" id="prefix__path1764"/><path class="prefix__st12" d="M938 323.8l.4 1c0 .1.1.1.2.1s.3 0 .3-.2v-.2l-.4-1c0-.1-.1-.1-.2-.1h-.2c-.1 0-.1.1-.1.2-.1.1 0 .2 0 .2z" id="prefix__path1766"/><g id="prefix__g1804"><path class="prefix__st14" d="M950.7 321.9c-1.3-6.3-6.7-12-9.4-11.6-2.7.4-6.3 7.3-5.8 13.7.6 7.2 4.5 9.8 9 9.2 4.5-.6 7.6-4.2 6.2-11.3z" id="prefix__path1768"/><path class="prefix__st17" d="M935.8 316.8c-.1-.5.3-1.1.3-1.1s.5.4.6.9c.1.5-.3 1.1-.3 1.1s-.5-.4-.6-.9z" id="prefix__path1770"/><path class="prefix__st18" d="M945.9 322.7c.3-.5.9-.6.9-.6s.2.6 0 1.1c-.2.5-.9.6-.9.6s-.2-.6 0-1.1z" id="prefix__path1772"/><path class="prefix__st18" d="M940 314.5c.3.5 0 1.1 0 1.1s-.6-.2-.9-.7c-.3-.5 0-1.1 0-1.1s.7.2.9.7z" id="prefix__path1774"/><path class="prefix__st10" d="M944.3 313.1c0 .5-.6.9-.6.9s-.4-.5-.4-1c.1-.6.6-.9.6-.9s.5.5.4 1z" id="prefix__path1776"/><path class="prefix__st18" d="M947.2 324.1c.5.2.7.8.7.8s-.6.3-1.1.1c-.5-.2-.7-.8-.7-.8s.6-.3 1.1-.1z" id="prefix__path1778"/><path class="prefix__st18" d="M942 326.7c-.1.5-.7.8-.7.8s-.4-.6-.2-1.1c.2-.5.7-.8.7-.8s.4.6.2 1.1z" id="prefix__path1780"/><path class="prefix__st18" d="M946.3 317c.4.4.4 1 .4 1s-.6.1-1-.3c-.4-.3-.4-1-.4-1s.6-.1 1 .3z" id="prefix__path1782"/><path class="prefix__st10" d="M939.1 320.8c-.1.5-.7.8-.7.8s-.4-.6-.2-1.1c.2-.5.7-.8.7-.8s.3.6.2 1.1z" id="prefix__path1784"/><path class="prefix__st18" d="M948.7 328c.3.4.2 1.1.2 1.1s-.6-.1-1-.5-.2-1.1-.2-1.1.7.1 1 .5z" id="prefix__path1786"/><path class="prefix__st18" d="M939.3 329.4c.3.4.2 1.1.2 1.1s-.6-.1-1-.5-.2-1.1-.2-1.1.7.1 1 .5z" id="prefix__path1788"/><path class="prefix__st17" d="M950.9 323.1c-.5-.2-.8-.8-.8-.8s.6-.3 1.1-.1c.5.2.8.8.8.8s-.6.3-1.1.1z" id="prefix__path1790"/><path class="prefix__st17" d="M951.1 321.9c-.2.5-.9.7-.9.7s-.3-.6 0-1.1c.2-.5.9-.7.9-.7s.3.5 0 1.1z" id="prefix__path1792"/><path class="prefix__st17" d="M935.2 326.2c-.4-.4-.3-1.1-.3-1.1s.7 0 1 .4c.4.4.3 1.1.3 1.1s-.6.1-1-.4z" id="prefix__path1794"/><path class="prefix__st17" d="M936.6 327.3c-.2.5-.9.7-.9.7s-.2-.6 0-1.1c.2-.5.9-.7.9-.7s.2.6 0 1.1z" id="prefix__path1796"/><path class="prefix__st11" d="M943.6 326.7l.1.1c.1.1.2.1.3 0l2-2.6c.1-.1.1-.2 0-.3z" id="prefix__path1798"/><path class="prefix__st11" d="M944.3 330.7l-.3.4-3.7-2.7c-.1-.1-.2-.3-.1-.4z" id="prefix__path1800"/><path class="prefix__st11" d="M946 338.3l-1.3.2c-.1 0-.2 0-.2-.2l-2-18.3c0-.1 0-.2.1-.2s.2 0 .2.2l3.3 18.1c0 .1 0 .2-.1.2z" id="prefix__path1802"/></g></g><g id="prefix__g1852"><path class="prefix__st12" d="M1019.6 315.6l-.2 1.7c0 .3.2.6.4.6.3 0 .5-.2.6-.5l.2-1.7c0-.3-.2-.6-.4-.6s-.5.2-.6.5z" id="prefix__path1808"/><path class="prefix__st12" d="M1021.7 312.8l.1 3.5c0 .3.3.5.6.4.3-.1.5-.3.4-.6l-.1-3.5c0-.3-.3-.5-.6-.4-.2.1-.4.3-.4.6z" id="prefix__path1810"/><path class="prefix__st12" d="M1024.4 315.5v2.3c0 .1.1.3.2.4.2.2.5.1.7-.1.1-.1.1-.3.1-.4v-2.3c0-.1-.1-.3-.2-.4-.1-.1-.3-.1-.4-.1-.1 0-.3.1-.3.2-.1.1-.1.2-.1.4z" id="prefix__path1812"/><g id="prefix__g1850"><path class="prefix__st14" d="M1050.4 321c2.1-13.1-4.2-28.1-9.7-29.4-5.5-1.3-17.6 9.6-21.2 22.3-4 14.4 1.6 22.3 10.8 24.4 9.3 2.1 17.7-2.5 20.1-17.3z" id="prefix__path1814"/><path class="prefix__st17" d="M1025.3 300.2c.2-1.1 1.4-1.9 1.4-1.9s.8 1.1.6 2.2c-.2 1.1-1.4 1.9-1.4 1.9s-.8-1-.6-2.2z" id="prefix__path1816"/><path class="prefix__st18" d="M1040.6 319.1c.9-.7 2.2-.6 2.2-.6s0 1.4-.9 2.1c-.9.8-2.2.6-2.2.6s.1-1.3.9-2.1z" id="prefix__path1818"/><path class="prefix__st18" d="M1035.2 299c.1 1.1-.7 2.2-.7 2.2s-1.1-.8-1.2-1.9c-.1-1.1.7-2.2.7-2.2s1.1.8 1.2 1.9z" id="prefix__path1820"/><path class="prefix__st10" d="M1044.5 299.4c-.5 1-1.8 1.4-1.8 1.4s-.5-1.3 0-2.3c.5-1 1.8-1.4 1.8-1.4s.5 1.2 0 2.3z" id="prefix__path1822"/><path class="prefix__st18" d="M1042.1 322.7c.8.8.8 2.1.8 2.1s-1.3.2-2.1-.6-.8-2.1-.8-2.1 1.3-.1 2.1.6z" id="prefix__path1824"/><path class="prefix__st18" d="M1030.1 324.1c-.6.9-2 1.1-2 1.1s-.3-1.3.4-2.3c.6-.9 2-1.1 2-1.1s.3 1.3-.4 2.3z" id="prefix__path1826"/><path class="prefix__st18" d="M1045.6 308.3c.5 1 .1 2.3.1 2.3s-1.3-.3-1.8-1.3-.1-2.3-.1-2.3 1.3.3 1.8 1.3z" id="prefix__path1828"/><path class="prefix__st10" d="M1028.7 310.4c-.6.9-2 1.1-2 1.1s-.3-1.3.4-2.3c.6-.9 2-1.1 2-1.1s.2 1.4-.4 2.3z" id="prefix__path1830"/><path class="prefix__st18" d="M1042.1 331.5c.3 1.1-.5 2.3-.5 2.3s-1.2-.6-1.5-1.7c-.3-1.1.5-2.3.5-2.3s1.2.6 1.5 1.7z" id="prefix__path1832"/><path class="prefix__st18" d="M1022.9 327.3c.3 1.1-.5 2.3-.5 2.3s-1.2-.6-1.5-1.7c-.3-1.1.5-2.3.5-2.3s1.2.7 1.5 1.7z" id="prefix__path1834"/><path class="prefix__st17" d="M1049.9 323.5c-.9-.7-.9-2.1-.9-2.1s1.3-.2 2.2.5c.9.7.9 2.1.9 2.1s-1.3.2-2.2-.5z" id="prefix__path1836"/><path class="prefix__st17" d="M1051.3 321.2c-.8.8-2.1.7-2.1.7s0-1.4.8-2.2c.8-.8 2.1-.7 2.1-.7s0 1.4-.8 2.2z" id="prefix__path1838"/><path class="prefix__st17" d="M1017.3 318.1c-.4-1.1.2-2.3.2-2.3s1.3.5 1.7 1.5c.4 1-.2 2.3-.2 2.3s-1.3-.4-1.7-1.5z" id="prefix__path1840"/><path class="prefix__st17" d="M1019.1 321.2c-.8.8-2.1.6-2.1.6s0-1.4.8-2.1c.8-.7 2.1-.6 2.1-.6s0 1.4-.8 2.1z" id="prefix__path1842"/><path class="prefix__st11" d="M1033.3 325.2l.1.3c.1.2.4.3.6.2l5.8-3.6c.2-.1.3-.4.2-.6z" id="prefix__path1844"/><path class="prefix__st11" d="M1031.7 333.5l-.8.6-5.2-8c-.2-.3-.1-.6.1-.8z" id="prefix__path1846"/><path class="prefix__st11" d="M1029.3 349.4l-2.6-.6c-.2 0-.3-.2-.3-.4l9.5-36.9c.1-.2.2-.3.4-.3.2.1.3.2.3.4l-6.9 37.5c0 .2-.2.3-.4.3z" id="prefix__path1848"/></g></g><g id="prefix__g1898"><path class="prefix__st12" d="M750.3 1596.6l.2-1.9c0-.3-.2-.6-.6-.6-.3 0-.6.2-.6.6l-.2 1.9c0 .3.2.6.6.6.3 0 .6-.3.6-.6z" id="prefix__path1854"/><path class="prefix__st12" d="M748.1 1599.8l-.3-3.9c-.1-.3-.4-.6-.7-.5-.3.1-.5.4-.5.7l.3 3.9c.1.3.4.5.7.5.3 0 .5-.3.5-.7z" id="prefix__path1856"/><path class="prefix__st12" d="M744.8 1597l-.2-2.6c0-.2-.1-.3-.3-.4-.3-.2-.6-.1-.8.1-.1.2-.1.3-.1.4l.2 2.6c0 .2.1.3.3.4.2.1.3.1.5.1s.3-.1.4-.3v-.3z" id="prefix__path1858"/><g id="prefix__g1896"><path class="prefix__st14" d="M714.3 1592.1c-1.7 14.7 6.5 31.2 12.9 32.3 6.4 1.2 19.9-11.5 23.3-25.9 3.9-16.3-3.1-24.8-14-26.7-10.7-1.9-20.2 3.6-22.2 20.3z" id="prefix__path1860"/><path class="prefix__st17" d="M744.7 1614c-.2 1.3-1.5 2.1-1.5 2.1s-1-1.2-.8-2.4c.2-1.3 1.5-2.1 1.5-2.1s.9 1.2.8 2.4z" id="prefix__path1862"/><path class="prefix__st18" d="M725.8 1593.7c-1 .9-2.5.7-2.5.7s0-1.5.9-2.4c.9-.9 2.5-.7 2.5-.7s.1 1.5-.9 2.4z" id="prefix__path1864"/><path class="prefix__st18" d="M733.3 1615.9c-.2-1.3.7-2.4.7-2.4s1.3.8 1.5 2.1c.2 1.3-.7 2.4-.7 2.4s-1.3-.8-1.5-2.1z" id="prefix__path1866"/><path class="prefix__st10" d="M722.4 1615.9c.5-1.2 2-1.7 2-1.7s.6 1.4.1 2.5c-.5 1.2-2 1.7-2 1.7s-.6-1.3-.1-2.5z" id="prefix__path1868"/><path class="prefix__st18" d="M723.9 1589.7c-1-.8-1.1-2.3-1.1-2.3s1.5-.2 2.5.6 1.1 2.3 1.1 2.3-1.6.2-2.5-.6z" id="prefix__path1870"/><path class="prefix__st18" d="M737.7 1587.7c.7-1.1 2.2-1.3 2.2-1.3s.4 1.5-.3 2.6-2.2 1.3-2.2 1.3-.4-1.5.3-2.6z" id="prefix__path1872"/><path class="prefix__st18" d="M720.6 1606c-.7-1.1-.2-2.6-.2-2.6s1.5.3 2.2 1.3c.7 1.1.2 2.6.2 2.6s-1.5-.2-2.2-1.3z" id="prefix__path1874"/><path class="prefix__st10" d="M740.1 1602.8c.7-1.1 2.2-1.3 2.2-1.3s.4 1.5-.3 2.6-2.2 1.3-2.2 1.3-.4-1.5.3-2.6z" id="prefix__path1876"/><path class="prefix__st18" d="M723.4 1580c-.4-1.2.4-2.5.4-2.5s1.4.6 1.8 1.8c.4 1.2-.4 2.5-.4 2.5s-1.4-.6-1.8-1.8z" id="prefix__path1878"/><path class="prefix__st18" d="M745.9 1583.7c-.4-1.2.4-2.5.4-2.5s1.4.6 1.8 1.8c.4 1.2-.4 2.5-.4 2.5s-1.4-.6-1.8-1.8z" id="prefix__path1880"/><path class="prefix__st17" d="M714.8 1589.3c1 .8 1.1 2.3 1.1 2.3s-1.5.3-2.5-.4-1.1-2.3-1.1-2.3 1.5-.4 2.5.4z" id="prefix__path1882"/><path class="prefix__st17" d="M713.3 1591.9c.9-.9 2.4-.9 2.4-.9s.1 1.5-.8 2.4c-.9.9-2.4.9-2.4.9s-.1-1.5.8-2.4z" id="prefix__path1884"/><path class="prefix__st17" d="M753 1593.7c.5 1.2-.1 2.6-.1 2.6s-1.5-.5-2-1.6.1-2.6.1-2.6 1.4.4 2 1.6z" id="prefix__path1886"/><path class="prefix__st17" d="M750.6 1590.3c.9-.9 2.4-.8 2.4-.8s.1 1.5-.8 2.4c-.9.9-2.4.8-2.4.8s-.1-1.5.8-2.4z" id="prefix__path1888"/><path class="prefix__st11" d="M734 1586.6l-.2-.3c-.1-.3-.5-.3-.7-.2l-6.5 4.2c-.3.1-.3.5-.2.7z" id="prefix__path1890"/><path class="prefix__st11" d="M735.4 1577.3l.9-.7 6.5 8.7c.2.3.1.7-.1.9z" id="prefix__path1892"/><path class="prefix__st11" d="M737.2 1559.5l3 .5c.2 0 .4.2.3.5l-8.9 41.6c-.1.2-.2.4-.5.3-.3-.1-.4-.2-.3-.5l5.9-42.2c.1-.1.3-.3.5-.2z" id="prefix__path1894"/></g></g></g><path d="M721.9 481.3c102.8 36.4 103.3 64.1 160.4 72.9 100.7 15.6 134-65.2 222.9-54.2 79.7 9.9 161.7 88.2 181.2 172.9 36.4 157.5-159.1 267.4-108.3 387.5 26.7 63 85.6 44.8 152.1 143.8 17.2 25.6 71.6 119.2 32 194.7-34 64.8-114.6 83-129.9 84.5-130.8 12.3-162.5-89.3-333.3-120.8-115.2-21.2-137.5 18.2-233.3-16.7-8.3-3-178-66.6-181.2-160.4-4.1-117.1 256-138.3 293.8-308.3 23.5-105.7-46-237.4-127.1-258.3-101.4-26.2-163.1 146.3-202.8 114.6-22.1-17.7-35.7-91.3-27.3-115.9 19.5 21.2 127.4-119.3 181.2-179.8 42.8-46 48.2 18.3 119.6 43.5z" id="prefix__path1902" fill="#004dbc"/><path d="M745.1 521.3c95.1 33.7 95.6 59.3 148.4 67.4 93.2 14.4 124-60.3 206.2-50.1 73.7 9.2 149.6 81.6 167.7 160 33.7 145.7-147.2 247.4-100.2 358.5 24.7 58.3 79.2 41.5 140.7 133 15.9 23.7 79.8 118.8 43.1 188.7-31.5 60-119.5 68.3-133.7 69.7-121 11.4-150.3-82.6-308.4-111.8-106.6-19.6-127.2 16.8-215.9-15.5-7.7-2.8-164.7-61.6-167.7-148.4-3.8-108.3 236.9-128 271.8-285.2 21.7-97.8-42.6-219.6-117.6-239-93.8-24.2-194.6 114.2-231.3 84.8-20.4-16.4-2-69.8 5.7-92.5 2.2-6.6 45.5-126.4 150.3-146.5 41.9-8.1 74.9 3.6 140.9 26.9z" id="prefix__path1904" fill="#6cf"/><g id="prefix__Layer_4"><path class="prefix__st21" d="M1077.8 369.3c.5-.1 1-.1 1.5-.1 3.8.2 7.7 2 9.7 5.3.6-4.3 2.8-8.7 6.5-11 3.7-2.3 9.3-1.7 11.9 1.7 2.5 3.3 1.9 8.3-.7 11.6 2.1-2.3 5.7-2.5 8-.4s2.5 5.7.4 8c1.6-.6 3.4-1.3 5.1-.8 1.7.5 3.1 2.5 2.2 4 4.3-.8 8.8.9 11.4 4.4 2.6 3.7.9 9.4-4.4 8.2-1.7-.4-3.3-1.4-5-2.1-4.6-1.6-9.6-.4-14.4-.5-12-.3-22.3-9.1-34.2-10.4-7.2-.8-15.2 1-21.1-3.2-1.5-1.1-2.8-2.7-2.7-4.5.2-2.9 3.9-4.3 6.8-3.9 1.9-5.3 9.8-7.1 13.8-3.1 1-1.8 3.1-2.9 5.2-3.2z" id="prefix__path1906"/><path class="prefix__st21" d="M941.8 318.4c.3-.1.6-.1.8-.1 2.2-.2 4.6.6 6 2.3 0-2.5.9-5.2 2.9-6.8 2-1.6 5.2-1.7 7 .1 1.7 1.7 1.7 4.6.5 6.7 1-1.5 3.1-1.9 4.6-.9 1.5 1 1.9 3.1.9 4.6.9-.5 1.9-1 2.9-.9 1 .1 2 1.2 1.6 2.1 2.4-.8 5.1-.2 6.9 1.7 1.8 1.9 1.2 5.3-1.9 5-1-.1-2-.6-3-.8-2.7-.6-5.5.5-8.3.8-6.9.7-13.5-3.5-20.4-3.4-4.2.1-8.6 1.7-12.4-.2-.9-.5-1.8-1.3-1.9-2.4-.1-1.7 1.9-2.8 3.6-2.8.7-3.2 5.1-4.8 7.7-2.8.2-1 1.3-1.8 2.5-2.2z" id="prefix__path1908"/><path class="prefix__st21" d="M979.3 326.7c.4-.1.8-.2 1.2-.2 3.1-.3 6.4.8 8.4 3.2 0-3.6 1.3-7.3 4.1-9.5s7.3-2.4 9.8.1c2.4 2.4 2.4 6.5.6 9.4 1.5-2.1 4.3-2.7 6.4-1.2 2.1 1.5 2.7 4.3 1.2 6.4 1.3-.7 2.6-1.4 4.1-1.2 1.4.2 2.7 1.7 2.2 3 3.4-1.1 7.2-.2 9.7 2.4 2.5 2.7 1.7 7.5-2.7 7.1-1.5-.2-2.8-.8-4.3-1.1-3.9-.8-7.8.7-11.7 1.2-9.7 1-19-5-28.7-4.8-5.9.1-12.2 2.4-17.4-.3-1.3-.7-2.6-1.9-2.7-3.3-.1-2.4 2.7-3.9 5.1-3.9 1-4.5 7.2-6.8 10.8-4 .7-1.7 2.2-2.8 3.9-3.3z" id="prefix__path1910"/><path class="prefix__st21" d="M1284.9 613.9c.3.3.6.6.8.9 1.9 2.4 2.9 5.8 2 8.8 3-2 6.8-3 10.2-1.9 3.4 1.1 6.1 4.7 5.4 8.2-.7 3.3-4.1 5.6-7.5 5.8 2.6 0 4.6 2.1 4.6 4.7s-2.1 4.6-4.7 4.6c1.3.7 2.6 1.4 3.3 2.7.7 1.3.1 3.2-1.3 3.5 2.8 2.2 4.2 5.8 3.4 9.3-.8 3.6-5.3 5.6-7.4 1.7-.7-1.3-.9-2.8-1.5-4.2-1.5-3.7-4.9-6-7.5-9-6.3-7.5-6.5-18.5-12.1-26.5-3.4-4.8-8.8-8.7-9.5-14.6-.2-1.5.1-3.2 1.3-4.1 1.9-1.4 4.7 0 6 2 4.3-1.7 9.6 2.2 9.3 6.8 2.1-.5 3.8.2 5.2 1.3z" id="prefix__path1912"/><path class="prefix__st21" d="M1234.5 541.8c.6.3 1.3.6 1.9 1 4.6 2.9 8.1 8.1 8.2 13.7 3.9-5 9.8-8.8 16.1-8.9 6.3 0 12.8 4.6 13.5 10.9.7 6-3.8 11.7-9.4 13.9 4.3-1.3 9 1 10.3 5.4 1.3 4.4-1 9-5.4 10.3 2.5.4 5.2.9 7 2.7 1.8 1.8 2 5.3-.2 6.6 6 2.2 10.3 7.5 10.9 13.8.6 6.5-5.8 12.4-11.5 7-1.9-1.8-3.1-4.2-4.7-6.2-4.5-5.4-11.6-7.5-17.6-11.1-14.6-9.1-21.1-27.6-34.9-37.9-8.4-6.2-19.6-9.9-23.9-19.4-1.1-2.4-1.5-5.4-.1-7.6 2.4-3.5 8-2.6 11.3.1 6.2-5.2 17.4-1.6 19.4 6.3 2.8-1.9 6.2-1.8 9.1-.6z" id="prefix__path1914"/><path class="prefix__st21" d="M1192.3 511.9c.2.1.3.2.5.3 1.2.8 2.1 2.1 2.1 3.5 1-1.3 2.5-2.3 4.1-2.3 1.6 0 3.3 1.2 3.5 2.8.2 1.5-1 3-2.4 3.5 1.1-.3 2.3.3 2.6 1.4.3 1.1-.3 2.3-1.4 2.6.6.1 1.3.2 1.8.7.5.5.5 1.4-.1 1.7 1.5.6 2.6 1.9 2.8 3.5.1 1.7-1.5 3.2-2.9 1.8-.5-.5-.8-1.1-1.2-1.6-1.1-1.4-3-1.9-4.5-2.8-3.7-2.3-5.4-7-8.9-9.7-2.1-1.6-5-2.5-6.1-4.9-.3-.6-.4-1.4 0-1.9.6-.9 2-.7 2.9 0 1.6-1.3 4.4-.4 5 1.6.6-.5 1.5-.5 2.2-.2z" id="prefix__path1916"/><path class="prefix__st21" d="M1136.9 373.2c.2 0 .4.1.5.1 1.3.5 2.5 1.6 2.8 2.9.7-1.5 1.9-2.8 3.5-3.1 1.6-.4 3.4.4 4 1.9.5 1.5-.3 3.1-1.6 4 1-.6 2.3-.3 2.9.7.6 1 .3 2.3-.7 2.9.6 0 1.3-.1 1.9.3.6.4.8 1.2.3 1.7 1.6.2 3 1.3 3.5 2.8.5 1.6-.7 3.4-2.5 2.4-.6-.3-1-.9-1.5-1.3-1.4-1.1-3.3-1.2-5-1.8-4.2-1.4-6.8-5.7-10.8-7.5-2.4-1.1-5.4-1.4-7.1-3.5-.4-.5-.7-1.3-.4-1.9.4-1 1.8-1.1 2.8-.6 1.3-1.6 4.2-1.4 5.2.5.5-.5 1.4-.6 2.2-.5z" id="prefix__path1918"/><path class="prefix__st21" d="M847.1 1582c-.5.2-1 .3-1.4.4-3.7.7-7.9-.1-10.7-2.8.5 4.4-.6 9.1-3.7 12.2-3.1 3-8.6 3.9-12 1.1-3.3-2.6-3.8-7.6-2-11.4-1.5 2.8-5 3.8-7.7 2.3s-3.8-5-2.3-7.7c-1.4 1-3 2-4.8 2-1.8 0-3.6-1.7-3.1-3.4-4 1.8-8.7 1.2-12.1-1.6-3.4-3-3.1-8.9 2.3-9 1.8 0 3.6.6 5.4.8 4.8.5 9.4-1.9 14.1-2.9 11.7-2.5 23.8 3.6 35.7 2 7.2-.9 14.5-4.5 21.3-1.9 1.7.7 3.4 2 3.7 3.7.5 2.9-2.7 5.1-5.7 5.4-.6 5.6-7.9 9.2-12.7 6.2-.6 2.2-2.3 3.8-4.3 4.6z" id="prefix__path1920"/><path class="prefix__st21" d="M991.3 1599.2c-.2.1-.5.3-.8.3-2.1.7-4.6.5-6.4-.8.6 2.5.3 5.3-1.2 7.3-1.6 2-4.6 2.9-6.8 1.6-2.1-1.3-2.7-4.1-2-6.4-.7 1.7-2.6 2.6-4.3 1.9-1.7-.7-2.6-2.6-1.9-4.3-.8.7-1.6 1.4-2.6 1.5-1 .1-2.2-.7-2-1.7-2.2 1.3-4.9 1.4-7.1 0-2.2-1.4-2.5-4.9.7-5.3 1-.1 2.1.1 3.1.1 2.8-.1 5.2-1.8 7.9-2.8 6.5-2.3 13.9.2 20.6-1.5 4.1-1.1 8-3.7 12.1-2.7 1 .3 2.1.9 2.4 1.9.5 1.6-1.2 3.2-2.8 3.5.1 3.3-3.8 5.9-6.8 4.6-.2 1.2-1 2.2-2.1 2.8z" id="prefix__path1922"/><path class="prefix__st21" d="M953.5 1594.4c-.2.1-.5.3-.7.3-1.9.6-4.3.2-6.2-1.6.8 3 .9 6.3-.4 8.5s-4.2 2.9-6.4 1.2c-2.1-1.7-3-5.1-2.6-7.8-.5 1.9-2.2 2.8-3.9 1.8-1.7-.9-2.7-3.3-2.3-5.2-.7.7-1.4 1.5-2.3 1.6-.9.1-2.2-1-2.1-2.2-2 1.4-4.6 1.1-6.8-.7-2.3-1.9-2.9-6 .1-6.3 1-.1 2 .3 3 .4 2.7.2 4.9-1.6 7.3-2.5 6-2.1 13.4 1.7 19.7.2 3.8-.9 7.3-3.6 11.3-2 1 .4 2.1 1.2 2.5 2.4.6 2-.8 3.6-2.4 3.9.4 3.9-3.1 6.6-6.1 4.7 0 1.5-.8 2.7-1.7 3.3z" id="prefix__path1924"/><path class="prefix__st21" d="M588 1393.3c-.3-.2-.7-.4-1-.7-2.4-1.9-4.2-4.9-4.1-8.1-2.4 2.6-5.9 4.6-9.4 4.3-3.5-.3-7-3.1-7.2-6.7-.1-3.4 2.6-6.4 5.9-7.4-2.5.6-5-1-5.6-3.5-.6-2.5 1-5 3.5-5.6-1.4-.3-2.9-.7-3.8-1.8-.9-1.1-.9-3.1.4-3.7-3.3-1.5-5.5-4.7-5.5-8.3 0-3.7 3.8-6.7 6.8-3.4 1 1.1 1.6 2.5 2.4 3.7 2.3 3.2 6.2 4.7 9.4 7 7.9 5.8 10.7 16.4 18 22.9 4.4 3.9 10.6 6.4 12.6 11.9.5 1.4.6 3.1-.3 4.3-1.5 1.8-4.6 1.1-6.4-.5-3.7 2.7-9.9.2-10.7-4.4-1.5 1-3.4.8-5 0z" id="prefix__path1926"/><path class="prefix__st21" d="M654.1 1451.5c-.7-.1-1.4-.3-2.1-.5-5.1-1.8-9.8-6-11.3-11.4-2.6 5.8-7.4 10.9-13.5 12.4s-13.5-1.4-15.7-7.4c-2.1-5.7.9-12.2 5.8-15.7-3.9 2.3-9 1.1-11.3-2.8-2.3-3.9-1.1-9 2.8-11.3-2.5.2-5.3.3-7.4-1-2.2-1.3-3.2-4.7-1.3-6.5-6.3-.7-11.8-4.9-13.9-10.9-2.1-6.2 2.7-13.4 9.5-9.5 2.2 1.3 4 3.4 6.1 4.9 5.6 4.2 13.1 4.5 19.7 6.6 16.4 5.4 27 21.8 42.9 28.6 9.6 4.1 21.4 5 27.8 13.2 1.6 2.1 2.8 4.9 1.9 7.3-1.5 3.9-7.1 4.4-11 2.6-4.8 6.5-16.5 5.7-20.4-1.5-2.3 2.6-5.6 3.3-8.6 2.9z" id="prefix__path1928"/><path class="prefix__st21" d="M702.1 1470.5c-.2 0-.4-.1-.5-.1-1.3-.5-2.5-1.5-2.9-2.9-.7 1.5-1.9 2.8-3.5 3.2-1.6.4-3.4-.4-4-1.9-.5-1.4.2-3.1 1.5-4-1 .6-2.3.3-2.9-.7-.6-1-.3-2.3.7-2.9-.6 0-1.3.1-1.9-.2-.6-.3-.8-1.2-.3-1.6-1.6-.2-3-1.2-3.5-2.8-.5-1.6.7-3.4 2.4-2.4.6.3 1 .9 1.6 1.3 1.4 1.1 3.3 1.1 5 1.7 4.2 1.4 6.9 5.6 10.9 7.3 2.5 1 5.5 1.3 7.1 3.4.4.5.7 1.2.5 1.9-.4 1-1.8 1.1-2.8.7-1.2 1.7-4.2 1.5-5.2-.4-.6.4-1.4.5-2.2.4z" id="prefix__path1930"/><path class="prefix__st21" d="M788.8 1592.2h-.5c-1.4-.2-2.8-.9-3.4-2.2-.3 1.6-1.2 3.1-2.7 3.9-1.4.7-3.4.4-4.3-.9-.8-1.3-.5-3.1.6-4.2-.8.8-2.2.8-3 0-.8-.8-.8-2.2 0-3-.6.2-1.3.4-1.9.2-.6-.2-1.1-1-.7-1.5-1.6.2-3.2-.6-4.1-1.9-.9-1.4-.1-3.5 1.8-2.9.6.2 1.2.6 1.8.9 1.6.7 3.5.4 5.3.5 4.4.4 7.9 3.9 12.3 4.7 2.6.5 5.6 0 7.7 1.7.5.4 1 1.1.9 1.7-.2 1.1-1.5 1.5-2.6 1.3-.8 1.9-3.8 2.4-5.1.8-.5.5-1.3.8-2.1.9z" id="prefix__path1932"/></g></svg>