<?xml version="1.0" encoding="utf-8"?><!--Generator: Adobe Illustrator 26.0.2, SVG Export Plug-In . SVG Version: 6.00 Build 0)--><svg version="1.1" id="svg1937" xmlns:svg="http://www.w3.org/2000/svg" xmlns="http://www.w3.org/2000/svg" xmlns:xlink="http://www.w3.org/1999/xlink" x="0px" y="0px" viewBox="0 0 2000 2000" style="enable-background:new 0 0 2000 2000" xml:space="preserve"><style type="text/css">.st0{fill:#CCCCCC;stroke:#FF0000;stroke-width:0.7805;stroke-linecap:round;stroke-linejoin:round;}
	.st1{fill:#FF0000;stroke:#FF0000;stroke-width:0.6225;stroke-linecap:round;stroke-linejoin:round;}
	.st2{fill:#A3D8E8;}
	.st3{fill:#8FCAD8;}
	.st4{fill:#68C382;}
	.st5{fill:#9AC97F;}
	.st6{display:none;}
	.st7{fill:#C75720;}
	.st8{fill:#5A1E21;}
	.st9{fill:#A03D17;}
	.st10{fill:#F4957F;}
	.st11{fill:#FDAF16;}
	.st12{fill:#B23909;}
	.st13{fill:#684218;}
	.st14{fill:#51A567;}
	.st15{fill:#8EAD42;}
	.st16{fill:#EDC35A;}
	.st17{fill:#00803A;}
	.st18{fill:#FCBE32;}
	.st19{fill:#B27006;}
	.st20{fill:#F77D69;}
	.st21{fill:#004DBC;}
	.st22{fill:#66CCFF;}
	.st23{fill:#45AA62;}
	.st24{fill:none;stroke:#FF0000;stroke-width:1.0151;}
	.st25{fill:#5E6163;}
	.st26{fill:#C0CED8;}
	.st27{fill:#DD5E7C;}
	.st28{fill:#0000FF;stroke:#0000FF;}
	.st29{fill:#FF00FF;}
	.st30{fill:#0000FF;}</style><ellipse id="path2266-9" class="st0" cx="1000" cy="1000" rx="999.6" ry="999.6"/><circle id="path2266" class="st1" cx="1000" cy="1000" r="797.2"/><g id="Layer_2_00000064347804374069980650000009717550096361034125_"/><g id="Layer_3" transform="matrix(1.0654381,0,0,1.0638646,-16.409863,-21.194545)"><g id="g1391"><path id="path1387" class="st2" d="M1543,488.8l-110.6,368.4L531.6,586.8l94.3-314.1c2.1-1.2,4.2-2.5,6.3-3.6
			c0.8-0.5,1.7-0.9,2.5-1.4s1.6-0.9,2.5-1.4c3.6-2,7.3-4,10.9-5.8c0.5-0.3,1-0.5,1.4-0.7c4.6-2.4,9.2-4.6,13.7-6.7
			c8.3-3.9,16.6-7.5,24.9-10.8c6.2-2.5,12.4-4.8,18.7-6.8c15.9-5.4,31.9-9.7,47.8-12.7c11.4-2.3,22.7-3.9,34-4.9l0,0
			c4.4-0.4,8.7-0.7,13-1l0,0c63.2-3.1,123.2,13.2,174.9,49c61,42.4,111.5,110.8,180.8,130.6c21.7,6.2,44.4,7.4,67.7,6.2l0,0
			c1.9-0.1,3.8-0.2,5.8-0.4l0,0c39.1-2.6,79.5-11.5,118.8-14.5c7.5-0.6,14.9-1,22.3-1h1.1c7.1,0,14.1,0.2,21.1,0.8
			c5.6,0.4,11.2,1.2,16.7,2.2c13.6,2.4,26.7,6.5,39.4,12.1C1486.9,418.6,1518.6,448.2,1543,488.8L1543,488.8z"/><path id="path1389" class="st3" d="M609.7,407.9l35.5,12.7c21.9,7.9,30,19.7,50.2,32.4c238,150.1,509.5,223.3,793.6,213.9
			l44.5-146.4c-6.7-14.4-15.3-27.5-23.9-39.8c-17.7-25.3-45.3-38.7-69.7-50.7c-26.7-13.1-55.6-21.1-86.4-19.1
			c-34.8,2.3-71,17.5-106.2,23c-57.8,8.9-111.3-7.8-154-48.3c-14.7-14-28.9-31.2-48.2-32.6c-20.6-1.4-43.5,15.8-64.8,17.9
			c-50.7,4.8-71.7-68.9-111-93.1c-47.6-29.4-93.8-42.2-153.9-18.8L609.7,407.9z"/></g><g id="g1397"><path id="path1393" class="st2" d="M789.4,268.9l284.7,447.8l-651.9,414.5L179.5,749.4c-0.1-2.8-0.4-5.7-0.4-8.4
			c-0.1-1.1-0.1-2.2-0.2-3.3c-0.1-1.1-0.1-2.1-0.1-3.2c-0.2-4.7-0.3-9.5-0.4-14c0-0.6,0-1.3,0-1.8c-0.1-5.8-0.1-11.5,0.1-17.1
			c0.2-10.2,0.7-19.9,1.4-29.4c0.6-7.2,1.3-14.1,2.2-20.9c2.3-17.4,5.6-33.8,10-48.7c3.1-10.9,6.7-21,10.9-30.6l0,0
			c1.6-3.7,3.2-7.3,5-10.8l0,0c25.7-50.9,67.5-80.2,123.4-84c66-4.3,151,25.1,200.2-7.7c15.4-10.3,26.8-26.3,36.2-45.1l0,0
			c0.8-1.5,1.6-3.1,2.3-4.7l0,0c15.2-32.2,25.5-71.5,40.5-104.2c2.8-6.3,5.9-12.2,9.1-17.9l0.5-0.8c3.1-5.4,6.6-10.5,10.2-15.1
			c2.9-3.8,6.1-7.3,9.5-10.5c8.3-7.9,18-13.8,28.8-17.8C700.4,242,741.5,247.3,789.4,268.9L789.4,268.9z"/><path id="path1395" class="st3" d="M295,895.2l27.6-14.3c17-8.7,31.4-3.3,52-6C618.3,843.2,807.2,710,926.8,485.7L813.9,307.5
			c-16.1-9.1-31.9-15.6-47-21.3c-30.9-11.6-55.6-4-77.4,2.7c-24,7.3-44.3,21.2-56.3,46.5c-13.5,28.6-16.2,71-27,103.1
			c-18,52.5-57.3,76.5-113.3,68.8c-19.4-2.7-41.4-9-51.3,4.2c-10.6,14.2-5.2,48.6-13,66.7c-18.5,43.1-94.9-13.8-134.7-8
			c-48.2,6.9-80.6,29.3-86.5,97.9L295,895.2z"/></g><g id="g1403"><path id="path1399" class="st2" d="M177.9,736.4l265.8-190.6l450.2,627.7L667.3,1336c-2-0.2-4.1-0.4-6-0.7
			c-0.8-0.1-1.6-0.2-2.4-0.3c-0.8-0.1-1.5-0.2-2.3-0.3c-3.4-0.5-6.9-1-10.2-1.5c-0.5-0.1-0.9-0.1-1.3-0.2c-4.3-0.7-8.4-1.5-12.6-2.3
			c-7.5-1.5-14.8-3.2-22-5.2c-5.4-1.4-10.7-3-15.9-4.7c-13.3-4.3-26.1-9.4-38.1-15.2c-8.7-4.2-17-8.7-24.9-13.6l0,0
			c-3.1-1.9-6.1-3.8-9-5.8l0,0c-43.1-29.3-74-70-89.3-119.6c-17.9-58.6-15.2-129.3-50.3-176.9c-11-14.9-25.3-27-41.2-37.8l0,0
			c-1.3-0.9-2.6-1.8-4-2.6l0,0c-27.1-17.7-58.3-31.9-85.7-49.4c-5.2-3.3-10.3-6.8-15.2-10.4l-0.7-0.6c-4.7-3.5-9.1-7.2-13.4-11
			c-3.5-3.1-6.7-6.4-9.9-9.8c-7.7-8.4-14.1-17.6-19.5-27.7C178,811,172.7,775.6,177.9,736.4z"/><path id="path1401" class="st3" d="M748.8,1253.9l-16.6-26.1c-10.2-16.1-9.4-28.1-16-46.5c-77.7-218.3-217.7-402-409.3-536.8
			l-106,75.5c-3.1,12.9-4.3,25.9-5.2,38.4c-1.6,25.6,9.4,48.3,19.2,68.4c10.7,22,25.5,41.7,46.8,55.6c24.1,15.7,55.8,23.6,81.9,37.4
			c42.6,22.8,69,60.5,75.8,108.7c2.3,16.7,2.6,35.2,14.6,45.6c12.8,11.2,36.9,11.1,52,20.3c35.8,22,11,81.5,24.1,117.2
			c15.9,43.2,39.5,74.7,91.3,89L748.8,1253.9z"/></g><g id="g1409"><path id="path1405" class="st2" d="M423.5,1303.6l167-119.8l282.8,394.4l-142.4,102.1c-1.3-0.2-2.6-0.3-3.8-0.5
			c-0.5,0-1-0.1-1.5-0.2s-1-0.1-1.5-0.2c-2.2-0.3-4.3-0.6-6.4-1c-0.3,0-0.6-0.1-0.8-0.1c-2.7-0.4-5.3-0.9-7.9-1.5
			c-4.7-0.9-9.3-2-13.8-3.3c-3.4-0.9-6.7-1.9-10-3c-8.4-2.7-16.4-5.9-23.9-9.6c-5.5-2.6-10.7-5.5-15.7-8.6l0,0
			c-1.9-1.2-3.8-2.4-5.7-3.6l0,0c-27.1-18.4-46.5-44-56.1-75.1c-11.2-36.8-9.5-81.2-31.6-111.1c-6.9-9.3-15.9-17-25.9-23.7l0,0
			c-0.8-0.6-1.6-1.1-2.5-1.7l0,0c-17-11.1-36.6-20-53.8-31c-3.3-2.1-6.5-4.3-9.5-6.5l-0.5-0.4c-2.9-2.2-5.7-4.5-8.4-6.9
			c-2.2-1.9-4.2-4-6.2-6.1c-4.8-5.3-8.9-11.1-12.2-17.4C423.5,1350.5,420.2,1328.3,423.5,1303.6L423.5,1303.6z"/><path id="path1407" class="st3" d="M782.1,1628.8l-10.5-16.4c-6.4-10.1-5.9-17.6-10.1-29.2c-48.8-137.2-136.8-252.6-257.2-337.3
			l-66.6,47.4c-2,8.1-2.7,16.3-3.3,24.1c-1,16.1,5.9,30.4,12.1,43c6.7,13.8,16,26.2,29.4,35c15.1,9.9,35.1,14.9,51.4,23.5
			c26.8,14.3,43.4,38,47.7,68.3c1.5,10.5,1.6,22.1,9.2,28.7c8,7,23.2,6.9,32.6,12.7c22.5,13.8,6.9,51.2,15.1,73.7
			c10,27.2,24.8,47,57.4,55.9L782.1,1628.8z"/></g><g id="g1415"><path id="path1411" class="st2" d="M1131.7,1580.2c-6.3,3.3-12.9,5.9-19.9,7.6c-2.8,0.7-5.7,1.2-8.6,1.6c-3.6,0.5-7.2,0.9-10.9,1
			h-0.6c-3.8,0.2-7.7,0.2-11.6,0.1c-20.4-0.5-41.7-4-62-4.3l0,0c-1,0-2,0-3,0l0,0c-12.1,0-23.8,1.3-34.7,5.2
			c-35,12.5-58.4,50.3-88.3,74.5c-25.3,20.5-55.7,30.9-88.5,31l0,0c-2.2,0-4.5-0.1-6.7-0.1l0,0c-5.9-0.2-11.8-0.8-17.8-1.6
			c-8.3-1.2-16.7-3-25.2-5.4c-3.3-0.9-6.6-2-9.9-3.1c-4.4-1.5-8.8-3.1-13.3-5c-2.5-1-4.9-2.1-7.4-3.2c-0.2-0.1-0.5-0.2-0.8-0.3
			c-1.9-0.9-3.9-1.8-5.9-2.8c-0.5-0.2-0.9-0.4-1.3-0.6c-0.4-0.2-0.9-0.4-1.3-0.7c-1.1-0.5-2.3-1.2-3.4-1.7L649.7,1508l454.9-169.2
			l71.7,192.6C1165.3,1553.7,1150,1570.3,1131.7,1580.2L1131.7,1580.2z"/><path id="path1413" class="st3" d="M757.6,1677c32,10.7,55.4,2.6,78.8-14.4c19.4-14,27.3-53.7,53.7-52.6c11.1,0.5,23.6,9,34.2,7.7
			c9.9-1.3,16.6-10.8,23.6-18.7c20.5-22.7,47.5-33.1,77.7-30c18.4,2,37.7,9,55.8,9.2c16,0.2,30.6-4.9,43.9-12.6
			c12.1-7,25.9-15,34-28.9c3.9-6.8,7.9-14,10.8-21.8l-28.7-76.5c-147.2,3.1-284.6,49.6-401.7,136.2c-9.9,7.3-13.7,13.8-24.7,18.6
			l-17.8,7.8L757.6,1677z"/></g><g id="g1421"><path id="path1417" class="st2" d="M1220.2,1555.7l-125.3-162.9l384.7-295.9l106.8,138.9c-0.1,1.3-0.2,2.6-0.3,3.8
			c0,0.5-0.1,1-0.1,1.5s-0.1,1-0.1,1.5c-0.2,2.2-0.5,4.3-0.7,6.5c0,0.3-0.1,0.6-0.1,0.8c-0.3,2.7-0.8,5.3-1.2,7.9
			c-0.8,4.8-1.7,9.4-2.8,13.9c-0.8,3.4-1.6,6.8-2.6,10.1c-2.4,8.5-5.3,16.6-8.8,24.2c-2.4,5.5-5.1,10.8-8,16l0,0
			c-1.1,2-2.3,3.9-3.5,5.8l0,0c-17.5,27.7-42.4,48-73.2,58.6c-36.4,12.5-80.9,12.2-110,35.3c-9.1,7.2-16.4,16.5-22.8,26.7l0,0
			c-0.5,0.8-1.1,1.7-1.6,2.6l0,0c-10.5,17.4-18.8,37.3-29.2,54.8c-2,3.4-4,6.6-6.2,9.7l-0.3,0.5c-2.1,3-4.3,5.9-6.6,8.7
			c-1.9,2.2-3.9,4.4-5.9,6.4c-5.1,5-10.8,9.3-17,12.8C1267.1,1554.1,1244.9,1558.2,1220.2,1555.7L1220.2,1555.7z"/><path id="path1419" class="st3" d="M1533.2,1186.4l-16.1,11c-9.9,6.8-17.4,6.5-28.9,11c-135.5,53.4-247.8,145.2-328.5,268.4
			l49.6,65c8.2,1.7,16.4,2.2,24.2,2.4c16.1,0.5,30.1-7,42.5-13.5c13.6-7.2,25.6-16.9,33.9-30.5c9.4-15.4,13.7-35.5,21.8-52.2
			c13.4-27.2,36.5-44.6,66.7-49.9c10.4-1.8,22-2.4,28.4-10.1c6.8-8.3,6.2-23.4,11.6-33.1c13.1-22.9,51-8.6,73.1-17.6
			c26.8-10.9,46.1-26.4,54-59.2L1533.2,1186.4z"/></g><g id="g1427"><path id="path1423" class="st2" d="M1633.1,853.8L1440,924.3l-166.5-455.9l164.6-60.1c1.2,0.5,2.4,1,3.5,1.5
			c0.5,0.2,0.9,0.4,1.4,0.6s0.9,0.4,1.4,0.6c2,0.9,4,1.7,5.9,2.7c0.3,0.1,0.5,0.2,0.8,0.4c2.5,1.1,4.9,2.3,7.2,3.5
			c4.3,2.2,8.4,4.5,12.4,6.8c3,1.8,6,3.6,8.8,5.5c7.3,4.9,14.2,10.1,20.5,15.6c4.6,4,8.8,8.1,12.8,12.5l0,0c1.5,1.7,3,3.3,4.5,5l0,0
			c21.2,25,33,54.9,33.8,87.4c0.9,38.5-12.6,80.8,0.6,115.5c4.1,10.9,10.8,20.6,18.6,29.8l0,0c0.6,0.8,1.3,1.5,2,2.3l0,0
			c13.4,15.3,29.9,29.1,43.5,44.4c2.6,2.9,5.1,5.8,7.4,8.9l0.4,0.5c2.2,2.9,4.3,5.9,6.3,8.9c1.6,2.5,3,5,4.3,7.6
			c3.2,6.4,5.6,13.1,7.1,20C1645.6,808.7,1642.9,831,1633.1,853.8L1633.1,853.8z"/><path id="path1425" class="st3" d="M1375,444.3l5.7,18.6c3.5,11.5,1,18.6,1.8,30.8c10.2,145.2,63.9,280,157.1,394l76.9-27.8
			c4.1-7.3,7-15,9.6-22.4c5.3-15.2,2.4-30.8-0.1-44.6c-2.8-15.1-8.4-29.5-18.9-41.6c-11.9-13.6-29.8-23.7-43.2-36.5
			c-21.9-21-31.6-48.3-27.6-78.6c1.4-10.5,4.4-21.7-1.1-30.1c-5.9-8.9-20.5-12.9-28-21c-17.9-19.4,7.1-51.2,5.2-75
			c-2.3-28.8-11.3-51.9-40.2-69.3L1375,444.3z"/></g><g id="g1433"><path id="path1429" class="st2" d="M1456.8,1049.1l-96.6-79.6l187.9-228.1l82.4,67.9c0.1,0.8,0.2,1.6,0.3,2.3
			c0.1,0.3,0.1,0.6,0.1,0.9c0.1,0.3,0.1,0.6,0.1,0.9c0.2,1.3,0.3,2.6,0.4,3.9c0,0.2,0,0.4,0,0.5c0.2,1.6,0.3,3.3,0.4,4.9
			c0.2,2.9,0.3,5.8,0.2,8.6c0,2.1-0.1,4.2-0.2,6.3c-0.3,5.3-0.9,10.6-1.9,15.6c-0.7,3.6-1.6,7.1-2.6,10.6l0,0
			c-0.4,1.3-0.8,2.6-1.3,3.9l0,0c-6.6,18.8-18.6,34.3-35.5,44.8c-19.9,12.4-46.3,18.3-60.5,36c-4.4,5.5-7.5,12-9.9,19l0,0
			c-0.2,0.6-0.4,1.1-0.6,1.7l0,0c-3.9,11.7-6.1,24.7-9.9,36.5c-0.7,2.3-1.5,4.5-2.4,6.6l-0.1,0.3c-0.8,2.1-1.7,4.1-2.8,6
			c-0.8,1.6-1.7,3.1-2.6,4.6c-2.3,3.7-5.1,7-8.3,9.9C1484.4,1041.7,1471.8,1047.2,1456.8,1049.1z"/><path id="path1431" class="st3" d="M1592.1,787.1l-8,8.7c-5,5.4-9.5,6.2-15.6,10.5c-73.1,50.2-127.3,120-158.3,204.1l38.3,31.8
			c5.1-0.1,10-0.9,14.7-1.9c9.6-1.9,16.9-8.2,23.4-13.8c7.1-6.1,12.9-13.5,16-22.8c3.4-10.4,3.3-23,5.8-34
			c4.2-18,15.6-31.5,32.7-38.7c5.9-2.5,12.7-4.4,15.5-9.9c2.9-5.8,0.5-14.7,2.4-21.2c4.6-15.4,29.1-12.1,41-20.4
			c14.4-10.1,23.8-22,23.9-42.5L1592.1,787.1z"/></g><g id="g1439"><path id="path1435" class="st2" d="M1472.8,838.6c3.6,6.2,6.3,12.7,8.2,19.6c0.8,2.8,1.4,5.6,1.9,8.5c0.6,3.6,1.1,7.2,1.4,10.8
			l0.1,0.6c0.3,3.8,0.5,7.7,0.5,11.5c0.2,20.4-2.6,41.8-2.2,62.1l0,0c0,1,0,2,0.1,3l0,0c0.4,12.1,2.1,23.7,6.4,34.5
			c13.6,34.6,52.2,56.7,77.5,85.7c21.3,24.6,32.7,54.6,34,87.4l0,0c0.1,2.2,0.1,4.5,0.1,6.7l0,0c0,5.9-0.4,11.8-1,17.8
			c-0.9,8.3-2.4,16.8-4.6,25.3c-0.8,3.3-1.7,6.7-2.8,10c-1.4,4.5-2.8,8.9-4.6,13.4c-0.9,2.5-1.9,5-2.9,7.5c-0.1,0.3-0.2,0.5-0.3,0.8
			c-0.8,2-1.7,4-2.6,6c-0.2,0.5-0.4,0.9-0.6,1.3c-0.2,0.5-0.4,0.9-0.6,1.4c-0.5,1.1-1.1,2.3-1.6,3.5l-162.1,66.6l-184.4-448.9
			l190.1-78.1C1445.2,806,1462.3,820.6,1472.8,838.6L1472.8,838.6z"/><path id="path1437" class="st3" d="M1582.2,1209.2c9.6-32.3,0.8-55.4-17-78.3c-14.6-18.9-54.6-25.5-54.4-51.9
			c0.1-11.1,8.2-23.9,6.5-34.4c-1.6-9.9-11.4-16.2-19.5-23c-23.4-19.7-34.7-46.3-32.6-76.6c1.3-18.5,7.7-38,7.3-56.1
			c-0.3-16-5.9-30.4-14.1-43.4c-7.4-11.9-15.8-25.4-30-33c-6.9-3.7-14.3-7.4-22.2-10l-75.5,31.3c8,147,59.2,282.8,149.6,396.9
			c7.6,9.7,14.2,13.2,19.4,24l8.4,17.6L1582.2,1209.2z"/></g></g><g id="g1900" transform="matrix(1.0654381,0,0,1.0638646,-16.409863,-21.194545)"><path id="path1442" class="st4" d="M955.1,1597.6c-352.1-0.4-637.2-286.3-636.8-638.4c0.4-352.1,286.3-637.2,638.4-636.8
		s637.2,286.3,636.8,638.4c-0.3,256-153.7,486.9-389.5,586.5C1125.3,1580.6,1040.6,1597.7,955.1,1597.6L955.1,1597.6z"/><path id="path1444" class="st5" d="M963,1594.4c-345-0.4-624.4-281.8-624-628.3S619.5,339,964.6,339.4s624.4,281.8,624,628.3
		c-0.3,251.9-150.6,479.2-381.7,577.2C1129.8,1577.7,1046.8,1594.5,963,1594.4L963,1594.4z"/><path id="path1446" class="st6" d="M955.9,321c127.3-0.2,251.8,37.8,357.3,109.1c102.7,69.4,183.2,167,231.5,281.1
		c84.2,199,62,427-58.9,606c-69.4,102.7-167,183.2-281.1,231.5c-199,84.2-427,62-606-58.9c-102.7-69.4-183.2-167-231.5-281.1
		c-84.2-199-62-427,58.9-606c69.4-102.7,167-183.2,281.1-231.5C785.9,337.9,870.5,320.8,955.9,321L955.9,321 M955.9,320L955.9,320
		c-353.5,0-640,286.5-640,640l0,0c0,353.5,286.5,640,640,640l0,0c353.5,0,640-286.5,640-640l0,0C1595.9,606.5,1309.4,320,955.9,320z
		"/><g id="g1486"><path id="path1448" class="st7" d="M1407.3,503.6c-1-1.9-2.1-3.6-3.4-5.3c-1.2-1.6-2.7-3.4-4.6-6.3c-0.9-1.3-1.5-2.4-1.4-3.7
			c0.2-1,0.6-2,1.4-2.7c5.2-5.5,21.7-9.6,21.7-9.6c1.9-0.5,11.3-2.8,20.9-2.9c1.9,0,5.6,0,8.2,2.4c1.2,1,1.9,2.4,2.2,4
			c0.4,2.3-0.7,4.2-1.4,5.4c-3.4,5.7-8,10.3-9.5,11.8c-5,4.9-4.9,4.9-9.8,9.7c-3.7,3.5-7.2,7-12.1,8.4c-1.4,0.5-2.9,0.5-4.3,0.2
			c-2.5-0.7-4-2.7-4.8-3.9C1408.6,508.3,1409.3,507.4,1407.3,503.6L1407.3,503.6z"/><path id="path1450" class="st8" d="M1403.2,509.7c2.3-1.6,4.5-3.7,6.9-5c2.5-2.2,7.6-5.7,18.4-11.8c4.1-2.1,5.8-2.7,9.4-5.1
			c4.1-2.7,7.4-5.7,7.3-5.9c-0.1-0.2-2.3,1.6-6,3.9c-3.5,2.2-6.3,3.5-10.4,5.5c-1,0.5-5.1,2.5-11.2,5.1c-8.3,3.6-17.2,7.1-24.3,12.8
			c-0.6,0.5-1.2,1-1.4,1.8c-0.3,0.9,0.2,1.9,0.6,2.8c0.3,0.6,0.7,1.4,1.5,1.5c0.5,0.1,1.1-0.2,1.6-0.6
			C1398.1,513.1,1400.7,511.4,1403.2,509.7z"/><path id="path1452" class="st8" d="M1425.9,493.3c0.1,0,0.1,0,0.2-0.1c0.6-0.9,1.1-1.9,1.6-2.9c0.9-1.7,1.7-3.3,2.3-4.8
			c0-0.1,0.1-0.1,0.2-0.1c0.4,0,1-0.2,1.6-0.3c3.6-0.9,6.1-2.8,6.1-2.9c-0.1-0.1-2.1,0.9-5.6,2c-0.8,0.2-1.5,0.5-1.6,0.2
			c-0.2-0.4,1.3-1.7,1.5-1.9c0.6-0.5,1.3-1,2.1-1.4c0.1-0.1,0.2-0.2,0.1-0.3c0-0.1-0.2-0.2-0.3-0.2c-0.9,0.2-1.8,0.7-2.5,1.2
			c-1.1,0.9-1.6,2-2.8,4.2c-1.1,2.1-1.1,2.6-1.9,4.1c-0.6,1.1-1.3,2.1-2.1,3c-0.1,0.1-0.1,0.3,0,0.4c0,0.1,0.2,0.1,0.2,0.1
			L1425.9,493.3z"/><path id="path1454" class="st8" d="M1437.3,487.4c1,0.3,2,0.5,3.1,0.6c2.5,0.2,4.4-0.4,4.4-0.3s-1.3,0.7-2.9,0.9
			c-1.8,0.3-3.6,0.2-5.4-0.4L1437.3,487.4z"/><path id="path1456" class="st8" d="M1410.8,502.4c0.1,0,0.1-0.1,0.2-0.1c0.7-1.2,1.2-2.4,1.6-3.7c0.4-1.4,0.5-2.7,0.7-5.3
			c0.3-2.8,0.1-3.3,0.6-4.3c0.5-1.1,1.2-1.8,2.4-2.9c1-0.9,2.2-1.9,3.5-3c0.1-0.1,0.1-0.3,0-0.4s-0.2-0.1-0.3,0
			c-2,1.2-3.8,2.7-5.4,4.4c-0.1,0.1-0.3,0.1-0.4,0c0-0.1-0.1-0.1-0.1-0.2c0-0.3,0.1-0.6,0.1-0.9s0.1-0.7,0.1-1.1
			c0-0.1-0.1-0.3-0.2-0.3s-0.2,0.1-0.2,0.1c-0.2,0.4-0.3,0.7-0.4,1.1c-0.4,1.3-0.6,2.7-0.5,4c0,0.1-0.1,0.3-0.2,0.3
			s-0.2-0.1-0.2-0.1c-0.5-0.9-1.2-1.7-2.1-2.2c-0.7-0.3-1.3-0.8-1.8-1.3l0,0c-0.1-0.1-0.2-0.1-0.4,0c-0.1,0.1-0.1,0.2,0,0.3
			c0.1,0.1,0.2,0.3,0.2,0.4c0.6,0.9,1.3,1.2,1.9,1.7c1.2,1,2,2.2,2.5,3.6c0,0,0,0,0,0.1c0.1,3.3-0.7,6.7-2.5,9.5
			c-0.1,0.1,0,0.3,0.1,0.3s0.1,0,0.2,0H1410.8z"/><path id="path1458" class="st8" d="M1418.3,497.8c0.1,0,0.1,0,0.2,0c0.6,0.1,1.2,0.1,1.8,0.2c0.6,0,1.1,0.1,1.7,0.1
			c0.1,0,0.1,0,0.1,0c4.3-2.4,6.5-3.5,6.6-3.4s-1.6,1.2-5,3.3c-0.1,0.1-0.2,0.2-0.1,0.3c0,0.1,0.1,0.1,0.1,0.1c1,0.2,1.6,0.8,2.3,1
			c1.1,0.4,1.7,0.7,3,0.8c1,0,1.8,0.1,1.8,0.2s-1.1,0.1-2,0.1c-1.7-0.1-3.4-0.5-5.1-1.1c-1.4-0.5-3.5-0.8-6.6-0.1
			c-0.1,0-0.3,0-0.3-0.2c0-0.1,0-0.2,0.1-0.3L1418.3,497.8z"/><path id="path1460" class="st9" d="M1414.2,484.8c0,0,0.1-1.6,1.6-1.4c0,0.7-0.6,1.3-1.3,1.4
			C1414.4,484.8,1414.3,484.8,1414.2,484.8L1414.2,484.8z"/><path id="path1462" class="st9" d="M1413.4,484.4c0,0-1.4-1.5,0.1-2.7C1413.5,481.7,1414.9,483,1413.4,484.4z"/><path id="path1464" class="st9" d="M1413,484.8c0,0-1.5,1.5-2.7,0C1410.3,484.7,1411.5,483.3,1413,484.8z"/><path id="path1466" class="st9" d="M1428.5,485.6c0,0-1.1-1.2,0-2.1c0.6,0.5,0.6,1.3,0.2,1.9
			C1428.6,485.5,1428.5,485.6,1428.5,485.6z"/><path id="path1468" class="st9" d="M1427.6,486c0,0-2.1,0-1.9-1.9C1425.7,484.1,1427.6,483.9,1427.6,486z"/><path id="path1470" class="st9" d="M1427.7,486.5c0,0,0.1,2.1-1.8,2C1425.8,488.5,1425.6,486.6,1427.7,486.5z"/><path id="path1472" class="st9" d="M1445.8,482.4c0,0,1.1-1.2,2.1-0.1C1447.9,482.3,1447,483.5,1445.8,482.4z"/><path id="path1474" class="st9" d="M1445.5,481.6c0,0-0.1-2.1,1.8-2C1447.2,479.6,1447.5,481.4,1445.5,481.6z"/><path id="path1476" class="st9" d="M1444.9,481.6c0,0-2.1,0.2-2-1.7C1442.9,479.9,1444.7,479.5,1444.9,481.6z"/><path id="path1478" class="st9" d="M1437.2,489.4c0,0-0.2,1.6,1.3,1.6c0.2-0.7-0.3-1.4-1-1.6
			C1437.4,489.4,1437.3,489.4,1437.2,489.4z"/><path id="path1480" class="st9" d="M1436.3,489.6c0,0-1.6,1.3-0.4,2.6C1436,492.3,1437.6,491.3,1436.3,489.6z"/><path id="path1482" class="st9" d="M1430.5,499.7c0,0,1.2,1,2-0.2c-0.5-0.5-1.3-0.6-1.9-0.1
			C1430.6,499.6,1430.5,499.7,1430.5,499.7L1430.5,499.7z"/><path id="path1484" class="st9" d="M1430.2,500.6c0,0,0.1,2.1,2,1.8C1432.2,502.4,1432.3,500.5,1430.2,500.6z"/></g><g id="g1526"><path id="path1488" class="st7" d="M1432.6,545.6c-0.6-1.1-1.2-2.1-2-3.1c-0.7-0.9-1.6-2-2.7-3.7c-0.5-0.8-0.9-1.4-0.8-2.2
			c0.1-0.6,0.4-1.2,0.8-1.6c3.1-3.2,12.6-5.6,12.6-5.6c1.1-0.3,6.6-1.6,12.2-1.7c1.1,0,3.3,0,4.8,1.4c0.7,0.6,1.1,1.4,1.3,2.3
			c0.2,1.3-0.4,2.5-0.8,3.1c-2,3.4-4.7,6-5.6,6.9c-2.9,2.9-2.9,2.9-5.7,5.7c-2.1,2.1-4.2,4.1-7,4.9c-0.8,0.3-1.7,0.3-2.5,0.1
			c-1.5-0.4-2.3-1.6-2.8-2.3C1433.3,548.3,1433.7,547.8,1432.6,545.6L1432.6,545.6z"/><path id="path1490" class="st8" d="M1430.2,549.1c1.4-0.9,2.6-2.1,4-2.9c1.5-1.3,4.4-3.3,10.8-6.9c2.4-1.2,3.4-1.5,5.5-3
			c2.4-1.6,4.3-3.3,4.2-3.4c-0.1-0.1-1.3,0.9-3.5,2.3c-2.1,1.3-3.7,2.1-6.1,3.2c-0.6,0.3-3,1.5-6.5,3c-4.8,2.1-10,4.1-14.2,7.5
			c-0.3,0.3-0.7,0.6-0.8,1.1c-0.2,0.5,0.1,1.1,0.4,1.6c0.2,0.4,0.4,0.8,0.9,0.9c0.3,0,0.6-0.1,0.9-0.3
			C1427.2,551.1,1428.7,550.1,1430.2,549.1L1430.2,549.1z"/><path id="path1492" class="st8" d="M1443.4,539.6C1443.4,539.6,1443.5,539.5,1443.4,539.6c0.4-0.6,0.7-1.2,1-1.7
			c0.5-1,1-1.9,1.3-2.8l0.1-0.1c0.3,0,0.6-0.1,0.9-0.2c2.1-0.5,3.6-1.6,3.5-1.7c0-0.1-1.2,0.5-3.3,1.2c-0.5,0.1-0.9,0.3-1,0.1
			s0.7-1,0.9-1.1c0.4-0.3,0.8-0.6,1.2-0.8c0.1,0,0.1-0.1,0.1-0.2c0-0.1-0.1-0.1-0.2-0.1c-0.5,0.1-1.1,0.4-1.5,0.7
			c-0.6,0.5-1,1.2-1.6,2.5c-0.6,1.2-0.6,1.5-1.1,2.4c-0.3,0.6-0.8,1.2-1.2,1.7c-0.1,0.1-0.1,0.2,0,0.2h0.1L1443.4,539.6z"/><path id="path1494" class="st8" d="M1450.1,536.1c0.6,0.2,1.2,0.3,1.8,0.3c1.5,0.1,2.6-0.3,2.6-0.2s-0.7,0.4-1.7,0.5
			c-1,0.2-2.1,0.1-3.1-0.2L1450.1,536.1z"/><path id="path1496" class="st8" d="M1434.6,544.9C1434.6,544.9,1434.7,544.9,1434.6,544.9c0.5-0.8,0.8-1.5,1-2.3s0.3-1.6,0.4-3.1
			c0.1-1.7,0.1-1.9,0.3-2.5c0.3-0.7,0.7-1,1.4-1.7c0.6-0.5,1.3-1.1,2-1.8c0.1-0.1,0.1-0.2,0-0.2c0-0.1-0.1,0-0.2,0
			c-1.2,0.7-2.2,1.6-3.2,2.6c-0.1,0.1-0.2,0.1-0.2,0c0,0-0.1-0.1,0-0.1c0-0.2,0-0.3,0-0.5s0-0.4,0.1-0.6c0-0.1-0.1-0.2-0.1-0.1
			c-0.1,0-0.1,0-0.1,0.1c-0.1,0.2-0.2,0.4-0.2,0.6c-0.2,0.8-0.3,1.5-0.3,2.4c0,0.1-0.1,0.2-0.1,0.2s-0.1,0-0.1-0.1
			c-0.3-0.5-0.7-1-1.2-1.3c-0.4-0.2-0.7-0.5-1.1-0.8l0,0c-0.1-0.1-0.1-0.1-0.2,0s-0.1,0.1,0,0.2c0,0.1,0.1,0.2,0.1,0.2
			c0.4,0.5,0.7,0.7,1.1,1c0.7,0.6,1.1,1.3,1.4,2.1l0,0c0.1,2-0.4,3.9-1.5,5.6c0,0.1,0,0.2,0,0.2h0.1L1434.6,544.9z"/><path id="path1498" class="st8" d="M1439,542.2C1439,542.1,1439,542.1,1439,542.2c0.4,0,0.8,0.1,1.2,0.1c0.3,0,0.6,0,1,0.1
			c0,0,0,0,0.1,0c2.5-1.4,3.8-2,3.8-2s-0.9,0.7-2.9,1.9c-0.1,0.1-0.1,0.1,0,0.2c0,0,0,0.1,0.1,0.1c0.6,0.1,1,0.4,1.3,0.6
			c0.6,0.2,1,0.4,1.8,0.5c0.6,0,1.1,0.1,1.1,0.1s-0.7,0.1-1.2,0.1c-1,0-2-0.3-3-0.6c-0.8-0.3-2-0.5-3.8,0c-0.1,0-0.2,0-0.2-0.1
			c0,0,0-0.1,0.1-0.2L1439,542.2z"/><path id="path1500" class="st9" d="M1436.6,534.6c0,0,0-0.9,0.9-0.8c0,0.4-0.3,0.8-0.7,0.8
			C1436.7,534.6,1436.7,534.6,1436.6,534.6L1436.6,534.6z"/><path id="path1502" class="st9" d="M1436.1,534.3c0,0-0.8-0.9,0.1-1.6C1436.2,532.8,1437,533.5,1436.1,534.3z"/><path id="path1504" class="st9" d="M1435.9,534.6c0,0-0.9,0.9-1.6,0C1434.3,534.5,1435.1,533.7,1435.9,534.6z"/><path id="path1506" class="st9" d="M1444.9,535.1c0,0-0.7-0.7,0-1.2c0.3,0.3,0.4,0.8,0.1,1.1C1445,535,1445,535,1444.9,535.1
			L1444.9,535.1z"/><path id="path1508" class="st9" d="M1444.4,535.3c0,0-1.2,0-1.1-1.1C1443.3,534.2,1444.4,534.1,1444.4,535.3z"/><path id="path1510" class="st9" d="M1444.5,535.6c0,0,0,1.2-1.1,1.1C1443.4,536.7,1443.2,535.7,1444.5,535.6z"/><path id="path1512" class="st9" d="M1455.1,533.2c0,0,0.6-0.7,1.2,0C1456.3,533.1,1455.7,533.8,1455.1,533.2z"/><path id="path1514" class="st9" d="M1454.8,532.7c0,0-0.1-1.2,1-1.2C1455.9,531.6,1456,532.6,1454.8,532.7z"/><path id="path1516" class="st9" d="M1454.5,532.7c0,0-1.2,0.1-1.2-1C1453.3,531.7,1454.4,531.5,1454.5,532.7z"/><path id="path1518" class="st9" d="M1450,537.3c0,0-0.1,0.9,0.7,0.9C1450.8,537.8,1450.5,537.4,1450,537.3
			C1450.1,537.3,1450.1,537.3,1450,537.3z"/><path id="path1520" class="st9" d="M1449.5,537.4c0,0-1,0.7-0.2,1.5C1449.3,539,1450.2,538.4,1449.5,537.4z"/><path id="path1522" class="st9" d="M1446.1,543.3c0,0,0.7,0.6,1.2-0.1C1447,542.9,1446.5,542.9,1446.1,543.3L1446.1,543.3z"/><path id="path1524" class="st9" d="M1445.9,543.8c0,0,0.1,1.2,1.2,1C1447.1,544.9,1447.2,543.8,1445.9,543.8z"/></g><g id="g1566"><path id="path1528" class="st7" d="M467.6,614.4c-0.8,1.6-1.4,3.2-1.9,4.9c-0.5,1.6-1,3.5-2.1,6.3c-0.5,1.2-0.9,2.2-1.9,2.8
			c-0.8,0.4-1.7,0.6-2.6,0.4c-6.4-0.9-17.3-10.1-17.3-10.1c-1.3-1.1-7.5-6.4-12.3-12.9c-1-1.3-2.8-3.8-2.4-6.8
			c0.1-1.3,0.7-2.5,1.6-3.5c1.4-1.4,3.2-1.6,4.4-1.7c5.6-0.5,11.1,0.4,12.8,0.7c5.9,1,5.8,0.9,11.5,1.9c4.2,0.8,8.4,1.5,11.7,4.1
			c1,0.7,1.8,1.7,2.2,2.9c0.8,2.1,0.1,4-0.3,5.2C470.2,611.2,469.2,611.1,467.6,614.4L467.6,614.4z"/><path id="path1530" class="st8" d="M473.8,614.2c-2.2-0.8-4.7-1.3-6.9-2.2c-2.7-0.7-7.6-2.4-17.2-6.8c-3.5-1.7-4.7-2.7-8.1-3.9
			c-3.9-1.5-7.6-2.3-7.6-2.1s2.2,0.8,5.6,2.2c3.2,1.4,5.5,2.6,9,4.4c0.8,0.5,4.2,2.3,9,5.2c6.6,3.9,13.3,8.3,20.8,10.3
			c0.6,0.2,1.3,0.3,1.9,0.1c0.8-0.3,1.2-1.1,1.6-1.8c0.3-0.5,0.6-1.2,0.3-1.7c-0.2-0.4-0.7-0.6-1.1-0.8
			C478.7,616,476.3,615.1,473.8,614.2L473.8,614.2z"/><path id="path1532" class="st8" d="M451.4,606.7c0,0-0.1-0.1-0.2,0c-0.9,0.1-1.8,0.2-2.8,0.3c-1.6,0.2-3.1,0.5-4.4,0.8
			c-0.1,0-0.1,0-0.2-0.1c-0.3-0.3-0.6-0.6-1-0.9c-2.4-2.1-4.9-2.8-5-2.7c0,0.1,1.6,1,4.1,2.8c0.6,0.4,1.1,0.8,1,1
			c-0.1,0.4-1.8,0-2-0.1c-0.7-0.2-1.3-0.4-2-0.7c-0.1-0.1-0.2,0-0.3,0.1c-0.1,0.1,0,0.2,0,0.3c0.6,0.5,1.3,0.9,2.1,1.1
			c1.1,0.3,2.2,0.1,4.3-0.2c2-0.3,2.3-0.6,3.8-0.7c1-0.1,2.1-0.1,3.1,0c0.1,0,0.2-0.1,0.2-0.2c0-0.1,0-0.1-0.1-0.2L451.4,606.7z"/><path id="path1534" class="st8" d="M441.6,601.8c-0.3-0.8-0.6-1.7-1.1-2.4c-1.1-1.8-2.5-2.8-2.4-2.9c0.1-0.1,1.1,0.5,2,1.5
			c1.1,1.1,1.9,2.4,2.4,3.9L441.6,601.8z"/><path id="path1536" class="st8" d="M465.1,612.6c-0.1,0-0.1-0.1-0.2-0.1c-1.1,0.1-2.3,0.4-3.3,0.7c-1.1,0.4-2.1,1-4,2.1
			c-2.1,1.2-2.3,1.6-3.2,1.7c-1,0.2-1.8,0.1-3.2-0.3c-1.1-0.2-2.4-0.5-3.8-0.9c-0.1,0-0.2,0.1-0.3,0.2c0,0.1,0,0.2,0.1,0.2
			c1.8,0.8,3.7,1.3,5.7,1.5c0.1,0,0.2,0.1,0.2,0.3c0,0.1,0,0.1-0.1,0.1c-0.2,0.1-0.4,0.2-0.6,0.4c-0.2,0.1-0.5,0.3-0.8,0.4
			c-0.1,0.1-0.1,0.2-0.1,0.3s0.1,0.1,0.2,0.1c0.3-0.1,0.6-0.1,0.9-0.3c1.1-0.4,2.1-0.9,3-1.7c0.1-0.1,0.2-0.1,0.3,0
			c0.1,0,0.1,0.2,0,0.2c-0.4,0.8-0.6,1.7-0.5,2.6c0.1,0.6,0.1,1.3,0,1.9l0,0c0,0.1,0,0.2,0.2,0.3c0.1,0,0.2,0,0.2-0.1
			c0.1-0.1,0.1-0.2,0.1-0.4c0.3-0.9,0.2-1.5,0.3-2.2c0.1-1.3,0.5-2.4,1.3-3.5c0,0,0,0,0-0.1c2.3-1.7,5-2.8,7.8-3
			c0.1,0,0.2-0.1,0.2-0.2c0,0,0-0.1-0.1-0.1L465.1,612.6z"/><path id="path1538" class="st8" d="M458.2,609.7c-0.1,0-0.1-0.1-0.1-0.1c-0.2-0.4-0.5-0.9-0.8-1.3c-0.3-0.4-0.5-0.8-0.8-1.2
			c0,0-0.1,0-0.1-0.1c-3.8-1.8-5.6-2.7-5.6-2.8s1.6,0.5,4.8,1.8c0.1,0,0.2,0,0.3-0.1c0-0.1,0-0.1,0-0.2c-0.3-0.8-0.3-1.5-0.5-2
			c-0.3-0.9-0.4-1.5-0.9-2.5c-0.4-0.7-0.8-1.3-0.8-1.3s0.7,0.7,1.1,1.3c0.8,1.2,1.4,2.6,1.7,4c0.3,1.2,1.2,2.8,3.2,4.5
			c0.1,0.1,0.1,0.2,0,0.3c0,0.1-0.1,0.1-0.2,0.1L458.2,609.7z"/><path id="path1540" class="st9" d="M451.3,619c0,0-1.1,0.7-1.7-0.4c0.5-0.4,1.2-0.3,1.6,0.2C451.2,618.8,451.2,618.9,451.3,619z"/><path id="path1542" class="st9" d="M451.4,619.7c0,0-0.4,1.7-1.9,1.2C449.5,620.9,449.7,619.4,451.4,619.7z"/><path id="path1544" class="st9" d="M451.8,619.8c0,0,1.7,0.3,1.3,1.9C453.1,621.7,451.6,621.5,451.8,619.8z"/><path id="path1546" class="st9" d="M444.8,608.8c0,0-0.2,1.3-1.4,1c0.1-0.6,0.6-1.1,1.2-1.1C444.6,608.7,444.7,608.7,444.8,608.8
			L444.8,608.8z"/><path id="path1548" class="st9" d="M445.5,609.2c0,0,1.1,1.4-0.3,2.2C445.1,611.4,444,610.2,445.5,609.2z"/><path id="path1550" class="st9" d="M445.8,608.9c0,0,1.4-1.1,2.3,0.3C448.1,609.1,446.9,610.2,445.8,608.9z"/><path id="path1552" class="st9" d="M434,598.4c0,0-1.3-0.2-1.1-1.4C432.9,597.1,434.2,597.1,434,598.4z"/><path id="path1554" class="st9" d="M433.6,599.1c0,0-1.4,1.1-2.2-0.2C431.4,598.9,432.5,597.7,433.6,599.1z"/><path id="path1556" class="st9" d="M433.9,599.5c0,0,1.1,1.3-0.2,2.2C433.7,601.7,432.6,600.6,433.9,599.5z"/><path id="path1558" class="st9" d="M443.1,600.9c0,0,1.2-0.7,0.5-1.7c-0.6,0.2-0.8,0.9-0.6,1.5C443,600.8,443,600.8,443.1,600.9z"/><path id="path1560" class="st9" d="M443.6,601.4c0,0,1.7,0.5,2-1.1C445.7,600.3,444.2,599.7,443.6,601.4z"/><path id="path1562" class="st9" d="M453.5,600.4c0,0,0.1-1.4-1.1-1.3c-0.1,0.6,0.3,1.2,0.9,1.3
			C453.3,600.4,453.4,600.4,453.5,600.4z"/><path id="path1564" class="st9" d="M454.2,600.2c0,0,1.4-1.1,0.2-2.2C454.5,597.9,453.1,598.8,454.2,600.2z"/></g><g id="g1604"><path id="path1568" class="st10" d="M439.6,497.2c-18.6-10.7-45.4-9.2-50.7-1.2c-5.3,8,4.1,33.2,21.3,46c19.6,14.5,35,10,43.8-3.4
			S460.8,509.3,439.6,497.2L439.6,497.2z"/><path id="path1570" class="st11" d="M392.8,525.1c-1.6-1-2-3.2-2-3.2s2.2-0.7,3.7,0.3c1.6,1,2,3.2,2,3.2S394.3,526.1,392.8,525.1z
			"/><path id="path1572" class="st12" d="M430.9,511.6c-0.6-1.8,0.4-3.7,0.4-3.7s2.1,0.9,2.7,2.6c0.6,1.8-0.4,3.7-0.4,3.7
			S431.5,513.4,430.9,511.6z"/><path id="path1574" class="st12" d="M396.8,508.9c1.8,0.5,2.9,2.4,2.9,2.4s-1.8,1.2-3.7,0.8c-1.9-0.4-2.9-2.4-2.9-2.4
			S395,508.4,396.8,508.9z"/><path id="path1576" class="st12" d="M403,494.3c1.2,1.4,1.1,3.6,1.1,3.6s-2.2,0-3.5-1.4s-1.1-3.6-1.1-3.6S401.8,492.9,403,494.3z"/><path id="path1578" class="st12" d="M437.2,511.3c1.7-0.8,3.7-0.1,3.7-0.1s-0.6,2.2-2.2,3s-3.7,0.1-3.7,0.1
			S435.6,512.1,437.2,511.3L437.2,511.3z"/><path id="path1580" class="st12" d="M432.1,531c1,1.6,0.4,3.7,0.4,3.7s-2.2-0.3-3.2-1.9c-1-1.6-0.4-3.7-0.4-3.7
			S431.1,529.4,432.1,531z"/><path id="path1582" class="st12" d="M417.3,497.6c1.8-0.3,3.6,1.2,3.6,1.2s-1.2,1.9-3.1,2.2c-1.9,0.3-3.6-1.2-3.6-1.2
			S415.5,497.9,417.3,497.6z"/><path id="path1584" class="st11" d="M410.4,525.5c1,1.6,0.4,3.7,0.4,3.7s-2.2-0.3-3.2-1.9c-1-1.6-0.4-3.7-0.4-3.7
			S409.4,524,410.4,525.5z"/><path id="path1586" class="st11" d="M450.5,516.3c1.8,0.2,3.2,2,3.2,2s-1.7,1.5-3.5,1.4s-3.2-2-3.2-2S448.7,516.1,450.5,516.3z"/><path id="path1588" class="st12" d="M432.7,544.2c1.8,0.2,3.2,2,3.2,2s-1.7,1.5-3.5,1.4s-3.2-2-3.2-2S430.9,544.1,432.7,544.2z"/><path id="path1590" class="st11" d="M443.1,499.4c-1.6,1-3.8,0.2-3.8,0.2s0.5-2.2,2.1-3.1c1.6-1,3.8-0.2,3.8-0.2
			S444.6,498.4,443.1,499.4z"/><path id="path1592" class="st11" d="M440.4,495.9c0.7,1.7-0.3,3.8-0.3,3.8s-2.1-0.7-2.8-2.4c-0.7-1.7,0.3-3.8,0.3-3.8
			S439.8,494.2,440.4,495.9z"/><path id="path1594" class="st11" d="M415.3,547.9c-1.8,0-3.4-1.6-3.4-1.6s1.4-1.7,3.3-1.8s3.4,1.6,3.4,1.6
			S417.1,547.9,415.3,547.9z"/><path id="path1596" class="st11" d="M421.1,546.7c0.7,1.8-0.3,3.7-0.3,3.7s-2.1-0.8-2.8-2.5c-0.7-1.7,0.3-3.7,0.3-3.7
			S420.4,545.1,421.1,546.7z"/><path id="path1598" class="st13" d="M435.7,526.7l0.5-0.1c0.4,0,0.7-0.4,0.6-0.9l0,0l-1.9-11.2c0-0.4-0.4-0.7-0.9-0.6L435.7,526.7
			z"/><path id="path1600" class="st13" d="M447.3,533.9l0.4,1.6l-15.3,3.7c-0.5,0.1-1.1-0.2-1.2-0.7L447.3,533.9z"/><path id="path1602" class="st13" d="M470.1,546.6l-2.5,3.7c-0.1,0.3-0.5,0.3-0.8,0.2l0,0l-50.6-35.9c-0.3-0.2-0.3-0.5-0.2-0.8
			c0.2-0.3,0.5-0.3,0.8-0.2l53.1,32.1C470.2,545.9,470.3,546.2,470.1,546.6z"/></g><g id="g1656"><path id="path1606" class="st12" d="M968.3,189c0.2-0.1,0.4-0.2,0.6-0.2c1.5-0.4,3.1-0.2,4.3,0.7c-0.3-1.7-0.1-3.6,1.1-4.9
			c1.1-1.3,3.2-1.8,4.7-0.8c1.4,0.9,1.7,2.9,1.1,4.4c0.5-1.2,1.8-1.7,3-1.2s1.7,1.8,1.2,3c0.5-0.5,1.1-0.9,1.8-1
			c0.7,0,1.5,0.6,1.3,1.3c1.5-0.8,3.4-0.8,4.8,0.3c1.5,1,1.5,3.4-0.6,3.6c-0.7,0-1.4-0.1-2.1-0.1c-1.9-0.1-3.6,1.1-5.4,1.6
			c-4.5,1.4-9.5-0.6-14.1,0.4c-2.8,0.6-5.6,2.3-8.3,1.4c-0.7-0.2-1.4-0.7-1.6-1.3c-0.3-1.1,0.9-2.1,2-2.3c0.1-2.2,2.8-3.9,4.8-2.9
			C966.9,190,967.5,189.3,968.3,189z"/><path id="path1608" class="st14" d="M959.5,254.6l0.2,1.9c0,0.3,0.3,0.5,0.6,0.5s0.5-0.3,0.5-0.6l-0.2-1.9c0-0.3-0.3-0.5-0.6-0.5
			S959.5,254.3,959.5,254.6z"/><path id="path1610" class="st14" d="M961.1,251.1l1,3.7c0.1,0.3,0.4,0.5,0.7,0.3s0.4-0.5,0.3-0.8l-1-3.7c-0.1-0.3-0.5-0.5-0.7-0.3
			C961.1,250.5,961,250.8,961.1,251.1z"/><path id="path1612" class="st14" d="M964.7,253.2l0.6,2.4c0.1,0.2,0.2,0.3,0.3,0.3c0.3,0.1,0.6,0,0.8-0.3c0.1-0.2,0-0.3,0-0.4
			l-0.6-2.4c-0.1-0.2-0.2-0.3-0.3-0.3c-0.3-0.1-0.6,0-0.8,0.3C964.7,252.9,964.7,253.1,964.7,253.2z"/><path id="path1614" class="st14" d="M1002.6,215.6l0.2,1.9c0,0.3,0.3,0.5,0.6,0.5s0.5-0.3,0.5-0.6l-0.2-1.9c0-0.3-0.3-0.5-0.6-0.5
			S1002.5,215.3,1002.6,215.6z"/><path id="path1616" class="st14" d="M1004.1,212.1l1,3.7c0.1,0.3,0.5,0.5,0.7,0.3c0.3-0.2,0.4-0.5,0.3-0.8l-1-3.7
			c-0.1-0.3-0.5-0.4-0.7-0.3C1004.1,211.5,1004,211.8,1004.1,212.1z"/><path id="path1618" class="st14" d="M1007.7,214.2l0.6,2.4c0.1,0.3,0.5,0.4,0.7,0.3c0.2-0.1,0.3-0.2,0.3-0.3c0.1-0.2,0-0.3,0-0.4
			l-0.6-2.4c-0.1-0.2-0.2-0.3-0.3-0.3c-0.2-0.1-0.3,0-0.5,0c-0.2,0.1-0.3,0.2-0.3,0.3C1007.7,213.9,1007.7,214,1007.7,214.2z"/><path id="path1620" class="st15" d="M1016.9,229.2c-1.4-27.1-21.3-54.6-33.4-54.7c-12.1-0.1-32.5,27-34.3,54.1
			c-2.1,30.7,13.3,44,33.5,44.2C1002.8,273,1018.4,260,1016.9,229.2L1016.9,229.2z"/><path id="path1622" class="st12" d="M960.9,203.3c-0.1-2.3,2-4.3,2-4.3s2.2,1.8,2.3,4.2s-2,4.3-2,4.3S961,205.6,960.9,203.3z"/><path id="path1624" class="st12" d="M995.5,229.8c1.4-1.9,4.3-2.1,4.3-2.1s0.5,2.8-0.9,4.7s-4.3,2.1-4.3,2.1
			S994.1,231.6,995.5,229.8z"/><path id="path1626" class="st16" d="M975.2,191.7c0.8,2.2-0.6,4.7-0.6,4.7s-2.6-1.1-3.4-3.3c-0.8-2.2,0.6-4.7,0.6-4.7
			S974.4,189.5,975.2,191.7z"/><path id="path1628" class="st16" d="M994.9,188.3c-0.6,2.3-3.1,3.6-3.1,3.6s-1.5-2.4-1-4.6c0.5-2.2,3.1-3.6,3.1-3.6
			S995.5,186.1,994.9,188.3z"/><path id="path1630" class="st12" d="M1000.2,236.3c2,1.2,2.6,3.9,2.6,3.9s-2.7,0.9-4.7-0.3s-2.6-3.9-2.6-3.9
			S998.2,235.2,1000.2,236.3z"/><path id="path1632" class="st12" d="M975.8,244.3c-0.9,2.1-3.6,3-3.6,3s-1.2-2.6-0.2-4.7c0.9-2.1,3.6-3,3.6-3
			S976.7,242.2,975.8,244.3z"/><path id="path1634" class="st16" d="M1001.1,205.8c1.5,1.7,1.2,4.6,1.2,4.6s-2.8,0-4.4-1.8c-1.6-1.8-1.2-4.6-1.2-4.6
			S999.6,204,1001.1,205.8z"/><path id="path1636" class="st17" d="M966.7,217.5c-0.9,2.1-3.6,3-3.6,3s-1.2-2.6-0.2-4.7c0.9-2.1,3.6-3,3.6-3
			S967.7,215.4,966.7,217.5z"/><path id="path1638" class="st16" d="M1004.1,253.9c1.1,2.1,0,4.7,0,4.7s-2.8-0.7-3.8-2.8c-1.1-2.1,0-4.7,0-4.7
			S1003,251.8,1004.1,253.9L1004.1,253.9z"/><path id="path1640" class="st12" d="M962.1,254c1.1,2.1,0,4.7,0,4.7s-2.8-0.7-3.8-2.8c-1.1-2.1,0-4.7,0-4.7S961.1,251.9,962.1,254
			L962.1,254z"/><path id="path1642" class="st17" d="M1016.9,234.3c-2.1-1.1-2.8-3.8-2.8-3.8s2.7-1,4.8,0.1s2.8,3.8,2.8,3.8
			S1019,235.4,1016.9,234.3z"/><path id="path1644" class="st17" d="M1018.8,229.3c-1.3,1.9-4.2,2.3-4.2,2.3s-0.7-2.7,0.7-4.7s4.2-2.3,4.2-2.3
			S1020.1,227.3,1018.8,229.3z"/><path id="path1646" class="st17" d="M947.6,234c-1.3-1.9-0.6-4.7-0.6-4.7s2.8,0.4,4.1,2.3c1.3,2,0.6,4.7,0.6,4.7
			S948.9,235.9,947.6,234z"/><path id="path1648" class="st18" d="M953.1,241.6c-1.4,1.9-4.2,2.2-4.2,2.2s-0.6-2.8,0.8-4.7c1.4-1.9,4.2-2.2,4.2-2.2
			S954.5,239.6,953.1,241.6z"/><path id="path1650" class="st13" d="M982.9,245.2l0.4,0.5c0.4,0.4,1,0.4,1.3,0.1l0,0l10.5-9.7c0.4-0.4,0.4-0.9,0.1-1.3
			L982.9,245.2z"/><path id="path1652" class="st13" d="M983.2,262.5l-1.4,1.5l-14.4-13.7c-0.5-0.5-0.5-1.2-0.1-1.8L983.2,262.5z"/><path id="path1654" class="st13" d="M986.3,331.6l-5.3-1.4c-0.4,0-0.8-0.4-0.8-1l0,0l2.2-112.9c0-0.5,0.3-0.9,0.7-0.9
			s0.8,0.4,0.8,0.9l3.5,113.1c0,0.5,0.4,2,0,2L986.3,331.6z"/></g><g id="g1708"><path id="path1658" class="st12" d="M1615.5,653.7c0.2,0.1,0.3,0.3,0.4,0.4c0.9,1.2,1.2,2.7,0.8,4.1c1.4-0.9,3.2-1.3,4.8-0.8
			c1.6,0.6,2.7,2.3,2.4,3.9c-0.4,1.5-2,2.5-3.5,2.6c1.2,0,2.1,1,2.1,2.2s-1,2.1-2.2,2.1c0.6,0.3,1.2,0.7,1.5,1.3s0,1.5-0.7,1.6
			c1.3,1.1,1.9,2.8,1.4,4.4c-0.4,1.7-2.5,2.5-3.4,0.7c-0.2-0.6-0.4-1.3-0.6-2c-0.6-1.7-2.2-2.9-3.3-4.3c-2.8-3.6-2.7-8.7-5.2-12.5
			c-1.5-2.3-4-4.2-4.1-6.9c-0.1-0.7,0.1-1.5,0.7-1.9c0.9-0.6,2.2,0.1,2.8,1c2-0.7,4.4,1.2,4.2,3.3
			C1614.1,652.8,1614.9,653.1,1615.5,653.7L1615.5,653.7z"/><path id="path1660" class="st14" d="M1553.8,668.6l-1.6,0.8c-0.3,0.1-0.4,0.5-0.2,0.8c0.1,0.3,0.5,0.4,0.8,0.2l1.6-0.8
			c0.3-0.1,0.4-0.5,0.2-0.8C1554.4,668.6,1554,668.5,1553.8,668.6z"/><path id="path1662" class="st14" d="M1557.4,668.8l-2.9,2.1c-0.2,0.2-0.3,0.6,0,0.8c0.2,0.2,0.6,0.2,0.8,0l2.9-2.1
			c0.2-0.2,0.2-0.6,0-0.8S1557.6,668.6,1557.4,668.8z"/><path id="path1664" class="st14" d="M1556.8,672.8l-2,1.4c-0.1,0.1-0.2,0.3-0.2,0.4c0,0.3,0.2,0.5,0.5,0.6c0.2,0,0.3-0.1,0.4-0.1
			l2-1.4c0.1-0.1,0.2-0.3,0.2-0.4c0-0.3-0.2-0.6-0.5-0.6C1557.1,672.6,1556.9,672.7,1556.8,672.8z"/><path id="path1666" class="st14" d="M1603.6,693.5l-1.6,0.8c-0.3,0.1-0.4,0.5-0.2,0.8c0.1,0.3,0.5,0.4,0.8,0.2l1.6-0.8
			c0.3-0.1,0.4-0.5,0.2-0.8S1603.9,693.4,1603.6,693.5z"/><path id="path1668" class="st14" d="M1607.2,693.7l-2.9,2.1c-0.2,0.2-0.2,0.6,0,0.8s0.6,0.2,0.8,0l2.9-2.1c0.2-0.2,0.2-0.6,0-0.8
			S1607.4,693.5,1607.2,693.7z"/><path id="path1670" class="st14" d="M1606.6,697.7l-2,1.4c-0.2,0.2-0.2,0.6,0,0.8c0.1,0.1,0.3,0.2,0.4,0.2c0.2,0,0.3-0.1,0.4-0.1
			l2-1.4c0.1-0.1,0.2-0.3,0.2-0.4c0-0.2-0.1-0.3-0.2-0.4c-0.1-0.1-0.3-0.2-0.4-0.2C1606.9,697.5,1606.7,697.6,1606.6,697.7
			L1606.6,697.7z"/><path id="path1672" class="st15" d="M1596.3,711.1c23.8-10.6,41.4-38,37.3-48.8c-4.1-10.9-35.4-19.7-60.3-11.9
			c-28.2,8.8-34.7,27.1-27.8,45.3C1552.4,713.9,1569.3,723.1,1596.3,711.1z"/><path id="path1674" class="st12" d="M1600.1,652.1c2.1-0.9,4.6,0.3,4.6,0.3s-0.9,2.6-2.9,3.5c-2.1,0.9-4.6-0.3-4.6-0.3
			S1598.1,652.9,1600.1,652.1z"/><path id="path1676" class="st12" d="M1588.5,692.2c2.2,0.6,3.3,3.1,3.3,3.1s-2.3,1.4-4.5,0.8c-2.2-0.6-3.3-3.1-3.3-3.1
			S1586.3,691.5,1588.5,692.2z"/><path id="path1678" class="st16" d="M1615.4,660.8c-1.7,1.5-4.4,1.1-4.4,1.1s0.1-2.7,1.8-4.2c1.7-1.5,4.4-1.1,4.4-1.1
			S1617.1,659.4,1615.4,660.8z"/><path id="path1680" class="st16" d="M1625.3,677.3c-2.2,0.3-4.3-1.5-4.3-1.5s1.6-2.2,3.8-2.5c2.2-0.3,4.3,1.5,4.3,1.5
			S1627.5,677,1625.3,677.3z"/><path id="path1682" class="st12" d="M1584.3,698.6c-0.3,2.2-2.6,3.7-2.6,3.7s-1.8-2.1-1.4-4.3c0.3-2.2,2.6-3.7,2.6-3.7
			S1584.6,696.4,1584.3,698.6z"/><path id="path1684" class="st12" d="M1568.6,679.6c-2.2-0.1-4-2.2-4-2.2s1.9-2,4.1-1.9s4,2.2,4,2.2S1570.9,679.7,1568.6,679.6z"/><path id="path1686" class="st16" d="M1611.9,688.9c-1,2-3.7,2.7-3.7,2.7s-1-2.5,0-4.5s3.7-2.7,3.7-2.7S1612.9,686.9,1611.9,688.9z
			"/><path id="path1688" class="st17" d="M1589.4,662.2c-2.2-0.1-4-2.2-4-2.2s1.9-2,4.1-1.9s4,2.2,4,2.2S1591.6,662.3,1589.4,662.2z"/><path id="path1690" class="st16" d="M1569.9,708.2c-1.5,1.7-4.2,1.7-4.2,1.7s-0.3-2.7,1.2-4.4s4.2-1.7,4.2-1.7
			S1571.4,706.5,1569.9,708.2z"/><path id="path1692" class="st12" d="M1555.2,670.7c-1.5,1.7-4.2,1.7-4.2,1.7s-0.3-2.7,1.2-4.4s4.2-1.7,4.2-1.7
			S1556.7,669.1,1555.2,670.7z"/><path id="path1694" class="st17" d="M1591.8,712.8c0.2-2.2,2.4-3.8,2.4-3.8s1.8,2,1.6,4.3c-0.2,2.3-2.4,3.8-2.4,3.8
			S1591.5,715.1,1591.8,712.8z"/><path id="path1696" class="st17" d="M1597,712.8c-2.2-0.5-3.5-2.9-3.5-2.9s2.2-1.6,4.4-1c2.2,0.5,3.5,2.9,3.5,2.9
			S1599.2,713.3,1597,712.8z"/><path id="path1698" class="st17" d="M1568.1,650.8c1.3-1.9,4-2.2,4-2.2s0.6,2.7-0.7,4.5c-1.3,1.8-4,2.2-4,2.2
			S1566.8,652.7,1568.1,650.8z"/><path id="path1700" class="st18" d="M1563.2,658.4c-2.2-0.6-3.4-3-3.4-3s2.3-1.5,4.5-0.9s3.4,3,3.4,3S1565.4,658.9,1563.2,658.4z"/><path id="path1702" class="st13" d="M1570.3,686.2l-0.3,0.5c-0.2,0.5-0.1,1,0.4,1.2l0,0l12.3,6c0.5,0.2,1,0,1.2-0.4L1570.3,686.2z
			"/><path id="path1704" class="st13" d="M1554.9,692.5l-1.9-0.7l7.3-17.6c0.2-0.6,0.9-0.9,1.6-0.7L1554.9,692.5z"/><path id="path1706" class="st13" d="M1514.5,708.5l-1-5.1c-0.2-0.4,0-0.8,0.4-0.9l0,0l82.1-26.8c0.4-0.2,0.8,0.1,0.9,0.4
			c0.2,0.4,0,0.8-0.4,0.9l-80.2,31.9c-0.4,0.2-1.3,0.9-1.4,0.5L1514.5,708.5z"/></g><g id="g1760"><path id="path1710" class="st12" d="M537.8,1566.8c-0.2-0.1-0.4-0.1-0.5-0.2c-1.3-0.7-2.1-1.9-2.3-3.3c-0.9,1.3-2.3,2.4-3.9,2.5
			c-1.6,0.1-3.3-1-3.6-2.5s0.8-3,2.1-3.7c-1.1,0.4-2.3-0.1-2.7-1.2s0.1-2.3,1.2-2.7c-0.7-0.1-1.3-0.1-1.8-0.6
			c-0.5-0.4-0.6-1.3,0-1.7c-1.5-0.4-2.7-1.7-3-3.3c-0.3-1.6,1.3-3.2,2.8-2c0.5,0.5,0.9,1,1.3,1.5c1.2,1.3,3.1,1.7,4.6,2.5
			c3.9,2.1,5.8,6.6,9.5,9c2.2,1.4,5.2,2.2,6.4,4.5c0.3,0.6,0.5,1.3,0.1,1.9c-0.5,0.9-2,0.8-2.9,0.2c-1.5,1.4-4.4,0.7-5-1.2
			C539.4,1567,538.5,1567.1,537.8,1566.8L537.8,1566.8z"/><path id="path1712" class="st14" d="M586.7,1529.3l1.1-1.4c0.2-0.2,0.1-0.6-0.1-0.8c-0.2-0.2-0.6-0.1-0.8,0.1l-1.1,1.4
			c-0.2,0.2-0.1,0.6,0.1,0.8C586.2,1529.6,586.6,1529.5,586.7,1529.3z"/><path id="path1714" class="st14" d="M583.4,1530.6l1.8-3c0.1-0.3,0-0.6-0.3-0.7s-0.6,0-0.7,0.3l-1.8,3c-0.1,0.3,0,0.6,0.3,0.7
			S583.3,1530.9,583.4,1530.6z"/><path id="path1716" class="st14" d="M582.4,1526.8l1.2-2c0.1-0.1,0-0.3,0-0.4c-0.1-0.3-0.4-0.4-0.7-0.3c-0.1,0.1-0.2,0.2-0.3,0.3
			l-1.2,2c-0.1,0.1,0,0.3,0,0.4c0.1,0.3,0.4,0.4,0.7,0.3C582.2,1527.1,582.3,1526.9,582.4,1526.8z"/><path id="path1718" class="st14" d="M532.7,1526.7l1.1-1.4c0.2-0.2,0.1-0.6-0.1-0.8c-0.2-0.2-0.6-0.1-0.8,0.1l-1.1,1.4
			c-0.2,0.2-0.1,0.6,0.1,0.8S532.6,1526.9,532.7,1526.7z"/><path id="path1720" class="st14" d="M529.5,1528l1.8-3c0.1-0.3,0-0.6-0.3-0.7s-0.6,0-0.7,0.3l-1.8,3c-0.1,0.3,0,0.6,0.3,0.7
			C529,1528.3,529.4,1528.2,529.5,1528z"/><path id="path1722" class="st14" d="M528.4,1524.2l1.2-2c0.1-0.3,0-0.6-0.3-0.7c-0.1-0.1-0.3,0-0.4,0c-0.1,0.1-0.2,0.2-0.3,0.3
			l-1.2,2c-0.1,0.1,0,0.3,0,0.4c0.1,0.1,0.2,0.2,0.3,0.3c0.1,0.1,0.3,0,0.4,0C528.2,1524.4,528.4,1524.3,528.4,1524.2L528.4,1524.2z
			"/><path id="path1724" class="st15" d="M532.3,1508.3c-16.9,18.7-21.9,49.9-14,58c7.9,8.1,39.2,3.6,58.2-13
			c21.6-18.9,20.2-37.7,7-51.1C570.3,1488.7,551.6,1487,532.3,1508.3z"/><path id="path1726" class="st12" d="M552,1562.2c-1.5,1.6-4.2,1.5-4.2,1.5s-0.2-2.6,1.3-4.2s4.2-1.5,4.2-1.5
			S553.5,1560.6,552,1562.2z"/><path id="path1728" class="st12" d="M546.7,1522c-2.2,0.3-4.2-1.4-4.2-1.4s1.5-2.2,3.7-2.5s4.2,1.4,4.2,1.4
			S548.9,1521.7,546.7,1522z"/><path id="path1730" class="st16" d="M535,1560.4c1-2,3.5-2.7,3.5-2.7s1,2.4,0,4.4s-3.5,2.7-3.5,2.7S534.1,1562.3,535,1560.4z"/><path id="path1732" class="st16" d="M519.9,1549.6c1.9-1.1,4.4-0.3,4.4-0.3s-0.5,2.6-2.4,3.7s-4.4,0.3-4.4,0.3
			S518,1550.7,519.9,1549.6z"/><path id="path1734" class="st12" d="M547.9,1514.6c-0.6-2.1,0.9-4.3,0.9-4.3s2.4,1.2,2.9,3.3c0.6,2.1-0.9,4.3-0.9,4.3
			S548.5,1516.7,547.9,1514.6z"/><path id="path1736" class="st12" d="M569.3,1525.4c2-0.8,4.4,0.4,4.4,0.4s-0.9,2.5-2.9,3.3s-4.4-0.4-4.4-0.4
			S567.2,1526.2,569.3,1525.4z"/><path id="path1738" class="st16" d="M527.2,1534.1c0.1-2.2,2.2-3.8,2.2-3.8s1.8,1.9,1.7,4.1s-2.2,3.8-2.2,3.8
			S527.1,1536.3,527.2,1534.1z"/><path id="path1740" class="st17" d="M557.6,1549c2-0.8,4.4,0.4,4.4,0.4s-0.9,2.5-2.9,3.3s-4.4-0.4-4.4-0.4
			S555.6,1549.7,557.6,1549z"/><path id="path1742" class="st16" d="M556.9,1500.5c0.7-2.1,3.1-3.2,3.1-3.2s1.4,2.3,0.7,4.4s-3.1,3.2-3.1,3.2
			S556.3,1502.6,556.9,1500.5z"/><path id="path1744" class="st12" d="M584.6,1528c0.7-2.1,3.1-3.2,3.1-3.2s1.4,2.3,0.7,4.4s-3.1,3.2-3.1,3.2S584,1530.1,584.6,1528
			z"/><path id="path1746" class="st17" d="M535.7,1504.9c0.7,2.1-0.7,4.4-0.7,4.4s-2.4-1.1-3.1-3.2c-0.7-2.1,0.7-4.4,0.7-4.4
			S535,1502.8,535.7,1504.9z"/><path id="path1748" class="st17" d="M531.1,1507c2.1-0.4,4.3,1.2,4.3,1.2s-1.4,2.3-3.5,2.7c-2.1,0.4-4.3-1.2-4.3-1.2
			S528.9,1507.5,531.1,1507z"/><path id="path1750" class="st17" d="M581,1550.7c-0.4,2.1-2.7,3.5-2.7,3.5s-1.6-2.1-1.2-4.3c0.4-2.2,2.7-3.5,2.7-3.5
			S581.4,1548.6,581,1550.7z"/><path id="path1752" class="st18" d="M582.4,1542.1c2.2-0.3,4.2,1.3,4.2,1.3s-1.4,2.2-3.6,2.6c-2.2,0.3-4.2-1.3-4.2-1.3
			S580.2,1542.5,582.4,1542.1z"/><path id="path1754" class="st13" d="M565.2,1520.2v-0.6c0-0.5-0.3-0.9-0.8-0.9l0,0l-13.3-0.5c-0.5,0-0.9,0.4-0.9,0.8L565.2,1520.2
			z"/><path id="path1756" class="st13" d="M576.3,1508.5l1.9-0.1l0.5,18.5c0,0.6-0.5,1.1-1.1,1.2L576.3,1508.5z"/><path id="path1758" class="st13" d="M619.8,1461l2.6,4.4c0.3,0.3,0.2,0.8-0.1,1.1l0,0l-75.7,72.8c-0.3,0.4-0.8,0.4-1.1,0.1
			s-0.2-0.8,0.1-1.1l72.1-76.7c0.3-0.4,1-1.6,1.3-1.3L619.8,1461z"/></g><g id="g1806"><path id="path1762" class="st14" d="M935.8,324.7l0.2,0.8c0,0.1,0.2,0.2,0.3,0.2s0.2-0.2,0.2-0.3l-0.2-0.8c0-0.1-0.2-0.2-0.3-0.2
			S935.8,324.6,935.8,324.7z"/><path id="path1764" class="st14" d="M936.3,323.1l0.6,1.6c0.1,0.1,0.2,0.2,0.3,0.1s0.2-0.2,0.1-0.4l-0.6-1.6
			c-0.1-0.1-0.2-0.2-0.3-0.1S936.3,322.9,936.3,323.1z"/><path id="path1766" class="st14" d="M938,323.8l0.4,1c0,0.1,0.1,0.1,0.2,0.1c0.1,0,0.3,0,0.3-0.2c0-0.1,0-0.1,0-0.2l-0.4-1
			c0-0.1-0.1-0.1-0.2-0.1c-0.1,0-0.1,0-0.2,0c-0.1,0-0.1,0.1-0.1,0.2C937.9,323.7,938,323.8,938,323.8z"/><g id="g1804"><path id="path1768" class="st16" d="M950.7,321.9c-1.3-6.3-6.7-12-9.4-11.6s-6.3,7.3-5.8,13.7c0.6,7.2,4.5,9.8,9,9.2
				C949,332.6,952.1,329,950.7,321.9L950.7,321.9z"/><path id="path1770" class="st19" d="M935.8,316.8c-0.1-0.5,0.3-1.1,0.3-1.1s0.5,0.4,0.6,0.9s-0.3,1.1-0.3,1.1
				S935.9,317.3,935.8,316.8z"/><path id="path1772" class="st20" d="M945.9,322.7c0.3-0.5,0.9-0.6,0.9-0.6s0.2,0.6,0,1.1s-0.9,0.6-0.9,0.6
				S945.7,323.2,945.9,322.7z"/><path id="path1774" class="st20" d="M940,314.5c0.3,0.5,0,1.1,0,1.1s-0.6-0.2-0.9-0.7c-0.3-0.5,0-1.1,0-1.1S939.8,314,940,314.5z
				"/><path id="path1776" class="st12" d="M944.3,313.1c0,0.5-0.6,0.9-0.6,0.9s-0.4-0.5-0.4-1c0.1-0.6,0.6-0.9,0.6-0.9
				S944.4,312.6,944.3,313.1z"/><path id="path1778" class="st20" d="M947.2,324.1c0.5,0.2,0.7,0.8,0.7,0.8s-0.6,0.3-1.1,0.1c-0.5-0.2-0.7-0.8-0.7-0.8
				S946.7,323.9,947.2,324.1z"/><path id="path1780" class="st20" d="M942,326.7c-0.1,0.5-0.7,0.8-0.7,0.8s-0.4-0.6-0.2-1.1s0.7-0.8,0.7-0.8
				S942.2,326.2,942,326.7z"/><path id="path1782" class="st20" d="M946.3,317c0.4,0.4,0.4,1,0.4,1s-0.6,0.1-1-0.3c-0.4-0.3-0.4-1-0.4-1S945.9,316.6,946.3,317z
				"/><path id="path1784" class="st12" d="M939.1,320.8c-0.1,0.5-0.7,0.8-0.7,0.8s-0.4-0.6-0.2-1.1s0.7-0.8,0.7-0.8
				S939.2,320.3,939.1,320.8z"/><path id="path1786" class="st20" d="M948.7,328c0.3,0.4,0.2,1.1,0.2,1.1s-0.6-0.1-1-0.5s-0.2-1.1-0.2-1.1S948.4,327.6,948.7,328z
				"/><path id="path1788" class="st20" d="M939.3,329.4c0.3,0.4,0.2,1.1,0.2,1.1s-0.6-0.1-1-0.5s-0.2-1.1-0.2-1.1S939,329,939.3,329.4z
				"/><path id="path1790" class="st19" d="M950.9,323.1c-0.5-0.2-0.8-0.8-0.8-0.8s0.6-0.3,1.1-0.1c0.5,0.2,0.8,0.8,0.8,0.8
				S951.4,323.3,950.9,323.1z"/><path id="path1792" class="st19" d="M951.1,321.9c-0.2,0.5-0.9,0.7-0.9,0.7s-0.3-0.6,0-1.1c0.2-0.5,0.9-0.7,0.9-0.7
				S951.4,321.3,951.1,321.9z"/><path id="path1794" class="st19" d="M935.2,326.2c-0.4-0.4-0.3-1.1-0.3-1.1s0.7,0,1,0.4c0.4,0.4,0.3,1.1,0.3,1.1
				S935.6,326.7,935.2,326.2z"/><path id="path1796" class="st19" d="M936.6,327.3c-0.2,0.5-0.9,0.7-0.9,0.7s-0.2-0.6,0-1.1s0.9-0.7,0.9-0.7
				S936.8,326.8,936.6,327.3z"/><path id="path1798" class="st13" d="M943.6,326.7l0.1,0.1c0.1,0.1,0.2,0.1,0.3,0l0,0l2-2.6c0.1-0.1,0.1-0.2,0-0.3l0,0
				L943.6,326.7z"/><path id="path1800" class="st13" d="M944.3,330.7l-0.3,0.4l-3.7-2.7c-0.1-0.1-0.2-0.3-0.1-0.4L944.3,330.7z"/><path id="path1802" class="st13" d="M946,338.3l-1.3,0.2c-0.1,0-0.2,0-0.2-0.2l0,0l-2-18.3c0-0.1,0-0.2,0.1-0.2s0.2,0,0.2,0.2
				l3.3,18.1C946.1,338.2,946.1,338.3,946,338.3L946,338.3z"/></g></g><g id="g1852"><path id="path1808" class="st14" d="M1019.6,315.6l-0.2,1.7c0,0.3,0.2,0.6,0.4,0.6c0.3,0,0.5-0.2,0.6-0.5l0.2-1.7
			c0-0.3-0.2-0.6-0.4-0.6S1019.7,315.3,1019.6,315.6z"/><path id="path1810" class="st14" d="M1021.7,312.8l0.1,3.5c0,0.3,0.3,0.5,0.6,0.4s0.5-0.3,0.4-0.6l-0.1-3.5c0-0.3-0.3-0.5-0.6-0.4
			C1021.9,312.3,1021.7,312.5,1021.7,312.8z"/><path id="path1812" class="st14" d="M1024.4,315.5v2.3c0,0.1,0.1,0.3,0.2,0.4c0.2,0.2,0.5,0.1,0.7-0.1c0.1-0.1,0.1-0.3,0.1-0.4
			v-2.3c0-0.1-0.1-0.3-0.2-0.4s-0.3-0.1-0.4-0.1s-0.3,0.1-0.3,0.2C1024.4,315.2,1024.4,315.3,1024.4,315.5L1024.4,315.5z"/><g id="g1850"><path id="path1814" class="st16" d="M1050.4,321c2.1-13.1-4.2-28.1-9.7-29.4s-17.6,9.6-21.2,22.3c-4,14.4,1.6,22.3,10.8,24.4
				C1039.6,340.4,1048,335.8,1050.4,321z"/><path id="path1816" class="st19" d="M1025.3,300.2c0.2-1.1,1.4-1.9,1.4-1.9s0.8,1.1,0.6,2.2c-0.2,1.1-1.4,1.9-1.4,1.9
				S1025.1,301.4,1025.3,300.2z"/><path id="path1818" class="st20" d="M1040.6,319.1c0.9-0.7,2.2-0.6,2.2-0.6s0,1.4-0.9,2.1c-0.9,0.8-2.2,0.6-2.2,0.6
				S1039.8,319.9,1040.6,319.1z"/><path id="path1820" class="st20" d="M1035.2,299c0.1,1.1-0.7,2.2-0.7,2.2s-1.1-0.8-1.2-1.9s0.7-2.2,0.7-2.2
				S1035.1,297.9,1035.2,299z"/><path id="path1822" class="st12" d="M1044.5,299.4c-0.5,1-1.8,1.4-1.8,1.4s-0.5-1.3,0-2.3s1.8-1.4,1.8-1.4
				S1045,298.3,1044.5,299.4z"/><path id="path1824" class="st20" d="M1042.1,322.7c0.8,0.8,0.8,2.1,0.8,2.1s-1.3,0.2-2.1-0.6c-0.8-0.8-0.8-2.1-0.8-2.1
				S1041.3,322,1042.1,322.7z"/><path id="path1826" class="st20" d="M1030.1,324.1c-0.6,0.9-2,1.1-2,1.1s-0.3-1.3,0.4-2.3c0.6-0.9,2-1.1,2-1.1
				S1030.8,323.1,1030.1,324.1z"/><path id="path1828" class="st20" d="M1045.6,308.3c0.5,1,0.1,2.3,0.1,2.3s-1.3-0.3-1.8-1.3s-0.1-2.3-0.1-2.3
				S1045.1,307.3,1045.6,308.3z"/><path id="path1830" class="st12" d="M1028.7,310.4c-0.6,0.9-2,1.1-2,1.1s-0.3-1.3,0.4-2.3c0.6-0.9,2-1.1,2-1.1
				S1029.3,309.5,1028.7,310.4z"/><path id="path1832" class="st20" d="M1042.1,331.5c0.3,1.1-0.5,2.3-0.5,2.3s-1.2-0.6-1.5-1.7s0.5-2.3,0.5-2.3
				S1041.8,330.4,1042.1,331.5z"/><path id="path1834" class="st20" d="M1022.9,327.3c0.3,1.1-0.5,2.3-0.5,2.3s-1.2-0.6-1.5-1.7s0.5-2.3,0.5-2.3
				S1022.6,326.3,1022.9,327.3z"/><path id="path1836" class="st19" d="M1049.9,323.5c-0.9-0.7-0.9-2.1-0.9-2.1s1.3-0.2,2.2,0.5c0.9,0.7,0.9,2.1,0.9,2.1
				S1050.8,324.2,1049.9,323.5z"/><path id="path1838" class="st19" d="M1051.3,321.2c-0.8,0.8-2.1,0.7-2.1,0.7s0-1.4,0.8-2.2c0.8-0.8,2.1-0.7,2.1-0.7
				S1052.1,320.4,1051.3,321.2z"/><path id="path1840" class="st19" d="M1017.3,318.1c-0.4-1.1,0.2-2.3,0.2-2.3s1.3,0.5,1.7,1.5s-0.2,2.3-0.2,2.3
				S1017.7,319.2,1017.3,318.1z"/><path id="path1842" class="st19" d="M1019.1,321.2c-0.8,0.8-2.1,0.6-2.1,0.6s0-1.4,0.8-2.1s2.1-0.6,2.1-0.6
				S1019.9,320.5,1019.1,321.2z"/><path id="path1844" class="st13" d="M1033.3,325.2l0.1,0.3c0.1,0.2,0.4,0.3,0.6,0.2l0,0l5.8-3.6c0.2-0.1,0.3-0.4,0.2-0.6l0,0
				L1033.3,325.2z"/><path id="path1846" class="st13" d="M1031.7,333.5l-0.8,0.6l-5.2-8c-0.2-0.3-0.1-0.6,0.1-0.8L1031.7,333.5z"/><path id="path1848" class="st13" d="M1029.3,349.4l-2.6-0.6c-0.2,0-0.3-0.2-0.3-0.4l0,0l9.5-36.9c0.1-0.2,0.2-0.3,0.4-0.3
				c0.2,0.1,0.3,0.2,0.3,0.4l-6.9,37.5C1029.7,349.3,1029.5,349.4,1029.3,349.4z"/></g></g><g id="g1898"><path id="path1854" class="st14" d="M750.3,1596.6l0.2-1.9c0-0.3-0.2-0.6-0.6-0.6c-0.3,0-0.6,0.2-0.6,0.6l-0.2,1.9
			c0,0.3,0.2,0.6,0.6,0.6C750,1597.2,750.3,1596.9,750.3,1596.6z"/><path id="path1856" class="st14" d="M748.1,1599.8l-0.3-3.9c-0.1-0.3-0.4-0.6-0.7-0.5s-0.5,0.4-0.5,0.7l0.3,3.9
			c0.1,0.3,0.4,0.5,0.7,0.5S748.1,1600.2,748.1,1599.8z"/><path id="path1858" class="st14" d="M744.8,1597l-0.2-2.6c0-0.2-0.1-0.3-0.3-0.4c-0.3-0.2-0.6-0.1-0.8,0.1
			c-0.1,0.2-0.1,0.3-0.1,0.4l0.2,2.6c0,0.2,0.1,0.3,0.3,0.4s0.3,0.1,0.5,0.1s0.3-0.1,0.4-0.3C744.8,1597.3,744.8,1597.2,744.8,1597
			L744.8,1597z"/><g id="g1896"><path id="path1860" class="st16" d="M714.3,1592.1c-1.7,14.7,6.5,31.2,12.9,32.3c6.4,1.2,19.9-11.5,23.3-25.9
				c3.9-16.3-3.1-24.8-14-26.7C725.8,1569.9,716.3,1575.4,714.3,1592.1L714.3,1592.1z"/><path id="path1862" class="st19" d="M744.7,1614c-0.2,1.3-1.5,2.1-1.5,2.1s-1-1.2-0.8-2.4c0.2-1.3,1.5-2.1,1.5-2.1
				S744.8,1612.8,744.7,1614z"/><path id="path1864" class="st20" d="M725.8,1593.7c-1,0.9-2.5,0.7-2.5,0.7s0-1.5,0.9-2.4s2.5-0.7,2.5-0.7
				S726.8,1592.8,725.8,1593.7z"/><path id="path1866" class="st20" d="M733.3,1615.9c-0.2-1.3,0.7-2.4,0.7-2.4s1.3,0.8,1.5,2.1c0.2,1.3-0.7,2.4-0.7,2.4
				S733.5,1617.2,733.3,1615.9z"/><path id="path1868" class="st12" d="M722.4,1615.9c0.5-1.2,2-1.7,2-1.7s0.6,1.4,0.1,2.5c-0.5,1.2-2,1.7-2,1.7
				S721.9,1617.1,722.4,1615.9z"/><path id="path1870" class="st20" d="M723.9,1589.7c-1-0.8-1.1-2.3-1.1-2.3s1.5-0.2,2.5,0.6c1,0.8,1.1,2.3,1.1,2.3
				S724.8,1590.5,723.9,1589.7z"/><path id="path1872" class="st20" d="M737.7,1587.7c0.7-1.1,2.2-1.3,2.2-1.3s0.4,1.5-0.3,2.6s-2.2,1.3-2.2,1.3
				S737,1588.8,737.7,1587.7z"/><path id="path1874" class="st20" d="M720.6,1606c-0.7-1.1-0.2-2.6-0.2-2.6s1.5,0.3,2.2,1.3c0.7,1.1,0.2,2.6,0.2,2.6
				S721.3,1607.1,720.6,1606z"/><path id="path1876" class="st12" d="M740.1,1602.8c0.7-1.1,2.2-1.3,2.2-1.3s0.4,1.5-0.3,2.6s-2.2,1.3-2.2,1.3
				S739.4,1603.9,740.1,1602.8z"/><path id="path1878" class="st20" d="M723.4,1580c-0.4-1.2,0.4-2.5,0.4-2.5s1.4,0.6,1.8,1.8c0.4,1.2-0.4,2.5-0.4,2.5
				S723.8,1581.2,723.4,1580z"/><path id="path1880" class="st20" d="M745.9,1583.7c-0.4-1.2,0.4-2.5,0.4-2.5s1.4,0.6,1.8,1.8c0.4,1.2-0.4,2.5-0.4,2.5
				S746.3,1584.9,745.9,1583.7z"/><path id="path1882" class="st19" d="M714.8,1589.3c1,0.8,1.1,2.3,1.1,2.3s-1.5,0.3-2.5-0.4c-1-0.7-1.1-2.3-1.1-2.3
				S713.8,1588.5,714.8,1589.3z"/><path id="path1884" class="st19" d="M713.3,1591.9c0.9-0.9,2.4-0.9,2.4-0.9s0.1,1.5-0.8,2.4c-0.9,0.9-2.4,0.9-2.4,0.9
				S712.4,1592.8,713.3,1591.9z"/><path id="path1886" class="st19" d="M753,1593.7c0.5,1.2-0.1,2.6-0.1,2.6s-1.5-0.5-2-1.6s0.1-2.6,0.1-2.6
				S752.4,1592.5,753,1593.7z"/><path id="path1888" class="st19" d="M750.6,1590.3c0.9-0.9,2.4-0.8,2.4-0.8s0.1,1.5-0.8,2.4c-0.9,0.9-2.4,0.8-2.4,0.8
				S749.7,1591.2,750.6,1590.3z"/><path id="path1890" class="st13" d="M734,1586.6l-0.2-0.3c-0.1-0.3-0.5-0.3-0.7-0.2l0,0l-6.5,4.2c-0.3,0.1-0.3,0.5-0.2,0.7l0,0
				L734,1586.6z"/><path id="path1892" class="st13" d="M735.4,1577.3l0.9-0.7l6.5,8.7c0.2,0.3,0.1,0.7-0.1,0.9L735.4,1577.3z"/><path id="path1894" class="st13" d="M737.2,1559.5l3,0.5c0.2,0,0.4,0.2,0.3,0.5l0,0l-8.9,41.6c-0.1,0.2-0.2,0.4-0.5,0.3
				s-0.4-0.2-0.3-0.5l5.9-42.2C736.8,1559.6,737,1559.4,737.2,1559.5L737.2,1559.5z"/></g></g></g><path id="path1902" class="st21" d="M752.7,490.8c109.5,38.7,110.1,68.2,170.9,77.6c107.3,16.6,142.8-69.4,237.5-57.7
	c84.9,10.5,172.3,93.8,193.1,183.9c38.8,167.6-169.5,284.5-115.4,412.2c28.4,67,91.2,47.7,162.1,153
	c18.3,27.2,76.3,126.8,34.1,207.1c-36.2,68.9-122.1,88.3-138.4,89.9c-139.4,13.1-173.1-95-355.1-128.5
	c-122.7-22.6-146.5,19.4-248.6-17.8c-8.8-3.2-189.6-70.9-193.1-170.6c-4.4-124.6,272.8-147.1,313-328c25-112.5-49-252.6-135.4-274.8
	c-108-27.9-173.8,155.6-216.1,121.9c-23.5-18.8-38-97.1-29.1-123.3C453,658.4,568,508.9,625.3,444.6
	C670.9,395.6,676.7,464,752.7,490.8z"/><path id="path1904" class="st22" d="M777.4,533.4c101.3,35.9,101.9,63.1,158.1,71.7c99.3,15.3,132.1-64.2,219.7-53.3
	c78.5,9.8,159.4,86.8,178.7,170.2c35.9,155-156.8,263.2-106.8,381.4c26.3,62,84.4,44.2,149.9,141.5c16.9,25.2,85,126.4,45.9,200.8
	c-33.6,63.8-127.3,72.7-142.4,74.2c-128.9,12.1-160.1-87.9-328.6-118.9c-113.6-20.9-135.5,17.9-230-16.5
	c-8.2-3-175.5-65.5-178.7-157.9c-4-115.2,252.4-136.2,289.6-303.4c23.1-104-45.4-233.6-125.3-254.3
	c-99.9-25.7-207.3,121.5-246.4,90.2c-21.7-17.4-2.1-74.3,6.1-98.4c2.3-7,48.5-134.5,160.1-155.9C672,496.2,707.1,508.6,777.4,533.4
	L777.4,533.4z"/><g id="Layer_4" transform="matrix(1.0654381,0,0,1.0638646,-16.409863,-21.194545)"><path id="path1906" class="st23" d="M1077.8,369.3c0.5-0.1,1-0.1,1.5-0.1c3.8,0.2,7.7,2,9.7,5.3c0.6-4.3,2.8-8.7,6.5-11
		s9.3-1.7,11.9,1.7c2.5,3.3,1.9,8.3-0.7,11.6c2.1-2.3,5.7-2.5,8-0.4s2.5,5.7,0.4,8c1.6-0.6,3.4-1.3,5.1-0.8s3.1,2.5,2.2,4
		c4.3-0.8,8.8,0.9,11.4,4.4c2.6,3.7,0.9,9.4-4.4,8.2c-1.7-0.4-3.3-1.4-5-2.1c-4.6-1.6-9.6-0.4-14.4-0.5c-12-0.3-22.3-9.1-34.2-10.4
		c-7.2-0.8-15.2,1-21.1-3.2c-1.5-1.1-2.8-2.7-2.7-4.5c0.2-2.9,3.9-4.3,6.8-3.9c1.9-5.3,9.8-7.1,13.8-3.1
		C1073.6,370.7,1075.7,369.6,1077.8,369.3L1077.8,369.3z"/><path id="path1908" class="st23" d="M941.8,318.4c0.3-0.1,0.6-0.1,0.8-0.1c2.2-0.2,4.6,0.6,6,2.3c0-2.5,0.9-5.2,2.9-6.8
		c2-1.6,5.2-1.7,7,0.1c1.7,1.7,1.7,4.6,0.5,6.7c1-1.5,3.1-1.9,4.6-0.9s1.9,3.1,0.9,4.6c0.9-0.5,1.9-1,2.9-0.9s2,1.2,1.6,2.1
		c2.4-0.8,5.1-0.2,6.9,1.7c1.8,1.9,1.2,5.3-1.9,5c-1-0.1-2-0.6-3-0.8c-2.7-0.6-5.5,0.5-8.3,0.8c-6.9,0.7-13.5-3.5-20.4-3.4
		c-4.2,0.1-8.6,1.7-12.4-0.2c-0.9-0.5-1.8-1.3-1.9-2.4c-0.1-1.7,1.9-2.8,3.6-2.8c0.7-3.2,5.1-4.8,7.7-2.8
		C939.5,319.6,940.6,318.8,941.8,318.4L941.8,318.4z"/><path id="path1910" class="st23" d="M979.3,326.7c0.4-0.1,0.8-0.2,1.2-0.2c3.1-0.3,6.4,0.8,8.4,3.2c0-3.6,1.3-7.3,4.1-9.5
		s7.3-2.4,9.8,0.1c2.4,2.4,2.4,6.5,0.6,9.4c1.5-2.1,4.3-2.7,6.4-1.2c2.1,1.5,2.7,4.3,1.2,6.4c1.3-0.7,2.6-1.4,4.1-1.2
		c1.4,0.2,2.7,1.7,2.2,3c3.4-1.1,7.2-0.2,9.7,2.4c2.5,2.7,1.7,7.5-2.7,7.1c-1.5-0.2-2.8-0.8-4.3-1.1c-3.9-0.8-7.8,0.7-11.7,1.2
		c-9.7,1-19-5-28.7-4.8c-5.9,0.1-12.2,2.4-17.4-0.3c-1.3-0.7-2.6-1.9-2.7-3.3c-0.1-2.4,2.7-3.9,5.1-3.9c1-4.5,7.2-6.8,10.8-4
		C976.1,328.3,977.6,327.2,979.3,326.7L979.3,326.7z"/><path id="path1912" class="st23" d="M1284.9,613.9c0.3,0.3,0.6,0.6,0.8,0.9c1.9,2.4,2.9,5.8,2,8.8c3-2,6.8-3,10.2-1.9
		c3.4,1.1,6.1,4.7,5.4,8.2c-0.7,3.3-4.1,5.6-7.5,5.8c2.6,0,4.6,2.1,4.6,4.7c0,2.6-2.1,4.6-4.7,4.6c1.3,0.7,2.6,1.4,3.3,2.7
		c0.7,1.3,0.1,3.2-1.3,3.5c2.8,2.2,4.2,5.8,3.4,9.3c-0.8,3.6-5.3,5.6-7.4,1.7c-0.7-1.3-0.9-2.8-1.5-4.2c-1.5-3.7-4.9-6-7.5-9
		c-6.3-7.5-6.5-18.5-12.1-26.5c-3.4-4.8-8.8-8.7-9.5-14.6c-0.2-1.5,0.1-3.2,1.3-4.1c1.9-1.4,4.7,0,6,2c4.3-1.7,9.6,2.2,9.3,6.8
		C1281.8,612.1,1283.5,612.8,1284.9,613.9L1284.9,613.9z"/><path id="path1914" class="st23" d="M1234.5,541.8c0.6,0.3,1.3,0.6,1.9,1c4.6,2.9,8.1,8.1,8.2,13.7c3.9-5,9.8-8.8,16.1-8.9
		c6.3,0,12.8,4.6,13.5,10.9c0.7,6-3.8,11.7-9.4,13.9c4.3-1.3,9,1,10.3,5.4s-1,9-5.4,10.3c2.5,0.4,5.2,0.9,7,2.7s2,5.3-0.2,6.6
		c6,2.2,10.3,7.5,10.9,13.8c0.6,6.5-5.8,12.4-11.5,7c-1.9-1.8-3.1-4.2-4.7-6.2c-4.5-5.4-11.6-7.5-17.6-11.1
		c-14.6-9.1-21.1-27.6-34.9-37.9c-8.4-6.2-19.6-9.9-23.9-19.4c-1.1-2.4-1.5-5.4-0.1-7.6c2.4-3.5,8-2.6,11.3,0.1
		c6.2-5.2,17.4-1.6,19.4,6.3C1228.2,540.5,1231.6,540.6,1234.5,541.8L1234.5,541.8z"/><path id="path1916" class="st23" d="M1192.3,511.9c0.2,0.1,0.3,0.2,0.5,0.3c1.2,0.8,2.1,2.1,2.1,3.5c1-1.3,2.5-2.3,4.1-2.3
		s3.3,1.2,3.5,2.8c0.2,1.5-1,3-2.4,3.5c1.1-0.3,2.3,0.3,2.6,1.4c0.3,1.1-0.3,2.3-1.4,2.6c0.6,0.1,1.3,0.2,1.8,0.7s0.5,1.4-0.1,1.7
		c1.5,0.6,2.6,1.9,2.8,3.5c0.1,1.7-1.5,3.2-2.9,1.8c-0.5-0.5-0.8-1.1-1.2-1.6c-1.1-1.4-3-1.9-4.5-2.8c-3.7-2.3-5.4-7-8.9-9.7
		c-2.1-1.6-5-2.5-6.1-4.9c-0.3-0.6-0.4-1.4,0-1.9c0.6-0.9,2-0.7,2.9,0c1.6-1.3,4.4-0.4,5,1.6
		C1190.7,511.6,1191.6,511.6,1192.3,511.9L1192.3,511.9z"/><path id="path1918" class="st23" d="M1136.9,373.2c0.2,0,0.4,0.1,0.5,0.1c1.3,0.5,2.5,1.6,2.8,2.9c0.7-1.5,1.9-2.8,3.5-3.1
		c1.6-0.4,3.4,0.4,4,1.9c0.5,1.5-0.3,3.1-1.6,4c1-0.6,2.3-0.3,2.9,0.7s0.3,2.3-0.7,2.9c0.6,0,1.3-0.1,1.9,0.3s0.8,1.2,0.3,1.7
		c1.6,0.2,3,1.3,3.5,2.8c0.5,1.6-0.7,3.4-2.5,2.4c-0.6-0.3-1-0.9-1.5-1.3c-1.4-1.1-3.3-1.2-5-1.8c-4.2-1.4-6.8-5.7-10.8-7.5
		c-2.4-1.1-5.4-1.4-7.1-3.5c-0.4-0.5-0.7-1.3-0.4-1.9c0.4-1,1.8-1.1,2.8-0.6c1.3-1.6,4.2-1.4,5.2,0.5
		C1135.2,373.2,1136.1,373.1,1136.9,373.2L1136.9,373.2z"/><path id="path1920" class="st23" d="M847.1,1582c-0.5,0.2-1,0.3-1.4,0.4c-3.7,0.7-7.9-0.1-10.7-2.8c0.5,4.4-0.6,9.1-3.7,12.2
		c-3.1,3-8.6,3.9-12,1.1c-3.3-2.6-3.8-7.6-2-11.4c-1.5,2.8-5,3.8-7.7,2.3s-3.8-5-2.3-7.7c-1.4,1-3,2-4.8,2s-3.6-1.7-3.1-3.4
		c-4,1.8-8.7,1.2-12.1-1.6c-3.4-3-3.1-8.9,2.3-9c1.8,0,3.6,0.6,5.4,0.8c4.8,0.5,9.4-1.9,14.1-2.9c11.7-2.5,23.8,3.6,35.7,2
		c7.2-0.9,14.5-4.5,21.3-1.9c1.7,0.7,3.4,2,3.7,3.7c0.5,2.9-2.7,5.1-5.7,5.4c-0.6,5.6-7.9,9.2-12.7,6.2
		C850.8,1579.6,849.1,1581.2,847.1,1582L847.1,1582z"/><path id="path1922" class="st23" d="M991.3,1599.2c-0.2,0.1-0.5,0.3-0.8,0.3c-2.1,0.7-4.6,0.5-6.4-0.8c0.6,2.5,0.3,5.3-1.2,7.3
		c-1.6,2-4.6,2.9-6.8,1.6c-2.1-1.3-2.7-4.1-2-6.4c-0.7,1.7-2.6,2.6-4.3,1.9s-2.6-2.6-1.9-4.3c-0.8,0.7-1.6,1.4-2.6,1.5
		s-2.2-0.7-2-1.7c-2.2,1.3-4.9,1.4-7.1,0c-2.2-1.4-2.5-4.9,0.7-5.3c1-0.1,2.1,0.1,3.1,0.1c2.8-0.1,5.2-1.8,7.9-2.8
		c6.5-2.3,13.9,0.2,20.6-1.5c4.1-1.1,8-3.7,12.1-2.7c1,0.3,2.1,0.9,2.4,1.9c0.5,1.6-1.2,3.2-2.8,3.5c0.1,3.3-3.8,5.9-6.8,4.6
		C993.2,1597.6,992.4,1598.6,991.3,1599.2L991.3,1599.2z"/><path id="path1924" class="st23" d="M953.5,1594.4c-0.2,0.1-0.5,0.3-0.7,0.3c-1.9,0.6-4.3,0.2-6.2-1.6c0.8,3,0.9,6.3-0.4,8.5
		c-1.3,2.2-4.2,2.9-6.4,1.2c-2.1-1.7-3-5.1-2.6-7.8c-0.5,1.9-2.2,2.8-3.9,1.8c-1.7-0.9-2.7-3.3-2.3-5.2c-0.7,0.7-1.4,1.5-2.3,1.6
		c-0.9,0.1-2.2-1-2.1-2.2c-2,1.4-4.6,1.1-6.8-0.7c-2.3-1.9-2.9-6,0.1-6.3c1-0.1,2,0.3,3,0.4c2.7,0.2,4.9-1.6,7.3-2.5
		c6-2.1,13.4,1.7,19.7,0.2c3.8-0.9,7.3-3.6,11.3-2c1,0.4,2.1,1.2,2.5,2.4c0.6,2-0.8,3.6-2.4,3.9c0.4,3.9-3.1,6.6-6.1,4.7
		C955.2,1592.6,954.4,1593.8,953.5,1594.4L953.5,1594.4z"/><path id="path1926" class="st23" d="M588,1393.3c-0.3-0.2-0.7-0.4-1-0.7c-2.4-1.9-4.2-4.9-4.1-8.1c-2.4,2.6-5.9,4.6-9.4,4.3
		c-3.5-0.3-7-3.1-7.2-6.7c-0.1-3.4,2.6-6.4,5.9-7.4c-2.5,0.6-5-1-5.6-3.5s1-5,3.5-5.6c-1.4-0.3-2.9-0.7-3.8-1.8
		c-0.9-1.1-0.9-3.1,0.4-3.7c-3.3-1.5-5.5-4.7-5.5-8.3c0-3.7,3.8-6.7,6.8-3.4c1,1.1,1.6,2.5,2.4,3.7c2.3,3.2,6.2,4.7,9.4,7
		c7.9,5.8,10.7,16.4,18,22.9c4.4,3.9,10.6,6.4,12.6,11.9c0.5,1.4,0.6,3.1-0.3,4.3c-1.5,1.8-4.6,1.1-6.4-0.5
		c-3.7,2.7-9.9,0.2-10.7-4.4C591.5,1394.3,589.6,1394.1,588,1393.3L588,1393.3z"/><path id="path1928" class="st23" d="M654.1,1451.5c-0.7-0.1-1.4-0.3-2.1-0.5c-5.1-1.8-9.8-6-11.3-11.4c-2.6,5.8-7.4,10.9-13.5,12.4
		s-13.5-1.4-15.7-7.4c-2.1-5.7,0.9-12.2,5.8-15.7c-3.9,2.3-9,1.1-11.3-2.8s-1.1-9,2.8-11.3c-2.5,0.2-5.3,0.3-7.4-1
		c-2.2-1.3-3.2-4.7-1.3-6.5c-6.3-0.7-11.8-4.9-13.9-10.9c-2.1-6.2,2.7-13.4,9.5-9.5c2.2,1.3,4,3.4,6.1,4.9
		c5.6,4.2,13.1,4.5,19.7,6.6c16.4,5.4,27,21.8,42.9,28.6c9.6,4.1,21.4,5,27.8,13.2c1.6,2.1,2.8,4.9,1.9,7.3c-1.5,3.9-7.1,4.4-11,2.6
		c-4.8,6.5-16.5,5.7-20.4-1.5C660.4,1451.2,657.1,1451.9,654.1,1451.5L654.1,1451.5z"/><path id="path1930" class="st23" d="M702.1,1470.5c-0.2,0-0.4-0.1-0.5-0.1c-1.3-0.5-2.5-1.5-2.9-2.9c-0.7,1.5-1.9,2.8-3.5,3.2
		c-1.6,0.4-3.4-0.4-4-1.9c-0.5-1.4,0.2-3.1,1.5-4c-1,0.6-2.3,0.3-2.9-0.7c-0.6-1-0.3-2.3,0.7-2.9c-0.6,0-1.3,0.1-1.9-0.2
		c-0.6-0.3-0.8-1.2-0.3-1.6c-1.6-0.2-3-1.2-3.5-2.8c-0.5-1.6,0.7-3.4,2.4-2.4c0.6,0.3,1,0.9,1.6,1.3c1.4,1.1,3.3,1.1,5,1.7
		c4.2,1.4,6.9,5.6,10.9,7.3c2.5,1,5.5,1.3,7.1,3.4c0.4,0.5,0.7,1.2,0.5,1.9c-0.4,1-1.8,1.1-2.8,0.7c-1.2,1.7-4.2,1.5-5.2-0.4
		C703.7,1470.5,702.9,1470.6,702.1,1470.5L702.1,1470.5z"/><path id="path1932" class="st23" d="M788.8,1592.2c-0.2,0-0.4,0-0.5,0c-1.4-0.2-2.8-0.9-3.4-2.2c-0.3,1.6-1.2,3.1-2.7,3.9
		c-1.4,0.7-3.4,0.4-4.3-0.9c-0.8-1.3-0.5-3.1,0.6-4.2c-0.8,0.8-2.2,0.8-3,0s-0.8-2.2,0-3c-0.6,0.2-1.3,0.4-1.9,0.2
		c-0.6-0.2-1.1-1-0.7-1.5c-1.6,0.2-3.2-0.6-4.1-1.9c-0.9-1.4-0.1-3.5,1.8-2.9c0.6,0.2,1.2,0.6,1.8,0.9c1.6,0.7,3.5,0.4,5.3,0.5
		c4.4,0.4,7.9,3.9,12.3,4.7c2.6,0.5,5.6,0,7.7,1.7c0.5,0.4,1,1.1,0.9,1.7c-0.2,1.1-1.5,1.5-2.6,1.3c-0.8,1.9-3.8,2.4-5.1,0.8
		C790.4,1591.8,789.6,1592.1,788.8,1592.2z"/></g><path id="path1163-3" class="st24" d="M0,1000h2000"/><g id="g1300" transform="rotate(-90,935.71477,1186.2662)"><path id="rect1154" class="st25" d="M1032.5,514.1l124.2,1c5.8,0,10.4,4.8,10.4,10.5L1167,536c0,5.8-4.8,10.4-10.5,10.4l-124.2-1
		c-5.8,0-10.4-4.8-10.4-10.5l0.1-10.3C1022,518.7,1026.7,514.1,1032.5,514.1z"/><circle id="circle1156" class="st26" cx="1045.9" cy="529.8" r="3.5"/><circle id="circle1158" class="st26" cx="1094.4" cy="530.2" r="3.5"/><circle id="circle1160" class="st26" cx="1139.6" cy="530.6" r="3.5"/><path id="path1162" class="st27" d="M1032.1,615.3c4-7.6,14.9-8.2,23.1-5.7s16.2,7.3,24.8,6.9c7.2-0.4,13.7-4.4,20.9-5.5
		c16.4-2.6,25.2,13,41.2,17.6c4.5,1.3,10.2,1.6,13.2-2l1.2-80.2l-124.2-1L1032.1,615.3z"/></g><path id="path1163" class="st28" d="M1000,3v1994"/><path id="path1163_00000041277887928416891550000007421036695763465394_" class="st28" d="M1705,295L295,1705"/><path id="path1163_00000070091058594224332490000017397861715016120230_" class="st28" d="M1573.8,184.7L426.2,1815.3"/><path id="path1163_00000159429424973897455760000004426675926183132307_" class="st28" d="M1435.4,103.1L564.6,1896.9"/><rect id="rect_pink_00000155854410928729857100000013091334568686058413_" x="1441.4" y="409.5" transform="matrix(0.7071 -0.7071 0.7071 0.7071 136.2949 1228.0143)" class="st29" width="218.2" height="80"/><rect id="rect_blue_00000070092259912610232900000000399597943779538347_" x="1336.7" y="328.6" transform="matrix(0.5749 -0.8182 0.8182 0.5749 300.943 1336.3605)" class="st30" width="199.8" height="100"/><rect id="rectk_00000134937711388650936640000016249013620686359199_" x="1232.2" y="297.7" transform="matrix(0.4359 -0.9 0.9 0.4359 468.7234 1378.3926)" width="203.5" height="35.1"/></svg>