<svg xmlns="http://www.w3.org/2000/svg" viewBox="0 0 71.84 31.77"><defs><style>.cls-1{fill:#f16364;}.cls-2{fill:#f8a593;}</style></defs><g id="Layer_2" data-name="Layer 2"><g id="jlly_fish" data-name="jlly fish"><path class="cls-1" d="M25.72,4A18.4,18.4,0,0,1,37.15,0,14.5,14.5,0,0,1,48,5a33.14,33.14,0,0,1,3.35,5.58,35.55,35.55,0,0,0,8.21,10.62,20,20,0,0,0,12.28,5c-1.12,2.79-4.35,4.27-7.35,4.19S58.67,29,56.05,27.51a7.46,7.46,0,0,1-8.8,3.6c-1.44-.5-2.68-1.43-4.08-2a4.33,4.33,0,0,0-4.33.19c-.78.63-1.19,1.65-2,2.16-1.13.67-2.59.22-3.7-.48a14.13,14.13,0,0,0-3.36-2c-2.6-.74-5.13,1.17-7.72,1.95a9.56,9.56,0,0,1-8.58-1.7,9.93,9.93,0,0,0-2.17-1.61c-2.11-.9-4.48.6-6.77.48A5,5,0,0,1,.17,22C-.06,22.74,7,23.84,8,23.44c2.28-.87,4.58-3.81,6.11-5.62C18,13.23,20.91,7.74,25.72,4Z"/><path class="cls-1" d="M29.47,4.55C28,5.75,26.54,6.41,25.36,7.9a39,39,0,0,0-3,4.35c-1.65,2.9-2.83,9.16-7.25,9-1.32,0-.46.86.41.88,4.12.13,5.81-3.19,7.33-6.54a42,42,0,0,1,3.32-5.74C27.6,7.72,29.37,6.62,31.31,5c.39-.32-1.36-.87-1.84-.47Z"/><path class="cls-2" d="M31.19,10.08a1.07,1.07,0,0,1,.31,0l-.21,0,.21.06L31.31,10l.15.08L31.3,10l.1.09-.14-.16a.61.61,0,0,1,.07.1l-.09-.2,0,.1,0-.22v.1l0-.21a.43.43,0,0,1,0,.11l.07-.2a.24.24,0,0,1-.06.11l.13-.16-.12.12.16-.13a1.08,1.08,0,0,1-.26.14.66.66,0,0,0-.22.22.57.57,0,0,0-.14.28.55.55,0,0,0,0,.31.67.67,0,0,0,.1.31.89.89,0,0,0,.5.37l.2,0A.79.79,0,0,0,32,11a.76.76,0,0,0,.23-.13,1.53,1.53,0,0,0,.31-.26,1.31,1.31,0,0,0,.27-.49.86.86,0,0,0,.06-.35,1,1,0,0,0-.06-.35,1.23,1.23,0,0,0-.29-.49,1.46,1.46,0,0,0-.63-.39,1.48,1.48,0,0,0-.42-.07h-.28a.59.59,0,0,0-.32.08.76.76,0,0,0-.43.43.56.56,0,0,0-.06.31.84.84,0,0,0,.24.58l.17.12a.8.8,0,0,0,.4.11Z"/><path class="cls-2" d="M37.31,7.18a.82.82,0,0,0-.44-1.57.82.82,0,0,0,.44,1.57Z"/><path class="cls-2" d="M40.6,11.93a.33.33,0,0,0-.17-.63.33.33,0,0,0,.17.63Z"/><path class="cls-2" d="M43.59,8.79a.33.33,0,0,0-.17-.63.33.33,0,0,0,.17.63Z"/><path class="cls-2" d="M30.41,4.87l.49,0a.13.13,0,0,0,.12,0,.16.16,0,0,0,.11-.07.28.28,0,0,0,.09-.22.31.31,0,0,0-.1-.24l-.06,0a.47.47,0,0,0-.16,0l-.49,0a.17.17,0,0,0-.12,0,.16.16,0,0,0-.11.07.36.36,0,0,0-.07.1.25.25,0,0,0,0,.12.31.31,0,0,0,.1.24l.06,0a.47.47,0,0,0,.16,0Z"/><path class="cls-2" d="M23.85,14.32a.65.65,0,0,0-.35-1.25.65.65,0,0,0,.35,1.25Z"/><path class="cls-2" d="M30.5,15.78a.49.49,0,0,0-.26-.94.49.49,0,0,0,.26.94Z"/><path class="cls-2" d="M26.74,18.06a.17.17,0,0,0-.08-.32.17.17,0,0,0,.08.32Z"/><path class="cls-2" d="M35.79,18.18a.17.17,0,0,0-.09-.32.17.17,0,0,0,.09.32Z"/><path class="cls-2" d="M41.28,17.94l0,0,0,0h0a.26.26,0,0,1,0,.09s0,0,0,0,0,0,0,0v0h0v0s0,0,0,0,0,0,0,0v0s0,0,0,0v0s0,0,0,0a.3.3,0,0,1,0,.08h0s0,0,0,0l0,0-.06.06h0l0,0-.08.05h0s0,0,0,0a.61.61,0,0,1-.18.05h-.15s0,0,0,0h-.12s0,0,0,0l0,0,0,0s0,0,0,0l0,0,0,0h0s0,0,0,0v.17a1.16,1.16,0,0,1,.43-.54.19.19,0,0,0,.06-.23.17.17,0,0,0-.23-.05,1.34,1.34,0,0,0-.38.37,2.39,2.39,0,0,0-.13.21.44.44,0,0,0-.06.16.31.31,0,0,0,.05.12.64.64,0,0,0,.53.23,1,1,0,0,0,.92-.6.69.69,0,0,0-.22-.67.16.16,0,0,0-.23,0,.17.17,0,0,0,0,.23Z"/><path class="cls-2" d="M45.62,15.2a2,2,0,0,1,.35,0l-.17,0a1.69,1.69,0,0,1,.44.12l-.15-.06a1.14,1.14,0,0,1,.32.18l-.13-.1a1.88,1.88,0,0,1,.25.24l-.11-.14a.35.35,0,0,1,0,.08.69.69,0,0,0,.4.29.68.68,0,0,0,.5-.07.71.71,0,0,0,.29-.39.62.62,0,0,0-.07-.5,2,2,0,0,0-.86-.73,3,3,0,0,0-.53-.17,2.83,2.83,0,0,0-.58,0,.66.66,0,0,0-.46.19.68.68,0,0,0-.19.46.65.65,0,0,0,.2.46.6.6,0,0,0,.45.19Z"/><path class="cls-2" d="M48.4,21.3A.65.65,0,0,0,48.05,20a.65.65,0,0,0,.35,1.26Z"/><path class="cls-2" d="M52.2,19.3a.49.49,0,0,0-.26-.94.49.49,0,0,0,.26.94Z"/><path class="cls-2" d="M48.11,10.84a.49.49,0,0,0-.26-.95.49.49,0,0,0,.26.95Z"/><path class="cls-2" d="M43.25,5.24a.49.49,0,0,0-.26-1,.49.49,0,0,0,.26,1Z"/><path class="cls-2" d="M38.62,10.18a.49.49,0,0,0-.26-.94.49.49,0,0,0,.26.94Z"/><path class="cls-2" d="M34.63,16.17a.49.49,0,0,0-.26-.94.49.49,0,0,0,.26.94Z"/><path class="cls-2" d="M18.78,18.1a.49.49,0,0,0-.26-.94.49.49,0,0,0,.26.94Z"/><path class="cls-2" d="M29.83,20.37a.49.49,0,0,0-.27-.94.49.49,0,0,0,.27.94Z"/><path class="cls-2" d="M28.27,23.89A.49.49,0,0,0,28,23a.49.49,0,0,0,.26.94Z"/></g></g></svg>