<svg xmlns="http://www.w3.org/2000/svg" viewBox="0 0 88.53 337.55"><defs><style>.cls-1{fill:#fff;}</style></defs><g id="Layer_2" data-name="Layer 2"><g id="bubbles"><path class="cls-1" d="M67.66,326.77a7.2,7.2,0,0,0-1.22,4.2,7.39,7.39,0,0,0,.35,2.61,5.8,5.8,0,0,0,2.11,2.82,6.27,6.27,0,0,0,3.95,1.14A6.64,6.64,0,0,0,78.58,333C80.66,326.36,72.12,320.75,67.66,326.77Z"/><path class="cls-1" d="M1.22,167.13A7.28,7.28,0,0,0,0,171.34a7.86,7.86,0,0,0,.35,2.6,5.92,5.92,0,0,0,2.11,2.82,6.28,6.28,0,0,0,4,1.14,6.64,6.64,0,0,0,5.72-4.57C14.22,166.72,5.68,161.11,1.22,167.13Z"/><path class="cls-1" d="M47.33,206.37a7.25,7.25,0,0,0-1.22,4.21,7.42,7.42,0,0,0,.35,2.61A5.73,5.73,0,0,0,48.57,216a6.16,6.16,0,0,0,4,1.14,6.61,6.61,0,0,0,5.72-4.57C60.33,206,51.79,200.35,47.33,206.37Z"/><path class="cls-1" d="M53.55,298.54a5,5,0,0,0-.83,2.87,5.3,5.3,0,0,0,.24,1.77,3.91,3.91,0,0,0,1.44,1.91,4.17,4.17,0,0,0,2.69.78A4.52,4.52,0,0,0,61,302.76C62.4,298.27,56.58,294.44,53.55,298.54Z"/><path class="cls-1" d="M80.88,7.53a4.87,4.87,0,0,0-.83,2.86,5.1,5.1,0,0,0,.23,1.78,4,4,0,0,0,1.44,1.91,4.17,4.17,0,0,0,2.69.78,4.54,4.54,0,0,0,3.9-3.11C89.72,7.25,83.91,3.43,80.88,7.53Z"/><path class="cls-1" d="M53.55,155.12a5,5,0,0,0-.83,2.87,5.3,5.3,0,0,0,.24,1.77,3.91,3.91,0,0,0,1.44,1.91,4.17,4.17,0,0,0,2.69.78A4.52,4.52,0,0,0,61,159.34C62.4,154.85,56.58,151,53.55,155.12Z"/><path class="cls-1" d="M78.54,133a3.41,3.41,0,0,0-.56,1.93,3.78,3.78,0,0,0,.16,1.2,2.76,2.76,0,0,0,1,1.29,2.89,2.89,0,0,0,1.82.52,3,3,0,0,0,2.63-2.1C84.52,132.79,80.59,130.21,78.54,133Z"/><path class="cls-1" d="M60.51,124.53a3.36,3.36,0,0,0-.56,1.94,3.68,3.68,0,0,0,.16,1.19,2.74,2.74,0,0,0,1,1.3,2.89,2.89,0,0,0,1.82.52,3,3,0,0,0,2.63-2.1C66.49,124.35,62.56,121.77,60.51,124.53Z"/><path class="cls-1" d="M34.34,1.18a3.28,3.28,0,0,0-.56,1.93,3.48,3.48,0,0,0,.16,1.2,2.65,2.65,0,0,0,1,1.29,2.79,2.79,0,0,0,1.81.52A3,3,0,0,0,39.35,4C40.31,1,36.38-1.59,34.34,1.18Z"/></g></g></svg>