<svg xmlns="http://www.w3.org/2000/svg" viewBox="0 0 74.02 114.53"><defs><style>.cls-1{fill:#f8a593;}.cls-2{fill:#f59082;}.cls-3{fill:#f16364;}</style></defs><g id="Layer_2" data-name="Layer 2"><g id="jlly_fish" data-name="jlly fish"><path class="cls-1" d="M45.29,23A9.76,9.76,0,0,0,40,30.55a16.12,16.12,0,0,0,.23,5.79c.39,1.93,1.15,3.74,1.69,5.64a7.37,7.37,0,0,1-.2,5.31,11,11,0,0,1-2.8,3.42c-2.32,2.07-4.88,3.76-6.61,6.4A17,17,0,0,0,30.1,70.66a26.75,26.75,0,0,0,2,4.84,10.48,10.48,0,0,1,1.45,5.13,10.81,10.81,0,0,1-2,4.88,16.68,16.68,0,0,0-2.24,4.91,13.78,13.78,0,0,0-.2,5.39c.29,1.81,1,3.51,1.44,5.27a6.58,6.58,0,0,1-.29,5.15,11.87,11.87,0,0,1-2.88,2.82A6.94,6.94,0,0,0,25,111.71a3.23,3.23,0,0,0-.13,1.69,1.84,1.84,0,0,0,.53,1c.22.19.35.16.3-.15a3.68,3.68,0,0,1,1.57-3.08c1-.87,2.06-1.6,3-2.56,2.47-2.63,1.34-6.06.39-9.1a15.32,15.32,0,0,1-.85-5.41,13,13,0,0,1,1.47-5.39c.8-1.53,1.87-2.91,2.55-4.5a7.53,7.53,0,0,0,.31-4.91,28.32,28.32,0,0,0-2-4.9,15.67,15.67,0,0,1-1.5-4.61A16.42,16.42,0,0,1,32,60.39a15.49,15.49,0,0,1,2.66-4,32,32,0,0,1,3.45-3c2.2-1.78,4.59-3.81,5-6.79a12.3,12.3,0,0,0-.91-5.45,26.07,26.07,0,0,1-1.47-5.81c-.35-3.52.57-7.3,3.34-9.67a8.31,8.31,0,0,1,2-1.25c.29-.13-.42-1.59-.76-1.44Z"/><path class="cls-2" d="M52.52,29.85c-.27.21-.75.15-1.08.25a3.12,3.12,0,0,0-.91.46,9.35,9.35,0,0,0-1.71,1.56,6.15,6.15,0,0,0-1.16,4.12c.13,1.68,1.32,3.06,1.8,4.64s.91,3.52.35,5.08c-.27.74-1,1-1.61,1.36a24.65,24.65,0,0,1-2.44,1.15,24.16,24.16,0,0,0-4.57,2.3,11,11,0,0,0-1.73,1.62,6.89,6.89,0,0,0-1.45,2,8.65,8.65,0,0,0-.34,4.91,30,30,0,0,1,.65,5.16c0,1.54-.37,3.17-1.85,3.93-1.24.63-2.69.76-4,1.3A8.89,8.89,0,0,0,29,72.13a9.58,9.58,0,0,0-1.68,4.12,5.65,5.65,0,0,0,0,2.13,6.49,6.49,0,0,1,.45,2c-.12.83-1.32,1-2,1.15l-2.55.72a4,4,0,0,0-2.83,2.44,19.26,19.26,0,0,0-1.52,6c-.18,2.11,0,4.29-.33,6.38a3.3,3.3,0,0,1-1.38,2.09,7,7,0,0,0-1.6,2.16,6.57,6.57,0,0,0-.8,2.53,11.54,11.54,0,0,0,.5,3c.11.46,1.36.13,1.25-.35a11.35,11.35,0,0,1-.49-2.76,6.12,6.12,0,0,1,.81-2.52,6,6,0,0,1,1.35-1.78,4.4,4.4,0,0,0,1.39-1.64,7.35,7.35,0,0,0,.36-2.38c0-1,.06-1.94.09-2.92a23.11,23.11,0,0,1,.82-5.67c.39-1.33.79-3.24,2.24-3.77s3.28-.68,4.73-1.45a2,2,0,0,0,1.16-1.2,4.35,4.35,0,0,0-.36-2.07A7.08,7.08,0,0,1,29.15,74a6.14,6.14,0,0,1,3-3.36A23.78,23.78,0,0,1,36,69.28a4.8,4.8,0,0,0,3.08-2.48,8.88,8.88,0,0,0,.4-4.28c-.17-1.73-.67-3.41-.76-5.14A7.1,7.1,0,0,1,39,54.91a6,6,0,0,1,1.62-2.43A8.41,8.41,0,0,1,42.32,51c.74-.44,1.52-.87,2.29-1.26s1.68-.66,2.51-1,1.48-.72,2.2-1.1a3.48,3.48,0,0,0,1.57-1.34,4.79,4.79,0,0,0,.39-2.31,12.81,12.81,0,0,0-1.48-5.49,6.87,6.87,0,0,1-.89-2.55,6.64,6.64,0,0,1,.43-2.53A4.65,4.65,0,0,1,51,31.25a2,2,0,0,1,1.18-.55,2.35,2.35,0,0,0,1.14-.44c.67-.51-.39-.73-.8-.41Z"/><path class="cls-2" d="M34,25.54c-2.18-.46-5,1.7-6.41,3.17-1.75,1.81-3,4.43-2.21,6.92A13.76,13.76,0,0,1,26.23,38a5.51,5.51,0,0,1-1.5,3.83,17.82,17.82,0,0,1-4.19,3.89c-2.87,1.88-6.11,3.24-8.72,5.5a11.12,11.12,0,0,0-3.6,7.92c-.24,3.81,1.28,7,2,10.64.41,2,.76,4.23-.09,6.16-.71,1.59-1.76,2.92-2.39,4.56A45,45,0,0,0,5.37,91.65c-.11.92,1.42,1.91,1.56.7.46-3.95,1-7.82,2.6-11.5,1.09-2.46,2.72-4.19,2.72-7,0-6.83-5.76-14.66.25-20.61C17,48.81,24,47.63,27.08,41.66a6,6,0,0,0,.72-3.38c-.19-1.73-1.41-2.92-.93-4.79.6-2.37,4.52-6.72,7.35-6.12,1.07.22.67-1.64-.21-1.83Z"/><path class="cls-1" d="M36.35,26.52c-1.28,3.36-2.63,6.7-3.86,10.08A39.19,39.19,0,0,0,30.6,46.78c-.38,3.94-1.17,7.2-4.14,10-2.21,2.06-4.77,3.74-7.13,5.63-4.5,3.63-8.17,8.84-7.64,14.86a46,46,0,0,0,1.06,5.57c.27,1.27.84,2.52-.46,3.65a11.39,11.39,0,0,1-1.73.81c-2.12,1.24-2.95,3.6-3,6,0,1,1.48,1.73,1.53.45a5.44,5.44,0,0,1,3.43-5.15,3.72,3.72,0,0,0,2-1.41c1.18-2.17-.67-5.93-1-8.18-1.35-8.13,4.68-13.22,10.48-17.65a27.68,27.68,0,0,0,5.46-4.9C31.18,54,31.73,51.1,32,48.16c.38-3.68.63-7.16,1.91-10.66s2.58-6.73,3.87-10.09c.33-.87-1-2-1.47-.89Z"/><path class="cls-2" d="M47.57,26.5a44.74,44.74,0,0,1-3,4.42c-1.68,2-3.75,2.52-6.1,3.31A22.67,22.67,0,0,0,29,40.56c-6.52,7.09.86,15.73,3.14,22.9,1.63,5.11-4,7-8.09,7.76C20.27,71.94,17,72.38,13.93,75c-2.52,2.16-5.09,5.73-4.41,9.24C10.24,88,14.44,90,14.75,94c.36,4.88-6.66,3.81-9.38,6.23-3.8,3.39-.9,8.88-2.44,13-.17.47,1.47,1.39,1.55,1.19,1.43-3.85-.94-8.41,1.52-12,2.21-3.21,6.39-2.15,9.17-4.28,2.51-1.92.47-6.17-.91-8.2C13,88.19,11.18,87,11,84.6s1-4.29,2.33-6a15.28,15.28,0,0,1,10.48-5.83c3-.4,8.61-1.43,10-4.65,1.34-3-1.64-7.22-2.92-9.82-2-4-4.23-9.59-2.13-13.93,2-4.11,6.87-7.43,11.06-8.84,1.86-.62,3.65-1,5.18-2.28,1.73-1.5,2.82-3.63,4.07-5.51.22-.34-1.36-1.48-1.54-1.19Z"/><path class="cls-1" d="M25,23.27c-1.54-.26-2.78.82-3.79,1.9a11.63,11.63,0,0,0-3.06,8.07c.16,6.9,7.25,10.13,9.49,16.19,1.16,3.15-.88,5.14-4.11,5-1.68,0-3.34-.32-5-.35-2.58,0-5.07.15-7,2a7.61,7.61,0,0,0-2.09,7.38c.33,1.64,1,3.15,1.42,4.75.74,2.56-.12,3.87-2.5,4.83-2.56,1-5.74,1.68-6.09,5-.2,1.81.33,3.71.52,5.5C3,86,1.23,87.24,0,89.17c-.18.3.85.49,1,.2C2,87.88,3.7,86.58,3.87,84.79s-.57-3.69-.65-5.47C3,73.81,8.5,75,11.34,72.16c2.3-2.29-.71-6.79-1.09-9.41a7.14,7.14,0,0,1,2.17-6.33c2.33-2.21,5.65-1.93,8.63-1.67,2.2.19,5.34.78,7.1-1,2.62-2.7-.79-7-2.51-9.2-2.58-3.23-6.08-6-6.42-10.41a10.55,10.55,0,0,1,1.11-5.81c.61-1.24,2.53-4.88,4.32-4.58.47.08,1-.32.32-.44Z"/><path class="cls-3" d="M35.5,1.48A18.29,18.29,0,0,1,47.59.68,14.49,14.49,0,0,1,56.7,8.43a33,33,0,0,1,1.74,6.28A35.61,35.61,0,0,0,63.5,27.14a20,20,0,0,0,10.52,8c-1.83,2.39-5.34,3-8.21,2.07s-5.22-2.92-7.37-5A7.43,7.43,0,0,1,49,33.35c-1.25-.86-2.2-2.09-3.4-3a4.34,4.34,0,0,0-4.22-1c-.91.4-1.59,1.27-2.55,1.53-1.26.35-2.54-.48-3.43-1.44a13.91,13.91,0,0,0-2.71-2.81c-2.3-1.41-5.25-.24-8-.19a9.53,9.53,0,0,1-7.81-3.93,10.5,10.5,0,0,0-1.66-2.13c-1.79-1.43-4.48-.62-6.65-1.35A5,5,0,0,1,6.08,12c-.43.69,6.07,3.63,7.19,3.53,2.44-.23,5.44-2.45,7.39-3.78C25.62,8.31,29.87,3.79,35.5,1.48Z"/><path class="cls-3" d="M39,3c-1.72.77-3.33,1-4.86,2.14a36.43,36.43,0,0,0-4,3.39c-2.37,2.35-5.19,8.07-9.4,6.76-1.27-.4-.68.7.15,1,3.94,1.22,6.45-1.52,8.82-4.35a42.3,42.3,0,0,1,4.73-4.64C36.33,5.56,38.33,5,40.62,4c.46-.2-1.07-1.2-1.64-1Z"/><path class="cls-1" d="M39.15,8.8a1,1,0,0,1,.3.08l-.19-.09a1.18,1.18,0,0,1,.19.11l-.17-.12a.49.49,0,0,1,.13.12l-.13-.17a.75.75,0,0,1,.07.12l-.08-.19,0,.12,0-.22v.1l0-.22a.29.29,0,0,1,0,.1l.08-.19a.41.41,0,0,1-.05.09l.13-.17-.09.09.16-.13a.54.54,0,0,1-.15.09l.2-.08a1.37,1.37,0,0,1-.29.07.64.64,0,0,0-.28.15.61.61,0,0,0-.2.22.6.6,0,0,0-.1.31.58.58,0,0,0,0,.32.85.85,0,0,0,.38.49l.19.08a.79.79,0,0,0,.43,0A1.22,1.22,0,0,0,40,9.82a1.73,1.73,0,0,0,.36-.18,1.24,1.24,0,0,0,.4-.39,1.09,1.09,0,0,0,.15-.33,1,1,0,0,0,0-.35A1.37,1.37,0,0,0,40.75,8a1.52,1.52,0,0,0-.5-.54,2.81,2.81,0,0,0-.39-.19,1.31,1.31,0,0,0-.27-.06.62.62,0,0,0-.33,0,.63.63,0,0,0-.3.1.58.58,0,0,0-.23.21.59.59,0,0,0-.14.27.81.81,0,0,0,.08.63l.13.17a.84.84,0,0,0,.35.21Z"/><path class="cls-1" d="M45.82,7.64a.82.82,0,0,0,0-1.63.82.82,0,0,0,0,1.63Z"/><path class="cls-1" d="M47.73,13.09a.33.33,0,0,0,0-.65.33.33,0,0,0,0,.65Z"/><path class="cls-1" d="M51.45,10.86a.33.33,0,0,0,0-.65.33.33,0,0,0,0,.65Z"/><path class="cls-1" d="M39.8,3.56l.45.18h.13a.21.21,0,0,0,.12,0,.28.28,0,0,0,.1-.09.37.37,0,0,0,0-.11.31.31,0,0,0,0-.25l0-.07a.39.39,0,0,0-.14-.08L40,2.94a.2.2,0,0,0-.13,0,.28.28,0,0,0-.12,0,.24.24,0,0,0-.09.08.24.24,0,0,0-.06.11.35.35,0,0,0,0,.25l0,.07a.31.31,0,0,0,.15.08Z"/><path class="cls-1" d="M30.94,10.92a.65.65,0,0,0,0-1.3.65.65,0,0,0,0,1.3Z"/><path class="cls-1" d="M37,14.1a.49.49,0,0,0,0-1,.49.49,0,0,0,0,1Z"/><path class="cls-1" d="M32.74,15.29a.16.16,0,0,0,0-.32.16.16,0,0,0,0,.32Z"/><path class="cls-1" d="M41.42,17.83a.17.17,0,0,0,0-.33.17.17,0,0,0,0,.33Z"/><path class="cls-1" d="M46.78,19.06l0,.06v0s0,0,0,0l0,.1c0,.05,0,0,0,0v0s0,0,0,0,0-.05,0,0v0s0,0,0,0,0,0,0,0h0l0,0h0s0,0,0,0a.34.34,0,0,1-.06.06h0s0,0,0,0l0,0-.08.05s0,0,0,0l0,0-.09,0h-.31l-.09,0h0l0,0,0,0h0l0,0,0,0s0,0,0,0v0l0,0s0,0,0,0v0l0,.16a1.19,1.19,0,0,1,.56-.41.16.16,0,0,0,.11-.2.16.16,0,0,0-.2-.11,1.63,1.63,0,0,0-.47.25l-.18.17a.42.42,0,0,0-.09.14.15.15,0,0,0,0,.13.68.68,0,0,0,.44.37,1,1,0,0,0,1.06-.34.7.7,0,0,0,0-.7.17.17,0,0,0-.22-.06.16.16,0,0,0-.06.22Z"/><path class="cls-1" d="M51.69,17.59a2.07,2.07,0,0,1,.33.1l-.16-.06a1.6,1.6,0,0,1,.4.23l-.13-.1a1.07,1.07,0,0,1,.26.26l-.1-.13a1.22,1.22,0,0,1,.17.29L52.4,18l0,.08a.73.73,0,0,0,.3.39.67.67,0,0,0,.5.06.64.64,0,0,0,.45-.8,1.91,1.91,0,0,0-.63-.92,2.39,2.39,0,0,0-.47-.31,3.16,3.16,0,0,0-.54-.2.67.67,0,0,0-.5.07.62.62,0,0,0-.3.39.67.67,0,0,0,.06.5.68.68,0,0,0,.39.3Z"/><path class="cls-1" d="M52.74,24.2a.65.65,0,0,0,0-1.3.65.65,0,0,0,0,1.3Z"/><path class="cls-1" d="M56.93,23.3a.49.49,0,0,0,0-1,.49.49,0,0,0,0,1Z"/><path class="cls-1" d="M55.25,14.05a.49.49,0,0,0,0-1,.49.49,0,0,0,0,1Z"/><path class="cls-1" d="M52.07,7.35a.49.49,0,0,0,0-1,.49.49,0,0,0,0,1Z"/><path class="cls-1" d="M46.29,10.88a.49.49,0,0,0,0-1,.49.49,0,0,0,0,1Z"/><path class="cls-1" d="M40.84,15.58a.49.49,0,0,0,0-1,.49.49,0,0,0,0,1Z"/><path class="cls-1" d="M25.05,13.2a.49.49,0,0,0,0-1,.49.49,0,0,0,0,1Z"/><path class="cls-1" d="M35.09,18.34a.49.49,0,0,0,0-1,.49.49,0,0,0,0,1Z"/><path class="cls-1" d="M32.64,21.32a.49.49,0,0,0,0-1,.49.49,0,0,0,0,1Z"/></g></g></svg>