<svg xmlns="http://www.w3.org/2000/svg" viewBox="0 0 64.89 74.67"><defs><style>.cls-1{fill:#edd7af;}.cls-2{fill:#ceb082;}.cls-3{fill:#ffefcb;}</style></defs><g id="Layer_2" data-name="Layer 2"><g id="coral"><path class="cls-1" d="M29.13.76a3.73,3.73,0,0,0-.38.28,23.53,23.53,0,0,1,4.52,5.73A50.92,50.92,0,0,1,37.51,16c2.4,6.61,4.17,13.91,8.72,19.36,0,0,0,0,0,0a37.6,37.6,0,0,1-3.1-4c-1-1.51-1.74-3.1-2.57-4.68-1.59-3.05-2.85-6.24-4.26-9.38a75.87,75.87,0,0,0-4.54-9.17,38.61,38.61,0,0,0-4.21-5.27,5.9,5.9,0,0,0-.29,1.47,6.07,6.07,0,0,0-4.77,0,5.78,5.78,0,0,0-2.72,2.36c.68,1.27,1.38,2.53,2.13,3.75,1.69,2.76,3.51,5.45,5.34,8.12,2,2.88,4,5.67,6.17,8.43,1.92,2.49,3.72,5.1,5.67,7.56,0,0,0,0,0,0-2-2.55-4.39-4.87-6.56-7.28s-4.6-5-6.82-7.59a66.13,66.13,0,0,1-6-8c-.62-1-1.23-2-1.79-3a5.47,5.47,0,0,0-5,1.53,5.58,5.58,0,0,0-1.28,2.13c.64.76,1.25,1.55,1.91,2.31,1.5,1.73,3.1,3.35,4.72,5,2.66,2.65,5.62,5,8.28,7.62s5.07,5.23,7.87,7.55c2.18,1.8,5.19,4.32,8.3,4.2,0,0,0,0,0,0-3.28.13-6-1.54-8.53-3.36-3-2.18-5.67-4.72-8.48-7.11-3.06-2.59-6.52-4.65-9.6-7.22a46,46,0,0,1-4.65-4.5l.09.48c-2,.8-4.19,1.4-5.77,2.9a3.74,3.74,0,0,0-1.16,3.68A47.86,47.86,0,0,1,9.2,25.86c3.54,1.79,6.93,3.84,10.29,5.93A128.87,128.87,0,0,0,41.54,43.11s0,0,0,0c-7.82-2.26-14.83-6.25-22.11-9.66-3.79-1.78-7.6-3.49-11.48-5.06-1.26-.5-2.5-1-3.76-1.5a8,8,0,0,0-2.87,7.28l0,.28.1,0c1.82.62,3.67,1.15,5.55,1.63,3.59.91,7.22,1.66,10.82,2.54s7.35,1.7,10.9,2.9A59.08,59.08,0,0,1,38.84,46.3s0,0,0,0c-6.61-4-15.06-4.92-22.74-5.88a95.56,95.56,0,0,1-11-1.8l-2.19-.57a2.49,2.49,0,0,1,.22.75c0-.3-.38,0-.69.07a4.17,4.17,0,0,0-1.11.47A3.81,3.81,0,0,0,.14,41.5c-.51,1.63.46,3.57,1.14,4.92l.09.17c3.44.34,6.89.51,10.35.73A123.66,123.66,0,0,1,24.5,48.77c2.11.35,4.2.77,6.29,1.23,2.28.5,4.6,1.23,6.93,1.51a0,0,0,0,1,0,0c-2.32-.41-4.81-.43-7.18-.62s-4.82-.41-7.24-.59c-4.21-.3-8.43-.31-12.66-.22-2.93.07-5.9.09-8.82-.1a5.34,5.34,0,0,1-.26.64,4.56,4.56,0,0,0,.07,4.7,6.2,6.2,0,0,0,1.14,1.37l.52,0q5.28-.54,10.58-1c6.84-.57,13.85-1.37,20.66-1.08,0,0,0,0,0,0-3.37.61-6.76,1-10.13,1.62S17.46,57.56,14,58.19c-3.2.58-6.39,1.12-9.6,1.53a3.22,3.22,0,0,0,0,3.72,9.15,9.15,0,0,0,2,1.83c3.46-1,6.92-1.9,10.39-2.81,3.63-1,7.24-1.77,10.91-2.43,3.44-.62,7-.87,10.41-1.16.2,0,.21.26,0,.29a100.49,100.49,0,0,0-11,2.89c-3.59,1.07-7.16,2.23-10.74,3.34-2.49.77-5,1.53-7.49,2.26a28.34,28.34,0,0,0,2.07,3q4.25-.91,8.46-2.13a91.5,91.5,0,0,1,11.15-2.5c4-.63,8.05-1,12-2.22a.21.21,0,0,1,.11.4c-3.92,1.29-7.89,2.06-11.87,3.06s-7.65,2.56-11.52,3.81c-1.85.6-3.72,1.15-5.59,1.64a22.87,22.87,0,0,0,9.08,1.9c5.94.22,12.29-1.21,18-3.15a95.7,95.7,0,0,0,11.95-4.88c4.26-2.12,9.81-5.11,11.62-9.86a7.13,7.13,0,0,0-.56-6.26c-.9-1.59-2.62-2.8-3.89-4.08s-2.4-2.19-3.55-3.35c-.88-2-1.69-4-2.39-6-2.38-6.76-3.78-13.88-6.87-20.34C44.44,11.09,41.09,4.8,35.71,1.32,33.79.09,31.33-.63,29.13.76ZM23.45,9.05c-1.47-1.22.21-3.9,1.8-2.7,3,2.27,3.51,6,4.64,9.43,0,0,0,0,0,0C27.34,14,25.83,11,23.45,9.05Zm-4.22,8.86a16.59,16.59,0,0,1-4.35-4.76c-.8-1.59,1.57-2.77,2.49-1.37a53,53,0,0,0,3.2,4.91,46.87,46.87,0,0,0,3.7,4.15s0,0,0,0A15.39,15.39,0,0,1,19.23,17.91Zm-2,9.48c-.88-.38-1.76-.77-2.64-1.18s-1.77-.84-2.68-1.18a5.09,5.09,0,0,1-2.35-1.38A1.56,1.56,0,0,1,11,21.12a6.55,6.55,0,0,1,2.74,1.54c.75.55,1.53,1.09,2.24,1.68,1.22,1,2.93,2.37,3.43,4a.05.05,0,0,1-.05.06A13.23,13.23,0,0,1,17.2,27.39ZM11.77,35c-1.11-.26-2.21-.52-3.34-.7a13.26,13.26,0,0,1-2.82-.53C3.9,33.12,5,30.37,6.77,30.69a13,13,0,0,1,3,1.24l3.08,1.43a18,18,0,0,1,5.24,3.48h0C16,36.25,13.89,35.53,11.77,35Zm3.75,18.59s0,0,0,0c-3.53,0-7,1-10.46,1.55-2,.28-2.53-2.71-.57-3C8.28,51.74,12,52.63,15.52,53.62Zm-2.33,7.46a.15.15,0,0,1,0,.28,17.8,17.8,0,0,1-5.77,2.16c-1.81.28-1.78-2.49-.09-2.38C9.22,61.27,11.41,60.53,13.19,61.08Zm26.74,7.41L41.56,68s0,0,0,0l-1.63.54S39.91,68.5,39.93,68.49ZM59.51,50.35a4.17,4.17,0,0,1,1.54,1.76A5,5,0,0,1,61.34,56c-1,2.9-3.7,5.22-6.22,6.88A27.63,27.63,0,0,1,50,65.35c-1.7.69-3.39,1.41-5.12,2-2.49.85-5,1.7-7.5,2.31,0,0,0,0,0,0a27,27,0,0,0,6.71-3,66.44,66.44,0,0,0,8-5.59c2.09-1.66,4.63-3.22,5.71-5.45A2,2,0,0,0,58,54c-.23-.44-.65-.61-.93-1.34-.15-.38-.2-.63-.33-1s-.05-.23,0-.21l-.17-.24c-.37-.53.28-1.07.79-1a.49.49,0,0,1,.19,0,.29.29,0,0,1,.1,0,1.8,1.8,0,0,1,.8,0A2.88,2.88,0,0,1,59.51,50.35ZM17.06,43.78c.87.28,1.76.54,2.64.8.72.21,1.41.57,2.13.75,0,0,0,0,0,0-1,0-1.9.22-2.86.21-.79,0-1.59,0-2.38,0-1.74,0-3.54.06-5.27-.13s-3.48-.56-5.22-.85c-1.59-.26-3.57-.12-4.36-1.68a1.44,1.44,0,0,1,.44-1.62c1.33-1.18,3.37-.36,4.86-.1a46.63,46.63,0,0,1,5.14,1C13.82,42.66,15.42,43.27,17.06,43.78Z"/><path class="cls-2" d="M31.74,8.12a75.87,75.87,0,0,1,4.54,9.17c1.41,3.14,2.67,6.33,4.26,9.38.83,1.58,1.62,3.17,2.57,4.68a37.6,37.6,0,0,0,3.1,4s0,0,0,0C41.68,29.89,39.91,22.59,37.51,16a50.92,50.92,0,0,0-4.24-9.21A23.53,23.53,0,0,0,28.75,1a3.92,3.92,0,0,0-1.22,1.81A38.61,38.61,0,0,1,31.74,8.12Z"/><path class="cls-2" d="M25.67,19.69c2.22,2.57,4.54,5.06,6.82,7.59S37,32,39.05,34.56c0,0,0,0,0,0-2-2.46-3.75-5.07-5.67-7.56-2.13-2.76-4.2-5.55-6.17-8.43-1.83-2.67-3.65-5.36-5.34-8.12C21.13,9.22,20.43,8,19.75,6.69a6.45,6.45,0,0,0-.84,2.17,9.24,9.24,0,0,0-1-.24c.56,1,1.17,2,1.79,3A66.13,66.13,0,0,0,25.67,19.69Z"/><path class="cls-2" d="M25.66,28.47c2.81,2.39,5.49,4.93,8.48,7.11,2.49,1.82,5.25,3.49,8.53,3.36,0,0,0,0,0,0-3.11.12-6.12-2.4-8.3-4.2-2.8-2.32-5.3-5-7.87-7.55s-5.62-5-8.28-7.62c-1.62-1.61-3.22-3.23-4.72-5-.66-.76-1.27-1.55-1.91-2.31a9.27,9.27,0,0,0-.19,4.47,46,46,0,0,0,4.65,4.5C19.14,23.82,22.6,25.88,25.66,28.47Z"/><path class="cls-2" d="M19.42,33.47c7.28,3.41,14.29,7.4,22.11,9.66,0,0,0,0,0,0a128.87,128.87,0,0,1-22-11.32c-3.36-2.09-6.75-4.14-10.29-5.93a47.86,47.86,0,0,0-4.63-2.05,7.39,7.39,0,0,0,.93,2.24,8.1,8.1,0,0,0-1.32.86c1.26.49,2.5,1,3.76,1.5C11.82,30,15.63,31.69,19.42,33.47Z"/><path class="cls-2" d="M16.08,40.43c7.68,1,16.13,1.89,22.74,5.88,0,0,0,0,0,0a59.08,59.08,0,0,0-10.13-4.72c-3.55-1.2-7.24-2-10.9-2.9S10.58,37.05,7,36.14c-1.88-.48-3.73-1-5.55-1.63l-.1,0a6,6,0,0,0,.66,2c.26.5.67,1.05.93,1.62l2.19.57A95.56,95.56,0,0,0,16.08,40.43Z"/><path class="cls-2" d="M23.3,50.33c2.42.18,4.83.39,7.24.59s4.86.21,7.18.62a0,0,0,0,0,0,0c-2.33-.28-4.65-1-6.93-1.51-2.09-.46-4.18-.88-6.29-1.23a123.66,123.66,0,0,0-12.78-1.45c-3.46-.22-6.91-.39-10.35-.73a4,4,0,0,1,.68,1.34A4.38,4.38,0,0,1,1.82,50c2.92.19,5.89.17,8.82.1C14.87,50,19.09,50,23.3,50.33Z"/><path class="cls-2" d="M24.4,56.27c3.37-.6,6.76-1,10.13-1.62,0,0,0,0,0,0-6.81-.29-13.82.51-20.66,1.08q-5.29.42-10.58,1l-.52,0c.74.69,1.61,1.27,2.41,1.89a7,7,0,0,0-.79,1.11c3.21-.41,6.4-.95,9.6-1.53C17.46,57.56,20.93,56.89,24.4,56.27Z"/><path class="cls-2" d="M27.2,62.05a100.49,100.49,0,0,1,11-2.89c.19,0,.18-.31,0-.29-3.45.29-7,.54-10.41,1.16-3.67.66-7.28,1.48-10.91,2.43-3.47.91-6.93,1.86-10.39,2.81a9.39,9.39,0,0,1,2.51,2.32s0,0,0,.06c2.5-.73,5-1.49,7.49-2.26C20,64.28,23.61,63.12,27.2,62.05Z"/><path class="cls-2" d="M30.84,67.3c4-1,8-1.77,11.87-3.06a.21.21,0,0,0-.11-.4c-3.9,1.19-8,1.59-12,2.22a91.5,91.5,0,0,0-11.15,2.5Q15.29,69.78,11,70.69a7.6,7.6,0,0,0,1.84,1.59c.27.17.56.32.85.47,1.87-.49,3.74-1,5.59-1.64C23.19,69.86,26.89,68.28,30.84,67.3Z"/><path class="cls-3" d="M41.56,68l-1.63.53s0,0,0,0L41.56,68S41.57,68,41.56,68Z"/><path class="cls-3" d="M57.59,50.14a.29.29,0,0,0-.1,0,.49.49,0,0,0-.19,0c-.51-.05-1.16.49-.79,1l.17.24s0,0,0,.21.18.63.33,1c.28.73.7.9.93,1.34a2,2,0,0,1-.1,1.63c-1.08,2.23-3.62,3.79-5.71,5.45a66.44,66.44,0,0,1-8,5.59,27,27,0,0,1-6.71,3s0,0,0,0c2.54-.61,5-1.46,7.5-2.31,1.73-.6,3.42-1.32,5.12-2a27.63,27.63,0,0,0,5.09-2.43c2.52-1.66,5.19-4,6.22-6.88a5,5,0,0,0-.29-3.93,4.17,4.17,0,0,0-1.54-1.76,2.88,2.88,0,0,0-1.12-.23A1.8,1.8,0,0,0,57.59,50.14Z"/><path class="cls-3" d="M7,41.18c-1.49-.26-3.53-1.08-4.86.1a1.44,1.44,0,0,0-.44,1.62c.79,1.56,2.77,1.42,4.36,1.68,1.74.29,3.47.66,5.22.85s3.53.11,5.27.13c.79,0,1.59,0,2.38,0,1,0,1.9-.19,2.86-.21,0,0,0,0,0,0-.72-.18-1.41-.54-2.13-.75-.88-.26-1.77-.52-2.64-.8-1.64-.51-3.24-1.12-4.88-1.61A46.63,46.63,0,0,0,7,41.18Z"/><path class="cls-3" d="M18.08,36.84a18,18,0,0,0-5.24-3.48L9.76,31.93a13,13,0,0,0-3-1.24C5,30.37,3.9,33.12,5.61,33.8a13.26,13.26,0,0,0,2.82.53c1.13.18,2.23.44,3.34.7,2.12.5,4.21,1.22,6.3,1.82Z"/><path class="cls-3" d="M19.42,28.31c-.5-1.6-2.21-2.94-3.43-4-.71-.59-1.49-1.13-2.24-1.68A6.55,6.55,0,0,0,11,21.12a1.56,1.56,0,0,0-1.48,2.53A5.09,5.09,0,0,0,11.88,25c.91.34,1.8.78,2.68,1.18s1.76.8,2.64,1.18a13.23,13.23,0,0,0,2.17,1A.05.05,0,0,0,19.42,28.31Z"/><path class="cls-3" d="M24.27,20.84a46.87,46.87,0,0,1-3.7-4.15,53,53,0,0,1-3.2-4.91c-.92-1.4-3.29-.22-2.49,1.37a16.59,16.59,0,0,0,4.35,4.76,15.39,15.39,0,0,0,5,2.95S24.28,20.84,24.27,20.84Z"/><path class="cls-3" d="M29.89,15.78c-1.13-3.4-1.66-7.16-4.64-9.43-1.59-1.2-3.27,1.48-1.8,2.7,2.38,2,3.89,4.94,6.44,6.74C29.89,15.79,29.9,15.79,29.89,15.78Z"/><path class="cls-3" d="M5.05,55.2c3.49-.51,6.93-1.57,10.46-1.55,0,0,0,0,0,0-3.54-1-7.24-1.88-11-1.38C2.52,52.49,3.09,55.48,5.05,55.2Z"/><path class="cls-3" d="M7.43,63.52a17.8,17.8,0,0,0,5.77-2.16.15.15,0,0,0,0-.28c-1.78-.55-4,.19-5.85.06C5.65,61,5.62,63.8,7.43,63.52Z"/></g></g></svg>