<svg xmlns="http://www.w3.org/2000/svg" viewBox="0 0 14.88 14.82"><defs><style>.cls-1{fill:#fcbd00;}</style></defs><g id="Layer_2" data-name="Layer 2"><g id="yellow_stars" data-name="yellow stars"><path class="cls-1" d="M5.18.27,5.94,1a4.49,4.49,0,0,0,5.23.75l.94-.49A.94.94,0,0,1,13.4,2.51l-.47,1a4.49,4.49,0,0,0,.9,5.21l.76.74A.94.94,0,0,1,13.8,11l-1.05-.15a4.51,4.51,0,0,0-4.68,2.47l-.46.95A1,1,0,0,1,5.83,14l-.18-1A4.49,4.49,0,0,0,1.86,9.31l-1-.15A1,1,0,0,1,.5,7.39l.94-.49A4.48,4.48,0,0,0,3.77,2.15l-.18-1A1,1,0,0,1,5.18.27Z"/></g></g></svg>