<?xml version="1.0" encoding="utf-8"?>
<!-- Generator: Adobe Illustrator 26.0.3, SVG Export Plug-In . SVG Version: 6.00 Build 0)  -->
<svg version="1.1" id="Layer_1" xmlns="http://www.w3.org/2000/svg" xmlns:xlink="http://www.w3.org/1999/xlink" x="0px" y="0px"
	 viewBox="0 0 362.8 642.1" style="enable-background:new 0 0 362.8 642.1;" xml:space="preserve">
<style type="text/css">
	.st0{opacity:0.15;fill:#6B6B6B;enable-background:new    ;}
	.st1{fill:#DD5E7C;}
	.st2{fill:#5E6163;}
	.st3{fill:#C0CED8;}
	.st4{fill:#C45872;}
	.st5{fill:#EF7592;}
	.st6{fill:none;}
</style>
<path class="st0" d="M0.8,289.6l-0.1,27v-24.8C0.7,291,0.7,290.3,0.8,289.6z"/>
<path class="st1" d="M348.8,291.9v190.2c0,16.5-13.4,29.9-29.9,29.9h-72c-4.9,0-9.5,1.9-12.9,5.4c-3.4,3.4-5.4,8.1-5.4,12.9v95
	l-98.7-13.8l-1.5-99.5v-63c0-11.9,9.7-21.6,21.6-21.6h82.7c8.9,0,16.2-7.3,16.2-16.2l0.5-31c0.1-8.1-6.3-14.7-14.4-14.8
	c-0.1,0-0.1,0-0.2,0H43.6c-12.6-0.1-22.8-10.3-22.9-22.9V160.9c0-16.5,13.4-29.9,29.9-29.9h62c4.9,0,9.5-1.9,12.9-5.4
	c3.4-3.4,5.4-8.1,5.4-12.9v-95h98.8l1.5,113.3v71c0,11.9-9.7,21.6-21.6,21.6h-72.7c-8.9,0-16.2,7.3-16.2,16.2l-0.4,15.6
	c-0.1,7.4,5.8,13.6,13.2,13.7c0.1,0,0.1,0,0.2,0h192.2c12.5-0.1,22.8,9.9,22.9,22.5C348.8,291.6,348.8,291.7,348.8,291.9z"/>
<path class="st2" d="M109.4,19.2V9.9c0-5.2,4.6-9.4,10.3-9.4h122.1c5.7,0,10.3,4.2,10.3,9.4v9.2c0,5.2-4.6,9.4-10.3,9.4H119.7
	C114,28.6,109.4,24.4,109.4,19.2z"/>
<circle class="st3" cx="137" cy="14.5" r="3.2"/>
<circle class="st3" cx="180.7" cy="14.5" r="3.2"/>
<circle class="st3" cx="221.4" cy="14.5" r="3.2"/>
<path class="st4" d="M121.3,258.9H21v-17h100.3V258.9z"/>
<path class="st5" d="M6,240.9L6,240.9c0-5.2,4.3-9.5,9.5-9.5H128c5.2,0,9.5,4.3,9.5,9.5l0,0c0,5.2-4.3,9.5-9.5,9.5H15.5
	C10.3,250.4,6,246.1,6,240.9z"/>
<rect x="125.7" y="552.9" class="st4" width="100.2" height="17"/>
<path class="st2" d="M249.2,621.8V632c0,5.8-4.7,10.5-10.5,10.5H114.6c-5.8,0-10.5-4.7-10.5-10.5v-10.3c0-5.8,4.7-10.5,10.5-10.5
	h124.2C244.6,611.3,249.2,615.9,249.2,621.8C249.2,621.7,249.2,621.7,249.2,621.8z"/>
<circle class="st3" cx="225.2" cy="626.9" r="3.5"/>
<circle class="st3" cx="176.7" cy="626.9" r="3.5"/>
<circle class="st3" cx="131.5" cy="626.9" r="3.5"/>
<path class="st5" d="M236.3,551.5L236.3,551.5c0,5.2-4.3,9.5-9.5,9.5l0,0H126.5c-5.2,0-9.5-4.3-9.5-9.5l0,0l0,0
	c0-5.2,4.3-9.5,9.5-9.5h100.3C232,542,236.3,546.2,236.3,551.5C236.3,551.4,236.3,551.4,236.3,551.5z"/>
<path class="st4" d="M247.6,417.8c0.6-2.4,0.6-10.9,0.6-10.9h100.3v17H244.2C244.2,423.9,247.1,419.7,247.6,417.8z"/>
<path class="st5" d="M363.5,402.1L363.5,402.1c0,5.2-4.3,9.5-9.5,9.5H241.5c-5.2,0-9.5-4.3-9.5-9.5l0,0c0-5.2,4.3-9.5,9.5-9.5l0,0
	H354c5.2-0.1,9.4,4.1,9.5,9.2C363.5,401.9,363.5,402,363.5,402.1z"/>
<ellipse transform="matrix(0.2275 -0.9738 0.9738 0.2275 -247.9548 389.2157)" class="st1" cx="121.3" cy="350.9" rx="51" ry="53.5"/>
<polygon class="st4" points="131.1,77.7 230.3,77.7 234.4,89 126.6,89 "/>
<path class="st5" d="M118.2,90.5L118.2,90.5c0-4.6,4.4-8.3,9.8-8.3h103c5.4,0,9.8,3.8,9.8,8.3l0,0c0,4.6-4.4,8.3-9.8,8.3H128
	C122.5,98.8,118.2,95,118.2,90.5z"/>
<rect x="0" y="0" class="st6" width="362.8" height="642.1"/>
</svg>
