<?xml version="1.0" encoding="utf-8"?>
<!-- Generator: Adobe Illustrator 26.0.3, SVG Export Plug-In . SVG Version: 6.00 Build 0)  -->
<svg version="1.1" id="Layer_1" xmlns="http://www.w3.org/2000/svg" xmlns:xlink="http://www.w3.org/1999/xlink" x="0px" y="0px"
	 viewBox="0 0 362.8 642.1" style="enable-background:new 0 0 362.8 642.1;" xml:space="preserve">
<style type="text/css">
	.st0{opacity:0.15;fill:#6B6B6B;enable-background:new    ;}
	.st1{fill:#DD5E7C;}
	.st2{fill:#5E6163;}
	.st3{fill:#C0CED8;}
	.st4{fill:#C45872;}
	.st5{fill:#EF7592;}
	.st6{fill:none;}
</style>
<path class="st0" d="M0.2,289.6l-0.1,27v-24.8C0.1,291,0.1,290.3,0.2,289.6z"/>
<path class="st1" d="M348.2,291.9v190.2c0,16.5-13.4,29.9-29.9,29.9h-72c-4.9,0-9.5,1.9-12.9,5.4c-3.4,3.4-5.4,8.1-5.4,12.9v95
	l-98.7-13.8l-1.5-99.5v-63c0-11.9,9.7-21.6,21.6-21.6h82.7c8.9,0,16.2-7.3,16.2-16.2l0.5-31c0.1-8.1-6.3-14.7-14.4-14.8
	c-0.1,0-0.1,0-0.2,0H43c-12.6-0.1-22.8-10.3-22.9-22.9V160.9c0-16.5,13.4-29.9,29.9-29.9h62c4.9,0,9.5-1.9,12.9-5.4
	c3.4-3.4,5.4-8.1,5.4-12.9v-95h98.8l1.5,113.3v71c0,11.9-9.7,21.6-21.6,21.6h-72.7c-8.9,0-16.2,7.3-16.2,16.2l-0.4,15.6
	c-0.1,7.4,5.8,13.6,13.2,13.7c0.1,0,0.1,0,0.2,0h192.2c12.5-0.1,22.8,9.9,22.9,22.5C348.2,291.6,348.2,291.7,348.2,291.9z"/>
<path class="st2" d="M108.8,19.2V9.9c0-5.2,4.6-9.4,10.3-9.4h122.1c5.7,0,10.3,4.2,10.3,9.4v9.2c0,5.2-4.6,9.4-10.3,9.4H119.1
	C113.4,28.6,108.8,24.4,108.8,19.2z"/>
<circle class="st3" cx="136.4" cy="14.5" r="3.2"/>
<circle class="st3" cx="180.1" cy="14.5" r="3.2"/>
<circle class="st3" cx="220.8" cy="14.5" r="3.2"/>
<path class="st4" d="M120.7,258.9H20.4v-17h100.3C120.7,241.9,120.7,258.9,120.7,258.9z"/>
<path class="st5" d="M5.4,240.9L5.4,240.9c0-5.2,4.3-9.5,9.5-9.5h112.5c5.2,0,9.5,4.3,9.5,9.5l0,0c0,5.2-4.3,9.5-9.5,9.5H14.9
	C9.7,250.4,5.4,246.1,5.4,240.9z"/>
<rect x="125.1" y="552.9" class="st4" width="100.2" height="17"/>
<path class="st2" d="M248.6,621.8V632c0,5.8-4.7,10.5-10.5,10.5H114c-5.8,0-10.5-4.7-10.5-10.5v-10.3c0-5.8,4.7-10.5,10.5-10.5
	h124.2C244,611.3,248.6,615.9,248.6,621.8C248.6,621.7,248.6,621.7,248.6,621.8z"/>
<circle class="st3" cx="224.6" cy="626.9" r="3.5"/>
<circle class="st3" cx="176.1" cy="626.9" r="3.5"/>
<circle class="st3" cx="130.9" cy="626.9" r="3.5"/>
<path class="st5" d="M235.7,551.5L235.7,551.5c0,5.2-4.3,9.5-9.5,9.5l0,0H125.9c-5.2,0-9.5-4.3-9.5-9.5l0,0l0,0
	c0-5.2,4.3-9.5,9.5-9.5h100.3C231.4,542,235.7,546.2,235.7,551.5C235.7,551.4,235.7,551.4,235.7,551.5z"/>
<path class="st4" d="M247,417.8c0.6-2.4,0.6-10.9,0.6-10.9h100.3v17H243.6C243.6,423.9,246.5,419.7,247,417.8z"/>
<path class="st5" d="M362.9,402.1L362.9,402.1c0,5.2-4.3,9.5-9.5,9.5H240.9c-5.2,0-9.5-4.3-9.5-9.5l0,0c0-5.2,4.3-9.5,9.5-9.5l0,0
	h112.5c5.2-0.1,9.4,4.1,9.5,9.2C362.9,401.9,362.9,402,362.9,402.1z"/>
<ellipse transform="matrix(3.036395e-02 -0.9995 0.9995 3.036395e-02 -228.6822 767.5186)" class="st1" cx="281.3" cy="501.6" rx="51.3" ry="49.8"/>
<polygon class="st4" points="130.5,77.7 229.7,77.7 233.8,89 126,89 "/>
<path class="st5" d="M117.6,90.5L117.6,90.5c0-4.6,4.4-8.3,9.8-8.3h103c5.4,0,9.8,3.8,9.8,8.3l0,0c0,4.6-4.4,8.3-9.8,8.3h-103
	C121.9,98.8,117.6,95,117.6,90.5z"/>
<rect x="0" y="0" class="st6" width="362.8" height="642.1"/>
<rect x="0" y="0" class="st6" width="362.8" height="642.1"/>
</svg>
