<?xml version="1.0" encoding="utf-8"?>
<!-- Generator: Adobe Illustrator 26.0.2, SVG Export Plug-In . SVG Version: 6.00 Build 0)  -->
<svg version="1.1" id="Layer_1" xmlns="http://www.w3.org/2000/svg" xmlns:xlink="http://www.w3.org/1999/xlink" x="0px" y="0px"
	 viewBox="0 0 403.6 642" style="enable-background:new 0 0 403.6 642;" xml:space="preserve">
<style type="text/css">
	.st0{fill:#DD5E7C;}
	.st1{opacity:0.15;fill:#6B6B6B;enable-background:new    ;}
	.st2{fill:#5E6163;}
	.st3{fill:#C0CED8;}
	.st4{fill:#C45872;}
	.st5{fill:#EF7592;}
	.st6{clip-path:url(#SVGID_00000058559808759608818340000011831640099517969846_);}
	.st7{fill:#434070;}
	.st8{fill:#333333;}
	.st9{fill:#D2324B;}
	.st10{fill:#74FF33;}
	.st11{fill:#85D1FF;}
	.st12{fill:#9E0E38;}
	.st13{opacity:0.3;fill:#0398F4;enable-background:new    ;}
	.st14{opacity:0.3;fill:#FFFFFF;enable-background:new    ;}
	.st15{opacity:0.5;fill:#5E6163;enable-background:new    ;}
</style>
<g>
	<path class="st0" d="M346,268.6H153.8c-7.5,0-13.5-6.2-13.4-13.7l0.4-15.6c0-9,7.3-16.2,16.2-16.2h72.7c11.9,0,21.6-9.7,21.6-21.6
		v-71l-1.5-113.3H151v95c0,5-2.1,9.6-5.4,12.9c-3.3,3.4-7.9,5.4-12.9,5.4h-62c-16.5,0-29.9,13.4-29.9,29.9V342
		c0,12.6,10.3,22.9,22.9,22.9h191.2c8.2,0,14.7,6.7,14.6,14.8l-0.5,31c0,9-7.3,16.2-16.2,16.2h-82.7c-11.9,0-21.6,9.7-21.6,21.6v63
		L150,611l98.7,13.8v-95c0-5,2.1-9.6,5.4-12.9c3.3-3.4,7.9-5.4,12.9-5.4h72c16.5,0,29.9-13.4,29.9-29.9V291.4
		C368.9,278.7,358.7,268.5,346,268.6z M204.8,356.2c-22.1,0-40.1-17.9-40.1-40.1c0-22.1,17.9-40.1,40.1-40.1
		c22.1,0,40.1,17.9,40.1,40.1C244.9,338.2,227,356.2,204.8,356.2z"/>
	<path class="st1" d="M20.9,289.1l-0.1,27v-24.8C20.8,290.6,20.8,289.8,20.9,289.1z"/>
	<g>
		<path class="st2" d="M129.5,18.7V9.4c0-5.2,4.6-9.4,10.3-9.4h122.1c5.7,0,10.3,4.2,10.3,9.4v9.2c0,5.2-4.6,9.4-10.3,9.4H139.8
			C134.1,28.1,129.5,23.9,129.5,18.7z"/>
		<circle class="st3" cx="157.1" cy="14" r="3.2"/>
		<circle class="st3" cx="200.8" cy="14" r="3.2"/>
		<circle class="st3" cx="241.5" cy="14" r="3.2"/>
	</g>
	<g>
		<path class="st4" d="M141.4,258.4c-40.1,0-60.2,0-100.3,0v-17c40.1,0,60.2,0,100.3,0C141.4,247.1,141.4,252.8,141.4,258.4z"/>
		<path class="st5" d="M26.1,240.4L26.1,240.4c0-5.3,4.3-9.5,9.5-9.5h112.5c5.3,0,9.5,4.3,9.5,9.5l0,0c0,5.3-4.3,9.5-9.5,9.5H35.6
			C30.4,249.9,26.1,245.7,26.1,240.4z"/>
	</g>
	<rect x="145.8" y="552.4" class="st4" width="100.2" height="17"/>
	<g>
		<path class="st2" d="M269.3,621.3v10.3c0,5.8-4.7,10.5-10.5,10.5H134.7c-5.8,0-10.5-4.7-10.5-10.5v-10.3c0-5.8,4.7-10.5,10.5-10.5
			h124.2C264.7,610.8,269.3,615.5,269.3,621.3z"/>
		<circle class="st3" cx="245.3" cy="626.4" r="3.5"/>
		<circle class="st3" cx="196.8" cy="626.4" r="3.5"/>
		<circle class="st3" cx="151.6" cy="626.4" r="3.5"/>
	</g>
	<path class="st5" d="M256.4,551L256.4,551c0,5.3-4.3,9.5-9.5,9.5H146.6c-5.3,0-9.5-4.3-9.5-9.5l0,0c0-5.3,4.3-9.5,9.5-9.5h100.3
		C252.2,541.5,256.4,545.7,256.4,551z"/>
	<g>
		<path class="st4" d="M267.7,417.3c0.6-2.4,0.6-10.9,0.6-10.9h100.3v17H264.3C264.3,423.4,267.2,419.2,267.7,417.3z"/>
		<path class="st5" d="M383.6,401.6L383.6,401.6c0,5.3-4.3,9.5-9.5,9.5H261.6c-5.3,0-9.5-4.3-9.5-9.5l0,0c0-5.3,4.3-9.5,9.5-9.5
			h112.5C379.4,392,383.6,396.3,383.6,401.6z"/>
	</g>
	<polygon class="st4" points="151.2,77.3 250.4,77.3 254.5,88.5 146.7,88.5 	"/>
	<path class="st5" d="M138.3,90L138.3,90c0-4.6,4.4-8.3,9.8-8.3h103c5.4,0,9.8,3.8,9.8,8.3l0,0c0,4.6-4.4,8.3-9.8,8.3h-103
		C142.6,98.3,138.3,94.6,138.3,90z"/>
	<g>
		<g>
			<g>
				<defs>
					<rect id="SVGID_1_" x="176.3" y="284.4" width="57.1" height="59.3"/>
				</defs>
				<clipPath id="SVGID_00000132058672018037496100000000285859538443471803_">
					<use xlink:href="#SVGID_1_"  style="overflow:visible;"/>
				</clipPath>
				<g style="clip-path:url(#SVGID_00000132058672018037496100000000285859538443471803_);">
					<path class="st7" d="M233.3,324.6c0,5.3-11.5,14.8-27.2,14.8s-29.8-5.1-29.8-14.8C176.3,319.4,233.3,319.3,233.3,324.6z"/>
					<path class="st8" d="M198.1,289.7v11.1h-1.3L198.1,289.7z"/>
					<path class="st9" d="M198.1,291.7c-0.4,0-0.7-0.1-1-0.3s-0.5-0.5-0.7-0.8c-0.1-0.3-0.2-0.7-0.1-1.1c0.1-0.4,0.2-0.7,0.5-1
						c0.3-0.3,0.6-0.4,0.9-0.5c0.4-0.1,0.7,0,1.1,0.1c0.3,0.1,0.6,0.4,0.8,0.7s0.3,0.7,0.3,1c0,0.5-0.2,1-0.5,1.3
						C199,291.5,198.6,291.7,198.1,291.7L198.1,291.7z"/>
					<path class="st10" d="M204.8,332.2c15.7,0,28.5-3.7,28.5-8.3c0-4.5-12.8-8.2-28.5-8.2c-15.7,0-28.5,3.7-28.5,8.3
						S189.1,332.2,204.8,332.2z"/>
					<path class="st7" d="M232.7,324.1c0,1.8-3.1,4.1-8.1,5.4c-5,1.3-12,2.1-19.6,2.1c-8,0.1-15.3-0.8-20.4-2.2
						c-4.7-1.3-7.5-3.6-7.5-5.3c0-1.6,2.5-3.8,6.3-4.8c1.8-0.5,3.9-0.9,6.2-1.3c0.7-0.1,1.4-0.2,2.1-0.3c4-0.5,8.5-0.8,13.4-0.8
						c0.5,0,1,0,1.5,0c3.6,0,7.1,0.2,10.7,0.6c0.2,0,0.4,0,0.6,0.1c0.7,0.1,1.4,0.2,2.1,0.3c2.3,0.3,4.4,0.7,6.2,1.2
						C230.3,320.1,232.7,322.4,232.7,324.1z"/>
					<path class="st10" d="M201.6,337.7c0.2,0,0.4-0.1,0.6-0.2c0.2-0.1,0.3-0.3,0.4-0.5s0.1-0.4,0.1-0.6c0-0.2-0.1-0.4-0.3-0.6
						c-0.2-0.2-0.4-0.3-0.6-0.3c-0.2,0-0.4,0-0.6,0.1c-0.2,0.1-0.4,0.2-0.5,0.4c-0.1,0.2-0.2,0.4-0.2,0.6c0,0.3,0.1,0.6,0.3,0.8
						C201,337.5,201.3,337.7,201.6,337.7L201.6,337.7z"/>
					<path class="st10" d="M193.5,337c0.2,0,0.4-0.1,0.6-0.2c0.2-0.1,0.3-0.3,0.4-0.5s0.1-0.4,0.1-0.6c0-0.2-0.1-0.4-0.3-0.6
						c-0.2-0.2-0.4-0.3-0.6-0.3c-0.2,0-0.4,0-0.6,0.1c-0.2,0.1-0.4,0.2-0.5,0.4c-0.1,0.2-0.2,0.4-0.2,0.6c0,0.3,0.1,0.6,0.3,0.8
						C192.9,336.9,193.2,337,193.5,337L193.5,337z"/>
					<path class="st10" d="M187.2,335c0.2,0,0.4-0.1,0.6-0.2c0.2-0.1,0.3-0.3,0.4-0.5s0.1-0.4,0.1-0.6c0-0.2-0.1-0.4-0.3-0.6
						c-0.2-0.2-0.4-0.3-0.6-0.3c-0.2,0-0.4,0-0.6,0.1c-0.2,0.1-0.4,0.2-0.5,0.4c-0.1,0.2-0.2,0.4-0.2,0.6c0,0.3,0.1,0.6,0.3,0.8
						C186.6,334.9,186.9,335,187.2,335L187.2,335z"/>
					<path class="st10" d="M181.4,332.5c0.2,0,0.4-0.1,0.6-0.2c0.2-0.1,0.3-0.3,0.4-0.5c0.1-0.2,0.1-0.4,0.1-0.6
						c0-0.2-0.1-0.4-0.3-0.6s-0.4-0.3-0.6-0.3c-0.2,0-0.4,0-0.6,0.1c-0.2,0.1-0.4,0.2-0.5,0.4c-0.1,0.2-0.2,0.4-0.2,0.6
						c0,0.3,0.1,0.6,0.3,0.8C180.9,332.4,181.2,332.5,181.4,332.5L181.4,332.5z"/>
					<path class="st10" d="M208.8,337.7c-0.2,0-0.4-0.1-0.6-0.2c-0.2-0.1-0.3-0.3-0.4-0.5c-0.1-0.2-0.1-0.4-0.1-0.6
						c0-0.2,0.1-0.4,0.3-0.6s0.4-0.3,0.6-0.3c0.2,0,0.4,0,0.6,0.1c0.2,0.1,0.4,0.2,0.5,0.4c0.1,0.2,0.2,0.4,0.2,0.6
						c0,0.3-0.1,0.6-0.3,0.8C209.4,337.5,209.1,337.7,208.8,337.7L208.8,337.7z"/>
					<path class="st10" d="M215.8,337c-0.2,0-0.4-0.1-0.6-0.2c-0.2-0.1-0.3-0.3-0.4-0.5c-0.1-0.2-0.1-0.4-0.1-0.6
						c0-0.2,0.1-0.4,0.3-0.6c0.2-0.2,0.4-0.3,0.6-0.3c0.2,0,0.4,0,0.6,0.1c0.2,0.1,0.4,0.2,0.5,0.4c0.1,0.2,0.2,0.4,0.2,0.6
						c0,0.3-0.1,0.6-0.3,0.8C216.4,336.9,216.1,337,215.8,337L215.8,337z"/>
					<path class="st10" d="M221.4,335.1c-0.2,0-0.4-0.1-0.6-0.2c-0.2-0.1-0.3-0.3-0.4-0.5c-0.1-0.2-0.1-0.4-0.1-0.6
						c0-0.2,0.1-0.4,0.3-0.6c0.2-0.2,0.4-0.3,0.6-0.3c0.2,0,0.4,0,0.6,0.1c0.2,0.1,0.4,0.2,0.5,0.4c0.1,0.2,0.2,0.4,0.2,0.6
						c0,0.3-0.1,0.6-0.3,0.8C221.9,335,221.7,335.1,221.4,335.1L221.4,335.1z"/>
					<path class="st10" d="M226.6,332.6c-0.2,0-0.4-0.1-0.6-0.2c-0.2-0.1-0.3-0.3-0.4-0.5c-0.1-0.2-0.1-0.4-0.1-0.6
						c0-0.2,0.1-0.4,0.3-0.6c0.2-0.2,0.4-0.3,0.6-0.3s0.4,0,0.6,0.1s0.4,0.2,0.5,0.4c0.1,0.2,0.2,0.4,0.2,0.6c0,0.3-0.1,0.6-0.3,0.8
						C227.1,332.5,226.9,332.6,226.6,332.6L226.6,332.6z"/>
					<path class="st9" d="M219.7,317.3c0,0.7-0.1,1.6-0.1,2.5c-0.3,2.7-0.8,5.6-0.8,5.6s0,0.1,0,0.2c0,0.1-0.1,0.2-0.1,0.4
						c-3.5,0.9-8.2,1.4-13.5,1.5c-5.5,0-10.5-0.6-14-1.6l-0.1-0.3c0,0-0.6-3-0.9-5.8c-0.1-0.9-0.2-1.7-0.2-2.4
						c0-4.4,1.2-9.1,3.3-12.6c0.8-1.4,1.8-2.5,2.9-3.4l17.1-0.1c0,0,0.1,0.1,0.1,0.1c0.8,0.8,1.5,1.8,2.1,2.7c0,0,0,0,0,0.1l0.1,0.1
						c0,0,0,0,0,0C218,308,219.6,312.6,219.7,317.3z"/>
					<path class="st7" d="M204.9,325c-5,0-9.1-4-9.2-8.9c0-5,4-9,9-9.1c5,0,9.1,4,9.2,8.9C213.9,320.9,209.9,325,204.9,325z"/>
					<path class="st11" d="M204.8,323.8c4.4,0,7.9-3.6,7.8-7.9c0-4.4-3.6-7.8-8-7.8s-7.9,3.6-7.8,7.9
						C196.9,320.3,200.4,323.8,204.8,323.8z"/>
					<path class="st7" d="M204.7,308.3c4.2,0,7.6,3.3,7.6,7.4c0,4.1-3.3,7.5-7.5,7.6c-2.1,0,1.2-3.8,1.2-7.6
						C206,312,202.6,308.3,204.7,308.3z"/>
					<path class="st12" d="M204.8,295.2c-0.7,0-1.5,0.1-2.1,0.4c-3.6,1.2-9.3,8.9-9.4,9.3l22.6-0.2c-0.1-0.5-5.9-8-9.4-9.2
						C206,295.4,205.5,295.2,204.8,295.2z"/>
					<path class="st10" d="M212.3,309.4c-0.2,0-0.3-0.1-0.5-0.2c-0.1-0.1-0.3-0.2-0.3-0.4c-0.1-0.2-0.1-0.4-0.1-0.5
						c0-0.2,0.1-0.3,0.2-0.5c0.1-0.1,0.3-0.2,0.5-0.3c0.2,0,0.4,0,0.5,0.1c0.2,0.1,0.3,0.2,0.4,0.3c0.1,0.2,0.2,0.3,0.2,0.5
						c0,0.2-0.1,0.5-0.3,0.7C212.7,309.3,212.5,309.4,212.3,309.4L212.3,309.4z"/>
					<path class="st10" d="M213.9,311.4c-0.2,0-0.4-0.1-0.5-0.2c-0.2-0.1-0.3-0.2-0.3-0.4s-0.1-0.4-0.1-0.5c0-0.2,0.1-0.3,0.2-0.5
						c0.1-0.1,0.3-0.2,0.5-0.3s0.4,0,0.5,0.1c0.2,0.1,0.3,0.2,0.4,0.3c0.1,0.2,0.2,0.3,0.2,0.5c0,0.2-0.1,0.5-0.3,0.7
						C214.4,311.3,214.2,311.4,213.9,311.4L213.9,311.4z"/>
				</g>
			</g>
		</g>
		<g>
			<circle class="st13" cx="204.8" cy="316" r="32.3"/>
			
				<rect x="195.7" y="291.8" transform="matrix(0.7071 -0.7071 0.7071 0.7071 -172.1035 235.103)" class="st14" width="4.1" height="67"/>
			
				<rect x="207.9" y="277.5" transform="matrix(0.7071 -0.7071 0.7071 0.7071 -157.839 241.0058)" class="st14" width="8.2" height="67"/>
			<path class="st15" d="M204.8,274.1c-24.4,0-44.1,19.8-44.1,44.1c0,24.4,19.8,44.1,44.1,44.1c24.4,0,44.1-19.8,44.1-44.1
				C249,293.8,229.2,274.1,204.8,274.1z M204.8,350.5c-17.8,0-32.3-14.4-32.3-32.3c0-17.8,7.9-35.3,32.3-35.3
				c26,0,32.3,17.4,32.3,35.3C237.1,336,222.7,350.5,204.8,350.5z"/>
			<path class="st2" d="M204.8,271.8c-24.4,0-44.1,19.8-44.1,44.1c0,24.4,19.8,44.1,44.1,44.1c24.4,0,44.1-19.8,44.1-44.1
				C249,291.6,229.2,271.8,204.8,271.8z M204.8,348.2c-17.8,0-32.3-14.4-32.3-32.3c0-17.8,14.4-32.3,32.3-32.3
				c17.8,0,32.3,14.4,32.3,32.3C237.1,333.8,222.7,348.2,204.8,348.2z"/>
			<circle class="st3" cx="243" cy="316" r="3.5"/>
			<circle class="st3" cx="231.8" cy="289" r="3.5"/>
			<circle class="st3" cx="204.8" cy="277.9" r="3.5"/>
			<circle class="st3" cx="177.9" cy="289" r="3.5"/>
			<circle class="st3" cx="166.7" cy="316" r="3.5"/>
			<circle class="st3" cx="177.9" cy="343" r="3.5"/>
			<circle class="st3" cx="204.8" cy="354.1" r="3.5"/>
			<circle class="st3" cx="231.8" cy="343" r="3.5"/>
		</g>
	</g>
</g>
</svg>
