<?xml version="1.0" encoding="UTF-8" standalone="no"?>
<!-- Generator: Adobe Illustrator 26.0.2, SVG Export Plug-In . SVG Version: 6.00 Build 0)  -->

<svg
   version="1.1"
   id="Layer_1"
   x="0px"
   y="0px"
   viewBox="0 0 403.6 642"
   style="enable-background:new 0 0 403.6 642;"
   xml:space="preserve"
   xmlns:xlink="http://www.w3.org/1999/xlink"
   xmlns="http://www.w3.org/2000/svg"
   xmlns:svg="http://www.w3.org/2000/svg"><defs
   id="defs1607"><clipPath
     id="SVGID_00000132058672018037496100000000285859538443471803_"><use
       xlink:href="#SVGID_1_-2"
       style="overflow:visible"
       id="use2100"
       x="0"
       y="0"
       width="100%"
       height="100%" /></clipPath><rect
     id="SVGID_1_-2"
     x="176.3"
     y="284.39999"
     width="57.099998"
     height="59.299999" /><clipPath
     id="SVGID_00000132058672018037496100000000285859538443471803_-0"><use
       xlink:href="#SVGID_1_"
       style="overflow:visible"
       id="use2100-3"
       x="0"
       y="0"
       width="100%"
       height="100%" /></clipPath><rect
     id="SVGID_1_"
     x="176.3"
     y="284.39999"
     width="57.099998"
     height="59.299999" /></defs>
<style
   type="text/css"
   id="style1474">
	.st0{fill:#DD5E7C;}
	.st1{opacity:0.15;fill:#6B6B6B;enable-background:new    ;}
	.st2{fill:#5E6163;}
	.st3{fill:#C0CED8;}
	.st4{fill:#C45872;}
	.st5{fill:#EF7592;}
	.st6{display:none;}
	.st7{display:inline;}
	.st8{clip-path:url(#SVGID_00000132788111791456078580000000314818622356026752_);}
	.st9{fill:#434070;}
	.st10{fill:#333333;}
	.st11{fill:#D2324B;}
	.st12{fill:#74FF33;}
	.st13{fill:#85D1FF;}
	.st14{fill:#9E0E38;}
	.st15{opacity:0.3;fill:#0398F4;enable-background:new    ;}
	.st16{opacity:0.3;fill:#FFFFFF;enable-background:new    ;}
	.st17{opacity:0.5;fill:#5E6163;enable-background:new    ;}
</style>











<g
   id="g2553"><path
     class="st0"
     d="M 346,268.6 H 153.8 c -7.5,0 -13.5,-6.2 -13.4,-13.7 l 0.4,-15.6 c 0,-9 7.3,-16.2 16.2,-16.2 h 72.7 c 11.9,0 21.6,-9.7 21.6,-21.6 v -71 L 249.8,17.2 H 151 v 95 c 0,5 -2.1,9.6 -5.4,12.9 -3.3,3.4 -7.9,5.4 -12.9,5.4 h -62 c -16.5,0 -29.9,13.4 -29.9,29.9 V 342 c 0,12.6 10.3,22.9 22.9,22.9 h 191.2 c 8.2,0 14.7,6.7 14.6,14.8 l -0.5,31 c 0,9 -7.3,16.2 -16.2,16.2 h -82.7 c -11.9,0 -21.6,9.7 -21.6,21.6 v 63 l 1.5,99.5 98.7,13.8 v -95 c 0,-5 2.1,-9.6 5.4,-12.9 3.3,-3.4 7.9,-5.4 12.9,-5.4 h 72 c 16.5,0 29.9,-13.4 29.9,-29.9 V 291.4 c 0,-12.7 -10.2,-22.9 -22.9,-22.8 z m -141.2,87.6 c -22.1,0 -40.1,-17.9 -40.1,-40.1 0,-22.1 17.9,-40.1 40.1,-40.1 22.1,0 40.1,17.9 40.1,40.1 0,22.1 -17.9,40.1 -40.1,40.1 z"
     id="path2053" /><circle
     class="st13"
     cx="204.8"
     cy="316"
     r="32.299999"
     id="circle2149"
     style="opacity:0.3;fill:#0398f4;enable-background:new" /><path
     class="st1"
     d="m 20.9,289.1 -0.1,27 v -24.8 c 0,-0.7 0,-1.5 0.1,-2.2 z"
     id="path2055" /><g
     id="g2065"><path
       class="st2"
       d="M 129.5,18.7 V 9.4 c 0,-5.2 4.6,-9.4 10.3,-9.4 h 122.1 c 5.7,0 10.3,4.2 10.3,9.4 v 9.2 c 0,5.2 -4.6,9.4 -10.3,9.4 H 139.8 c -5.7,0.1 -10.3,-4.1 -10.3,-9.3 z"
       id="path2057" /><circle
       class="st3"
       cx="157.10001"
       cy="14"
       r="3.2"
       id="circle2059" /><circle
       class="st3"
       cx="200.8"
       cy="14"
       r="3.2"
       id="circle2061" /><circle
       class="st3"
       cx="241.5"
       cy="14"
       r="3.2"
       id="circle2063" /></g><g
     id="g2071"><path
       class="st4"
       d="m 141.4,258.4 c -40.1,0 -60.2,0 -100.3,0 v -17 c 40.1,0 60.2,0 100.3,0 0,5.7 0,11.4 0,17 z"
       id="path2067" /><path
       class="st5"
       d="m 26.1,240.4 v 0 c 0,-5.3 4.3,-9.5 9.5,-9.5 h 112.5 c 5.3,0 9.5,4.3 9.5,9.5 v 0 c 0,5.3 -4.3,9.5 -9.5,9.5 H 35.6 c -5.2,0 -9.5,-4.2 -9.5,-9.5 z"
       id="path2069" /></g><rect
     x="145.8"
     y="552.40002"
     class="st4"
     width="100.2"
     height="17"
     id="rect2073" /><g
     id="g2083"><path
       class="st2"
       d="m 269.3,621.3 v 10.3 c 0,5.8 -4.7,10.5 -10.5,10.5 H 134.7 c -5.8,0 -10.5,-4.7 -10.5,-10.5 v -10.3 c 0,-5.8 4.7,-10.5 10.5,-10.5 h 124.2 c 5.8,0 10.4,4.7 10.4,10.5 z"
       id="path2075" /><circle
       class="st3"
       cx="245.3"
       cy="626.40002"
       r="3.5"
       id="circle2077" /><circle
       class="st3"
       cx="196.8"
       cy="626.40002"
       r="3.5"
       id="circle2079" /><circle
       class="st3"
       cx="151.60001"
       cy="626.40002"
       r="3.5"
       id="circle2081" /></g><path
     class="st5"
     d="m 256.4,551 v 0 c 0,5.3 -4.3,9.5 -9.5,9.5 H 146.6 c -5.3,0 -9.5,-4.3 -9.5,-9.5 v 0 c 0,-5.3 4.3,-9.5 9.5,-9.5 h 100.3 c 5.3,0 9.5,4.2 9.5,9.5 z"
     id="path2085" /><g
     id="g2091"><path
       class="st4"
       d="m 267.7,417.3 c 0.6,-2.4 0.6,-10.9 0.6,-10.9 h 100.3 v 17 H 264.3 c 0,0 2.9,-4.2 3.4,-6.1 z"
       id="path2087" /><path
       class="st5"
       d="m 383.6,401.6 v 0 c 0,5.3 -4.3,9.5 -9.5,9.5 H 261.6 c -5.3,0 -9.5,-4.3 -9.5,-9.5 v 0 c 0,-5.3 4.3,-9.5 9.5,-9.5 h 112.5 c 5.3,-0.1 9.5,4.2 9.5,9.5 z"
       id="path2089" /></g><polygon
     class="st4"
     points="151.2,77.3 250.4,77.3 254.5,88.5 146.7,88.5 "
     id="polygon2093" /><path
     class="st5"
     d="m 138.3,90 v 0 c 0,-4.6 4.4,-8.3 9.8,-8.3 h 103 c 5.4,0 9.8,3.8 9.8,8.3 v 0 c 0,4.6 -4.4,8.3 -9.8,8.3 h -103 c -5.5,0 -9.8,-3.7 -9.8,-8.3 z"
     id="path2095" /><g
     id="g2175"><path
       class="st15"
       d="m 204.8,274.1 c -24.4,0 -44.1,19.8 -44.1,44.1 0,24.4 19.8,44.1 44.1,44.1 24.4,0 44.1,-19.8 44.1,-44.1 0.1,-24.4 -19.7,-44.1 -44.1,-44.1 z m 0,76.4 c -17.8,0 -32.3,-14.4 -32.3,-32.3 0,-17.8 7.9,-35.3 32.3,-35.3 26,0 32.3,17.4 32.3,35.3 0,17.8 -14.4,32.3 -32.3,32.3 z"
       id="path2155" /><path
       class="st2"
       d="m 204.8,271.8 c -24.4,0 -44.1,19.8 -44.1,44.1 0,24.4 19.8,44.1 44.1,44.1 24.4,0 44.1,-19.8 44.1,-44.1 0.1,-24.3 -19.7,-44.1 -44.1,-44.1 z m 0,76.4 c -17.8,0 -32.3,-14.4 -32.3,-32.3 0,-17.8 14.4,-32.3 32.3,-32.3 17.8,0 32.3,14.4 32.3,32.3 0,17.9 -14.4,32.3 -32.3,32.3 z"
       id="path2157" /><circle
       class="st3"
       cx="243"
       cy="316"
       r="3.5"
       id="circle2159" /><circle
       class="st3"
       cx="231.8"
       cy="289"
       r="3.5"
       id="circle2161" /><circle
       class="st3"
       cx="204.8"
       cy="277.89999"
       r="3.5"
       id="circle2163" /><circle
       class="st3"
       cx="177.89999"
       cy="289"
       r="3.5"
       id="circle2165" /><circle
       class="st3"
       cx="166.7"
       cy="316"
       r="3.5"
       id="circle2167" /><circle
       class="st3"
       cx="177.89999"
       cy="343"
       r="3.5"
       id="circle2169" /><circle
       class="st3"
       cx="204.8"
       cy="354.10001"
       r="3.5"
       id="circle2171" /><circle
       class="st3"
       cx="231.8"
       cy="343"
       r="3.5"
       id="circle2173" /></g></g></svg>
