<svg xmlns="http://www.w3.org/2000/svg" viewBox="0 0 63.97 45.13"><defs><style>.cls-1{fill:#fff;}</style></defs><g id="Layer_2" data-name="Layer 2"><g id="bubbles"><path class="cls-1" d="M38.65,8.24A7.24,7.24,0,0,0,40.94,12a7.48,7.48,0,0,0,2.16,1.5,5.86,5.86,0,0,0,3.51.33,6.22,6.22,0,0,0,3.5-2.16,6.64,6.64,0,0,0,.47-7.31C47.09-1.65,37.19.89,38.65,8.24Z"/><path class="cls-1" d="M55.26,4.93a4.85,4.85,0,0,0,1.56,2.54,5.17,5.17,0,0,0,1.47,1,4,4,0,0,0,2.38.22,4.21,4.21,0,0,0,2.39-1.47,4.53,4.53,0,0,0,.32-5C61-1.81,54.26-.07,55.26,4.93Z"/><path class="cls-1" d="M.1,41.25A5,5,0,0,0,1.66,43.8a5.07,5.07,0,0,0,1.47,1A3.92,3.92,0,0,0,5.52,45,4.24,4.24,0,0,0,7.9,43.57a4.5,4.5,0,0,0,.32-5C5.85,34.52-.89,36.25.1,41.25Z"/><path class="cls-1" d="M26.28,34.94a5,5,0,0,0,1.56,2.54,5.36,5.36,0,0,0,1.48,1,4,4,0,0,0,2.38.22,4.14,4.14,0,0,0,2.38-1.46,4.52,4.52,0,0,0,.32-5C32,28.21,25.29,29.94,26.28,34.94Z"/><path class="cls-1" d="M17,8.78a4.85,4.85,0,0,0,1.56,2.54,5.17,5.17,0,0,0,1.47,1,4,4,0,0,0,2.38.22,4.21,4.21,0,0,0,2.39-1.47,4.52,4.52,0,0,0,.32-5C22.78,2.05,16,3.78,17,8.78Z"/></g></g></svg>