<?xml version="1.0" encoding="utf-8"?>
<!-- Generator: Adobe Illustrator 26.0.3, SVG Export Plug-In . SVG Version: 6.00 Build 0)  -->
<svg version="1.1" id="Layer_1" xmlns="http://www.w3.org/2000/svg" xmlns:xlink="http://www.w3.org/1999/xlink" x="0px" y="0px"
	 viewBox="0 0 400 400" style="enable-background:new 0 0 400 400;" xml:space="preserve">
<style type="text/css">
	.st0{fill:none;stroke:#CC0099;stroke-width:3;stroke-miterlimit:10;}
	.st1{fill:#54CE3E;}
</style>
<path class="st0" d="M357.8,109c-106.3-19.3-196.9-39.9-308.5-65c-9.3-2-21,10.9-17.8,19.9c29.8,85.3,69.5,206,97.9,299.7
	c2.7,9.1,19.8,12.7,26.2,5.5c69.9-78,143.9-162.3,210.6-234.7C372.6,127.4,367.3,110.8,357.8,109z"/>
<g>
	<path class="st1" d="M7.5,211.3c9.6,34.6,54.5,71.6,121.6,81.2c63,9,101.9-0.5,152-17.2c36.7-12.2,87-36.4,107.2-73.7
		c47.7-88-61.7-119.4-131.2-92.7c-29.8,11.5-45.8,11.2-67.1-13.2c-15.2-17.5-51.8-23.1-78.4-11.9C42.6,112.8-7,159,7.5,211.3z"/>
</g>
</svg>
