<?xml version="1.0" encoding="utf-8"?>
<!-- Generator: Adobe Illustrator 26.0.3, SVG Export Plug-In . SVG Version: 6.00 Build 0)  -->
<svg version="1.1" id="Layer_1" xmlns="http://www.w3.org/2000/svg" xmlns:xlink="http://www.w3.org/1999/xlink" x="0px" y="0px"
	 viewBox="0 0 394.1 385" style="enable-background:new 0 0 394.1 385;" xml:space="preserve">
<style type="text/css">
	.st0{fill:none;stroke:#34C6F4;stroke-width:3;stroke-miterlimit:10;}
	.st1{fill:#EE3C96;}
</style>
<path class="st0" d="M360.2,48.4c-111.4-2.2-207-8.3-324.6-15.5c-9.9-0.6-19.7,14.5-15,23.2C65,137.9,125.2,254.3,169.6,345
	c4.3,8.9,22.2,9.6,27.6,1.3C255.5,255.5,316.9,157.6,372.9,73C378.3,64.7,370.1,48.6,360.2,48.4z"/>
<g>
	<path class="st1" d="M73.3,238.5c83.6-19.6,181.1,97,236.9,58.7c79.5-54.6,121.1-180.9,38.6-180.5c-39.1,0.2-158.2,17.8-200.7-27.6
		C92.9,30-105.1,280.4,73.3,238.5z"/>
</g>
</svg>
