<svg xmlns="http://www.w3.org/2000/svg" viewBox="0 0 63.66 63.89"><defs><style>.cls-1{fill:#fff;}</style></defs><g id="Layer_2" data-name="Layer 2"><g id="temp"><path class="cls-1" d="M27.85,4.06A8.79,8.79,0,0,0,24.91,6.9,13.72,13.72,0,0,0,18,23.5,20.77,20.77,0,0,0,6.52,34.27a24.11,24.11,0,0,0-3.18,3.61C1.24,40.37-.65,44,.22,48.27a12.37,12.37,0,0,0,8.29,9.18A11.71,11.71,0,0,0,12,58a18.26,18.26,0,0,0,13.49,5.9,15.59,15.59,0,0,0,10.67-4.17,13.94,13.94,0,0,0,10.17,1.42A15.77,15.77,0,0,0,58.09,48.2a16.25,16.25,0,0,0,.14-3.1l.32-.14a9.41,9.41,0,0,0,5.11-8.56A17.88,17.88,0,0,0,53.5,20.27a7.93,7.93,0,0,0-.32-4.46c-2.34-.84-4.39.15-4.86,1.68a9.93,9.93,0,0,0-2.38-1.33,12.33,12.33,0,0,0-4.42-7.08,6.63,6.63,0,0,0,.1-3.27A7.63,7.63,0,0,0,34.89,0,6.79,6.79,0,0,0,27.85,4.06Z"/></g></g></svg>