<svg xmlns="http://www.w3.org/2000/svg" viewBox="0 0 220.84 109.16"><defs><style>.cls-1{fill:#fff;}</style></defs><g id="Layer_2" data-name="Layer 2"><g id="temp"><path class="cls-1" d="M171.57,35.1a17.92,17.92,0,0,0-17.85,16.29A30.36,30.36,0,0,0,145.37,49a30.16,30.16,0,0,0-12.69-20.79A17.94,17.94,0,1,0,102,26a30.19,30.19,0,0,0-16.5,23.2A30.23,30.23,0,0,0,65.67,61.9,17.93,17.93,0,1,0,63.83,93,30.2,30.2,0,0,0,116,95.32a30.21,30.21,0,0,0,54.51-24.39q.54,0,1.08,0a17.93,17.93,0,1,0,0-35.86Z"/><path class="cls-1" d="M210.11,73.38A10.73,10.73,0,1,0,220.84,84.1,10.72,10.72,0,0,0,210.11,73.38Z"/><circle class="cls-1" cx="6.8" cy="80.18" r="6.8" transform="translate(-69.88 55.78) rotate(-67.5)"/></g></g></svg>