<svg xmlns="http://www.w3.org/2000/svg" viewBox="0 0 103.75 84.95"><defs><style>.cls-1{fill:#fff;}</style></defs><g id="Layer_2" data-name="Layer 2"><g id="temp"><path class="cls-1" d="M42.91,10.48a13.17,13.17,0,0,0-.14,4.94,23.92,23.92,0,0,0-13.86,16.1A23.75,23.75,0,0,0,15.28,42.43a10.44,10.44,0,0,0-6.09-.16c-6,1.65-10.1,8.24-9,15.44a15.48,15.48,0,0,0,5.74,9.72,11.33,11.33,0,0,0,6.48,4.95,10.61,10.61,0,0,0,5,.11A22,22,0,0,0,37.23,85a20.76,20.76,0,0,0,16.92-8.68,19.43,19.43,0,0,0,16.6,7.24,20.59,20.59,0,0,0,19-20.65,19.6,19.6,0,0,0-1.26-6.93l.23-.1.49-.07a17.2,17.2,0,0,0,14.5-17,12.71,12.71,0,0,0-11-12.78C86.91,25.31,82,29,81.21,34A20.72,20.72,0,0,0,75.86,32,21.87,21.87,0,0,0,67,18.25a11.7,11.7,0,0,0,1.33-6.63A13,13,0,0,0,55.7,0,12.65,12.65,0,0,0,42.91,10.48Z"/></g></g></svg>