<?xml version="1.0" encoding="utf-8"?>
<!-- Generator: Adobe Illustrator 26.0.3, SVG Export Plug-In . SVG Version: 6.00 Build 0)  -->
<svg version="1.1" id="Layer_1" xmlns="http://www.w3.org/2000/svg" xmlns:xlink="http://www.w3.org/1999/xlink" x="0px" y="0px"
	 viewBox="0 0 641.8 600" style="enable-background:new 0 0 641.8 600;" xml:space="preserve">
<style type="text/css">
	.st0{fill:none;stroke:#9C3000;stroke-width:4;stroke-miterlimit:10;}
	.st1{fill:none;stroke:#9C3000;stroke-width:5;stroke-miterlimit:10;}
	.st2{fill:#9C3000;}
</style>
<g id="Layer_2_00000017479764904387753470000014204305153351151539_">
	<g id="tower_v">
		<rect x="22.4" y="2" class="st0" width="94.6" height="553.7"/>
		<path class="st1" d="M22.4,2l90.8,105.8c0.5,0.5,0.4,1.4-0.2,1.8c-0.2,0.2-0.5,0.3-0.8,0.3H27.1L117,2"/>
		<path class="st1" d="M115,109.9L24.4,220.1c-0.5,0.6-0.4,1.6,0.2,2.1c0.3,0.2,0.6,0.3,1,0.3h85.6c1.5,0,2.8-1.2,2.8-2.7
			c0-0.7-0.2-1.3-0.7-1.8L22.4,110.5"/>
		<path class="st1" d="M117,222.5L24.9,332.2c-0.7,0.8-0.6,1.9,0.2,2.6c0.3,0.3,0.8,0.5,1.2,0.4h85c1.5,0,2.7-1.2,2.7-2.7
			c0-0.6-0.2-1.2-0.6-1.7L22.4,222.6"/>
		<path class="st1" d="M117,335.1L25,444.6c-0.7,0.8-0.6,2,0.2,2.7c0.3,0.3,0.8,0.4,1.2,0.4h84.1c1.7,0,3-1.4,3-3
			c0-0.7-0.2-1.3-0.7-1.9L22.4,335.1"/>
		<line class="st1" x1="22.4" y1="447.8" x2="117" y2="555.7"/>
		<line class="st1" x1="117" y1="447.8" x2="22.4" y2="555.7"/>
		<path class="st2" d="M16.7,555.7H625c9.2,0,16.7,7.5,16.7,16.7v10.9c0,9.2-7.5,16.7-16.7,16.7H16.7C7.5,600,0,592.5,0,583.3v-10.9
			C0,563.2,7.5,555.7,16.7,555.7z"/>
	</g>
</g>
</svg>
