<svg xmlns="http://www.w3.org/2000/svg" viewBox="0 0 1920 561.06"><defs><style>.cls-1{fill:#90cad3;}.cls-2{fill:#a3d8e8;}</style></defs><g id="Layer_4" data-name="Layer 4"><path class="cls-1" d="M1920,182.87V561.06H0V210.32c52.54-40.87,107.08-78.94,167-107.56C270.77,53.21,368.71,51.9,479,70c91.15,14.94,175.48,95.47,271.81,71.59,40.41-10,74.93-38.92,116.16-44.66,38.43-5.34,76.22,10.18,113.27,21.7a572.91,572.91,0,0,0,329.44,2.48c65.59-19.3,127.54-50.37,194.17-65.7,59-13.57,120.07-14.28,180.08-8.24,54.62,5.51,116.55,11.62,166,35.56a511.88,511.88,0,0,1,68.32,39.37Q1919.09,152.47,1920,182.87Z"/><path class="cls-2" d="M1920,80.36V182.87q-.91-30.39-1.82-60.79a511.88,511.88,0,0,0-68.32-39.37c-49.41-23.94-111.34-30-166-35.56-60-6-121.09-5.33-180.08,8.24-66.63,15.33-128.58,46.4-194.17,65.7a572.91,572.91,0,0,1-329.44-2.48c-37.05-11.52-74.84-27-113.27-21.7-41.23,5.74-75.75,34.65-116.16,44.66C654.45,165.45,570.12,84.92,479,70,368.71,51.9,270.77,53.21,167,102.76,107.08,131.38,52.54,169.45,0,210.32V151.24C198.08,20.44,448.5-29.43,681.45,17c144.18,28.75,283.09,92.56,430.11,91.43,167.71-1.29,324.62-87.13,491.91-99.06C1712.87,1.58,1824.34,26.8,1920,80.36Z"/></g></svg>