<?xml version="1.0" encoding="utf-8"?>
<!-- Generator: Adobe Illustrator 26.0.3, SVG Export Plug-In . SVG Version: 6.00 Build 0)  -->
<svg version="1.1" id="Layer_1" xmlns="http://www.w3.org/2000/svg" xmlns:xlink="http://www.w3.org/1999/xlink" x="0px" y="0px"
	 viewBox="0 0 2000 1124.7" style="enable-background:new 0 0 2000 1124.7;" xml:space="preserve">
<style type="text/css">
	.st0{fill:url(#SVGID_1_);}
	.st1{fill:none;}
	.st2{fill:#09122D;}
	.st3{fill:#121935;}
	.st4{fill:#050C1E;}
</style>
<linearGradient id="SVGID_1_" gradientUnits="userSpaceOnUse" x1="1999.7292" y1="587.9761" x2="1999.7292" y2="660.769" gradientTransform="matrix(1 0 0 -1 0 1124.6954)">
	<stop  offset="0" style="stop-color:#002F7F"/>
	<stop  offset="2.000000e-02" style="stop-color:#002C77"/>
	<stop  offset="9.000000e-02" style="stop-color:#001E59"/>
	<stop  offset="0.18" style="stop-color:#001341"/>
	<stop  offset="0.27" style="stop-color:#000B2E"/>
	<stop  offset="0.39" style="stop-color:#000520"/>
	<stop  offset="0.53" style="stop-color:#000118"/>
	<stop  offset="0.79" style="stop-color:#000016"/>
</linearGradient>
<path class="st0" d="M2000,522.8l-0.5-0.1v-68.4l0.4-0.2L2000,522.8z"/>
<line class="st1" x1="1999.5" y1="681.2" x2="1999.5" y2="544"/>
<rect class="st1" width="1999.5" height="1124.7"/>
<ellipse transform="matrix(0.9274 -0.3741 0.3741 0.9274 -199.4789 796.7578)" class="st2" cx="1952.6" cy="912.2" rx="24.6" ry="10.5"/>
<path class="st2" d="M1934.6,1010.6c1.1,2.8-3.3,7.3-9.9,9.9c-6.6,2.6-12.9,2.5-14-0.3c-1.1-2.8-2.1-10.1,4.5-12.8
	C1921.9,1004.8,1933.5,1007.8,1934.6,1010.6z"/>
<path class="st2" d="M1705,947.9c2.2,5.4-3.6,5.6-16.2,10.7c-12.6,5.1-24.6,4.8-26.8-0.6c-2.2-5.4-4-19.4,8.6-24.5
	S1702.8,942.5,1705,947.9z"/>
<path class="st2" d="M1964.2,1027.4c3.6-4.6,6.6,0.3,17.3,8.6s16.5,18.7,13,23.4c-3.6,4.6-14.8,13.2-25.5,4.9
	C1958.3,1055.9,1960.6,1032,1964.2,1027.4z"/>
<path class="st2" d="M1874.3,1002.5c1.6,4-2.6,4.1-11.9,7.8c-9.2,3.7-18,3.5-19.6-0.4c-1.6-4-2.9-14.2,6.3-18
	C1858.4,988.3,1872.7,998.6,1874.3,1002.5z"/>
<ellipse transform="matrix(0.9274 -0.3741 0.3741 0.9274 -252.7829 742.6178)" class="st2" cx="1786.5" cy="1022.4" rx="24.6" ry="10.5"/>
<ellipse transform="matrix(0.9274 -0.3741 0.3741 0.9274 -222.0468 789.2238)" class="st2" cx="1921.9" cy="966.6" rx="24.6" ry="10.5"/>
<path class="st3" d="M1999.1,783c0.2,1.3,0.3,2.6,0.3,3.9v12.5c-0.1,0.3-0.2,0.6-0.2,0.9c-1.5,5-4.9,9.3-8.2,13.4
	c-32.1,39.7-67.6,77.3-109.9,105.8c-93.9,63.2-204,102-310.3,138.3c-70.4,24-143.9,43-218.6,45.6c-120.9,4.2-447.2-8-407-201.1
	c25.5-122.2,135.4-208.5,244.4-254.1c97.6-40.8,205.7-67.9,284.7-142.3c22.5-21.2,39.6-50.2,39.7-81.1
	c0.5-104.6-149.4-83.8-214-69.9c-181.5,39.1-356.2,106.5-538.5,146.2c-154.1,33.5-303.9,61-461.7,36.6
	c-50.9-7.9-102.1-21-144.9-49.7c-72-48.1-93.6-126.9-64.8-207C126,181.9,231.3,65.6,295.2,6c4.2-3.9,9.7-6,15.4-6h0
	c18.2,0,28.9,20.4,18.7,35.3c-45.2,65.8-86.6,165.5-38.4,228.3c61.6,80.4,206.6,57.3,293,49.8c241.6-21.1,480-76.9,706.4-163.7
	c93.6-35.9,186.1-77.4,284.8-94.9c124.6-22.1,349.4,6.6,358.9,170.9c3.1,53.6-19.1,106.2-51.2,149.3
	c-87.6,117.4-230.1,178.8-364.8,225.4c-45,15.5-92.6,33.6-139.7,40.4c-46.1,6.7-87.8,28.7-129.7,49.4
	c-63.6,31.4-128.4,98.6-132.1,173.2c-3.2,63.1,38.1,119.8,99.2,136.1c33.7,9,69.1,8.3,103.9,6.2c114.4-7,233.4-25.1,343.1-65.1
	c6.6-2.4,13.1-4.9,19.7-7.5l0,0c50.7-20,99.2-44.9,144.1-75.8c47.4-32.7,87.7-75.2,133.2-110.3c14.1-10.9,34.6-1.9,36.3,15.9
	c0.5,4.7,1.1,9.5,2,14.2C1998.3,779,1998.7,781,1999.1,783z"/>
<path class="st3" d="M1372.2,0c-61.3,48.8-130.9,91.4-203,122c-131.1,55.7-270.5,89.1-412.6,99.1c-11.2,0.8-26.6-2.2-26.6-13.5
	c0-3.4,1.6-6.5,3.4-9.4c11.5-17.9,31.1-29,44.4-45.7c2.7-3.4,5.2-7.3,5.4-11.7c0.4-11.5-14.3-16.7-25.8-17.5
	c-70.8-5.2-140.4,17.4-211.1,23.2c-15.6,1.3-36.1-1.6-39.5-17c-2.5-11.3,6.7-21.6,15.5-29.2c50.3-43.3,112.6-69.7,174.7-93
	c6.7-2.5,13.5-5,20.3-7.5h56.6c-3.5,1.2-6.9,2.4-10.4,3.6c-25.8,9.1-51.9,19.5-71.8,38.2c-3.4,3.3-6.8,8.5-4,12.3
	c1.5,2.1,4.3,2.6,6.8,3.1c41.7,7.3,84.2,12.8,126.1,6.7c33.2-4.9,64.9-16.9,96.4-28.4C951.9,23,987.1,11,1022.5,0H1372.2z"/>
<path class="st4" d="M1999.5,544v-21.4l0.5,0.1l-0.1-68.7l-0.4,0.2c-62,30.2-122.4,63.6-181,100c-18.1,11.2-36.2,22.9-51.3,38
	c-11.1,11.1-20.3,24-30,36.3c-33,41.9-78.1,81.4-131.5,81.1c-15.9-0.1-31.6-3.7-47.4-5.4c-62.4-6.4-127.2,21.7-165.2,71.5
	c-12.3,16-21.6,39.6-8.9,55.4c12.6,15.8,37.6,11.8,57.2,6.2l72.3-20.6c5.7-1.6,11.9-3.2,17.5-1.2c12.7,4.7,12.1,23.1,6.2,35.3
	c-6,12.1-15.2,24.6-12,37.7c4.2,17.1,25.9,22.1,43.5,22.5c92.2,2.2,192.2-40.9,227.7-126c9-21.6,14.2-45.9,30.9-62.2
	c24.5-23.8,63.1-21.3,97.1-24c25.8-2.1,51.1-8,75-17.6V544z"/>
<path class="st3" d="M36.7,741.8c0,34.4,24.5,64,58.3,70.4h0c23.8,4.6,48.4,9.4,68.3,23.4c26.8,18.9,40.5,51.4,48.1,83.2
	c3.2,13.4,5.7,27.3,13.2,38.8c12.7,19.6,58.9,34.8,80.8,41.1c33.1,9.7,68.1,11.9,102.5,12.3c22.5,0.2,47.8-1.1,63.2-17.6
	c15.8-16.8,15.2-43.1,9.9-65.6c-5.3-22.5-14.4-44.7-12.3-67.7c4.2-45.2,48.3-74.4,88-96.2c39.8-21.8,84.5-49.1,91.3-94
	c1.2-7.6,1-15.8-2.4-22.7c-3.3-6.6-9.4-11.3-15.5-15.4c-41.2-27.1-93.8-29.9-142.9-24.8s-97.5,17.2-146.8,16.7
	c-50.4-0.6-99.6-14.5-149.6-20c-26-2.9-56.6-3.9-87.7-1.5c-37.4,2.9-66.3,34-66.3,71.5V741.8z"/>
<path class="st2" d="M53.4,708.1c0-20.9,14.7-38.9,35.2-42.9c19.6-3.8,39.5-6.2,59.4-7.1c55.4-2.8,111.2-2.1,166.2,5.6
	c20.8,2.9,41.8,6.9,61.1,15.2c18.7,8,35.9,20,55.5,25.7c12.9,3.7,26.6,4.6,38.9,9.9c12.3,5.4,23.3,17.2,21.9,30.5
	c-1.2,10.6-10,18.8-19.3,24.1c-37.7,21.4-85.3,8.7-127.6,18.5c-10.1,2.3-20.2,6.2-27.6,13.4c-7.4,7.2-11.6,18.5-8.2,28.3
	c4,11.6,17.5,19.8,16.7,32c-0.9,13.1-17.9,18.9-30.6,15.7c-31.2-7.9-44.5-43.7-63.3-69.9c-32.8-45.5-81.3-58.8-132-55.5
	C74.6,753.4,53.4,733.3,53.4,708.1L53.4,708.1z"/>
<ellipse transform="matrix(9.306565e-02 -0.9957 0.9957 9.306565e-02 -260.3001 1065.1683)" class="st2" cx="454.5" cy="675.5" rx="21.2" ry="71.5"/>
<ellipse transform="matrix(0.994 -0.1094 0.1094 0.994 -78.3452 74.7859)" class="st2" cx="642.5" cy="751.5" rx="50.5" ry="21.7"/>
<ellipse transform="matrix(0.994 -0.1094 0.1094 0.994 -4.6346 45.9996)" class="st4" cx="416.9" cy="65.2" rx="50.5" ry="21.7"/>
<ellipse transform="matrix(0.994 -0.1094 0.1094 0.994 -36.3167 157.2561)" class="st4" cx="1415.1" cy="409.6" rx="50.5" ry="21.7"/>
<ellipse transform="matrix(0.994 -0.1094 0.1094 0.994 -76.9822 166.6554)" class="st4" cx="1480.5" cy="785" rx="50.5" ry="21.7"/>
<ellipse transform="matrix(0.994 -0.1094 0.1094 0.994 -93.1331 90.3672)" class="st2" cx="777.1" cy="894" rx="50.5" ry="21.7"/>
<ellipse transform="matrix(0.994 -0.1094 0.1094 0.994 -99.567 60.5069)" class="st2" cx="501.7" cy="937.7" rx="17.7" ry="15.2"/>
<ellipse transform="matrix(0.9939 -0.1104 0.1104 0.9939 -40.6964 141.16)" class="st4" cx="1254" cy="438" rx="17.6" ry="15.1"/>
<ellipse transform="matrix(0.994 -0.1094 0.1094 0.994 -7.2386 54.4341)" class="st4" cx="492.5" cy="93.2" rx="17.7" ry="15.2"/>
<ellipse transform="matrix(0.994 -0.1094 0.1094 0.994 -80.7628 82.5339)" class="st2" cx="711.9" cy="777.4" rx="17.7" ry="15.2"/>
<ellipse transform="matrix(0.994 -0.1094 0.1094 0.994 -38.6411 163.6337)" class="st4" cx="1472.1" cy="434" rx="17.7" ry="15.2"/>
<path class="st2" d="M1999.5,522.6V544c-13.9,10.4-32.6,10.6-49.6,14.2c-17.2,3.7-36.2,15.3-36,32.9c0,5.2,1.8,10.2,2.3,15.4
	c1.5,14.7-7.8,29.2-20.6,36.5c-12.8,7.4-28.5,8.4-43.1,5.9c-5.9-1-12.8-3.6-14.2-9.4c-1.3-5.6,3.4-11,8.6-13.5
	c5.2-2.5,11.2-3.5,16.1-6.5c11.8-7.4-11.5-25.1,0.9-35.3C1876.2,573.9,1971.3,516.2,1999.5,522.6z"/>
<path class="st2" d="M681.1,809.9c-18.7,5.7-37.1,12.5-55.1,20.1c-3.9,1.7-8.1,3.6-10.2,7.4c-3.4,6.1,0.8,14.2,7.1,17.3
	c6.2,3.1,13.6,2.5,20.5,1.5c22.4-3.3,44.1-10.6,64-21.5c4.5-2.5,9-5.2,11.7-9.6s2.7-10.7-1.2-14c-2.9-2.5-7.1-2.6-10.9-2.5
	c-8.2,0.4-16.3,1.7-24.1,3.9L681.1,809.9z"/>
<path class="st2" d="M98.7,960.3c-18.7,5.7-37.1,12.5-55.1,20.1c-4,1.7-8.2,3.6-10.2,7.4c-3.4,6.1,0.8,14.2,7.1,17.3
	s13.6,2.5,20.5,1.5c22.4-3.4,44.1-10.7,64-21.5c4.5-2.5,9-5.2,11.7-9.6s2.7-10.7-1.2-14c-2.9-2.5-7.1-2.6-10.9-2.5
	c-8.2,0.4-16.3,1.7-24.1,3.9L98.7,960.3z"/>
</svg>
