<svg xmlns="http://www.w3.org/2000/svg" xmlns:xlink="http://www.w3.org/1999/xlink" viewBox="0 0 130.06 69.37"><defs><style>.cls-1{fill:url(#linear-gradient);}.cls-2{fill:#f2bc4d;}.cls-3{fill:#fbe664;}</style><linearGradient id="linear-gradient" x1="18.56" y1="89.37" x2="131.6" y2="-26.68" gradientTransform="translate(117.94 93.59) rotate(-161.5)" gradientUnits="userSpaceOnUse"><stop offset="0" stop-color="#fef6f5"/><stop offset="0.22" stop-color="#fae1b3"/><stop offset="0.34" stop-color="#f8d792"/><stop offset="0.37" stop-color="#f8cc85"/><stop offset="0.45" stop-color="#f9b76c"/><stop offset="0.54" stop-color="#f9a659"/><stop offset="0.64" stop-color="#fa9a4b"/><stop offset="0.77" stop-color="#fa9343"/><stop offset="1" stop-color="#fa9141"/></linearGradient></defs><g id="Layer_2" data-name="Layer 2"><g id="fire_comets" data-name="fire comets"><path class="cls-1" d="M73.47,48.33c14.43-5.07,28.79-10.56,42.13-18,4.33-2.43,8.66-5.17,11.54-9.2s4-9.69,1.59-14a13.35,13.35,0,0,0-7-5.64c-6.14-2.35-13-1.43-19.44,0A145.05,145.05,0,0,0,42.3,30c-6,4.85-11.67,10.18-17.3,15.5L0,69.12c2.5.83,5.16-.53,7.44-1.84L32.92,52.65a49.24,49.24,0,0,1-11,9c-1.24.75-5,2.73-2.33,3.6,1.58.51,6.17-1.7,7.82-2.18Q35.24,60.79,43,58.39,58.32,53.65,73.47,48.33Z"/><path class="cls-2" d="M120.13,21.46c1-3.07.39-6.4-.28-9.55-.54-2.53-1.22-5.24-3.23-6.86a8.34,8.34,0,0,0-4.55-1.6C107,3,102.06,5.19,97.52,7.52,94.29,9.17,91,11,88.67,13.71S85,20.33,86.11,23.77c1.21,3.6,4.74,5.82,8,7.74,2.29,1.34,4.65,2.7,7.28,3.06,4.19.58,6.07-2.29,9.16-4.27C114.37,27.86,118.59,26.16,120.13,21.46Z"/><path class="cls-3" d="M103.19,29.58a7.18,7.18,0,0,0,4.31-1.77c-1-1.33-3.14-.9-4.55,0A1.9,1.9,0,0,0,102,29c-.08.52.52,1.11,1,.83"/><path class="cls-3" d="M109.1,23.7a6.77,6.77,0,0,0,6.17-2.85,6,6,0,0,0-5.57-.9,3.45,3.45,0,0,0-2.14,1.8,1.93,1.93,0,0,0,.85,2.46"/><path class="cls-3" d="M94.45,24.5a14.09,14.09,0,0,0,4.67-1.85,2.8,2.8,0,0,0,.93-.81c.64-1-.22-2.46-1.36-2.84a5.67,5.67,0,0,0-3.55.34A8.06,8.06,0,0,0,92,21a3,3,0,0,0-.83,3.29,2.21,2.21,0,0,0,4.14-.36"/><path class="cls-3" d="M102.16,15.26a5.14,5.14,0,0,0,4.48-.13,2.19,2.19,0,0,0,1.26-1.47,1.87,1.87,0,0,0-1.08-1.83,5.48,5.48,0,0,0-2.2-.45,4.88,4.88,0,0,0-3.27.61c-.9.69-1,2.37,0,2.82.53.23,1.38.31,1.32.88"/><path class="cls-3" d="M113.44,14.35a1.75,1.75,0,0,0,2.73,0,2,2,0,0,0-.54-2.8,2.5,2.5,0,0,0-3,.25,1.63,1.63,0,0,0-.57,1.78c.24.53.86.8,1.16,1.3"/><path class="cls-3" d="M93.71,15.65l2.88-1.15c.47-.19,1-.52.94-1s-.88-.61-1.44-.51a3.68,3.68,0,0,0-1.83.75A1.4,1.4,0,0,0,94,15.51"/></g></g></svg>