<svg xmlns="http://www.w3.org/2000/svg" viewBox="0 0 24.21 16.36"><defs><style>.cls-1{fill:#fef2e2;}</style></defs><g id="Layer_2" data-name="Layer 2"><g id="rocket_fire" data-name="rocket fire"><path class="cls-1" d="M24,7.33c-.76-2.47-2.82-2.65-4.81-3.56-1.36-.63-.94-.92-2-2C16.33.83,15.07.75,14,.32a2.38,2.38,0,0,0-2.48.26A14.08,14.08,0,0,0,8.16,0,5.06,5.06,0,0,0,3.8,1.65,5.23,5.23,0,0,0,2.53,4c0,.08,0,.27-.08.49A3.54,3.54,0,0,0,.16,7.08,6,6,0,0,0,2.36,13a17.68,17.68,0,0,0,6.93,3.22c2.61.56,4-.67,6-1.81C19.37,14.37,25.49,12.25,24,7.33ZM14,8.74c.21-.11.41-.22.61-.35l.36.27C14.63,8.68,14.32,8.7,14,8.74Z"/></g></g></svg>