<svg xmlns="http://www.w3.org/2000/svg" viewBox="0 0 79.47 79.64"><defs><style>.cls-1{fill:#fef2e2;}</style></defs><g id="Layer_2" data-name="Layer 2"><g id="rocket_fire" data-name="rocket fire"><path class="cls-1" d="M.89,60.81c1.72,1.94,4.84,1.28,7.3.47L4.34,69.34c1.51,1.57,4.07,1.68,6.08.86a16.43,16.43,0,0,0,5.14-3.93,4.59,4.59,0,0,0,3,5.6,4.6,4.6,0,0,0,5.46-3.3c.39,3.06.86,6.29,2.81,8.67s5.93,3.37,8.11,1.19a6.38,6.38,0,0,0,1.57-3.88A13.14,13.14,0,0,0,35,66.81,5.62,5.62,0,0,0,37.33,71a9.26,9.26,0,0,0,2-5.38,4.3,4.3,0,0,0,8.43.7c1.59,2.56,3.33,5.25,6,6.52s6.7.32,7.5-2.58c2.54,3.38,7.91,1.9,11.52-.31a15.38,15.38,0,0,0,5.69-5.22c1.28-2.26,1.4-5.36-.34-7.3-1.61-1.79-4.37-2.14-6.68-1.48a19.38,19.38,0,0,0-6.21,3.59c2-2.07,4-4.26,4.72-7s-.22-6.18-2.85-7.25c-2.41-1-5.27.42-6.79,2.54s-2,4.77-2.49,7.34a7.24,7.24,0,0,0-13.18,2.65L51.5,17.91C43.77,29.1,45.3,44.38,39.24,56.54A189.07,189.07,0,0,1,42.83,0c-9.54,15.93-4.91,36.89-12.22,54,.71-2.26-.42-5.11-2.69-5.77s-5,1.77-4.12,4a3.18,3.18,0,0,0-5.17-1.58,131.59,131.59,0,0,1,8.51-38.52C20.69,24.82,17.64,39,14.65,52.94c.2-.93-1.67-2.19-2.28-2.44-1.8,4.82-4.35,2-8.08,3.27C1.72,54.64-1.62,58,.89,60.81Z"/></g></g></svg>