<svg xmlns="http://www.w3.org/2000/svg" viewBox="0 0 44.23 44.05"><defs><style>.cls-1{fill:#fcbd00;}</style></defs><g id="Layer_2" data-name="Layer 2"><g id="stars"><path class="cls-1" d="M15.39.8,17.65,3A13.36,13.36,0,0,0,33.2,5.24L36,3.76a2.8,2.8,0,0,1,3.82,3.71l-1.4,2.84A13.38,13.38,0,0,0,41.1,25.79L43.37,28A2.8,2.8,0,0,1,41,32.77l-3.13-.45A13.37,13.37,0,0,0,24,39.65l-1.39,2.83a2.8,2.8,0,0,1-5.28-.75l-.53-3.11A13.36,13.36,0,0,0,5.53,27.67L2.4,27.22A2.8,2.8,0,0,1,1.49,22l2.8-1.47A13.36,13.36,0,0,0,11.22,6.4l-.54-3.11A2.8,2.8,0,0,1,15.39.8Z"/></g></g></svg>