<svg xmlns="http://www.w3.org/2000/svg" viewBox="0 0 59.76 160.5"><defs><style>.cls-1{fill:#d978ea;}.cls-2{fill:#993eb7;}</style></defs><g id="Layer_2" data-name="Layer 2"><g id="jlly_fish" data-name="jlly fish"><path class="cls-1" d="M39.52,0C35.69,3.53,34.35,8.88,35,13.92c.79,6,4,11.16,7.51,15.87,1.75,2.32,3.55,4.64,3.57,7.69a15,15,0,0,1-2.3,7.35c-2.62,4.68-6,8.76-7.34,14.07A28.27,28.27,0,0,0,37,74a32.69,32.69,0,0,0,8.2,13.19c1.67,1.73,3.67,3.51,4.66,5.75,1.28,2.89.38,6.2-.32,9.11a26.9,26.9,0,0,0-.94,8.92,24.66,24.66,0,0,0,2.33,8.33c1.37,2.86,3.35,5.3,5.08,7.92s2.66,5.11,1.49,8.08c-.94,2.41-2.68,4.39-3.86,6.67a7,7,0,0,0,0,6.83c.12.25.75,1.42,1.16,1.2s-.24-1.44-.33-1.63c-.8-1.63,1.13-4.35,1.93-5.62,1.21-1.9,2.66-3.81,3.17-6.05,1.13-4.95-2.36-9.62-5-13.4a21.15,21.15,0,0,1-3.83-7.82,20.9,20.9,0,0,1,.11-9c.62-2.86,1.59-5.75,1.4-8.71a15.11,15.11,0,0,0-2.56-7.15c-2.74-4.19-7-7.1-9.47-11.52a24.44,24.44,0,0,1-2.53-14.84c.71-5.3,3.29-9.53,6.13-14s5.15-9,3.47-14.24c-2-6.07-7.31-10.23-9.51-16.21-2.1-5.73-1.35-12.71,3.32-17,.62-.57-1.15-3.16-1.5-2.84Z"/><path class="cls-2" d="M53.27,7.42c-.31.44-1.12.61-1.57.93a4.84,4.84,0,0,0-1.05,1.07,13.73,13.73,0,0,0-1.82,3.26,9.87,9.87,0,0,0,.45,6.89c1,2.19,3.13,3.59,4.6,5.46,1.64,2.1,3.61,5.41,3.38,8.19-.1,1.28-1.12,2.12-2,3a40.33,40.33,0,0,1-3.24,3,35.81,35.81,0,0,0-5.64,5.64,18.39,18.39,0,0,0-1.8,3.36,9.73,9.73,0,0,0-1.17,3.92,14.22,14.22,0,0,0,1.86,7,58.41,58.41,0,0,1,3.34,6.84c.9,2.55,1.53,5.54-.47,7.74-1.45,1.6-3.58,2.51-5.24,3.88a13.87,13.87,0,0,0-4.48,5.88A15.5,15.5,0,0,0,38,90.38a9.15,9.15,0,0,0,1,3.1,13.42,13.42,0,0,1,1.68,2.75c.39,1.45-1.25,2.3-2.27,3-1.21.78-2.39,1.6-3.59,2.4a6.36,6.36,0,0,0-3.15,5.22,31.51,31.51,0,0,0,.76,9.92c.77,3.25,2.24,6.49,2.64,9.81.2,1.7-.54,2.69-1.31,4.1a11.62,11.62,0,0,0-1.22,4.2,9.4,9.4,0,0,0,.27,4.22,22.69,22.69,0,0,0,2.13,3.82c.45.76,2.84-.07,2.28-1a20.93,20.93,0,0,1-1.94-3.49,8.94,8.94,0,0,1-.21-4.27,10.13,10.13,0,0,1,1.19-3.69,7.08,7.08,0,0,0,1.34-3.3c.11-2.73-1.2-5.62-1.94-8.2a36.63,36.63,0,0,1-1.58-9c-.08-2.46-.35-5.62,1.88-7.23,2.06-1.5,4.66-2.63,6.38-4.54s.3-3.45-.82-5.3c-1.22-2-1.28-4.76-1.07-7a10.24,10.24,0,0,1,3.22-6.64c1.67-1.67,3.76-2.69,5.58-4.17A6.88,6.88,0,0,0,52,69.57a17.48,17.48,0,0,0-2.26-7.43,48.14,48.14,0,0,1-3.24-6.66,10.26,10.26,0,0,1-.59-3.64,10.1,10.1,0,0,1,1.29-4.1,13.14,13.14,0,0,1,2.12-3.47c.92-1,1.82-2,2.79-3s2-1.6,2.91-2.44,2.05-1.94,3-3a5,5,0,0,0,1.68-3.18,10,10,0,0,0-1-4.28,23.31,23.31,0,0,0-5-7,9,9,0,0,1-2.32-3.33,11.46,11.46,0,0,1-.49-4,8.73,8.73,0,0,1,1.74-4.22c.74-1.14,2.11-1.29,2.9-2.41.35-.49-.31-.77-.7-.8a1.94,1.94,0,0,0-1.62.71Z"/><path class="cls-2" d="M23.45,9.52c-6.93,1-11.79,12.9-9.12,18.88,1.65,3.69,4.59,5.94,3,10.5a27.36,27.36,0,0,1-3.88,7.37C10,51,5.26,54.72,2.3,59.82-3.22,69.34,2.24,79,7.64,87c1.8,2.69,4.09,6.19,4.42,9.49.32,3.1-1.17,6.3-1.37,9.4-.42,6.42.54,12.48,1.82,18.75.38,1.87,3.58,2.94,3.08.49-1.26-6.2-2.44-12.32-1.78-18.69.47-4.5,2.08-8.12.57-12.61C10.71,83-2.66,73.35,5.82,61.11,11,53.64,19.18,48,21,38.54c.79-4.18-.73-6.42-2.93-9.73s-1.29-6.77.62-9.92c1.15-1.91,3.64-5.43,6-5.77,2-.28.61-3.86-1.18-3.6Z"/><path class="cls-1" d="M27.31,10.18c-.3,6.06-.77,12.14-.89,18.2-.12,5.44,1,10.45,2.2,15.73C30.22,51.18,30,56.81,26.09,63c-2.72,4.32-6,8.3-8.49,12.74-4.54,8-6,17.47-1.81,25.85,1.07,2.16,2.51,4.13,3.57,6.28.84,1.7,2,3.63,1,5.36-.51.93-1.81,1.51-2.48,2.39-2.28,3-2.28,7-1.33,10.43.57,2.06,3.61,2.36,2.93-.08-1.14-4.15.19-6.78,3-9.59,1.05-1.05,1.81-1.78,2-3.28.35-3.06-2.52-6.45-3.93-8.9-3.76-6.49-5.21-12-3.13-19.47,1.53-5.49,5.07-10.13,8.26-14.75,5.27-7.64,8.26-14,6.45-23.35C31,40.77,29.3,35.33,29.42,29.26s.6-12.14.9-18.2c.1-2-2.88-3.39-3-.88Z"/><path class="cls-2" d="M44.47,4.05c-.8,2.93-1.36,6-2.63,8.79-1.7,3.72-4.64,5.41-7.74,7.78A33.81,33.81,0,0,0,22.37,37.06C18.45,50.26,32.8,58.76,39.24,67.9c4.95,7-2.23,12.45-8.16,15.8-6.21,3.51-11.69,6.2-14.85,13.11-2.13,4.66-3.43,10.34-.5,14.94,2.79,4.37,8.23,5.62,11.18,9.82C33,130.26,18.5,132,16.14,138.88s3.77,12.81,3.5,19.46c0,.94,3.08,2.6,3.1,2.06.27-6.6-5.82-12.54-3.54-19.17,2-6,10.53-6.46,12.34-12.06,1.25-3.87-2.81-7.84-5.29-10.29a33.42,33.42,0,0,0-4.69-3.39c-4.37-3.09-5.16-6.92-3.85-11.85a24.1,24.1,0,0,1,12-15.41c4.94-2.5,13.22-6.07,14.53-12.18.85-4-2.41-7.32-4.85-10C34.15,60.11,26.55,54.31,25,46.06c-1.43-7.51,4.44-16.22,9.74-21,3-2.69,6.86-4.43,9.08-7.83C45.9,14,46.53,10,47.52,6.4c.28-1-3-2.65-3.05-2.35Z"/><path class="cls-1" d="M7.91,11c-4,.91-5.3,6.5-5.81,10A17.27,17.27,0,0,0,8,36.83c5.61,4.75,14.69,7,18.34,13.83C31,59.49,15,60.17,10,62.36A11.81,11.81,0,0,0,2.59,73.53c0,3.14,1.55,5.78,3.24,8.34,2,3.06,5.9,6,4.39,9.95-2,5.21-10,5.94-9.5,12.69.22,2.86,2.06,5.59,3.24,8.13,1.85,4,.18,6.8-.86,10.81-.15.57,1.93.86,2.11.16.59-2.26,2.29-4.82,2.26-7.21,0-3-2.86-6.27-3.86-9-3.12-8.37,5.07-9.11,8.45-14.69,2.93-4.83-3.79-9.64-5.8-13.67C2.18,70.9,7,64.34,14.91,61.9c3.93-1.21,10.18-1.3,13.06-4.78,3.47-4.2-.88-8.72-4.08-11.38C18.58,41.34,10.74,39.1,6.8,33.25A17.08,17.08,0,0,1,4.09,22c.32-2.7,1.38-9.33,4.83-10.11,1.34-.31-.31-1.06-1-.9Z"/></g></g></svg>