<?xml version="1.0" encoding="utf-8"?>
<!-- Generator: Adobe Illustrator 26.0.2, SVG Export Plug-In . SVG Version: 6.00 Build 0)  -->
<svg version="1.1" id="Layer_1" xmlns="http://www.w3.org/2000/svg" xmlns:xlink="http://www.w3.org/1999/xlink" x="0px" y="0px"
	 viewBox="0 0 1920.9 1080.1" style="enable-background:new 0 0 1920.9 1080.1;" xml:space="preserve">
<style type="text/css">
	.st0{fill:url(#SVGID_1_);}
	.st1{fill:none;}
	.st2{fill-rule:evenodd;clip-rule:evenodd;fill:#044982;}
	.st3{fill-rule:evenodd;clip-rule:evenodd;fill:#3BA7E0;}
	.st4{opacity:0.1;fill:#23C0EE;enable-background:new    ;}
	.st5{opacity:5.000000e-02;fill:#23C0EE;enable-background:new    ;}
	.st6{opacity:0.1;fill:#35AEE3;enable-background:new    ;}
	.st7{opacity:0.1;fill:#30B9E9;enable-background:new    ;}
	.st8{opacity:0.1;fill:#2CC0EF;enable-background:new    ;}
	.st9{opacity:0.5;fill:#23C0EE;enable-background:new    ;}
	.st10{fill:#06436D;}
	.st11{fill:#184A7C;}
	.st12{fill:#244370;}
	.st13{opacity:0.6;}
	.st14{fill:#FFFFFF;}
	.st15{fill:#36D8E0;}
	.st16{fill:#79F2EF;}
	.st17{fill:#2CC0EF;}
	.st18{opacity:0.1;fill:#FFFFFF;enable-background:new    ;}
	.st19{opacity:5.000000e-02;fill:#FFFFFF;enable-background:new    ;}
	.st20{opacity:5.000000e-02;fill:#71D5F4;enable-background:new    ;}
	.st21{opacity:0.14;fill:#FFFFFF;enable-background:new    ;}
	.st22{opacity:0.31;fill:#FFFFFF;enable-background:new    ;}
</style>
<g>
	<g id="Layer_2_00000119078556337895615820000016077180720659307428_">
		<g id="bg">
			
				<linearGradient id="SVGID_1_" gradientUnits="userSpaceOnUse" x1="963.9667" y1="4.4398" x2="956.6268" y2="1318.3798" gradientTransform="matrix(1 0 0 -1 0 1116.1)">
				<stop  offset="0" style="stop-color:#0A42AD"/>
				<stop  offset="0.26" style="stop-color:#0A45AE"/>
				<stop  offset="0.44" style="stop-color:#084EB3"/>
				<stop  offset="0.59" style="stop-color:#065DBA"/>
				<stop  offset="0.73" style="stop-color:#0373C5"/>
				<stop  offset="0.82" style="stop-color:#0085CE"/>
				<stop  offset="0.87" style="stop-color:#0486CF"/>
				<stop  offset="0.91" style="stop-color:#108AD3"/>
				<stop  offset="0.95" style="stop-color:#2391D9"/>
				<stop  offset="0.99" style="stop-color:#3B99E0"/>
			</linearGradient>
			<path class="st0" d="M1920.9,0v1080H0.9V976.7C0.3,971.8,0,966.9,0,962c0-7.2,0.5-14.8,0.9-21.7V0H1920.9z"/>
			<rect x="0.9" y="0" class="st1" width="1920" height="1080"/>
			<path class="st2" d="M133.9,761.6c6.4,3.5-6.6,46.6-53.6,48.4c-10.5,19.7-16.5,22.3-20.3,25.3c8.4-13.2,10.7-22.5,10.7-22.5
				c-14,4.6-20.8,5.6-20.8,5.6s17.9-12.9,26.4-14.1C84.4,783.9,110.6,763.1,133.9,761.6z"/>
			<path class="st2" d="M249.9,764.9c5.1,5.2-20.4,42.4-65.6,29.9c-16,15.6-22.5,16.3-27,17.9c12-10,17-18.2,17-18.2
				c-14.7,0.1-21.5-1-21.5-1s20.9-6.9,29.4-5.5C196,771.2,227.2,759.4,249.9,764.9z"/>
			<path class="st2" d="M229.9,719.8c3.1,3.2-12.4,25.9-40.1,18.3c-9.8,9.5-13.7,9.9-16.5,11c7.3-6.1,10.4-11.1,10.4-11.1
				c-4.4,0.1-8.8-0.1-13.1-0.6c0,0,12.8-4.2,18-3.3C196.9,723.6,216,716.4,229.9,719.8z"/>
			<path class="st2" d="M322.2,717.3c1.8,5.2-27.5,22.4-54.5-0.6c-15.9,5.5-20.6,3.9-24.2,3.6c11.4-3,17.4-7,17.4-7
				c-10.1-4.6-14.4-7.5-14.4-7.5s16.5,2,21.9,5.7C283.3,704.3,308.5,706.2,322.2,717.3z"/>
			<path class="st2" d="M340.3,759c1.2,3.5-18.5,15.1-36.6-0.4c-10.7,3.7-13.9,2.6-16.3,2.4c4.1-1,8.1-2.5,11.7-4.7
				c-3.3-1.5-6.6-3.2-9.7-5.1c0,0,11.1,1.4,14.7,3.8C314.2,750.3,331.1,751.6,340.3,759z"/>
			<path class="st2" d="M1649.9,462.5c-4.2,2.2,4.3,30.3,34.8,31.5c6.9,12.8,10.8,14.5,13.2,16.4c-5.5-8.5-7-14.6-7-14.6
				c4.4,1.5,8.9,2.8,13.5,3.6c0,0-11.6-8.4-17.2-9.2C1682.1,477,1665,463.5,1649.9,462.5z"/>
			<path class="st2" d="M1574.5,464.7c-3.3,3.4,13.2,27.6,42.7,19.5c10.4,10.1,14.6,10.6,17.6,11.7c-7.8-6.5-11-11.8-11-11.8
				c4.7,0.1,9.4-0.1,14-0.6c0,0-13.6-4.5-19.1-3.5C1609.5,468.8,1589.2,461,1574.5,464.7z"/>
			<path class="st2" d="M1587.5,435.3c-2,2.1,8.1,16.8,26.1,11.9c6.3,6.2,8.9,6.5,10.7,7.1c-2.6-2.1-4.9-4.5-6.7-7.2
				c2.9,0.1,5.7,0,8.5-0.4c0,0-8.3-2.7-11.7-2.2C1608.9,437.8,1596.5,433,1587.5,435.3z"/>
			<path class="st2" d="M1527.4,433.7c-1.2,3.4,17.9,14.6,35.4-0.4c10.4,3.6,13.4,2.5,15.8,2.3c-4-0.9-7.8-2.5-11.3-4.5
				c3.2-1.4,6.4-3,9.4-4.9c0,0-10.7,1.3-14.2,3.7C1552.7,425.2,1536.3,426.5,1527.4,433.7z"/>
			<path class="st2" d="M1515.7,460.8c-0.8,2.3,12,9.8,23.8-0.3c7,2.4,9,1.7,10.6,1.6c-2.7-0.6-5.2-1.7-7.6-3
				c2.2-0.9,4.3-2.1,6.3-3.3c0,0-7.2,0.9-9.6,2.5C1532.7,455.2,1521.7,456,1515.7,460.8z"/>
			<path class="st3" d="M1693.1,267.3c-4.2,2.2,4.3,30.3,34.8,31.5c6.8,12.8,10.8,14.5,13.2,16.4c-5.5-8.5-7-14.6-7-14.6
				c4.4,1.5,8.9,2.8,13.5,3.6c0,0-11.6-8.4-17.2-9.2C1725.3,281.8,1708.3,268.3,1693.1,267.3z"/>
			<path class="st3" d="M1617.7,269.5c-3.3,3.4,13.2,27.6,42.7,19.5c10.4,10.1,14.6,10.6,17.6,11.7c-7.8-6.5-11-11.8-11-11.8
				c4.7,0.1,9.4-0.1,14-0.6c0,0-13.6-4.5-19.1-3.6C1652.8,273.6,1632.4,265.9,1617.7,269.5z"/>
			<path class="st3" d="M1630.7,240.2c-2,2.1,8.1,16.8,26.1,11.9c6.3,6.2,8.9,6.5,10.7,7.1c-2.6-2.1-4.9-4.5-6.7-7.2
				c2.9,0.1,5.7,0,8.5-0.4c0,0-8.3-2.7-11.7-2.2C1652.2,242.7,1639.7,237.9,1630.7,240.2z"/>
			<path class="st3" d="M1570.7,238.6c-1.2,3.4,17.9,14.6,35.4-0.4c10.3,3.6,13.4,2.5,15.8,2.3c-4-0.9-7.8-2.5-11.3-4.5
				c3.2-1.4,6.4-3.1,9.3-4.9c0,0-10.8,1.3-14.2,3.7C1596,230.1,1579.6,231.3,1570.7,238.6z"/>
			<path class="st3" d="M1558.9,265.7c-0.8,2.3,12,9.8,23.8-0.3c7,2.4,9,1.7,10.6,1.6c-2.7-0.6-5.3-1.6-7.6-3
				c2.2-0.9,4.3-2.1,6.3-3.3c0,0-7.2,0.9-9.6,2.5C1575.9,260,1564.9,260.9,1558.9,265.7z"/>
			<path class="st2" d="M1162.9,452c-4.2,2.2,4.3,30.3,34.8,31.5c6.9,12.8,10.8,14.5,13.2,16.4c-5.5-8.5-7-14.6-7-14.6
				c4.4,1.5,8.9,2.7,13.5,3.6c0,0-11.6-8.4-17.2-9.2C1195,466.6,1178,453,1162.9,452z"/>
			<path class="st2" d="M1087.4,454.2c-3.3,3.4,13.2,27.6,42.7,19.5c10.4,10.1,14.6,10.6,17.6,11.7c-7.8-6.5-11-11.8-11-11.8
				c4.7,0.1,9.4-0.1,14-0.6c0,0-13.6-4.5-19.1-3.6C1122.5,458.3,1102.2,450.6,1087.4,454.2z"/>
			<path class="st2" d="M1100.5,424.9c-2,2.1,8.1,16.8,26.1,11.9c6.3,6.2,8.9,6.5,10.7,7.1c-2.6-2-4.9-4.5-6.7-7.2
				c2.9,0.1,5.7,0,8.5-0.4c0,0-8.3-2.7-11.7-2.2C1121.9,427.4,1109.5,422.7,1100.5,424.9z"/>
			<path class="st2" d="M1040.4,423.3c-1.2,3.4,17.9,14.6,35.4-0.4c10.3,3.6,13.4,2.5,15.8,2.3c-4-0.9-7.8-2.5-11.3-4.5
				c3.2-1.4,6.4-3,9.4-4.9c0,0-10.8,1.3-14.2,3.7C1065.7,414.8,1049.3,416,1040.4,423.3z"/>
			<path class="st2" d="M1028.7,450.4c-0.8,2.3,12,9.8,23.8-0.3c7,2.4,9,1.7,10.6,1.6c-2.7-0.6-5.2-1.6-7.6-3
				c2.2-0.9,4.3-2.1,6.3-3.3c0,0-7.2,0.9-9.6,2.5C1045.6,444.8,1034.6,445.6,1028.7,450.4z"/>
			<path class="st4" d="M1779.3,0c-13.9,14.7-27.8,29.4-41.6,44.1c-21.2,22.4-42.6,45.1-68.2,62.3c-40.8,27.4-89.8,39.3-138.2,47.4
				c-72.5,12.1-146,16.6-219.5,13.5c-48.4-2.1-97.6-7.4-145,1.9c-2.4,0.5-4.9,1-7.3,1.5c-14.4,3.4-28.5,7.8-42.3,13.2
				c-16.8,6.3-33.4,13.4-50.2,19.6c-11.7,4.5-23.7,8.3-35.8,11.5c-11.8,3.1-23.8,5-36,5.8l-1.5,0.1c-20.5,0.9-40.5-2.1-60.1-7.4
				c-31.1-8.4-61.4-22.3-91.7-34.6c-4.1-1.6-8.2-3.3-12.3-4.9c-55.5-21.3-113.8-34.2-173.1-38.1c-40.4-2.7-81.4-1.2-121-9.8
				C466,111,405.3,62.7,371.9,0h192.6c6.5,10.6,14.7,20,26.7,26.1c19.6,10.1,42.4,10.8,64.3,13.2C757.7,50.8,856.3,105,957.4,97.7
				c7.5-0.5,15-1.4,22.5-2.7c8.6-1.4,17.2-3.4,25.6-5.6c9.6-2.6,19-5.6,28.5-8.7c8.7-2.9,17.4-6,26-9.1c13.7-4.9,27.4-9.7,41.3-13.7
				c12-3.6,24.2-6.3,36.6-8.3c6-0.9,12.1-1.5,18.2-1.8c51.6-2.7,101,16.9,151.1,30.6c6.8,1.8,13.5,3.6,20.3,5.1
				c7.1,1.6,14.2,3.1,21.4,4.3c78.8,13.6,160.5,3.9,237.2-21.1c14.3-4.7,28.5-9.9,42.4-15.6c5.5-2.3,11-4.6,16.4-7
				c26.9-11.9,53.4-25.8,76.4-44.1L1779.3,0z"/>
			<path class="st5" d="M1135,358.7c-4,10.9-14.3,18.1-24.1,24.4c-10.9,6.9-22,13.4-33.3,19.6c-16.5,9-33.5,17.3-50.8,24.8
				c-16.2,7-32.6,13.2-49.3,18.8c-12.3,4.1-24.7,7.8-37.3,11c-2.2,0.6-4.3,1.1-6.5,1.7c-17.3,4.3-34.8,7.9-52.5,10.6
				c-72.7,11.1-147.1,8.2-218-11.4c-33.1-9.1-65.4-21.8-99.1-28.3c-77.4-14.9-156.4,3.1-235.2,13.8l0,0c-11.8,1.6-23.5,3-35.3,4.1
				c-35.3,3.4-70.6,4.1-105.5-1.6c-28-4.6-55.2-13.3-80.6-25.9c-11-5.4-21.7-11.4-31.9-18.1c-28.5-18.5-53.7-41.7-74.5-68.5V0h155.4
				c23.8,104.4,95,204.9,198.9,229.2c34.8,8.2,71.2,7.5,106.2,14.6c66.8,13.6,124.8,54.6,189.9,75.2c83.7,26.5,171.3,17.7,259.5,6
				c25.7-3.4,51.4-7.1,77-10.2c13.8-1.7,27.7-3.2,41.4-4.4c11.1-1,22.2-1.8,33.3-2.4c3.3-0.2,6.7-0.3,10-0.4
				c14.4-0.2,28.9,1,41.5,7.5C1129.6,323.4,1141,342.2,1135,358.7z"/>
			<path class="st6" d="M1920.9,431v236.2c-89.3-14.9-175.2-48.9-261.3-79.8c-35.2-12.7-70.5-24.8-106-35
				c-62.2-17.8-125.2-29.3-190.2-26.4c-91.2,4-175.4,35.7-257.4,76.4c-4.2,2.1-8.4,4.2-12.6,6.3c-7.6,3.8-15.2,7.8-22.7,11.8
				c-3.3,1.7-6.6,3.5-9.9,5.3c-1.3,0.7-2.7,1.4-4.1,2.2c-71.6,38.4-142.3,80.8-215.3,114.6c-22.7,10.5-45.8,20.2-69.2,29.3
				c-2.9,1.1-5.8,2.2-8.6,3.3l-0.7,0.3l-1,0.4l-0.4,0.2c-2.9,1.1-5.8,2.2-8.8,3.3l0,0c-48,17.8-97,33-146.2,47
				c-44.8,12.8-90.2,24.6-136.3,30.3l-3.1,0.4c-3.1,0.4-6.3,0.7-9.5,1c-2.9,0.3-5.7,0.5-8.6,0.8c-8.4,0.7-16.8,1.1-25.2,1.3
				c-8,0.2-16,0.1-24-0.2c-3.3-0.1-6.6-0.2-9.9-0.4c-21.3-1.2-42.5-3.6-63.5-7.2l-3.7-0.6c-22.6-3.9-45-8.8-67.4-14.2l-1.2-0.3
				c-17.5-4.2-35-8.7-52.4-13.2l-7-1.7l-5.2-1.4c-10.3-2.7-20.7-5.4-31.1-8.2l0,0l-0.5-0.2l0,0c-14.8-4-29.5-8.2-44.2-12.8
				c-9.7-3-19.3-6.1-28.9-9.4c-29-10-57.3-21.7-83.9-36v-61.9c24.8,11.8,50.5,21.5,76.9,28.9c33.7,9.7,68.2,16.2,103.1,20.5l4.4,0.5
				c37.2,4.5,74.8,6.6,112.1,7.6c69.8,1.9,140.2,0.4,209.4-8.8c18.9-2.5,37.7-5.7,56.4-9.4c18.1-3.7,36.1-8,54-13
				C707.3,693,790.7,650.1,873.1,605c3-1.7,6-3.3,9.1-5c6.3-3.5,12.7-7,19-10.4l10.3-5.7c9.5-5.2,18.9-10.4,28.4-15.6l10.4-5.7
				c16.2-8.8,32.5-17.5,48.8-26.1c43-22.4,87.5-43.5,133.1-60.9l4.7-1.8l0.6-0.2c2.2-0.8,4.5-1.7,6.8-2.5c6.8-2.5,13.6-4.9,20.4-7.2
				c5.5-1.9,11-3.7,16.6-5.4c72.4-22.6,147.1-34.1,222.2-25.5c39.5,4.5,78.1,14.6,116.6,25.3c5.4,1.5,10.9,3,16.3,4.6l0,0
				c14.2,4,28.4,8,42.6,11.7c15.2,4,30.5,7.7,45.8,10.8c19.8,4.2,39.9,7,60.1,8.6l0,0c0.8,0.1,1.5,0.1,2.3,0.2
				c3.5,0.2,6.9,0.4,10.4,0.5C1776.1,497.8,1855.5,474.8,1920.9,431z"/>
			<path class="st7" d="M1920.9,0v310.3c-0.6,0.8-1.3,1.5-2,2.3c-15,16.3-38.3,21.7-60.3,23.9c-26.5,2.7-53.2,2.1-80,1.7
				c-4-0.1-8-0.1-12-0.2c-31.7-0.4-63.2,0.1-94,7.2c-37.1,8.5-71.4,26.2-107.7,37.7c-36.9,11.6-75.6,16.8-114.3,15.1
				c-29.9-1.3-64.5-10.1-76.3-37.6c-0.5-1.3-1-2.6-1.4-3.9c-1-3.1-1.7-6.3-2-9.6c-2-19.8,8.2-40.7,23.3-54.4
				c18.6-16.9,43.2-25.3,67-33.3c112.7-37.8,227.6-76.8,321.9-149.2c39.8-30.6,75-67.8,102.3-110L1920.9,0z"/>
			<path class="st8" d="M1568.9,38.1c-45,28-101.6,38.8-152.7,24.5c-6.7-1.9-13.5-4.3-18-9.6s-5.7-14-0.7-18.8
				c3.5-3.4,8.7-4,13.5-4.3c47.5-3.9,83.8-13.6,128.2-29.9h44.9c1.8,1.8,3.1,4,3.9,6.3C1592.4,19,1580.3,31,1568.9,38.1z"/>
			<path class="st8" d="M816.6,40.7c7.8,11.6,19.6,20.1,33.1,23.8c20.8,5.6,43.2-0.7,64.4,3.2c9.8,1.8,19.1,5.7,29,6.7
				s21.1-1.4,26.7-9.7c8.9-13.2-2.9-32-17.9-37.3C923,17.3,895.1,26,865.7,14C844.7,5.3,790.8,2.1,816.6,40.7z"/>
			<path class="st4" d="M231.5,18.7c-7.4,4.5-14.9,9.6-19,17.2c-8,14.8-0.8,33.4,9.7,46.6s24.1,24.2,31.3,39.4
				c4.7,10,6.4,21.1,10.1,31.5s10.3,20.8,20.7,24.4c14.5,5.1,30.3-5,39-17.6c15.4-22.2,16-53.8,1.5-76.6C318,73,307.7,64.8,301.1,54
				c-6-9.9-6.2-28.1-12-35.8C275-0.1,250.3,7.5,231.5,18.7z"/>
			<path class="st9" d="M370.6,159.9c-9.1-1.9-20.3-3.2-26.3,3.9c-5.5,6.6-3,17.3,3.5,22.9s15.5,7.2,24,7.5c3.7,0.1,7.6,0,11-1.5
				c8.3-3.6,11.4-14.8,7.6-23s-13-12.9-22-13.2L370.6,159.9z"/>
			<path class="st4" d="M588.1,553.9c0.1,12.9-11.5,22.5-22.5,29.1c-56.2,34.1-125.3,43.1-190.4,33.8c-25.2-3.6-50.2-9.8-75.6-9
				c-37.4,1.2-72.6,17.4-109.5,23.3c-37.8,6-76.3,1.2-114.1-4.5c-25.3-3.8-51.3-8.4-75.1-17.6V505.6c22.4,9.5,46,16.2,70.1,19.9
				c53.2,8.1,108.2,1.5,160.5,13.8c18.3,4.3,36,10.8,54.5,14.1c22.3,3.9,45.1,3,67.6,0.9c38.9-3.7,77.3-10.9,114.9-21.5
				c34.1-9.7,72.9-21.7,103.1-3.1C580.4,535,588.1,543.7,588.1,553.9z"/>
		</g>
		<g id="ground_bg">
			<path class="st10" d="M483.2,996.7c-5.3,7.8-15.1,12.5-27.5,13.7c-72.3,6.8-145.2,3.4-217.7,7.3c-40.9,2.2-81.8,6.7-122.8,4.8
				c-26.8-1.3-99.6-5.5-111.7-35c-1.3-3.4-2.3-7-2.7-10.7C0.3,971.8,0,966.9,0,962c0-7.2,0.5-14.8,0.9-21.7
				c0.3-5.4,0.6-10.5,0.6-14.8c0-2.6,0-5.2,0.1-7.8c0.1-9.9,0.4-19.7,0.9-29.6c0.6-12,1.4-24,2.5-35.9L15.7,867
				c-4.7-16-4.6-33,0.2-49c6.9,16.6,11.4,34.2,13.3,52.1c1.1-7.5,3.2-14.9,6.3-21.9l5.5,24.4l7.3-14c5.1,5.9,8.5,13,9.9,20.7
				c0.1-5.1,2.5-10,6.5-13.2c4.2,2.8,7.7,6.5,10.2,11c0.8-5.4,2.7-10.6,5.7-15.3l5,11.4c2-13.6,5.5-26.9,10.4-39.8
				c0.2-0.5,0.4-0.9,0.6-1.4c1.8-4,5-8,8.6-9l0,0c1.4-0.4,2.9-0.2,4.2,0.5c1.3,15.5,2,31,2.1,46.6l5.8-13.7l4.6,12.6
				c0.7-3.6,2.7-6.8,5.7-8.9c3,5,4.4,10.8,4.1,16.6c1.3-3.3,2.7-6.6,4-9.9c1.6,4.1,2.7,8.4,3.3,12.8c0.3,2.5,0.5,5.1,0.4,7.6
				l9.8-8.3l0.7-0.5l0.3,0.5c4.3,6.5,7.4,13.8,9.1,21.4c1.4-3.9,2.8-7.9,4.2-11.8c7,1.4,12.1,8.5,11.9,15.5c0.3-1.9,0.7-3.7,1-5.6
				c2.7,7.5,4.5,15.3,5.3,23.2c2.2-10.7,7.3-24.4,16.1-31.7c3.9,9,6.1,18.7,6.4,28.5l6.6-11.3c4,4,6.5,9.3,7.2,15l4.1-9.3
				c3,1.3,5.1,4.1,5.5,7.3l4.3-6.4l6.7,7.8c7.1-15.1,8.1-31.9,9.5-48.8c1-12.2,2.2-24.3,6-35.7c0.2-0.5,0.3-1,0.5-1.5
				c0.2,0.6,0.4,1.2,0.6,1.8c8,22.5,10.8,46.4,8.2,70.1l9.4-12.9l2.5,8.9l5.8-5.7c2,2,3.6,4.4,4.7,7c0.8-2.5,1.5-4.9,2.3-7.3
				c3.7,1.6,6.3,5.1,6.7,9.1c2-5.1,4-10.3,6.1-15.4c3.3,3.6,5.9,7.8,7.6,12.4c-0.4-3.6,0.3-7.1,2.2-10.2c3.9,2,6.9,5.3,8.7,9.2
				c0.7-11.5,1.4-22.9,2.1-34.4c0.3-5.6,0.7-11.1,1-16.7c0.1-1.8,0.2-3.6,0.3-5.4c1.2,2,2.3,4,3.4,6c2.5,4.9,4.6,10.1,6.3,15.4
				c2.3,7.3,3.6,14.9,4,22.5c1.2-3.9,3.7-7.2,7.1-9.5c4,5,6.3,11.2,6.6,17.6c0.8-4.6,1.6-9.1,2.4-13.7c5.4-0.5,10.5,5,9.5,10.4
				l5.2-11.1c4,4.7,6.2,10.7,6.2,16.9c2.9-12.7,7.5-25,13.8-36.5c0.9-1.6,1.8-3.2,2.7-4.8c1.8-2.9,3.6-5.8,5.6-8.6c1.5,3,3,6,4.3,9
				c0.5,1.1,1,2.3,1.5,3.4c5.2,12.7,8.7,26,10.4,39.6c2-3.8,4.9-7.1,8.4-9.6c4.6,4.4,7.6,10.2,8.5,16.5c0.1-4.3,1.1-8.6,3.1-12.4
				l1.2,1.1c0.6,0.6,1.2,1.2,1.8,1.9c1.9,2.1,3.7,4.4,5.1,6.9l0.1,0.1l0,0c0.1,0.2,0.2,0.3,0.3,0.5c0.3,0.5,0.5,1,0.8,1.5
				c0,0,0,0.1,0.1,0.1l0.2,0.5c0.2,0.4,0.4,0.8,0.5,1.1c0,0,0,0,0,0.1c0,0,0,0,0-0.1c-0.2-0.5-0.3-1.1-0.3-1.7c0-0.1,0-0.2,0-0.4
				l0,0c0-0.3,0-0.5,0-0.8c0-0.8,0.2-1.6,0.4-2.4c0-0.2,0.1-0.3,0.2-0.5l0,0c0.2-0.6,0.5-1.2,0.9-1.8l0.4,0.4
				c0.1,0.1,0.2,0.2,0.3,0.3c0,0,0.1,0.1,0.1,0.1c1.5,1.6,2.7,3.4,3.6,5.4l0,0c0.1,0.2,0.2,0.4,0.3,0.7c1.1,2.5,1.7,5.2,1.8,8
				c3-3.9,6.6-7.3,10.6-10.1c1.2,4.8,2.3,9.6,3.5,14.3c1.9-3.5,4.4-7.5,8.4-7.7c4.3-0.2,7.3,4.6,7.5,8.9c0,1.1,0,2.2-0.2,3.3
				c-0.5,3.2-1.5,6.3-2,9.4c-1.6,11.2,4.4,21.9,8,32.7C489,980.5,487.9,989.8,483.2,996.7z"/>
			<path class="st10" d="M482.5,839.9c-26.2,32.8-57.9,86.9-59.9,158.7c0,0.6-0.5,1.1-1.1,1.1c0,0,0,0-0.1,0c-0.2,0-0.3-0.1-0.5-0.1
				c-0.4-0.2-0.6-0.6-0.6-1c2-72.4,34-126.9,60.5-160L482.5,839.9z"/>
			<path class="st10" d="M430.6,925.6c1.8,8.5,1.1,18.2-2.3,18.9s-8.1-8.2-10-16.7s-0.1-13.3,3.3-13.9S428.8,917.1,430.6,925.6z"/>
			<path class="st10" d="M438.9,928.7c-6.9,5.2-12.7,13-10.5,15.7s11.5-0.8,18.3-5.9s8.7-10,6.5-12.7S445.8,923.6,438.9,928.7z"/>
			<path class="st10" d="M429.6,932.9c1.2,5.4,0.7,11.6-1.4,12s-5.2-5.2-6.4-10.6s0-8.5,2.1-8.9S428.5,927.6,429.6,932.9z"/>
			<path class="st10" d="M434.9,934.9c-4.4,3.3-8.1,8.3-6.7,10s7.3-0.5,11.6-3.8s5.5-6.4,4.2-8.1S439.3,931.7,434.9,934.9z"/>
			<path class="st10" d="M443.4,893.2c1,7.8-0.4,16.5-3.5,16.8s-6.7-8-7.7-15.7s1-12,4.1-12.3S442.4,885.5,443.4,893.2z"/>
			<path class="st10" d="M450.7,896.7c-6.6,4.1-12.5,10.7-10.8,13.3s10.4,0.2,17-4s8.6-8.3,6.9-11S457.3,892.6,450.7,896.7z"/>
			<path class="st10" d="M441.9,899.8c0.6,4.9-0.3,10.5-2.2,10.7s-4.3-5.1-4.9-10s0.6-7.6,2.6-7.8S441.3,894.8,441.9,899.8z"/>
			<path class="st10" d="M446.6,902c-4.2,2.6-8,6.8-6.9,8.5s6.6,0.1,10.8-2.5s5.5-5.3,4.4-7S450.8,899.3,446.6,902z"/>
			<path class="st10" d="M458.9,864c0.5,7-1.1,14.7-3.9,14.8s-5.6-7.4-6.2-14.4s1.4-10.7,4.2-10.8S458.4,857,458.9,864z"/>
			<path class="st10" d="M465.3,867.4c-6.1,3.4-11.7,9.1-10.2,11.5s9.3,0.6,15.4-2.8c6.1-3.4,8.1-7.1,6.7-9.5S471.4,864,465.3,867.4
				z"/>
			<path class="st10" d="M477.1,840.7c-0.9,6-3.9,12.4-6.4,11.9s-3.4-7.4-2.5-13.5s3.4-8.8,5.8-8.4
				C476.6,831.2,478.1,834.6,477.1,840.7z"/>
			<path class="st10" d="M481.9,844.8c-6,1.7-11.9,5.5-11.2,7.8s8,2.3,13.9,0.6s8.5-4.5,7.7-6.8S487.9,843,481.9,844.8z"/>
			<path class="st10" d="M701.3,824.7c26.2,32.8,57.9,86.9,59.9,158.6c0,0.6,0.5,1.1,1.1,1.1c0,0,0,0,0.1,0c0.2,0,0.3-0.1,0.5-0.1
				c0.4-0.2,0.6-0.6,0.6-1c-2-72.3-34-126.9-60.5-160L701.3,824.7z"/>
			<path class="st10" d="M753.2,910.3c-1.8,8.5-1.1,18.2,2.2,18.9s8.1-8.2,10-16.7s0.1-13.3-3.3-13.9S755,901.9,753.2,910.3z"/>
			<path class="st10" d="M744.9,913.5c6.9,5.2,12.7,13,10.5,15.7s-11.5-0.8-18.3-5.9s-8.7-10-6.5-12.7S738,908.3,744.9,913.5z"/>
			<path class="st10" d="M754.2,917.7c-1.2,5.4-0.7,11.6,1.4,12s5.2-5.2,6.3-10.6s0-8.5-2.1-8.9S755.4,912.3,754.2,917.7z"/>
			<path class="st10" d="M748.9,919.7c4.4,3.3,8.1,8.3,6.7,10s-7.3-0.5-11.7-3.8s-5.5-6.4-4.2-8.1S744.6,916.4,748.9,919.7z"/>
			<path class="st10" d="M740.4,878c-1,7.8,0.4,16.5,3.5,16.8s6.7-8,7.7-15.7s-1-12-4.1-12.3S741.4,870.2,740.4,878z"/>
			<path class="st10" d="M733.2,881.4c6.6,4.1,12.5,10.8,10.8,13.3s-10.4,0.2-17-4s-8.7-8.4-6.9-11S726.5,877.3,733.2,881.4z"/>
			<path class="st10" d="M741.9,884.5c-0.6,4.9,0.3,10.5,2.2,10.7s4.3-5.1,4.9-10s-0.7-7.6-2.6-7.8S742.5,879.6,741.9,884.5z"/>
			<path class="st10" d="M737.3,886.7c4.2,2.6,8,6.8,6.8,8.5s-6.6,0.1-10.8-2.5s-5.5-5.3-4.4-7S733.1,884,737.3,886.7z"/>
			<path class="st10" d="M724.9,848.7c-0.5,6.9,1.1,14.7,3.9,14.8s5.7-7.4,6.2-14.4s-1.4-10.7-4.2-10.8S725.5,841.8,724.9,848.7z"/>
			<path class="st10" d="M718.6,852.1c6.1,3.4,11.7,9.1,10.2,11.5s-9.3,0.6-15.4-2.8s-8.1-7.1-6.7-9.5S712.5,848.7,718.6,852.1z"/>
			<path class="st10" d="M706.7,825.4c0.9,6,3.9,12.4,6.4,11.9s3.4-7.4,2.5-13.5s-3.4-8.8-5.8-8.4S705.8,819.4,706.7,825.4z"/>
			<path class="st10" d="M701.9,829.5c6,1.7,11.9,5.5,11.2,7.8s-8,2.3-13.9,0.6s-8.5-4.5-7.7-6.8S695.9,827.8,701.9,829.5z"/>
			<path class="st10" d="M758.8,767c12.9,40,23.2,101.8-0.4,169.6c-0.2,0.6,0.1,1.2,0.7,1.4c0,0,0,0,0,0c0.2,0,0.3,0,0.5,0
				c0.4,0,0.8-0.3,1-0.8c23.8-68.3,13.3-130.7,0.3-171L758.8,767z"/>
			<path class="st10" d="M776.9,865.6c-4.7,7.2-7.5,16.7-4.6,18.4s10.5-4.8,15.2-12s4.8-12.5,1.9-14.2S781.6,858.3,776.9,865.6z"/>
			<path class="st10" d="M768,865.5c4.6,7.3,7.2,16.7,4.3,18.4s-10.4-4.8-15-12.1s-4.6-12.5-1.6-14.2S763.4,858.3,768,865.5z"/>
			<path class="st10" d="M775.2,872.8c-3,4.6-4.8,10.6-2.9,11.7s6.7-3,9.7-7.6s3.1-7.9,1.2-9S778.2,868.2,775.2,872.8z"/>
			<path class="st10" d="M769.6,872.8c2.9,4.6,4.6,10.6,2.7,11.7s-6.6-3.1-9.5-7.7s-2.9-7.9-1-9S766.7,868.2,769.6,872.8z"/>
			<path class="st10" d="M776.4,830.8c-3.7,6.9-5.5,15.6-2.7,17s9.1-5.1,12.8-12s3.3-11.6,0.5-13S780.1,823.9,776.4,830.8z"/>
			<path class="st10" d="M768.4,831.4c4.7,6.2,7.9,14.5,5.3,16.3s-9.8-3.6-14.5-9.8s-5.1-10.9-2.6-12.7S763.7,825.2,768.4,831.4z"/>
			<path class="st10" d="M775.5,837.4c-2.3,4.4-3.5,9.9-1.7,10.8s5.8-3.2,8.1-7.6s2.1-7.4,0.3-8.2S777.8,833,775.5,837.4z"/>
			<path class="st10" d="M770.4,837.8c3,4,5,9.2,3.4,10.4s-6.2-2.3-9.2-6.2s-3.2-6.9-1.7-8.1S767.4,833.9,770.4,837.8z"/>
			<path class="st10" d="M772.3,797.9c-3,6.3-4.2,14.1-1.7,15.2s7.9-4.9,10.9-11.2s2.5-10.5-0.1-11.6S775.3,791.6,772.3,797.9z"/>
			<path class="st10" d="M765.2,798.8c4.5,5.3,7.7,12.6,5.5,14.3s-8.9-2.8-13.4-8.1s-5-9.5-2.9-11.2S760.7,793.5,765.2,798.8z"/>
			<path class="st10" d="M763.6,769.7c-1.3,6-0.7,13,1.7,13.4s5.8-5.7,7.1-11.7s0-9.5-2.5-9.9S764.9,763.7,763.6,769.7z"/>
			<path class="st10" d="M757.6,771.8c5,3.7,9.2,9.4,7.7,11.3s-8.2-0.7-13.2-4.4s-6.3-7.2-4.8-9.1S752.7,768,757.6,771.8z"/>
			<path class="st10" d="M1351.1,779c2.3,41.9-3.3,104.4-43.3,164c-0.3,0.5-0.2,1.2,0.3,1.5c0,0,0,0,0.1,0c0.1,0.1,0.3,0.2,0.5,0.2
				c0.4,0.1,0.9-0.1,1.1-0.5c40.4-60.1,46-123.1,43.7-165.4L1351.1,779z"/>
			<path class="st10" d="M1343.7,878.9c-6.4,5.8-11.5,14.2-9.1,16.7s11.4-2,17.8-7.8s7.8-10.8,5.4-13.3S1350.1,873.1,1343.7,878.9z"
				/>
			<path class="st10" d="M1335.1,876.7c2.6,8.2,2.8,18-0.5,18.9s-8.9-7.3-11.5-15.5s-1.2-13.2,2.1-14.2S1332.5,868.5,1335.1,876.7z"
				/>
			<path class="st10" d="M1340.2,885.5c-4.1,3.7-7.3,9-5.8,10.6s7.2-1.2,11.3-4.9s5-6.9,3.4-8.5S1344.3,881.8,1340.2,885.5z"/>
			<path class="st10" d="M1334.8,884c1.7,5.2,1.8,11.4-0.4,12s-5.6-4.6-7.3-9.8s-0.8-8.4,1.3-9S1333.1,878.9,1334.8,884z"/>
			<path class="st10" d="M1352.1,845.2c-5.3,5.7-9.2,13.7-6.9,15.7s10.1-2.6,15.4-8.3s6.2-10.3,3.8-12.4S1357.4,839.4,1352.1,845.2z
				"/>
			<path class="st10" d="M1344.2,843.8c3,7.2,3.9,16,1,17.1s-8.6-5.9-11.6-13.1s-2.2-11.8,0.7-12.9S1341.2,836.6,1344.2,843.8z"/>
			<path class="st10" d="M1349.5,851.3c-3.4,3.6-5.9,8.7-4.4,10s6.4-1.7,9.8-5.3s3.9-6.6,2.4-7.9S1352.8,847.7,1349.5,851.3z"/>
			<path class="st10" d="M1344.5,850.5c1.9,4.6,2.5,10.2,0.6,10.9s-5.5-3.8-7.4-8.3s-1.4-7.5,0.4-8.2S1342.5,845.9,1344.5,850.5z"/>
			<path class="st10" d="M1356.4,812.4c-4.5,5.3-7.7,12.6-5.4,14.3s8.9-2.8,13.4-8.1s5-9.5,2.8-11.2S1360.9,807,1356.4,812.4z"/>
			<path class="st10" d="M1349.3,811.4c3,6.3,4.2,14.2,1.7,15.2s-7.9-4.9-10.9-11.2s-2.5-10.5,0.1-11.6S1346.3,805.1,1349.3,811.4z"
				/>
			<path class="st10" d="M1355.1,782.8c-2.8,5.5-4,12.3-1.8,13.4s7.1-4.1,9.8-9.5s2.4-9.2,0.1-10.2S1357.9,777.3,1355.1,782.8z"/>
			<path class="st10" d="M1348.8,783.4c3.9,4.9,6.5,11.4,4.6,12.8s-7.8-2.8-11.7-7.6s-4.3-8.6-2.3-10S1344.9,778.5,1348.8,783.4z"/>
			<path class="st10" d="M1416.4,860.8c2.7-22.6,9.3-46,25.7-61.8c1.7-1.6,4.6-3.1,6-1.3c0.6,1,0.8,2.2,0.5,3.3
				c-3,20.2-18.3,36.3-24.3,55.8c-7.5,24.2,2.4,57.3-13.9,78.4c-6.7-2,1.7-24.8,2.3-31C1414.3,889.8,1414.7,875.2,1416.4,860.8z"/>
			<path class="st10" d="M1442.6,835.4c4.5-4.2,9.8-8.2,16-8.2c2,0,4.4,0.9,4.6,2.9c0.1,1.5-1.2,2.7-2.4,3.7
				c-12.1,9.7-26.2,24.5-40.4,30.5C1424.1,853.5,1434.3,843,1442.6,835.4z"/>
			<path class="st10" d="M1408.4,873.6c-4.1-7.9-9.1-15.8-10-24.7c-0.4-4.5,0.7-9.9,4.8-11.7c3.4,1.9,5.1,5.9,5.7,9.7
				s0.3,7.8,0.9,11.6c1,7,4.8,13.3,7,20c1.8,5.7,2.9,14.5-2.2,18.6C1414.5,888.5,1412.3,881.2,1408.4,873.6z"/>
			<path class="st10" d="M1412.4,800.8c-0.5-4.3-0.2-9.2,2.7-12.5c0.4-0.6,1-0.9,1.7-1c1.2-0.1,2,1.1,2.5,2.2
				c4.7,10.7,0.1,23.5,3.2,34.8c0.9,3.3,2.4,6.4,3,9.8c0.4,2.6,0.5,8.3-3.4,6.3c-1.9-1-2.4-10.8-2.9-12.9
				C1417.1,818.6,1413.4,810,1412.4,800.8z"/>
			<path class="st10" d="M1765.1,852.2c-4.6-22.3-5.8-46.5,4.7-66.7c1.1-2.1,3.4-4.4,5.3-3.1c0.9,0.8,1.4,1.8,1.5,3
				c3.6,20.1-5.8,40.3-5.3,60.6c0.6,25.4,20.4,53.6,11.7,78.7c-7,0.2-6.3-24-7.6-30.1C1772.3,880.4,1768,866.4,1765.1,852.2z"/>
			<path class="st10" d="M1781.8,819.8c2.9-5.4,6.7-10.9,12.5-12.8c1.9-0.7,4.5-0.6,5.3,1.3c0.6,1.4-0.3,3-1.1,4.2
				c-8.4,13-17.1,31.6-28.6,41.7C1770,842.8,1776.4,829.7,1781.8,819.8z"/>
			<path class="st10" d="M1761.5,866.8c-6.4-6.2-13.6-12.1-17.3-20.3c-1.8-4.1-2.4-9.6,0.9-12.6c3.8,0.7,6.7,3.9,8.5,7.4
				s2.8,7.3,4.5,10.7c3.2,6.3,8.7,11.1,12.9,16.8c3.6,4.8,7.3,12.8,3.8,18.4C1772.1,879.4,1767.5,872.4,1761.5,866.8z"/>
			<path class="st10" d="M1742.2,796.6c-1.8-4-3.1-8.7-1.3-12.7c0.2-0.7,0.7-1.2,1.3-1.5c1.1-0.5,2.3,0.4,3.1,1.3
				c7.8,8.7,7.6,22.2,14.1,31.9c1.9,2.8,4.4,5.3,6,8.4c1.2,2.3,3.1,7.7-1.2,7.1c-2.1-0.3-5.7-9.5-6.9-11.3
				C1752.3,812,1746.1,805,1742.2,796.6z"/>
			<path class="st10" d="M898,860.3c2.6,4.6,3.9,9.7,3.8,15l4.1-7.6c2.1,5.3,2.8,11.4,4.3,16.7c1.1-0.2,10.1-4.3,9.4-5.6
				c4.2,6.8,7.1,14.4,8.6,22.2l4.6-11.7c8.3,2,13.6,12.1,10.4,20l2.2-9.6c2.4,7.6,3.9,15.4,4.4,23.4c2.6-10.6,8.2-24.1,17.2-31.1
				c3.6,9.2,5.4,18.9,5.3,28.8l7-11.1c3.9,4.2,6.2,9.6,6.6,15.3l4.5-9.2c2.9,1.4,4.9,4.3,5.3,7.5l4.6-6.2l6.4,8
				c-8.4-10.6,14.1-68.9,19.8-79.6c9.6,18.2,9.2,43.3,6.7,63.2l7.7-5.6l23.2,5.5l6.6-9.1l6.4,6.9c0.6-4.6,9-4.7,9.7-0.1
				c0.2-16.5,1.3-34.4,7.9-49.7c6.4,11.2,10.3,23.5,11.6,36.3c4.4-3.1,11.5-0.3,12.6,5c2.2-5.2,11.7-3.7,12.3,1.9l5.6-5.4
				c3.2,3,5.2,7,5.8,11.3c-2.2-16,10.5-34,24.6-40.5c7.4,12,6.2,28.4,15.5,39.1c8,9.2,21.2,11.1,32.8,15
				c34.6,11.6,32.9,38.9,34.1,69.8c0.9,21.3-6.3,31.4-29.3,32.7c-72.5,4.2-145.2-1.8-217.8-0.6c-41,0.7-82,3.7-122.9,0.3
				c-47.4-4-84.7-19.2-128.4-35.7c-9.4-3.6-19.7-7.2-29.4-4.4c-5.4,1.6-11.2,5.1-16.2,2.5c-3.6-1.9-5-6.2-7.4-9.5
				c-7.9-10.8-24.3-9.2-37.3-5.9c-9.5,2.4-20.6,5-30.2,1.5c-4.6-1.7-7.3-4.6-12-5.8c-5.3-1.3-10-4.2-15.1-5.9
				c-3.7-1.1-7.6-1.9-11.4-2.5c-16.6-2.6-33.4-5.2-50.1-3.9c-3.8,0.3-8,0.7-10.9-1.8c-1.2-1.2-2.2-2.6-2.9-4.1
				c-2.1-3.9-4.2-8-3.9-12.4c0.3-4.6,3.5-8.6,7.2-11.2c1.5,1.1,2.9,2.4,4,3.9c2-2.3,3.8-4.8,5.2-7.5c3.3,2.1,5.5,5.5,6.1,9.3
				c0.4-3.1,2.7-5.7,5.7-6.5l2.3,5.8c0.6-2.4,1.1-4.7,1.7-7c0.2-1,0.8-1.8,1.7-2.2c1.5-0.4,2.7,1.1,3.4,2.5c1.1,2.4,1.9,4.9,2.2,7.5
				c0.3,0.3,0.7-0.1,0.8-0.4c2.8-5.3,0.9-25.4,10.2-25.1c3.1,0.1,5.3,3.4,5.9,6.4s0.3,6.3,1.4,9.3c0-4.5,1.8-8.8,4.8-12.1
				c3.9,3.4,6.1,8.4,6,13.6c1.1-5,2.9-9.8,5.2-14.4c1.7-3.4,4.6-7,8.3-6.6s5.8,4.5,6.5,8.2s0.7,7.7,3.1,10.6
				c0.9-1.7,2.3-3.1,4.1-3.9c0.8,1.1,1.4,2.3,1.8,3.5l0.1-4.6c1.5,0.7,2.8,1.8,3.8,3.2l0.7-16c-0.1-1.7,0.3-3.5,1.1-5
				c1.4-2.3,4.6-3.1,7.2-2.5c2.6,0.8,5,2.3,6.8,4.3c5.5,5.2,9.7,11.6,12.2,18.7c-0.3-2.3,0.3-4.6,1.8-6.3c2.2,1.4,4,3.5,5,6
				c-0.4-4.3-0.2-8.6,0.5-12.8c0.1-1.3,0.6-2.5,1.3-3.5c1.4-1.8,4-2.3,6.2-1.8c2.4,0.5,10.2,5.1,9.7,8.4c0.5-3.2,0.3-13.6,5-14.2
				c1.8-0.2,3.4,1.2,4.6,2.7c3.4,4.4,5.5,9.7,5.9,15.3c0.7-4.6,1.5-9.2,3.3-13.5c1-2.4,3.1-5,5.7-4.5c1.5,0.5,2.7,1.5,3.4,2.9
				c1.9,3.2,2.9,6.9,2.7,10.6c1.3-1.7,2.8-3.1,4.6-4.2l2.3,2.3c0.1-1.7,1.2-3.1,2.7-3.8c3.8-1.3,6.1,5.5,6.5,8.2l4.7-10.7
				c6.1,2.6,11,7.3,13.8,13.3c1.3-6.6,1.6-13,4.3-19.2c0.9-2.1,2.2-4.5,4.5-4.6c1.3,0,2.5,0.7,3.2,1.7c0.7,1,1.3,2.2,1.6,3.4
				l3.1,8.8l6.7-15.8c4.5-10.5,7.2-22.5,17.1-29.2l0.8-0.5c1.6-1.1,3.4-1.7,5.4-1.8c3.5,0.1,6.1,2.9,8.1,5.8
				c6.1,8.5,9.9,18.4,11.3,28.8c1-3.6,2.1-7.3,4.4-10.2s6.3-4.9,9.8-3.7c4.5,1.4,6.6,7,10.8,9.1c3,1.5,6.8,1,9.8-0.6
				c8.4-4.3,10.5-14.4,13.4-22.8c3.5-10.4,6.7-21.1,11.8-30.9c2.2-4.2,8-8.6,10.8-4.8c0.8,1.3,1.1,2.8,0.9,4.3l0.3,40.1l5.9-10.9
				l4.2,10.5C893.3,864.3,895.3,861.9,898,860.3L898,860.3z"/>
			<path class="st10" d="M1920.9,908.2v101.5c-1.4,0.2-2.8,0.4-4.2,0.5c-72.3,6.8-145.2,3.4-217.7,7.3c-40.9,2.2-81.8,6.7-122.8,4.8
				c-10.1-0.5-20.1-1.5-30.1-3.1c-34.4-5.4-64.9-16.4-99.5-28c-9.6-3.2-19.9-6.4-29.5-3.3c-5.4,1.8-11.1,5.5-16.2,3
				c-3.7-1.8-5.3-6-7.8-9.2c-8.3-10.5-24.6-8.3-37.5-4.5s-28.6,7.2-38.2-2.2c-6.7-6.5-7.9-17.5-15.1-23.3
				c-7.8-6.3-19.3-4.3-29.2-6.2c-3.3-0.7-6.4-2.3-8.9-4.6c-5.4-4.8-8.2-12-3.2-16.6l9.9-2.2c1.3,3.9,2.7,7.9,4,11.9
				c-0.3-8.6,5.1-16.4,13.2-19.2c5.6,1.2,10.3,4.8,12.8,9.9c1.3-2.7,2.7-5.5,4-8.3c5.6,0.6,11.1,1.7,16.5,3.4
				c0.8,0.2,1.5,0.5,2.2,0.7c14.6,4.8,27.8,13.2,38.3,24.5c-4.8-12.7-6.7-26.4-5.4-40c5.9,0.2,11.3,3.4,14.2,8.6
				c0.8-5.9,1.6-11.8,2.4-17.7c5.7,5.9,11.4,11.7,17.1,17.6l-2.8-15.9l14.5,11.4c0.4-3.2,6.4,0.2,4.2,2.2c2.2-1.8,3.5-4.4,3.7-7.2
				c0.9,0.4,1.8,0.9,2.6,1.5c2.7,2,4.5,4.9,5.1,8.1c0.8-1.9,1.5-3.9,2.3-5.8l0,0l2-5.1c6.2,2.4,11.3,6.9,14.3,12.8
				c1.6-10.2,2.3-20.6,2.1-30.9c8.3,14.8,14,30.9,16.8,47.6l8.9-72.2c0.3-2.7,0.7-5.4,1.2-8.1c2-11.9,5.6-23.8,15.2-30.4
				c11.7,14.4,8,31.5,9.8,48.5c1.1-7.5,3.2-14.9,6.3-21.9l5.5,24.4l7.3-14c5.1,5.9,8.5,13,9.9,20.7c0.1-5.1,2.5-10,6.5-13.2
				c4.2,2.8,7.7,6.5,10.2,10.9c0.8-5.4,2.7-10.6,5.7-15.3l5,11.4c2-13.6,5.5-26.9,10.4-39.8c2.3-5.9,7.8-12.9,13.4-9.9
				c1.3,15.5,2,31,2.1,46.6l5.8-13.7l4.6,12.6c0.7-3.6,2.7-6.8,5.7-8.9c3,5,4.4,10.8,4.1,16.6c1.3-3.3,2.7-6.6,4-9.9
				c2.6,6.5,3.8,13.4,3.7,20.4l10.5-8.8c4.4,6.7,7.6,14.1,9.4,21.9c1.4-3.9,2.8-7.9,4.2-11.8c7,1.4,12.1,8.5,11.9,15.5
				c0.3-1.9,0.7-3.7,1-5.6c1.1,3.1,2.1,6.2,2.9,9.4c1.1,4.5,2,9.1,2.4,13.8c1-4.8,2.4-9.5,4.2-14c2.8-6.8,6.7-13.4,11.8-17.7
				c3.9,9,6.1,18.7,6.4,28.5c2.1-3.6,4.2-7.2,6.3-10.8l0.3-0.5l0.5,0.5c3.7,4,6.1,9.1,6.7,14.5l4.1-9.3c3,1.3,5.1,4.1,5.5,7.3
				l4.3-6.4l6.7,7.8c1.9-4,3.4-8.1,4.5-12.3c6.5-23.7,3.1-50.3,11.6-73.7c8.5,23,11.5,47.6,8.9,71.9l9.4-12.9l2.6,8.9l5.8-5.7
				c2,2,3.6,4.4,4.7,7c0.8-2.5,1.6-4.9,2.3-7.3c3.7,1.6,6.3,5.1,6.7,9.1l6.1-15.4c3.3,3.6,5.9,7.8,7.7,12.4
				c-0.4-3.6,0.3-7.1,2.2-10.2c1.3,0.7,2.5,1.5,3.6,2.4c2.2,1.9,3.9,4.2,5.1,6.8c0.3-4.7,0.6-9.4,0.8-14.2
				c0.8-14.1,1.7-28.2,2.5-42.3c8.2,13.3,12.9,28.4,13.7,43.9c1.2-3.9,3.7-7.2,7.1-9.5c3.9,5,6.2,11.1,6.5,17.4
				c0.8-4.6,1.6-9.1,2.4-13.7c5.4-0.5,10.5,5,9.5,10.4l5.2-11.1c4,4.7,6.2,10.7,6.2,16.9c4-17.9,11.5-34.8,22.1-49.8
				c8.4,16.2,13.9,33.8,16.2,52c2-3.8,4.9-7.1,8.4-9.6c4.6,4.4,7.6,10.2,8.5,16.5c0.1-4.3,1.1-8.6,3.2-12.4
				c4.3,3.8,7.7,8.5,10.1,13.7c-0.8-2.6-0.4-5.3,1.1-7.5c4,3.9,6.3,9.2,6.4,14.8C1913.3,914.4,1916.9,911,1920.9,908.2z"/>
			<path class="st11" d="M1920.9,934.9v145.2H0.9V976.7C0.3,971.8,0,966.9,0,962c0-7.2,0.5-14.8,0.9-21.7v-22.7l0.7,0.1
				c59.9,11,120.6,20.6,181.2,15.1c57-5.2,112.6-23.8,169.8-23.6c22.3,0.1,44.3,3,66.2,6.8c2.9,0.5,5.9,1,8.8,1.5l7.7,1.4l2.3,0.4
				c13.9,2.6,27.7,5.3,41.6,7.6c15,2.6,30.2,4.4,45.4,5.4c2.1,0.1,4.2,0.2,6.4,0.3c63.5,2.5,126.5-16.1,190-13.2
				c2,0.1,4,0.2,6.1,0.3c2.3,0.1,4.6,0.3,6.8,0.5l0,0c1.9,0.2,3.8,0.4,5.7,0.6c4.2,0.4,8.3,0.9,12.4,1.5h0.1h0.2l1.2,0.2h0.3
				l0.6,0.1c2,0.3,4,0.6,6,0.9l0.7,0.1l1.2,0.2l2.3,0.4c49.6,8.1,98.6,22.8,148.8,21.2c22.1-0.7,43.8-4.6,65.4-9.1
				c28.2-5.9,56.2-13,84.8-16c59.1-6,117.8,6.1,176.7,16.5l2.9,0.5c7,1.2,14,2.4,21,3.5c29.6,4.8,59.3,8.5,89.1,8.5
				c95.1,0.1,186.8-36.5,281.7-41.5c1.7-0.1,3.4-0.2,5.2-0.2c2.2-0.1,4.5-0.2,6.7-0.2c5.7-0.1,11.4-0.2,17.1-0.1
				c2.5,0,4.9,0,7.4,0.1h0.8c10.6,0.3,21.3,0.8,31.9,1.6c24.6,1.8,49.2,4.8,73.8,7.8l6.2,0.8l0.5,0.1L1920.9,934.9z"/>
			<path class="st12" d="M1920.9,978.7v101.3H0.9V976.7C0.3,971.8,0,966.9,0,962l0.9,0.2c26,5.6,71.1,15.8,76.5,16.9
				c34.5,6.8,70,6.8,104.5-0.2c45.8-9.4,89.7-30.9,136.4-30.4c36,0.4,69.8,13.7,103.6,27l2.2,0.9c11.4,4.5,22.7,8.9,34.2,12.8
				c8.2,2.8,16.5,5.3,24.8,7.6c79,21.5,160.9,19.7,243.9,11.8c21.9-2.1,43.9-4.6,65.9-7.3l0,0c100.2-12,201.2-26.3,299.8-12.8
				c48.1,6.6,95,19.7,142.4,30.6l0,0c2.8,0.6,5.5,1.3,8.3,1.9c15.6,3.5,31.3,6.7,47.1,9.3c57.5,9.5,116.1,10.9,174,4.1
				c11.7-1.3,23.3-3,34.8-5.1c15.8-2.8,31.4-6.1,47-9.8c54.4-13,107.8-30.4,162.6-41.8C1781.5,962.3,1850.4,969.3,1920.9,978.7z"/>
			<path class="st1" d="M1920.9,934.9v145.2H0.9V976.7C0.3,971.8,0,966.9,0,962c0-7.2,0.5-14.8,0.9-21.7v-22.7l0.7,0.1
				c59.9,11,120.6,20.6,181.2,15.1c57-5.2,112.6-23.8,169.8-23.6c22.3,0.1,44.3,3,66.2,6.8c2.9,0.5,5.9,1,8.8,1.5l7.7,1.4l2.3,0.4
				c13.9,2.6,27.7,5.3,41.6,7.6c15,2.6,30.2,4.4,45.4,5.4c2.1,0.1,4.2,0.2,6.4,0.3c63.5,2.5,126.5-16.1,190-13.2
				c2,0.1,4,0.2,6.1,0.3c2.3,0.1,4.6,0.3,6.8,0.5l0,0c1.9,0.2,3.8,0.4,5.7,0.6c4.2,0.4,8.3,0.9,12.4,1.5h0.1h0.2l1.2,0.2h0.3
				l0.6,0.1c2,0.3,4,0.6,6,0.9l0.7,0.1l1.2,0.2l2.3,0.4c49.6,8.1,98.6,22.8,148.8,21.2c22.1-0.7,43.8-4.6,65.4-9.1
				c28.2-5.9,56.2-13,84.8-16c59.1-6,117.8,6.1,176.7,16.5l2.9,0.5c7,1.2,14,2.4,21,3.5c29.6,4.8,59.3,8.5,89.1,8.5
				c95.1,0.1,186.8-36.5,281.7-41.5c1.7-0.1,3.4-0.2,5.2-0.2c2.2-0.1,4.5-0.2,6.7-0.2c5.7-0.1,11.4-0.2,17.1-0.1
				c2.5,0,4.9,0,7.4,0.1h0.8c10.6,0.3,21.3,0.8,31.9,1.6c24.6,1.8,49.2,4.8,73.8,7.8l6.2,0.8l0.5,0.1L1920.9,934.9z"/>
		</g>
		<g id="bubbles">
			<g class="st13">
				<path class="st14" d="M1183,248.5c-0.8,1.2-1.3,2.7-1.2,4.2c0,0.9,0.1,1.8,0.3,2.6c0.4,1.1,1.1,2.1,2.1,2.8
					c1.2,0.8,2.6,1.2,4,1.1c2.7-0.2,4.9-2,5.7-4.6C1196,248.1,1187.4,242.5,1183,248.5z"/>
				<path class="st14" d="M955.9,244.2c-0.8,1.2-1.3,2.7-1.2,4.2c0,0.9,0.1,1.8,0.3,2.6c0.4,1.1,1.1,2.1,2.1,2.8
					c1.2,0.8,2.6,1.2,4,1.1c2.7-0.2,4.9-2,5.7-4.6C968.9,243.8,960.4,238.2,955.9,244.2z"/>
				<path class="st14" d="M626.8,289.4c-0.8,1.2-1.3,2.7-1.2,4.2c0,0.9,0.1,1.8,0.3,2.6c0.4,1.1,1.1,2.1,2.1,2.8
					c1.2,0.8,2.6,1.2,4,1.1c2.7-0.2,4.9-2,5.7-4.6C639.8,289,631.2,283.3,626.8,289.4z"/>
				<path class="st14" d="M1224.6,224.4c-0.8,1.2-1.3,2.7-1.2,4.2c0,0.9,0.1,1.8,0.3,2.6c0.4,1.1,1.1,2.1,2.1,2.8
					c1.2,0.8,2.6,1.2,4,1.1c2.7-0.2,4.9-2,5.7-4.6C1237.7,224,1229.1,218.4,1224.6,224.4z"/>
				<path class="st14" d="M1292.1,279.6c-0.6,0.8-0.9,1.8-0.8,2.9c0,0.6,0.1,1.2,0.2,1.8c0.3,0.8,0.8,1.4,1.4,1.9
					c0.8,0.6,1.7,0.8,2.7,0.8c1.8-0.2,3.3-1.4,3.9-3.1C1300.9,279.3,1295.1,275.5,1292.1,279.6z"/>
				<path class="st14" d="M963.7,264.6c-0.8,1.4-1.1,3.1-0.6,4.6c0.3,0.8,0.8,1.4,1.4,1.9c0.8,0.6,1.7,0.8,2.7,0.8
					c1.8-0.2,3.3-1.4,3.9-3.1C972.6,264.3,966.8,260.5,963.7,264.6z"/>
				<path class="st14" d="M1188.2,209.6c-0.6,0.8-0.9,1.9-0.8,2.9c0,0.6,0.1,1.2,0.2,1.8c0.3,0.8,0.8,1.4,1.4,1.9
					c0.8,0.6,1.7,0.8,2.7,0.8c1.8-0.2,3.3-1.4,3.9-3.1C1197.1,209.4,1191.3,205.5,1188.2,209.6z"/>
				<path class="st14" d="M972.7,300.8c-0.6,0.8-0.9,1.9-0.8,2.9c0,0.6,0.1,1.2,0.2,1.8c0.3,0.8,0.8,1.4,1.4,1.9
					c0.8,0.6,1.7,0.8,2.7,0.8c1.8-0.2,3.3-1.4,3.9-3.1C981.6,300.5,975.7,296.7,972.7,300.8z"/>
				<path class="st14" d="M882.4,222.9c-0.6,0.8-0.9,1.8-0.8,2.9c0,0.6,0.1,1.2,0.2,1.8c0.3,0.8,0.8,1.4,1.4,1.9
					c0.8,0.6,1.7,0.8,2.7,0.8c1.8-0.2,3.3-1.4,3.9-3.1C891.2,222.7,885.4,218.8,882.4,222.9z"/>
				<path class="st14" d="M743.1,309.9c-0.6,0.8-0.9,1.8-0.8,2.9c0,0.6,0.1,1.2,0.2,1.8c0.3,0.8,0.8,1.4,1.4,1.9
					c0.8,0.6,1.7,0.8,2.7,0.8c1.8-0.2,3.3-1.4,3.9-3.1C752,309.7,746.2,305.8,743.1,309.9z"/>
				<path class="st14" d="M1296.7,207.9c-0.6,0.8-0.9,1.8-0.8,2.9c0,0.6,0.1,1.2,0.2,1.8c0.3,0.8,0.8,1.4,1.4,1.9
					c0.8,0.6,1.7,0.8,2.7,0.8c1.8-0.2,3.3-1.4,3.9-3.1C1305.5,207.6,1299.7,203.8,1296.7,207.9z"/>
				<path class="st14" d="M858.9,291.5c-0.6,0.8-0.9,1.8-0.8,2.9c0,0.6,0.1,1.2,0.2,1.8c0.3,0.8,0.8,1.4,1.4,1.9
					c0.8,0.6,1.7,0.8,2.7,0.8c1.8-0.2,3.3-1.4,3.9-3.1C867.7,291.2,861.9,287.4,858.9,291.5z"/>
				<path class="st14" d="M642.1,271.5c-0.4,0.6-0.6,1.3-0.6,1.9c0,0.4,0,0.8,0.2,1.2c0.2,0.5,0.5,1,1,1.3c0.5,0.4,1.2,0.6,1.8,0.5
					c1.2-0.1,2.3-0.9,2.6-2.1C648.1,271.3,644.2,268.7,642.1,271.5z"/>
				<path class="st14" d="M624.1,263c-0.4,0.6-0.6,1.2-0.6,1.9c0,0.4,0,0.8,0.2,1.2c0.2,0.5,0.5,1,1,1.3c0.5,0.4,1.2,0.6,1.8,0.5
					c1.2-0.1,2.2-0.9,2.6-2.1C630.1,262.8,626.1,260.3,624.1,263z"/>
				<path class="st14" d="M719.1,285.3c-0.4,0.6-0.6,1.2-0.6,1.9c0,0.4,0,0.8,0.2,1.2c0.2,0.5,0.5,1,1,1.3c0.5,0.4,1.2,0.6,1.8,0.5
					c1.2-0.1,2.3-0.9,2.6-2.1C725,285.1,721.1,282.5,719.1,285.3z"/>
				<path class="st14" d="M725.9,275c-0.4,0.6-0.6,1.2-0.6,1.9c0,0.4,0,0.8,0.2,1.2c0.2,0.5,0.5,1,1,1.3c0.5,0.4,1.2,0.6,1.8,0.5
					c1.2-0.1,2.3-0.9,2.6-2.1C731.9,274.8,728,272.2,725.9,275z"/>
				<path class="st14" d="M1242.3,236.6c-0.6,0.8-0.9,1.8-0.8,2.9c0,0.6,0.1,1.2,0.2,1.8c0.3,0.8,0.8,1.4,1.4,1.9
					c0.8,0.6,1.7,0.8,2.7,0.8c1.8-0.2,3.3-1.4,3.9-3.1C1251.2,236.3,1245.3,232.5,1242.3,236.6z"/>
			</g>
			<path class="st15" d="M650.5,834.1c-0.6,0.8-0.9,1.9-0.8,2.9c0,0.6,0.1,1.2,0.2,1.8c0.3,0.8,0.8,1.4,1.4,1.9
				c0.8,0.6,1.7,0.8,2.7,0.8c1.8-0.2,3.3-1.4,3.9-3.1C659.4,833.8,653.6,830,650.5,834.1z"/>
			<path class="st15" d="M655.1,762.4c-0.6,0.8-0.9,1.8-0.8,2.9c0,0.6,0.1,1.2,0.2,1.8c0.3,0.8,0.8,1.4,1.4,1.9
				c0.8,0.6,1.7,0.8,2.7,0.8c1.8-0.2,3.3-1.4,3.9-3.1C663.9,762.1,658.1,758.3,655.1,762.4z"/>
			<path class="st15" d="M541.4,803c-0.8,1.2-1.3,2.7-1.2,4.2c0,0.9,0.1,1.8,0.3,2.6c0.4,1.1,1.1,2.1,2.1,2.8c1.2,0.8,2.6,1.2,4,1.2
				c2.7-0.2,4.9-2,5.7-4.6C554.4,802.6,545.9,797,541.4,803z"/>
			<path class="st15" d="M426.4,779.4c-0.8,1.2-1.3,2.7-1.2,4.2c0,0.9,0.1,1.8,0.4,2.6c0.4,1.1,1.1,2.1,2.1,2.8
				c1.2,0.8,2.6,1.2,4,1.1c2.7-0.2,4.9-2,5.7-4.6C439.4,779,430.9,773.4,426.4,779.4z"/>
			<path class="st15" d="M97.3,824.6c-0.8,1.2-1.3,2.7-1.2,4.2c0,0.9,0.1,1.8,0.4,2.6c0.4,1.1,1.1,2.1,2.1,2.8
				c1.2,0.8,2.6,1.2,4,1.1c2.7-0.2,4.9-2,5.7-4.6C110.3,824.1,101.7,818.5,97.3,824.6z"/>
			<path class="st15" d="M583.1,778.9c-0.8,1.2-1.3,2.7-1.2,4.2c0,0.9,0.1,1.8,0.3,2.6c0.4,1.1,1.1,2.1,2.1,2.8
				c1.2,0.8,2.6,1.2,4,1.1c2.7-0.2,4.9-2,5.7-4.6C596.1,778.5,587.5,772.9,583.1,778.9z"/>
			<path class="st15" d="M434.3,799.8c-0.6,0.8-0.9,1.8-0.8,2.9c0,0.6,0.1,1.2,0.2,1.8c0.3,0.8,0.8,1.4,1.4,1.9
				c0.8,0.6,1.7,0.8,2.7,0.8c1.8-0.2,3.3-1.4,3.9-3.1C443.1,799.5,437.3,795.7,434.3,799.8z"/>
			<path class="st15" d="M546.7,764.1c-0.6,0.8-0.9,1.8-0.8,2.9c0,0.6,0.1,1.2,0.2,1.8c0.3,0.8,0.8,1.4,1.4,1.9
				c0.8,0.6,1.7,0.8,2.7,0.8c1.8-0.2,3.3-1.4,3.9-3.1C555.5,763.9,549.7,760,546.7,764.1z"/>
			<path class="st15" d="M443.2,836c-0.6,0.8-0.9,1.8-0.8,2.9c0,0.6,0.1,1.2,0.2,1.8c0.3,0.8,0.8,1.4,1.4,1.9
				c0.8,0.6,1.7,0.8,2.7,0.8c1.8-0.2,3.3-1.4,3.9-3.1C452.1,835.7,446.3,831.9,443.2,836z"/>
			<path class="st15" d="M352.9,758.1c-0.8,1.4-1.1,3.1-0.6,4.6c0.3,0.8,0.8,1.4,1.4,1.9c0.8,0.6,1.7,0.8,2.7,0.8
				c1.8-0.2,3.3-1.4,3.9-3.1C361.8,757.9,355.9,754,352.9,758.1z"/>
			<path class="st15" d="M213.6,845.1c-0.6,0.8-0.9,1.9-0.8,2.9c0,0.6,0.1,1.2,0.2,1.8c0.3,0.8,0.8,1.4,1.4,1.9
				c0.8,0.6,1.7,0.8,2.7,0.8c1.8-0.2,3.3-1.4,3.9-3.1C222.5,844.9,216.7,841,213.6,845.1z"/>
			<path class="st15" d="M329.4,826.7c-0.6,0.8-0.9,1.9-0.8,2.9c0,0.6,0.1,1.2,0.2,1.8c0.3,0.8,0.8,1.4,1.4,1.9
				c0.8,0.6,1.7,0.9,2.7,0.8c1.8-0.2,3.3-1.4,3.9-3.1C338.2,826.4,332.4,822.6,329.4,826.7z"/>
			<path class="st15" d="M112.6,806.7c-0.4,0.6-0.6,1.2-0.6,1.9c0,0.4,0,0.8,0.2,1.2c0.2,0.5,0.5,1,1,1.3c0.5,0.4,1.2,0.6,1.8,0.5
				c1.2-0.1,2.3-0.9,2.6-2.1C118.6,806.5,114.7,803.9,112.6,806.7z"/>
			<path class="st15" d="M94.6,798.2c-0.4,0.6-0.6,1.2-0.6,1.9c0,0.4,0,0.8,0.2,1.2c0.2,0.5,0.5,1,1,1.3c0.5,0.4,1.2,0.6,1.8,0.5
				c1.2-0.1,2.3-0.9,2.6-2.1C100.6,798,96.7,795.5,94.6,798.2z"/>
			<path class="st15" d="M189.6,820.5c-0.4,0.6-0.6,1.2-0.6,1.9c0,0.4,0,0.8,0.2,1.2c0.2,0.5,0.5,1,1,1.3c0.5,0.4,1.2,0.6,1.8,0.5
				c1.2-0.1,2.3-0.9,2.6-2.1C195.5,820.3,191.6,817.7,189.6,820.5z"/>
			<path class="st15" d="M196.4,810.2c-0.4,0.6-0.6,1.3-0.6,1.9c0,0.4,0,0.8,0.2,1.2c0.2,0.5,0.5,1,1,1.3c0.5,0.4,1.2,0.6,1.8,0.5
				c1.2-0.1,2.3-0.9,2.6-2.1C202.4,810,198.5,807.4,196.4,810.2z"/>
			<path class="st15" d="M600.7,791c-0.6,0.8-0.9,1.9-0.8,2.9c0,0.6,0.1,1.2,0.2,1.8c0.3,0.8,0.8,1.4,1.4,1.9
				c0.8,0.6,1.7,0.8,2.7,0.8c1.8-0.2,3.3-1.4,3.9-3.1C609.6,790.8,603.8,787,600.7,791z"/>
			<path class="st16" d="M856.9,643c-0.8,1.2-1.3,2.7-1.2,4.2c0,0.9,0.1,1.8,0.3,2.6c0.4,1.1,1.1,2.1,2.1,2.8c1.1,0.8,2.5,1.2,4,1.1
				c2.7-0.2,4.9-2,5.7-4.6C869.9,642.7,861.3,637,856.9,643z"/>
			<path class="st16" d="M973.2,663.7c-0.6,0.8-0.9,1.9-0.8,2.9c0,0.6,0.1,1.2,0.2,1.8c0.3,0.8,0.8,1.4,1.4,1.9
				c0.8,0.6,1.7,0.8,2.7,0.8c1.8-0.2,3.3-1.4,3.9-3.1C982.1,663.4,976.2,659.6,973.2,663.7z"/>
			<path class="st16" d="M872.2,625.2c-0.4,0.6-0.6,1.2-0.6,1.9c0,0.4,0,0.8,0.2,1.2c0.2,0.5,0.5,1,1,1.3c0.5,0.4,1.2,0.6,1.8,0.5
				c1.2-0.1,2.3-0.9,2.6-2.1C878.2,625,874.3,622.4,872.2,625.2z"/>
			<path class="st16" d="M854.2,616.8c-0.4,0.6-0.6,1.3-0.6,1.9c0,0.4,0,0.8,0.2,1.2c0.2,0.5,0.5,1,1,1.3c0.5,0.4,1.2,0.6,1.8,0.5
				c1.2-0.1,2.3-0.9,2.6-2.1C860.1,616.6,856.2,614,854.2,616.8z"/>
			<path class="st16" d="M949.1,639c-0.4,0.6-0.6,1.3-0.6,1.9c0,0.4,0,0.8,0.2,1.2c0.2,0.5,0.5,1,1,1.3c0.5,0.4,1.2,0.6,1.8,0.5
				c1.2-0.1,2.3-0.9,2.6-2.1C955.1,638.8,951.2,636.2,949.1,639z"/>
			<path class="st16" d="M956,628.7c-0.4,0.6-0.6,1.2-0.6,1.9c0,0.4,0,0.8,0.2,1.2c0.2,0.5,0.5,1,1,1.3c0.5,0.4,1.2,0.6,1.8,0.5
				c1.2-0.1,2.3-0.9,2.6-2.1C962,628.5,958,625.9,956,628.7z"/>
			<path class="st17" d="M1779.5,262.3c-0.8,1.2-1.3,2.7-1.2,4.2c0,0.9,0.1,1.8,0.3,2.6c0.4,1.1,1.1,2.1,2.1,2.8
				c1.2,0.8,2.6,1.2,4,1.1c2.7-0.2,4.9-2,5.7-4.6C1792.5,261.9,1783.9,256.2,1779.5,262.3z"/>
			<path class="st17" d="M1371.1,346.6c-0.8,1.2-1.3,2.7-1.2,4.2c0,0.9,0.1,1.8,0.3,2.6c0.4,1.1,1.1,2.1,2.1,2.8
				c1.2,0.8,2.6,1.2,4,1.1c2.7-0.2,4.9-2,5.7-4.6C1384.1,346.2,1375.6,340.6,1371.1,346.6z"/>
			<path class="st17" d="M1169.8,400.8c-0.8,1.2-1.3,2.7-1.2,4.2c0,0.9,0.1,1.8,0.3,2.6c0.4,1.1,1.1,2.1,2.1,2.8
				c1.2,0.8,2.5,1.2,3.9,1.1c2.7-0.2,4.9-2,5.7-4.6C1182.8,400.3,1174.3,394.7,1169.8,400.8z"/>
			<path class="st17" d="M1767.7,335.8c-0.8,1.2-1.3,2.7-1.2,4.2c0,0.9,0.1,1.8,0.3,2.6c0.4,1.1,1.1,2.1,2.1,2.8
				c1.2,0.8,2.6,1.2,4,1.1c2.7-0.2,4.9-2,5.7-4.6C1780.7,335.4,1772.1,329.8,1767.7,335.8z"/>
			<path class="st17" d="M1835.1,391c-0.6,0.8-0.9,1.8-0.8,2.9c0,0.6,0.1,1.2,0.2,1.8c0.3,0.8,0.8,1.4,1.4,1.9
				c0.8,0.6,1.7,0.8,2.7,0.8c1.8-0.2,3.3-1.4,3.9-3.1C1844,390.7,1838.1,386.9,1835.1,391z"/>
			<path class="st17" d="M1506.8,376c-0.6,0.8-0.9,1.8-0.8,2.9c0,0.6,0.1,1.2,0.2,1.8c0.3,0.8,0.8,1.4,1.4,1.9
				c0.8,0.6,1.7,0.8,2.7,0.8c1.8-0.2,3.3-1.4,3.9-3.1C1515.6,375.7,1509.8,371.9,1506.8,376z"/>
			<path class="st17" d="M1731.3,321c-0.6,0.8-0.9,1.8-0.8,2.9c0,0.6,0.1,1.2,0.2,1.8c0.3,0.8,0.8,1.4,1.4,1.9
				c0.8,0.6,1.7,0.8,2.7,0.8c1.8-0.2,3.3-1.4,3.9-3.1C1740.1,320.8,1734.3,316.9,1731.3,321z"/>
			<path class="st17" d="M1515.7,412.2c-0.8,1.4-1.1,3.1-0.6,4.6c0.3,0.8,0.8,1.4,1.4,1.9c0.8,0.6,1.7,0.8,2.7,0.8
				c1.8-0.2,3.3-1.4,3.9-3.1C1524.6,411.9,1518.8,408,1515.7,412.2z"/>
			<path class="st17" d="M1362.5,292.8c-0.6,0.8-0.9,1.8-0.8,2.9c0,0.6,0.1,1.2,0.2,1.8c0.3,0.8,0.8,1.4,1.4,1.9
				c0.8,0.6,1.7,0.8,2.7,0.8c1.8-0.2,3.3-1.4,3.9-3.1C1371.4,292.5,1365.6,288.7,1362.5,292.8z"/>
			<path class="st17" d="M1286.2,421.3c-0.6,0.8-0.9,1.9-0.8,2.9c0,0.6,0.1,1.2,0.2,1.8c0.3,0.8,0.8,1.4,1.4,1.9
				c0.8,0.6,1.7,0.8,2.7,0.8c1.8-0.2,3.3-1.4,3.9-3.1C1295,421,1289.2,417.2,1286.2,421.3z"/>
			<path class="st17" d="M1839.7,319.3c-0.6,0.8-0.9,1.8-0.8,2.9c0,0.6,0.1,1.2,0.2,1.8c0.3,0.8,0.8,1.4,1.4,1.9
				c0.8,0.6,1.7,0.8,2.7,0.8c1.8-0.2,3.3-1.4,3.9-3.1C1848.5,319,1842.7,315.2,1839.7,319.3z"/>
			<path class="st17" d="M1401.9,402.9c-0.6,0.8-0.9,1.8-0.8,2.9c0,0.6,0.1,1.2,0.2,1.8c0.3,0.8,0.8,1.4,1.4,1.9
				c0.8,0.6,1.7,0.8,2.7,0.8c1.8-0.2,3.3-1.4,3.9-3.1C1410.8,402.6,1404.9,398.8,1401.9,402.9z"/>
			<path class="st17" d="M1185.2,382.9c-0.4,0.6-0.6,1.2-0.6,1.9c0,0.4,0,0.8,0.2,1.2c0.2,0.5,0.5,1,1,1.3c0.5,0.4,1.2,0.6,1.8,0.5
				c1.2-0.1,2.3-0.9,2.6-2.1C1191.1,382.7,1187.2,380.1,1185.2,382.9z"/>
			<path class="st17" d="M1167.1,374.4c-0.4,0.6-0.6,1.3-0.6,1.9c0,0.4,0,0.8,0.2,1.2c0.2,0.5,0.5,1,1,1.3c0.5,0.4,1.2,0.6,1.8,0.5
				c1.2-0.1,2.3-0.9,2.6-2.1C1173.1,374.2,1169.2,371.7,1167.1,374.4z"/>
			<path class="st17" d="M1262.1,396.7c-0.4,0.6-0.6,1.3-0.6,1.9c0,0.4,0,0.8,0.2,1.2c0.2,0.5,0.5,1,1,1.3c0.5,0.4,1.2,0.6,1.8,0.5
				c1.2-0.1,2.3-0.9,2.6-2.1C1268.1,396.5,1264.1,393.9,1262.1,396.7z"/>
			<path class="st17" d="M1268.9,386.3c-0.4,0.6-0.6,1.2-0.6,1.9c0,0.4,0,0.8,0.2,1.2c0.2,0.5,0.5,1,1,1.3c0.5,0.4,1.2,0.6,1.8,0.5
				c1.2-0.1,2.2-0.9,2.6-2.1C1274.9,386.2,1271,383.6,1268.9,386.3z"/>
			<path class="st17" d="M1785.3,348c-0.6,0.8-0.9,1.8-0.8,2.9c0,0.6,0.1,1.2,0.2,1.8c0.3,0.8,0.8,1.4,1.4,1.9
				c0.8,0.6,1.7,0.8,2.7,0.8c1.8-0.2,3.3-1.4,3.9-3.1C1794.2,347.7,1788.4,343.9,1785.3,348z"/>
		</g>
		<g id="bubble">
			<path class="st18" d="M502.9,687.3c-5.2,7-7,15.9-7.1,24.6c-0.2,5.2,0.5,10.3,2,15.3c2.3,6.6,6.6,12.4,12.4,16.5
				c6.7,4.8,14.9,7.2,23.1,6.7c15.2-0.9,28.9-12.3,33.5-26.7C579,685,529,652.1,502.9,687.3z"/>
			<path class="st18" d="M1306.3,27.8c-5.2,7-7,15.9-7.1,24.6c-0.2,5.2,0.5,10.3,2,15.2c2.3,6.6,6.6,12.4,12.4,16.5
				c6.7,4.8,14.9,7.2,23.1,6.7c15.2-0.9,28.9-12.3,33.5-26.8C1382.4,25.5,1332.4-7.4,1306.3,27.8z"/>
			<path class="st19" d="M1202.3,683.3c-5.2,7-7,15.9-7.1,24.6c-0.2,5.2,0.5,10.3,2,15.2c2.3,6.6,6.6,12.4,12.4,16.5
				c6.7,4.8,14.9,7.2,23.1,6.7c15.2-0.9,28.9-12.3,33.5-26.8C1278.3,680.9,1228.3,648,1202.3,683.3z"/>
			<path class="st20" d="M731.7,116.2c-8.9,12.1-12.1,27.5-12.3,42.5c-0.2,8.9,0.7,17.9,3.5,26.3c4,11.5,11.5,21.4,21.3,28.4
				c11.6,8.3,25.7,12.4,40,11.5c26.2-1.6,49.9-21.2,57.8-46.2C863.1,112,776.7,55.3,731.7,116.2z"/>
			<path class="st18" d="M287.5,405c-3.9,5.2-5.3,12-5.4,18.5c-0.1,3.9,0.4,7.8,1.5,11.5c1.8,5,5,9.3,9.3,12.4
				c5.1,3.6,11.2,5.4,17.4,5c11.4-0.7,21.7-9.2,25.2-20.1C344.7,403.3,307.1,378.6,287.5,405z"/>
			<path class="st21" d="M643.4,527.2c-0.6,1.1-0.9,2.3-1.1,3.5c-0.8,6.5-1.5,14,0.8,20.7c1.8,5,5,9.3,9.3,12.4
				c5.1,3.6,11.2,5.4,17.4,5c11.4-0.7,21.7-9.2,25.2-20.1C704.8,517.6,661.5,491.6,643.4,527.2z"/>
			<path class="st21" d="M59,165.3c-3.9,5.2-5.3,12-5.4,18.5c-0.1,3.9,0.4,7.8,1.5,11.5c1.7,5,5,9.3,9.3,12.4
				c5.1,3.6,11.2,5.4,17.4,5c11.4-0.7,21.7-9.2,25.2-20.1C116.2,163.5,78.6,138.8,59,165.3z"/>
			<path class="st18" d="M653.9,355.2c-2.7,3.6-3.6,8.2-3.7,12.7c-0.1,2.7,0.2,5.3,1,7.9c1.2,3.4,3.4,6.4,6.4,8.5
				c3.5,2.5,7.7,3.7,12,3.5c7.8-0.5,14.9-6.4,17.3-13.8C693.2,354,667.4,337,653.9,355.2z"/>
			<path class="st22" d="M1641.2,370.9c-2.7,3.6-3.6,8.2-3.7,12.7c-0.1,2.7,0.3,5.3,1.1,7.9c1.2,3.4,3.4,6.4,6.4,8.5
				c3.5,2.5,7.7,3.7,12,3.5c7.8-0.5,14.9-6.3,17.3-13.8C1680.5,369.7,1654.6,352.7,1641.2,370.9z"/>
			<path class="st19" d="M1560.2,540.2c-7.9,10.7-10.7,24.3-10.9,37.6c-0.1,7.9,0.6,15.8,3.1,23.3c3.5,10.1,10.1,18.9,18.9,25.1
				c10.3,7.3,22.7,10.9,35.3,10.2c23.1-1.4,44.1-18.7,51.1-40.8C1676.2,536.6,1600,486.5,1560.2,540.2z"/>
			<path class="st18" d="M23.5,424c-7.9,10.7-10.7,24.3-10.9,37.6c-0.1,7.9,0.6,15.8,3.1,23.3c3.5,10.1,10.1,18.9,18.9,25.1
				c10.3,7.3,22.7,10.9,35.3,10.2c23.1-1.4,44.1-18.7,51.1-40.8C139.5,420.5,63.2,370.3,23.5,424z"/>
			<path class="st18" d="M1587.6,60.5c-0.6,1.1-0.9,2.3-1.1,3.5c-0.7,6.3-1.4,13.4,0.8,19.8c1.7,4.8,4.8,9,8.9,11.9
				c4.9,3.5,10.8,5.2,16.7,4.8c11-0.7,20.9-8.9,24.2-19.3C1646.5,51.5,1605,26.5,1587.6,60.5z"/>
		</g>
	</g>
</g>
</svg>
