<svg xmlns="http://www.w3.org/2000/svg" viewBox="0 0 680.77 111.13"><defs><style>.cls-1{opacity:0.6;}.cls-2{fill:#fff;}</style></defs><g id="Layer_2" data-name="Layer 2"><g id="bubbles"><g class="cls-1"><path class="cls-2" d="M559.43,42.35a7.21,7.21,0,0,0-1.22,4.21,7.45,7.45,0,0,0,.35,2.61A5.82,5.82,0,0,0,560.67,52a6.15,6.15,0,0,0,4,1.14,6.66,6.66,0,0,0,5.73-4.57C572.43,42,563.88,36.33,559.43,42.35Z"/><path class="cls-2" d="M332.38,38.05a7.21,7.21,0,0,0-1.22,4.21,7.37,7.37,0,0,0,.35,2.6,5.8,5.8,0,0,0,2.11,2.82,6.27,6.27,0,0,0,3.95,1.14,6.66,6.66,0,0,0,5.73-4.57C345.38,37.64,336.83,32,332.38,38.05Z"/><path class="cls-2" d="M3.25,83.2A7.26,7.26,0,0,0,2,87.41,7.92,7.92,0,0,0,2.37,90a5.81,5.81,0,0,0,2.12,2.81A6.18,6.18,0,0,0,8.44,94a6.63,6.63,0,0,0,5.72-4.58C16.25,82.8,7.7,77.18,3.25,83.2Z"/><path class="cls-2" d="M601.11,18.27a7.28,7.28,0,0,0-1.22,4.21,7.37,7.37,0,0,0,.35,2.6,5.8,5.8,0,0,0,2.11,2.82,6.16,6.16,0,0,0,4,1.14A6.64,6.64,0,0,0,612,24.47C614.11,17.86,605.57,12.25,601.11,18.27Z"/><path class="cls-2" d="M668.56,73.44a4.87,4.87,0,0,0-.83,2.86,5.35,5.35,0,0,0,.23,1.78A4,4,0,0,0,669.4,80a4.17,4.17,0,0,0,2.69.78,4.53,4.53,0,0,0,3.9-3.11C677.41,73.16,671.59,69.34,668.56,73.44Z"/><path class="cls-2" d="M340.21,58.46a4.94,4.94,0,0,0-.83,2.86,5,5,0,0,0,.24,1.77A4,4,0,0,0,341.05,65a4.25,4.25,0,0,0,2.69.78,4.52,4.52,0,0,0,3.9-3.12C349.06,58.18,343.24,54.36,340.21,58.46Z"/><path class="cls-2" d="M564.7,3.48a5,5,0,0,0-.83,2.87,5,5,0,0,0,.24,1.77A4,4,0,0,0,565.55,10a4.22,4.22,0,0,0,2.69.77,4.49,4.49,0,0,0,3.89-3.11C573.55,3.21,567.73-.61,564.7,3.48Z"/><path class="cls-2" d="M349.18,94.64a5,5,0,0,0-.83,2.87,5.05,5.05,0,0,0,.24,1.77A4,4,0,0,0,350,101.2a4.24,4.24,0,0,0,2.69.77,4.49,4.49,0,0,0,3.9-3.11C358,94.37,352.21,90.55,349.18,94.64Z"/><path class="cls-2" d="M258.86,16.78a4.87,4.87,0,0,0-.83,2.86,5.35,5.35,0,0,0,.23,1.78,4,4,0,0,0,1.44,1.91,4.19,4.19,0,0,0,2.69.78,4.52,4.52,0,0,0,3.9-3.11C267.71,16.5,261.89,12.68,258.86,16.78Z"/><path class="cls-2" d="M119.6,103.79a4.87,4.87,0,0,0-.83,2.86,5.35,5.35,0,0,0,.23,1.78,4,4,0,0,0,1.44,1.91,4.17,4.17,0,0,0,2.69.78A4.53,4.53,0,0,0,127,108C128.45,103.51,122.63,99.69,119.6,103.79Z"/><path class="cls-2" d="M673.12,1.75a4.94,4.94,0,0,0-.83,2.86,5,5,0,0,0,.24,1.77A3.93,3.93,0,0,0,674,8.3a4.29,4.29,0,0,0,2.69.78A4.52,4.52,0,0,0,680.55,6C682,1.47,676.15-2.35,673.12,1.75Z"/><path class="cls-2" d="M235.35,85.32a4.87,4.87,0,0,0-.83,2.86,5.35,5.35,0,0,0,.23,1.78,4,4,0,0,0,1.44,1.91,4.19,4.19,0,0,0,2.69.78,4.52,4.52,0,0,0,3.9-3.11C244.2,85,238.38,81.22,235.35,85.32Z"/><path class="cls-2" d="M18.59,65.32A3.39,3.39,0,0,0,18,67.26a3.42,3.42,0,0,0,.16,1.19,2.74,2.74,0,0,0,1,1.3,2.88,2.88,0,0,0,1.82.52,3,3,0,0,0,2.63-2.1C24.56,65.14,20.64,62.56,18.59,65.32Z"/><path class="cls-2" d="M.56,56.88A3.35,3.35,0,0,0,0,58.81,3.45,3.45,0,0,0,.16,60a2.71,2.71,0,0,0,1,1.29A2.82,2.82,0,0,0,3,61.83a3,3,0,0,0,2.63-2.1C6.53,56.7,2.61,54.12.56,56.88Z"/><path class="cls-2" d="M95.53,79.13A3.36,3.36,0,0,0,95,81.07a3.42,3.42,0,0,0,.16,1.19,2.74,2.74,0,0,0,1,1.3,2.88,2.88,0,0,0,1.82.52,3,3,0,0,0,2.62-2.1C101.5,79,97.58,76.37,95.53,79.13Z"/><path class="cls-2" d="M102.39,68.81a3.28,3.28,0,0,0-.56,1.93,3.23,3.23,0,0,0,.16,1.2,2.59,2.59,0,0,0,1,1.29,2.8,2.8,0,0,0,1.81.53,3.07,3.07,0,0,0,2.63-2.1C108.36,68.62,104.43,66,102.39,68.81Z"/><path class="cls-2" d="M618.77,30.43a4.94,4.94,0,0,0-.83,2.86,5.11,5.11,0,0,0,.24,1.78A4,4,0,0,0,619.62,37a4.17,4.17,0,0,0,2.69.78,4.52,4.52,0,0,0,3.89-3.11C627.62,30.15,621.8,26.33,618.77,30.43Z"/></g></g></g></svg>