<svg xmlns="http://www.w3.org/2000/svg" viewBox="0 0 188.86 84.18"><defs><style>.cls-1{fill:#3ba7e0;fill-rule:evenodd;}</style></defs><g id="Layer_2" data-name="Layer 2"><g id="bg"><path class="cls-1" d="M134.25,36.3c-4.19,2.24,4.3,30.28,34.82,31.45,6.85,12.79,10.75,14.51,13.23,16.43-5.5-8.55-7-14.6-7-14.6a96.18,96.18,0,0,0,13.52,3.64s-11.63-8.39-17.17-9.17C166.43,50.8,149.38,37.29,134.25,36.3Z"/><path class="cls-1" d="M58.82,38.48c-3.31,3.39,13.25,27.57,42.69,19.46,10.4,10.12,14.63,10.58,17.58,11.67-7.82-6.49-11-11.82-11-11.82a97.25,97.25,0,0,0,14-.61s-13.62-4.49-19.14-3.56C93.88,42.58,73.55,34.85,58.82,38.48Z"/><path class="cls-1" d="M71.85,9.12C69.82,11.19,79.94,26,97.92,21c6.35,6.18,8.93,6.46,10.73,7.12a32.64,32.64,0,0,1-6.74-7.22,59.48,59.48,0,0,0,8.54-.37s-8.32-2.74-11.69-2.17C93.26,11.62,80.84,6.9,71.85,9.12Z"/><path class="cls-1" d="M11.79,7.51c-1.17,3.38,17.91,14.59,35.44-.4C57.58,10.69,60.62,9.65,63,9.44A40.2,40.2,0,0,1,51.65,4.91,73.81,73.81,0,0,0,61,0S50.26,1.31,46.78,3.71C37.08-.94,20.7.3,11.79,7.51Z"/><path class="cls-1" d="M0,34.67c-.78,2.27,12,9.81,23.82-.27,7,2.41,9,1.71,10.59,1.57a26.93,26.93,0,0,1-7.62-3,49.49,49.49,0,0,0,6.29-3.3s-7.22.88-9.56,2.5C17,29,6,29.83,0,34.67Z"/></g></g></svg>