<svg xmlns="http://www.w3.org/2000/svg" xmlns:xlink="http://www.w3.org/1999/xlink" viewBox="0 0 206.22 122"><defs><style>.cls-1{fill:none;}.cls-2{clip-path:url(#clip-path);}.cls-3{fill:#acdd31;}.cls-4{fill:#74b433;}.cls-5{clip-path:url(#clip-path-2);}.cls-6{fill:#77b040;}.cls-7{fill:#2ba751;}.cls-8{clip-path:url(#clip-path-3);}.cls-9{fill:#176831;}.cls-10{fill:#168238;}.cls-11{clip-path:url(#clip-path-4);}.cls-12{fill:#7aaf47;}.cls-13{clip-path:url(#clip-path-5);}.cls-14{fill:#010005;}.cls-15{fill:#fff;}.cls-16{clip-path:url(#clip-path-6);}.cls-17{fill:#0e0e0e;}.cls-18{clip-path:url(#clip-path-7);}</style><clipPath id="clip-path" transform="translate(3.15 2.55)"><path class="cls-1" d="M134.51,95.42a47.78,47.78,0,0,0,9.33,6.59l5.79,3.44c1.89,1.12,3.92,2.27,6.11,2.22s4.5-1.89,4.19-4.07c-.21-1.49-1.54-2.74-1.41-4.24.1-1.19,1.09-2.09,1.7-3.12a6.13,6.13,0,0,0-1.53-7.57,17.86,17.86,0,0,0-3.95-2.12c-3.87-1.77-7.74-4.46-12-3.88-2.66.37-5.1,2-7.79,2-1,0-1.94-.29-2.92-.31C125.81,84.16,132.68,93.61,134.51,95.42Z"/></clipPath><clipPath id="clip-path-2" transform="translate(3.15 2.55)"><path class="cls-1" d="M61.88,108.29c-.84,1.17-1.7,2.75-.9,4,1.55,2.35,6-.89,7.87,1.21,1.21,1.36.11,3.77,1.24,5.19,2,1.37,4.71-1.17,6.93-.3.78.3,1.41,1,2.24,1.09,1.17.12,2-1,2.64-2l8-13.24a2.34,2.34,0,0,0,.46-1.2c0-1.24-1.63-1.67-2.88-1.76-5.23-.41-9.92-3.7-14.78-4.2S64.39,104.75,61.88,108.29Z"/></clipPath><clipPath id="clip-path-3" transform="translate(3.15 2.55)"><path class="cls-1" d="M46.12,70.06s23.65-47,58.09-46.54,59.44,25,59.44,25-4.88,16.57-23.54,28C109,95.64,56.26,109,46.12,70.06Z"/></clipPath><clipPath id="clip-path-4" transform="translate(3.15 2.55)"><path class="cls-1" d="M.63,31.61,5.45,43.1C7.65,48.36,9.93,53.74,13.78,58c4.16,4.54,9.81,7.37,15.33,10.1,8,3.93,16,7.88,24.41,10.66a46.94,46.94,0,0,0,1.11-22.4A3.76,3.76,0,0,0,53.55,54a4,4,0,0,0-2.27-.61,139.63,139.63,0,0,1-14-1.64C32.67,51,27.89,49.85,24.17,47c-3.39-2.62-5.58-6.47-8.34-9.75C13.69,34.68-3.47,21.83.63,31.61Z"/></clipPath><clipPath id="clip-path-5" transform="translate(3.15 2.55)"><path class="cls-1" d="M140.87,59.57s-18.28,4.22-11,12.61,51.61,1,61.35-18.08,17-60.57-.06-53.24S184.33,39.76,140.87,59.57Z"/></clipPath><clipPath id="clip-path-6" transform="translate(3.15 2.55)"><path class="cls-1" d="M50.43,64.6l21.41-1.34c-.62-9.77-3.94-17.52-11.81-17C51.87,46.74,49.82,54.82,50.43,64.6Z"/></clipPath><clipPath id="clip-path-7" transform="translate(3.15 2.55)"><path class="cls-1" d="M97,58l-21,4.54c-2.08-9.57-1-17.93,6.72-19.61C90.76,41.16,94.93,48.38,97,58Z"/></clipPath></defs><g id="Layer_2" data-name="Layer 2"><g id="turtle"><g class="cls-2"><path class="cls-3" d="M134.51,95.42a47.78,47.78,0,0,0,9.33,6.59l5.79,3.44c1.89,1.12,3.92,2.27,6.11,2.22s4.5-1.89,4.19-4.07c-.21-1.49-1.54-2.74-1.41-4.24.1-1.19,1.09-2.09,1.7-3.12a6.13,6.13,0,0,0-1.53-7.57,17.86,17.86,0,0,0-3.95-2.12c-3.87-1.77-7.74-4.46-12-3.88-2.66.37-5.1,2-7.79,2-1,0-1.94-.29-2.92-.31C125.81,84.16,132.68,93.61,134.51,95.42Z" transform="translate(3.15 2.55)"/><path class="cls-4" d="M137.12,86.76a15,15,0,0,1,5-.86c4.24.22,8.76,2.11,11.35,5.56.73,1,1.34,2.27.85,3.4-.31.72-1,1.22-1.33,1.94-1,2.45,3,4.91,2,7.37-.41,1-1.46,1.45-2.26,2.14s-1.31,2-.49,2.71a2,2,0,0,0,.95.36A11.36,11.36,0,0,0,164.49,104a13.19,13.19,0,0,0,.15-12.71c-2-3.79-5.47-6.09-9.41-7.48-4.18-1.48-9.1-1.28-13.46-2.45-2.45-.66-5.14-1.46-7.43-.35a16.88,16.88,0,0,0-2.52,1.78c-1.41,1-7.48,3.79-4.89,6.28,1.16,1.11,2.91,0,4.15-.38C133.08,88,135.1,87.37,137.12,86.76Z" transform="translate(3.15 2.55)"/></g><g class="cls-5"><path class="cls-3" d="M61.88,108.29c-.84,1.17-1.7,2.75-.9,4,1.55,2.35,6-.89,7.87,1.21,1.21,1.36.11,3.77,1.24,5.19,2,1.37,4.71-1.17,6.93-.3.78.3,1.41,1,2.24,1.09,1.17.12,2-1,2.64-2l8-13.24a2.34,2.34,0,0,0,.46-1.2c0-1.24-1.63-1.67-2.88-1.76-5.23-.41-9.92-3.7-14.78-4.2S64.39,104.75,61.88,108.29Z" transform="translate(3.15 2.55)"/><path class="cls-6" d="M67.81,104.64a9.09,9.09,0,0,1,3.82.32c1.64.64,2.74,2.16,3.75,3.6l2.85,4a8.41,8.41,0,0,0,2.28,2.47,2.88,2.88,0,0,0,3.18,0,4.13,4.13,0,0,0,.92-1.15l4.87-7.8c.59-1,1.18-2.18.54-3.09a2.7,2.7,0,0,0-1.14-.82,31,31,0,0,0-18.36-2.38c-1.61.28-7.07,1-7.82,2.74C61.34,105.8,66.15,104.73,67.81,104.64Z" transform="translate(3.15 2.55)"/></g><path class="cls-7" d="M50.39,75.41S39.22,83,41.93,86s25.35,28.23,66.83,16.43,61.35-30.5,62-43.75c0,0-1.52-17.59-7.15-10.1S50.39,75.41,50.39,75.41Z" transform="translate(3.15 2.55)"/><g class="cls-8"><path class="cls-9" d="M46.12,70.06s23.65-47,58.09-46.54,59.44,25,59.44,25a53.2,53.2,0,0,1-23.19,29.24C109.36,96.86,56.26,109,46.12,70.06Z" transform="translate(3.15 2.55)"/><path class="cls-10" d="M88.39,33.05c4.85-.49,10.58-.63,13.61,3.18a3.85,3.85,0,0,1,.88,1.84,5.38,5.38,0,0,1-.43,2.42L98.51,51.88c2.57-1.65,3.68-4.76,4.85-7.57s2.87-5.83,5.81-6.64a10.22,10.22,0,0,1,3.9-.09c7.71.88,13.38,4.74,15.84,12.29,1.34,4.12,1.84,8.48,3.34,12.53a2.52,2.52,0,0,0,.8,1.27,2.63,2.63,0,0,0,2.18,0,35.69,35.69,0,0,0,5.23-2.05,1.33,1.33,0,0,0,.87-1.85c-2.17-10-12-21.53-22.5-23.53-3.26-.62-6.62-.28-9.91-.68-1.24-.15,3.21-5.05,3.67-5.37,3-2.09,6.57-3.57,9.77-5.28.32-.16.66-.37.74-.71.14-.57-.49-1-1-1.21a7.48,7.48,0,0,0-3.23-.56c-2.44.19-4.39,2-6,3.92-3.46,4.13-5.86,7.49-11.66,5.89-2.41-.66-4.69-1.77-7.13-2.25a14.46,14.46,0,0,0-9,1.17,16.12,16.12,0,0,1-3.35,1.48c-2.89.66-5.87-.44-8.57,1.19C75.37,36.37,85.26,33.37,88.39,33.05Z" transform="translate(3.15 2.55)"/></g><path class="cls-3" d="M69.48,39.14s18.12-1,45.15,15.69,42-3.84,42-3.84-5.6,22.89-19.59,31S87.51,101.68,76.69,93.74,69.48,39.14,69.48,39.14Z" transform="translate(3.15 2.55)"/><path class="cls-6" d="M110.58,85.9c6.35-1.83,13-3.42,16.08-9.73,1.65-3.36-.26-18.17-5.2-17.47-1.16.16-1.81,1.36-2.46,2.33s-1.87,1.92-2.89,1.33a2.59,2.59,0,0,1-.89-1.09l-7.92-14.4c2.07,4.74,4.17,9.55,5,14.66,1,6.31-6.4,16.07-10.09,21-4.13,5.45-9.53,10.16-16,12.39,2.84,1.22,6.18.38,8.9-1.1s5.09-3.55,7.82-5A38.58,38.58,0,0,1,110.58,85.9Z" transform="translate(3.15 2.55)"/><g class="cls-11"><path class="cls-3" d="M53.79,53.9a2.93,2.93,0,0,0-1.59-.44c-.3,0-.62-.07-.92-.09a139.63,139.63,0,0,1-14-1.64C32.67,51,27.89,49.85,24.17,47c-3.39-2.62-5.58-6.47-8.34-9.75C13.69,34.68-3.47,21.83.63,31.61L5.45,43.1C7.65,48.36,9.93,53.73,13.78,58c4.16,4.54,9.81,7.37,15.33,10.1,8,3.93,16,7.88,24.41,10.66l0-.12A3.17,3.17,0,0,0,57,77.47C62.1,70.84,61.42,58.55,53.79,53.9Z" transform="translate(3.15 2.55)"/><path class="cls-12" d="M39.35,63.76a6.81,6.81,0,0,0,2.08-.42c2.09-.8,3.07-3.17,3.52-5.35a3.76,3.76,0,0,1,.68-1.8,3.18,3.18,0,0,1,1.21-.77,10.27,10.27,0,0,1,5.86-.72c3.93.78,6.81,4.4,7.88,8.27,1.68,6.09.82,10.09-4.08,13.57-5.64,4-12.8,8.73-20.06,7-3.32-.78-6.16-2.85-8.8-5a106.34,106.34,0,0,1-18.1-19C5.18,53.7-1.92,44.8-3,37.4c-.78-5.16,3-11,6.91-5.67,4.72,6.51,7.84,13.24,13.8,19C21.74,54.61,32.11,64.1,39.35,63.76Z" transform="translate(3.15 2.55)"/></g><path class="cls-3" d="M94.49,37.86a35.89,35.89,0,0,0-36.07,9C50.74,54.48,44.09,65,48.16,76.46c8.16,23,54.56,25.82,63.08-7.48C116.25,49.39,105.75,41.4,94.49,37.86Z" transform="translate(3.15 2.55)"/><g class="cls-13"><path class="cls-3" d="M140.87,59.57s-18.28,4.22-11,12.61,51.61,1,61.35-18.08,17-60.57-.06-53.24S184.33,39.76,140.87,59.57Z" transform="translate(3.15 2.55)"/><path class="cls-4" d="M134.38,64.07a3.42,3.42,0,0,0-.06,2.68,3.76,3.76,0,0,0,1.74,1.45c8.49,4.27,18.73,1.37,27.53-2.21,5.44-2.21,10.89-4.72,15.13-8.78,4.73-4.52,7.59-10.61,10.35-16.54,4.13-8.9,8.32-18,9.52-27.71a61,61,0,0,0-.25-15.51c5.1,5.75,5,14.29,4.53,22-.67,11.71-1.54,23.89-7.33,34.1-4.72,8.34-12.45,14.72-21,19s-18.06,6.46-27.55,7.83c-7,1-14.64,1.41-20.49-2.53-3.24-2.2-5.72-6.17-4.71-10,.84-3.2,3.83-5.31,6.72-6.92,4.52-2.51,10-5.27,15.13-5.91C141.62,58.63,136.08,59.32,134.38,64.07Z" transform="translate(3.15 2.55)"/></g><path class="cls-14" d="M69.17,67.29l-.31,2.65a1.08,1.08,0,0,0,.15.76,1,1,0,0,0,.63.42A1,1,0,0,0,70.4,71a1,1,0,0,0,.42-.63l.31-2.65a1.08,1.08,0,0,0-.15-.76,1,1,0,0,0-.63-.42,1,1,0,0,0-.76.15,1,1,0,0,0-.42.63Z" transform="translate(3.15 2.55)"/><path class="cls-14" d="M74.58,67.26l1,2.48a1.08,1.08,0,0,0,.49.6,1,1,0,0,0,.75.07,1,1,0,0,0,.6-.49,1,1,0,0,0,.08-.75l-1-2.48A1,1,0,0,0,75.25,66a1,1,0,0,0-.59.49,1,1,0,0,0-.08.75Z" transform="translate(3.15 2.55)"/><path class="cls-15" d="M50.43,64.58l21.4-1.33c-.61-9.78-3.93-17.53-11.81-17C51.87,46.72,49.82,54.81,50.43,64.58Z" transform="translate(3.15 2.55)"/><g class="cls-16"><circle class="cls-17" cx="68.32" cy="63.14" r="5.45"/></g><circle class="cls-15" cx="69.53" cy="62.47" r="1.54"/><path class="cls-15" d="M97,57.94l-21,4.54c-2.08-9.57-1-17.93,6.72-19.6C90.75,41.15,94.93,48.37,97,57.94Z" transform="translate(3.15 2.55)"/><g class="cls-18"><circle class="cls-17" cx="84.89" cy="60.67" r="5.45"/></g><circle class="cls-15" cx="83.54" cy="60.34" r="1.54"/><path class="cls-9" d="M66.73,81c4.79,2.38,10.77,2.68,15.06-.85.64-.44,1.17-1,1.8-1.49a20,20,0,0,1-1.47,1.86c-3.94,4.35-11.07,4.17-15.39.48Z" transform="translate(3.15 2.55)"/></g></g></svg>