<svg xmlns="http://www.w3.org/2000/svg" viewBox="0 0 57.09 60.8"><defs><style>.cls-1{fill:#fff;}</style></defs><g id="Layer_2" data-name="Layer 2"><g id="temp"><path class="cls-1" d="M24.86,3.07a11.83,11.83,0,0,0-2.2,1.84,18.89,18.89,0,0,0-11.23,9A18.69,18.69,0,0,0,4,23a10.42,10.42,0,0,0-2.33,2.62c-2.11,3.5-2.27,8.46-.11,13A15.06,15.06,0,0,0,7,44.63a8.34,8.34,0,0,0,1,5.35,7.43,7.43,0,0,0,2,2.1A13.92,13.92,0,0,0,23,60.8a11.87,11.87,0,0,0,8.47-3.53,10.05,10.05,0,0,0,7.81.65A11.58,11.58,0,0,0,47.11,46.8,12.53,12.53,0,0,0,45.68,41c0-.07,0-.15,0-.22l.39-.15A17.3,17.3,0,0,0,57.09,24.44a8.75,8.75,0,0,0-4.16-7.62c-2.23-1.22-4.29-1-5.12-.22a13.06,13.06,0,0,0-2.36-1.5A14.48,14.48,0,0,0,40.4,8.32a7.64,7.64,0,0,0-.6-3A9.18,9.18,0,0,0,32.5.06,8.31,8.31,0,0,0,24.86,3.07Z"/></g></g></svg>