<svg xmlns="http://www.w3.org/2000/svg" xmlns:xlink="http://www.w3.org/1999/xlink" viewBox="0 0 43.57 58.95"><defs><style>.cls-1{fill:none;}.cls-2{fill:#ddbb12;}.cls-3{fill:#ffda03;}.cls-4{fill:#363753;}.cls-5{clip-path:url(#clip-path);}.cls-6{fill:#f8ffff;}</style><clipPath id="clip-path"><path class="cls-1" d="M3.49,35.39s0-1.21-.84-1.22-.87,1.33-.87,1.33A7,7,0,0,0,3.49,35.39Z"/></clipPath></defs><g id="Layer_2" data-name="Layer 2"><g id="temp"><path class="cls-2" d="M43.54,9.83S45.11,40.2,23.26,42.6c0,0-2.92,9.64,6.86,15.89,0,0-18.52,4.23-17.63-13S33.89,10.86,43.54,9.83Z"/><path class="cls-3" d="M24,37s14.34-7.91,6.58-19.58S19.27,1.57,18.81.14,16.66,8.66,11.34,16.7s-8.6,23,.95,30.22,20.9,6.58,26.52,5.2a10.81,10.81,0,0,1-5.72-5.4C31.16,42.61,28.11,37.07,24,37Z"/><circle class="cls-4" cx="4.71" cy="35.44" r="3.03"/><g class="cls-5"><path class="cls-6" d="M3.49,35.39s0-1.21-.84-1.22-.87,1.33-.87,1.33A7,7,0,0,0,3.49,35.39Z"/><circle cx="2.38" cy="35.12" r="0.52"/><circle class="cls-6" cx="2.13" cy="35.18" r="0.19"/></g><path class="cls-4" d="M12.88,47.16c.4.39.85,1,.53,1.46a.82.82,0,0,1-.38.28c-1,.48-2.25-.12-3.21-.76A15.36,15.36,0,0,1,7,45.83a10.44,10.44,0,0,1-2.62-8.74c.22-1.32,1.06-1.6,1.71-.46s1.07,2.64,1.75,3.87A27.81,27.81,0,0,0,12.88,47.16Z"/><ellipse class="cls-4" cx="4.67" cy="22.19" rx="1.32" ry="1.13" transform="translate(-1.51 0.37) rotate(-3.92)"/><path class="cls-4" d="M5.13,32.93A14.22,14.22,0,0,0,5.73,22l-.61.26a13.83,13.83,0,0,1-.59,10.39Z"/><ellipse class="cls-4" cx="1.16" cy="24.43" rx="1.18" ry="1.02" transform="translate(-9.38 2.36) rotate(-22.81)"/><path class="cls-4" d="M4.66,33.41A12.77,12.77,0,0,0,2,24l-.45.4a12.39,12.39,0,0,1,2.52,9Z"/></g></g></svg>