<svg xmlns="http://www.w3.org/2000/svg" viewBox="0 0 71.19 154.8"><defs><style>.cls-1{fill:#ffc470;}.cls-2{fill:#f6b15e;}.cls-3{fill:#fecd9b;}.cls-4{fill:#f3edff;}</style></defs><g id="Layer_2" data-name="Layer 2"><g id="spaceship"><path class="cls-1" d="M71.19.07H61.38C61.38,0,9.81,0,9.81.07H0C0,46.73,11.41,93.4,11.41,93.4s.18,5.78,2.58-8.1c7.7,47.81,21.86,69.5,21.86,69.5s16-61,23.59-108.81C61.89,59.88,60,93.4,60,93.4S71.19,46.73,71.19.07Z"/><path class="cls-2" d="M63.36.07H54.12c0-.08-36.77-.08-36.77,0h-7c0,37.44,8.14,74.88,8.14,74.88s.13,4.64,1.84-6.5c5.49,38.36,15.58,55.77,15.58,55.77S52.65,62.43,58,24.06C59.78,35.21,63.4,53.9,63.4,53.9A341.19,341.19,0,0,0,63.36.07Z"/><path class="cls-3" d="M51.18,0H46.89S24.3,0,24.3,0H20c0,26.35,2.89,58.07,2.89,58.07s1.09-6.38,3.24-10c3.37,27,9.57,39.24,9.57,39.24S42.73,53,46,26c1.07,7.85.24,26.77.24,26.77S51.18,26.39,51.18,0Z"/><path class="cls-4" d="M41.53,0H39.9s-8.61,0-8.61,0H29.66a327.42,327.42,0,0,0,1.9,32.84s0,2,.43-2.84c1.29,16.82,3.65,24.45,3.65,24.45S38.31,33,39.57,16.18c.41,4.89.1,16.68.1,16.68S41.53,16.44,41.53,0Z"/></g></g></svg>