<?xml version="1.0" encoding="utf-8"?>
<!-- Generator: Adobe Illustrator 26.0.3, SVG Export Plug-In . SVG Version: 6.00 Build 0)  -->
<svg version="1.1" id="Layer_1" xmlns="http://www.w3.org/2000/svg" xmlns:xlink="http://www.w3.org/1999/xlink" x="0px" y="0px"
	 viewBox="0 0 427.9 79.8" style="enable-background:new 0 0 427.9 79.8;" xml:space="preserve">
<style type="text/css">
	.st0{fill:#1B5D9E;}
	.st1{fill:#224B7C;}
</style>
<g id="Layer_2_00000094587728082352481260000016686503065831083677_">
	<g id="bg_00000012456754983972432730000009691808925208802455_">
		<path class="st0" d="M240,74.6c0,0,12.4-39.6,44.5-26.1c0,0,15.3-42.1,49.6-13.5c0,0,9.5-31,33.5-19.9s19,31,19,31
			s32.1-14.3,43,28.6L240,74.6z"/>
	</g>
</g>
<g id="Layer_2_00000181051741647058019470000000143701491110829728_">
	<g id="bg_00000081624580423689944820000015571598431771932588_">
		<path class="st0" d="M1.4,80.1c0,0,7.3-23.3,26.1-15.3c0,0,9-24.7,29.1-7.9c0,0,5.6-18.2,19.7-11.7s11.1,18.2,11.1,18.2
			s18.8-8.4,25.3,16.8L1.4,80.1z"/>
	</g>
</g>
<g id="Layer_2_00000109025875070261824710000000593955680653929407_">
	<g id="bg">
		<path class="st1" d="M71.3,79.7c0,0,17.4-51,62.4-33.6c0,0,21.5-54.2,69.6-17.4c0,0,13.3-39.9,47.1-25.6S277,43,277,43
			s45-18.4,60.4,36.8L71.3,79.7z"/>
	</g>
</g>
</svg>
