<svg xmlns="http://www.w3.org/2000/svg" viewBox="0 0 197.34 72.23"><defs><style>.cls-1{fill:#23c0ee;fill-rule:evenodd;}</style></defs><g id="Layer_2" data-name="Layer 2"><g id="bg"><path class="cls-1" d="M50.54,52.71c2.31,2.89-12.42,20.38-34.66,11.82C7,71.59,3.7,71.62,1.33,72.23a41.57,41.57,0,0,0,9.48-8.32A75.74,75.74,0,0,1,0,62.35s10.92-2.43,15.14-1.28C23,53.18,39.38,48.76,50.54,52.71Z"/><path class="cls-1" d="M58.49,26.22C60,28,50.66,39.08,36.62,33.68c-5.58,4.45-7.68,4.47-9.17,4.85a26.2,26.2,0,0,0,6-5.25,46.55,46.55,0,0,1-6.82-1s6.89-1.53,9.55-.81C41.11,26.52,51.45,23.72,58.49,26.22Z"/><path class="cls-1" d="M114.72.93c1.45,1.82-7.84,12.86-21.87,7.46-5.58,4.45-7.68,4.47-9.18,4.85a26.13,26.13,0,0,0,6-5.25,46.55,46.55,0,0,1-6.82-1s6.89-1.53,9.55-.81C97.34,1.23,107.68-1.57,114.72.93Z"/><path class="cls-1" d="M138,32.84c1.46,1.82-7.83,12.86-21.87,7.46-5.58,4.45-7.68,4.47-9.17,4.86a26.49,26.49,0,0,0,6-5.25,47.15,47.15,0,0,1-6.82-1s6.89-1.53,9.55-.81C120.59,33.14,130.93,30.35,138,32.84Z"/><path class="cls-1" d="M97.64,26.28c1.46,1.83-7.83,12.86-21.86,7.46-5.59,4.45-7.68,4.47-9.18,4.86a26.19,26.19,0,0,0,6-5.25,48.44,48.44,0,0,1-6.82-1s6.89-1.54,9.55-.81C80.27,26.58,90.6,23.79,97.64,26.28Z"/><path class="cls-1" d="M101.05,47.48c1.46,1.82-7.83,12.86-21.87,7.46C73.6,59.39,71.5,59.41,70,59.8a26.35,26.35,0,0,0,6-5.26,46.55,46.55,0,0,1-6.82-1s6.89-1.53,9.55-.81C83.67,47.78,94,45,101.05,47.48Z"/><path class="cls-1" d="M152.56,9.91c1.46,1.82-7.83,12.86-21.86,7.45-5.59,4.45-7.68,4.48-9.18,4.86a26.19,26.19,0,0,0,6-5.25,48.44,48.44,0,0,1-6.82-1s6.89-1.53,9.55-.81C135.19,10.21,145.53,7.41,152.56,9.91Z"/><path class="cls-1" d="M197.19,8.44c1.46,1.83-7.83,12.86-21.86,7.46-5.59,4.45-7.69,4.47-9.18,4.86a26.19,26.19,0,0,0,6-5.25,47.15,47.15,0,0,1-6.82-1s6.89-1.53,9.55-.81C179.82,8.74,190.15,6,197.19,8.44Z"/></g></g></svg>