<svg xmlns="http://www.w3.org/2000/svg" xmlns:xlink="http://www.w3.org/1999/xlink" viewBox="0 0 66.62 84.21"><defs><style>.cls-1{fill:none;}.cls-2{fill:#ff9ee3;}.cls-3{fill:#ec469b;}.cls-4{fill:#363753;}.cls-5{clip-path:url(#clip-path);}.cls-6{fill:#f8ffff;}</style><clipPath id="clip-path"><path class="cls-1" d="M57.52,57.07s.43-1.77,1.67-1.46.79,2.25.79,2.25A10.39,10.39,0,0,1,57.52,57.07Z"/></clipPath></defs><g id="Layer_2" data-name="Layer 2"><g id="temp"><path class="cls-2" d="M8.63,5.2S-4.79,48.81,26.12,60.31c0,0,.72,15.1-15.82,20.61,0,0,25.4,12.94,30.44-12.46S22.28,10.23,8.63,5.2Z"/><path class="cls-3" d="M27.08,51.92S9.11,35.15,24.68,21,47,2.08,48.16.17,48.16,13.34,53,27,57,63.67,40.5,70.61,7.67,72.53,0,68.46a16.19,16.19,0,0,0,10.3-5.75C14.62,57.44,21.09,50.49,27.08,51.92Z"/><circle class="cls-4" cx="55.73" cy="56.7" r="4.55"/><g class="cls-5"><path class="cls-6" d="M57.52,57.07s.43-1.77,1.67-1.46.79,2.25.79,2.25A10.39,10.39,0,0,1,57.52,57.07Z"/><circle cx="59.23" cy="57.09" r="0.78"/><circle class="cls-6" cx="59.59" cy="57.26" r="0.29"/></g><path class="cls-4" d="M39.55,70.76c-.73.42-1.6,1.12-1.31,1.92a1.47,1.47,0,0,0,.44.55c1.35,1.08,3.33.65,5,.07a23.2,23.2,0,0,0,5-2.32,15.71,15.71,0,0,0,7-11.76c.16-2-1-2.71-2.33-1.29s-2.53,3.44-4,5A42.36,42.36,0,0,1,39.55,70.76Z"/><ellipse class="cls-4" cx="60.65" cy="37.43" rx="1.7" ry="1.98" transform="translate(6.26 83.47) rotate(-71.93)"/><path class="cls-4" d="M56,52.9a21.36,21.36,0,0,1,3.14-16.13l.8.6a20.69,20.69,0,0,0-3,15.34Z"/><ellipse class="cls-4" cx="64.94" cy="41.99" rx="1.52" ry="1.77" transform="translate(-7.65 68.64) rotate(-53.05)"/><path class="cls-4" d="M56.55,53.76A19.14,19.14,0,0,1,63.89,41l.5.74a18.56,18.56,0,0,0-7,12.15Z"/></g></g></svg>