<?xml version="1.0" encoding="utf-8"?><!--Generator: Adobe Illustrator 26.0.3, SVG Export Plug-In . SVG Version: 6.00 Build 0)--><svg version="1.1" id="Layer_1" xmlns="http://www.w3.org/2000/svg" xmlns:xlink="http://www.w3.org/1999/xlink" x="0px" y="0px" viewBox="0 0 1920 1080" style="enable-background:new 0 0 1920 1080" xml:space="preserve"><style type="text/css">.st0{fill-rule:evenodd;clip-rule:evenodd;fill:#23C0EE;}
	.st1{fill-rule:evenodd;clip-rule:evenodd;fill:#044982;}
	.st2{fill-rule:evenodd;clip-rule:evenodd;fill:#3BA7E0;}
	.st3{opacity:5.000000e-02;fill:#23C0EE;enable-background:new    ;}
	.st4{fill:#23C0EE;}
	.st5{opacity:0.1;fill:#35AEE3;enable-background:new    ;}
	.st6{opacity:0.1;fill:#30B9E9;enable-background:new    ;}
	.st7{opacity:0.1;fill:#2CC0EF;enable-background:new    ;}
	.st8{opacity:0.1;fill:#23C0EE;enable-background:new    ;}
	.st9{opacity:0.5;fill:#23C0EE;enable-background:new    ;}
	.st10{fill:#06436D;}
	.st11{fill:#184A7C;}
	.st12{fill:#244370;}
	.st13{opacity:0.1;}
	.st14{fill:none;}
	.st15{opacity:0.6;}
	.st16{fill:#FFFFFF;}
	.st17{fill:#36D8E0;}
	.st18{fill:#79F2EF;}
	.st19{fill:#2CC0EF;}
	.st20{opacity:0.1;fill:#FFFFFF;enable-background:new    ;}
	.st21{opacity:5.000000e-02;fill:#FFFFFF;enable-background:new    ;}
	.st22{opacity:5.000000e-02;fill:#71D5F4;enable-background:new    ;}
	.st23{opacity:0.14;fill:#FFFFFF;enable-background:new    ;}
	.st24{opacity:0.31;fill:#FFFFFF;enable-background:new    ;}</style><g id="bg"><path class="st0" d="M640,646c2.7,6.8-35,31.4-72.1,2.5c-20.7,8.3-27,6.4-31.8,6.2c14.9-4.6,22.6-10.3,22.6-10.3
		c-13.6-5.5-19.5-9.1-19.5-9.1s22,1.6,29.3,6.2C587.8,631.2,621.2,632.2,640,646z"/><path class="st0" d="M706.3,711.6c0.5,7.3-42.9,19.3-69.5-19.3c-22.2,1.6-27.7-2-32.2-3.7c15.6,0.1,24.7-3,24.7-3
		c-11.3-9.4-15.8-14.6-15.8-14.6s20.5,8.2,26,14.8C661,681.7,692.6,692.7,706.3,711.6z"/><path class="st0" d="M740.4,675.8c0.3,4.5-26.2,11.8-42.5-11.8c-13.6,1-16.9-1.2-19.7-2.2c9.5,0.1,15.1-1.8,15.1-1.8
		c-3.4-2.7-6.7-5.7-9.7-8.9c0,0,12.5,5,15.9,9C712.7,657.6,732,664.3,740.4,675.8z"/><path class="st0" d="M836.9,752.7c-2,5.2-35.5-0.5-41.3-35.5c-15.7-6-18.3-10.3-20.8-12.8c10.7,5.1,17.8,5.9,17.8,5.9
		c-4.7-10-6.2-15-6.2-15s11.4,12.2,13.1,18.5C815.5,717.7,833.5,735.4,836.9,752.7z"/><path class="st0" d="M770.8,744.2c-1.3,3.5-23.9-0.4-27.8-23.9c-10.6-4.1-12.3-6.9-14-8.6c3.8,1.9,7.8,3.3,12,4
		c-1.6-3.3-3-6.7-4.1-10.1c0,0,7.6,8.2,8.8,12.4C756.4,720.7,768.5,732.5,770.8,744.2z"/><path class="st0" d="M912,808.3c2.3,2.9-12.4,20.4-34.7,11.8c-8.8,7.1-12.2,7.1-14.5,7.7c3.6-2.3,6.8-5.1,9.5-8.3
		c-3.6-0.2-7.2-0.7-10.8-1.5c0,0,10.9-2.4,15.1-1.3C884.5,808.8,900.8,804.4,912,808.3z"/><path class="st0" d="M920,781.8c1.5,1.8-7.8,12.9-21.9,7.5c-5.6,4.5-7.7,4.5-9.2,4.8c2.3-1.4,4.3-3.2,6-5.2c-2.3-0.2-4.6-0.5-6.8-1
		c0,0,6.9-1.5,9.5-0.8C902.6,782.1,912.9,779.3,920,781.8z"/><path class="st0" d="M976.2,756.5c1.5,1.8-7.8,12.9-21.9,7.5c-5.6,4.5-7.7,4.5-9.2,4.8c2.3-1.4,4.3-3.2,6-5.2
		c-2.3-0.2-4.6-0.5-6.8-1c0,0,6.9-1.5,9.5-0.8C958.8,756.8,969.2,754,976.2,756.5z"/><path class="st0" d="M999.4,788.5c1.5,1.8-7.8,12.9-21.9,7.5c-5.6,4.5-7.7,4.5-9.2,4.9c2.3-1.4,4.3-3.2,6-5.2
		c-2.3-0.2-4.6-0.5-6.8-1c0,0,6.9-1.5,9.5-0.8C982.1,788.8,992.4,786,999.4,788.5z"/><path class="st0" d="M959.1,781.9c1.5,1.8-7.8,12.9-21.9,7.5c-5.6,4.5-7.7,4.5-9.2,4.9c2.3-1.4,4.3-3.2,6-5.2
		c-2.3-0.2-4.6-0.5-6.8-1c0,0,6.9-1.5,9.5-0.8C941.7,782.2,952.1,779.4,959.1,781.9z"/><path class="st0" d="M962.5,803.1c1.5,1.8-7.8,12.9-21.9,7.5c-5.6,4.5-7.7,4.5-9.2,4.9c2.3-1.4,4.3-3.2,6-5.3
		c-2.3-0.2-4.6-0.5-6.8-1c0,0,6.9-1.5,9.5-0.8C945.1,803.4,955.5,800.6,962.5,803.1z"/><path class="st0" d="M1014,765.5c1.5,1.8-7.8,12.9-21.9,7.5c-5.6,4.5-7.7,4.5-9.2,4.9c2.3-1.4,4.3-3.2,6-5.2
		c-2.3-0.2-4.6-0.5-6.8-1c0,0,6.9-1.5,9.5-0.8C996.7,765.8,1007,763,1014,765.5z"/><path class="st0" d="M1058.7,764c1.5,1.8-7.8,12.9-21.9,7.5c-5.6,4.5-7.7,4.5-9.2,4.9c2.3-1.4,4.3-3.2,6-5.2
		c-2.3-0.2-4.6-0.5-6.8-1c0,0,6.9-1.5,9.6-0.8C1041.3,764.3,1051.6,761.6,1058.7,764z"/><path class="st1" d="M133,761.5c6.4,3.5-6.6,46.6-53.5,48.4c-10.6,19.7-16.5,22.3-20.3,25.3c8.4-13.2,10.7-22.5,10.7-22.5
		c-14,4.6-20.8,5.6-20.8,5.6s17.9-12.9,26.4-14.1C83.5,783.8,109.7,763.1,133,761.5z"/><path class="st1" d="M249,764.9c5.1,5.2-20.4,42.4-65.6,29.9c-16,15.6-22.5,16.3-27,17.9c12-10,17-18.2,17-18.2
		c-14.7,0.1-21.5-1-21.5-1s20.9-6.9,29.4-5.5C195.1,771.2,226.3,759.3,249,764.9z"/><path class="st1" d="M228.9,719.7c3.1,3.2-12.4,25.9-40.1,18.3c-9.8,9.5-13.7,9.9-16.5,11c7.3-6.1,10.4-11.1,10.4-11.1
		c-4.4,0.1-8.8-0.1-13.1-0.6c0,0,12.8-4.2,18-3.3C196,723.6,215.1,716.3,228.9,719.7z"/><path class="st1" d="M321.3,717.3c1.8,5.2-27.5,22.4-54.5-0.6c-15.9,5.5-20.6,3.9-24.2,3.6c11.4-3,17.4-7,17.4-7
		c-10.1-4.6-14.4-7.5-14.4-7.5s16.5,2,21.9,5.7C282.4,704.3,307.6,706.2,321.3,717.3z"/><path class="st1" d="M339.4,759c1.2,3.5-18.5,15.1-36.6-0.4c-10.7,3.7-13.9,2.6-16.3,2.4c4.1-1,8.1-2.5,11.7-4.7
		c-3.3-1.5-6.6-3.2-9.7-5.1c0,0,11.1,1.4,14.7,3.8C313.2,750.3,330.1,751.6,339.4,759z"/><path class="st1" d="M1649,462.4c-4.2,2.2,4.3,30.3,34.8,31.5c6.9,12.8,10.8,14.5,13.2,16.4c-5.5-8.5-7-14.6-7-14.6
		c4.4,1.5,8.9,2.7,13.5,3.6c0,0-11.6-8.4-17.2-9.2C1681.2,476.9,1664.1,463.4,1649,462.4z"/><path class="st1" d="M1573.5,464.6c-3.3,3.4,13.2,27.6,42.7,19.5c10.4,10.1,14.6,10.6,17.6,11.7c-7.8-6.5-11-11.8-11-11.8
		c4.7,0.1,9.4-0.1,14-0.6c0,0-13.6-4.5-19.1-3.5C1608.6,468.7,1588.3,461,1573.5,464.6z"/><path class="st1" d="M1586.6,435.3c-2,2.1,8.1,16.8,26.1,11.9c6.3,6.2,8.9,6.5,10.7,7.1c-2.6-2.1-4.9-4.5-6.8-7.2
		c2.9,0.1,5.7,0,8.6-0.4c0,0-8.3-2.7-11.7-2.2C1608,437.8,1595.6,433,1586.6,435.3z"/><path class="st1" d="M1526.5,433.6c-1.2,3.4,17.9,14.6,35.4-0.4c10.4,3.6,13.4,2.5,15.8,2.3c-4-0.9-7.8-2.4-11.3-4.5
		c3.2-1.4,6.4-3.1,9.4-4.9c0,0-10.7,1.3-14.2,3.7C1551.8,425.2,1535.4,426.4,1526.5,433.6z"/><path class="st1" d="M1514.8,460.8c-0.8,2.3,12,9.8,23.8-0.3c7,2.4,9,1.7,10.6,1.6c-2.7-0.6-5.2-1.7-7.6-3c2.2-0.9,4.3-2.1,6.3-3.3
		c0,0-7.2,0.9-9.6,2.5C1531.7,455.1,1520.7,456,1514.8,460.8z"/><path class="st2" d="M1692.2,267.3c-4.2,2.2,4.3,30.3,34.8,31.5c6.8,12.8,10.8,14.5,13.2,16.4c-5.5-8.5-7-14.6-7-14.6
		c4.4,1.5,8.9,2.8,13.5,3.6c0,0-11.6-8.4-17.2-9.2C1724.4,281.8,1707.3,268.3,1692.2,267.3z"/><path class="st2" d="M1616.8,269.5c-3.3,3.4,13.2,27.6,42.7,19.5c10.4,10.1,14.6,10.6,17.6,11.7c-7.8-6.5-11-11.8-11-11.8
		c4.7,0.1,9.4-0.1,14-0.6c0,0-13.6-4.5-19.1-3.6C1651.8,273.6,1631.5,265.9,1616.8,269.5z"/><path class="st2" d="M1629.8,240.1c-2,2.1,8.1,16.8,26.1,11.9c6.3,6.2,8.9,6.5,10.7,7.1c-2.6-2.1-4.9-4.5-6.7-7.2
		c2.9,0.1,5.7,0,8.5-0.4c0,0-8.3-2.7-11.7-2.2C1651.2,242.6,1638.8,237.9,1629.8,240.1z"/><path class="st2" d="M1569.8,238.5c-1.2,3.4,17.9,14.6,35.4-0.4c10.3,3.6,13.4,2.5,15.8,2.3c-4-0.9-7.8-2.4-11.3-4.5
		c3.2-1.4,6.4-3.1,9.4-4.9c0,0-10.8,1.3-14.2,3.7C1595.1,230.1,1578.7,231.3,1569.8,238.5z"/><path class="st2" d="M1558,265.7c-0.8,2.3,12,9.8,23.8-0.3c7,2.4,9,1.7,10.6,1.6c-2.7-0.6-5.3-1.6-7.6-3c2.2-0.9,4.3-2.1,6.3-3.3
		c0,0-7.2,0.9-9.6,2.5C1575,260,1564,260.8,1558,265.7z"/><path class="st1" d="M1161.9,452c-4.2,2.2,4.3,30.3,34.8,31.5c6.9,12.8,10.8,14.5,13.2,16.4c-5.5-8.5-7-14.6-7-14.6
		c4.4,1.5,8.9,2.8,13.5,3.6c0,0-11.6-8.4-17.2-9.2C1194.1,466.5,1177.1,453,1161.9,452z"/><path class="st1" d="M1086.5,454.2c-3.3,3.4,13.2,27.6,42.7,19.5c10.4,10.1,14.6,10.6,17.6,11.7c-7.8-6.5-11-11.8-11-11.8
		c4.7,0.1,9.4-0.1,14-0.6c0,0-13.6-4.5-19.1-3.6C1121.6,458.3,1101.2,450.6,1086.5,454.2z"/><path class="st1" d="M1099.5,424.8c-2,2.1,8.1,16.8,26.1,11.9c6.3,6.2,8.9,6.5,10.7,7.1c-2.6-2-4.9-4.5-6.7-7.2
		c2.9,0.1,5.7,0,8.5-0.4c0,0-8.3-2.7-11.7-2.2C1121,427.3,1108.5,422.6,1099.5,424.8z"/><path class="st1" d="M1039.5,423.2c-1.2,3.4,17.9,14.6,35.4-0.4c10.3,3.6,13.4,2.5,15.8,2.3c-4-0.9-7.8-2.5-11.3-4.5
		c3.2-1.4,6.4-3,9.4-4.9c0,0-10.8,1.3-14.2,3.7C1064.8,414.8,1048.4,416,1039.5,423.2z"/><path class="st1" d="M1027.7,450.4c-0.8,2.3,12,9.8,23.8-0.3c7,2.4,9,1.7,10.6,1.6c-2.7-0.6-5.2-1.6-7.6-3c2.2-0.9,4.3-2.1,6.3-3.3
		c0,0-7.2,0.9-9.6,2.5C1044.7,444.7,1033.7,445.5,1027.7,450.4z"/><path class="st0" d="M423,345.3c-0.3,4.3,27.6,11.9,44.3-11.1c14.2,1.1,17.7-1.1,20.6-2c-10,0-15.8-2-15.8-2
		c3.5-2.6,6.8-5.5,10-8.6c0,0-12.9,4.7-16.5,8.5C451.7,327.8,431.6,334.1,423,345.3z"/><path class="st0" d="M386.2,341.3c0.9,4.2,29.8,4.1,39.6-22.6c14-2.7,16.8-5.8,19.3-7.4c-9.6,2.7-15.8,2.3-15.8,2.3
		c2.7-3.5,5.1-7.1,7.3-10.9c0,0-11.2,8-13.5,12.6C409,316.8,391.4,328.3,386.2,341.3z"/><path class="st0" d="M492.7,338.6c-1.6,4,22.7,19.7,45.5,2.8c13.2,5.4,17.2,4.3,20.2,4.3c-9.5-3-14.5-6.7-14.5-6.7
		c4.1-1.4,8.2-3.2,12.1-5.2c0,0-13.7,0.6-18.3,3.2C525.3,330.5,504.2,330.5,492.7,338.6z"/><path class="st0" d="M460.5,299.2c-0.2,2.4,15.3,7.2,25.1-5.4c8,0.9,10-0.3,11.6-0.7c-3,0-6-0.5-8.9-1.4c2-1.4,4-3,5.8-4.6
		c0,0-7.4,2.4-9.4,4.5C477,289.9,465.6,293.1,460.5,299.2z"/><path class="st0" d="M395.2,249.6c-0.4,3.9,24.5,11.6,40.2-8.6c12.8,1.4,16-0.4,18.6-1.1c-9-0.3-14.2-2.3-14.2-2.3
		c3.2-2.2,6.3-4.7,9.2-7.4c0,0-11.8,3.9-15.1,7.2C421.5,234.7,403.2,239.8,395.2,249.6z"/><path class="st0" d="M349.4,269.6c-0.3,2.5,15.5,7.3,25.5-5.5c8.1,0.9,10.1-0.3,11.8-0.7c-3.1,0-6.1-0.5-9-1.5c2.1-1.4,4-3,5.9-4.7
		c0,0-7.5,2.4-9.5,4.6C366.1,260.2,354.5,263.4,349.4,269.6z"/><path class="st3" d="M1133.8,394.5c-4.8,10.9-17.1,18.1-28.9,24.4c-13.1,6.9-26.4,13.4-39.9,19.6c-6,2.8-12.1,5.4-18.2,8
		c-5.4,2.3-10.9,4.6-16.4,6.8c-8.7,3.5-17.5,6.8-26.3,10c-19.4,7-39.1,13.2-59.2,18.8c-14.8,4.1-29.7,7.8-44.8,11
		c-2.6,0.6-5.2,1.1-7.8,1.7c-20.8,4.3-41.8,7.8-63,10.6c-87.2,11.2-176.5,8.2-261.6-11.4c-39.8-9.2-78.4-21.8-119-28.3
		c-92.9-14.9-187.7,3.1-282.2,13.8c-14.1,1.6-28.2,3-42.3,4.1c-1.9,0.2-3.8,0.3-5.6,0.4c-34.8,2.6-69.4,3.2-103.9-0.1
		c-4.8-0.5-9.6-1-14.4-1.6V126.9c14.8,23.1,32.6,44.7,53.1,63.7c8.4,7.8,17.2,15.1,26.5,22c33.9,25.1,73.6,43.7,118.4,52.4
		c41.8,8.2,85.4,7.5,127.4,14.6c20.4,3.5,40.2,8.7,59.5,14.9c2.1,0.7,4.1,1.3,6.2,2c12.4,4.1,24.6,8.6,36.8,13.3
		c1.1,0.4,2.2,0.9,3.4,1.3c1.8,0.7,3.5,1.4,5.3,2c1.1,0.5,2.3,0.9,3.4,1.4c10.3,4,20.5,8.1,30.8,12.1c1.3,0.5,2.6,1,3.9,1.5
		c3.5,1.4,7,2.7,10.6,4.1c0.4,0.1,0.8,0.3,1.2,0.5c3.3,1.2,6.6,2.5,9.9,3.7c10.2,3.8,20.5,7.4,30.9,10.8c8.6,2.8,17.2,5.3,26,7.6
		c31.6,8.3,63.7,13.2,96,15.5c12.4,0.9,24.7,1.4,37.2,1.7c58.7,1.1,118.3-4.6,178.1-11.2c30.8-3.4,61.6-7.1,92.4-10.2
		c16.6-1.7,33.2-3.2,49.7-4.4c13.3-1,26.7-1.8,40-2.3c4-0.2,8-0.3,12-0.4c17.2-0.2,34.6,1,49.8,7.5
		C1127.3,359.1,1141,378,1133.8,394.5z"/><path class="st4" d="M0,505.6v85.2h0L0,505.6C0,505.6,0,505.6,0,505.6z"/><path class="st5" d="M1920,431v236.2c-89.3-14.9-175.2-48.9-261.3-79.8c-35.2-12.7-70.5-24.8-106-35
		c-62.2-17.8-125.2-29.3-190.2-26.4c-91.2,4-175.4,35.7-257.4,76.4c-4.2,2.1-8.4,4.2-12.6,6.3c-7.6,3.8-15.2,7.8-22.7,11.8
		c-3.3,1.7-6.6,3.5-9.9,5.3l-4.1,2.2c-71.7,38.4-142.3,80.8-215.3,114.6c-22.7,10.5-45.8,20.2-69.2,29.3c-2.9,1.1-5.8,2.2-8.6,3.3
		l-0.7,0.3l-1,0.4l-0.4,0.2c-2.9,1.1-5.8,2.2-8.8,3.3l0,0c-48,17.8-97,33-146.2,47c-44.8,12.8-90.2,24.6-136.3,30.3l-3.1,0.4
		c-3.1,0.4-6.3,0.7-9.5,1c-2.9,0.3-5.8,0.5-8.6,0.8c-8.4,0.7-16.8,1.1-25.2,1.3c-8,0.2-16,0.1-24-0.2c-3.3-0.1-6.6-0.2-9.9-0.4
		c-21.3-1.2-42.5-3.6-63.5-7.2l-3.7-0.6c-22.6-3.9-45-8.8-67.4-14.2l-1.2-0.3c-17.6-4.2-35-8.7-52.4-13.2l-7-1.7l-5.2-1.4
		c-10.3-2.7-20.7-5.4-31.1-8.2l0,0l-0.5-0.2l0,0c-14.8-4-29.5-8.2-44.2-12.8c-9.7-3-19.3-6.2-28.9-9.5c-29-10-57.3-21.7-83.9-36
		v-61.9c24.8,11.8,50.5,21.5,76.9,28.9c33.7,9.7,68.2,16.2,103.1,20.5l4.4,0.5c37.2,4.5,74.8,6.6,112.1,7.6
		c69.8,1.9,140.2,0.4,209.4-8.8c18.9-2.5,37.7-5.7,56.4-9.4c18.1-3.7,36.1-8,54-13c90.1-25.5,173.4-68.4,255.8-113.5l9.1-5l19-10.4
		l10.3-5.7c9.5-5.2,18.9-10.4,28.4-15.6l10.4-5.7c16.2-8.8,32.5-17.5,48.8-26.1c43-22.4,87.5-43.5,133.1-60.9l4.7-1.8l0.6-0.2
		c2.2-0.8,4.5-1.7,6.8-2.5c6.8-2.5,13.6-4.9,20.4-7.2c5.5-1.9,11-3.7,16.6-5.4c72.4-22.6,147.1-34.1,222.2-25.5
		c39.5,4.5,78.1,14.6,116.6,25.3l16.3,4.6l0,0c14.2,4,28.4,8,42.6,11.7c15.2,4,30.5,7.7,45.8,10.8c19.8,4.2,39.9,7,60.1,8.6l0,0
		c0.8,0.1,1.5,0.1,2.3,0.2c3.5,0.2,6.9,0.4,10.4,0.5C1775.2,497.7,1854.6,474.8,1920,431z"/><path class="st6" d="M1920,0v310.3c-0.6,0.8-1.3,1.5-2,2.3c-15,16.3-38.3,21.7-60.3,23.9c-26.5,2.7-53.2,2.1-80,1.7
		c-4-0.1-8-0.1-12-0.2c-31.7-0.4-63.2,0.1-94,7.2c-37.1,8.5-71.4,26.2-107.7,37.7c-36.9,11.6-75.6,16.8-114.3,15.1
		c-29.9-1.3-64.5-10.1-76.3-37.6c-0.5-1.3-1-2.6-1.4-3.9c-1-3.1-1.7-6.3-2-9.6c-2-19.8,8.2-40.7,23.3-54.4
		c18.6-16.9,43.2-25.3,67-33.3c112.7-37.8,227.6-76.8,321.9-149.2c39.8-30.6,75-67.8,102.3-110L1920,0z"/><path class="st7" d="M1558.7,113.8c-58.6,36.4-132.2,50.6-198.8,31.9c-8.7-2.4-17.6-5.7-23.4-12.5c-5.8-6.8-7.4-18.2-0.9-24.5
		c4.5-4.4,11.3-5.1,17.6-5.6c61.1-5,108-17.4,164.7-38.1c0.2-0.1,0.9-0.4,1.9-1c14-7.8,30.7-8.7,45.5-2.6l0,0c3,1.3,6.1,2.4,9.3,3.1
		c4.1,0.9,7.6,3.9,9,8v0C1589.2,89,1573.5,104.6,1558.7,113.8z"/><path class="st7" d="M815.7,40.6c7.8,11.6,19.6,20.1,33.1,23.8c20.8,5.6,43.2-0.7,64.4,3.2c9.8,1.8,19.1,5.7,29,6.7
		s21.1-1.4,26.7-9.7c8.9-13.2-2.9-32-17.9-37.3c-29-10.1-56.9-1.3-86.3-13.4C843.8,5.3,789.9,2.1,815.7,40.6z"/><path class="st8" d="M230.6,18.7c-7.4,4.5-14.9,9.6-19,17.2c-8,14.8-0.8,33.4,9.7,46.6s24.1,24.2,31.3,39.4
		c4.7,10,6.4,21.1,10.1,31.5s10.3,20.8,20.7,24.4c14.5,5.1,30.3-5,39-17.6c15.4-22.2,16-53.8,1.5-76.6C317.1,73,306.7,64.8,300.1,54
		c-6-9.9-6.2-28.1-12-35.8C274.1-0.1,249.4,7.4,230.6,18.7z"/><path class="st9" d="M369.6,159.8c-9.1-1.9-20.3-3.2-26.3,3.9c-5.5,6.6-3,17.3,3.5,22.9s15.5,7.2,24,7.5c3.7,0.1,7.6,0,11-1.5
		c8.3-3.6,11.4-14.8,7.6-23s-13-12.9-22-13.2L369.6,159.8z"/><path class="st8" d="M587.2,553.9c0.1,12.9-11.5,22.5-22.5,29.1c-56.2,34.1-125.3,43.1-190.4,33.8c-25.2-3.6-50.2-9.8-75.6-9
		c-37.4,1.2-72.6,17.4-109.5,23.3c-26,4.1-52.3,3.2-78.6,0.3c-1.5-0.2-3-0.3-4.6-0.5c-10.4-1.2-20.7-2.7-31-4.3
		C49.7,622.7,23.8,618.1,0,609V505.6c0,0,0,0,0,0c22.4,9.5,45.9,16.2,70,19.9c53.2,8.1,108.2,1.5,160.5,13.8
		c18.3,4.3,36,10.8,54.5,14.1c22.3,3.9,45.1,3,67.7,0.9c38.9-3.7,77.3-10.9,114.9-21.5c34.2-9.7,72.9-21.7,103.1-3.1
		C579.5,535,587.2,543.7,587.2,553.9z"/></g><g id="ground_bg"><path class="st10" d="M484.4,969c-3.6-10.8-9.6-21.5-8-32.7c0.5-3.1,1.5-6.2,2-9.4c0,0,0,0,0,0c0.2-1.1,0.2-2.2,0.2-3.3
		c-0.1-4.3-3.2-9-7.5-8.9c-4,0.1-6.6,4.1-8.4,7.7c-1.2-4.8-2.3-9.6-3.5-14.3c-4,2.8-7.6,6.2-10.6,10.1c-0.1-2.8-0.7-5.5-1.8-8v0
		c-0.1-0.2-0.2-0.4-0.3-0.7c-0.9-2-2.2-3.8-3.6-5.4c0,0,0,0,0,0c0,0,0,0-0.1,0c0,0,0,0,0,0c-0.1-0.1-0.2-0.2-0.2-0.2l0,0l-0.3-0.3
		c-0.4,0.5-0.7,1.2-0.9,1.8c0,0.1-0.1,0.2-0.1,0.4c0,0,0,0,0,0h0c0,0,0,0.1,0,0.1c-0.2,0.7-0.3,1.4-0.4,2.1c0,0.1,0,0.2,0,0.3
		c0,0.1,0,0.3,0,0.4c0,0.1,0,0.2,0,0.4v0c0,0.1,0,0.2,0,0.3v0c0,0.6,0.2,1.1,0.3,1.6l0,0.1l0,0.1l4.8,10l1.5,3.1l4.2,8.6l30.7,63.8
		l0,0c0,0,0,0,0,0C486.9,989.7,488.1,980.5,484.4,969z M482.2,996.6l-30.8-63.8l-4.2-8.6l-1.5-3.1l-4.8-10l0-0.1v0
		c-0.2-0.4-0.3-0.8-0.5-1.1l0-0.1l-0.2-0.4c0,0,0,0,0,0c0,0-0.1-0.1-0.1-0.1c0,0,0,0,0-0.1c-0.2-0.5-0.5-1-0.8-1.4c0,0,0,0,0,0
		c-0.1-0.1-0.2-0.3-0.2-0.4l0,0l0-0.1c0,0,0,0,0,0c-1.4-2.5-3.2-4.8-5.1-7l0,0c-0.6-0.6-1.2-1.3-1.8-1.8c0,0,0,0,0,0l-1.2-1.1
		c-2,3.8-3.1,8.1-3.1,12.4c-0.9-6.3-3.9-12.2-8.5-16.5c-3.5,2.5-6.3,5.8-8.4,9.6c-1.7-13.6-5.2-26.9-10.4-39.6
		c-0.5-1.1-1-2.3-1.5-3.4c0,0,0,0,0,0c-1.3-3-2.8-6-4.3-9c-2,2.8-3.8,5.6-5.6,8.6c0,0,0,0,0,0c-0.9,1.6-1.8,3.1-2.7,4.7
		c-6.3,11.5-10.9,23.7-13.8,36.5c0.1-6.2-2.1-12.2-6.2-16.9l-5.2,11.1c1-5.4-4.1-10.9-9.5-10.4c-0.8,4.6-1.6,9.1-2.4,13.7
		c-0.3-6.3-2.6-12.4-6.5-17.4c-3.3,2.3-5.8,5.6-7.1,9.5c-0.4-7.6-1.7-15.2-4-22.5c-1.6-5.3-3.7-10.4-6.3-15.4c0,0,0,0,0,0
		c-1-2-2.2-4-3.4-6c-0.1,1.8-0.2,3.6-0.3,5.4c-0.3,5.6-0.7,11.1-1,16.7c-0.7,11.5-1.4,22.9-2.1,34.4c-1.8-4-4.8-7.2-8.7-9.2
		c-1.8,3.1-2.6,6.7-2.1,10.2c-1.7-4.6-4.3-8.8-7.6-12.4c-2.1,5.1-4.1,10.3-6.1,15.4c-0.4-4-3-7.5-6.7-9.1c-0.8,2.4-1.6,4.9-2.3,7.3
		c-1.1-2.6-2.7-5-4.7-7l-5.8,5.7l-2.5-8.9l-9.4,12.9c2.5-23.7-0.3-47.6-8.2-70.1c0,0,0,0,0,0c-0.2-0.6-0.4-1.2-0.6-1.8
		c-0.2,0.5-0.3,1-0.5,1.5c0,0,0,0,0,0c-3.8,11.4-5,23.6-6,35.7c-1.4,16.8-2.4,33.7-9.5,48.8l-6.7-7.8l-4.3,6.4
		c-0.4-3.2-2.5-6-5.5-7.3l-4.1,9.3c-0.6-5.7-3.2-10.9-7.2-15l-6.5,11.3c-0.3-9.8-2.5-19.5-6.4-28.5c-8.7,7.3-13.8,21-16.1,31.7
		c-0.8-7.9-2.6-15.7-5.3-23.2c-0.3,1.9-0.7,3.7-1,5.6c0.2-7-4.9-14.2-11.9-15.5c-1.4,3.9-2.8,7.9-4.2,11.8
		c-1.7-7.6-4.8-14.9-9.1-21.4l-0.3-0.5l-0.7,0.5l-9.8,8.3c0-2.5-0.1-5.1-0.4-7.6c-0.6-4.4-1.7-8.7-3.3-12.8c-1.3,3.3-2.7,6.6-4,9.9
		c0.3-5.8-1.1-11.6-4.1-16.6c-3,2.1-5.1,5.3-5.7,8.9l-4.6-12.6l-5.8,13.7c-0.1-15.5-0.8-31.1-2.1-46.6c-0.7-0.4-1.6-0.6-2.4-0.7
		c-0.1,0-0.2,0-0.3,0c-0.5,0-1,0.1-1.5,0.2h0c-3.2,0.9-6,4.2-7.9,7.7c-0.2,0.4-0.5,0.9-0.7,1.3c-0.2,0.5-0.4,1-0.6,1.4
		c-4.9,12.8-8.4,26.2-10.4,39.8l-5-11.4c-3,4.6-4.9,9.8-5.7,15.3c-2.4-4.5-5.9-8.2-10.2-11c-4,3.2-6.4,8-6.5,13.2
		c-1.4-7.7-4.8-14.8-9.9-20.7l-7.3,14l-5.5-24.4c-3.1,7-5.2,14.3-6.3,21.9c-2-17.9-6.4-35.4-13.3-52.1c-4.8,16-4.9,33-0.2,49
		L4.1,852.1c-1.1,12-2,23.9-2.5,35.9c-0.5,9.9-0.8,19.7-0.9,29.6c-0.1,2.6-0.1,5.2-0.1,7.8c0,4.3-0.3,9.4-0.6,14.8
		c-0.4,6.9-0.9,14.4-0.9,21.7c0,4.9,0.2,9.8,0.9,14.7c0.5,3.7,1.4,7.3,2.7,10.7c12.1,29.5,84.8,33.7,111.7,35
		c40.9,2,81.8-2.5,122.8-4.8c72.5-3.9,145.4-0.5,217.7-7.3C467.1,1009.1,477,1004.4,482.2,996.6L482.2,996.6z"/><path class="st10" d="M481.6,839.9c-26.2,32.8-57.9,86.9-59.9,158.7c0,0.6-0.5,1.1-1.1,1.1c0,0,0,0,0,0h-0.1
		c-0.2,0-0.3-0.1-0.5-0.1c-0.4-0.2-0.6-0.6-0.6-1c2-72.4,34-126.9,60.5-160L481.6,839.9z"/><path class="st10" d="M429.7,925.5c1.8,8.5,1.1,18.2-2.2,18.9s-8.1-8.2-10-16.7s-0.1-13.3,3.3-13.9S427.9,917.1,429.7,925.5z"/><path class="st10" d="M438,928.7c-6.9,5.2-12.7,13-10.5,15.7s11.5-0.8,18.3-5.9s8.7-10,6.5-12.7S444.9,923.5,438,928.7z"/><path class="st10" d="M428.7,932.9c1.2,5.4,0.7,11.6-1.4,12s-5.2-5.2-6.4-10.6s0-8.5,2.1-8.9S427.5,927.5,428.7,932.9z"/><path class="st10" d="M434,934.9c-4.4,3.3-8.1,8.3-6.7,10s7.3-0.5,11.6-3.8s5.5-6.4,4.2-8.1S438.3,931.6,434,934.9z"/><path class="st10" d="M442.5,893.2c1,7.8-0.4,16.5-3.5,16.8s-6.7-8-7.7-15.7s1-12,4.1-12.3S441.5,885.4,442.5,893.2z"/><path class="st10" d="M449.8,896.6c-6.6,4.1-12.5,10.7-10.8,13.3s10.4,0.2,17-4s8.6-8.3,6.9-11S456.4,892.5,449.8,896.6z"/><path class="st10" d="M441,899.7c0.6,4.9-0.3,10.5-2.2,10.7s-4.3-5.1-4.9-10s0.6-7.6,2.6-7.8S440.4,894.8,441,899.7z"/><path class="st10" d="M445.6,901.9c-4.2,2.6-8,6.8-6.9,8.5s6.6,0.1,10.8-2.5s5.5-5.3,4.4-7S449.8,899.3,445.6,901.9z"/><path class="st10" d="M458,864c0.5,7-1.1,14.7-3.9,14.8s-5.6-7.4-6.2-14.4s1.4-10.7,4.2-10.8S457.5,857,458,864z"/><path class="st10" d="M464.4,867.3c-6.1,3.4-11.7,9.1-10.2,11.5s9.3,0.6,15.4-2.8s8.1-7.1,6.7-9.5S470.5,863.9,464.4,867.3z"/><path class="st10" d="M476.2,840.7c-0.9,6-3.9,12.4-6.4,11.9s-3.4-7.4-2.5-13.5s3.4-8.8,5.8-8.4S477.1,834.6,476.2,840.7z"/><path class="st10" d="M481,844.8c-6,1.7-11.9,5.5-11.2,7.8s8,2.3,13.9,0.6s8.5-4.5,7.7-6.8S487,843,481,844.8z"/><path class="st10" d="M700.4,824.6c26.2,32.8,57.9,86.9,59.9,158.6c0,0.6,0.5,1.1,1.1,1.1c0,0,0,0,0,0h0.1c0.6,0,1.1-0.5,1.1-1.1
		c-2-72.3-34-126.9-60.5-160L700.4,824.6z"/><path class="st10" d="M752.3,910.3c-1.8,8.5-1.1,18.2,2.2,18.9s8.1-8.2,10-16.7s0.1-13.3-3.3-13.9S754.1,901.8,752.3,910.3z"/><path class="st10" d="M744,913.4c6.9,5.2,12.7,13,10.5,15.7s-11.5-0.8-18.3-5.9s-8.7-10-6.5-12.7S737.1,908.3,744,913.4z"/><path class="st10" d="M753.3,917.6c-1.2,5.4-0.7,11.6,1.4,12s5.2-5.2,6.3-10.6s0-8.5-2.1-8.9S754.5,912.2,753.3,917.6z"/><path class="st10" d="M748,919.6c4.4,3.3,8.1,8.3,6.7,10s-7.3-0.5-11.7-3.8s-5.5-6.4-4.2-8.1S743.6,916.3,748,919.6z"/><path class="st10" d="M739.5,877.9c-1,7.8,0.4,16.5,3.5,16.8s6.7-8,7.7-15.7s-1-12-4.1-12.3S740.5,870.2,739.5,877.9z"/><path class="st10" d="M732.2,881.4c6.6,4.1,12.5,10.8,10.8,13.3s-10.4,0.2-17-4s-8.6-8.4-6.9-11S725.6,877.2,732.2,881.4z"/><path class="st10" d="M741,884.5c-0.6,4.9,0.3,10.5,2.2,10.7s4.3-5.1,4.9-10s-0.7-7.6-2.6-7.8S741.6,879.5,741,884.5z"/><path class="st10" d="M736.3,886.6c4.2,2.6,8,6.8,6.8,8.5s-6.6,0.1-10.8-2.5s-5.5-5.3-4.4-7S732.2,884,736.3,886.6z"/><path class="st10" d="M724,848.7c-0.5,6.9,1.1,14.7,3.9,14.8s5.7-7.4,6.2-14.4s-1.4-10.7-4.2-10.8S724.5,841.7,724,848.7z"/><path class="st10" d="M717.6,852.1c6.1,3.4,11.7,9.1,10.2,11.5s-9.3,0.6-15.4-2.8s-8.1-7.1-6.7-9.5S711.5,848.7,717.6,852.1z"/><path class="st10" d="M705.8,825.4c0.9,6,3.9,12.4,6.4,11.9s3.4-7.4,2.5-13.5s-3.4-8.8-5.8-8.4S704.8,819.3,705.8,825.4z"/><path class="st10" d="M701,829.5c6,1.7,11.9,5.5,11.2,7.8s-8,2.3-13.9,0.6s-8.5-4.5-7.7-6.8S695,827.8,701,829.5z"/><path class="st10" d="M757.9,767c12.9,40,23.2,101.8-0.4,169.6c-0.2,0.6,0.1,1.2,0.7,1.4l0,0c0.2,0,0.3,0,0.5,0
		c0.5,0,0.8-0.3,1-0.8c23.8-68.3,13.3-130.7,0.3-171L757.9,767z"/><path class="st10" d="M776,865.5c-4.7,7.2-7.5,16.7-4.6,18.4s10.5-4.8,15.2-12s4.8-12.5,1.9-14.2S780.7,858.3,776,865.5z"/><path class="st10" d="M767.1,865.5c4.6,7.3,7.2,16.7,4.3,18.4s-10.4-4.8-15-12.1s-4.6-12.5-1.6-14.2S762.5,858.2,767.1,865.5z"/><path class="st10" d="M774.3,872.7c-3,4.6-4.8,10.6-2.9,11.7s6.7-3,9.7-7.6s3.1-7.9,1.2-9S777.3,868.1,774.3,872.7z"/><path class="st10" d="M768.7,872.7c2.9,4.6,4.6,10.6,2.7,11.7s-6.6-3.1-9.5-7.7s-2.9-7.9-1-9S765.7,868.1,768.7,872.7z"/><path class="st10" d="M775.5,830.7c-3.7,6.9-5.5,15.6-2.7,17s9.1-5.1,12.8-12s3.3-11.6,0.5-13S779.2,823.8,775.5,830.7z"/><path class="st10" d="M767.5,831.4c4.7,6.2,7.9,14.5,5.3,16.3s-9.8-3.6-14.5-9.8s-5.1-10.9-2.6-12.7S762.8,825.2,767.5,831.4z"/><path class="st10" d="M774.6,837.4c-2.3,4.4-3.5,9.9-1.7,10.8s5.8-3.2,8.1-7.6s2.1-7.4,0.3-8.2S776.9,833,774.6,837.4z"/><path class="st10" d="M769.5,837.8c3,4,5,9.2,3.4,10.4s-6.2-2.3-9.2-6.2s-3.2-6.9-1.6-8.1S766.5,833.8,769.5,837.8z"/><path class="st10" d="M771.4,797.9c-3,6.3-4.2,14.1-1.7,15.2s7.9-4.9,10.9-11.2s2.5-10.5-0.1-11.6S774.4,791.6,771.4,797.9z"/><path class="st10" d="M764.3,798.8c4.5,5.3,7.7,12.6,5.5,14.3s-8.9-2.8-13.4-8.1s-5-9.5-2.9-11.2S759.8,793.4,764.3,798.8z"/><path class="st10" d="M762.7,769.6c-1.3,6-0.7,13,1.7,13.4s5.8-5.7,7.1-11.7s0-9.5-2.5-9.9S763.9,763.7,762.7,769.6z"/><path class="st10" d="M756.7,771.8c5,3.7,9.2,9.4,7.7,11.3s-8.2-0.7-13.2-4.4s-6.3-7.2-4.8-9.1S751.7,768,756.7,771.8z"/><path class="st10" d="M1350.2,779c2.3,41.9-3.3,104.4-43.3,164c-0.3,0.5-0.2,1.2,0.3,1.5c0,0,0,0,0,0h0.1c0.1,0.1,0.3,0.2,0.5,0.2
		c0.4,0.1,0.9-0.1,1.1-0.5c40.4-60.1,46-123.1,43.7-165.4L1350.2,779z"/><path class="st10" d="M1342.8,878.9c-6.4,5.8-11.5,14.2-9.1,16.7s11.4-2,17.8-7.8s7.8-10.8,5.4-13.3S1349.2,873.1,1342.8,878.9z"/><path class="st10" d="M1334.2,876.6c2.6,8.2,2.8,18-0.5,18.9s-8.9-7.3-11.5-15.5s-1.2-13.2,2.1-14.2S1331.6,868.5,1334.2,876.6z"/><path class="st10" d="M1339.3,885.5c-4.1,3.7-7.3,9-5.8,10.6s7.2-1.2,11.3-4.9s5-6.9,3.4-8.5S1343.4,881.8,1339.3,885.5z"/><path class="st10" d="M1333.9,884c1.7,5.2,1.8,11.4-0.4,12s-5.6-4.6-7.3-9.8s-0.8-8.4,1.3-9S1332.2,878.8,1333.9,884z"/><path class="st10" d="M1351.1,845.1c-5.3,5.7-9.2,13.7-6.9,15.7s10.1-2.6,15.4-8.3s6.2-10.3,3.8-12.4S1356.4,839.4,1351.1,845.1z"/><path class="st10" d="M1343.2,843.7c3,7.2,3.9,16,1,17.1s-8.6-5.9-11.6-13.1s-2.2-11.8,0.7-12.9S1340.2,836.5,1343.2,843.7z"/><path class="st10" d="M1348.6,851.3c-3.4,3.6-5.9,8.7-4.4,10s6.4-1.7,9.8-5.3s3.9-6.6,2.4-7.9S1351.9,847.7,1348.6,851.3z"/><path class="st10" d="M1343.5,850.4c1.9,4.6,2.5,10.2,0.6,10.9s-5.5-3.8-7.4-8.3s-1.4-7.5,0.4-8.2S1341.6,845.8,1343.5,850.4z"/><path class="st10" d="M1355.5,812.3c-4.5,5.3-7.7,12.6-5.5,14.3s8.9-2.8,13.4-8.1s5-9.5,2.8-11.2S1360,807,1355.5,812.3z"/><path class="st10" d="M1348.3,811.4c3,6.3,4.2,14.2,1.7,15.2s-7.9-4.9-10.9-11.2s-2.5-10.5,0.1-11.6S1345.4,805.1,1348.3,811.4z"/><path class="st10" d="M1354.2,782.8c-2.8,5.5-4,12.3-1.7,13.4s7.1-4.1,9.8-9.5s2.4-9.2,0.1-10.2S1356.9,777.3,1354.2,782.8z"/><path class="st10" d="M1347.9,783.3c3.9,4.9,6.5,11.4,4.6,12.8s-7.8-2.8-11.7-7.6s-4.3-8.6-2.3-10S1344,778.5,1347.9,783.3z"/><path class="st10" d="M1415.5,860.8c2.7-22.6,9.3-46,25.7-61.8c1.7-1.6,4.6-3.1,6-1.3c0.6,1,0.8,2.2,0.5,3.3
		c-3,20.2-18.3,36.3-24.3,55.8c-7.5,24.2,2.4,57.3-13.9,78.4c-6.7-2,1.7-24.8,2.3-31C1413.4,889.8,1413.8,875.2,1415.5,860.8z"/><path class="st10" d="M1441.6,835.4c4.5-4.2,9.8-8.2,16-8.2c2,0,4.4,0.9,4.6,2.9c0.1,1.5-1.2,2.7-2.4,3.7
		c-12.1,9.7-26.2,24.5-40.4,30.5C1423.2,853.4,1433.4,843,1441.6,835.4z"/><path class="st10" d="M1407.4,873.5c-4.1-7.9-9.1-15.8-10-24.7c-0.4-4.5,0.7-9.9,4.8-11.7c3.4,1.9,5.1,5.9,5.7,9.7
		s0.3,7.8,0.9,11.6c1,7,4.8,13.3,7,20c1.8,5.7,2.9,14.5-2.2,18.6C1413.6,888.5,1411.4,881.1,1407.4,873.5z"/><path class="st10" d="M1411.5,800.8c-0.5-4.3-0.2-9.2,2.7-12.5c0.4-0.6,1-0.9,1.7-1c1.2-0.1,2,1.1,2.5,2.2
		c4.7,10.7,0.1,23.5,3.2,34.8c0.9,3.3,2.5,6.4,3,9.8c0.4,2.6,0.5,8.3-3.4,6.3c-1.9-1-2.4-10.8-2.9-12.9
		C1416.1,818.5,1412.5,810,1411.5,800.8z"/><path class="st10" d="M1764.1,852.1c-4.6-22.3-5.8-46.5,4.7-66.7c1.1-2.1,3.4-4.4,5.3-3.1c0.9,0.8,1.4,1.8,1.5,3
		c3.6,20.1-5.8,40.3-5.3,60.6c0.6,25.4,20.4,53.6,11.7,78.7c-7,0.2-6.3-24-7.6-30.1C1771.3,880.3,1767.1,866.4,1764.1,852.1z"/><path class="st10" d="M1780.9,819.8c2.9-5.4,6.7-10.9,12.5-12.8c1.9-0.7,4.5-0.6,5.3,1.3c0.6,1.4-0.2,3-1.1,4.2
		c-8.4,13-17.1,31.6-28.6,41.7C1769.1,842.7,1775.5,829.6,1780.9,819.8z"/><path class="st10" d="M1760.6,866.8c-6.4-6.2-13.6-12.1-17.3-20.3c-1.8-4.1-2.4-9.6,0.9-12.6c3.8,0.7,6.7,3.9,8.5,7.4
		s2.8,7.3,4.5,10.7c3.2,6.3,8.7,11.1,12.9,16.8c3.6,4.8,7.3,12.8,3.8,18.4C1771.2,879.3,1766.6,872.4,1760.6,866.8z"/><path class="st10" d="M1741.3,796.5c-1.8-4-3.1-8.7-1.3-12.7c0.2-0.7,0.7-1.2,1.3-1.5c1.1-0.5,2.3,0.4,3.1,1.3
		c7.8,8.7,7.6,22.2,14.1,31.9c1.9,2.8,4.4,5.3,6,8.4c1.2,2.3,3.1,7.7-1.2,7.1c-2.1-0.3-5.7-9.5-6.9-11.3
		C1751.3,811.9,1745.1,805,1741.3,796.5z"/><path class="st10" d="M897.1,860.2c2.6,4.6,3.9,9.7,3.8,15c1.4-2.5,2.8-5,4.1-7.6c2.1,5.3,2.8,11.4,4.3,16.7
		c1.1-0.2,10.1-4.3,9.4-5.6c4.2,6.8,7.1,14.4,8.6,22.2l4.7-11.7c8.3,2,13.6,12.1,10.4,20l2.1-9.6c2.4,7.6,3.9,15.4,4.4,23.4
		c2.6-10.6,8.2-24.1,17.2-31.1c3.6,9.2,5.4,18.9,5.3,28.8l7-11.1c3.9,4.2,6.2,9.6,6.6,15.3l4.5-9.2c2.9,1.4,4.9,4.3,5.3,7.5l4.5-6.2
		l6.4,8c-8.4-10.6,14.1-68.9,19.8-79.6c9.6,18.2,9.2,43.3,6.7,63.2l7.7-5.6l23.2,5.5l6.6-9.1l6.4,6.9c0.6-4.6,9-4.7,9.7-0.1
		c0.2-16.5,1.3-34.4,7.9-49.7c6.4,11.2,10.3,23.5,11.6,36.3c4.4-3.1,11.5-0.3,12.6,5c2.2-5.2,11.7-3.7,12.3,1.9l5.6-5.4
		c3.2,3,5.2,7,5.8,11.3c-2.2-16,10.5-34,24.6-40.5c7.4,12,6.2,28.4,15.5,39.1c8,9.2,21.2,11.1,32.8,15
		c34.6,11.6,32.9,38.9,34.1,69.8c0.9,21.3-6.3,31.4-29.3,32.7c-72.5,4.2-145.2-1.8-217.8-0.6c-41,0.7-82,3.7-122.9,0.3
		c-47.4-4-84.7-19.2-128.4-35.7c-9.4-3.6-19.7-7.2-29.4-4.4c-5.4,1.6-11.2,5.1-16.2,2.5c-3.6-1.9-5-6.2-7.4-9.5
		c-7.9-10.8-24.3-9.2-37.3-5.9c-9.5,2.4-20.6,5-30.2,1.5c-4.6-1.7-7.3-4.6-12-5.8c-5.3-1.3-10-4.2-15.1-5.9c-3.7-1.1-7.6-2-11.4-2.5
		c-16.6-2.6-33.4-5.2-50.1-3.9c-3.8,0.3-8,0.7-10.9-1.8c-1.2-1.2-2.2-2.6-2.9-4.1c-2.1-3.9-4.2-8-3.9-12.4c0.3-4.6,3.5-8.6,7.2-11.2
		c1.5,1.1,2.9,2.4,4,3.9c2-2.3,3.8-4.8,5.2-7.5c3.3,2.1,5.5,5.5,6.1,9.3c0.4-3.1,2.7-5.7,5.7-6.5l2.3,5.8c0.6-2.4,1.1-4.7,1.7-7
		c0.2-1,0.8-1.8,1.7-2.2c1.5-0.4,2.7,1.1,3.3,2.5c1.1,2.4,1.9,4.9,2.2,7.5c0.3,0.3,0.7-0.1,0.8-0.4c2.8-5.3,0.9-25.4,10.2-25.1
		c3.1,0.1,5.3,3.4,5.9,6.4s0.3,6.3,1.4,9.3c0-4.5,1.8-8.8,4.8-12.1c3.9,3.4,6.1,8.4,6,13.6c1.1-5,2.9-9.8,5.2-14.4
		c1.7-3.4,4.6-7,8.3-6.6s5.8,4.5,6.5,8.2s0.7,7.7,3.1,10.6c0.9-1.7,2.3-3.1,4.1-3.9c0.8,1.1,1.4,2.3,1.8,3.5l0.1-4.6
		c1.5,0.7,2.8,1.8,3.7,3.2l0.7-16c-0.1-1.7,0.3-3.5,1.1-5c1.4-2.3,4.6-3.1,7.2-2.5c2.6,0.8,5,2.3,6.8,4.3
		c5.5,5.2,9.7,11.6,12.2,18.7c-0.3-2.3,0.3-4.6,1.8-6.3c2.2,1.4,4,3.5,5,6c-0.4-4.3-0.2-8.6,0.5-12.8c0.1-1.3,0.6-2.5,1.3-3.5
		c1.4-1.8,4-2.3,6.2-1.8c2.4,0.5,10.2,5.1,9.7,8.4c0.5-3.2,0.3-13.6,5-14.2c1.8-0.2,3.4,1.2,4.6,2.7c3.3,4.4,5.4,9.7,5.8,15.3
		c0.7-4.6,1.5-9.2,3.3-13.5c1-2.4,3.1-5,5.6-4.5c1.5,0.5,2.7,1.5,3.4,2.9c1.9,3.2,2.9,6.9,2.7,10.6c1.3-1.7,2.8-3.1,4.6-4.2l2.4,2.3
		c0.1-1.7,1.2-3.1,2.7-3.8c3.8-1.3,6.1,5.5,6.5,8.2l4.7-10.7c6.1,2.6,11,7.3,13.8,13.3c1.3-6.6,1.6-13,4.3-19.2
		c0.9-2.1,2.2-4.5,4.5-4.6c1.3,0,2.5,0.7,3.2,1.7c0.7,1,1.3,2.2,1.6,3.4l3.1,8.8l6.8-15.8c4.5-10.5,7.2-22.5,17.1-29.2l0.8-0.5
		c1.6-1.1,3.4-1.7,5.4-1.8c3.5,0.1,6.1,2.9,8.1,5.8c6.1,8.5,9.9,18.4,11.3,28.8c1-3.6,2.1-7.3,4.4-10.2s6.3-4.9,9.8-3.7
		c4.5,1.4,6.6,7,10.8,9.1c3,1.5,6.7,1,9.7-0.6c8.4-4.3,10.5-14.4,13.4-22.8c3.5-10.4,6.7-21.1,11.8-30.9c2.2-4.2,8-8.6,10.8-4.8
		c0.8,1.3,1.1,2.8,0.9,4.3l0.3,40.1l5.9-10.9l4.2,10.5C892.4,864.3,894.5,861.9,897.1,860.2L897.1,860.2z"/><path class="st10" d="M1920,908.2v101.5c-1.4,0.2-2.8,0.4-4.2,0.5c-72.3,6.8-145.2,3.4-217.7,7.3c-40.9,2.2-81.8,6.7-122.8,4.8
		c-10.1-0.5-20.1-1.5-30.1-3.1c-34.4-5.4-64.9-16.4-99.5-28c-9.6-3.2-19.9-6.4-29.5-3.3c-5.4,1.8-11.1,5.5-16.2,3
		c-3.7-1.8-5.3-6-7.8-9.2c-8.3-10.5-24.6-8.3-37.5-4.5s-28.6,7.2-38.2-2.2c-6.7-6.5-7.9-17.5-15.1-23.3c-7.8-6.3-19.3-4.3-29.2-6.2
		c-3.3-0.7-6.4-2.3-8.9-4.6c-5.4-4.8-8.2-12-3.2-16.6l9.9-2.2c1.3,3.9,2.7,7.9,4,11.9c-0.3-8.6,5.1-16.4,13.2-19.2
		c5.6,1.2,10.3,4.8,12.8,9.9c1.3-2.7,2.7-5.5,4-8.3c5.6,0.6,11.1,1.8,16.5,3.4c0.8,0.2,1.5,0.5,2.2,0.7
		c14.6,4.8,27.8,13.2,38.3,24.5c-4.8-12.7-6.7-26.4-5.4-40c5.9,0.2,11.3,3.4,14.2,8.6c0.8-5.9,1.6-11.8,2.4-17.7
		c5.7,5.9,11.4,11.7,17,17.6l-2.8-15.9l14.5,11.4c0.4-3.2,6.4,0.2,4.2,2.2c2.2-1.8,3.5-4.4,3.7-7.2c0.9,0.4,1.8,0.9,2.6,1.5
		c2.7,2,4.5,4.9,5.1,8.1c0.8-1.9,1.5-3.9,2.3-5.8l0,0l2-5.1c6.2,2.4,11.3,6.9,14.3,12.8c1.6-10.2,2.3-20.6,2.1-30.9
		c8.3,14.8,14,30.9,16.8,47.6l8.9-72.2c0.3-2.7,0.7-5.4,1.2-8.1c2-11.9,5.6-23.8,15.2-30.4c11.7,14.4,8,31.5,9.8,48.5
		c1.1-7.5,3.2-14.9,6.3-21.9l5.5,24.4l7.3-14c5.1,5.9,8.5,13,9.9,20.7c0.1-5.1,2.5-10,6.5-13.2c4.2,2.7,7.8,6.5,10.2,10.9
		c0.8-5.4,2.7-10.6,5.7-15.3l5,11.4c2-13.6,5.5-26.9,10.4-39.8c2.3-5.9,7.8-12.9,13.4-9.9c1.3,15.5,2,31,2.1,46.6l5.8-13.7l4.6,12.7
		c0.7-3.6,2.7-6.8,5.7-8.9c3,5,4.4,10.8,4.1,16.6c1.3-3.3,2.7-6.6,4-9.9c2.6,6.5,3.8,13.4,3.7,20.4l10.5-8.8
		c4.4,6.7,7.6,14.1,9.4,21.9l4.2-11.8c7,1.4,12.1,8.5,11.9,15.5c0.3-1.9,0.7-3.7,1-5.6c1.1,3.1,2.1,6.2,2.9,9.4
		c1.1,4.5,2,9.1,2.4,13.8c1-4.8,2.4-9.5,4.2-14c2.8-6.8,6.7-13.4,11.8-17.7c3.9,9,6.1,18.7,6.4,28.5c2.1-3.6,4.2-7.2,6.3-10.8
		l0.3-0.5l0.5,0.5c3.7,4,6.1,9.1,6.7,14.5l4.1-9.3c3,1.3,5.1,4.1,5.5,7.3l4.3-6.4l6.7,7.8c1.9-4,3.4-8.1,4.5-12.3
		c6.5-23.7,3.1-50.3,11.6-73.7c8.5,23,11.5,47.6,8.9,71.9l9.4-12.9l2.6,8.9l5.8-5.7c2,2,3.6,4.4,4.7,7c0.8-2.5,1.6-4.9,2.3-7.3
		c3.7,1.6,6.3,5.1,6.7,9.1l6.1-15.4c3.3,3.6,5.9,7.8,7.7,12.4c-0.4-3.6,0.3-7.1,2.2-10.2c1.3,0.7,2.5,1.5,3.6,2.4
		c2.2,1.9,3.9,4.2,5.1,6.8c0.3-4.7,0.6-9.4,0.8-14.2c0.9-14.1,1.7-28.2,2.5-42.3c8.1,13.3,12.8,28.4,13.7,43.9
		c1.2-3.8,3.7-7.2,7.1-9.5c3.9,5,6.2,11.1,6.5,17.4c0.8-4.6,1.6-9.1,2.4-13.7c5.4-0.5,10.5,5,9.5,10.4l5.2-11.1
		c4,4.7,6.2,10.7,6.2,16.9c4-17.9,11.5-34.8,22.1-49.8c8.4,16.2,13.9,33.8,16.2,52c2-3.8,4.9-7.1,8.4-9.6c4.6,4.4,7.6,10.2,8.5,16.5
		c0.1-4.3,1.1-8.6,3.2-12.4c4.3,3.8,7.7,8.5,10.1,13.7c-0.8-2.6-0.4-5.3,1.1-7.5c4,3.9,6.3,9.2,6.4,14.8
		C1912.4,914.4,1916,911,1920,908.2z"/><path class="st11" d="M1920,934.8V1080H0V976.7c-0.6-4.9-0.9-9.8-0.9-14.7c0-7.2,0.5-14.8,0.9-21.7v-22.7l0.7,0.1
		c59.9,11,120.6,20.6,181.2,15.1c57-5.2,112.6-23.8,169.8-23.6c22.3,0.1,44.3,3,66.2,6.8c2.9,0.5,5.9,1,8.8,1.5l7.7,1.4l2.3,0.4
		c13.9,2.6,27.7,5.3,41.6,7.6c15,2.6,30.2,4.4,45.4,5.4c2.1,0.1,4.2,0.2,6.4,0.3c63.5,2.5,126.5-16.1,190-13.2c2,0.1,4,0.2,6.1,0.3
		c2.3,0.1,4.6,0.3,6.8,0.5l0,0c1.9,0.2,3.8,0.4,5.7,0.6c4.2,0.4,8.3,0.9,12.4,1.5h0.3l1.2,0.2h0.3l0.6,0.1c2,0.3,4,0.6,6,0.9
		l0.7,0.1l1.2,0.2l2.3,0.4c49.6,8.1,98.6,22.8,148.8,21.2c22.1-0.7,43.8-4.6,65.4-9.1c28.2-5.9,56.2-13,84.8-16
		c59.1-6,117.8,6.1,176.7,16.5l2.9,0.5c7,1.2,14,2.4,21,3.5c29.6,4.8,59.3,8.5,89.1,8.5c95.1,0.1,186.8-36.5,281.7-41.5
		c1.7-0.1,3.4-0.2,5.2-0.2c2.2-0.1,4.5-0.2,6.7-0.2c5.7-0.1,11.4-0.2,17.1-0.1c2.5,0,4.9,0,7.4,0.1h0.8c10.6,0.3,21.3,0.8,31.9,1.6
		c24.6,1.8,49.2,4.8,73.8,7.8l6.2,0.8l0.5,0.1L1920,934.8z"/><path class="st12" d="M1920,978.7V1080H0V976.7c-0.6-4.9-0.9-9.8-0.9-14.7l0.9,0.2c26,5.6,71.1,15.8,76.5,16.9
		c34.5,6.8,70,6.8,104.5-0.2c45.8-9.4,89.7-30.9,136.4-30.4c36,0.4,69.8,13.7,103.6,27l2.2,0.9c11.4,4.5,22.7,8.9,34.2,12.8
		c8.2,2.8,16.5,5.3,24.8,7.6c79,21.5,160.9,19.7,243.9,11.8c21.9-2.1,43.9-4.6,65.9-7.3l0,0c100.2-12,201.2-26.3,299.8-12.8
		c48.1,6.6,95,19.7,142.4,30.6l0,0c2.8,0.6,5.5,1.3,8.3,1.9c15.6,3.5,31.3,6.7,47.1,9.3c57.5,9.5,116.1,10.8,174,4.1
		c11.7-1.3,23.3-3,34.8-5.1c15.8-2.8,31.4-6.1,47-9.8c54.4-13,107.8-30.4,162.6-41.8C1780.6,962.2,1849.5,969.2,1920,978.7z"/><g class="st13"><image style="overflow:visible;enable-background:new" width="1994" height="305" xlink:href="421F7BA4.png" transform="matrix(1 0 0 1 -37.03 811)"/></g><path class="st14" d="M1920,934.8V1080H0V976.7c-0.6-4.9-0.9-9.8-0.9-14.7c0-7.2,0.5-14.8,0.9-21.7v-22.7l0.7,0.1
		c59.9,11,120.6,20.6,181.2,15.1c57-5.2,112.6-23.8,169.8-23.6c22.3,0.1,44.3,3,66.2,6.8c2.9,0.5,5.9,1,8.8,1.5l7.7,1.4l2.3,0.4
		c13.9,2.6,27.7,5.3,41.6,7.6c15,2.6,30.2,4.4,45.4,5.4c2.1,0.1,4.2,0.2,6.4,0.3c63.5,2.5,126.5-16.1,190-13.2c2,0.1,4,0.2,6.1,0.3
		c2.3,0.1,4.6,0.3,6.8,0.5l0,0c1.9,0.2,3.8,0.4,5.7,0.6c4.2,0.4,8.3,0.9,12.4,1.5h0.3l1.2,0.2h0.3l0.6,0.1c2,0.3,4,0.6,6,0.9
		l0.7,0.1l1.2,0.2l2.3,0.4c49.6,8.1,98.6,22.8,148.8,21.2c22.1-0.7,43.8-4.6,65.4-9.1c28.2-5.9,56.2-13,84.8-16
		c59.1-6,117.8,6.1,176.7,16.5l2.9,0.5c7,1.2,14,2.4,21,3.5c29.6,4.8,59.3,8.5,89.1,8.5c95.1,0.1,186.8-36.5,281.7-41.5
		c1.7-0.1,3.4-0.2,5.2-0.2c2.2-0.1,4.5-0.2,6.7-0.2c5.7-0.1,11.4-0.2,17.1-0.1c2.5,0,4.9,0,7.4,0.1h0.8c10.6,0.3,21.3,0.8,31.9,1.6
		c24.6,1.8,49.2,4.8,73.8,7.8l6.2,0.8l0.5,0.1L1920,934.8z"/></g><g id="bubbles"><g class="st15"><path class="st16" d="M1182,248.5c-0.8,1.2-1.3,2.7-1.2,4.2c0,0.9,0.1,1.8,0.3,2.6c0.4,1.1,1.1,2.1,2.1,2.8c1.2,0.8,2.6,1.2,4,1.1
			c2.7-0.2,4.9-2,5.7-4.6C1195,248.1,1186.5,242.4,1182,248.5z"/><path class="st16" d="M955,244.1c-0.8,1.2-1.3,2.7-1.2,4.2c0,0.9,0.1,1.8,0.3,2.6c0.4,1.1,1.1,2.1,2.1,2.8c1.2,0.8,2.6,1.2,4,1.1
			c2.7-0.2,4.9-2,5.7-4.6C968,243.8,959.5,238.1,955,244.1z"/><path class="st16" d="M625.9,289.3c-0.8,1.2-1.3,2.7-1.2,4.2c0,0.9,0.1,1.8,0.3,2.6c0.4,1.1,1.1,2.1,2.1,2.8
			c1.1,0.8,2.5,1.2,4,1.1c2.7-0.2,4.9-2,5.7-4.6C638.9,288.9,630.3,283.3,625.9,289.3z"/><path class="st16" d="M1223.7,224.4c-0.8,1.2-1.3,2.7-1.2,4.2c0,0.9,0.1,1.8,0.3,2.6c0.4,1.1,1.2,2.1,2.2,2.8
			c1.2,0.8,2.6,1.2,4,1.1c2.7-0.2,4.9-2,5.7-4.6C1236.7,224,1228.2,218.4,1223.7,224.4z"/><path class="st16" d="M1291.2,279.5c-0.6,0.8-0.9,1.8-0.8,2.9c0,0.6,0.1,1.2,0.2,1.8c0.3,0.8,0.8,1.4,1.4,1.9
			c0.8,0.6,1.7,0.8,2.7,0.8c1.8-0.2,3.3-1.4,3.9-3.1C1300,279.3,1294.2,275.5,1291.2,279.5z"/><path class="st16" d="M962.8,264.6c-0.6,0.8-0.9,1.9-0.8,2.9c0,0.6,0.1,1.2,0.2,1.8c0.3,0.8,0.8,1.4,1.4,1.9
			c0.8,0.6,1.7,0.8,2.7,0.8c1.8-0.2,3.3-1.4,3.9-3.1C971.7,264.3,965.9,260.5,962.8,264.6z"/><path class="st16" d="M1187.3,209.6c-0.6,0.8-0.9,1.9-0.8,2.9c0,0.6,0.1,1.2,0.2,1.8c0.3,0.8,0.8,1.4,1.4,1.9
			c0.8,0.6,1.7,0.8,2.7,0.8c1.8-0.2,3.3-1.4,3.9-3.1C1196.2,209.3,1190.3,205.5,1187.3,209.6z"/><path class="st16" d="M971.8,300.8c-0.6,0.8-0.9,1.9-0.8,2.9c0,0.6,0.1,1.2,0.2,1.8c0.3,0.8,0.8,1.4,1.4,1.9
			c0.8,0.6,1.7,0.8,2.7,0.8c1.8-0.2,3.3-1.4,3.9-3.1C980.6,300.5,974.8,296.6,971.8,300.8z"/><path class="st16" d="M881.5,222.9c-0.6,0.8-0.9,1.8-0.8,2.9c0,0.6,0.1,1.2,0.2,1.8c0.3,0.8,0.8,1.4,1.4,1.9
			c0.8,0.6,1.7,0.8,2.7,0.8c1.8-0.2,3.3-1.4,3.9-3.1C890.3,222.6,884.5,218.8,881.5,222.9z"/><path class="st16" d="M742.2,309.9c-0.6,0.8-0.9,1.8-0.8,2.9c0,0.6,0.1,1.2,0.2,1.8c0.3,0.8,0.8,1.4,1.4,1.9
			c0.8,0.6,1.7,0.8,2.7,0.8c1.8-0.2,3.3-1.4,3.9-3.1C751.1,309.6,745.2,305.8,742.2,309.9z"/><path class="st16" d="M1295.7,207.9c-0.6,0.8-0.9,1.9-0.8,2.9c0,0.6,0.1,1.2,0.2,1.8c0.3,0.8,0.8,1.4,1.4,1.9
			c0.8,0.6,1.7,0.8,2.7,0.8c1.8-0.2,3.3-1.4,3.9-3.1C1304.6,207.6,1298.8,203.8,1295.7,207.9z"/><path class="st16" d="M858,291.4c-0.6,0.8-0.9,1.8-0.8,2.9c0,0.6,0.1,1.2,0.2,1.8c0.3,0.8,0.8,1.4,1.4,1.9
			c0.8,0.6,1.7,0.8,2.7,0.8c1.8-0.2,3.3-1.4,3.9-3.1C866.8,291.1,861,287.3,858,291.4z"/><path class="st16" d="M641.2,271.4c-0.6,0.9-0.7,2.1-0.4,3.1c0.2,0.5,0.5,1,1,1.3c0.5,0.4,1.2,0.6,1.8,0.5
			c1.2-0.1,2.3-0.9,2.6-2.1C647.2,271.2,643.2,268.7,641.2,271.4z"/><path class="st16" d="M623.2,263c-0.4,0.6-0.6,1.2-0.6,1.9c0,0.4,0,0.8,0.2,1.2c0.2,0.5,0.5,1,1,1.3c0.5,0.4,1.2,0.6,1.8,0.5
			c1.2-0.1,2.3-0.9,2.6-2.1C629.2,262.8,625.2,260.2,623.2,263z"/><path class="st16" d="M718.2,285.2c-0.4,0.6-0.6,1.2-0.6,1.9c0,0.4,0,0.8,0.2,1.2c0.2,0.5,0.5,1,1,1.3c0.5,0.4,1.2,0.6,1.8,0.5
			c1.2-0.1,2.3-0.9,2.6-2.1C724.1,285.1,720.2,282.5,718.2,285.2z"/><path class="st16" d="M725,274.9c-0.4,0.6-0.6,1.2-0.6,1.9c0,0.4,0,0.8,0.2,1.2c0.2,0.5,0.5,1,1,1.3c0.5,0.4,1.2,0.6,1.8,0.5
			c1.2-0.1,2.3-0.9,2.6-2.1C731,274.7,727,272.1,725,274.9z"/><path class="st16" d="M1241.4,236.5c-0.6,0.8-0.9,1.8-0.8,2.9c0,0.6,0.1,1.2,0.2,1.8c0.3,0.8,0.8,1.4,1.4,1.9
			c0.8,0.6,1.7,0.8,2.7,0.8c1.8-0.2,3.3-1.4,3.9-3.1C1250.2,236.3,1244.4,232.4,1241.4,236.5z"/></g><path class="st17" d="M649.6,834c-0.8,1.4-1.1,3.1-0.6,4.6c0.3,0.8,0.8,1.4,1.4,1.9c0.8,0.6,1.7,0.8,2.7,0.8
		c1.8-0.2,3.3-1.4,3.9-3.1C658.5,833.8,652.6,830,649.6,834z"/><path class="st17" d="M654.2,762.4c-0.6,0.8-0.9,1.8-0.8,2.9c0,0.6,0.1,1.2,0.2,1.8c0.3,0.8,0.8,1.4,1.4,1.9
		c0.8,0.6,1.7,0.8,2.7,0.8c1.8-0.2,3.3-1.4,3.9-3.1C663,762.1,657.2,758.3,654.2,762.4z"/><path class="st17" d="M540.5,803c-0.8,1.2-1.3,2.7-1.2,4.2c0,0.9,0.1,1.8,0.3,2.6c0.4,1.1,1.1,2.1,2.1,2.8c1.2,0.8,2.6,1.2,4,1.2
		c2.7-0.2,4.9-2,5.7-4.6C553.5,802.6,544.9,796.9,540.5,803z"/><path class="st17" d="M425.5,779.3c-0.8,1.2-1.3,2.7-1.2,4.2c0,0.9,0.1,1.8,0.4,2.6c0.4,1.1,1.1,2.1,2.1,2.8c1.2,0.8,2.6,1.2,4,1.1
		c2.7-0.2,4.9-2,5.7-4.6C438.5,779,430,773.3,425.5,779.3z"/><path class="st17" d="M96.4,824.5c-0.8,1.2-1.3,2.7-1.2,4.2c0,0.9,0.1,1.8,0.3,2.6c0.4,1.1,1.1,2.1,2.1,2.8c1.2,0.8,2.6,1.2,4,1.1
		c2.7-0.2,4.9-2,5.7-4.6C109.4,824.1,100.8,818.5,96.4,824.5z"/><path class="st17" d="M582.2,778.9c-0.8,1.2-1.3,2.7-1.2,4.2c0,0.9,0.1,1.8,0.3,2.6c0.4,1.1,1.1,2.1,2.1,2.8c1.2,0.8,2.6,1.2,4,1.1
		c2.7-0.2,4.9-2,5.7-4.6C595.2,778.5,586.6,772.9,582.2,778.9z"/><path class="st17" d="M433.3,799.8c-0.6,0.8-0.9,1.8-0.8,2.9c0,0.6,0.1,1.2,0.2,1.8c0.3,0.8,0.8,1.4,1.4,1.9
		c0.8,0.6,1.7,0.8,2.7,0.8c1.8-0.2,3.3-1.4,3.9-3.1C442.2,799.5,436.4,795.7,433.3,799.8z"/><path class="st17" d="M545.7,764.1c-0.6,0.8-0.9,1.8-0.8,2.9c0,0.6,0.1,1.2,0.2,1.8c0.3,0.8,0.8,1.4,1.4,1.9
		c0.8,0.6,1.7,0.8,2.7,0.8c1.8-0.2,3.3-1.4,3.9-3.1C554.6,763.8,548.8,760,545.7,764.1z"/><path class="st17" d="M442.3,836c-0.6,0.8-0.9,1.8-0.8,2.9c0,0.6,0.1,1.2,0.2,1.8c0.3,0.8,0.8,1.4,1.4,1.9c0.8,0.6,1.7,0.8,2.7,0.8
		c1.8-0.2,3.3-1.4,3.9-3.1C451.1,835.7,445.3,831.8,442.3,836z"/><path class="st17" d="M352,758.1c-0.8,1.4-1.1,3.1-0.6,4.6c0.3,0.8,0.8,1.4,1.4,1.9c0.8,0.6,1.7,0.8,2.7,0.8
		c1.8-0.2,3.3-1.4,3.9-3.1C360.8,757.8,355,754,352,758.1z"/><path class="st17" d="M212.7,845.1c-0.8,1.4-1.1,3.1-0.6,4.6c0.3,0.8,0.8,1.4,1.4,1.9c0.8,0.6,1.7,0.8,2.7,0.8
		c1.8-0.2,3.3-1.4,3.9-3.1C221.6,844.8,215.8,841,212.7,845.1z"/><path class="st17" d="M328.5,826.6c-0.8,1.4-1.1,3.1-0.6,4.6c0.3,0.8,0.8,1.4,1.4,1.9c0.8,0.6,1.7,0.8,2.7,0.8
		c1.8-0.2,3.3-1.4,3.9-3.1C337.3,826.3,331.5,822.5,328.5,826.6z"/><path class="st17" d="M111.7,806.6c-0.4,0.6-0.6,1.2-0.6,1.9c0,0.4,0,0.8,0.2,1.2c0.2,0.5,0.5,1,1,1.3c0.5,0.4,1.2,0.6,1.8,0.5
		c1.2-0.1,2.3-0.9,2.6-2.1C117.7,806.4,113.8,803.9,111.7,806.6z"/><path class="st17" d="M93.7,798.2c-0.4,0.6-0.6,1.2-0.6,1.9c0,0.4,0,0.8,0.2,1.2c0.2,0.5,0.5,1,1,1.3c0.5,0.4,1.2,0.6,1.8,0.5
		c1.2-0.1,2.2-1,2.6-2.1C99.7,798,95.7,795.4,93.7,798.2z"/><path class="st17" d="M188.6,820.4c-0.4,0.6-0.6,1.2-0.6,1.9c0,0.4,0,0.8,0.2,1.2c0.2,0.5,0.5,1,1,1.3c0.5,0.4,1.2,0.6,1.8,0.5
		c1.2-0.1,2.3-0.9,2.6-2.1C194.6,820.2,190.7,817.7,188.6,820.4z"/><path class="st17" d="M195.5,810.1c-0.4,0.6-0.6,1.3-0.6,1.9c0,0.4,0,0.8,0.2,1.2c0.2,0.5,0.5,1,1,1.3c0.5,0.4,1.2,0.6,1.8,0.5
		c1.2-0.1,2.3-0.9,2.6-2.1C201.5,809.9,197.6,807.3,195.5,810.1z"/><path class="st17" d="M599.8,791c-0.6,0.8-0.9,1.9-0.8,2.9c0,0.6,0.1,1.2,0.2,1.8c0.3,0.8,0.8,1.4,1.4,1.9c0.8,0.6,1.7,0.8,2.7,0.8
		c1.8-0.2,3.3-1.4,3.9-3.1C608.7,790.8,602.8,786.9,599.8,791z"/><path class="st18" d="M855.9,643c-0.8,1.2-1.3,2.7-1.2,4.2c0,0.9,0.1,1.8,0.3,2.6c0.4,1.1,1.1,2.1,2.1,2.8c1.2,0.8,2.6,1.2,4,1.1
		c2.7-0.2,4.9-2,5.7-4.6C868.9,642.6,860.4,637,855.9,643z"/><path class="st18" d="M972.3,663.6c-0.6,0.8-0.9,1.9-0.8,2.9c0,0.6,0.1,1.2,0.2,1.8c0.3,0.8,0.8,1.4,1.4,1.9
		c0.8,0.6,1.7,0.8,2.7,0.8c1.8-0.2,3.3-1.4,3.9-3.1C981.1,663.3,975.3,659.5,972.3,663.6z"/><path class="st18" d="M871.3,625.2c-0.4,0.6-0.6,1.2-0.6,1.9c0,0.4,0,0.8,0.2,1.2c0.2,0.5,0.5,1,1,1.3c0.5,0.4,1.2,0.6,1.8,0.5
		c1.2-0.1,2.3-0.9,2.6-2.1C877.2,625,873.3,622.4,871.3,625.2z"/><path class="st18" d="M853.2,616.7c-0.4,0.6-0.6,1.3-0.6,1.9c0,0.4,0,0.8,0.2,1.2c0.2,0.5,0.5,1,1,1.3c0.5,0.4,1.2,0.6,1.8,0.5
		c1.2-0.1,2.3-0.9,2.6-2.1C859.2,616.5,855.3,613.9,853.2,616.7z"/><path class="st18" d="M948.2,639c-0.4,0.6-0.6,1.3-0.6,1.9c0,0.4,0,0.8,0.2,1.2c0.2,0.5,0.5,1,1,1.3c0.5,0.4,1.2,0.6,1.8,0.5
		c1.2-0.1,2.3-0.9,2.6-2.1C954.2,638.8,950.3,636.2,948.2,639z"/><path class="st18" d="M955.1,628.6c-0.4,0.6-0.6,1.2-0.6,1.9c0,0.4,0,0.8,0.2,1.2c0.2,0.5,0.5,1,1,1.3c0.5,0.4,1.2,0.6,1.8,0.5
		c1.2-0.1,2.3-0.9,2.6-2.1C961,628.5,957.1,625.9,955.1,628.6z"/><path class="st19" d="M1778.6,262.2c-0.8,1.2-1.3,2.7-1.2,4.2c0,0.9,0.1,1.8,0.3,2.6c0.4,1.1,1.1,2.1,2.1,2.8
		c1.2,0.8,2.6,1.2,4,1.1c2.7-0.2,4.9-2,5.7-4.6C1791.6,261.8,1783,256.2,1778.6,262.2z"/><path class="st19" d="M1370.2,346.6c-0.8,1.2-1.3,2.7-1.2,4.2c0,0.9,0.1,1.8,0.3,2.6c0.4,1.1,1.1,2.1,2.1,2.8
		c1.1,0.8,2.5,1.2,3.9,1.1c2.7-0.2,4.9-2,5.7-4.6C1383.2,346.2,1374.6,340.5,1370.2,346.6z"/><path class="st19" d="M1168.9,400.7c-0.8,1.2-1.3,2.7-1.2,4.2c0,0.9,0.1,1.8,0.3,2.6c0.4,1.1,1.1,2.1,2.1,2.8
		c1.2,0.8,2.6,1.2,4,1.1c2.7-0.2,4.9-2,5.7-4.6C1181.9,400.3,1173.3,394.7,1168.9,400.7z"/><path class="st19" d="M1766.8,335.8c-0.8,1.2-1.3,2.7-1.2,4.2c0,0.9,0.1,1.8,0.3,2.6c0.4,1.1,1.1,2.1,2.1,2.8
		c1.2,0.8,2.6,1.2,4,1.1c2.7-0.2,4.9-2,5.7-4.6C1779.8,335.4,1771.2,329.7,1766.8,335.8z"/><path class="st19" d="M1834.2,390.9c-0.6,0.8-0.9,1.8-0.8,2.9c0,0.6,0.1,1.2,0.2,1.8c0.3,0.8,0.8,1.4,1.4,1.9
		c0.8,0.6,1.7,0.8,2.7,0.8c1.8-0.2,3.3-1.4,3.9-3.1C1843,390.6,1837.2,386.8,1834.2,390.9z"/><path class="st19" d="M1505.8,376c-0.6,0.8-0.9,1.8-0.8,2.9c0,0.6,0.1,1.2,0.2,1.8c0.3,0.8,0.8,1.4,1.4,1.9
		c0.8,0.6,1.7,0.8,2.7,0.8c1.8-0.2,3.3-1.4,3.9-3.1C1514.7,375.7,1508.9,371.9,1505.8,376z"/><path class="st19" d="M1730.3,321c-0.6,0.8-0.9,1.8-0.8,2.9c0,0.6,0.1,1.2,0.2,1.8c0.3,0.8,0.8,1.4,1.4,1.9
		c0.8,0.6,1.7,0.8,2.7,0.8c1.8-0.2,3.3-1.4,3.9-3.1C1739.2,320.7,1733.4,316.9,1730.3,321z"/><path class="st19" d="M1514.8,412.1c-0.6,0.9-0.8,1.9-0.8,2.9c0,0.6,0.1,1.2,0.2,1.8c0.3,0.8,0.8,1.4,1.4,1.9
		c0.8,0.6,1.7,0.8,2.7,0.8c1.8-0.2,3.3-1.4,3.9-3.1C1523.7,411.9,1517.8,408,1514.8,412.1z"/><path class="st19" d="M1361.6,292.8c-0.6,0.8-0.9,1.8-0.8,2.9c0,0.6,0.1,1.2,0.2,1.8c0.3,0.8,0.8,1.4,1.4,1.9
		c0.8,0.6,1.7,0.8,2.7,0.8c1.8-0.2,3.3-1.4,3.9-3.1C1370.4,292.5,1364.6,288.6,1361.6,292.8z"/><path class="st19" d="M1285.2,421.3c-0.8,1.4-1.1,3.1-0.6,4.6c0.3,0.8,0.8,1.4,1.4,1.9c0.8,0.6,1.7,0.8,2.7,0.8
		c1.8-0.2,3.3-1.4,3.9-3.1C1294.1,421,1288.3,417.2,1285.2,421.3z"/><path class="st19" d="M1838.8,319.2c-0.6,0.8-0.9,1.8-0.8,2.9c0,0.6,0.1,1.2,0.2,1.8c0.3,0.8,0.8,1.4,1.4,1.9
		c0.8,0.6,1.7,0.8,2.7,0.8c1.8-0.2,3.3-1.4,3.9-3.1C1847.6,319,1841.8,315.1,1838.8,319.2z"/><path class="st19" d="M1401,402.8c-0.6,0.8-0.9,1.8-0.8,2.9c0,0.6,0.1,1.2,0.2,1.8c0.3,0.8,0.8,1.4,1.4,1.9
		c0.8,0.6,1.7,0.8,2.7,0.8c1.8-0.2,3.3-1.4,3.9-3.1C1409.8,402.5,1404,398.7,1401,402.8z"/><path class="st19" d="M1184.2,382.8c-0.6,0.9-0.7,2.1-0.4,3.1c0.2,0.5,0.5,1,1,1.3c0.5,0.4,1.2,0.6,1.8,0.5
		c1.2-0.1,2.3-0.9,2.6-2.1C1190.2,382.6,1186.3,380,1184.2,382.8z"/><path class="st19" d="M1166.2,374.4c-0.6,0.9-0.7,2.1-0.4,3.1c0.2,0.5,0.5,1,1,1.3c0.5,0.4,1.2,0.6,1.8,0.5
		c1.2-0.1,2.3-0.9,2.6-2.1C1172.2,374.2,1168.2,371.6,1166.2,374.4z"/><path class="st19" d="M1261.2,396.6c-0.4,0.6-0.6,1.3-0.6,1.9c0,0.4,0,0.8,0.2,1.2c0.2,0.5,0.5,1,1,1.3c0.5,0.4,1.2,0.6,1.8,0.5
		c1.2-0.1,2.3-0.9,2.6-2.1C1267.1,396.4,1263.2,393.9,1261.2,396.6z"/><path class="st19" d="M1268,386.3c-0.4,0.6-0.6,1.2-0.6,1.9c0,0.4,0,0.8,0.2,1.2c0.2,0.5,0.5,1,1,1.3c0.5,0.4,1.2,0.6,1.8,0.5
		c1.2-0.1,2.2-0.9,2.6-2.1C1274,386.1,1270.1,383.5,1268,386.3z"/><path class="st19" d="M1784.4,347.9c-0.6,0.8-0.9,1.8-0.8,2.9c0,0.6,0.1,1.2,0.2,1.8c0.3,0.8,0.8,1.4,1.4,1.9
		c0.8,0.6,1.7,0.8,2.7,0.8c1.8-0.2,3.3-1.4,3.9-3.1C1793.2,347.6,1787.4,343.8,1784.4,347.9z"/><path class="st4" d="M1523.9,788.3c-0.8,1.2-1.3,2.7-1.2,4.2c0,0.9,0.1,1.8,0.3,2.6c0.4,1.1,1.1,2.1,2.1,2.8
		c1.1,0.8,2.5,1.2,3.9,1.1c2.7-0.2,4.9-2,5.7-4.6C1536.9,788,1528.4,782.3,1523.9,788.3z"/><path class="st4" d="M1194.8,833.5c-0.8,1.2-1.3,2.7-1.2,4.2c0,0.9,0.1,1.8,0.3,2.6c0.4,1.1,1.1,2.1,2.1,2.8c1.2,0.8,2.6,1.2,4,1.1
		c2.7-0.2,4.9-2,5.7-4.6C1207.8,833.1,1199.2,827.5,1194.8,833.5z"/><path class="st4" d="M1531.8,808.8c-0.6,0.8-0.9,1.8-0.8,2.9c0,0.6,0.1,1.2,0.2,1.8c0.3,0.8,0.8,1.4,1.4,1.9
		c0.8,0.6,1.7,0.8,2.7,0.8c1.8-0.2,3.3-1.4,3.9-3.1C1540.6,808.5,1534.8,804.7,1531.8,808.8z"/><path class="st4" d="M1540.7,845c-0.6,0.8-0.9,1.8-0.8,2.9c0,0.6,0.1,1.2,0.2,1.8c0.3,0.8,0.8,1.4,1.4,1.9c0.8,0.6,1.7,0.8,2.7,0.8
		c1.8-0.2,3.3-1.4,3.9-3.1C1549.6,844.7,1543.8,840.8,1540.7,845z"/><path class="st4" d="M1450.4,767.1c-0.6,0.8-0.9,1.9-0.8,2.9c0,0.6,0.1,1.2,0.2,1.8c0.3,0.8,0.8,1.4,1.4,1.9
		c0.8,0.6,1.7,0.8,2.7,0.8c1.8-0.2,3.3-1.4,3.9-3.1C1459.2,766.8,1453.4,763,1450.4,767.1z"/><path class="st4" d="M1311.1,854.1c-0.6,0.8-0.9,1.9-0.8,2.9c0,0.6,0.1,1.2,0.2,1.8c0.3,0.8,0.8,1.4,1.4,1.9
		c0.8,0.6,1.7,0.8,2.7,0.8c1.8-0.2,3.3-1.4,3.9-3.1C1320,853.8,1314.2,850,1311.1,854.1z"/><path class="st4" d="M1426.9,835.6c-0.6,0.8-0.9,1.8-0.8,2.9c0,0.6,0.1,1.2,0.2,1.8c0.3,0.8,0.8,1.4,1.4,1.9
		c0.8,0.6,1.7,0.8,2.7,0.8c1.8-0.2,3.3-1.4,3.9-3.1C1435.7,835.3,1429.9,831.5,1426.9,835.6z"/><path class="st4" d="M1210.1,815.6c-0.4,0.6-0.6,1.2-0.6,1.9c0,0.4,0,0.8,0.2,1.2c0.2,0.5,0.5,1,1,1.3c0.5,0.4,1.2,0.6,1.8,0.5
		c1.2-0.1,2.3-0.9,2.6-2.1C1216.1,815.4,1212.2,812.9,1210.1,815.6z"/><path class="st4" d="M1192.1,807.2c-0.4,0.6-0.6,1.2-0.6,1.9c0,0.4,0,0.8,0.2,1.2c0.2,0.5,0.5,1,1,1.3c0.5,0.4,1.2,0.6,1.8,0.5
		c1.2-0.1,2.3-0.9,2.6-2.1C1198.1,807,1194.2,804.4,1192.1,807.2z"/><path class="st4" d="M1287.1,829.4c-0.4,0.6-0.6,1.2-0.6,1.9c0,0.4,0,0.8,0.2,1.2c0.2,0.5,0.5,1,1,1.3c0.5,0.4,1.2,0.6,1.8,0.5
		c1.2-0.1,2.3-0.9,2.6-2.1C1293.1,829.2,1289.1,826.7,1287.1,829.4z"/><path class="st4" d="M1293.9,819.1c-0.4,0.6-0.6,1.3-0.6,1.9c0,0.4,0,0.8,0.2,1.2c0.2,0.5,0.5,1,1,1.3c0.5,0.4,1.2,0.6,1.8,0.5
		c1.2-0.1,2.3-0.9,2.7-2.1C1299.9,818.9,1296,816.3,1293.9,819.1z"/><path class="st4" d="M1751,792.7c-0.8,1.2-1.3,2.7-1.2,4.2c0,0.9,0.1,1.8,0.3,2.6c0.4,1.1,1.1,2.1,2.1,2.8c1.2,0.8,2.6,1.2,4,1.2
		c2.7-0.2,4.9-2,5.7-4.6C1764,792.2,1755.4,786.6,1751,792.7z"/><path class="st4" d="M1792.7,768.6c-0.8,1.2-1.3,2.7-1.2,4.2c0,0.9,0.1,1.8,0.3,2.6c0.4,1.1,1.1,2.1,2.1,2.8
		c1.1,0.8,2.5,1.2,3.9,1.1c2.7-0.2,4.9-2,5.7-4.6C1805.7,768.2,1797.1,762.5,1792.7,768.6z"/><path class="st4" d="M1860.1,823.7c-0.6,0.8-0.9,1.9-0.8,2.9c0,0.6,0.1,1.2,0.2,1.8c0.3,0.8,0.8,1.4,1.4,1.9
		c0.8,0.6,1.7,0.8,2.7,0.8c1.8-0.2,3.3-1.4,3.9-3.1C1869,823.5,1863.1,819.6,1860.1,823.7z"/><path class="st4" d="M1756.2,753.8c-0.6,0.8-0.9,1.8-0.8,2.9c0,0.6,0.1,1.2,0.2,1.8c0.3,0.8,0.8,1.4,1.4,1.9
		c0.8,0.6,1.7,0.8,2.7,0.8c1.8-0.2,3.3-1.4,3.9-3.1C1765.1,753.5,1759.3,749.7,1756.2,753.8z"/><path class="st4" d="M1864.7,752c-0.6,0.8-0.9,1.8-0.8,2.9c0,0.6,0.1,1.2,0.2,1.8c0.3,0.8,0.8,1.4,1.4,1.9c0.8,0.6,1.7,0.8,2.7,0.8
		c1.8-0.2,3.3-1.4,3.9-3.1C1873.5,751.8,1867.7,748,1864.7,752z"/><path class="st4" d="M1810.3,780.7c-0.8,1.4-1.1,3.1-0.6,4.6c0.3,0.8,0.8,1.4,1.4,1.9c0.8,0.6,1.7,0.8,2.7,0.8
		c1.8-0.2,3.3-1.4,3.9-3.1C1819.2,780.5,1813.3,776.6,1810.3,780.7z"/><path class="st16" d="M366.3,302.3c0.4,1.5,1.2,2.8,2.3,3.7c0.6,0.6,1.4,1.1,2.2,1.5c1.1,0.5,2.3,0.6,3.5,0.3
		c1.4-0.3,2.6-1.1,3.5-2.1c1.6-2.1,1.8-5,0.5-7.3C374.7,292.4,364.8,295,366.3,302.3z"/><path class="st16" d="M382.9,299c0.2,1,0.8,1.9,1.6,2.5c0.4,0.4,0.9,0.8,1.5,1c0.8,0.3,1.6,0.4,2.4,0.2c0.9-0.2,1.8-0.7,2.4-1.5
		c1.1-1.4,1.2-3.4,0.3-5C388.6,292.3,381.9,294,382.9,299z"/><path class="st16" d="M327.7,335.3c0.2,1,0.8,1.9,1.6,2.5c0.4,0.4,0.9,0.7,1.5,1c0.8,0.3,1.6,0.4,2.4,0.2c0.9-0.2,1.8-0.7,2.4-1.5
		c1.1-1.4,1.2-3.4,0.3-5C333.5,328.6,326.8,330.3,327.7,335.3z"/><path class="st16" d="M353.9,329c0.2,1,0.8,1.9,1.6,2.5c0.4,0.4,0.9,0.8,1.5,1c0.7,0.3,1.6,0.4,2.4,0.2c0.9-0.2,1.8-0.7,2.4-1.5
		c1.1-1.5,1.2-3.4,0.3-5C359.7,322.3,352.9,324,353.9,329z"/><path class="st16" d="M344.7,302.9c0.2,1,0.8,1.9,1.6,2.5c0.4,0.4,0.9,0.8,1.5,1c0.8,0.3,1.6,0.4,2.4,0.2c0.9-0.2,1.8-0.7,2.4-1.5
		c1.1-1.4,1.2-3.4,0.3-5C350.4,296.1,343.7,297.9,344.7,302.9z"/><path class="st16" d="M95.4,821.1c-0.8,1.2-1.3,2.7-1.2,4.2c0,0.9,0.1,1.8,0.3,2.6c0.4,1.1,1.1,2.1,2.1,2.8
		c1.1,0.8,2.5,1.2,3.9,1.1c2.7-0.2,4.9-2,5.7-4.6C108.4,820.7,99.9,815.1,95.4,821.1z"/><path class="st16" d="M29,661.5c-0.8,1.2-1.3,2.7-1.2,4.2c0,0.9,0.1,1.8,0.4,2.6c0.4,1.1,1.1,2.1,2.1,2.8c1.2,0.8,2.6,1.2,4,1.2
		c2.7-0.2,4.9-2,5.8-4.6C42,661.1,33.4,655.5,29,661.5z"/><path class="st16" d="M75.1,700.8c-0.8,1.3-1.3,2.7-1.2,4.2c0,0.9,0.1,1.8,0.3,2.6c0.4,1.1,1.1,2.1,2.1,2.8c1.2,0.8,2.6,1.2,4,1.1
		c2.6-0.3,4.9-2,5.7-4.6C88.1,700.3,79.5,694.7,75.1,700.8z"/><path class="st16" d="M81.3,792.9c-0.6,0.8-0.9,1.8-0.8,2.9c0,0.6,0.1,1.2,0.2,1.8c0.3,0.8,0.8,1.4,1.4,1.9
		c0.8,0.6,1.7,0.8,2.7,0.8c1.8-0.2,3.3-1.4,3.9-3.1C90.2,792.6,84.3,788.8,81.3,792.9z"/><path class="st16" d="M108.6,501.9c-0.6,0.8-0.9,1.9-0.8,2.9c0,0.6,0.1,1.2,0.2,1.8c0.3,0.8,0.8,1.4,1.4,1.9
		c0.8,0.6,1.7,0.8,2.7,0.8c1.8-0.2,3.3-1.4,3.9-3.1C117.5,501.6,111.7,497.8,108.6,501.9z"/><path class="st16" d="M81.3,649.5c-0.6,0.8-0.9,1.8-0.8,2.9c0,0.6,0.1,1.2,0.2,1.8c0.3,0.8,0.8,1.4,1.4,1.9
		c0.8,0.6,1.7,0.8,2.7,0.8c1.8-0.2,3.3-1.4,3.9-3.1C90.2,649.2,84.3,645.4,81.3,649.5z"/><path class="st16" d="M106.3,627.3c-0.4,0.6-0.6,1.2-0.6,1.9c0,0.4,0,0.8,0.2,1.2c0.2,0.5,0.5,1,1,1.3c0.5,0.4,1.2,0.6,1.8,0.5
		c1.2-0.1,2.3-0.9,2.6-2.1C112.3,627.2,108.3,624.6,106.3,627.3z"/><path class="st16" d="M88.3,618.9c-0.4,0.6-0.6,1.2-0.6,1.9c0,0.4,0,0.8,0.2,1.2c0.2,0.5,0.5,1,1,1.3c0.5,0.4,1.2,0.6,1.8,0.5
		c1.2-0.1,2.3-0.9,2.6-2.1C94.2,618.7,90.3,616.1,88.3,618.9z"/><path class="st16" d="M62.1,495.5c-0.4,0.6-0.6,1.3-0.6,1.9c0,0.4,0,0.8,0.2,1.2c0.2,0.5,0.5,1,1,1.3c0.5,0.4,1.2,0.6,1.8,0.5
		c1.2-0.1,2.3-0.9,2.6-2.1C68.1,495.4,64.1,492.8,62.1,495.5z"/></g><g id="bubble"><path class="st20" d="M502,687.3c-5.2,7-7,15.9-7.1,24.6c-0.2,5.2,0.5,10.3,2,15.3c2.3,6.6,6.6,12.4,12.4,16.5
		c6.7,4.8,14.9,7.2,23.1,6.7c15.2-0.9,28.9-12.3,33.5-26.7C578,684.9,528,652.1,502,687.3z"/><path class="st20" d="M1305.4,27.8c-5.2,7-7,15.9-7.1,24.6c-0.2,5.2,0.5,10.3,2,15.2c2.3,6.6,6.6,12.4,12.4,16.5
		c6.7,4.8,14.9,7.2,23.1,6.7c15.2-0.9,28.9-12.3,33.5-26.8C1381.4,25.4,1331.4-7.4,1305.4,27.8z"/><path class="st21" d="M1201.3,683.2c-5.2,7-7,15.9-7.1,24.6c-0.2,5.2,0.5,10.3,2,15.2c2.3,6.6,6.6,12.4,12.4,16.5
		c6.7,4.8,14.9,7.2,23.1,6.7c15.2-0.9,28.9-12.3,33.5-26.8C1277.4,680.9,1227.4,648,1201.3,683.2z"/><path class="st22" d="M730.8,116.1c-8.9,12.1-12.1,27.5-12.3,42.5c-0.2,8.9,0.7,17.9,3.5,26.3c4,11.5,11.5,21.4,21.3,28.4
		c11.6,8.3,25.7,12.4,40,11.5c26.2-1.6,49.9-21.2,57.8-46.2C862.1,112,775.8,55.3,730.8,116.1z"/><path class="st20" d="M286.6,405c-3.9,5.2-5.3,12-5.4,18.5c-0.2,3.9,0.4,7.8,1.5,11.5c1.7,5,5,9.3,9.3,12.4
		c5.1,3.6,11.2,5.4,17.4,5c11.4-0.7,21.7-9.2,25.2-20.1C343.8,403.2,306.2,378.5,286.6,405z"/><path class="st23" d="M642.5,527.1c-0.5,1.1-0.9,2.3-1,3.5c-0.8,6.5-1.5,14,0.8,20.7c1.8,5,5,9.3,9.3,12.4c5.1,3.6,11.2,5.4,17.4,5
		c11.4-0.7,21.7-9.2,25.2-20.1C703.9,517.6,660.6,491.6,642.5,527.1z"/><path class="st23" d="M58.1,165.2c-3.9,5.2-5.3,12-5.4,18.5c-0.2,3.9,0.4,7.8,1.5,11.5c1.8,5,5,9.3,9.3,12.4
		c5.1,3.6,11.2,5.4,17.4,5c11.4-0.7,21.7-9.2,25.2-20.1C115.2,163.4,77.7,138.8,58.1,165.2z"/><path class="st20" d="M653,355.2c-2.7,3.6-3.6,8.2-3.7,12.7c-0.1,2.7,0.2,5.3,1,7.9c1.2,3.4,3.4,6.4,6.4,8.5
		c3.5,2.5,7.7,3.7,12,3.5c7.8-0.5,14.9-6.4,17.3-13.8C692.3,353.9,666.5,337,653,355.2z"/><path class="st24" d="M1640.2,370.9c-2.7,3.6-3.6,8.2-3.7,12.7c-0.1,2.7,0.3,5.3,1.1,7.9c1.2,3.4,3.4,6.4,6.4,8.5
		c3.5,2.5,7.7,3.7,12,3.5c7.8-0.5,14.9-6.3,17.3-13.8C1679.6,369.6,1653.7,352.7,1640.2,370.9z"/><path class="st21" d="M1559.3,540.2c-7.9,10.7-10.7,24.3-10.9,37.6c-0.1,7.9,0.6,15.8,3.1,23.3c3.5,10.1,10.1,18.9,18.9,25.1
		c10.3,7.3,22.7,10.9,35.3,10.2c23.1-1.4,44.1-18.7,51.1-40.8C1675.3,536.6,1599,486.5,1559.3,540.2z"/><path class="st20" d="M22.5,424c-7.9,10.7-10.7,24.3-10.9,37.6c-0.1,7.9,0.6,15.8,3.1,23.3c3.5,10.1,10.1,18.9,18.9,25.1
		c10.3,7.3,22.7,10.9,35.3,10.2c23.1-1.4,44.1-18.8,51.1-40.8C138.6,420.4,62.3,370.3,22.5,424z"/><path class="st20" d="M1586.6,60.5c-0.6,1.1-0.9,2.3-1.1,3.5c-0.7,6.3-1.4,13.4,0.8,19.8c1.7,4.8,4.8,8.9,8.9,11.9
		c4.9,3.5,10.8,5.2,16.7,4.8c11-0.7,20.9-8.9,24.2-19.3C1645.6,51.4,1604.1,26.4,1586.6,60.5z"/></g></svg>