<svg width="779" height="809" viewBox="0 0 779 809" fill="none" xmlns="http://www.w3.org/2000/svg"><g clip-path="url(#clip0_2_3)"><path d="M777.556 549.37C777.636 622.003 620.896 751.454 406.02 751.69C191.145 751.925 -0.447278 682.056 -0.591926 550.223C-0.671628 477.583 777.476 476.729 777.556 549.37Z" fill="#434070"/><path d="M298 72L298 224L280 224L298 72Z" fill="#333333"/><path d="M296.807 99.9482C291.788 99.9929 286.87 98.5482 282.673 95.7968C278.475 93.0454 275.189 89.111 273.228 84.4913C271.268 79.8717 270.721 74.7742 271.658 69.844C272.596 64.9138 274.974 60.3723 278.492 56.794C282.011 53.2157 286.512 50.7614 291.426 49.7416C296.34 48.7218 301.445 49.1824 306.097 51.065C310.749 52.9476 314.738 56.1677 317.56 60.3179C320.382 64.4681 321.909 69.3619 321.948 74.3802C321.998 81.1027 319.379 87.5704 314.665 92.3639C309.952 97.1574 303.529 99.885 296.807 99.9482V99.9482Z" fill="#D2324B"/><path d="M389.447 652.812C604.326 652.576 778.466 602.081 778.397 540.027C778.329 477.973 604.08 427.86 389.2 428.096C174.321 428.331 0.181416 478.827 0.249502 540.881C0.317588 602.935 174.567 653.048 389.447 652.812Z" fill="#74FF33"/><path d="M769.78 541.304C770.015 566.553 727.548 597.799 658.626 614.959C590.003 632.053 495.196 643.097 390.419 644.071C280.716 645.091 181.764 632.717 112.143 613.486C48.5016 595.899 9.38969 564.577 9.16597 540.508C8.96507 518.894 43.0463 489.165 95.2853 474.701C119.454 468.01 148.125 462.23 180.284 457.479C189.432 456.124 198.864 454.859 208.58 453.684C262.82 447.083 325.231 443.207 391.615 442.59C398.702 442.524 405.746 442.506 412.745 442.535C461.336 442.613 509.891 445.181 558.218 450.229C561.015 450.534 563.796 450.838 566.553 451.159C576.501 452.304 586.19 453.551 595.62 454.9C627.259 459.428 655.737 465.079 680.139 471.633C737.606 487.075 769.569 518.573 769.78 541.304Z" fill="#434070"/><path d="M344.994 727C347.961 727.005 350.864 726.13 353.333 724.486C355.803 722.841 357.73 720.502 358.869 717.763C360.008 715.024 360.309 712.009 359.734 709.099C359.158 706.189 357.733 703.515 355.637 701.416C353.54 699.316 350.868 697.885 347.959 697.303C345.049 696.722 342.031 697.016 339.289 698.149C336.546 699.282 334.201 701.202 332.551 703.667C330.9 706.132 330.019 709.031 330.017 711.997C330.016 715.971 331.593 719.782 334.401 722.595C337.209 725.408 341.018 726.992 344.994 727V727Z" fill="#74FF33"/><path d="M233.994 718C236.961 718.005 239.864 717.13 242.333 715.485C244.803 713.841 246.73 711.502 247.869 708.763C249.008 706.024 249.309 703.009 248.734 700.099C248.158 697.189 246.733 694.515 244.637 692.415C242.54 690.316 239.868 688.885 236.959 688.303C234.049 687.722 231.031 688.016 228.289 689.149C225.546 690.281 223.201 692.202 221.551 694.667C219.9 697.132 219.019 700.031 219.017 702.997C219.016 706.971 220.593 710.782 223.401 713.595C226.209 716.407 230.018 717.992 233.994 718V718Z" fill="#74FF33"/><path d="M147.993 691C150.961 691.005 153.863 690.13 156.333 688.486C158.803 686.841 160.729 684.502 161.868 681.763C163.008 679.024 163.309 676.009 162.733 673.099C162.158 670.189 160.732 667.515 158.636 665.415C156.54 663.316 153.868 661.885 150.958 661.303C148.048 660.722 145.031 661.016 142.288 662.149C139.546 663.281 137.201 665.202 135.55 667.667C133.9 670.132 133.018 673.031 133.016 675.997C133.016 679.971 134.592 683.782 137.4 686.595C140.208 689.408 144.018 690.992 147.993 691V691Z" fill="#74FF33"/><path d="M69.9937 657C72.9612 657.005 75.8635 656.13 78.3333 654.486C80.8032 652.841 82.7296 650.502 83.8689 647.763C85.0082 645.024 85.3092 642.009 84.7338 639.099C84.1585 636.189 82.7325 633.515 80.6365 631.416C78.5404 629.316 75.8684 627.885 72.9585 627.303C70.0485 626.722 67.0314 627.016 64.2888 628.149C61.5462 629.281 59.2013 631.202 57.5509 633.667C55.9004 636.132 55.0185 639.031 55.0168 641.997C55.0164 645.971 56.5931 649.782 59.401 652.595C62.2088 655.408 66.0184 656.992 69.9937 657V657Z" fill="#74FF33"/><path d="M444.042 727C441.074 727.005 438.172 726.13 435.702 724.486C433.232 722.841 431.306 720.502 430.166 717.763C429.027 715.024 428.726 712.009 429.301 709.099C429.877 706.189 431.303 703.515 433.399 701.416C435.495 699.316 438.167 697.885 441.077 697.303C443.987 696.722 447.004 697.016 449.746 698.149C452.489 699.282 454.834 701.202 456.484 703.667C458.135 706.132 459.017 709.031 459.019 711.997C459.019 715.971 457.442 719.782 454.634 722.595C451.826 725.408 448.017 726.992 444.042 727V727Z" fill="#74FF33"/><path d="M539.042 718C536.074 718.005 533.172 717.13 530.702 715.485C528.232 713.841 526.306 711.502 525.166 708.763C524.027 706.024 523.726 703.009 524.301 700.099C524.877 697.189 526.303 694.515 528.399 692.415C530.495 690.316 533.167 688.885 536.077 688.303C538.987 687.722 542.004 688.016 544.746 689.149C547.489 690.281 549.834 692.202 551.484 694.667C553.135 697.132 554.017 700.031 554.019 702.997C554.019 706.971 552.442 710.782 549.634 713.595C546.826 716.407 543.017 717.992 539.042 718V718Z" fill="#74FF33"/><path d="M615.042 692C612.074 692.004 609.172 691.129 606.702 689.485C604.232 687.841 602.306 685.501 601.166 682.762C600.027 680.023 599.726 677.008 600.301 674.098C600.877 671.189 602.303 668.515 604.399 666.415C606.495 664.315 609.167 662.884 612.077 662.303C614.987 661.721 618.004 662.015 620.746 663.148C623.489 664.281 625.834 666.201 627.484 668.666C629.135 671.131 630.017 674.03 630.019 676.997C630.019 680.97 628.442 684.781 625.634 687.594C622.826 690.407 619.017 691.991 615.042 692V692Z" fill="#74FF33"/><path d="M686.042 658C683.075 658.005 680.172 657.13 677.703 655.486C675.233 653.841 673.306 651.502 672.167 648.763C671.028 646.024 670.727 643.009 671.302 640.099C671.877 637.189 673.303 634.515 675.399 632.416C677.495 630.316 680.167 628.885 683.077 628.303C685.987 627.722 689.004 628.016 691.747 629.149C694.49 630.282 696.835 632.202 698.485 634.667C700.135 637.132 701.017 640.031 701.019 642.997C701.02 646.971 699.443 650.782 696.635 653.595C693.827 656.408 690.017 657.992 686.042 658V658Z" fill="#74FF33"/><path d="M591.841 448.498C591.924 458.435 591.134 470.479 589.905 482.933C586.281 519.687 578.846 560.06 578.846 560.06C578.846 560.06 578.651 561.218 578.235 563.187C577.944 564.534 577.553 566.266 577.046 568.263C529.928 579.957 464.84 587.481 392.914 588.086C317.606 588.719 249.687 580.163 201.905 566.917L200.983 563.236C200.983 563.236 192.629 521.83 188.438 484.682C187.101 472.811 186.189 461.408 186.11 451.909C185.609 392.414 202.483 327.162 231.357 279.464C242.664 260.786 255.814 244.798 270.484 232.906L503.792 230.945C504.174 231.353 504.555 231.76 504.926 232.173C515.626 243.743 525.437 256.105 534.274 269.152C534.498 269.475 534.712 269.786 534.914 270.092L535.724 271.3C535.773 271.381 535.822 271.456 535.877 271.531C569.405 321.794 591.302 384.43 591.841 448.498Z" fill="#D2324B"/><path d="M389.631 554.275C321.071 554.851 264.831 500.167 264.261 432.385C263.691 364.602 319.005 308.981 387.565 308.405C456.125 307.829 512.365 362.508 512.935 430.295C513.505 498.082 458.187 553.698 389.631 554.275Z" fill="#434070"/><path d="M389.023 537.451C448.657 536.95 496.595 488.41 496.096 429.034C495.597 369.658 446.849 321.931 387.215 322.432C327.581 322.933 279.643 371.473 280.142 430.849C280.641 490.225 329.389 537.952 389.023 537.451Z" fill="#85D1FF"/><path d="M387.657 326.168C444.396 325.691 490.935 371.226 491.41 427.673C491.884 484.12 446.117 530.426 389.378 530.903C361.01 531.142 406.22 478.456 405.785 427.257C405.35 376.059 359.289 326.406 387.657 326.168Z" fill="#434070"/><path d="M388.422 147.779C378.5 147.924 368.66 149.59 359.243 152.72C309.736 169.493 232.052 274.416 231.476 279.989L539.982 277.396C538.799 269.931 459.425 168.711 411.522 152.281C405.124 150.087 397.842 147.7 388.422 147.779Z" fill="#9E0E38"/><path d="M491.069 340.647C488.681 340.667 486.341 339.947 484.344 338.576C482.347 337.206 480.783 335.248 479.849 332.949C478.916 330.65 478.656 328.115 479.101 325.662C479.546 323.21 480.677 320.951 482.351 319.172C484.025 317.392 486.166 316.172 488.504 315.666C490.841 315.159 493.271 315.388 495.485 316.325C497.699 317.262 499.598 318.864 500.943 320.928C502.287 322.993 503.015 325.427 503.036 327.924C503.061 331.27 501.815 334.489 499.572 336.875C497.328 339.26 494.27 340.617 491.069 340.647V340.647Z" fill="#74FF33"/><path d="M513.536 369.202C511.039 369.225 508.591 368.506 506.503 367.137C504.415 365.768 502.779 363.81 501.804 361.512C500.829 359.213 500.557 356.677 501.023 354.224C501.489 351.771 502.672 349.511 504.423 347.73C506.174 345.95 508.413 344.729 510.858 344.221C513.303 343.714 515.844 343.943 518.158 344.88C520.473 345.817 522.458 347.419 523.862 349.484C525.266 351.549 526.026 353.984 526.045 356.481C526.07 359.826 524.767 363.044 522.422 365.429C520.076 367.814 516.881 369.171 513.536 369.202V369.202Z" fill="#74FF33"/></g><defs><clipPath id="clip0_2_3"><rect width="779" height="809" fill="white"/></clipPath></defs></svg>