<svg xmlns="http://www.w3.org/2000/svg" xmlns:xlink="http://www.w3.org/1999/xlink" viewBox="0 0 89.12 83.24"><defs><style>.cls-1{fill:none;}.cls-2{clip-path:url(#clip-path);}.cls-3{fill:#f5584f;}.cls-4{fill:#f55044;}.cls-5{fill:#ea4642;}.cls-6{fill:#ea2840;}.cls-7{fill:#bc243e;opacity:0.67;}</style><clipPath id="clip-path" transform="translate(8.82)"><circle class="cls-1" cx="37.24" cy="37.24" r="37.24"/></clipPath></defs><g id="Layer_2" data-name="Layer 2"><g id="red_planet" data-name="red planet"><g class="cls-2"><circle class="cls-3" cx="46.06" cy="37.24" r="37.24"/><path class="cls-4" d="M70.89,27.05c-5.29-4.79-13.14-7.26-19.79-4.67-2.17.84-4.32,2.48-4.59,4.78-.31,2.58,1.93,4.86,4.38,5.73s5.13.74,7.71,1A22.91,22.91,0,0,1,72.14,40.6c2.33,2.38,9.09,9.64,8,1.82C79.46,36.89,74.89,30.68,70.89,27.05Z" transform="translate(8.82)"/><path class="cls-4" d="M10.57,52c7.9,2.86,16.49,2.83,24.82,3.94,3.12.42,6.67,1.31,8,4.14,1.26,2.6,0,5.92-2.31,7.67S35.78,70,32.89,69.83c-6.06-.28-11.76-2.79-17.3-5.26L3.14,59C.1,57.67-3,56.24-5.23,53.75-7.74,50.91-8.61,47.1-8.79,43.4c-.13-2.6-.08-10.35,3.85-6.79,2.36,2.13,3.11,6.7,5.63,9.22A26.84,26.84,0,0,0,10.57,52Z" transform="translate(8.82)"/><path class="cls-5" d="M54.51,13.29c-8.2-1.74-16-5.76-24.41-5.67C16.93,7.76,5,19.8,5.06,33c0,4,1.18,8.36,4.34,10.87a2.44,2.44,0,0,0,1.7.68A2.63,2.63,0,0,0,12.87,43c3.57-6.37,2.58-14.77,7-20.61,3.65-4.87,10.22-6.7,16.3-6.52s12,2,18,3.1,12.47,1.26,17.83-1.61c2.8-1.51,11.56-11.71,5.7-13.53C73.45,12.94,63.85,15.26,54.51,13.29Z" transform="translate(8.82)"/><path class="cls-5" d="M25.27,29.19c-2.9,4.72-2.6,11.4,1.25,15.39,2.94,3.06,7.33,4.19,11.53,4.87s8.55,1.09,12.28,3.14S57,58.9,55.91,63a9.75,9.75,0,0,1-2.73,4.39c-4.52,4.49-11.19,5.91-16.8,8.81a4,4,0,0,0-2.18,3c-.44,3.31,4,4.43,7.22,4A40.65,40.65,0,0,0,62.6,73.48c4-3.51,7.49-8.86,5.71-13.88A15.38,15.38,0,0,0,65.37,55c-5-6-11-12.2-18.81-13.14-4.16-.51-8.42.56-12.51-1a7.47,7.47,0,0,1-3.48-2.58c-2.7-3.81-.07-8.08,3.19-10.44A25.62,25.62,0,0,1,36,26.45c2.59-1.48.55-5.44-2.13-4.14C30.13,24.14,26.41,27.32,25.27,29.19Z" transform="translate(8.82)"/><path class="cls-6" d="M47.41,29.11a5.58,5.58,0,0,0-2.47,1.82c-1.42,2.19.53,5.19,2.94,6.19s5.14.79,7.67,1.43c2.77.7,5.18,2.36,7.72,3.66a6.56,6.56,0,0,0,2.95.91,5.27,5.27,0,0,0,2.67-.88,9,9,0,0,0,4-9.2C70.73,22.75,54,26.13,47.41,29.11Z" transform="translate(8.82)"/><path class="cls-6" d="M19.81,59.63c3.62,3.85,9.68,4.48,14.75,3a4.62,4.62,0,0,0,3-1.94c.87-1.64-.22-3.59-1.34-5.06a15.87,15.87,0,0,0-3.74-3.84c-1.28-.83-2.55-.93-3.48-2.29a6.28,6.28,0,0,0-1.81-2.11c-.81-.46-2.1-.25-2.34.66s.79,1.82.87,2.83a1.88,1.88,0,0,1-2.24,1.74,3,3,0,0,1-2.17-2.23,9.14,9.14,0,0,1-.12-3.26l.2-2.4c.11-1.37.08-3.05-1.12-3.74a2.42,2.42,0,0,0-2.85.65,5.46,5.46,0,0,0-1.17,2.88C15.5,49.15,16.49,56.1,19.81,59.63Z" transform="translate(8.82)"/><path class="cls-7" d="M46.81,8.65c0,2.82-4.38,1.8-10.34,1.8s-11.24,1-11.24-1.8S30.06,3.56,36,3.56,46.81,5.84,46.81,8.65Z" transform="translate(8.82)"/><path class="cls-7" d="M15.6,54c1.29-1.37,3,1.13,5.87,3.86s5.94,4.65,4.66,6-4.69.27-7.6-2.46S14.31,55.33,15.6,54Z" transform="translate(8.82)"/><path class="cls-7" d="M66,46.27c-1.74-.74,0-3.17,1.58-6.84s2.31-7.2,4-6.46,1.88,4.3.33,8S67.71,47,66,46.27Z" transform="translate(8.82)"/></g></g></g></svg>