<svg xmlns="http://www.w3.org/2000/svg" viewBox="0 0 89.89 69.36"><defs><style>.cls-1{fill:#fef2e2;}</style></defs><g id="Layer_2" data-name="Layer 2"><g id="rocket_fire" data-name="rocket fire"><path class="cls-1" d="M89.76,53.54a6.65,6.65,0,0,0-1.94-3.63,5.61,5.61,0,0,0-1.25-4.43C85,43.69,82.2,43.34,79.89,44a19.56,19.56,0,0,0-6.21,3.59c1.95-2.07,4-4.25,4.71-7s-.21-6.18-2.84-7.25c-2.41-1-5.27.41-6.79,2.53s-2,4.77-2.49,7.34a7.24,7.24,0,0,0-13.18,2.65c2.27-13.29,5.23-19.07,7.5-32.36-7.72,11.18-6.89,19-13,31.12C46,25.74,45,18.53,49,0,39.5,15.93,46.32,25,39,42.05c.71-2.25-.42-5.1-2.69-5.76-2.12-.62-4.6,1.46-4.24,3.53-.69-1.88-3.62-2.65-5-1.14.88-13.17,2.6-15.92,7.35-28.23C27.93,23.19,26,27.05,23.05,41c.2-.93-1.67-2.19-2.28-2.43-1.8,4.81-4.35,2-8.08,3.26-1.91.65-4.24,2.66-4.29,4.81a6.78,6.78,0,0,0-5.21,2.07,5.76,5.76,0,0,0-3,3.86c-.61,2.52.48,4.28,1.87,6,1.1,3.64,4.24,5.12,8.43,4.7a7.49,7.49,0,0,0,.77.23,8.38,8.38,0,0,0,3.38.12,6.18,6.18,0,0,0,1.85-.7,7.16,7.16,0,0,0,1.07.81,8.43,8.43,0,0,0,7.35.25c.08.24.16.47.24.68,1.15,3,3.71,4.26,6.79,4.61a8.43,8.43,0,0,0,6.53-1.88,4.86,4.86,0,0,0,4.78-.77c.18.08.36.16.56.23,2.91,1,5.12-.22,7.12-2.22a15.65,15.65,0,0,0,2-2.39c.06-.09.17-.27.29-.49a4.12,4.12,0,0,0,1.48.76c-.64-1.76-.72-2-.25-.89A4,4,0,0,0,55,62.8a6.79,6.79,0,0,0,7.9,2.46c.86-.26,2.15-.78,1.7-1,1.25.16,2.63.65,3.81.75a13,13,0,0,0,4.89-.24,3.12,3.12,0,0,0,.48-.18,8.42,8.42,0,0,0,5.36.5,10.79,10.79,0,0,0,3.68-1.75,5.24,5.24,0,0,0,5.57-2.54,9.48,9.48,0,0,0,1.08-2.66,6.76,6.76,0,0,0,.13-1c0-.19.07-.37.1-.5A8.2,8.2,0,0,0,89.76,53.54Z"/></g></g></svg>