<?xml version="1.0" encoding="utf-8"?><!--Generator: Adobe Illustrator 26.0.2, SVG Export Plug-In . SVG Version: 6.00 Build 0)--><svg version="1.1" id="Layer_1" xmlns="http://www.w3.org/2000/svg" xmlns:xlink="http://www.w3.org/1999/xlink" x="0px" y="0px" viewBox="0 0 228.2 420.4" style="enable-background:new 0 0 228.2 420.4" xml:space="preserve"><style type="text/css">.st0{fill:url(#SVGID_1_);}
	.st1{fill:#D2324B;}
	.st2{fill:#434070;}
	.st3{fill:#76C4FF;}
	.st4{fill:#85D1FF;}
	.st5{fill:url(#SVGID_00000008856391025373373930000004641709547320352675_);}
	.st6{fill:url(#SVGID_00000119108280935821423900000005076854624090797964_);}
	.st7{fill:#BC2443;}</style><g id="Layer_2_00000181049559508319937710000002883469093095722119_"><g id="spaceship"><linearGradient id="SVGID_1_" gradientUnits="userSpaceOnUse" x1="71.22" y1="36.56" x2="155.75" y2="36.56"><stop offset="0" style="stop-color:#9E0E38"/><stop offset="0.5" style="stop-color:#9E0E38"/><stop offset="1" style="stop-color:#9E0E38"/></linearGradient><path class="st0" d="M113.5,0c0,0-21.9,28.3-42.3,73.1h84.5C135.4,28.3,113.5,0,113.5,0z"/><path class="st1" d="M155.8,73.1H71.2c-17.5,38.7-33.8,89.6-33.8,145.5c0,69,11.1,130.6,28.5,170.6h95
			c17.4-40.1,28.5-101.6,28.5-170.6C189.6,162.8,173.2,111.8,155.8,73.1z"/><path class="st2" d="M113.5,180.9c-24.9,0-45-20.1-45-45s20.1-45,45-45s45,20.1,45,45C158.4,160.7,138.3,180.8,113.5,180.9z"/><circle class="st3" cx="113.5" cy="135.9" r="31.4"/><path class="st4" d="M83.4,135.1c0-16.6,13.5-30,30-30s30,13.5,30,30c0,8.3-15.4-5.1-30.4-5.1S83.4,143.4,83.4,135.1z"/><linearGradient id="SVGID_00000134240415073809460600000015767210929509364409_" gradientUnits="userSpaceOnUse" x1="142.62" y1="88.14" x2="214.8732" y2="88.14" gradientTransform="matrix(1 0 0 -1 13.3 428.48)"><stop offset="0" style="stop-color:#9E0E38"/><stop offset="0.5" style="stop-color:#9E0E38"/><stop offset="1" style="stop-color:#9E0E38"/></linearGradient><path style="fill:url(#SVGID_00000134240415073809460600000015767210929509364409_)" d="M188.5,260.9L188,263
			c-4.1,56.9-15.9,105.8-32.1,137.1l72.2,19.6C228.4,366.1,211.6,310.1,188.5,260.9z"/><linearGradient id="SVGID_00000108287468900648953110000016400207288499574411_" gradientUnits="userSpaceOnUse" x1="-13.3035" y1="87.365" x2="57.92" y2="87.365" gradientTransform="matrix(1 0 0 -1 13.3 428.48)"><stop offset="0" style="stop-color:#9E0E38"/><stop offset="0.5" style="stop-color:#9E0E38"/><stop offset="1" style="stop-color:#9E0E38"/></linearGradient><path style="fill:url(#SVGID_00000108287468900648953110000016400207288499574411_)" d="M39,262.5C16.2,311.3-0.3,366.7,0,419.8
			l71.2-19.4C54.9,369,43,319.8,39,262.5z"/><path class="st2" d="M77.2,410.8h72.7c4.3-6.9,8-14,11.2-21.5H66C69.2,396.7,72.9,403.9,77.2,410.8z"/><path class="st7" d="M118.3,340.6c0,44-2.3,79.8-5.2,79.8s-5.2-35.7-5.2-79.8s2.3-79.8,5.2-79.8S118.3,296.6,118.3,340.6z"/></g></g></svg>