<?xml version="1.0" encoding="utf-8"?><!--Generator: Adobe Illustrator 26.0.2, SVG Export Plug-In . SVG Version: 6.00 Build 0)--><svg version="1.1" id="Layer_1" xmlns="http://www.w3.org/2000/svg" xmlns:xlink="http://www.w3.org/1999/xlink" x="0px" y="0px" viewBox="0 0 595.3 791.9" style="enable-background:new 0 0 595.3 791.9" xml:space="preserve"><style type="text/css">.st0{fill:#80AF62;}
	.st1{fill:#F2A498;}
	.st2{opacity:0.5;}
	.st3{fill:#F47D69;}
	.st4{fill:#6C513D;}
	.st5{fill:#F49580;}
	.st6{fill:#C46B28;}</style><path class="st0" d="M266.1,352.4v5.4c0,0.9,0.8,1.7,1.7,1.7c0.9,0,1.7-0.8,1.7-1.7v-5.4c0-0.9-0.8-1.7-1.7-1.7
	C266.8,350.7,266.1,351.5,266.1,352.4z"/><path class="st0" d="M271.6,343l1.6,10.8c0.2,0.9,1.2,1.4,2.1,1.2c0,0,0,0,0,0c0.9-0.3,1.3-1.2,1.1-2.1l-1.6-10.8
	c-0.3-0.9-1.2-1.4-2.1-1.2C271.9,341.2,271.4,342.1,271.6,343L271.6,343z"/><path class="st0" d="M281.4,350.1l1,7.1c0.1,0.4,0.4,0.8,0.8,1c0.4,0.2,0.9,0.3,1.3,0.2c0.4-0.1,0.8-0.4,1-0.8
	c0.2-0.4,0.3-0.9,0.2-1.3l-1-7.1c-0.1-0.4-0.4-0.8-0.8-1c-0.4-0.2-0.9-0.3-1.3-0.2c-0.4,0.1-0.8,0.4-1,0.8
	C281.4,349.3,281.3,349.7,281.4,350.1z"/><path class="st1" d="M176,222.9c33.2,12.7,62.7,37,77,69.6c20.7,47,9.6,106.2-26.4,142.9S132,484.3,84.2,465.5
	c-30.7-12.3-55.8-35.5-70.5-65.1C-7,358.3-2.9,304.7,25.1,267.1c16.9-22.8,42.3-38.9,69.8-45.7C94.9,221.4,136.7,207.8,176,222.9z"/><g class="st2"><path class="st3" d="M221.1,419.3c0.4,1.9,0,3.9-1,5.5c-0.3,0.7-1,1.1-1.7,1.1l-1.5,0.2c-0.5-0.5-0.8-1.2-0.8-2
		c0-0.1,0-0.3,0.2-0.4c0.6-0.4,1.2-0.7,1.9-0.8l-1.6,0.1c0.3-1.2,1.3-0.9,2-1.6c0.8-0.6,1.5-1.4,2.1-2.2
		C220.8,419.2,220.9,419.2,221.1,419.3C221,419.3,221.1,419.3,221.1,419.3L221.1,419.3z"/><path class="st3" d="M211.4,416.4c-0.2,1-0.6,2-1,2.9c-0.2,0.4-0.2,1.1-0.7,1.3c-0.8,0.2-1.5,0.1-2.2-0.3c-0.1-0.1-0.2-0.2-0.3-0.3
		c-0.3-0.7-0.4-1.5-0.2-2.2c0.1-0.5,0.8-0.5,1.3-0.7c0.9-0.4,1.9-0.8,2.9-1c0.1,0,0.2,0,0.3,0.2
		C211.3,416.3,211.3,416.3,211.4,416.4L211.4,416.4z"/><path class="st3" d="M205.1,437c-0.1,1.5-0.6,2.9-1.7,4c-0.5,0.6-1,1.4-1.8,1.5c-1,0.1-2-0.3-2.5-1.1c-0.1-0.1-0.1-0.3,0-0.4
		c0.3-0.8,0.6-1.5,1.1-2.1c0.3-0.4,0.9-0.2,1.5-0.4c0.5-0.2,1-0.4,1.5-0.7c0.6-0.3,1.1-0.6,1.6-1.1c0.1-0.1,0.2-0.1,0.3,0
		C205.1,436.9,205.1,436.9,205.1,437L205.1,437z"/><path class="st3" d="M196.8,428.9c-0.2,0.8-0.5,1.7-0.9,2.4c-0.2,0.4-0.2,1-0.6,1c-0.7,0-1.4-0.2-1.9-0.7c-0.5-0.7-0.6-1.6-0.4-2.4
		c0.1-0.5,0.7-0.3,1.1-0.4c0.8-0.2,1.7-0.3,2.6-0.3C196.7,428.6,196.9,428.7,196.8,428.9C196.9,428.9,196.9,428.9,196.8,428.9
		L196.8,428.9z"/><path class="st3" d="M180.8,439.1c-0.2,0.8-0.5,1.7-0.9,2.4c-0.2,0.3-0.2,1-0.6,1c-0.7,0-1.4-0.3-1.9-0.7c-0.5-0.7-0.6-1.6-0.4-2.4
		c0.1-0.5,0.7-0.3,1.1-0.4c0.9-0.2,1.7-0.3,2.6-0.3C180.7,438.8,180.8,438.9,180.8,439.1C180.8,439,180.8,439.1,180.8,439.1
		L180.8,439.1z"/><path class="st3" d="M182.9,452.9c-0.3,1-0.8,2-1.3,3c-0.3,0.4-0.3,1.1-0.8,1.3c-0.8,0.2-1.6,0-2.2-0.3c-0.1-0.1-0.2-0.2-0.3-0.3
		c-0.3-0.7-0.3-1.5-0.1-2.2c0.2-0.5,0.9-0.5,1.4-0.7c1-0.4,2-0.7,3.1-0.9C182.8,452.6,182.9,452.7,182.9,452.9
		C182.9,452.9,182.9,452.9,182.9,452.9L182.9,452.9z"/><path class="st3" d="M163.6,454.7c0.1,1.1,0.3,3.1-1.3,3c-1.3-0.2-1-1.7-1.1-2.6c0-0.3-0.3-0.9,0-1.1c0.7-0.2,1.4-0.2,2,0.1
		c0.6,0.2,2.2,2,1.1,2.2c-0.2,0-0.4,0.1-0.5,0.2l-2.4-1.6c0.6-0.2,1.3-0.3,1.9-0.4C163.5,454.4,163.6,454.5,163.6,454.7L163.6,454.7
		z"/><path class="st3" d="M228.1,398.3c0,1-0.2,2.1-0.4,3.1c-0.1,0.5,0,1.1-0.5,1.4c-0.7,0.3-1.5,0.4-2.2,0.2c-0.1,0-0.3-0.1-0.3-0.2
		c-0.5-0.6-0.7-1.4-0.7-2.1c0-0.6,0.7-0.7,1.1-1c0.8-0.6,1.7-1.2,2.7-1.6C227.9,398,228.1,398,228.1,398.3
		C228.1,398.2,228.1,398.2,228.1,398.3L228.1,398.3z"/><path class="st3" d="M242.8,395.7c-0.4,1.4-1,2.7-1.7,4.1c-0.3,0.6-0.4,1.5-1.1,1.8c-0.8,0.5-1.8,0.6-2.7,0.5
		c-0.1,0-0.2-0.1-0.3-0.2c-0.3-0.9-0.3-1.8,0-2.7c0.2-0.7,1.1-0.9,1.6-1.3c1.2-0.9,2.4-1.6,3.7-2.3c0.1-0.1,0.2,0,0.3,0.1
		C242.7,395.6,242.7,395.6,242.8,395.7L242.8,395.7z"/><path class="st3" d="M227.6,377.3c-0.5,1.5-1,2.9-1.7,4.3c-0.3,0.7-0.4,1.6-1.1,2c-0.8,0.5-1.8,0.8-2.8,0.7c-0.1,0-0.3-0.1-0.3-0.2
		c-0.3-0.9-0.3-1.9,0-2.8c0.2-0.8,1.1-1,1.7-1.5c1.2-1,2.5-1.9,3.8-2.7c0.1-0.1,0.2,0,0.3,0.1C227.5,377.2,227.5,377.3,227.6,377.3
		L227.6,377.3z"/><path class="st3" d="M209,398.3c0,1.6-0.5,3.2-1.5,4.6c-0.5,0.7-0.8,1.6-1.7,1.9c-1,0.3-2.1,0.1-2.9-0.5c-0.1-0.1-0.2-0.2-0.1-0.4
		c0.2-0.9,0.5-1.7,0.9-2.4c0.3-0.5,1.1-0.5,1.6-0.8c0.6-0.3,1.1-0.7,1.6-1.1c0.6-0.4,1.1-0.9,1.6-1.4c0.1-0.1,0.2-0.1,0.3,0
		C209,398.1,209,398.2,209,398.3L209,398.3z"/><path class="st3" d="M188.2,417.1c-0.1,0.8-0.2,1.5-0.5,2.2c-0.1,0.3,0,0.9-0.4,0.9c-0.8,0-1.5-0.4-2.1-1c-0.3-0.6-0.5-1.2-0.4-1.9
		c0-0.4,0.6-0.2,0.9-0.3c0.7-0.1,1.5-0.2,2.2-0.1C188.1,416.8,188.2,417,188.2,417.1C188.2,417.1,188.2,417.1,188.2,417.1
		L188.2,417.1z"/><path class="st3" d="M166.4,430.9c-0.4,1.3-0.9,4-2.8,3.2c-0.6-0.3-0.9-1-0.7-1.6l0.3-1c0.2-0.4,0-1.1,0.5-1.4
		c0.7-0.3,1.5-0.3,2.2,0c0.5,0.3,0.7,1.2,0.8,1.5c0.1,0.6,0.1,1.2-0.5,1.4c-0.2,0.1-0.5,0.2-0.7,0.3l-2.2-2c0.9-0.3,1.8-0.6,2.7-0.7
		C166.2,430.6,166.4,430.7,166.4,430.9C166.4,430.9,166.4,430.9,166.4,430.9L166.4,430.9z"/><path class="st3" d="M243.8,372.8c0.1,1.3,0,2.7-0.1,4c-0.1,0.6,0.2,1.4-0.3,1.9c-0.6,0.6-1.4,1-2.3,1.1c-0.1,0-0.3,0-0.4-0.1
		c-0.6-0.7-0.9-1.5-0.9-2.4c0-0.7,0.7-1.1,1-1.6c0.8-1.1,1.7-2.1,2.6-3c0.1-0.1,0.2-0.1,0.3,0C243.8,372.7,243.8,372.7,243.8,372.8
		L243.8,372.8z"/><path class="st3" d="M231.3,351.2c0.6,1.1,1,2.3,1.4,3.5c0.2,0.6,0.7,1.1,0.4,1.8c-0.4,0.8-1,1.4-1.7,1.8c-0.1,0.1-0.3,0.1-0.4,0
		c-0.8-0.4-1.4-1-1.7-1.8c-0.3-0.6,0.2-1.2,0.4-1.8c0.3-1.2,0.8-2.4,1.4-3.5C231,351.1,231.1,351,231.3,351.2
		C231.2,351.1,231.3,351.2,231.3,351.2z"/><path class="st3" d="M252.8,346.1c0.5,0.7,1,1.5,1.4,2.4c0.2,0.4,0.7,0.8,0.4,1.1c-0.4,0.6-1.1,1-1.7,1.2c-0.9,0-1.6-0.5-2.1-1.2
		c-0.3-0.4,0.2-0.8,0.4-1.1c0.4-0.8,0.8-1.6,1.4-2.4C252.5,346,252.7,346,252.8,346.1C252.8,346.1,252.8,346.1,252.8,346.1
		L252.8,346.1z"/><path class="st3" d="M208.2,365.3c0.7,1.1,1,2.4,0.8,3.7c-0.1,0.6,0,1.5-0.7,1.9c-0.7,0.4-2.4,0.6-2.7-0.2
		c-0.2-0.7-0.3-1.4-0.3-2.1c0-0.4,0.6-0.4,0.9-0.8c0.3-0.3,0.6-0.7,0.9-1c0.3-0.4,0.6-0.9,0.8-1.4
		C207.9,365.2,208,365.2,208.2,365.3C208.2,365.2,208.2,365.3,208.2,365.3L208.2,365.3z"/><path class="st3" d="M185.3,393.7c0,1-0.1,1.9-0.2,2.9c-0.1,0.4,0.1,1.1-0.4,1.3c-0.8,0.4-1.7,0.3-2.5-0.1c-0.5-0.6-0.8-1.3-0.8-2
		c0-0.5,0.6-0.6,1-0.9c0.8-0.6,1.6-1,2.5-1.4C185.1,393.4,185.2,393.5,185.3,393.7C185.3,393.7,185.3,393.7,185.3,393.7L185.3,393.7
		z"/><path class="st3" d="M114.7,430.4c-1.3,0.3-2.5,0.4-3.8,0.5c-0.6,0-1.3,0.4-1.8,0c-0.7-0.5-1.2-1.3-1.3-2.1c0-0.1,0-0.3,0.1-0.4
		c0.5-0.7,1.3-1.1,2.2-1.3c0.6-0.1,1.1,0.5,1.7,0.8c1.1,0.6,2.2,1.4,3.2,2.2c0.1,0.1,0.1,0.2,0,0.3
		C114.8,430.4,114.8,430.4,114.7,430.4L114.7,430.4z"/><path class="st3" d="M121.1,445.6c-1.3,0.4-2.6,0.7-3.9,0.9c-0.6,0.1-1.3,0.5-1.9,0.2c-0.8-0.4-1.4-1.1-1.6-2
		c-0.1-0.1-0.1-0.3,0-0.4c0.5-0.7,1.2-1.3,2.1-1.5c0.6-0.2,1.2,0.4,1.8,0.6c1.2,0.5,2.4,1.1,3.5,1.8
		C121.2,445.3,121.2,445.4,121.1,445.6C121.1,445.6,121.1,445.6,121.1,445.6z"/><path class="st3" d="M112.4,462.7c-1.7,0.1-3.4,0.1-5.1-0.1c-0.8-0.1-1.7,0.2-2.5-0.3c-0.9-0.6-1.5-1.4-1.9-2.4
		c0-0.1,0-0.3,0.1-0.4c0.8-0.6,1.8-1,2.8-1c0.9,0,1.5,0.7,2.2,1.1c0.7,0.4,1.5,0.8,2.2,1.2c0.8,0.4,1.4,0.9,2.1,1.4
		c0.1,0.1,0.1,0.2,0,0.3C112.6,462.6,112.5,462.7,112.4,462.7L112.4,462.7z"/><path class="st3" d="M95.2,443.1c-1.5,0-3.1-0.1-4.6-0.3c-0.7-0.1-1.6,0.1-2.2-0.4c-0.7-0.6-1.2-1.5-1.4-2.4c0-0.1,0-0.3,0.1-0.4
		c0.8-0.6,1.7-0.9,2.7-0.8c0.8,0,1.3,0.7,1.9,1.1c1.3,0.9,2.5,1.8,3.6,2.8c0.1,0.1,0.1,0.2,0,0.3C95.3,443.1,95.2,443.1,95.2,443.1
		L95.2,443.1z"/><path class="st3" d="M80,451.8c-1.7-0.7-3.4-1.6-5-2.5c-0.8-0.5-1.8-0.7-2.2-1.5c-0.6-0.9-0.9-2-0.9-3.1c0-0.1,0.1-0.3,0.3-0.3
		c1.1-0.2,2.2,0,3.2,0.5c0.9,0.4,1.2,1.4,1.8,2.1c0.6,0.7,1.1,1.5,1.7,2.2c0.5,0.8,1.1,1.5,1.5,2.4c0.1,0.1,0,0.2-0.1,0.3
		C80.2,451.9,80.1,451.9,80,451.8L80,451.8z"/><path class="st3" d="M90.1,429.5c-1.1,0.2-2.1,0.3-3.2,0.3c-0.5,0-1.1,0.3-1.5-0.1c-0.5-0.6-0.8-1.4-0.8-2.1c0-0.1,0-0.3,0.1-0.4
		c0.5-0.6,1.2-1,2-1.1c0.6-0.1,0.8,0.5,1.2,0.9c0.8,0.7,1.6,1.4,2.2,2.2C90.3,429.2,90.2,429.3,90.1,429.5
		C90.1,429.4,90.1,429.4,90.1,429.5L90.1,429.5z"/><path class="st3" d="M73.3,432.2c-0.6,0.4-1.2,0.7-1.9,0.9c-0.3,0.1-0.7,0.5-0.9,0.1c-0.3-0.7-0.4-1.5-0.2-2.2
		c0.3-0.6,0.7-1.1,1.3-1.4c0.3-0.2,0.4,0.4,0.7,0.6c0.5,0.5,0.8,1.1,1.1,1.7C73.4,432,73.3,432.2,73.3,432.2L73.3,432.2z"/><path class="st3" d="M68.9,418c-1.2-0.3-2.4-0.6-3.6-1.1c-0.6-0.2-1.3-0.2-1.6-0.8c-0.4-0.8-0.5-1.6-0.3-2.4c0-0.1,0.1-0.2,0.2-0.3
		c0.8-0.4,1.6-0.5,2.4-0.3c0.6,0.1,0.8,0.9,1.1,1.4c0.7,1,1.4,2.1,1.9,3.2c0,0.1,0,0.2-0.1,0.3C69,417.9,68.9,417.9,68.9,418
		L68.9,418z"/><path class="st3" d="M53.8,432.1c-1.9,0.5-3.9,0.3-5.6-0.6c-0.9-0.4-2-0.8-2.5-1.8c-0.6-1-0.6-2.3,0-3.4c0.1-0.1,0.2-0.2,0.3-0.1
		c0.9,0.2,1.8,0.6,2.6,1c0.6,0.3,0.7,1.1,1.2,1.7c0.5,0.6,1.1,1.1,1.7,1.5c0.7,0.5,1.4,0.9,2.2,1.2c0.1,0,0.2,0.2,0.1,0.3
		C53.9,432,53.8,432,53.8,432.1L53.8,432.1z"/><path class="st3" d="M53.2,419.3c-1.1,0-2.1,0-3.2-0.2c-0.5-0.1-1.1,0.1-1.4-0.4c-0.4-0.7-0.5-1.5-0.4-2.2c0-0.1,0.1-0.3,0.2-0.3
		c0.6-0.5,1.3-0.8,2.1-0.8c0.6,0,0.7,0.7,1.1,1c0.7,0.8,1.3,1.6,1.8,2.6C53.4,419,53.4,419.1,53.2,419.3
		C53.2,419.2,53.2,419.2,53.2,419.3L53.2,419.3z"/><path class="st3" d="M33.4,411c-1.2-0.8-2.3-1.6-3.4-2.6c-0.5-0.5-1.3-0.7-1.5-1.5c-0.2-0.9-0.1-1.8,0.3-2.7
		c0.1-0.1,0.2-0.2,0.3-0.2c0.9-0.1,1.8,0.2,2.6,0.7c0.6,0.4,0.6,1.2,0.8,1.9c0.5,1.3,0.9,2.7,1.2,4.1c0,0.1-0.1,0.2-0.2,0.2
		C33.5,411,33.5,411,33.4,411z"/><path class="st3" d="M48.6,403.9c-1.1-0.2-2.3-0.5-3.4-0.9c-0.5-0.2-1.3-0.1-1.5-0.7c-0.3-0.7-0.4-1.6-0.2-2.4
		c0-0.1,0.1-0.2,0.2-0.3c0.7-0.4,1.5-0.6,2.3-0.4c0.6,0.1,0.7,0.8,1,1.3c0.7,1,1.2,2,1.7,3c0.1,0.1,0,0.2-0.1,0.3
		C48.7,403.9,48.6,403.9,48.6,403.9L48.6,403.9z"/><path class="st3" d="M28.9,390.9c-0.9-0.5-1.7-1-2.5-1.7c-0.4-0.3-1-0.4-1-1c0-0.8,0.3-1.5,0.8-2c0.1-0.1,0.2-0.2,0.3-0.2
		c0.7-0.2,1.5,0,2.2,0.3c0.5,0.2,0.3,0.9,0.3,1.4c0.2,1,0.2,2,0.2,3C29.2,390.8,29.1,390.9,28.9,390.9
		C29,390.9,28.9,390.9,28.9,390.9z"/><path class="st3" d="M14.4,382.6c-1-1-1.9-2.1-2.6-3.2c-0.4-0.6-1.1-1-1-1.7c0-0.9,0.3-1.8,0.9-2.5c0.1-0.1,0.2-0.2,0.4-0.1
		c0.9,0.1,1.7,0.6,2.3,1.3c0.5,0.5,0.2,1.3,0.3,2c0.2,1.4,0.2,2.8,0.1,4.2c0,0.1-0.1,0.2-0.2,0.2C14.5,382.7,14.4,382.7,14.4,382.6
		L14.4,382.6z"/><path class="st3" d="M27.2,373.6c-1.1-1.2-2.1-2.4-3-3.7c-0.4-0.3-0.6-0.9-0.6-1.4l0.2-1.6c0.1-0.7,0.8-1.2,1.5-1.1
		c0.3,0.1,0.7,0.2,0.9,0.5c0.4,0.7,0.7,1.4,0.6,2.2c0,0.1-0.1,0.3-0.2,0.3c-0.7,0.4-1.5,0.6-2.2,0.6l2.6-2.2c0.8,0.8,0.3,2,0.5,3
		c0.1,1.1,0.1,2.1,0,3.2c0,0.1-0.1,0.2-0.3,0.2c0,0-0.1,0-0.1-0.1L27.2,373.6z"/><path class="st3" d="M50.6,391.4c-1.6-0.1-3.1-0.8-4.4-1.8c-0.6-0.5-1.5-1-1.6-1.9c-0.2-1,0.2-2,0.9-2.8c0.1-0.1,0.2-0.1,0.4-0.1
		c0.8,0.3,1.6,0.7,2.2,1.2c0.5,0.4,0.3,1.1,0.6,1.6c0.2,0.6,0.5,1.2,0.9,1.7c0.4,0.6,0.8,1.2,1.2,1.7c0.1,0.1,0.1,0.2,0,0.3
		C50.7,391.4,50.6,391.4,50.6,391.4L50.6,391.4z"/><path class="st3" d="M76.9,405.8c-1.2,0.5-2.5,0.6-3.7,0.1c-0.6-0.2-1.5-0.2-1.8-0.9c-0.4-0.5-0.3-2.4,0.6-2.7
		c0.7-0.1,1.5-0.1,2.2,0c0.4,0,0.4,0.7,0.6,1c0.3,0.4,0.6,0.7,0.9,1.1c0.4,0.4,0.8,0.7,1.2,1c0.1,0.1,0.1,0.2,0.1,0.3
		C77,405.8,76.9,405.8,76.9,405.8L76.9,405.8z"/><path class="st3" d="M99.1,414.4c-1.2-0.2-2.4-0.5-3.5-0.9c-0.5-0.2-1.3-0.1-1.6-0.7c-0.4-0.7-0.5-1.6-0.4-2.4
		c0-0.1,0.1-0.2,0.2-0.3c0.7-0.4,1.6-0.6,2.4-0.4c0.6,0.1,0.8,0.8,1.1,1.3c0.7,1,1.4,2,1.9,3.1C99.4,414.2,99.3,414.3,99.1,414.4
		C99.2,414.4,99.1,414.4,99.1,414.4L99.1,414.4z"/><path class="st3" d="M179.5,240.3c1.9,0,3.9,0.5,5.6,1.4c0.9,0.4,2,0.7,2.5,1.6c0.6,1,0.8,2.2,0.6,3.4c0,0.1-0.2,0.2-0.3,0.2
		c-1,0-2.1-0.3-3-0.8c-0.8-0.3-1-1.2-1.6-1.9c-0.6-0.6-1.1-1.2-1.8-1.8s-1.4-1.1-2.1-1.7c-0.1-0.1-0.1-0.2,0-0.3
		C179.4,240.3,179.4,240.3,179.5,240.3L179.5,240.3z"/><path class="st3" d="M175,251.4c0.8-0.2,1.7-0.2,2.6-0.2c0.4,0,1-0.3,1.1,0.2c0.4,0.8,0.4,1.6,0,2.4c-0.5,0.5-1.1,0.9-1.8,1
		c-0.4,0.1-0.5-0.5-0.8-0.9c-0.5-0.7-1-1.4-1.3-2.2C174.7,251.6,174.8,251.4,175,251.4C175,251.4,175,251.4,175,251.4L175,251.4z"/><path class="st3" d="M196.4,262.6c0.8,0.1,1.6,0.4,2.4,0.7c0.3,0.2,1,0.1,1,0.5c0,0.8-0.3,1.6-0.9,2.2c-0.6,0.3-1.3,0.5-2,0.4
		c-0.4-0.1-0.3-0.7-0.4-1c-0.2-0.8-0.3-1.6-0.3-2.5C196.1,262.7,196.2,262.6,196.4,262.6C196.4,262.6,196.4,262.6,196.4,262.6
		L196.4,262.6z"/><path class="st3" d="M210.5,261c1.2,0.3,2.4,0.8,3.5,1.4c0.5,0.3,1.3,0.3,1.5,0.9c0.3,0.8,0.4,1.7,0.1,2.5c0,0.1-0.1,0.2-0.3,0.3
		c-0.8,0.3-1.6,0.4-2.5,0.1c-0.6-0.2-0.7-1-1-1.5c-0.6-1.1-1.2-2.2-1.6-3.4c0-0.1,0-0.2,0.1-0.3C210.4,261,210.4,261,210.5,261
		L210.5,261z"/><path class="st3" d="M184.2,275.4c1.4,1,2.6,2.1,3.8,3.4c0.6,0.6,1.5,1,1.7,1.9c0.3,1,0.3,2-0.1,3c0,0.1-0.2,0.2-0.3,0.2
		c-1,0-2-0.4-2.8-1.1c-0.7-0.5-0.7-1.5-1-2.2c-0.6-1.6-1.2-3.2-1.6-4.9c0-0.1,0-0.2,0.1-0.3C184.1,275.3,184.2,275.3,184.2,275.4z"/><path class="st3" d="M210.2,290.3c0.9,0.1,1.8,0.3,2.7,0.6c0.4,0.1,1,0,1.1,0.5c0.2,0.8,0,1.7-0.6,2.4c-0.6,0.4-1.3,0.6-2,0.5
		c-0.5,0-0.4-0.7-0.6-1.1c-0.4-0.8-0.7-1.7-0.8-2.6C209.8,290.4,209.9,290.3,210.2,290.3C210.1,290.2,210.1,290.2,210.2,290.3
		L210.2,290.3z"/><path class="st3" d="M230.9,295.5c1.1,1.2,2.1,2.5,3,3.8c0.4,0.6,1.2,1.2,1.2,2c0.1,1-0.2,2-0.7,2.8c-0.1,0.1-0.2,0.2-0.4,0.1
		c-1-0.2-1.9-0.7-2.5-1.5c-0.6-0.6-0.4-1.5-0.5-2.2c-0.3-1.6-0.5-3.2-0.5-4.8c0-0.1,0.1-0.2,0.2-0.2
		C230.8,295.5,230.8,295.6,230.9,295.5L230.9,295.5z"/><path class="st3" d="M206.3,313.9c0.9,0.5,1.8,1.2,2.6,1.9c0.4,0.3,1.1,0.5,1,1.1c0,0.8-0.3,1.5-0.9,2.1c-0.1,0.1-0.2,0.2-0.3,0.2
		c-0.8,0.1-1.6,0-2.2-0.5c-0.5-0.3-0.2-1-0.3-1.5c-0.2-1.1-0.2-2.1-0.2-3.2c0-0.1,0.1-0.2,0.2-0.2
		C206.2,313.9,206.3,313.9,206.3,313.9L206.3,313.9z"/><path class="st3" d="M162.6,240.2c-0.8,0.3-1.7,0.4-2.6,0.5c-0.4,0-0.9,0.4-1.2,0c-0.4-0.6-0.5-1.3-0.5-2c0.3-0.8,1-1.4,1.8-1.6
		c0.5-0.1,0.6,0.5,1,0.8c0.6,0.6,1.2,1.3,1.7,2.1C162.8,240,162.7,240.2,162.6,240.2C162.6,240.2,162.6,240.3,162.6,240.2
		L162.6,240.2z"/><path class="st3" d="M157.5,254.3c-1.5,0.2-2.9,0.3-4.4,0.3c-0.7,0-1.5,0.3-2.1-0.1c-0.8-0.5-1.4-1.3-1.7-2.2
		c-0.1-0.1,0-0.3,0.1-0.4c0.7-0.7,1.5-1.1,2.5-1.2c0.8-0.1,1.3,0.5,2,0.9c1.3,0.6,2.6,1.4,3.8,2.2c0.1,0.1,0.1,0.2,0,0.3
		C157.6,254.2,157.6,254.2,157.5,254.3L157.5,254.3z"/><path class="st3" d="M134,230.6c-1.7,0.6-3.5,1-5.3,1.4c-0.9,0.2-1.7,0.7-2.6,0.4c-1.1-0.3-2-0.9-2.7-1.7c-0.1-0.1-0.1-0.3,0-0.4
		c0.7-0.9,1.6-1.5,2.7-1.8c0.9-0.3,1.8,0.2,2.6,0.4c0.9,0.2,1.8,0.3,2.6,0.5s1.8,0.4,2.7,0.8c0.1,0,0.2,0.2,0.1,0.3
		C134.2,230.5,134.1,230.5,134,230.6L134,230.6z"/><path class="st3" d="M126.2,242.3c-1,0.6-2.1,1.2-3.2,1.6c-0.5,0.2-1,0.8-1.6,0.5c-0.8-0.3-1.4-0.9-1.8-1.6c-0.1-0.1-0.1-0.3,0-0.4
		c0.3-0.8,0.8-1.4,1.5-1.9c0.5-0.3,1.1,0.1,1.7,0.2c1.2,0.3,2.3,0.6,3.4,1.1C126.3,242,126.4,242.2,126.2,242.3
		C126.3,242.3,126.2,242.3,126.2,242.3L126.2,242.3z"/><path class="st3" d="M102.8,238.3c-0.9,0.7-1.8,1.3-2.8,1.7c-0.5,0.2-0.9,0.8-1.4,0.6c-0.7-0.3-1.3-0.8-1.7-1.5
		c-0.1-0.1-0.1-0.3,0-0.4c0.2-0.8,0.6-1.4,1.2-1.9c0.4-0.4,1,0.1,1.5,0.2c1.1,0.2,2.1,0.5,3.1,1C102.9,238,102.9,238.1,102.8,238.3
		C102.8,238.2,102.8,238.3,102.8,238.3L102.8,238.3z"/><path class="st3" d="M108.5,259.9c-0.6,1.1-1.3,2.2-2.2,3.2c-0.4,0.5-0.6,1.3-1.3,1.4c-0.8,0.2-1.7,0.1-2.5-0.4
		c-0.1-0.1-0.2-0.2-0.2-0.3c-0.1-0.9,0-1.7,0.5-2.5c0.3-0.6,1.1-0.5,1.7-0.7c1.2-0.5,2.5-0.8,3.7-1c0.1,0,0.2,0.1,0.2,0.2
		C108.6,259.8,108.6,259.8,108.5,259.9L108.5,259.9z"/><path class="st3" d="M89.4,255.2c-0.9,1.2-2,2.3-3.1,3.3c-0.5,0.5-0.9,1.3-1.7,1.4c-0.9,0.2-1.9,0-2.7-0.5
		c-0.1-0.1-0.2-0.2-0.2-0.3c0-0.9,0.4-1.8,1-2.5c0.5-0.6,1.4-0.5,2.1-0.7c1.4-0.4,2.9-0.7,4.4-0.9c0.1,0,0.2,0.1,0.2,0.2
		C89.4,255.1,89.4,255.2,89.4,255.2L89.4,255.2z"/><path class="st3" d="M71.9,249.2c-0.6,1.1-1.2,2.1-2,3.1c-0.4,0.5-0.5,1.2-1.1,1.3c-0.8,0.2-1.7,0-2.4-0.4
		c-0.1-0.1-0.2-0.2-0.2-0.3c-0.2-0.8,0-1.7,0.4-2.4c0.3-0.6,1-0.5,1.6-0.7c1.1-0.4,2.3-0.7,3.5-0.9c0.1,0,0.2,0.1,0.3,0.2
		C72,249.2,72,249.2,71.9,249.2L71.9,249.2z"/><path class="st3" d="M51.9,266.7c-0.9,1-1.6,2.1-2.1,3.4c-0.2,0.6-0.1,1.3-0.5,1.6c-0.7,0.5-1.4,1-2.2,1.2c-0.1,0.1-0.3,0-0.4-0.1
		c-0.8-0.7-1.1-1.8-0.9-2.8c0.1-0.9,1-1.4,1.6-1.9c1.2-1.1,2.8-1.7,4.4-1.8c0.1,0,0.2,0.1,0.2,0.2C51.9,266.6,51.9,266.7,51.9,266.7
		L51.9,266.7z"/><path class="st3" d="M73.4,276.9c-0.7,0.9-1.5,1.8-2.4,2.6c-0.4,0.4-0.7,1.1-1.3,1c-0.8,0-1.6-0.3-2.2-0.9
		c-0.1-0.1-0.2-0.2-0.2-0.3c0-0.8,0.2-1.6,0.7-2.2c0.4-0.5,1.1-0.3,1.6-0.3c1.2-0.2,2.3-0.2,3.5-0.2
		C73.3,276.6,73.4,276.7,73.4,276.9C73.4,276.9,73.4,276.9,73.4,276.9L73.4,276.9z"/><path class="st3" d="M88.1,288.8c-0.5,1.2-1.1,2.3-1.8,3.4c-0.3,0.5-0.4,1.3-1.1,1.5c-0.8,0.3-1.7,0.2-2.5-0.1
		c-0.1,0-0.2-0.2-0.3-0.3c-0.2-0.8-0.2-1.7,0.2-2.5c0.3-0.6,1-0.6,1.6-0.9c1.2-0.6,2.4-1.1,3.6-1.4c0.1,0,0.2,0,0.3,0.1
		C88.1,288.7,88.1,288.7,88.1,288.8L88.1,288.8z"/><path class="st3" d="M51.2,298.1c-0.2,1.1-0.5,2.1-1,3.1c-0.2,0.5-0.1,1.2-0.7,1.3c-0.7,0.2-1.5,0.2-2.2-0.1
		c-0.1,0-0.2-0.1-0.3-0.3c-0.4-0.7-0.5-1.5-0.3-2.2c0.1-0.5,0.8-0.6,1.3-0.8c0.9-0.5,1.9-0.9,3-1.2
		C51.1,297.8,51.2,297.9,51.2,298.1C51.2,298,51.2,298.1,51.2,298.1L51.2,298.1z"/><path class="st3" d="M36.9,292.8c-0.3,1.2-0.8,2.5-1.3,3.6c-0.3,0.6-0.3,1.4-0.9,1.6c-0.8,0.4-1.7,0.5-2.5,0.3
		c-0.1,0-0.2-0.1-0.3-0.3c-0.4-0.8-0.4-1.7-0.2-2.5c0.2-0.6,1-0.8,1.5-1.1c1.1-0.7,2.2-1.4,3.4-1.9
		C36.7,292.5,36.8,292.6,36.9,292.8C36.9,292.7,36.9,292.8,36.9,292.8L36.9,292.8z"/><path class="st3" d="M23.9,315.7c0.1,1,0.1,2.1,0,3.1c0,0.5,0.2,1.1-0.2,1.4c-0.6,0.4-1.4,0.6-2.2,0.5c-0.1,0-0.3-0.1-0.4-0.2
		c-0.5-0.5-0.9-1.2-1-2c-0.1-0.5,0.6-0.8,0.9-1.1c0.7-0.7,1.5-1.4,2.4-2c0.1-0.1,0.2,0,0.3,0.1C23.8,315.6,23.8,315.6,23.9,315.7
		L23.9,315.7z"/><path class="st3" d="M36.7,326.2c0,1-0.2,2-0.5,2.9c-0.1,0.5,0,1.1-0.5,1.3c-0.8,0.3-1.7,0.3-2.5-0.2c-0.5-0.6-0.7-1.3-0.6-2.1
		c0-0.5,0.7-0.6,1.1-0.9c0.8-0.6,1.7-1,2.6-1.4c0.1,0,0.3,0,0.3,0.1C36.7,326.1,36.7,326.1,36.7,326.2L36.7,326.2z"/><path class="st3" d="M66.8,312.2c-0.9,1.1-1.6,2.4-2,3.8c-0.2,0.6,0,1.4-0.4,1.9c-0.6,0.7-1.3,1.2-2.1,1.7c-0.1,0.1-0.3,0.1-0.4,0
		c-0.8-0.7-1.3-1.7-1.2-2.8c0-1,0.9-1.6,1.5-2.2c1.2-1.3,2.7-2.2,4.5-2.5C66.7,311.9,66.8,312,66.8,312.2
		C66.8,312.2,66.8,312.2,66.8,312.2L66.8,312.2z"/><path class="st3" d="M139.1,266.5c1.1-0.6,2.2-1,3.4-1.4c0.6-0.2,1.1-0.7,1.7-0.4c0.7,0.4,1.3,1,1.7,1.7c0.1,0.1,0.1,0.3,0,0.4
		c-0.3,0.8-0.9,1.4-1.7,1.7c-0.6,0.3-1.1-0.2-1.7-0.4c-1.2-0.3-2.3-0.8-3.4-1.4C139,266.8,139,266.6,139.1,266.5
		C139.1,266.5,139.1,266.5,139.1,266.5L139.1,266.5z"/><path class="st3" d="M185.4,300.1c1.1,1,2,2,2.9,3.2c0.4,0.5,1.2,1,1.2,1.7c0.1,0.9-0.2,1.8-0.7,2.6c-0.1,0.1-0.2,0.2-0.3,0.2
		c-0.9-0.1-1.8-0.5-2.4-1.1c-0.5-0.5-0.4-1.3-0.5-2c-0.3-1.4-0.4-2.9-0.5-4.3c0-0.1,0.1-0.2,0.2-0.2
		C185.3,300.1,185.3,300.1,185.4,300.1L185.4,300.1z"/><path class="st3" d="M196.6,327.7c0.6,0.8,1.1,1.7,1.5,2.7c0.2,0.4,0.7,0.9,0.5,1.3c-0.4,0.7-0.9,1.2-1.6,1.5c-0.1,0-0.3,0-0.4,0
		c-0.7-0.2-1.4-0.6-1.8-1.3c-0.3-0.4,0.2-0.9,0.3-1.4c0.3-1,0.7-1.9,1.1-2.8C196.2,327.6,196.4,327.5,196.6,327.7
		C196.5,327.6,196.5,327.7,196.6,327.7L196.6,327.7z"/><path class="st3" d="M50.5,340.7c0.2,1.2,0.3,2.5,0.3,3.7c0,0.6,0.3,1.3-0.1,1.8c-0.6,0.6-1.3,1.1-2.2,1.2c-0.1,0-0.3,0-0.4-0.1
		c-0.6-0.6-1.1-1.3-1.2-2.2c-0.1-0.6,0.5-1.1,0.9-1.6c0.6-1.1,1.4-2,2.2-2.9C50.2,340.5,50.3,340.5,50.5,340.7
		C50.4,340.6,50.4,340.6,50.5,340.7L50.5,340.7z"/><path class="st3" d="M18.8,340.7c-0.1,1.9,0.2,3.8,0.7,5.6c0.2,0.9,0.9,1.6,0.9,2.4c0,1.1-0.1,2.2-0.5,3.2c0,0.1-0.2,0.2-0.3,0.2
		c-1.2-0.3-2.3-1.1-2.9-2.2c-0.4-1-0.5-2.2-0.3-3.3c0.1-2.1,0.8-4.2,2-6c0.1-0.1,0.2-0.1,0.3-0.1C18.8,340.6,18.8,340.6,18.8,340.7
		L18.8,340.7z"/><path class="st3" d="M225.7,319.8c0.9,0.8,1.8,1.7,2.5,2.7c0.4,0.5,1,0.8,1,1.5c-0.1,0.8-0.4,1.6-1,2.2c-0.1,0.1-0.2,0.2-0.4,0.1
		c-0.8-0.1-1.6-0.4-2.2-1c-0.5-0.4-0.2-1.1-0.3-1.7c-0.1-1.2-0.1-2.5,0-3.7C225.3,319.8,225.4,319.7,225.7,319.8
		C225.6,319.7,225.6,319.8,225.7,319.8L225.7,319.8z"/><path class="st3" d="M244.7,320.3c0.8,1.1,1.6,2.2,2.2,3.4c0.3,0.6,1,1.1,0.8,1.8c-0.1,0.9-0.6,1.7-1.2,2.2
		c-0.1,0.1-0.2,0.1-0.4,0.1c-0.9-0.2-1.6-0.7-2.2-1.5c-0.4-0.6-0.1-1.3-0.1-2c0-1.4,0.2-2.7,0.4-4.1c0-0.1,0.2-0.2,0.3-0.2
		C244.6,320.2,244.7,320.3,244.7,320.3L244.7,320.3z"/><path class="st3" d="M213.2,340.6c0.8,1.2,1.6,2.4,2.2,3.7c0.3,0.6,1,1.2,0.9,1.9c-0.1,0.9-0.6,1.8-1.2,2.4
		c-0.1,0.1-0.2,0.1-0.4,0.1c-0.9-0.3-1.7-0.8-2.2-1.6c-0.4-0.6-0.1-1.4-0.1-2.1c0-1.5,0.1-2.9,0.4-4.3c0-0.1,0.1-0.2,0.2-0.2
		C213.1,340.6,213.1,340.6,213.2,340.6L213.2,340.6z"/><path class="st3" d="M63.7,383.2c1.1,0.5,2.2,1.1,3.3,1.8c0.5,0.3,1.3,0.4,1.4,1.1c0.2,0.8,0.2,1.7-0.2,2.5
		c-0.1,0.1-0.2,0.2-0.3,0.2c-0.8,0.2-1.7,0.2-2.5-0.2c-0.6-0.3-0.6-1-0.8-1.6c-0.5-1.2-0.9-2.4-1.2-3.6
		C63.4,383.3,63.5,383.2,63.7,383.2C63.7,383.2,63.7,383.2,63.7,383.2L63.7,383.2z"/><path class="st3" d="M56.6,366.1c0.3,1.4,0.9,2.7,1.7,3.9c0.4,0.6,1.1,0.9,1.1,1.5c0.1,0.9,0.1,1.8,0,2.6c0,0.1-0.1,0.3-0.3,0.3
		c-1.1,0.2-2.2-0.1-2.9-0.8c-0.8-0.6-0.7-1.7-0.8-2.6c-0.3-1.7,0-3.5,0.9-5c0.1-0.1,0.2-0.1,0.3-0.1C56.5,366,56.6,366,56.6,366.1
		L56.6,366.1z"/><path class="st3" d="M70.8,342c-0.4,1.4-0.4,2.8,0,4.2c0.2,0.6,0.8,1.1,0.7,1.7c-0.1,0.9-0.3,1.7-0.6,2.5c0,0.1-0.2,0.2-0.3,0.2
		c-1.1,0-2.2-0.6-2.8-1.5c-0.6-0.9-0.2-2-0.1-2.9c0.3-1.8,1.3-3.5,2.8-4.5c0.1-0.1,0.2,0,0.3,0.1C70.9,341.8,70.9,341.9,70.8,342
		L70.8,342z"/><path class="st3" d="M157.1,284c2.1-0.5,4.2-0.2,6.1,0.7c1,0.5,2.2,0.9,2.6,1.9c0.6,1.1,0.6,2.4,0.1,3.5c-0.1,0.1-0.2,0.2-0.3,0.1
		c-1-0.3-1.9-0.7-2.7-1.2c-0.7-0.4-0.9-1.3-1.4-1.8c-0.6-0.6-1.2-1.2-1.9-1.6c-0.7-0.5-1.6-0.9-2.4-1.3c-0.1,0-0.2-0.2-0.1-0.3
		C156.9,284.1,157,284,157.1,284L157.1,284z"/><path class="st3" d="M121,276.8c-0.7,1.1-1.5,2.1-2.3,3c-0.4,0.4-0.7,1.2-1.3,1.3c-0.8,0.1-1.7-0.1-2.4-0.5
		c-0.1-0.1-0.2-0.2-0.2-0.3c-0.1-0.9,0.1-1.7,0.6-2.4c0.4-0.6,1.1-0.4,1.7-0.6c1.2-0.4,2.5-0.6,3.8-0.7c0.1,0,0.2,0.1,0.2,0.2
		C121.1,276.7,121,276.7,121,276.8z"/><path class="st3" d="M137.8,287.2c-0.9,0.7-1.8,1.4-2.8,1.9c-0.5,0.3-0.9,0.9-1.5,0.7c-0.8-0.2-1.4-0.7-1.9-1.4
		c-0.1-0.1-0.1-0.2-0.1-0.4c0.2-0.8,0.6-1.5,1.2-2c0.5-0.4,1.1,0,1.6,0.1c1.1,0.1,2.3,0.4,3.4,0.7C137.9,286.9,138,287,137.8,287.2
		C137.9,287.1,137.9,287.2,137.8,287.2L137.8,287.2z"/><path class="st3" d="M99.9,302.3c-0.3,1-0.6,2-1.1,3c-0.2,0.5-0.2,1.1-0.8,1.3c-0.7,0.2-1.5,0.1-2.2-0.2c-0.1,0-0.2-0.1-0.3-0.3
		c-0.3-0.7-0.4-1.5-0.2-2.2c0.1-0.5,0.8-0.5,1.3-0.8c1-0.5,2-0.9,3-1.1C99.7,302,99.8,302.1,99.9,302.3
		C99.9,302.2,99.9,302.3,99.9,302.3L99.9,302.3z"/><path class="st3" d="M166.1,310.7c1.3,0.6,2.6,1.2,3.8,2c0.6,0.4,1.4,0.5,1.7,1.2c0.4,0.8,0.4,1.8,0.1,2.7c0,0.1-0.1,0.2-0.3,0.3
		c-0.9,0.2-1.8,0.1-2.7-0.2c-0.7-0.3-0.8-1.1-1.1-1.7c-0.7-1.2-1.3-2.5-1.8-3.9c0-0.1,0-0.2,0.1-0.3
		C166,310.7,166.1,310.7,166.1,310.7L166.1,310.7z"/><path class="st3" d="M137.1,304.1c1.2-0.2,2.4-0.4,3.6-0.4c0.6,0,1.3-0.3,1.7,0.1c0.6,0.6,1,1.3,1.1,2.1c0,0.1,0,0.3-0.1,0.4
		c-0.5,0.6-1.3,1.1-2.1,1.2c-0.6,0.1-1-0.5-1.5-0.8c-1-0.7-2-1.4-2.9-2.2c-0.1-0.1-0.1-0.2,0-0.3C137,304.1,137.1,304,137.1,304.1
		L137.1,304.1z"/><path class="st3" d="M115.6,312.6c-1.3,0.3-2.3,1.4-2.2,2.8c0.1,0.2,0,0.4-0.1,0.5c-0.6,0.4-1.1,0.8-1.6,1.4
		c-0.1,0.1-0.2,0.1-0.3,0.1c-1.3-0.3-2.1-1.5-1.8-2.8c0.1-0.4,0.2-0.7,0.5-1c1.4-1.5,3.9-2.7,5.7-1.4
		C115.8,312.3,115.8,312.4,115.6,312.6C115.7,312.6,115.7,312.6,115.6,312.6L115.6,312.6z"/><path class="st3" d="M149.8,325.6c1-0.1,1.9-0.1,2.9,0c0.5,0.1,1.1-0.2,1.3,0.3c0.4,0.8,0.5,1.7,0.1,2.5c-0.5,0.5-1.2,0.8-2,0.9
		c-0.5,0.1-0.6-0.6-0.9-1c-0.6-0.7-1.2-1.5-1.6-2.4C149.6,325.8,149.7,325.7,149.8,325.6C149.8,325.6,149.8,325.6,149.8,325.6
		L149.8,325.6z"/><path class="st3" d="M129.1,330.9c-1,1-2.2,1.8-3.4,2.6c-0.6,0.4-1.1,1.1-1.8,1c-0.9,0-1.8-0.4-2.5-1c-0.1-0.1-0.2-0.2-0.1-0.4
		c0.2-0.9,0.6-1.7,1.4-2.3c0.5-0.5,1.4-0.2,2-0.3c1.4-0.1,2.9-0.2,4.3-0.1c0.1,0,0.2,0.1,0.2,0.2
		C129.2,330.8,129.2,330.9,129.1,330.9L129.1,330.9z"/><path class="st3" d="M167.5,411.7c-0.3,1-0.6,2-1.1,3c-0.2,0.4-0.2,1.1-0.8,1.3c-0.8,0.2-1.5,0.1-2.2-0.2c-0.1,0-0.2-0.1-0.3-0.2
		c-0.3-0.7-0.4-1.5-0.2-2.2c0.1-0.5,0.9-0.5,1.3-0.7c1-0.5,2-0.8,3-1.1C167.4,411.5,167.5,411.6,167.5,411.7
		C167.5,411.7,167.5,411.8,167.5,411.7L167.5,411.7z"/><path class="st3" d="M82.5,321.3c-0.3,1.2-0.6,2.4-1.1,3.6c-0.2,0.5-0.2,1.3-0.8,1.6c-0.8,0.4-1.6,0.5-2.5,0.2
		c-0.1,0-0.2-0.1-0.3-0.2c-0.4-0.8-0.4-1.6-0.2-2.5c0.1-0.6,0.9-0.8,1.4-1.1c1-0.7,2.1-1.3,3.3-1.8c0.1,0,0.2,0,0.3,0.1
		C82.5,321.2,82.5,321.2,82.5,321.3L82.5,321.3z"/><path class="st3" d="M88.2,391.6c-1.3,0.2-2.6-0.1-3.6-0.9c-0.5-0.4-1.3-0.7-1.4-1.5c-0.1-0.9,0.4-1.8,1.1-2.2
		c0.1-0.1,0.2-0.1,0.4-0.1c0.7,0.2,1.4,0.4,2,0.7c0.4,0.2,0.1,0.7,0.2,1.1c0.1,0.4,0.3,0.8,0.5,1.2c0.2,0.5,0.5,0.9,0.9,1.3
		C88.4,391.3,88.4,391.5,88.2,391.6C88.2,391.6,88.2,391.6,88.2,391.6L88.2,391.6z"/><path class="st3" d="M121.9,420.1c-1.2-0.2-2.5-0.5-3.6-1c-0.6-0.2-1.3-0.1-1.6-0.7c-0.4-0.7-0.6-1.6-0.4-2.4
		c0-0.1,0.1-0.2,0.2-0.3c0.7-0.4,1.6-0.5,2.5-0.4c0.6,0.1,0.8,0.9,1.2,1.3c0.8,1,1.5,2.1,2,3.2c0.1,0.1,0,0.2-0.1,0.3
		C122,420.1,122,420.1,121.9,420.1z"/></g><path class="st4" d="M151.7,370.5c1.3,43.3,7.2,88.4,27.5,127.1c21.4,40.7,57.1,59.8,101.9,63.3c8.7,0.9,8.7,13.3,0,14.2
	c-52.5,4.5-97.8-19.8-122.1-66.7c-20.7-39.9-25.8-86-21.6-130.2c0.3-2.9,0.7-5.8,1.2-8.9C140.2,361.5,151.6,362.5,151.7,370.5
	L151.7,370.5z"/><path class="st4" d="M174.8,401c-6.8,16.1-10.4,33.4-10.4,50.9c0,3.1,0.2,7.4,0.4,10.4c0.6,7,1.7,13.9,3.2,20.7
	c0.3,1.4-0.6,2.9-2,3.2c-1.2,0.3-2.5-0.4-3-1.5c-3-6.9-5-14.1-6.1-21.5c-2.1-14.9-0.8-30.1,3.9-44.4c2.3-7.1,5.6-13.8,9.7-20
	c0.7-1.1,2.2-1.5,3.4-0.7C174.9,398.7,175.3,399.9,174.8,401L174.8,401z"/><path class="st4" d="M150.8,451.9c-30.5-22.8-47.7-63-43-100.8c0.2-1.5,1.5-2.5,3-2.3c1.3,0.2,2.3,1.3,2.3,2.6
	c0.2,13.5,2.3,26.9,6.3,39.8c4,12.8,9.8,25,17.3,36.2c5.1,7.5,10.8,14.4,17.2,20.8c1,1,1,2.5,0,3.5
	C153.1,452.5,151.8,452.6,150.8,451.9z"/><path class="st5" d="M364.7,10.1c47.4,18.1,89.4,52.7,109.9,99.3c29.5,67.2,13.7,151.5-37.7,203.8s-135,69.9-203.2,42.9
	c-43.8-17.5-79.6-50.5-100.6-92.8c-29.4-60-23.6-136.4,16.3-190.1C173.5,40.7,209.7,17.7,249,8C249,8,308.6-11.4,364.7,10.1z"/><path class="st6" d="M430.1,286.3c0.7,2.7-0.2,5.4-1.5,7.8c-0.5,0.9-1.3,1.4-2.3,1.5l-1.9,0.3c-0.3,0-0.4-0.4-0.6-0.6
	c-0.4-0.7-0.6-1.4-0.7-2.1c0-0.2,0.1-0.4,0.2-0.5c0.8-0.5,1.7-0.9,2.6-1l-2.1,0.2c0.5-1.6,1.9-1.3,2.9-2.4c1.1-1,2.1-2.1,2.9-3.4
	c0.1-0.1,0.2-0.2,0.4-0.1C430.1,286.2,430.2,286.2,430.1,286.3L430.1,286.3z"/><path class="st6" d="M416.2,282.1c-0.4,1.4-0.9,2.8-1.5,4.1c-0.3,0.6-0.3,1.6-1,1.8c-1,0.3-2.1,0.2-3-0.3c-0.2-0.1-0.3-0.2-0.4-0.4
	c-0.4-1-0.5-2-0.2-3c0.2-0.7,1.1-0.7,1.8-1c1.3-0.6,2.7-1.1,4.1-1.5c0.2,0,0.3,0.1,0.4,0.2C416.2,282,416.2,282.1,416.2,282.1z"/><path class="st6" d="M407.3,311.5c-0.1,2.1-1,4.1-2.4,5.7c-0.7,0.8-1.4,1.9-2.6,2c-1.3,0.2-2.7-0.4-3.6-1.4
	c-0.1-0.1-0.1-0.3-0.1-0.5c0.4-1,1-2,1.7-2.8c0.2-0.3,0.6-0.4,0.9-0.4c1.2-0.1,2.4-0.5,3.4-1.2c0.8-0.4,1.5-1,2.2-1.6
	c0.1-0.1,0.3-0.1,0.4,0C407.3,311.4,407.3,311.5,407.3,311.5L407.3,311.5z"/><path class="st6" d="M395.6,300c-0.3,1.2-0.8,2.3-1.4,3.4c-0.3,0.5-0.3,1.4-0.9,1.4c-1,0-1.9-0.3-2.7-0.9c-0.1-0.1-0.3-0.2-0.3-0.4
	c-0.4-0.9-0.4-1.9-0.2-2.8c0.2-0.6,1-0.4,1.6-0.6c1.2-0.3,2.4-0.5,3.6-0.5C395.4,299.6,395.6,299.7,395.6,300
	C395.6,300,395.6,300,395.6,300L395.6,300z"/><path class="st6" d="M372.7,314.5c-0.3,1.2-0.8,2.3-1.4,3.4c-0.3,0.5-0.3,1.4-0.9,1.4c-1,0-1.9-0.3-2.7-0.9
	c-0.1-0.1-0.3-0.2-0.3-0.4c-0.4-0.9-0.4-1.9-0.2-2.8c0.2-0.6,1-0.4,1.6-0.6c1.2-0.3,2.4-0.5,3.6-0.5c0.2,0,0.3,0.1,0.3,0.3
	C372.7,314.5,372.7,314.5,372.7,314.5L372.7,314.5z"/><path class="st6" d="M375.6,334.2c-0.5,1.4-1.1,2.8-1.9,4.1c-0.4,0.6-0.4,1.6-1.2,1.8c-1,0.2-2.1,0.1-3.1-0.4
	c-0.2-0.1-0.3-0.2-0.3-0.4c-0.4-1-0.4-2.1,0-3.1c0.3-0.8,1.2-0.7,1.9-1c1.4-0.6,2.8-1.1,4.3-1.4c0.2,0,0.3,0.1,0.3,0.2
	C375.6,334.1,375.6,334.2,375.6,334.2L375.6,334.2z"/><path class="st6" d="M348.1,336.8c0.2,1.5,0.3,4.3-1.9,4c-0.8-0.1-1.3-0.8-1.3-1.6v-1.9c0.1-0.4-0.4-1.2,0-1.5
	c0.9-0.3,1.8-0.3,2.7,0c0.9,0.3,2.8,2.8,1.4,3c-0.3,0.1-0.5,0.2-0.7,0.3l-3.2-2.1c0.8-0.3,1.7-0.5,2.6-0.6
	C347.9,336.4,348.1,336.5,348.1,336.8L348.1,336.8z"/><path class="st6" d="M440.2,256.3c-0.1,1.5-0.3,2.9-0.7,4.4c-0.2,0.7,0,1.6-0.7,2c-0.9,0.5-2,0.6-3,0.4c-0.2,0-0.3-0.1-0.4-0.3
	c-0.6-0.9-0.9-1.9-0.8-3c0-0.8,1-1,1.5-1.4c1.2-0.9,2.4-1.7,3.7-2.4c0.1-0.1,0.3,0,0.4,0.1C440.2,256.2,440.2,256.2,440.2,256.3z"/><path class="st6" d="M461,252.6c-0.7,2-1.5,3.9-2.5,5.7c-0.5,0.9-0.6,2.1-1.5,2.6c-1.1,0.7-2.4,0.9-3.7,0.8c-0.2,0-0.3-0.2-0.4-0.3
	c-0.4-1.2-0.3-2.6,0.1-3.8c0.3-1,1.5-1.3,2.3-1.9c1.6-1.3,3.4-2.4,5.2-3.4c0.1-0.1,0.3,0,0.4,0.1C461.1,252.4,461.1,252.5,461,252.6
	z"/><path class="st6" d="M439.4,226.4c-0.7,2.1-1.5,4.1-2.5,6.1c-0.5,1-0.6,2.2-1.6,2.8c-1.1,0.8-2.4,1.1-3.8,1.1
	c-0.2,0-0.4-0.1-0.4-0.3c-0.4-1.3-0.3-2.7,0.1-3.9c0.4-1.1,1.6-1.5,2.4-2.2c1.7-1.4,3.5-2.7,5.4-3.9c0.1-0.1,0.3,0,0.4,0.1
	C439.4,226.3,439.4,226.4,439.4,226.4L439.4,226.4z"/><path class="st6" d="M413,256.3c-0.1,2.3-0.8,4.5-2.2,6.4c-0.7,1-1.2,2.2-2.4,2.6c-1.4,0.5-2.8,0.3-4-0.6c-0.2-0.1-0.2-0.3-0.2-0.5
	c0.2-1.2,0.7-2.3,1.4-3.3c0.3-0.3,0.6-0.6,1-0.7c1.3-0.4,2.6-1.1,3.6-2.1c0.8-0.6,1.5-1.3,2.2-2.1c0.1-0.1,0.3-0.1,0.4,0
	C412.9,256.1,412.9,256.2,413,256.3L413,256.3z"/><path class="st6" d="M383.2,283.1c-0.1,1-0.4,2.1-0.8,3c-0.2,0.4-0.1,1.2-0.6,1.2c-1.1,0-2.1-0.5-2.8-1.3c-0.4-0.8-0.6-1.7-0.5-2.6
	c0.1-0.6,0.9-0.3,1.3-0.4c1-0.2,2.1-0.3,3.1-0.3C383.1,282.8,383.2,282.9,383.2,283.1C383.2,283.1,383.2,283.1,383.2,283.1
	L383.2,283.1z"/><path class="st6" d="M352.1,302.9c-0.7,1.8-1.3,5.5-3.9,4.4c-0.8-0.4-1.2-1.4-0.9-2.2l0.4-1.2c0.3-0.6,0.1-1.6,0.7-1.9
	c1-0.4,2.1-0.5,3.1-0.1c0.2,0,0.3,0.2,0.4,0.3c0.6,0.9,0.8,2,0.6,3c-0.2,0.7-1.2,0.7-1.7,1.1l-2.9-2.7c1.2-0.5,2.5-0.9,3.8-1.1
	c0.2,0,0.3,0.1,0.4,0.2C352.1,302.7,352.1,302.7,352.1,302.9L352.1,302.9z"/><path class="st6" d="M462.6,220c0.1,1.9,0,3.8-0.3,5.7c-0.1,0.9,0.2,2-0.5,2.7c-0.8,0.9-1.9,1.5-3.1,1.7c-0.2,0-0.4,0-0.5-0.2
	c-0.8-0.9-1.2-2.1-1.2-3.4c0-1,0.9-1.6,1.5-2.3c1.1-1.6,2.3-3,3.6-4.4c0.1-0.1,0.3-0.1,0.4,0C462.5,219.8,462.5,219.9,462.6,220
	L462.6,220z"/><path class="st6" d="M444.7,189.2c0.8,1.6,1.4,3.3,1.8,5c0.2,0.8,0.9,1.7,0.5,2.5c-0.5,1.1-1.3,2-2.3,2.5c-0.2,0.1-0.4,0.1-0.5,0
	c-1-0.5-1.9-1.4-2.3-2.5c-0.4-0.8,0.3-1.7,0.5-2.5c0.4-1.7,1.1-3.4,1.8-5c0.1-0.1,0.3-0.2,0.4-0.1
	C444.6,189.1,444.7,189.1,444.7,189.2L444.7,189.2z"/><path class="st6" d="M475.4,181.9c0.7,1,1.3,2.2,1.8,3.4c0.2,0.6,0.9,1.1,0.5,1.7c-0.6,0.8-1.4,1.4-2.3,1.7c-0.2,0.1-0.3,0.1-0.5,0
	c-0.9-0.3-1.8-0.9-2.3-1.7c-0.4-0.5,0.3-1.1,0.5-1.7c0.5-1.2,1.1-2.3,1.8-3.4C475,181.8,475.2,181.7,475.4,181.9
	C475.4,181.8,475.4,181.9,475.4,181.9L475.4,181.9z"/><path class="st6" d="M411.8,209.2c1,1.5,1.3,3.4,1,5.2c-0.1,0.9-0.1,2.1-1,2.7c-1,0.7-2.4,0.8-3.5,0.2c-0.2-0.1-0.3-0.2-0.3-0.4
	c-0.2-1-0.3-2-0.3-2.9c0-0.3,0.2-0.5,0.5-0.6c0.9-0.5,1.6-1.2,2-2c0.4-0.6,0.8-1.3,1.1-2c0.1-0.1,0.2-0.2,0.4-0.2
	C411.7,209.1,411.7,209.2,411.8,209.2L411.8,209.2z"/><path class="st6" d="M379.1,249.8c0,1.4-0.1,2.7-0.4,4c-0.1,0.6,0.1,1.5-0.5,1.8c-0.9,0.4-2,0.5-2.9,0.3c-0.2,0-0.3-0.1-0.4-0.3
	c-0.6-0.8-1-1.8-1-2.8c0-0.7,0.9-0.9,1.4-1.3c1.1-0.8,2.2-1.5,3.5-2.1C378.8,249.4,379,249.5,379.1,249.8
	C379.1,249.7,379.1,249.7,379.1,249.8L379.1,249.8z"/><path class="st6" d="M278.5,302.1c-1.8,0.3-3.6,0.5-5.4,0.5c-0.9,0-1.9,0.5-2.6-0.1c-1-0.7-1.7-1.7-1.9-2.9c-0.1-0.2,0-0.4,0.1-0.5
	c0.8-0.9,1.9-1.5,3.1-1.6c0.9-0.2,1.6,0.7,2.4,1.1c1.6,0.8,3.1,1.8,4.6,3c0.1,0.1,0.1,0.3,0,0.4
	C278.6,302.1,278.5,302.1,278.5,302.1L278.5,302.1z"/><path class="st6" d="M287.4,323.9c-1.8,0.5-3.6,0.9-5.5,1.1c-0.9,0.1-1.9,0.7-2.7,0.2c-1.1-0.6-1.9-1.5-2.4-2.6
	c-0.1-0.2,0-0.4,0.1-0.5c0.7-1,1.7-1.7,2.9-2c0.9-0.3,1.7,0.5,2.6,0.8c1.8,0.7,3.5,1.5,5.1,2.4c0.1,0.1,0.2,0.3,0.1,0.4
	C287.5,323.8,287.5,323.8,287.4,323.9L287.4,323.9z"/><path class="st6" d="M275.1,348.2c-2.4,0.1-4.8,0-7.2-0.2c-1.2-0.1-2.5,0.2-3.5-0.5c-1.2-0.7-2.2-1.9-2.7-3.2
	c-0.1-0.2,0-0.4,0.1-0.5c1.2-0.8,2.6-1.3,4-1.3c1.2,0,2.2,0.9,3.2,1.5c2.2,1.1,4.2,2.3,6.2,3.7c0.1,0.1,0.1,0.3,0,0.4
	C275.2,348.1,275.2,348.2,275.1,348.2L275.1,348.2z"/><path class="st6" d="M250.5,320.3c-2.2,0-4.4-0.2-6.5-0.6c-1.1-0.2-2.2,0.1-3.1-0.7c-1-0.8-1.8-2-2.1-3.3c0-0.2,0-0.4,0.2-0.5
	c1.1-0.8,2.4-1.1,3.8-1c1.1,0,1.8,1,2.7,1.6c1.8,1.2,3.6,2.5,5.2,4c0.1,0.1,0.1,0.3,0,0.4C250.6,320.3,250.5,320.3,250.5,320.3z"/><path class="st6" d="M228.9,332.7c-2.4-1.1-4.7-2.3-7-3.7c-1.1-0.7-2.5-1-3.2-2.2c-0.9-1.3-1.4-2.8-1.4-4.3c0-0.2,0.1-0.4,0.3-0.4
	c1.5-0.2,3.1,0.1,4.5,0.8c1.2,0.5,1.7,1.9,2.6,2.9c1.7,2,3.2,4.2,4.6,6.4c0.1,0.1,0,0.3-0.1,0.4
	C229.2,332.7,229.1,332.8,228.9,332.7L228.9,332.7z"/><path class="st6" d="M243.2,300.8c-1.5,0.2-3,0.3-4.5,0.3c-0.7,0-1.6,0.4-2.1-0.2c-0.7-0.8-1.1-1.8-1.1-2.9c0-0.2,0.1-0.4,0.2-0.5
	c0.7-0.8,1.7-1.3,2.8-1.5c0.8-0.1,1.2,0.8,1.8,1.2c1.2,0.9,2.3,2,3.3,3.1c0.1,0.1,0.1,0.3-0.1,0.4
	C243.4,300.8,243.4,300.8,243.2,300.8L243.2,300.8z"/><path class="st6" d="M219.3,304.7c-0.8,0.5-1.8,0.9-2.7,1.1c-0.4,0.1-1,0.6-1.2,0.2c-0.4-0.8-0.5-1.7-0.4-2.6c0.3-1,1-1.9,1.9-2.4
	c0.5-0.3,0.6,0.5,1,0.8c0.7,0.7,1.2,1.5,1.7,2.4C219.5,304.5,219.4,304.7,219.3,304.7L219.3,304.7z"/><path class="st6" d="M213,284.4c-1.7-0.4-3.4-0.9-5-1.6c-0.8-0.3-1.9-0.3-2.2-1.1c-0.6-1-0.7-2.2-0.5-3.4c0-0.2,0.2-0.3,0.3-0.4
	c1.1-0.5,2.2-0.6,3.4-0.3c0.9,0.2,1.1,1.3,1.6,1.9c1.1,1.4,2,2.9,2.8,4.5c0.1,0.1,0,0.3-0.1,0.4C213.2,284.4,213.1,284.4,213,284.4
	L213,284.4z"/><path class="st6" d="M191.5,304.5c-2.6,0.6-5.4,0.3-7.8-0.9c-1.3-0.6-2.8-1.1-3.4-2.5c-0.8-1.4-0.8-3.2,0-4.6
	c0.1-0.2,0.3-0.2,0.5-0.2c0.7,0.2,1.4,0.5,2.1,0.8c1,0.3,1.9,1,2.4,1.9c0.8,1.4,1.9,2.6,3.3,3.4c1,0.7,2,1.2,3.1,1.7
	c0.1,0.1,0.2,0.2,0.1,0.4c0,0.1-0.1,0.1-0.1,0.1L191.5,304.5z"/><path class="st6" d="M190.7,286.3c-1.5,0-3-0.1-4.5-0.4c-0.7-0.1-1.6,0.1-2-0.5c-0.6-0.9-0.8-2-0.7-3c0-0.2,0.1-0.3,0.2-0.4
	c0.8-0.7,1.9-1,2.9-1c0.8,0,1.1,0.9,1.5,1.5c1,1.1,1.9,2.3,2.7,3.6c0.1,0.1,0,0.3-0.1,0.4C190.8,286.3,190.7,286.3,190.7,286.3
	L190.7,286.3z"/><path class="st6" d="M162.4,274.4c-1.7-1.1-3.3-2.4-4.8-3.8c-0.7-0.7-1.8-1.1-2.1-2.1c-0.3-1.2-0.2-2.5,0.3-3.7
	c0.1-0.2,0.2-0.3,0.4-0.3c1.3-0.1,2.5,0.3,3.6,1.1c0.9,0.6,0.9,1.8,1.2,2.7c0.8,1.9,1.4,3.8,1.8,5.8c0,0.2-0.1,0.3-0.2,0.3
	C162.6,274.5,162.5,274.5,162.4,274.4L162.4,274.4z"/><path class="st6" d="M184,264.3c-1.6-0.3-3.2-0.8-4.7-1.4c-0.7-0.3-1.8-0.2-2.1-1c-0.5-1-0.7-2.1-0.4-3.2c0-0.2,0.1-0.3,0.3-0.4
	c1-0.5,2.1-0.7,3.2-0.4c0.8,0.2,1,1.2,1.5,1.8c1,1.3,1.8,2.7,2.5,4.2c0.1,0.2,0,0.3-0.2,0.4C184.1,264.3,184.1,264.3,184,264.3z"/><path class="st6" d="M156,245.7c-1.3-0.7-2.4-1.5-3.5-2.5c-0.5-0.5-1.4-0.7-1.4-1.4c0-1,0.4-2,1.1-2.8c0.1-0.1,0.3-0.2,0.4-0.3
	c1-0.2,2.1,0,3,0.5c0.7,0.4,0.4,1.3,0.5,1.9c0.3,1.4,0.4,2.8,0.4,4.3c0,0.2-0.1,0.3-0.3,0.3C156.1,245.8,156,245.8,156,245.7
	L156,245.7z"/><path class="st6" d="M135.3,234c-1.3-1.5-2.6-3-3.7-4.7c-0.5-0.8-1.5-1.5-1.5-2.5c0-1.3,0.4-2.5,1.2-3.4c0.1-0.2,0.3-0.2,0.5-0.2
	c1.2,0.2,2.3,0.9,3.1,1.8c0.7,0.8,0.4,1.9,0.5,2.8c0.2,2,0.3,3.9,0.3,5.9c0,0.2-0.1,0.3-0.3,0.3C135.4,234,135.3,234,135.3,234
	L135.3,234z"/><path class="st6" d="M153.6,221.2c-1.5-1.7-2.9-3.4-4.2-5.3c-0.6-0.5-0.9-1.2-0.8-2l0.1-1.9c0.1-1.1,1-1.9,2-1.8
	c0.6,0,1.1,0.3,1.4,0.7c0.6,0.9,1,2,1,3.1c0,0.2-0.1,0.4-0.3,0.4c-1,0.5-2.1,0.8-3.2,0.7l3.5-3c1.1,1.1,0.5,2.9,0.8,4.2
	c0.1,1.5,0.1,3,0,4.5c0,0.2-0.1,0.3-0.3,0.3C153.7,221.2,153.6,221.2,153.6,221.2L153.6,221.2z"/><path class="st6" d="M186.9,246.4c-2.3-0.2-4.4-1.1-6.1-2.7c-0.9-0.8-2.1-1.4-2.2-2.7c-0.3-1.4,0.1-2.8,1.1-3.9
	c0.1-0.1,0.3-0.2,0.5-0.1c1.1,0.4,2.2,1,3,1.8c0.3,0.3,0.5,0.7,0.5,1.1c0.3,1.3,0.8,2.6,1.6,3.7c0.5,0.8,1.1,1.6,1.8,2.4
	c0.1,0.1,0.1,0.3,0,0.4C187.1,246.4,187,246.4,186.9,246.4L186.9,246.4z"/><path class="st6" d="M224.4,267.1c-1.7,0.7-3.5,0.7-5.3,0.1c-0.9-0.3-2-0.4-2.5-1.4c-0.5-1.1-0.4-2.4,0.3-3.4
	c0.1-0.1,0.3-0.2,0.4-0.2c1-0.1,2-0.1,3,0.1c0.3,0.1,0.5,0.3,0.6,0.6c0.4,0.9,0.9,1.7,1.7,2.4c0.5,0.5,1.1,1,1.8,1.4
	c0.1,0.1,0.2,0.3,0.1,0.4C224.6,267,224.5,267.1,224.4,267.1L224.4,267.1z"/><path class="st6" d="M256.1,279.2c-1.7-0.3-3.4-0.7-5-1.3c-0.8-0.3-1.8-0.2-2.2-1c-0.6-1-0.8-2.2-0.6-3.3c0-0.2,0.1-0.3,0.3-0.4
	c1-0.6,2.2-0.7,3.4-0.5c0.9,0.2,1.1,1.2,1.6,1.8c1.1,1.3,2.1,2.8,2.9,4.3c0.1,0.1,0,0.3-0.1,0.4
	C256.3,279.2,256.3,279.3,256.1,279.2L256.1,279.2z"/><path class="st6" d="M370.8,30.9c2.8,0.1,5.5,0.8,8,2.1c1.2,0.6,2.8,1.1,3.5,2.3c0.9,1.3,1.2,3,0.9,4.6c0,0.2-0.2,0.3-0.4,0.3
	c-1.5-0.1-2.9-0.5-4.1-1.2c-1.1-0.6-1.5-1.8-2.3-2.7c-0.8-0.9-1.7-1.7-2.7-2.6c-0.9-0.8-2-1.6-3-2.4c-0.1-0.1-0.1-0.3,0-0.4
	C370.7,30.9,370.7,30.9,370.8,30.9L370.8,30.9z"/><path class="st6" d="M364.3,46.8c1.2-0.2,2.4-0.2,3.6-0.1c0.6,0,1.3-0.3,1.6,0.3c0.4,0.9,0.5,1.8,0.3,2.8c0,0.2-0.1,0.3-0.2,0.5
	c-0.6,0.7-1.5,1.2-2.5,1.4c-0.6,0.1-0.8-0.8-1.1-1.2c-0.8-0.9-1.4-2-1.9-3.1C364,47.1,364.1,46.9,364.3,46.8
	C364.3,46.9,364.3,46.8,364.3,46.8L364.3,46.8z"/><path class="st6" d="M395,62.8c1.2,0.2,2.3,0.6,3.4,1c0.5,0.2,1.3,0.2,1.4,0.8c0,0.9-0.2,1.9-0.8,2.6c-0.1,0.2-0.2,0.3-0.4,0.3
	c-0.8,0.4-1.8,0.6-2.7,0.4c-0.6-0.1-0.4-0.9-0.6-1.5c-0.3-1.1-0.5-2.3-0.6-3.4C394.6,63,394.8,62.8,395,62.8
	C395,62.8,395,62.8,395,62.8L395,62.8z"/><path class="st6" d="M415,60.6c1.7,0.5,3.3,1.2,4.8,2c0.8,0.4,1.8,0.4,2.2,1.3c0.5,1.1,0.6,2.2,0.2,3.4c0,0.2-0.2,0.3-0.4,0.4
	c-1.1,0.4-2.3,0.4-3.4,0c-0.9-0.3-1-1.3-1.5-2.1c-0.9-1.5-1.7-3-2.4-4.7c-0.1-0.2,0-0.3,0.2-0.4C414.9,60.5,415,60.5,415,60.6
	L415,60.6z"/><path class="st6" d="M377.6,81c1.9,1.5,3.7,3.2,5.4,4.9c0.8,0.9,2,1.5,2.4,2.7c0.5,1.4,0.5,2.9,0,4.2c-0.1,0.2-0.2,0.3-0.4,0.3
	c-1.4-0.1-2.8-0.7-3.9-1.7c-1-0.8-1-2.1-1.5-3.2c-0.9-2.2-1.7-4.5-2.3-6.9c0-0.2,0.1-0.3,0.2-0.3C377.4,80.9,377.5,80.9,377.6,81
	L377.6,81z"/><path class="st6" d="M414.6,102.3c1.3,0.1,2.5,0.5,3.7,0.9c0.6,0.2,1.4,0.1,1.6,0.7c0.2,1,0.1,2-0.3,2.9c-0.1,0.2-0.2,0.3-0.3,0.4
	c-0.8,0.5-1.8,0.7-2.8,0.6c-0.7-0.1-0.6-1-0.9-1.5c-0.6-1.1-1-2.3-1.3-3.6C414.2,102.5,414.3,102.3,414.6,102.3
	C414.5,102.3,414.6,102.3,414.6,102.3L414.6,102.3z"/><path class="st6" d="M444.1,109.8c1.5,1.7,2.9,3.5,4.2,5.5c0.6,0.9,1.7,1.7,1.7,2.9c0.1,1.4-0.2,2.8-0.9,3.9
	c-0.1,0.2-0.3,0.2-0.5,0.2c-1.3-0.3-2.5-1.1-3.4-2.2c-0.8-0.9-0.6-2.2-0.8-3.3c-0.4-2.3-0.7-4.5-0.8-6.8c0-0.1,0.1-0.3,0.3-0.3
	C444,109.6,444.1,109.7,444.1,109.8L444.1,109.8z"/><path class="st6" d="M409.1,135.9c1.3,0.8,2.5,1.7,3.5,2.8c0.5,0.5,1.4,0.8,1.4,1.6c0,1.1-0.4,2.1-1.1,2.9c-0.1,0.1-0.3,0.2-0.5,0.2
	c-1.1,0.1-2.1-0.1-3-0.7c-0.7-0.4-0.4-1.4-0.5-2.1c-0.3-1.5-0.4-3-0.3-4.5c0-0.2,0.2-0.3,0.3-0.3C409,135.9,409,135.9,409.1,135.9
	L409.1,135.9z"/><path class="st6" d="M346.7,30.8c-1.2,0.3-2.4,0.5-3.7,0.6c-0.6,0-1.3,0.5-1.7-0.1c-0.6-0.8-0.8-1.8-0.8-2.7c0-0.2,0.1-0.3,0.2-0.5
	c0.6-0.8,1.4-1.4,2.3-1.6c0.6-0.2,0.9,0.7,1.4,1c0.9,0.8,1.7,1.8,2.4,2.8C346.9,30.5,346.9,30.7,346.7,30.8
	C346.7,30.8,346.7,30.8,346.7,30.8L346.7,30.8z"/><path class="st6" d="M339.5,50.8c-2.1,0.3-4.2,0.4-6.3,0.4c-1,0-2.2,0.4-3-0.2c-1.1-0.7-1.9-1.7-2.4-2.9c-0.1-0.2,0-0.4,0.1-0.5
	c0.9-0.9,2.2-1.5,3.5-1.6c1.1-0.1,1.9,0.8,2.8,1.2c1.9,0.9,3.7,2,5.5,3.1c0.1,0.1,0.2,0.3,0.1,0.4C339.6,50.7,339.6,50.8,339.5,50.8
	L339.5,50.8z"/><path class="st6" d="M294.8,33.8c-1.5,0.9-3,1.6-4.6,2.2c-0.8,0.3-1.5,1-2.3,0.7c-1.1-0.4-2-1.1-2.6-2.1c-0.1-0.2-0.1-0.4,0-0.5
	c0.4-1.1,1.1-2,2.1-2.6c0.8-0.4,1.6,0.2,2.4,0.3c1.7,0.3,3.3,0.8,4.9,1.4c0.1,0.1,0.2,0.3,0.1,0.4C294.8,33.7,294.8,33.8,294.8,33.8
	L294.8,33.8z"/><path class="st6" d="M261.3,28c-1.2,0.9-2.6,1.7-4,2.3c-0.7,0.3-1.3,1.1-2,0.8c-1-0.4-1.9-1.1-2.4-2c-0.1-0.1-0.1-0.3-0.1-0.5
	c0.3-1,0.9-2,1.8-2.6c0.6-0.5,1.4,0.1,2.2,0.2c1.5,0.3,3,0.7,4.5,1.2c0.2,0.1,0.2,0.2,0.2,0.4C261.5,28,261.4,28,261.3,28L261.3,28z
	"/><path class="st6" d="M269.6,58.9c-0.9,1.6-2,3.1-3.2,4.5c-0.6,0.7-0.9,1.7-1.8,1.9c-1.2,0.3-2.4,0.2-3.5-0.4
	c-0.2-0.1-0.3-0.2-0.3-0.4c-0.2-1.2,0.1-2.4,0.8-3.4c0.5-0.8,1.6-0.8,2.4-1.1c1.7-0.7,3.5-1.2,5.3-1.6c0.2,0,0.3,0.1,0.3,0.2
	C269.6,58.8,269.6,58.8,269.6,58.9z"/><path class="st6" d="M242.2,52.2c-1.4,1.6-2.9,3.2-4.5,4.6c-0.8,0.7-1.3,1.8-2.4,1.9c-1.3,0.3-2.6,0.1-3.8-0.5
	c-0.2-0.1-0.3-0.3-0.3-0.4c0.1-1.3,0.6-2.6,1.5-3.5c0.7-0.8,1.9-0.7,2.9-1.1c2-0.6,4.1-1.1,6.2-1.4c0.2,0,0.3,0.1,0.3,0.3
	C242.2,52,242.2,52.1,242.2,52.2L242.2,52.2z"/><path class="st6" d="M217.4,43.7c-0.8,1.5-1.8,2.9-2.9,4.3c-0.5,0.6-0.8,1.7-1.7,1.8c-1.1,0.2-2.3,0.1-3.4-0.5
	c-0.2-0.1-0.3-0.2-0.3-0.4c-0.2-1.1,0-2.3,0.6-3.3c0.4-0.8,1.5-0.7,2.2-1c1.6-0.6,3.3-1,5-1.3c0.2,0,0.3,0.1,0.3,0.2
	C217.3,43.6,217.3,43.6,217.4,43.7L217.4,43.7z"/><path class="st6" d="M188.8,68.6c-1.7,1.6-2.9,3.7-3.4,6c-0.3,1.6-2,2.2-3.5,2.9c-0.2,0.1-0.4,0-0.5-0.1c-0.5-0.5-0.9-1.2-1.1-2
	c-0.4-1.2-0.1-2.6,0.8-3.5c0.5-0.4,1-0.8,1.4-1.2c1.7-1.5,3.9-2.5,6.2-2.7c0.2,0,0.3,0.1,0.3,0.3C188.8,68.5,188.8,68.6,188.8,68.6
	L188.8,68.6z"/><path class="st6" d="M219.5,83.1c-1,1.3-2.1,2.5-3.4,3.6c-0.6,0.5-1,1.5-1.9,1.5c-1.1,0-2.2-0.4-3.1-1.1c-0.1-0.1-0.2-0.3-0.2-0.5
	c0-1.1,0.4-2.2,1.1-3.1c0.5-0.7,1.5-0.4,2.3-0.5c1.6-0.3,3.3-0.4,5-0.3c0.2,0,0.3,0.1,0.3,0.3C219.6,83,219.6,83.1,219.5,83.1
	L219.5,83.1z"/><path class="st6" d="M240.4,100.1c-0.7,1.7-1.6,3.3-2.6,4.8c-0.5,0.7-0.7,1.8-1.6,2.1c-1.1,0.4-2.4,0.4-3.5,0
	c-0.2-0.1-0.3-0.2-0.3-0.4c-0.3-1.2-0.2-2.4,0.4-3.4c0.4-0.9,1.5-0.9,2.2-1.3c1.6-0.8,3.3-1.5,5-2.1c0.1-0.1,0.3,0,0.4,0.2
	C240.4,100,240.4,100.1,240.4,100.1L240.4,100.1z"/><path class="st6" d="M187.8,113.4c-0.3,1.5-0.8,2.9-1.5,4.3c-0.3,0.6-0.3,1.6-1,1.9c-1,0.4-2.1,0.4-3.1,0c-0.2-0.1-0.3-0.2-0.4-0.3
	c-0.5-1-0.6-2.1-0.3-3.1c0.2-0.8,1.1-0.8,1.8-1.2c1.3-0.8,2.7-1.4,4.1-1.9c0.2,0,0.3,0,0.4,0.2C187.8,113.3,187.8,113.4,187.8,113.4
	L187.8,113.4z"/><path class="st6" d="M167.3,105.8c-0.5,1.8-1.2,3.5-2,5.1c-0.4,0.8-0.4,1.9-1.3,2.2c-1,0.6-2.3,0.7-3.4,0.5c-0.2,0-0.3-0.2-0.4-0.3
	c-0.5-1.1-0.5-2.3-0.1-3.5c0.3-0.9,1.3-1.1,2-1.6c1.5-1.1,3-2,4.7-2.8c0.1-0.1,0.3,0,0.4,0.2C167.3,105.6,167.3,105.7,167.3,105.8
	L167.3,105.8z"/><path class="st6" d="M148.8,138.5c0.2,1.5,0.2,2.9,0,4.4c-0.1,0.7,0.3,1.6-0.4,2c-0.9,0.6-1.9,0.9-2.9,0.8c-0.2,0-0.3-0.1-0.5-0.2
	c-0.7-0.8-1.2-1.7-1.3-2.8c-0.1-0.8,0.8-1.1,1.3-1.6c1-1.1,2.1-2,3.4-2.9c0.1-0.1,0.3,0,0.4,0.1
	C148.8,138.4,148.9,138.4,148.8,138.5L148.8,138.5z"/><path class="st6" d="M167.1,153.5c-0.1,1.4-0.3,2.8-0.8,4.1c-0.2,0.6,0,1.6-0.7,1.8c-0.9,0.4-2,0.5-3,0.2c-0.2,0-0.3-0.2-0.4-0.3
	c-0.6-0.8-0.9-1.9-0.8-2.9c0-0.7,1-0.9,1.5-1.2c1.1-0.8,2.4-1.5,3.7-2c0.2-0.1,0.3,0,0.4,0.2C167.1,153.4,167.1,153.4,167.1,153.5
	L167.1,153.5z"/><path class="st6" d="M210,133.5c-1.7,1.9-2.8,4.3-3.2,6.8c-0.3,1.8-1.8,2.6-3.3,3.7c-0.2,0.1-0.4,0.1-0.5,0
	c-0.6-0.5-1.1-1.2-1.3-1.9c-0.5-1.3-0.3-2.7,0.5-3.8c0.4-0.5,0.9-1,1.3-1.4c1.6-1.9,3.8-3.2,6.3-3.7c0.2,0,0.3,0.1,0.3,0.2
	C210.1,133.4,210.1,133.5,210,133.5L210,133.5z"/><path class="st6" d="M313.2,68.3c1.5-0.8,3.1-1.4,4.7-1.8c0.8-0.2,1.6-0.9,2.4-0.5c1.1,0.5,1.9,1.3,2.4,2.3c0.1,0.2,0.1,0.4,0,0.5
	c-0.5,1-1.3,1.9-2.4,2.3c-0.8,0.4-1.6-0.3-2.4-0.5c-1.6-0.5-3.3-1.1-4.8-1.8c-0.1-0.1-0.2-0.3-0.1-0.4
	C313.1,68.4,313.1,68.3,313.2,68.3L313.2,68.3z"/><path class="st6" d="M379.2,116.3c1.5,1.4,2.9,2.9,4.1,4.6c0.6,0.8,1.6,1.4,1.7,2.4c0.1,1.3-0.2,2.6-0.9,3.6
	c-0.1,0.2-0.3,0.2-0.5,0.2c-1.3-0.2-2.5-0.8-3.4-1.7c-0.8-0.7-0.5-1.9-0.8-2.9c-0.4-2-0.7-4-0.8-6.1c0-0.2,0.1-0.3,0.3-0.3
	C379.1,116.2,379.1,116.2,379.2,116.3L379.2,116.3z"/><path class="st6" d="M395.1,155.6c0.8,1.2,1.5,2.5,2.1,3.8c0.3,0.6,1,1.2,0.6,1.9c-0.5,0.9-1.2,1.7-2.2,2.1c-0.2,0.1-0.3,0.1-0.5,0
	c-1-0.3-1.9-0.9-2.5-1.8c-0.4-0.6,0.2-1.3,0.4-2c0.4-1.4,0.9-2.7,1.5-4C394.7,155.5,394.9,155.4,395.1,155.6
	C395.1,155.6,395.1,155.6,395.1,155.6L395.1,155.6z"/><path class="st6" d="M186.7,174.2c0.3,1.7,0.4,3.5,0.3,5.3c0,0.9,0.4,1.8-0.2,2.5c-0.7,0.9-1.8,1.5-2.9,1.7c-0.2,0-0.4,0-0.5-0.1
	c-0.9-0.8-1.4-1.9-1.5-3c-0.1-0.9,0.8-1.5,1.2-2.2c0.9-1.5,2-2.9,3.1-4.2c0.1-0.1,0.3-0.1,0.4,0C186.7,174,186.7,174.1,186.7,174.2
	L186.7,174.2z"/><path class="st6" d="M141.5,174.2c-0.1,2.7,0.2,5.4,0.9,8c0.3,1.2,1.2,2.2,1.3,3.5c0.1,1.5-0.1,3-0.5,4.5c-0.1,0.2-0.3,0.3-0.4,0.2
	c-0.9-0.2-1.7-0.7-2.4-1.3c-1.3-1-2.1-2.6-2.1-4.2l0.1-2.4c0.1-3.1,1-6,2.7-8.6c0.1-0.1,0.2-0.2,0.4-0.1
	C141.5,174,141.5,174.1,141.5,174.2L141.5,174.2z"/><path class="st6" d="M436.6,144.3c1.3,1.2,2.4,2.5,3.5,3.9c0.5,0.7,1.4,1.2,1.4,2.1c0,1.2-0.5,2.3-1.3,3.1c-0.1,0.1-0.3,0.2-0.5,0.2
	c-1.2-0.1-2.2-0.6-3.1-1.4c-0.6-0.6-0.3-1.6-0.4-2.5c-0.2-1.7-0.2-3.5-0.1-5.2c0-0.2,0.2-0.3,0.3-0.3
	C436.5,144.3,436.6,144.3,436.6,144.3z"/><path class="st6" d="M463.8,145.1c1.2,1.6,2.2,3.2,3.1,5c0.4,0.9,1.3,1.6,1.1,2.6c-0.1,1.2-0.7,2.4-1.6,3.2
	c-0.1,0.1-0.3,0.2-0.5,0.1c-1.2-0.4-2.2-1.1-2.9-2.1c-0.6-0.8-0.1-1.9-0.1-2.8c0-1.9,0.1-3.9,0.5-5.8c0-0.2,0.2-0.3,0.3-0.2
	C463.7,145.1,463.7,145.1,463.8,145.1L463.8,145.1z"/><path class="st6" d="M418.9,174.1c1.2,1.7,2.2,3.5,3.1,5.3c0.4,0.9,1.3,1.7,1.1,2.8c-0.1,1.3-0.7,2.5-1.6,3.4
	c-0.1,0.1-0.3,0.2-0.5,0.1c-1.2-0.4-2.3-1.3-2.9-2.4c-0.6-0.9-0.2-2-0.2-3c0-2.1,0.1-4.1,0.4-6.2c0-0.2,0.2-0.3,0.3-0.2
	C418.7,174,418.8,174,418.9,174.1L418.9,174.1z"/><path class="st6" d="M205.7,234.9c1.6,0.7,3.1,1.6,4.5,2.6c0.7,0.5,1.8,0.7,2,1.6c0.3,1.1,0.3,2.3-0.2,3.4c-0.1,0.2-0.2,0.3-0.4,0.3
	c-1.1,0.3-2.3,0.1-3.4-0.4c-0.8-0.4-0.8-1.5-1.2-2.2c-0.7-1.6-1.3-3.2-1.8-4.9c0-0.2,0.1-0.3,0.2-0.3
	C205.5,234.9,205.6,234.9,205.7,234.9L205.7,234.9z"/><path class="st6" d="M195.4,210.4c0.4,2.5,1.5,4.8,3.3,6.7c1.1,1.3,0.8,3,0.7,4.8c0,0.2-0.2,0.3-0.4,0.4c-2.2,0.5-4.3-0.8-5-2.9
	c-0.5-3-0.7-6.3,0.8-9c0.1-0.1,0.2-0.2,0.4-0.1C195.3,210.3,195.4,210.3,195.4,210.4L195.4,210.4z"/><path class="st6" d="M215.8,176c-0.8,2.4-0.7,5,0.4,7.2c0.8,1.4-0.1,3.2-0.4,4.7c0,0.2-0.2,0.3-0.4,0.3c-2.3,0-4.2-1.8-4.3-4.2
	c0,0,0,0,0-0.1c0.3-3.2,1.4-6.6,4.2-8.3c0.1-0.1,0.3-0.1,0.4,0.1C215.8,175.8,215.8,175.9,215.8,176z"/><path class="st6" d="M338.8,93.3c2.9-0.7,6-0.3,8.6,1.1c1.4,0.7,3,1.3,3.7,2.8c0.8,1.5,0.9,3.3,0.2,4.9c-0.1,0.2-0.3,0.2-0.5,0.2
	c-0.8-0.2-1.5-0.6-2.2-1c-0.6-0.3-1.1-0.6-1.6-0.9c-1-0.6-1.3-1.8-2.1-2.6c-0.8-0.8-1.8-1.6-2.8-2.2c-1.1-0.7-2.2-1.3-3.5-1.7
	c-0.1,0-0.2-0.2-0.2-0.3C338.6,93.4,338.7,93.3,338.8,93.3L338.8,93.3z"/><path class="st6" d="M287.4,83c-1,1.5-2.1,2.9-3.4,4.2c-0.6,0.6-1,1.7-1.9,1.8c-1.2,0.2-2.3-0.1-3.4-0.6c-0.2-0.1-0.3-0.3-0.3-0.4
	c-0.1-1.2,0.3-2.4,1-3.4c0.5-0.8,1.6-0.6,2.4-0.9c1.7-0.5,3.5-0.9,5.3-1.1c0.2,0,0.3,0.1,0.3,0.2C287.6,82.8,287.5,82.9,287.4,83
	L287.4,83z"/><path class="st6" d="M311.4,97.8c-1.2,1-2.6,1.9-4,2.6c-0.7,0.4-1.3,1.2-2.1,1c-1.1-0.3-2-0.9-2.6-1.8c-0.1-0.1-0.1-0.3-0.1-0.5
	c0.2-1.1,0.8-2.1,1.7-2.8c0.7-0.5,1.5,0,2.3,0.1c1.6,0.1,3.2,0.4,4.7,0.9c0.2,0,0.2,0.2,0.2,0.4C311.4,97.7,311.4,97.8,311.4,97.8
	L311.4,97.8z"/><path class="st6" d="M257.2,119.4c-0.4,1.5-1,2.9-1.6,4.2c-0.3,0.6-0.3,1.6-1.1,1.8c-1,0.3-2.1,0.2-3.1-0.2
	c-0.2-0.1-0.3-0.2-0.4-0.4c-0.4-1-0.5-2.1-0.2-3.1c0.2-0.8,1.2-0.8,1.8-1.1c1.3-0.7,2.7-1.2,4.2-1.6c0.2,0,0.3,0.1,0.4,0.2
	C257.2,119.3,257.2,119.3,257.2,119.4L257.2,119.4z"/><path class="st6" d="M351.7,131.4c1.8,0.8,3.6,1.8,5.3,2.9c0.8,0.5,2,0.8,2.4,1.7c0.5,1.2,0.6,2.5,0.3,3.7c0,0.2-0.2,0.3-0.4,0.4
	c-1.2,0.3-2.5,0.1-3.7-0.5c-0.9-0.4-1.1-1.6-1.6-2.4c-1-1.7-2-3.5-2.7-5.4c-0.1-0.1,0-0.3,0.2-0.4
	C351.6,131.4,351.7,131.4,351.7,131.4L351.7,131.4z"/><path class="st6" d="M310.4,121.9c1.7-0.3,3.4-0.5,5.1-0.4c0.8,0,1.8-0.4,2.5,0.1c0.9,0.7,1.5,1.7,1.7,2.9c0,0.2,0,0.4-0.1,0.5
	c-0.8,0.9-1.8,1.4-3,1.6c-0.9,0.2-1.5-0.7-2.2-1.1c-1.5-0.9-2.9-1.9-4.1-3c-0.1-0.1-0.1-0.3,0-0.4
	C310.2,122,310.3,121.9,310.4,121.9L310.4,121.9z"/><path class="st6" d="M279.7,134.1c-1.9,0.4-3.3,2-3.3,3.9c0.1,0.3,0,0.5-0.2,0.7c-0.8,0.6-1.5,1.3-2.1,2c-0.1,0.2-0.3,0.2-0.5,0.2
	c-1.8-0.4-2.8-2.2-2.4-4c0.1-0.5,0.3-0.9,0.6-1.3c1.9-2.2,5.4-3.9,8-2.1c0.1,0.1,0.2,0.3,0.1,0.4
	C279.9,134.1,279.8,134.1,279.7,134.1L279.7,134.1z"/><path class="st6" d="M328.5,152.7c1.4-0.1,2.7,0,4.1,0.2c0.6,0.1,1.5-0.2,1.8,0.4c0.5,0.9,0.7,1.9,0.5,2.9c0,0.2-0.1,0.3-0.2,0.4
	c-0.8,0.7-1.7,1.1-2.7,1.1c-0.7,0-0.9-0.9-1.4-1.3c-0.9-1-1.7-2.2-2.4-3.4c-0.1-0.2,0-0.3,0.1-0.4
	C328.4,152.6,328.5,152.6,328.5,152.7L328.5,152.7z"/><path class="st6" d="M298.9,160.2c-1.5,1.3-3.2,2.5-4.9,3.6c-0.8,0.5-1.5,1.5-2.6,1.4c-1.3,0-2.5-0.4-3.5-1.2
	c-0.2-0.1-0.2-0.3-0.2-0.5c0.3-1.2,1-2.4,2-3.1c0.8-0.7,1.9-0.4,2.9-0.5c2-0.2,4.1-0.3,6.1-0.2c0.2,0,0.3,0.1,0.3,0.3
	C299,160.1,299,160.2,298.9,160.2L298.9,160.2z"/><path class="st6" d="M353.7,275.5c-0.4,1.4-1,2.9-1.7,4.2c-0.3,0.6-0.4,1.6-1.1,1.8c-1,0.3-2.1,0.2-3.1-0.2
	c-0.2-0.1-0.3-0.2-0.4-0.4c-0.4-1-0.5-2.1-0.1-3.1c0.2-0.8,1.2-0.8,1.8-1.1c1.3-0.7,2.8-1.2,4.2-1.6c0.2,0,0.3,0,0.4,0.2
	C353.7,275.3,353.7,275.4,353.7,275.5L353.7,275.5z"/><path class="st6" d="M232.3,146.5c-0.4,1.7-1,3.4-1.8,5c-0.4,0.8-0.4,1.8-1.2,2.2c-1,0.5-2.2,0.7-3.4,0.4c-0.2,0-0.3-0.2-0.4-0.3
	c-0.5-1.1-0.5-2.3-0.2-3.4c0.2-0.9,1.3-1.1,2-1.6c1.4-1,3-1.9,4.6-2.7c0.1-0.1,0.3,0,0.4,0.1C232.4,146.4,232.4,146.5,232.3,146.5
	L232.3,146.5z"/><path class="st6" d="M240.6,246.8c-1.8,0.2-3.6-0.3-5.1-1.4c-0.7-0.5-1.8-1-1.9-2.1c-0.1-1.2,0.5-2.4,1.5-3.1
	c0.1-0.1,0.3-0.1,0.5-0.1c0.9,0.3,1.9,0.6,2.7,1.1c0.2,0.1,0.4,0.4,0.3,0.7c0,0.9,0.3,1.9,0.8,2.7c0.4,0.6,0.8,1.3,1.3,1.8
	c0.1,0.1,0.1,0.3-0.1,0.4C240.7,246.8,240.6,246.8,240.6,246.8L240.6,246.8z"/><path class="st6" d="M288.7,287.5c-1.7-0.3-3.5-0.8-5.1-1.5c-0.8-0.3-1.9-0.3-2.3-1.1c-0.6-1-0.9-2.2-0.7-3.4c0-0.2,0.1-0.3,0.3-0.4
	c1-0.5,2.2-0.7,3.4-0.4c0.9,0.2,1.1,1.2,1.7,1.9c1.1,1.4,2.1,2.9,3,4.4c0.1,0.1,0,0.3-0.1,0.4C288.8,287.4,288.7,287.5,288.7,287.5
	L288.7,287.5z"/><path class="st1" d="M525.9,165.8c25.9,9.9,48.8,28.8,60,54.2c16.1,36.7,7.5,82.7-20.6,111.3s-73.7,38.1-111,23.4
	c-23.9-9.6-43.4-27.6-54.9-50.7c-16.1-32.8-12.9-74.5,8.9-103.8c13.2-17.8,33-30.4,54.4-35.6C462.7,164.7,495.2,154.1,525.9,165.8z"/><path class="st3" d="M561,318.9c0.3,1.5,0.1,3.1-0.7,4.4c-0.2,0.5-0.8,0.9-1.3,0.9l-1.3,0.1c-0.3-0.5-0.5-1-0.5-1.6
	c0.1-0.6,1.4-0.9,1.6-1l-1.3,0.1c0.2-0.9,1-0.7,1.6-1.2c0.7-0.5,1.2-1.1,1.7-1.7c0-0.1,0.1-0.1,0.2-0.1
	C561,318.8,561,318.8,561,318.9L561,318.9z"/><path class="st3" d="M553.4,316.6c-0.2,0.8-0.4,1.6-0.7,2.3c-0.2,0.3-0.1,0.9-0.5,1c-0.7,0.2-1.5,0-2-0.5c-0.3-0.6-0.4-1.2-0.2-1.8
	c0.1-0.4,0.6-0.4,1-0.5c0.7-0.3,1.5-0.6,2.3-0.7C553.3,316.4,553.4,316.4,553.4,316.6C553.4,316.6,553.4,316.6,553.4,316.6z"/><path class="st3" d="M548.5,332.7c0,1.2-0.5,2.3-1.2,3.2c-0.4,0.5-0.8,1.1-1.4,1.2c-0.7,0.1-2.2-0.5-2.1-1.3
	c0.2-0.6,0.5-1.2,0.8-1.7c0.2-0.4,0.7-0.1,1.1-0.3c0.4-0.1,0.8-0.3,1.2-0.5c0.5-0.2,0.9-0.5,1.3-0.8c0.1-0.1,0.2,0,0.3,0
	C548.5,332.6,548.5,332.6,548.5,332.7L548.5,332.7z"/><path class="st3" d="M542.1,326.4c-0.1,0.7-0.4,1.3-0.7,2c-0.1,0.3-0.1,0.8-0.5,0.8c-0.7,0-1.3-0.3-1.8-0.9
	c-0.3-0.5-0.3-1.1-0.2-1.7c0.1-0.4,0.6-0.2,0.9-0.3c0.7-0.1,1.4-0.2,2.1-0.2C542,326.1,542.1,326.2,542.1,326.4
	C542.1,326.4,542.1,326.4,542.1,326.4L542.1,326.4z"/><path class="st3" d="M529.6,334.3c-0.1,0.7-0.4,1.3-0.7,1.9c-0.2,0.3-0.1,0.8-0.5,0.8c-0.7,0-1.3-0.3-1.8-0.9
	c-0.2-0.5-0.3-1.1-0.2-1.7c0.1-0.4,0.6-0.2,0.9-0.3c0.7-0.1,1.4-0.2,2.1-0.2C529.5,334.1,529.6,334.2,529.6,334.3
	C529.6,334.3,529.6,334.3,529.6,334.3L529.6,334.3z"/><path class="st3" d="M531.2,345.1c-0.2,0.8-0.6,1.6-1,2.3c-0.2,0.3-0.2,0.9-0.6,1c-0.6,0.1-1.3,0-1.8-0.3c-0.4-0.6-0.6-1.4-0.3-2.1
	c0.1-0.4,0.7-0.4,1.1-0.5c0.8-0.3,1.6-0.5,2.5-0.6C531.2,344.8,531.3,344.9,531.2,345.1C531.3,345,531.3,345.1,531.2,345.1
	L531.2,345.1z"/><path class="st3" d="M516.2,346.5c0.1,0.5,0.1,1,0.1,1.6c-0.1,0.5-0.6,0.9-1.1,0.8c-0.4-0.1-0.7-0.4-0.8-0.8c0-0.6-0.1-1.2-0.2-1.7
	c-0.2-0.4,0.2-0.5,0.6-0.5c0.5,0,0.9,0.1,1.4,0.4c0.5,0.3,0.8,0.8,1,1.3c0,0.3-0.6,0.2-0.8,0.4l-2-1.3c0.5-0.1,1-0.2,1.5-0.3
	C516.1,346.3,516.2,346.4,516.2,346.5L516.2,346.5z"/><path class="st3" d="M566.5,302.5c0,0.8-0.1,1.6-0.3,2.5c-0.1,0.4,0.1,0.9-0.3,1.1c-0.6,0.3-1.2,0.3-1.8,0.1
	c-0.6-0.5-0.9-1.2-0.9-1.9c0-0.4,0.6-0.5,0.9-0.7c0.7-0.5,1.4-0.9,2.2-1.2C566.3,302.3,566.4,302.4,566.5,302.5
	C566.5,302.5,566.5,302.5,566.5,302.5L566.5,302.5z"/><path class="st3" d="M577.9,300.5c-0.3,1.1-0.7,2.2-1.2,3.2c-0.2,0.5-0.3,1.2-0.8,1.4c-0.7,0.3-1.4,0.5-2.2,0.3
	c-0.1,0-0.2-0.1-0.2-0.2c-0.3-0.7-0.3-1.5-0.1-2.2c0.2-0.6,0.9-0.7,1.3-1c0.9-0.7,1.9-1.2,3-1.7
	C577.7,300.2,577.8,300.3,577.9,300.5C577.9,300.4,577.9,300.5,577.9,300.5L577.9,300.5z"/><path class="st3" d="M566.1,286.2c-0.3,1.2-0.8,2.3-1.3,3.4c-0.3,0.5-0.3,1.3-0.8,1.6c-0.7,0.4-1.5,0.6-2.2,0.5
	c-0.1,0-0.2-0.1-0.2-0.2c-0.3-0.7-0.3-1.5-0.1-2.2c0.2-0.6,0.9-0.8,1.3-1.1c0.5-0.4,1-0.7,1.5-1.1c0.5-0.3,1-0.7,1.6-1
	C565.9,286,566,286,566.1,286.2C566,286.2,566,286.2,566.1,286.2L566.1,286.2z"/><path class="st3" d="M551.6,302.5c0,1.3-0.4,2.5-1.1,3.6c-0.4,0.5-0.6,1.3-1.3,1.5c-0.8,0.2-1.7,0.1-2.3-0.5
	c-0.1-0.1-0.1-0.2-0.1-0.3c0.1-0.7,0.3-1.4,0.7-2c0.2-0.4,0.8-0.4,1.3-0.6c0.5-0.2,0.9-0.5,1.3-0.8c0.5-0.3,0.9-0.7,1.3-1.1
	c0.1-0.1,0.2-0.1,0.3,0C551.6,302.4,551.6,302.4,551.6,302.5L551.6,302.5z"/><path class="st3" d="M535.4,317.2c0,0.6-0.1,1.2-0.3,1.8c-0.1,0.3,0,0.7-0.3,0.7c-0.7-0.1-1.2-0.4-1.7-0.9c-0.3-0.5-0.4-1-0.4-1.6
	c0-0.3,0.5-0.2,0.7-0.2c0.6-0.1,1.2-0.1,1.8-0.1C535.3,316.9,535.4,317,535.4,317.2z"/><path class="st3" d="M518.4,327.9c-0.2,0.7-0.4,1.4-0.7,2.1c-0.2,0.6-0.9,0.9-1.5,0.6c-0.6-0.2-0.9-0.9-0.6-1.5l0,0l0.3-0.8
	c0.1-0.3,0-0.9,0.3-1.1c0.6-0.2,1.3-0.2,1.8,0.1c0.6,0.5,0.8,1.2,0.8,2c-0.1,0.4-0.7,0.4-1,0.6l-1.8-1.7c0.7-0.2,1.4-0.4,2.2-0.5
	C518.3,327.7,518.4,327.8,518.4,327.9C518.4,327.9,518.4,327.9,518.4,327.9L518.4,327.9z"/><path class="st3" d="M578.7,282.7c0.1,1,0.1,2.1,0,3.1c0,0.5,0.2,1.1-0.2,1.5c-0.5,0.5-1.2,0.8-1.9,0.9c-0.1,0-0.2,0-0.3-0.1
	c-0.5-0.5-0.8-1.2-0.8-1.9c0-0.5,0.5-0.9,0.8-1.3c0.6-0.8,1.3-1.6,2.1-2.3C578.5,282.5,578.6,282.5,578.7,282.7
	C578.7,282.6,578.7,282.6,578.7,282.7L578.7,282.7z"/><path class="st3" d="M569,265.8c0.5,0.9,0.8,1.8,1.1,2.7c0.1,0.5,0.6,0.9,0.3,1.4c-0.1,0.3-1,1.5-1.8,1.4c-0.6-0.3-1.1-0.8-1.4-1.4
	c-0.2-0.5,0.2-0.9,0.3-1.4c0.3-0.9,0.7-1.9,1.1-2.7C568.7,265.7,568.8,265.7,569,265.8C568.9,265.8,568.9,265.8,569,265.8L569,265.8
	z"/><path class="st3" d="M585.7,261.9c0.4,0.6,0.8,1.2,1.1,1.8c0.1,0.3,0.6,0.6,0.3,0.9c-0.4,0.5-1.1,0.9-1.8,0.9
	c-0.6-0.1-1.1-0.5-1.5-0.9c-0.2-0.3,0.2-0.6,0.3-0.9c0.3-0.7,0.7-1.3,1.1-1.8C585.5,261.8,585.6,261.8,585.7,261.9
	C585.7,261.8,585.7,261.8,585.7,261.9L585.7,261.9z"/><path class="st3" d="M551,276.8c0.6,0.8,0.8,1.9,0.7,2.9c-0.1,0.5,0,1.2-0.5,1.5c-0.5,0.3-1.7,0.5-2.2-0.3c-0.2-0.6-0.3-1.1-0.3-1.7
	c0-0.3,0.4-0.3,0.7-0.6c0.3-0.2,0.5-0.5,0.7-0.8c0.3-0.3,0.5-0.7,0.6-1.1C550.7,276.7,550.8,276.7,551,276.8
	C550.9,276.7,550.9,276.8,551,276.8L551,276.8z"/><path class="st3" d="M533.1,299c0.1,0.7,0,1.5-0.1,2.2c-0.1,0.3,0.1,0.9-0.3,1c-0.7,0.3-1.4,0.2-2-0.1c-0.4-0.4-0.7-1-0.7-1.6
	c0-0.4,0.5-0.5,0.8-0.7c0.6-0.4,1.3-0.8,2-1.1c0.1,0,0.2,0,0.3,0.1C533.1,298.9,533.1,298.9,533.1,299L533.1,299z"/><path class="st3" d="M478.1,327.5c-1,0.2-2,0.4-3,0.4c-0.5,0-1,0.3-1.4,0c-0.2-0.1-1.3-1.4-1-2c0.4-0.6,1-1,1.7-1.1
	c0.5-0.1,0.9,0.4,1.3,0.6c0.9,0.5,1.7,1.1,2.5,1.8c0.1,0.1,0.1,0.2,0,0.3C478.2,327.5,478.2,327.5,478.1,327.5L478.1,327.5z"/><path class="st3" d="M483,339.4c-1,0.4-2,0.6-3,0.8c-0.5,0.1-1,0.4-1.5,0.1c-0.3-0.1-1.5-1.2-1.2-1.9c0.4-0.6,1-1,1.7-1.2
	c0.5-0.2,0.9,0.3,1.4,0.5c1,0.4,1.9,0.9,2.8,1.5c0.1,0.1,0.1,0.2,0.1,0.3C483.2,339.4,483.2,339.4,483,339.4L483,339.4z"/><path class="st3" d="M476.3,352.7c-1.3,0.1-2.7,0.1-4,0c-0.6,0-1.4,0.2-1.9-0.2c-0.7-0.5-1.2-1.1-1.4-1.9c0-0.1,0-0.2,0.1-0.3
	c0.6-0.5,1.4-0.8,2.2-0.9c0.7-0.1,1.2,0.5,1.7,0.8c0.6,0.3,1.1,0.6,1.7,1c0.6,0.4,1.1,0.7,1.7,1.1c0.1,0.1,0.1,0.2,0,0.3
	C476.4,352.7,476.4,352.7,476.3,352.7L476.3,352.7z"/><path class="st3" d="M462.9,337.5c-1.2,0-2.4,0-3.6-0.2c-0.6-0.1-1.3,0.1-1.7-0.3c-0.6-0.5-1-1.2-1.1-2c0-0.1,0-0.2,0.1-0.3
	c0.6-0.5,1.3-0.7,2.1-0.7c0.6,0,1,0.6,1.5,0.9c0.5,0.3,1,0.7,1.4,1.1c0.5,0.4,0.9,0.8,1.4,1.2C463,337.2,463,337.4,462.9,337.5
	C462.9,337.4,462.9,337.5,462.9,337.5L462.9,337.5z"/><path class="st3" d="M451.1,344.2c-1.4-0.5-2.7-1.2-3.9-1.9c-0.6-0.4-1.4-0.5-1.8-1.1c-0.5-0.7-0.7-1.6-0.6-2.5
	c0-0.1,0.1-0.2,0.2-0.2c0.9-0.2,1.8-0.1,2.5,0.3c0.7,0.3,0.9,1.1,1.4,1.6c0.4,0.6,0.9,1.1,1.3,1.8s0.8,1.2,1.1,1.9
	c0,0.1,0,0.2-0.1,0.2C451.1,344.3,451.1,344.3,451.1,344.2L451.1,344.2z"/><path class="st3" d="M458.9,326.8c-0.8,0.2-1.7,0.3-2.5,0.3c-0.4,0-0.9,0.3-1.1-0.1c-0.5-0.6-0.6-1.3-0.4-2c0.4-0.5,0.9-0.8,1.6-1
	c0.4-0.1,0.6,0.4,1,0.7c0.6,0.6,1.2,1.2,1.7,1.8c0.1,0.1,0,0.2-0.1,0.3C459,326.8,459,326.8,458.9,326.8L458.9,326.8z"/><path class="st3" d="M445.8,329c-0.5,0.3-1,0.6-1.5,0.7c-0.2,0.1-0.6,0.4-0.7,0.1c-0.6-1.1-0.2-2.5,0.9-3.1c0.3-0.2,0.3,0.3,0.5,0.5
	c0.4,0.4,0.7,0.9,0.9,1.4C445.9,328.8,445.9,328.9,445.8,329L445.8,329z"/><path class="st3" d="M442.4,317.9c-1-0.2-1.9-0.4-2.8-0.8c-0.4-0.2-1.1-0.1-1.3-0.6c-0.2-0.2-0.5-1.7,0-2.2c0.6-0.3,1.3-0.4,2-0.3
	c0.5,0.1,0.6,0.7,0.9,1.1c0.6,0.8,1,1.7,1.4,2.6C442.6,317.7,442.5,317.9,442.4,317.9C442.4,317.9,442.4,317.9,442.4,317.9
	L442.4,317.9z"/><path class="st3" d="M430.6,328.9c-1.5,0.4-3,0.3-4.4-0.4c-0.7-0.3-1.6-0.6-1.9-1.4c-0.4-0.8-0.4-1.8,0.1-2.6
	c0.1-0.1,0.2-0.1,0.3-0.1c0.7,0.1,1.5,0.4,2.1,0.8c0.5,0.2,0.5,0.9,0.9,1.3c0.4,0.4,0.8,0.8,1.3,1.2c0.5,0.4,1.1,0.7,1.7,1
	C430.7,328.6,430.8,328.7,430.6,328.9C430.7,328.8,430.7,328.8,430.6,328.9L430.6,328.9z"/><path class="st3" d="M430.2,318.9c-0.8,0.1-1.7,0-2.5-0.1c-0.4-0.1-0.9,0.1-1.1-0.3c-0.4-0.6-0.4-1.4-0.1-2.1
	c0.5-0.4,1.1-0.7,1.7-0.7c0.4,0,0.6,0.5,0.8,0.8c0.5,0.6,1,1.3,1.4,2.1C430.4,318.7,430.3,318.8,430.2,318.9
	C430.2,318.9,430.2,318.9,430.2,318.9L430.2,318.9z"/><path class="st3" d="M414.7,312.4c-1-0.6-1.9-1.2-2.7-2c-0.4-0.4-1.1-0.5-1.1-1.1c-0.2-0.7-0.1-1.5,0.3-2.1c0-0.1,0.2-0.2,0.3-0.2
	c0.7-0.1,1.5,0.1,2.1,0.5c0.5,0.3,0.4,1,0.6,1.5c0.4,1.1,0.7,2.1,0.9,3.2c0,0.1,0,0.2-0.1,0.2C414.9,312.4,414.8,312.4,414.7,312.4
	L414.7,312.4z"/><path class="st3" d="M426.6,306.9c-0.9-0.1-1.8-0.3-2.7-0.6c-0.4-0.1-1-0.1-1.2-0.5c-0.2-0.2-0.5-1.7,0.1-2.2
	c0.6-0.3,1.2-0.5,1.9-0.4c0.5,0.1,0.5,0.7,0.8,1c0.5,0.8,0.9,1.6,1.3,2.4C426.8,306.7,426.7,306.9,426.6,306.9
	C426.6,306.9,426.6,306.9,426.6,306.9L426.6,306.9z"/><path class="st3" d="M411.2,296.7c-0.7-0.3-1.4-0.8-2-1.3c-0.3-0.2-0.8-0.3-0.8-0.8c0-0.6,0.3-1.2,0.7-1.6c0.7-0.3,1.4-0.3,2.1,0
	c0.4,0.2,0.2,0.7,0.2,1.1c0.1,0.8,0.1,1.6,0.1,2.4C411.5,296.7,411.4,296.8,411.2,296.7C411.3,296.8,411.2,296.8,411.2,296.7z"/><path class="st3" d="M399.9,290.3c-0.8-0.8-1.5-1.6-2.1-2.5c-0.3-0.4-0.9-0.8-0.8-1.3c0-0.7,0.3-1.4,0.8-1.9
	c0.1-0.1,0.2-0.1,0.3-0.1c0.7,0.1,1.4,0.4,1.9,0.9c0.4,0.4,0.2,1,0.2,1.6c0.1,1.1,0.1,2.2,0,3.3
	C400.2,290.3,400.1,290.4,399.9,290.3C400,290.3,399.9,290.3,399.9,290.3L399.9,290.3z"/><path class="st3" d="M409.9,283.3c-0.9-0.9-1.7-1.8-2.4-2.8c-0.4-0.3-0.5-0.7-0.4-1.1l0.3-1.4c0.2-0.6,0.8-0.9,1.4-0.8
	c0.2,0.1,0.4,0.2,0.6,0.4c0.3,0.6,0.5,1.2,0.4,1.8c0,0.1-0.1,0.2-0.2,0.3c-0.5,0.4-1.2,0.5-1.8,0.5l2.2-1.8c0.7,0.6,0.2,1.6,0.4,2.3
	c0,0.8,0,1.7-0.1,2.5c0,0.1-0.1,0.2-0.2,0.2C410,283.3,410,283.3,409.9,283.3L409.9,283.3z"/><path class="st3" d="M428.1,297.1c-1.3-0.1-2.5-0.6-3.5-1.4c-0.5-0.4-1.2-0.8-1.3-1.5c-0.1-0.8,0.2-1.7,0.8-2.2
	c0.1-0.1,0.2-0.1,0.3-0.1c0.7,0.2,1.3,0.5,1.8,0.9c0.4,0.3,0.2,0.8,0.4,1.3c0.2,0.5,0.4,0.9,0.6,1.3c0.3,0.5,0.6,0.9,0.9,1.4
	c0.1,0.1,0,0.2,0,0.3C428.2,297.1,428.1,297.1,428.1,297.1L428.1,297.1z"/><path class="st3" d="M448.6,308.4c-0.9,0.4-2,0.5-3,0.2c-0.5-0.2-1.2-0.2-1.4-0.7c-0.2-0.6-0.3-1.8,0.6-2.2c0.6-0.1,1.2-0.1,1.8-0.1
	c0.3,0,0.3,0.5,0.5,0.8c0.2,0.3,0.4,0.6,0.7,0.9c0.3,0.3,0.6,0.6,1,0.9C448.7,308.2,448.8,308.3,448.6,308.4
	C448.7,308.4,448.7,308.4,448.6,308.4L448.6,308.4z"/><path class="st3" d="M465.9,315c-0.9-0.1-1.9-0.3-2.8-0.6c-0.4-0.1-1,0-1.3-0.5c-0.2-0.2-0.6-1.7,0-2.2c0.6-0.4,1.2-0.5,1.9-0.4
	c0.5,0.1,0.6,0.7,0.9,1c0.6,0.8,1.1,1.6,1.5,2.4c0,0.1,0,0.2-0.1,0.2C466,315,466,315,465.9,315L465.9,315z"/><path class="st3" d="M528.6,179.4c1.6,0,3.1,0.4,4.5,1c0.7,0.3,1.6,0.5,2,1.3c0.5,0.8,0.6,1.7,0.4,2.6c0,0.1-0.1,0.2-0.3,0.2
	c-0.8,0-1.6-0.2-2.4-0.5c-0.6-0.3-0.8-1-1.2-1.5c-0.4-0.5-0.9-1-1.4-1.4c-0.5-0.5-1.1-0.9-1.6-1.4
	C528.5,179.6,528.4,179.5,528.6,179.4C528.5,179.4,528.6,179.4,528.6,179.4L528.6,179.4z"/><path class="st3" d="M525,188c0.7-0.1,1.4-0.2,2-0.2c0.3,0,0.8-0.2,0.9,0.1c0.2,0.6,0.2,1.3-0.1,2c-0.4,0.4-0.9,0.8-1.4,0.9
	c-0.4,0.1-0.4-0.4-0.6-0.7c-0.4-0.6-0.7-1.2-1-1.8C524.9,188.2,524.9,188.1,525,188C525,188.1,525,188,525,188L525,188z"/><path class="st3" d="M541.8,196.8c0.7,0.1,1.3,0.2,1.9,0.5c0.3,0.1,0.8,0,0.8,0.4c0,0.7-0.3,1.3-0.8,1.8c-0.5,0.3-1.1,0.4-1.6,0.3
	c-0.4,0-0.2-0.5-0.3-0.8c-0.2-0.6-0.2-1.3-0.2-2C541.5,196.9,541.6,196.8,541.8,196.8L541.8,196.8z"/><path class="st3" d="M552.7,195.6c0.9,0.2,1.9,0.6,2.8,1c0.4,0.2,1,0.2,1.2,0.7c0.1,0.2,0.4,1.8-0.2,2.2c-0.6,0.3-1.3,0.3-2,0.2
	c-0.5-0.1-0.5-0.8-0.8-1.1c-0.5-0.8-0.9-1.7-1.2-2.7C552.5,195.8,552.5,195.7,552.7,195.6C552.7,195.6,552.7,195.6,552.7,195.6
	L552.7,195.6z"/><path class="st3" d="M532.3,206.7c1.1,0.8,2.1,1.7,3,2.6c0.5,0.5,1.2,0.8,1.3,1.4c0.2,0.8,0.2,1.6-0.2,2.4c0,0.1-0.2,0.2-0.3,0.2
	c-0.8,0-1.6-0.3-2.2-0.8c-0.5-0.4-0.5-1.1-0.8-1.8c-0.5-1.3-0.8-2.5-1.1-3.8C532.1,206.8,532.1,206.7,532.3,206.7
	C532.3,206.7,532.3,206.7,532.3,206.7L532.3,206.7z"/><path class="st3" d="M552.5,218.4c0.7,0,1.4,0.2,2.1,0.4c0.3,0.1,0.8,0,0.9,0.4c0.1,0.7-0.1,1.4-0.5,1.9c-0.5,0.3-1.1,0.5-1.7,0.5
	c-0.4,0-0.3-0.5-0.5-0.9c-0.3-0.7-0.5-1.4-0.6-2.1C552.3,218.5,552.3,218.4,552.5,218.4C552.5,218.4,552.5,218.4,552.5,218.4
	L552.5,218.4z"/><path class="st3" d="M568.6,222.5c0.9,0.9,1.7,1.9,2.4,2.9c0.4,0.5,1,0.9,1,1.6c0.1,0.8-0.2,1.6-0.6,2.2c-0.1,0.1-0.2,0.1-0.3,0.1
	c-0.8-0.1-1.5-0.5-2-1.1c-0.5-0.5-0.3-1.2-0.4-1.8c-0.1-0.6-0.2-1.2-0.2-1.9c-0.1-0.6-0.1-1.3-0.1-1.9c0-0.1,0.1-0.2,0.2-0.2
	C568.6,222.4,568.6,222.4,568.6,222.5L568.6,222.5z"/><path class="st3" d="M549.5,236.7c0.7,0.4,1.4,0.9,2,1.5c0.3,0.3,0.9,0.4,0.8,0.9c0,0.6-0.3,1.2-0.8,1.7c-0.7,0.3-1.5,0.2-2.1-0.2
	c-0.4-0.2-0.2-0.8-0.2-1.1c-0.1-0.8-0.1-1.7-0.1-2.5C549.2,236.8,549.3,236.7,549.5,236.7C549.5,236.7,549.5,236.8,549.5,236.7
	L549.5,236.7z"/><path class="st3" d="M515.4,179.4c-0.7,0.2-1.4,0.4-2.1,0.4c-0.3,0-0.8,0.3-1,0c-0.4-0.6-0.4-1.3-0.2-2c0.3-0.5,0.8-0.9,1.3-1.1
	c0.4-0.1,0.5,0.4,0.7,0.6c0.5,0.5,0.9,1.1,1.3,1.7C515.5,179.2,515.5,179.3,515.4,179.4C515.4,179.4,515.4,179.4,515.4,179.4z"/><path class="st3" d="M511.4,190.3c-1.1,0.2-2.3,0.3-3.5,0.3c-0.6,0-1.2,0.3-1.7,0c-0.6-0.4-1.1-1.1-1.3-1.8c0-0.1,0-0.2,0.1-0.3
	c0.5-0.6,1.2-0.9,1.9-1c0.6-0.1,1,0.4,1.5,0.7c0.5,0.3,1,0.5,1.5,0.9c0.5,0.3,1,0.6,1.5,1c0.1,0.1,0.1,0.2,0,0.3
	C511.5,190.3,511.5,190.3,511.4,190.3L511.4,190.3z"/><path class="st3" d="M493.2,171.8c-1.3,0.5-2.7,0.8-4.1,1.1c-0.7,0.1-1.4,0.6-2.1,0.3c-0.8-0.2-1.6-0.7-2.1-1.4
	c-0.1-0.1-0.1-0.2,0-0.3c0.5-0.7,1.2-1.2,2-1.5c0.7-0.3,1.4,0.2,2.1,0.3c0.7,0.1,1.4,0.3,2.1,0.5c0.7,0.2,1.4,0.4,2.1,0.6
	c0.1,0,0.1,0.1,0.1,0.2C493.2,171.7,493.2,171.8,493.2,171.8L493.2,171.8z"/><path class="st3" d="M487.1,181c-0.8,0.5-1.6,1-2.5,1.3c-0.4,0.2-0.8,0.6-1.3,0.4c-0.3,0-1.5-0.9-1.4-1.7c0.2-0.6,0.6-1.2,1.2-1.5
	c0.4-0.3,0.9,0.1,1.3,0.2c0.9,0.2,1.8,0.5,2.7,0.9C487.1,180.7,487.2,180.8,487.1,181C487.1,180.9,487.1,181,487.1,181L487.1,181z"/><path class="st3" d="M468.8,177.9c-0.7,0.6-1.4,1-2.1,1.4c-0.4,0.2-0.7,0.7-1.1,0.5c-0.6-0.3-1.1-0.7-1.3-1.3
	c-0.2-0.8,0.7-1.8,0.9-1.9c0.2-0.1,0.8,0.1,1.2,0.2c0.8,0.2,1.7,0.5,2.4,0.8C468.8,177.6,468.8,177.7,468.8,177.9
	C468.8,177.8,468.7,177.8,468.8,177.9L468.8,177.9z"/><path class="st3" d="M473.3,194.7c-0.5,0.9-1,1.8-1.6,2.6c-0.3,0.4-0.4,1-1,1.1c-0.2,0.1-1.9,0.1-2.2-0.6c-0.1-0.7,0-1.4,0.3-2
	c0.2-0.5,0.9-0.4,1.3-0.6c1-0.3,2-0.6,3-0.7C473.2,194.5,473.3,194.5,473.3,194.7C473.3,194.7,473.3,194.7,473.3,194.7L473.3,194.7z
	"/><path class="st3" d="M458.4,191c-0.7,0.9-1.5,1.8-2.4,2.6c-0.4,0.4-0.7,1-1.3,1.1c-0.8,0.1-1.5,0-2.2-0.4c-0.1-0.1-0.2-0.2-0.2-0.3
	c0-0.8,0.3-1.5,0.8-2.1c0.4-0.5,1.1-0.4,1.6-0.5c1.1-0.3,2.3-0.5,3.5-0.6c0.1,0,0.2,0.1,0.2,0.2C458.4,191,458.4,191,458.4,191
	L458.4,191z"/><path class="st3" d="M444.8,186.4c-0.4,0.9-0.9,1.7-1.5,2.4c-0.3,0.4-0.4,1-0.9,1c-0.2,0.1-1.8,0-2.1-0.7c-0.2-0.7-0.1-1.3,0.2-1.9
	c0.2-0.4,0.8-0.4,1.3-0.5c0.9-0.3,1.8-0.5,2.8-0.6C444.7,186.1,444.8,186.2,444.8,186.4C444.8,186.3,444.8,186.3,444.8,186.4z"/><path class="st3" d="M429.2,200c-0.7,0.8-1.2,1.7-1.6,2.7c-0.2,0.4,0,1-0.4,1.3c-0.5,0.4-1.2,0.7-1.8,0.9c-0.1,0-0.2,0-0.3-0.1
	c-0.6-0.6-0.9-1.4-0.8-2.2c0.1-0.7,0.8-1.1,1.3-1.5c1-0.9,2.2-1.3,3.5-1.4c0.1,0,0.2,0.1,0.2,0.2C429.2,199.9,429.2,199.9,429.2,200
	L429.2,200z"/><path class="st3" d="M445.9,207.9c-0.5,0.8-1.1,1.5-1.8,2.1c-0.3,0.3-0.5,0.9-1,0.8c-0.3,0-1.7-0.3-1.9-1.1
	c-0.1-0.7,0.1-1.3,0.5-1.9c0.3-0.4,0.8-0.2,1.3-0.2c0.9-0.1,1.8-0.1,2.8-0.1C445.9,207.7,446,207.8,445.9,207.9
	C445.9,207.9,445.9,207.9,445.9,207.9L445.9,207.9z"/><path class="st3" d="M457.4,217.2c-0.4,0.9-0.8,1.9-1.3,2.7c-0.3,0.4-0.3,1-0.8,1.1c-0.7,0.2-1.4,0.1-2-0.1c-0.1,0-0.2-0.1-0.2-0.2
	c-0.2-0.7-0.2-1.4,0.1-2c0.2-0.5,0.8-0.5,1.3-0.7c0.9-0.4,1.9-0.8,2.8-1c0.1,0,0.2,0,0.2,0.1C457.4,217.1,457.4,217.1,457.4,217.2
	L457.4,217.2z"/><path class="st3" d="M428.6,224.5c-0.1,0.8-0.4,1.6-0.7,2.4c-0.1,0.4-0.1,0.9-0.5,1.1c-0.7,0.2-1.5,0.1-2.1-0.4
	c-0.3-0.6-0.4-1.2-0.3-1.8c0.1-0.4,0.6-0.4,1-0.6c0.7-0.4,1.5-0.7,2.4-0.9C428.5,224.2,428.6,224.3,428.6,224.5
	C428.6,224.4,428.6,224.4,428.6,224.5L428.6,224.5z"/><path class="st3" d="M417.4,220.3c-0.2,1-0.5,2-0.9,2.9c-0.2,0.4-0.2,1.1-0.7,1.3c-0.6,0.3-1.3,0.3-2,0.1c-0.1,0-0.2-0.1-0.2-0.2
	c-0.3-0.6-0.4-1.3-0.2-2c0.1-0.5,0.7-0.6,1.1-0.9c0.8-0.6,1.7-1,2.7-1.4c0.1,0,0.2,0,0.2,0.1C417.4,220.2,417.4,220.3,417.4,220.3
	L417.4,220.3z"/><path class="st3" d="M407.3,238.1c0.1,0.8,0.2,1.6,0.1,2.5c0,0.4,0.2,0.9-0.2,1.1c-0.6,0.4-1.4,0.5-2.1,0.2c-0.5-0.4-0.8-1-0.9-1.6
	c-0.1-0.4,0.5-0.6,0.8-0.9c0.6-0.6,1.2-1.1,1.9-1.5C407.1,237.9,407.2,238,407.3,238.1C407.3,238.1,407.3,238.1,407.3,238.1
	L407.3,238.1z"/><path class="st3" d="M417.4,246.4c0,0.8-0.1,1.6-0.3,2.3c-0.1,0.4,0,0.9-0.3,1c-0.7,0.3-1.4,0.2-2-0.2c-0.4-0.5-0.6-1.1-0.6-1.7
	c0-0.4,0.6-0.5,0.9-0.7c0.7-0.4,1.4-0.8,2.1-1C417.2,246.1,417.3,246.2,417.4,246.4C417.4,246.3,417.4,246.3,417.4,246.4z"/><path class="st3" d="M440.8,235.4c-0.7,0.9-1.2,1.9-1.5,3c-0.1,0.5,0.1,1.1-0.3,1.4c-0.5,0.5-1.1,0.9-1.7,1.3
	c-0.1,0.1-0.2,0.1-0.3,0c-0.7-0.5-1.1-1.4-1-2.2c0-0.8,0.7-1.3,1.2-1.8c0.9-1,2.2-1.7,3.5-1.9c0.1,0,0.2,0.1,0.2,0.2
	C440.8,235.4,440.8,235.4,440.8,235.4L440.8,235.4z"/><path class="st3" d="M497.1,199.8c0.8-0.5,1.7-0.8,2.6-1.1c0.4-0.1,0.9-0.6,1.3-0.3s1.4,1,1.3,1.8c-0.2,0.6-0.7,1.1-1.3,1.4
	c-0.4,0.2-0.9-0.2-1.3-0.3c-0.9-0.3-1.8-0.7-2.6-1.1C497,200.1,497,200,497.1,199.8C497.1,199.8,497.1,199.8,497.1,199.8
	L497.1,199.8z"/><path class="st3" d="M533.2,226c0.9,0.7,1.6,1.6,2.4,2.4c0.3,0.4,1,0.7,1,1.3c0,0.7-0.2,1.5-0.6,2.1c-0.1,0.1-0.2,0.1-0.3,0.1
	c-0.7,0-1.4-0.3-2-0.8c-0.4-0.4-0.3-1.1-0.4-1.6c-0.2-1.1-0.3-2.2-0.3-3.4c0-0.1,0.1-0.2,0.2-0.2C533.1,226,533.2,226,533.2,226
	L533.2,226z"/><path class="st3" d="M541.9,247.5c0.5,0.6,0.9,1.3,1.3,2.1c0.2,0.3,0.6,0.7,0.4,1c-0.3,0.6-1,1.1-1.7,1.2c-0.6-0.1-1.1-0.5-1.5-1
	c-0.3-0.3,0.1-0.7,0.2-1.1c0.2-0.8,0.6-1.5,1-2.2C541.6,247.4,541.8,247.4,541.9,247.5C541.9,247.5,541.9,247.5,541.9,247.5
	L541.9,247.5z"/><path class="st3" d="M428.1,257.6c0.2,1,0.3,1.9,0.3,2.9c0,0.5,0.3,1-0.1,1.4c-0.1,0.2-1.4,1.1-2.1,0.8c-0.5-0.4-0.9-1.1-1-1.7
	c-0.1-0.5,0.4-0.8,0.7-1.2c0.5-0.8,1.2-1.6,1.8-2.2C427.8,257.5,427.9,257.5,428.1,257.6C428,257.6,428,257.6,428.1,257.6
	L428.1,257.6z"/><path class="st3" d="M403.4,257.6c0,1.5,0.2,2.9,0.6,4.3c0.2,0.7,0.8,1.2,0.7,1.9c0,0.9-0.2,1.7-0.5,2.5c0,0.1-0.2,0.2-0.3,0.2
	c-1-0.2-1.8-0.8-2.3-1.7c-0.3-0.8-0.4-1.7-0.2-2.6c0.1-1.7,0.6-3.3,1.6-4.7c0.1-0.1,0.2-0.1,0.2,0
	C403.3,257.5,403.4,257.6,403.4,257.6L403.4,257.6z"/><path class="st3" d="M564.6,241.3c0.7,0.6,1.4,1.3,2,2.1c0.3,0.4,0.9,0.6,0.8,1.1c0,0.3-0.4,1.7-1.1,1.9c-0.7,0-1.3-0.3-1.8-0.7
	c-0.4-0.3-0.1-0.9-0.2-1.4c-0.1-1,0-1.9,0.1-2.9C564.3,241.3,564.4,241.3,564.6,241.3C564.5,241.3,564.6,241.3,564.6,241.3
	L564.6,241.3z"/><path class="st3" d="M579.4,241.8c0.7,0.8,1.3,1.7,1.8,2.7c0.2,0.5,0.8,0.9,0.7,1.4c-0.1,0.7-0.5,1.4-1.1,1.8
	c-0.1,0.1-0.2,0.1-0.3,0.1c-0.7-0.1-1.3-0.5-1.8-1.1c-0.3-0.4-0.1-1,0-1.5c0-1.1,0.2-2.1,0.4-3.2
	C579.1,241.8,579.2,241.7,579.4,241.8C579.4,241.7,579.4,241.7,579.4,241.8L579.4,241.8z"/><path class="st3" d="M554.8,257.6c0.7,0.9,1.3,1.9,1.8,2.9c0.3,0.5,0.8,0.9,0.7,1.5c-0.1,0.7-0.5,1.4-1,1.9
	c-0.1,0.1-0.2,0.1-0.3,0.1c-0.7-0.2-1.4-0.6-1.8-1.2c-0.4-0.5-0.1-1.1-0.1-1.6c0-1.1,0.2-2.3,0.4-3.4
	C554.6,257.6,554.7,257.6,554.8,257.6C554.8,257.6,554.8,257.6,554.8,257.6L554.8,257.6z"/><path class="st3" d="M438.4,290.8c0.9,0.4,1.8,0.8,2.6,1.3c0.4,0.3,1,0.3,1.1,0.8c0.1,0.2,0.2,1.8-0.5,2.2c-0.7,0.2-1.4,0.2-2-0.1
	c-0.5-0.2-0.4-0.8-0.6-1.2c-0.4-0.9-0.7-1.8-0.9-2.8C438.1,290.9,438.2,290.8,438.4,290.8C438.3,290.8,438.3,290.8,438.4,290.8
	L438.4,290.8z"/><path class="st3" d="M432.8,277.4c0.3,1.1,0.7,2.1,1.4,3c0.3,0.4,0.9,0.6,0.9,1.1c0.1,0.7,0,1.4-0.1,2.1c0,0.1-0.1,0.2-0.2,0.2
	c-0.8,0.2-1.7,0-2.4-0.6c-0.6-0.5-0.5-1.3-0.6-2c-0.2-1.3,0.1-2.7,0.7-3.9c0-0.1,0.1-0.1,0.2-0.1
	C432.7,277.3,432.8,277.3,432.8,277.4L432.8,277.4z"/><path class="st3" d="M443.9,258.7c-0.3,1.1-0.3,2.2,0.1,3.2c0.1,0.5,0.6,0.8,0.5,1.3c-0.1,0.7-0.3,1.3-0.5,2c0,0.1-0.1,0.2-0.3,0.2
	c-0.9,0.1-1.8-0.4-2.2-1.2c-0.5-0.7-0.2-1.6,0-2.2c0.2-1.4,1-2.7,2.2-3.5c0.1,0,0.2,0,0.2,0.1C443.9,258.6,443.9,258.6,443.9,258.7
	L443.9,258.7z"/><path class="st3" d="M511.1,213.4c1.6-0.4,3.3-0.3,4.8,0.5c0.8,0.4,1.7,0.7,2.1,1.5c0.5,0.9,0.5,1.9,0,2.8c-0.1,0.1-0.2,0.2-0.3,0.1
	c-0.8-0.2-1.5-0.5-2.2-0.9c-0.5-0.3-0.6-1-1.1-1.4c-0.4-0.5-0.9-0.9-1.4-1.3c-0.6-0.4-1.2-0.8-1.9-1c-0.1,0-0.1-0.1-0.1-0.2
	C511,213.5,511,213.4,511.1,213.4L511.1,213.4z"/><path class="st3" d="M483,207.8c-0.5,0.9-1.1,1.7-1.8,2.4c-0.3,0.4-0.5,1-1,1c-0.2,0.1-1.9-0.1-2.1-0.8c-0.1-0.7,0.1-1.4,0.4-2
	c0.3-0.4,0.9-0.3,1.4-0.5c1-0.3,2-0.4,3-0.5c0.1,0,0.2,0.1,0.2,0.2C483,207.8,483,207.8,483,207.8L483,207.8z"/><path class="st3" d="M496.1,216c-0.7,0.6-1.4,1.1-2.2,1.6c-0.4,0.2-0.7,0.7-1.1,0.5c-0.6-0.2-1.1-0.6-1.5-1.2
	c-0.3-0.7,0.6-1.8,0.8-2c0.4-0.3,0.8,0,1.3,0.1c0.9,0.1,1.8,0.3,2.6,0.6C496.2,215.7,496.2,215.8,496.1,216
	C496.2,215.9,496.2,215.9,496.1,216L496.1,216z"/><path class="st3" d="M466.5,227.7c-0.2,0.8-0.5,1.6-0.8,2.4c-0.2,0.4-0.1,0.9-0.6,1c-0.7,0.2-1.5,0-2.1-0.4
	c-0.3-0.6-0.4-1.2-0.2-1.8c0.1-0.4,0.7-0.4,1-0.6c0.8-0.4,1.6-0.6,2.4-0.8C466.4,227.5,466.5,227.6,466.5,227.7
	C466.6,227.7,466.6,227.7,466.5,227.7z"/><path class="st3" d="M518.2,234.3c1,0.4,2,0.9,3,1.5c0.5,0.3,1.1,0.4,1.3,0.9c0.3,0.7,0.3,1.5,0,2.2c0,0.1-0.1,0.2-0.2,0.2
	c-0.7,0.2-1.5,0.2-2.1-0.1c-0.5-0.2-0.6-0.9-0.9-1.4c-0.5-1-1-2-1.4-3.1c0-0.1,0-0.2,0.1-0.2C518,234.3,518.1,234.3,518.2,234.3
	L518.2,234.3z"/><path class="st3" d="M495.6,229.1c0.9-0.2,1.9-0.3,2.8-0.4c0.5,0,1-0.3,1.4,0c0.2,0.1,1.1,1.4,0.8,2.1c-0.4,0.5-1,0.9-1.7,1
	c-0.5,0.1-0.8-0.4-1.2-0.7c-0.8-0.5-1.6-1.1-2.2-1.8C495.4,229.3,495.4,229.2,495.6,229.1C495.5,229.1,495.6,229,495.6,229.1
	L495.6,229.1z"/><path class="st3" d="M478.8,235.8c-0.8,0.2-1.4,0.9-1.6,1.7c-0.1,0.3,0.2,0.7-0.1,0.9c-0.5,0.3-1,0.6-1.3,1.1
	c-0.1,0.1-0.2,0.1-0.3,0.1c-0.9-0.2-1.6-1-1.5-1.9c0-0.9,0.7-1.4,1.3-1.8c1-0.9,2.5-1.1,3.7-0.3c0.1,0.1,0.1,0.2,0,0.3
	C478.9,235.8,478.9,235.8,478.8,235.8L478.8,235.8z"/><path class="st3" d="M505.5,245.9c0.8-0.1,1.5-0.1,2.3,0c0.3,0,0.9-0.2,1,0.2c0.3,0.6,0.3,1.4,0,2c-0.4,0.4-1,0.7-1.6,0.8
	c-0.4,0-0.5-0.5-0.7-0.8c-0.5-0.6-0.9-1.3-1.2-1.9C505.3,246.1,505.3,246,505.5,245.9C505.4,245.9,505.4,245.9,505.5,245.9
	L505.5,245.9z"/><path class="st3" d="M489.3,250c-0.8,0.8-1.7,1.5-2.6,2.1c-0.5,0.3-0.8,0.9-1.4,0.8c-0.7,0-1.4-0.3-2-0.9c-0.1-0.1-0.1-0.2-0.1-0.3
	c0.1-0.7,0.5-1.4,1-1.9c0.4-0.4,1.1-0.2,1.6-0.2c1.1-0.1,2.2-0.1,3.4,0c0.1,0,0.2,0.1,0.1,0.2C489.4,250,489.3,250,489.3,250
	L489.3,250z"/><path class="st3" d="M519.3,313c-0.2,0.8-0.5,1.6-0.8,2.4c-0.2,0.4-0.1,0.9-0.6,1c-0.7,0.2-1.5,0-2-0.5c-0.3-0.6-0.4-1.2-0.2-1.8
	c0.1-0.4,0.7-0.4,1-0.6c0.8-0.3,1.6-0.6,2.4-0.8C519.2,312.7,519.3,312.8,519.3,313C519.3,312.9,519.3,313,519.3,313L519.3,313z"/><path class="st3" d="M453,242.5c-0.2,0.9-0.5,1.9-0.9,2.8c-0.2,0.4-0.1,1.1-0.6,1.3c-0.2,0.2-1.8,0.5-2.2-0.1
	c-0.3-0.6-0.4-1.3-0.2-2c0.1-0.5,0.7-0.6,1.1-0.8c0.8-0.5,1.7-1,2.6-1.4c0.1,0,0.2,0,0.2,0.1C453,242.4,453,242.5,453,242.5
	L453,242.5z"/><path class="st3" d="M457.5,297.3c-1,0.2-2.1-0.1-2.9-0.7c-0.4-0.3-1.1-0.5-1.1-1.1c0-0.6,0.3-1.7,1.3-1.8c0.6,0.1,1.1,0.3,1.7,0.5
	c0.3,0.1,0.1,0.5,0.1,0.9c0.1,0.3,0.2,0.7,0.3,1c0.2,0.4,0.4,0.7,0.6,1.1C457.6,297.1,457.6,297.2,457.5,297.3
	C457.5,297.3,457.5,297.3,457.5,297.3L457.5,297.3z"/><path class="st3" d="M483.7,319.5c-1-0.1-1.9-0.4-2.9-0.7c-0.4-0.2-1.1-0.1-1.3-0.5c-0.3-0.6-0.4-1.3-0.2-2c0.3-0.7,1.9-0.7,2.2-0.6
	c0.5,0.1,0.6,0.7,0.9,1.1c0.6,0.8,1.1,1.6,1.5,2.5c0,0.1,0,0.2-0.1,0.2C483.8,319.5,483.7,319.5,483.7,319.5L483.7,319.5z"/><path class="st4" d="M289.7,161.2L255,778.9c0,0,44,31.2,98.9-3.1l-36.3-615.7L289.7,161.2z"/><path class="st4" d="M335.4,438.9c47.1,2.3,98.3-13.1,126.6-52.7c28.7-39.4,33.8-92,34.8-139.9c0.1-3.9,3.4-7.1,7.3-7
	c3.5,0.1,6.4,2.7,6.9,6.2c2.6,19.6,3.2,39.3,1.8,59c-4.4,63.7-35.4,122.6-99.2,142.7c-25.1,8-51.7,9.7-77.6,5.1l-2.6-0.6
	C325.2,449.8,327.2,438.2,335.4,438.9L335.4,438.9z"/><path class="st4" d="M485.3,344.5c-1.8-20.5-6-40.7-12.6-60.3c-4-11.7-8.8-23.1-14.2-34.2c-0.7-1.3-0.1-2.9,1.2-3.6
	c1.2-0.6,2.6-0.2,3.4,0.9c14.7,21,23.5,46.2,26.4,71.5c1,8.5,1.2,17.1,0.7,25.6c-0.1,1.4-1.3,2.4-2.7,2.3
	C486.4,346.6,485.5,345.7,485.3,344.5z"/><path class="st4" d="M499,315.6c14.1-14.1,25.7-30.7,34.1-48.8c6.4-14.1,11-29.1,13.6-44.4c0.2-1.5,1.6-2.5,3.1-2.2
	c1.3,0.2,2.3,1.4,2.3,2.7c-0.3,18.6-5.8,37.2-14.2,53.8c-8.6,16.5-20.7,31.5-35.6,42.6c-1.1,0.8-2.7,0.5-3.4-0.6
	C498.2,317.7,498.3,316.4,499,315.6L499,315.6z"/></svg>