<?xml version="1.0" encoding="utf-8"?>
<!-- Generator: Adobe Illustrator 26.0.3, SVG Export Plug-In . SVG Version: 6.00 Build 0)  -->
<svg version="1.1" id="Layer_1" xmlns="http://www.w3.org/2000/svg" xmlns:xlink="http://www.w3.org/1999/xlink" x="0px" y="0px"
	 viewBox="0 0 400 400" style="enable-background:new 0 0 400 400;" xml:space="preserve">
<style type="text/css">
	.st0{fill:#ED5B94;}
</style>
<g>
	<g>
		<path class="st0" d="M220.44,10.51c22.63,0,38.16,4.62,44.9,13.36c4.03,5.22,4.95,12.12,2.75,20.52
			c-17.96,68.45,51.86,124.59,93.57,158.13c8.64,6.95,16.1,12.95,21.04,17.69c11.49,11.04,14.28,24.64,8.29,40.41
			c-10.1,26.57-44.98,58-93.32,84.08c-23.34,12.59-48.79,23.32-73.59,31.02c-26.51,8.23-51.35,12.85-73.82,13.73
			c-0.66,0.03-1.29,0.04-1.93,0.04c-17.22,0-28.67-9.44-36.01-29.71c-6.84-18.87-9.31-44.47-11.93-71.57
			c-2.6-26.89-5.28-54.7-12.51-78.33c-8.35-27.32-21.69-44.77-40.78-53.34c-30.74-13.8-44.37-29.91-40.52-47.89
			C8.98,97.42,18,85.6,33.36,73.51c14.11-11.1,33.4-22.1,55.78-31.81C132.84,22.75,184.37,10.51,220.44,10.51 M220.44,7.51
			c-101.69,0-306.47,92.56-174.56,151.78c82.26,36.93,21.31,233.21,102.45,233.21c0.67,0,1.35-0.01,2.04-0.04
			c119.98-4.7,294.67-116.48,234.4-174.4c-28.56-27.45-134.99-92.09-113.79-172.9C278.01,18.37,255.27,7.51,220.44,7.51L220.44,7.51
			z"/>
	</g>
</g>
</svg>
