<svg xmlns="http://www.w3.org/2000/svg" xmlns:xlink="http://www.w3.org/1999/xlink" viewBox="0 0 282 93.39"><defs><style>.cls-1{fill:none;}.cls-2{clip-path:url(#clip-path);}.cls-3{fill:#f47ea3;}.cls-4{fill:#ef639f;}.cls-5{fill:#e86997;}.cls-6{fill:#932a55;}.cls-7{clip-path:url(#clip-path-2);}.cls-8{fill:#f48e9a;}.cls-9{fill:#ea8191;}.cls-10{clip-path:url(#clip-path-3);}.cls-11{clip-path:url(#clip-path-4);}.cls-12{clip-path:url(#clip-path-5);}.cls-13{fill:#e28391;}.cls-14{fill:#d87d8f;}.cls-15{clip-path:url(#clip-path-6);}.cls-16{clip-path:url(#clip-path-7);}.cls-17{clip-path:url(#clip-path-8);}</style><clipPath id="clip-path" transform="translate(1.28)"><path class="cls-1" d="M0,34.44a10.68,10.68,0,0,0,.57,3.7c1,3.64,2.12,7.36,4.49,10.3a27,27,0,0,0,6.38,5.31c3.42,2.28,7.15,4.54,11.26,4.5A15.57,15.57,0,0,0,28,57.1,27.07,27.07,0,0,0,42.8,43.19a12.82,12.82,0,0,0,1.38-5.9c-.16-3-1.84-5.59-3.47-8.06s-3.06-4.66-4.64-7S32.73,17.52,30.29,16c-3.87-2.37-8.94-2-13.09-.18A27.18,27.18,0,0,0,6.12,24.65C4.14,27.57.3,30.74,0,34.44Z"/></clipPath><clipPath id="clip-path-2" transform="translate(1.28)"><path class="cls-1" d="M74,33.61a6.44,6.44,0,0,0,1.5,2c1.67,1.69,3.42,3.36,5.46,3.64a9.57,9.57,0,0,0,4.59-1A11.92,11.92,0,0,0,92,33.43,21.36,21.36,0,0,0,93.9,29,44.92,44.92,0,0,0,95.66,9.54a13.92,13.92,0,0,0-1.4-4.84A6.62,6.62,0,0,0,90,1.82C88.55,1.36,87.09.89,85.62.48A6.53,6.53,0,0,0,81,.41c-2.5,1.14-4.6,4.9-5.79,9a45.61,45.61,0,0,0-1.87,13.52C73.43,26.22,72.82,31,74,33.61Z"/></clipPath><clipPath id="clip-path-3" transform="translate(1.28)"><path class="cls-1" d="M259.06,78.67a6,6,0,0,0,1.6,1.08,12.55,12.55,0,0,0,10,1.76c2.13-.34,4.38-.79,5.9-2.15a7,7,0,0,0,1.55-2.13,11.44,11.44,0,0,0,.26-9.56,6.25,6.25,0,0,0-1.72-2.46,9.89,9.89,0,0,0-4.34-1.61c-1.45-.3-2.9-.59-4.36-.86a12.28,12.28,0,0,0-4.51-.23,7,7,0,0,0-4.95,4.21,11.35,11.35,0,0,0-.81,6.62C258,75,257.77,77.32,259.06,78.67Z"/></clipPath><clipPath id="clip-path-4" transform="translate(1.28)"><path class="cls-1" d="M207.28,81.3a3.15,3.15,0,0,0,.17,1.09,8.27,8.27,0,0,0,1.33,3A8,8,0,0,0,210.67,87,6.17,6.17,0,0,0,214,88.34a4.81,4.81,0,0,0,1.58-.34,8,8,0,0,0,4.36-4.12,3.77,3.77,0,0,0,.41-1.74,5,5,0,0,0-1-2.38c-.45-.69-.9-1.38-1.37-2.06a6.06,6.06,0,0,0-1.71-1.85,4.26,4.26,0,0,0-3.87,0,8,8,0,0,0-3.27,2.6C208.5,79.27,207.37,80.2,207.28,81.3Z"/></clipPath><clipPath id="clip-path-5" transform="translate(1.28)"><path class="cls-1" d="M65.39,71.56a3.45,3.45,0,0,0,.16,1.1,8.3,8.3,0,0,0,1.33,3,8.15,8.15,0,0,0,1.89,1.57A6.17,6.17,0,0,0,72.1,78.6a4.47,4.47,0,0,0,1.57-.34A8,8,0,0,0,78,74.15a3.92,3.92,0,0,0,.4-1.74,4.94,4.94,0,0,0-1-2.39c-.46-.69-.91-1.38-1.37-2.06a6.14,6.14,0,0,0-1.71-1.84,4.26,4.26,0,0,0-3.87-.06,8,8,0,0,0-3.28,2.61C66.61,69.53,65.47,70.47,65.39,71.56Z"/></clipPath><clipPath id="clip-path-6" transform="translate(1.28)"><path class="cls-1" d="M166.19,88a2.24,2.24,0,0,0,.11.67,3.88,3.88,0,0,0,2,2.85,3.87,3.87,0,0,0,2.05.82,3,3,0,0,0,1-.21A5,5,0,0,0,174,89.59a2.24,2.24,0,0,0,.25-1.07,3.06,3.06,0,0,0-.63-1.47l-.84-1.27a3.73,3.73,0,0,0-1.06-1.14,2.59,2.59,0,0,0-2.38,0,4.89,4.89,0,0,0-2,1.6C167,86.74,166.25,87.32,166.19,88Z"/></clipPath><clipPath id="clip-path-7" transform="translate(1.28)"><path class="cls-1" d="M174.25,63.94a1.91,1.91,0,0,0,.1.67,3.88,3.88,0,0,0,2,2.85,3.85,3.85,0,0,0,2.06.82,3,3,0,0,0,1-.21,4.92,4.92,0,0,0,2.69-2.54,2.37,2.37,0,0,0,.25-1.07,3.16,3.16,0,0,0-.63-1.47c-.28-.43-.56-.85-.85-1.27a3.7,3.7,0,0,0-1-1.14,2.62,2.62,0,0,0-2.39,0,5,5,0,0,0-2,1.6C175,62.69,174.3,63.26,174.25,63.94Z"/></clipPath><clipPath id="clip-path-8" transform="translate(1.28)"><path class="cls-1" d="M109.84,77a10.07,10.07,0,0,0,2.55,2.45c2.84,2.13,5.81,4.25,9.24,5a24,24,0,0,0,7.75,0c3.81-.43,7.86-1.06,10.84-3.68a15.79,15.79,0,0,0,3.23-4.22,28.3,28.3,0,0,0,2.79-19.85,12.67,12.67,0,0,0-2.41-5.35c-1.82-2.15-4.57-3.09-7.19-3.94-2.47-.8-4.94-1.61-7.43-2.36s-5.19-1.5-7.83-1.1c-4.21.64-7.72,4.1-9.7,8.1a28.54,28.54,0,0,0-3,13.67C108.89,69.16,107.91,74,109.84,77Z"/></clipPath></defs><g id="Layer_2" data-name="Layer 2"><g id="comets"><g class="cls-2"><path class="cls-3" d="M0,34.44a10.68,10.68,0,0,0,.57,3.7c1,3.64,2.12,7.36,4.49,10.3a27,27,0,0,0,6.38,5.31c3.42,2.28,7.15,4.54,11.26,4.5A15.57,15.57,0,0,0,28,57.1,27.07,27.07,0,0,0,42.8,43.19a12.82,12.82,0,0,0,1.38-5.9c-.16-3-1.84-5.59-3.47-8.06s-3.06-4.66-4.64-7S32.73,17.52,30.29,16c-3.87-2.37-8.94-2-13.09-.18A27.18,27.18,0,0,0,6.12,24.65C4.14,27.57.3,30.74,0,34.44Z" transform="translate(1.28)"/><path class="cls-4" d="M4.32,46.51a26.12,26.12,0,0,0,3.43.06c2.9.19,5.28,2.35,8.06,3.21A9.45,9.45,0,0,0,26,46.26a12.25,12.25,0,0,1,2.26-3c1.17-.9,2.75-1,4.2-1.3A14.24,14.24,0,0,0,43.39,30.57a21.74,21.74,0,0,1,3.32,5.58,10.6,10.6,0,0,1,.85,6.33A11.62,11.62,0,0,1,45,47.08c-6.4,7.78-16,12.16-25.37,15.78-2.09.8-4.4,1.59-6.53.88a8.71,8.71,0,0,1-3.06-2A41.87,41.87,0,0,1,1.78,51.45C.6,49.39-2.54,44.62-.73,42.22,1.12,43.53,1.72,46,4.32,46.51Z" transform="translate(1.28)"/><path class="cls-5" d="M32.05,28.6c.14-.11,0-.33-.18-.22s0,.34.18.22Z" transform="translate(1.28)"/><path class="cls-5" d="M22.44,36.9c.14-.12,0-.34-.18-.22s0,.33.18.22Z" transform="translate(1.28)"/><path class="cls-5" d="M21.43,29c.14-.12,0-.34-.18-.22s0,.33.18.22Z" transform="translate(1.28)"/><path class="cls-5" d="M20.43,37.25c.14-.11,0-.33-.18-.22a.14.14,0,0,0,.18.22Z" transform="translate(1.28)"/><path class="cls-5" d="M9,39.58c.14-.11,0-.33-.18-.22s0,.34.18.22Z" transform="translate(1.28)"/><path class="cls-5" d="M13.39,31.72c.14-.11,0-.33-.18-.22a.14.14,0,0,0,.18.22Z" transform="translate(1.28)"/><path class="cls-5" d="M13.74,37.82c.14-.11,0-.33-.18-.22s0,.33.18.22Z" transform="translate(1.28)"/><path class="cls-6" d="M24.21,33.42A.14.14,0,0,0,24,33.2c-.14.11,0,.33.18.22Z" transform="translate(1.28)"/><path class="cls-6" d="M20.57,41.22A.14.14,0,1,0,20.4,41c-.15.11,0,.33.17.22Z" transform="translate(1.28)"/><path class="cls-6" d="M18.58,34.66c.14-.11,0-.33-.18-.22s0,.34.18.22Z" transform="translate(1.28)"/><path class="cls-6" d="M11.93,40.31c.14-.12,0-.34-.18-.22s0,.33.18.22Z" transform="translate(1.28)"/><path class="cls-6" d="M11.59,31.39a.14.14,0,0,0-.17-.22.14.14,0,1,0,.17.22Z" transform="translate(1.28)"/><path class="cls-6" d="M4.85,37.87c.14-.11,0-.33-.18-.22s0,.34.18.22Z" transform="translate(1.28)"/><path class="cls-6" d="M6.14,31c.14-.11,0-.33-.18-.22s0,.33.18.22Z" transform="translate(1.28)"/><path class="cls-6" d="M14,21.5a.14.14,0,0,0-.18-.22c-.14.11,0,.33.18.22Z" transform="translate(1.28)"/><path class="cls-6" d="M25.67,18.2c.14-.11,0-.33-.18-.22s0,.34.18.22Z" transform="translate(1.28)"/><path class="cls-6" d="M15.53,28.78l-.12-.15a.12.12,0,0,0-.1-.05h-.05l0,0a.12.12,0,0,0-.05.09.14.14,0,0,0,0,.11l.12.15a.14.14,0,0,0,.1.05h.05l0,0a.12.12,0,0,0,.05-.09.11.11,0,0,0,0-.11Z" transform="translate(1.28)"/><path class="cls-6" d="M10.93,24.27c.14-.11,0-.33-.18-.22s0,.34.18.22Z" transform="translate(1.28)"/><path class="cls-6" d="M23.29,24.72c.14-.11,0-.33-.18-.22s0,.34.18.22Z" transform="translate(1.28)"/><path class="cls-6" d="M26.09,26.28c.14-.11,0-.33-.18-.22s0,.34.18.22Z" transform="translate(1.28)"/><path class="cls-6" d="M25.63,32c.14-.12,0-.34-.18-.22s0,.33.18.22Z" transform="translate(1.28)"/><path class="cls-6" d="M31.89,27.46c.14-.12,0-.34-.18-.22s0,.33.18.22Z" transform="translate(1.28)"/><path class="cls-6" d="M33.78,32.31c.14-.12,0-.34-.18-.22s0,.33.18.22Z" transform="translate(1.28)"/><path class="cls-6" d="M32.28,35.82c.14-.12,0-.34-.18-.22s0,.33.18.22Z" transform="translate(1.28)"/><path class="cls-6" d="M38.56,40.42c.15-.11,0-.33-.17-.22s0,.34.17.22Z" transform="translate(1.28)"/><path class="cls-6" d="M36.74,45.73c.14-.11,0-.33-.18-.22s0,.34.18.22Z" transform="translate(1.28)"/><path class="cls-6" d="M32.83,45.32a.14.14,0,0,0-.17-.22.14.14,0,1,0,.17.22Z" transform="translate(1.28)"/><path class="cls-6" d="M30.75,49.05c.14-.11,0-.33-.18-.22s0,.34.18.22Z" transform="translate(1.28)"/><path class="cls-6" d="M23.65,52.25c.14-.11,0-.33-.18-.22a.14.14,0,0,0,.18.22Z" transform="translate(1.28)"/><path class="cls-6" d="M18.38,52.69c.14-.12,0-.34-.17-.22s0,.33.17.22Z" transform="translate(1.28)"/><path class="cls-6" d="M6.22,49c.14-.12,0-.34-.18-.22s0,.33.18.22Z" transform="translate(1.28)"/><path class="cls-6" d="M12.29,43.59c.14-.11,0-.33-.18-.22s0,.33.18.22Z" transform="translate(1.28)"/><path class="cls-6" d="M11.06,50c.14-.12,0-.34-.18-.22s0,.33.18.22Z" transform="translate(1.28)"/><path class="cls-6" d="M16.58,45.73c.14-.11,0-.33-.18-.22a.14.14,0,0,0,.18.22Z" transform="translate(1.28)"/><path class="cls-6" d="M18.28,51l.15-.13a.18.18,0,0,0,.06-.09.13.13,0,0,0,0-.06s0,0,0-.05a.19.19,0,0,0-.1,0,.17.17,0,0,0-.1,0l-.16.13a.12.12,0,0,0-.05.09.13.13,0,0,0,0,.06l0,0,.1.05a.19.19,0,0,0,.1,0Z" transform="translate(1.28)"/><path class="cls-6" d="M25.89,44.31c.14-.11,0-.33-.18-.22s0,.34.18.22Z" transform="translate(1.28)"/><path class="cls-6" d="M25.51,44.47a.42.42,0,0,0-.53-.66.42.42,0,0,0,.53.66Z" transform="translate(1.28)"/><path class="cls-6" d="M20.51,47.76A.42.42,0,0,0,20,47.1a.42.42,0,0,0,.53.66Z" transform="translate(1.28)"/><path class="cls-6" d="M16.64,43a.42.42,0,0,0-.53-.66.42.42,0,0,0,.53.66Z" transform="translate(1.28)"/><path class="cls-6" d="M31.72,36.38a.43.43,0,0,0-.54-.66.43.43,0,0,0,.54.66Z" transform="translate(1.28)"/><path class="cls-6" d="M31.09,41a.42.42,0,0,0-.53-.66.42.42,0,0,0,.53.66Z" transform="translate(1.28)"/><path class="cls-6" d="M37.36,37.68a.42.42,0,0,0-.53-.66.42.42,0,0,0,.53.66Z" transform="translate(1.28)"/><path class="cls-6" d="M37.4,44c.42-.35-.11-1-.53-.66a.42.42,0,0,0,.53.66Z" transform="translate(1.28)"/><path class="cls-6" d="M34.62,50.36a.42.42,0,0,0-.53-.66.42.42,0,0,0,.53.66Z" transform="translate(1.28)"/><path class="cls-6" d="M29.87,54a.42.42,0,0,0-.53-.65.42.42,0,0,0,.53.65Z" transform="translate(1.28)"/><path class="cls-6" d="M7.11,34.36a.42.42,0,0,0-.53-.65.42.42,0,0,0,.53.65Z" transform="translate(1.28)"/><path class="cls-6" d="M5.71,43.66A.42.42,0,0,0,5.18,43a.42.42,0,0,0,.53.65Z" transform="translate(1.28)"/><path class="cls-6" d="M13.19,35.57c.42-.35-.11-1-.53-.66a.42.42,0,0,0,.53.66Z" transform="translate(1.28)"/><path class="cls-6" d="M6.79,26.72a.43.43,0,0,0-.54-.66.43.43,0,0,0,.54.66Z" transform="translate(1.28)"/><path class="cls-6" d="M18.9,17.41a.42.42,0,0,0-.53-.66.42.42,0,0,0,.53.66Z" transform="translate(1.28)"/><path class="cls-6" d="M18.91,24a.42.42,0,0,0-.53-.66.42.42,0,0,0,.53.66Z" transform="translate(1.28)"/><path class="cls-6" d="M32.38,23.34a.42.42,0,0,0-.53-.66.42.42,0,0,0,.53.66Z" transform="translate(1.28)"/><path class="cls-6" d="M38.55,29.06A.43.43,0,0,0,38,28.4a.43.43,0,0,0,.54.66Z" transform="translate(1.28)"/></g><g class="cls-7"><path class="cls-8" d="M74,33.61a6.44,6.44,0,0,0,1.5,2c1.67,1.69,3.42,3.36,5.46,3.64a9.57,9.57,0,0,0,4.59-1A11.92,11.92,0,0,0,92,33.43,21.36,21.36,0,0,0,93.9,29,44.92,44.92,0,0,0,95.66,9.54a13.92,13.92,0,0,0-1.4-4.84A6.62,6.62,0,0,0,90,1.82C88.55,1.36,87.09.89,85.62.48A6.53,6.53,0,0,0,81,.41c-2.5,1.14-4.6,4.9-5.79,9a45.61,45.61,0,0,0-1.87,13.52C73.43,26.22,72.82,31,74,33.61Z" transform="translate(1.28)"/><path class="cls-9" d="M79.92,38.55a25.86,25.86,0,0,0,1.52-2.36c1.34-1.9,3.11-2.13,4.62-3.5,2-1.83,3.4-5.84,3.29-9.45a20,20,0,0,1,0-3.55,14.74,14.74,0,0,1,1.41-3.78c2-4.56,2.39-10.84.91-15.08A7.34,7.34,0,0,1,95,2.18,6.54,6.54,0,0,1,97.5,5.76a16.8,16.8,0,0,1,.44,4.8c-.17,9.57-2.88,19.12-5.77,28-.65,2-1.39,4.12-2.56,5.14a3.6,3.6,0,0,1-2,.81,13,13,0,0,1-7.11-1c-1.21-.53-4.21-1.47-4.23-4.31C77.51,38.82,78.61,40,79.92,38.55Z" transform="translate(1.28)"/><path class="cls-5" d="M86,7.45c0-.18-.13-.2-.15,0s.13.19.15,0Z" transform="translate(1.28)"/><path class="cls-5" d="M84.6,19.6c0-.17-.13-.19-.15,0s.13.19.15,0Z" transform="translate(1.28)"/><path class="cls-5" d="M81.5,15.14c0-.18-.13-.2-.15,0s.13.19.15,0Z" transform="translate(1.28)"/><path class="cls-5" d="M83.84,21.23c0-.17-.13-.19-.15,0s.13.2.15,0Z" transform="translate(1.28)"/><path class="cls-5" d="M79.64,30.7c0-.17-.13-.19-.15,0s.13.19.15,0Z" transform="translate(1.28)"/><path class="cls-5" d="M78.89,22.5c0-.17-.13-.19-.16,0s.13.2.16,0Z" transform="translate(1.28)"/><path class="cls-5" d="M81.1,26.27c0-.18-.13-.2-.15,0s.13.19.15,0Z" transform="translate(1.28)"/><path class="cls-6" d="M84.2,16.08c0-.18-.13-.2-.15,0s.13.19.15,0Z" transform="translate(1.28)"/><path class="cls-6" d="M85.25,23.74c0-.18-.13-.2-.15,0s.13.2.15,0Z" transform="translate(1.28)"/><path class="cls-6" d="M82.16,20.82c0-.18-.13-.2-.16,0s.13.19.16,0Z" transform="translate(1.28)"/><path class="cls-6" d="M81.15,29.17c0-.18-.13-.2-.15,0s.13.19.15,0Z" transform="translate(1.28)"/><path class="cls-6" d="M78,23.54c0-.17-.13-.2-.16,0s.13.19.16,0Z" transform="translate(1.28)"/><path class="cls-6" d="M77.23,32.5c0-.17-.13-.19-.15,0s.12.19.15,0Z" transform="translate(1.28)"/><path class="cls-6" d="M75.45,27.06c0-.18-.13-.2-.15,0s.13.19.15,0Z" transform="translate(1.28)"/><path class="cls-6" d="M75.71,15.33c0-.17-.13-.19-.15,0s.12.19.15,0Z" transform="translate(1.28)"/><path class="cls-6" d="M79.69,5.06c0-.17-.13-.19-.16,0s.13.2.16,0Z" transform="translate(1.28)"/><path class="cls-6" d="M78.83,19.08h-.11s0,0-.06,0l0,0a.07.07,0,0,0,0,.05.17.17,0,0,0,0,.1l0,.05h.1a.07.07,0,0,0,.06,0l0,0a.14.14,0,0,0,0-.06.25.25,0,0,0,0-.09s0-.05,0-.05Z" transform="translate(1.28)"/><path class="cls-6" d="M75.28,19.32c0-.17-.12-.19-.15,0s.13.2.15,0Z" transform="translate(1.28)"/><path class="cls-6" d="M80.85,11c0-.17-.13-.19-.15,0s.13.2.15,0Z" transform="translate(1.28)"/><path class="cls-6" d="M82.61,10.08c0-.17-.13-.19-.15,0s.12.19.15,0Z" transform="translate(1.28)"/><path class="cls-6" d="M84.35,14.17c0-.18-.13-.2-.15,0s.12.19.15,0Z" transform="translate(1.28)"/><path class="cls-6" d="M85.55,6.81c0-.18-.13-.2-.16,0s.13.19.16,0Z" transform="translate(1.28)"/><path class="cls-6" d="M88,8.68c0-.17-.13-.2-.16,0s.13.19.16,0Z" transform="translate(1.28)"/><path class="cls-6" d="M88.55,12c0-.18-.13-.2-.15,0s.13.19.15,0Z" transform="translate(1.28)"/><path class="cls-6" d="M92.86,10.67c0-.17-.13-.19-.15,0s.13.2.15,0Z" transform="translate(1.28)"/><path class="cls-6" d="M93.86,15.43c0-.17-.13-.19-.15,0s.13.2.15,0Z" transform="translate(1.28)"/><path class="cls-6" d="M92,17.89c0-.18-.13-.2-.15,0s.13.19.15,0Z" transform="translate(1.28)"/><path class="cls-6" d="M92.36,21.79c0-.17-.13-.19-.15,0s.13.19.15,0Z" transform="translate(1.28)"/><path class="cls-6" d="M90.33,28.85c0-.18-.13-.2-.15,0s.13.19.15,0Z" transform="translate(1.28)"/><path class="cls-6" d="M88.17,32.8c0-.17-.12-.19-.15,0s.13.2.15,0Z" transform="translate(1.28)"/><path class="cls-6" d="M81.6,38.87c0-.18-.13-.2-.15,0s.13.19.15,0Z" transform="translate(1.28)"/><path class="cls-6" d="M82.42,31.07c0-.17-.13-.19-.15,0s.13.19.15,0Z" transform="translate(1.28)"/><path class="cls-6" d="M84,36.11c0-.18-.13-.2-.16,0s.13.19.16,0Z" transform="translate(1.28)"/><path class="cls-6" d="M85,29.49c0-.17-.13-.19-.16,0s.13.19.16,0Z" transform="translate(1.28)"/><path class="cls-6" d="M87.55,31.75l0-.19a.25.25,0,0,0,0-.09s0,0,0,0l0,0-.06,0a.16.16,0,0,0,0,.09l0,.19a.28.28,0,0,0,0,.1s0,0,0,0l0,0a.09.09,0,0,0,.06,0,.17.17,0,0,0,0-.1Z" transform="translate(1.28)"/><path class="cls-6" d="M88.63,22.06c0-.17-.13-.19-.16,0s.13.2.16,0Z" transform="translate(1.28)"/><path class="cls-6" d="M88.51,22.43c.07-.52-.38-.58-.45-.06s.38.59.45.06Z" transform="translate(1.28)"/><path class="cls-6" d="M87.44,28.08c.07-.53-.39-.59-.46-.07s.39.59.46.07Z" transform="translate(1.28)"/><path class="cls-6" d="M84.12,27.63c.07-.52-.38-.58-.45-.06s.38.59.45.06Z" transform="translate(1.28)"/><path class="cls-6" d="M88.49,12.79c.07-.52-.38-.58-.45-.06s.38.58.45.06Z" transform="translate(1.28)"/><path class="cls-6" d="M89.77,16.24c.07-.52-.38-.58-.45-.06s.38.58.45.06Z" transform="translate(1.28)"/><path class="cls-6" d="M91.41,9.71c.06-.52-.39-.58-.46-.06s.39.58.46.06Z" transform="translate(1.28)"/><path class="cls-6" d="M93.57,13.85c.07-.52-.38-.58-.45-.06s.38.59.45.06Z" transform="translate(1.28)"/><path class="cls-6" d="M94.5,20c.07-.52-.39-.58-.46-.06s.39.59.46.06Z" transform="translate(1.28)"/><path class="cls-6" d="M93.64,25.62c.07-.52-.39-.58-.46-.06s.39.59.46.06Z" transform="translate(1.28)"/><path class="cls-6" d="M77,28.62c.07-.52-.39-.59-.46-.06s.39.58.46.06Z" transform="translate(1.28)"/><path class="cls-6" d="M79.57,35.7c.07-.52-.39-.58-.46-.06s.39.59.46.06Z" transform="translate(1.28)"/><path class="cls-6" d="M80.1,25.17c.07-.52-.39-.58-.46-.06s.39.58.46.06Z" transform="translate(1.28)"/><path class="cls-6" d="M74.3,23.82c.07-.52-.39-.58-.46-.06s.39.58.46.06Z" transform="translate(1.28)"/><path class="cls-6" d="M76.45,9.26c.07-.52-.38-.58-.45-.06s.38.58.45.06Z" transform="translate(1.28)"/><path class="cls-6" d="M78.7,13.61c.07-.52-.38-.58-.45-.06s.38.58.45.06Z" transform="translate(1.28)"/><path class="cls-6" d="M84.37,3.76c.07-.52-.39-.58-.46-.06s.39.58.46.06Z" transform="translate(1.28)"/><path class="cls-6" d="M89,3.22c.07-.52-.39-.58-.46-.06s.39.58.46.06Z" transform="translate(1.28)"/></g><g class="cls-10"><path class="cls-3" d="M259.06,78.67a6,6,0,0,0,1.6,1.08,12.55,12.55,0,0,0,10,1.76c2.13-.34,4.38-.79,5.9-2.15a7,7,0,0,0,1.55-2.13,11.44,11.44,0,0,0,.26-9.56,6.25,6.25,0,0,0-1.72-2.46,9.89,9.89,0,0,0-4.34-1.61c-1.45-.3-2.9-.59-4.36-.86a12.28,12.28,0,0,0-4.51-.23,7,7,0,0,0-4.95,4.21,11.35,11.35,0,0,0-.81,6.62C258,75,257.77,77.32,259.06,78.67Z" transform="translate(1.28)"/><path class="cls-4" d="M265.22,81.38a13.73,13.73,0,0,0,1.3-1.1c1.16-.89,2.86-.93,4.22-1.54a4.22,4.22,0,0,0,2.49-4.55,5.12,5.12,0,0,1-.29-1.76A4.36,4.36,0,0,1,274,70.62a6.13,6.13,0,0,0-.24-7.44,13.22,13.22,0,0,1,3.35.81,5.9,5.9,0,0,1,2.71,1.89,5.13,5.13,0,0,1,.78,2.4c.55,4.74-1.37,9.35-3.51,13.66a4.65,4.65,0,0,1-2.1,2.44,5.49,5.49,0,0,1-1.9.31,25.13,25.13,0,0,1-7-.8c-1.22-.32-4.19-.91-4.42-2.32C262.9,81.41,264.06,82.05,265.22,81.38Z" transform="translate(1.28)"/><path class="cls-5" d="M268.8,66.22c0-.09-.13-.11-.14,0s.14.1.14,0Z" transform="translate(1.28)"/><path class="cls-5" d="M268.35,72.18c0-.08-.14-.1-.15,0s.14.1.15,0Z" transform="translate(1.28)"/><path class="cls-5" d="M265,69.84c0-.09-.14-.11-.15,0s.14.1.15,0Z" transform="translate(1.28)"/><path class="cls-5" d="M267.73,73c0-.08-.14-.1-.15,0s.14.11.15,0Z" transform="translate(1.28)"/><path class="cls-5" d="M264.37,77.47c0-.08-.14-.1-.15,0s.14.1.15,0Z" transform="translate(1.28)"/><path class="cls-5" d="M263,73.37c0-.08-.14-.1-.15,0s.14.1.15,0Z" transform="translate(1.28)"/><path class="cls-5" d="M265.45,75.34c0-.09-.14-.1-.15,0s.14.1.15,0Z" transform="translate(1.28)"/><path class="cls-6" d="M267.7,70.42c0-.09-.14-.1-.15,0s.14.1.15,0Z" transform="translate(1.28)"/><path class="cls-6" d="M269.29,74.26c0-.08-.14-.1-.15,0s.14.1.15,0Z" transform="translate(1.28)"/><path class="cls-6" d="M266.07,72.68c0-.08-.14-.1-.15,0s.14.11.15,0Z" transform="translate(1.28)"/><path class="cls-6" d="M265.72,76.78c0-.09-.14-.1-.15,0s.14.1.15,0Z" transform="translate(1.28)"/><path class="cls-6" d="M262.23,73.85c0-.08-.14-.1-.15,0s.14.11.15,0Z" transform="translate(1.28)"/><path class="cls-6" d="M262.16,78.26c0-.08-.14-.1-.15,0s.14.1.15,0Z" transform="translate(1.28)"/><path class="cls-6" d="M260,75.49c0-.09-.14-.11-.15,0s.14.1.15,0Z" transform="translate(1.28)"/><path class="cls-6" d="M259.4,69.68c0-.09-.14-.1-.15,0s.14.11.15,0Z" transform="translate(1.28)"/><path class="cls-6" d="M262.5,64.76c0-.09-.14-.1-.15,0s.14.11.15,0Z" transform="translate(1.28)"/><path class="cls-6" d="M262.71,71.67h-.1l-.06,0,0,0a0,0,0,0,0,0,0,.08.08,0,0,0,0,0l0,0h.11l.05,0s0,0,0,0a0,0,0,0,0,0,0,.08.08,0,0,0,0,0l-.05,0Z" transform="translate(1.28)"/><path class="cls-6" d="M259.29,71.64c0-.08-.14-.1-.15,0s.14.1.15,0Z" transform="translate(1.28)"/><path class="cls-6" d="M264.07,67.76c0-.09-.14-.11-.15,0s.14.1.15,0Z" transform="translate(1.28)"/><path class="cls-6" d="M265.71,67.37c0-.08-.14-.1-.15,0s.14.1.15,0Z" transform="translate(1.28)"/><path class="cls-6" d="M267.7,69.48c0-.09-.14-.1-.15,0s.14.1.15,0Z" transform="translate(1.28)"/><path class="cls-6" d="M268.31,65.88c0-.09-.14-.1-.15,0s.14.1.15,0Z" transform="translate(1.28)"/><path class="cls-6" d="M270.85,66.91c0-.08-.14-.1-.15,0s.14.1.15,0Z" transform="translate(1.28)"/><path class="cls-6" d="M271.62,68.6c0-.09-.14-.1-.15,0s.14.1.15,0Z" transform="translate(1.28)"/><path class="cls-6" d="M275.7,68.11c0-.08-.14-.1-.15,0s.14.1.15,0Z" transform="translate(1.28)"/><path class="cls-6" d="M277,70.52c0-.09-.14-.1-.15,0s.14.1.15,0Z" transform="translate(1.28)"/><path class="cls-6" d="M275.41,71.65c0-.08-.14-.1-.15,0s.14.1.15,0Z" transform="translate(1.28)"/><path class="cls-6" d="M276,73.61c0-.09-.14-.11-.15,0s.14.1.15,0Z" transform="translate(1.28)"/><path class="cls-6" d="M274.6,77c0-.09-.14-.1-.15,0s.14.1.15,0Z" transform="translate(1.28)"/><path class="cls-6" d="M272.8,78.89c0-.09-.14-.11-.15,0s.14.1.15,0Z" transform="translate(1.28)"/><path class="cls-6" d="M266.88,81.61c0-.09-.14-.1-.15,0s.14.1.15,0Z" transform="translate(1.28)"/><path class="cls-6" d="M267.09,77.78c0-.09-.14-.1-.15,0s.14.1.15,0Z" transform="translate(1.28)"/><path class="cls-6" d="M269,80.35c0-.09-.14-.11-.15,0s.14.1.15,0Z" transform="translate(1.28)"/><path class="cls-6" d="M269.5,77.11c0-.09-.14-.11-.15,0s.14.1.15,0Z" transform="translate(1.28)"/><path class="cls-6" d="M272.12,78.34v-.09s0,0,0,0a0,0,0,0,0,0,0h0s0,0-.05,0,0,0,0,0v.09s0,0,0,.05l0,0h0s0,0,0,0,0,0,0,0Z" transform="translate(1.28)"/><path class="cls-6" d="M272.44,73.58c0-.09-.14-.1-.15,0s.14.1.15,0Z" transform="translate(1.28)"/><path class="cls-6" d="M272.36,73.76c0-.26-.42-.31-.45-.05s.42.3.45.05Z" transform="translate(1.28)"/><path class="cls-6" d="M271.73,76.51c0-.26-.42-.31-.45-.05s.42.31.45.05Z" transform="translate(1.28)"/><path class="cls-6" d="M268.48,76.15c0-.26-.41-.31-.44-.05s.42.3.44.05Z" transform="translate(1.28)"/><path class="cls-6" d="M271.62,69c0-.25-.42-.3-.45,0s.42.31.45,0Z" transform="translate(1.28)"/><path class="cls-6" d="M273.12,70.74c0-.26-.42-.31-.45,0s.42.31.45,0Z" transform="translate(1.28)"/><path class="cls-6" d="M274.21,67.57c0-.25-.41-.3-.44,0s.42.31.44,0Z" transform="translate(1.28)"/><path class="cls-6" d="M276.63,69.72c0-.25-.42-.3-.45,0s.42.31.45,0Z" transform="translate(1.28)"/><path class="cls-6" d="M278,72.79c0-.26-.42-.31-.45-.05s.42.3.45.05Z" transform="translate(1.28)"/><path class="cls-6" d="M277.57,75.56c0-.25-.42-.3-.45,0s.42.31.45,0Z" transform="translate(1.28)"/><path class="cls-6" d="M261.68,76.33c0-.26-.42-.31-.45,0s.42.3.45,0Z" transform="translate(1.28)"/><path class="cls-6" d="M264.67,80c0-.25-.42-.3-.45,0s.42.31.45,0Z" transform="translate(1.28)"/><path class="cls-6" d="M264.4,74.75c0-.25-.42-.3-.45,0s.42.31.45,0Z" transform="translate(1.28)"/><path class="cls-6" d="M258.67,73.83c0-.26-.42-.31-.45,0s.42.31.45,0Z" transform="translate(1.28)"/><path class="cls-6" d="M259.67,66.7c0-.25-.42-.3-.44,0s.42.31.44,0Z" transform="translate(1.28)"/><path class="cls-6" d="M262.18,69c0-.26-.42-.31-.45,0s.42.3.45,0Z" transform="translate(1.28)"/><path class="cls-6" d="M266.94,64.32c0-.26-.42-.31-.45,0s.42.3.45,0Z" transform="translate(1.28)"/><path class="cls-6" d="M271.4,64.25c0-.26-.42-.31-.44,0s.41.3.44,0Z" transform="translate(1.28)"/></g><g class="cls-11"><path class="cls-3" d="M207.28,81.3a3.15,3.15,0,0,0,.17,1.09,8.27,8.27,0,0,0,1.33,3A8,8,0,0,0,210.67,87,6.17,6.17,0,0,0,214,88.34a4.81,4.81,0,0,0,1.58-.34,8,8,0,0,0,4.36-4.12,3.77,3.77,0,0,0,.41-1.74,5,5,0,0,0-1-2.38c-.45-.69-.9-1.38-1.37-2.06a6.06,6.06,0,0,0-1.71-1.85,4.26,4.26,0,0,0-3.87,0,8,8,0,0,0-3.27,2.6C208.5,79.27,207.37,80.2,207.28,81.3Z" transform="translate(1.28)"/><path class="cls-4" d="M208.55,84.87a8.68,8.68,0,0,0,1,0c.86.06,1.56.7,2.38,1a2.79,2.79,0,0,0,3-1,3.88,3.88,0,0,1,.66-.89,3.09,3.09,0,0,1,1.25-.38,4.23,4.23,0,0,0,3.22-3.37,6.72,6.72,0,0,1,1,1.65,3.19,3.19,0,0,1,.25,1.87,3.34,3.34,0,0,1-.76,1.36c-1.89,2.3-4.72,3.6-7.5,4.67a2.91,2.91,0,0,1-1.93.26,2.65,2.65,0,0,1-.9-.59,12.59,12.59,0,0,1-2.45-3c-.35-.61-1.27-2-.74-2.73C207.61,84,207.79,84.71,208.55,84.87Z" transform="translate(1.28)"/><path class="cls-5" d="M216.75,79.57s0-.1-.05-.06,0,.09.05.06Z" transform="translate(1.28)"/><path class="cls-5" d="M213.91,82s0-.09,0-.06,0,.1,0,.06Z" transform="translate(1.28)"/><path class="cls-5" d="M213.61,79.7s0-.1-.05-.07,0,.1.05.07Z" transform="translate(1.28)"/><path class="cls-5" d="M213.32,82.13a0,0,0,0,0-.06-.07,0,0,0,0,0,.06.07Z" transform="translate(1.28)"/><path class="cls-5" d="M210,82.82s0-.1,0-.07,0,.1,0,.07Z" transform="translate(1.28)"/><path class="cls-5" d="M211.24,80.49s0-.1-.06-.06,0,.1.06.06Z" transform="translate(1.28)"/><path class="cls-5" d="M211.34,82.3s0-.1-.05-.07,0,.1.05.07Z" transform="translate(1.28)"/><path class="cls-6" d="M214.44,81s0-.1-.06-.07,0,.1.06.07Z" transform="translate(1.28)"/><path class="cls-6" d="M213.36,83.3s0-.1-.05-.06,0,.09.05.06Z" transform="translate(1.28)"/><path class="cls-6" d="M212.77,81.36s0-.1-.05-.06,0,.1.05.06Z" transform="translate(1.28)"/><path class="cls-6" d="M210.8,83s0-.1-.05-.06,0,.1.05.06Z" transform="translate(1.28)"/><path class="cls-6" d="M210.7,80.4a0,0,0,0,0,0-.07s0,.1,0,.07Z" transform="translate(1.28)"/><path class="cls-6" d="M208.71,82.31s0-.1-.05-.06,0,.1.05.06Z" transform="translate(1.28)"/><path class="cls-6" d="M209.09,80.27s0-.1-.05-.07,0,.1.05.07Z" transform="translate(1.28)"/><path class="cls-6" d="M211.43,77.47s0-.1-.05-.07a0,0,0,0,0,.05.07Z" transform="translate(1.28)"/><path class="cls-6" d="M214.87,76.5s0-.1-.06-.07a0,0,0,0,0,.06.07Z" transform="translate(1.28)"/><path class="cls-6" d="M211.87,79.62l0,0s0,0,0,0h0s0,0,0,0a0,0,0,0,0,0,0l0,.05h.06a0,0,0,0,0,0,0s0,0,0,0Z" transform="translate(1.28)"/><path class="cls-6" d="M210.51,78.29s0-.1,0-.06,0,.09,0,.06Z" transform="translate(1.28)"/><path class="cls-6" d="M214.16,78.42s0-.1,0-.06,0,.1,0,.06Z" transform="translate(1.28)"/><path class="cls-6" d="M215,78.89s0-.1-.05-.07,0,.1.05.07Z" transform="translate(1.28)"/><path class="cls-6" d="M214.85,80.58c.05,0,0-.1,0-.06s0,.09,0,.06Z" transform="translate(1.28)"/><path class="cls-6" d="M216.7,79.23c.05,0,0-.1,0-.06s0,.1,0,.06Z" transform="translate(1.28)"/><path class="cls-6" d="M217.26,80.67s0-.1,0-.07,0,.1,0,.07Z" transform="translate(1.28)"/><path class="cls-6" d="M216.82,81.7s0-.1,0-.06,0,.1,0,.06Z" transform="translate(1.28)"/><path class="cls-6" d="M218.68,83.07s0-.1-.05-.07,0,.1.05.07Z" transform="translate(1.28)"/><path class="cls-6" d="M218.14,84.64s0-.1,0-.07,0,.1,0,.07Z" transform="translate(1.28)"/><path class="cls-6" d="M217,84.51c.05,0,0-.09,0-.06s0,.1,0,.06Z" transform="translate(1.28)"/><path class="cls-6" d="M216.37,85.62s0-.1-.05-.07a0,0,0,0,0,.05.07Z" transform="translate(1.28)"/><path class="cls-6" d="M214.27,86.56s0-.1-.05-.06,0,.1.05.06Z" transform="translate(1.28)"/><path class="cls-6" d="M212.71,86.69s0-.1-.05-.06,0,.1.05.06Z" transform="translate(1.28)"/><path class="cls-6" d="M209.12,85.61a0,0,0,0,0-.06-.07,0,0,0,0,0,.06.07Z" transform="translate(1.28)"/><path class="cls-6" d="M210.91,84s0-.1,0-.06,0,.1,0,.06Z" transform="translate(1.28)"/><path class="cls-6" d="M210.55,85.88s0-.1-.06-.06,0,.1.06.06Z" transform="translate(1.28)"/><path class="cls-6" d="M212.18,84.64s0-.1-.05-.07,0,.1.05.07Z" transform="translate(1.28)"/><path class="cls-6" d="M212.68,86.19l0,0a0,0,0,0,0,0,0h0s0,0,0,0,0,0,0,0h0l0,0,0,0v0h0l0,0Z" transform="translate(1.28)"/><path class="cls-6" d="M214.93,84.22s0-.1-.05-.07,0,.1.05.07Z" transform="translate(1.28)"/><path class="cls-6" d="M214.82,84.26a.12.12,0,0,0-.16-.19.12.12,0,0,0,.16.19Z" transform="translate(1.28)"/><path class="cls-6" d="M213.34,85.23c.13-.1,0-.29-.16-.19s0,.3.16.19Z" transform="translate(1.28)"/><path class="cls-6" d="M212.2,83.82c.12-.1,0-.3-.16-.19s0,.29.16.19Z" transform="translate(1.28)"/><path class="cls-6" d="M216.65,81.87c.13-.1,0-.3-.15-.19a.12.12,0,0,0,.15.19Z" transform="translate(1.28)"/><path class="cls-6" d="M216.47,83.23c.13-.1,0-.3-.16-.2s0,.3.16.2Z" transform="translate(1.28)"/><path class="cls-6" d="M218.32,82.25a.12.12,0,0,0-.15-.19c-.13.1,0,.3.15.19Z" transform="translate(1.28)"/><path class="cls-6" d="M218.33,84.13c.13-.1,0-.3-.15-.19a.12.12,0,0,0,.15.19Z" transform="translate(1.28)"/><path class="cls-6" d="M217.51,86c.13-.1,0-.29-.16-.19s0,.3.16.19Z" transform="translate(1.28)"/><path class="cls-6" d="M216.11,87.07a.13.13,0,0,0-.16-.2c-.12.1,0,.3.16.2Z" transform="translate(1.28)"/><path class="cls-6" d="M209.38,81.27c.13-.1,0-.29-.16-.19s0,.3.16.19Z" transform="translate(1.28)"/><path class="cls-6" d="M209,84c.12-.1,0-.29-.16-.19A.12.12,0,1,0,209,84Z" transform="translate(1.28)"/><path class="cls-6" d="M211.18,81.63c.12-.1,0-.3-.16-.19s0,.29.16.19Z" transform="translate(1.28)"/><path class="cls-6" d="M209.28,79a.12.12,0,0,0-.15-.19c-.13.1,0,.3.15.19Z" transform="translate(1.28)"/><path class="cls-6" d="M212.87,76.26c.12-.1,0-.29-.16-.19s0,.29.16.19Z" transform="translate(1.28)"/><path class="cls-6" d="M212.87,78.22a.12.12,0,0,0-.16-.19.12.12,0,0,0,.16.19Z" transform="translate(1.28)"/><path class="cls-6" d="M216.85,78c.13-.1,0-.29-.16-.19s0,.3.16.19Z" transform="translate(1.28)"/><path class="cls-6" d="M218.67,79.71c.13-.1,0-.3-.15-.2s0,.3.15.2Z" transform="translate(1.28)"/></g><g class="cls-12"><path class="cls-13" d="M65.39,71.56a3.45,3.45,0,0,0,.16,1.1,8.3,8.3,0,0,0,1.33,3,8.15,8.15,0,0,0,1.89,1.57A6.17,6.17,0,0,0,72.1,78.6a4.47,4.47,0,0,0,1.57-.34A8,8,0,0,0,78,74.15a3.92,3.92,0,0,0,.4-1.74,4.94,4.94,0,0,0-1-2.39c-.46-.69-.91-1.38-1.37-2.06a6.14,6.14,0,0,0-1.71-1.84,4.26,4.26,0,0,0-3.87-.06,8,8,0,0,0-3.28,2.61C66.61,69.53,65.47,70.47,65.39,71.56Z" transform="translate(1.28)"/><path class="cls-14" d="M66.66,75.13a6.79,6.79,0,0,0,1,0c.86,0,1.56.69,2.38.95a2.81,2.81,0,0,0,3-1,3.31,3.31,0,0,1,.67-.89A2.73,2.73,0,0,1,75,73.79a4.21,4.21,0,0,0,3.22-3.37,6.11,6.11,0,0,1,1,1.65,3.11,3.11,0,0,1,.25,1.87,3.44,3.44,0,0,1-.75,1.36C76.8,77.6,74,78.89,71.19,80a3,3,0,0,1-1.93.27,2.77,2.77,0,0,1-.91-.6,12.36,12.36,0,0,1-2.44-3c-.35-.61-1.28-2-.75-2.73C65.71,74.25,65.89,75,66.66,75.13Z" transform="translate(1.28)"/><path class="cls-5" d="M74.86,69.84a0,0,0,0,0-.06-.07s0,.1.06.07Z" transform="translate(1.28)"/><path class="cls-5" d="M72,72.29s0-.1-.05-.07,0,.1.05.07Z" transform="translate(1.28)"/><path class="cls-5" d="M71.72,70a0,0,0,0,0-.06-.07s0,.1.06.07Z" transform="translate(1.28)"/><path class="cls-5" d="M71.42,72.39s0-.1,0-.06,0,.1,0,.06Z" transform="translate(1.28)"/><path class="cls-5" d="M68.05,73.08s0-.1,0-.06,0,.1,0,.06Z" transform="translate(1.28)"/><path class="cls-5" d="M69.34,70.76s0-.1,0-.07,0,.1,0,.07Z" transform="translate(1.28)"/><path class="cls-5" d="M69.44,72.56s0-.1,0-.06,0,.1,0,.06Z" transform="translate(1.28)"/><path class="cls-6" d="M72.54,71.26s0-.1-.05-.06,0,.09.05.06Z" transform="translate(1.28)"/><path class="cls-6" d="M71.46,73.57a0,0,0,0,0,0-.07s0,.1,0,.07Z" transform="translate(1.28)"/><path class="cls-6" d="M70.87,71.63a0,0,0,0,0-.05-.07s0,.1.05.07Z" transform="translate(1.28)"/><path class="cls-6" d="M68.91,73.3a0,0,0,0,0-.06-.07s0,.1.06.07Z" transform="translate(1.28)"/><path class="cls-6" d="M68.81,70.66s0-.1,0-.06,0,.09,0,.06Z" transform="translate(1.28)"/><path class="cls-6" d="M66.82,72.58s0-.1-.06-.07a0,0,0,0,0,.06.07Z" transform="translate(1.28)"/><path class="cls-6" d="M67.2,70.53s0-.1-.06-.06,0,.1.06.06Z" transform="translate(1.28)"/><path class="cls-6" d="M69.53,67.74s0-.1,0-.07,0,.1,0,.07Z" transform="translate(1.28)"/><path class="cls-6" d="M73,66.76s0-.1,0-.06,0,.1,0,.06Z" transform="translate(1.28)"/><path class="cls-6" d="M70,69.89l0,0h0a0,0,0,0,0,0,0s0,0,0,0a0,0,0,0,0,0,0l0,0,0,0h0a0,0,0,0,0,0-.06Z" transform="translate(1.28)"/><path class="cls-6" d="M68.61,68.56s0-.1,0-.07,0,.1,0,.07Z" transform="translate(1.28)"/><path class="cls-6" d="M72.27,68.69s0-.1-.06-.07,0,.1.06.07Z" transform="translate(1.28)"/><path class="cls-6" d="M73.09,69.15s0-.1,0-.06,0,.09,0,.06Z" transform="translate(1.28)"/><path class="cls-6" d="M73,70.85s0-.1,0-.07,0,.1,0,.07Z" transform="translate(1.28)"/><path class="cls-6" d="M74.81,69.5s0-.1,0-.07a0,0,0,0,0,0,.07Z" transform="translate(1.28)"/><path class="cls-6" d="M75.37,70.93s0-.1-.06-.06,0,.1.06.06Z" transform="translate(1.28)"/><path class="cls-6" d="M74.92,72s0-.1,0-.07,0,.1,0,.07Z" transform="translate(1.28)"/><path class="cls-6" d="M76.78,73.33s0-.1,0-.06,0,.1,0,.06Z" transform="translate(1.28)"/><path class="cls-6" d="M76.24,74.9s0-.1,0-.06,0,.09,0,.06Z" transform="translate(1.28)"/><path class="cls-6" d="M75.09,74.78s0-.1,0-.07a0,0,0,0,0,0,.07Z" transform="translate(1.28)"/><path class="cls-6" d="M74.47,75.88s0-.1,0-.06,0,.1,0,.06Z" transform="translate(1.28)"/><path class="cls-6" d="M72.37,76.83s0-.1-.05-.07,0,.1.05.07Z" transform="translate(1.28)"/><path class="cls-6" d="M70.82,77a0,0,0,0,0-.06-.07,0,0,0,0,0,.06.07Z" transform="translate(1.28)"/><path class="cls-6" d="M67.22,75.87s0-.1,0-.06,0,.1,0,.06Z" transform="translate(1.28)"/><path class="cls-6" d="M69,74.27A0,0,0,0,0,69,74.2s0,.1.05.07Z" transform="translate(1.28)"/><path class="cls-6" d="M68.65,76.15s0-.1-.05-.07,0,.1.05.07Z" transform="translate(1.28)"/><path class="cls-6" d="M70.28,74.9s0-.1,0-.06,0,.09,0,.06Z" transform="translate(1.28)"/><path class="cls-6" d="M70.79,76.45l0,0s0,0,0,0,0,0,0,0h0l0,0h0l0,0a0,0,0,0,0,0,0h0v0h.06Z" transform="translate(1.28)"/><path class="cls-6" d="M73,74.48s0-.1-.06-.06,0,.09.06.06Z" transform="translate(1.28)"/><path class="cls-6" d="M72.92,74.53c.13-.1,0-.3-.15-.2s0,.3.15.2Z" transform="translate(1.28)"/><path class="cls-6" d="M71.45,75.5c.12-.1,0-.3-.16-.2a.13.13,0,0,0,.16.2Z" transform="translate(1.28)"/><path class="cls-6" d="M70.3,74.09a.13.13,0,0,0-.16-.2c-.12.1,0,.3.16.2Z" transform="translate(1.28)"/><path class="cls-6" d="M74.76,72.14a.13.13,0,0,0-.16-.2c-.13.1,0,.3.16.2Z" transform="translate(1.28)"/><path class="cls-6" d="M74.57,73.49a.12.12,0,0,0-.15-.19.12.12,0,0,0,.15.19Z" transform="translate(1.28)"/><path class="cls-6" d="M76.43,72.52c.12-.1,0-.3-.16-.2a.13.13,0,0,0,.16.2Z" transform="translate(1.28)"/><path class="cls-6" d="M76.44,74.4c.12-.1,0-.3-.16-.2s0,.3.16.2Z" transform="translate(1.28)"/><path class="cls-6" d="M75.62,76.27c.12-.1,0-.3-.16-.2a.13.13,0,0,0,.16.2Z" transform="translate(1.28)"/><path class="cls-6" d="M74.21,77.33c.13-.1,0-.3-.15-.19a.12.12,0,0,0,.15.19Z" transform="translate(1.28)"/><path class="cls-6" d="M67.48,71.54c.13-.1,0-.3-.15-.19a.12.12,0,0,0,.15.19Z" transform="translate(1.28)"/><path class="cls-6" d="M67.07,74.29c.13-.1,0-.3-.16-.2a.13.13,0,0,0,.16.2Z" transform="translate(1.28)"/><path class="cls-6" d="M69.28,71.9a.13.13,0,0,0-.16-.2c-.12.1,0,.3.16.2Z" transform="translate(1.28)"/><path class="cls-6" d="M67.39,69.28c.12-.1,0-.3-.16-.2a.13.13,0,0,0,.16.2Z" transform="translate(1.28)"/><path class="cls-6" d="M71,66.53c.12-.1,0-.3-.16-.2s0,.3.16.2Z" transform="translate(1.28)"/><path class="cls-6" d="M71,68.49c.13-.1,0-.3-.16-.2s0,.3.16.2Z" transform="translate(1.28)"/><path class="cls-6" d="M75,68.28c.13-.1,0-.3-.15-.19a.12.12,0,0,0,.15.19Z" transform="translate(1.28)"/><path class="cls-6" d="M76.78,70a.12.12,0,0,0-.16-.19c-.13.1,0,.29.16.19Z" transform="translate(1.28)"/></g><g class="cls-15"><path class="cls-3" d="M166.19,88a2.24,2.24,0,0,0,.11.67,3.88,3.88,0,0,0,2,2.85,3.87,3.87,0,0,0,2.05.82,3,3,0,0,0,1-.21A5,5,0,0,0,174,89.59a2.24,2.24,0,0,0,.25-1.07,3.06,3.06,0,0,0-.63-1.47l-.84-1.27a3.73,3.73,0,0,0-1.06-1.14,2.59,2.59,0,0,0-2.38,0,4.89,4.89,0,0,0-2,1.6C167,86.74,166.25,87.32,166.19,88Z" transform="translate(1.28)"/><path class="cls-4" d="M167,90.2c.2,0,.41,0,.62,0,.53,0,1,.43,1.47.58a1.72,1.72,0,0,0,1.87-.64,2.25,2.25,0,0,1,.41-.55,1.78,1.78,0,0,1,.77-.23,2.6,2.6,0,0,0,2-2.08,4.06,4.06,0,0,1,.61,1,1.69,1.69,0,0,1-.32,2,10.73,10.73,0,0,1-4.62,2.88,1.84,1.84,0,0,1-1.19.16A1.71,1.71,0,0,1,168,93a7.57,7.57,0,0,1-1.51-1.87c-.21-.38-.78-1.25-.45-1.68C166.39,89.65,166.5,90.1,167,90.2Z" transform="translate(1.28)"/><path class="cls-5" d="M172,86.93a0,0,0,1,0,0,0s0,.06,0,0Z" transform="translate(1.28)"/><path class="cls-5" d="M170.28,88.44s0-.06,0,0,0,.07,0,0Z" transform="translate(1.28)"/><path class="cls-5" d="M170.1,87s0-.06,0,0,0,.06,0,0Z" transform="translate(1.28)"/><path class="cls-5" d="M169.91,88.51a0,0,0,1,0,0,0s0,.06,0,0Z" transform="translate(1.28)"/><path class="cls-5" d="M167.84,88.93s0-.06,0,0a0,0,0,1,0,0,0Z" transform="translate(1.28)"/><path class="cls-5" d="M168.63,87.5s0-.06,0,0,0,.06,0,0Z" transform="translate(1.28)"/><path class="cls-5" d="M168.69,88.61a0,0,0,1,0,0,0s0,.06,0,0Z" transform="translate(1.28)"/><path class="cls-6" d="M170.6,87.81a0,0,0,1,0,0,0s0,.06,0,0Z" transform="translate(1.28)"/><path class="cls-6" d="M169.94,89.23s0-.06,0,0a0,0,0,1,0,0,0Z" transform="translate(1.28)"/><path class="cls-6" d="M169.58,88s0-.06,0,0a0,0,0,1,0,0,0Z" transform="translate(1.28)"/><path class="cls-6" d="M168.36,89.07a0,0,0,1,0,0,0s0,.06,0,0Z" transform="translate(1.28)"/><path class="cls-6" d="M168.3,87.44a0,0,0,1,0,0,0s0,.06,0,0Z" transform="translate(1.28)"/><path class="cls-6" d="M167.07,88.62a0,0,0,1,0,0,0s0,.06,0,0Z" transform="translate(1.28)"/><path class="cls-6" d="M167.31,87.36s0-.06,0,0a0,0,0,1,0,0,0Z" transform="translate(1.28)"/><path class="cls-6" d="M168.75,85.64s0-.06,0,0a0,0,0,1,0,0,0Z" transform="translate(1.28)"/><path class="cls-6" d="M170.87,85s0-.06,0,0a0,0,0,1,0,0,0Z" transform="translate(1.28)"/><path class="cls-6" d="M169,87l0,0h0s0,0,0,0v0l0,0h0v0a0,0,0,0,0,0,0Z" transform="translate(1.28)"/><path class="cls-6" d="M168.18,86.14a0,0,0,1,0,0,0s0,.06,0,0Z" transform="translate(1.28)"/><path class="cls-6" d="M170.44,86.22s0-.06,0,0,0,.07,0,0Z" transform="translate(1.28)"/><path class="cls-6" d="M171,86.51s0-.06,0,0,0,.06,0,0Z" transform="translate(1.28)"/><path class="cls-6" d="M170.86,87.55a0,0,0,1,0,0,0s0,.07,0,0Z" transform="translate(1.28)"/><path class="cls-6" d="M172,86.72a0,0,0,1,0,0,0s0,.06,0,0Z" transform="translate(1.28)"/><path class="cls-6" d="M172.35,87.61s0-.06,0,0,0,.06,0,0Z" transform="translate(1.28)"/><path class="cls-6" d="M172.07,88.25a0,0,0,1,0,0,0s0,.06,0,0Z" transform="translate(1.28)"/><path class="cls-6" d="M173.22,89.09s0-.06,0,0a0,0,0,1,0,0,0Z" transform="translate(1.28)"/><path class="cls-6" d="M172.89,90.05s0-.06,0,0,0,.07,0,0Z" transform="translate(1.28)"/><path class="cls-6" d="M172.18,90s0-.06,0,0,0,.06,0,0Z" transform="translate(1.28)"/><path class="cls-6" d="M171.8,90.66s0-.06,0,0,0,.06,0,0Z" transform="translate(1.28)"/><path class="cls-6" d="M170.5,91.24s0-.06,0,0a0,0,0,1,0,0,0Z" transform="translate(1.28)"/><path class="cls-6" d="M169.54,91.32s0-.06,0,0,0,.06,0,0Z" transform="translate(1.28)"/><path class="cls-6" d="M167.32,90.65a0,0,0,1,0,0,0s0,.06,0,0Z" transform="translate(1.28)"/><path class="cls-6" d="M168.43,89.66s0-.06,0,0,0,.07,0,0Z" transform="translate(1.28)"/><path class="cls-6" d="M168.21,90.82s0-.06,0,0,0,.06,0,0Z" transform="translate(1.28)"/><path class="cls-6" d="M169.21,90.05a0,0,0,1,0,0,0s0,.07,0,0Z" transform="translate(1.28)"/><path class="cls-6" d="M169.52,91l0,0s0,0,0,0h0l0,0v0h0Z" transform="translate(1.28)"/><path class="cls-6" d="M170.91,89.8s0-.06,0,0a0,0,0,1,0,0,0Z" transform="translate(1.28)"/><path class="cls-6" d="M170.84,89.83a.08.08,0,1,0-.1-.12.08.08,0,0,0,.1.12Z" transform="translate(1.28)"/><path class="cls-6" d="M169.93,90.42c.08-.06,0-.18-.1-.12a.08.08,0,1,0,.1.12Z" transform="translate(1.28)"/><path class="cls-6" d="M169.22,89.55c.08-.06,0-.18-.09-.12s0,.19.09.12Z" transform="translate(1.28)"/><path class="cls-6" d="M172,88.35c.08-.06,0-.18-.1-.12a.08.08,0,0,0,.1.12Z" transform="translate(1.28)"/><path class="cls-6" d="M171.86,89.19a.08.08,0,1,0-.1-.12c-.08.06,0,.18.1.12Z" transform="translate(1.28)"/><path class="cls-6" d="M173,88.59a.08.08,0,1,0-.1-.12.08.08,0,0,0,.1.12Z" transform="translate(1.28)"/><path class="cls-6" d="M173,89.74c.08-.06,0-.18-.1-.12a.08.08,0,1,0,.1.12Z" transform="translate(1.28)"/><path class="cls-6" d="M172.5,90.9c.08-.06,0-.18-.1-.12a.08.08,0,0,0,.1.12Z" transform="translate(1.28)"/><path class="cls-6" d="M171.64,91.55a.08.08,0,0,0-.1-.12.08.08,0,1,0,.1.12Z" transform="translate(1.28)"/><path class="cls-6" d="M167.49,88a.08.08,0,0,0-.1-.12.08.08,0,1,0,.1.12Z" transform="translate(1.28)"/><path class="cls-6" d="M167.23,89.68c.08-.06,0-.18-.1-.12a.08.08,0,0,0,.1.12Z" transform="translate(1.28)"/><path class="cls-6" d="M168.59,88.2c.08-.06,0-.18-.09-.12s0,.18.09.12Z" transform="translate(1.28)"/><path class="cls-6" d="M167.43,86.59a.08.08,0,0,0-.1-.12c-.08.06,0,.18.1.12Z" transform="translate(1.28)"/><path class="cls-6" d="M169.64,84.89a.08.08,0,0,0-.1-.12c-.08.06,0,.19.1.12Z" transform="translate(1.28)"/><path class="cls-6" d="M169.64,86.1a.08.08,0,0,0-.1-.12c-.08.06,0,.18.1.12Z" transform="translate(1.28)"/><path class="cls-6" d="M172.09,86c.08-.06,0-.18-.09-.12s0,.19.09.12Z" transform="translate(1.28)"/><path class="cls-6" d="M173.22,87c.07-.07,0-.19-.1-.12s0,.18.1.12Z" transform="translate(1.28)"/></g><g class="cls-16"><path class="cls-3" d="M174.25,63.94a1.91,1.91,0,0,0,.1.67,3.88,3.88,0,0,0,2,2.85,3.85,3.85,0,0,0,2.06.82,3,3,0,0,0,1-.21,4.92,4.92,0,0,0,2.69-2.54,2.37,2.37,0,0,0,.25-1.07,3.16,3.16,0,0,0-.63-1.47c-.28-.43-.56-.85-.85-1.27a3.7,3.7,0,0,0-1-1.14,2.62,2.62,0,0,0-2.39,0,5,5,0,0,0-2,1.6C175,62.69,174.3,63.26,174.25,63.94Z" transform="translate(1.28)"/><path class="cls-4" d="M175,66.14c.21,0,.42,0,.63,0,.53,0,1,.43,1.47.58a1.7,1.7,0,0,0,1.86-.64,2.25,2.25,0,0,1,.41-.55,1.86,1.86,0,0,1,.77-.23,2.59,2.59,0,0,0,2-2.08,3.78,3.78,0,0,1,.61,1,2,2,0,0,1,.16,1.15,2.25,2.25,0,0,1-.47.84,10.79,10.79,0,0,1-4.62,2.88,1.87,1.87,0,0,1-1.2.16,1.57,1.57,0,0,1-.55-.37A7.57,7.57,0,0,1,174.57,67c-.22-.38-.79-1.25-.46-1.68C174.45,65.59,174.56,66,175,66.14Z" transform="translate(1.28)"/><path class="cls-5" d="M180.09,62.87s0-.06,0,0a0,0,0,1,0,0,0Z" transform="translate(1.28)"/><path class="cls-5" d="M178.34,64.39s0-.07,0,0,0,.06,0,0Z" transform="translate(1.28)"/><path class="cls-5" d="M178.15,63s0-.06,0,0,0,.06,0,0Z" transform="translate(1.28)"/><path class="cls-5" d="M178,64.45s0-.06,0,0a0,0,0,1,0,0,0Z" transform="translate(1.28)"/><path class="cls-5" d="M175.89,64.88s0-.07,0,0,0,.06,0,0Z" transform="translate(1.28)"/><path class="cls-5" d="M176.69,63.44s0-.06,0,0,0,.06,0,0Z" transform="translate(1.28)"/><path class="cls-5" d="M176.75,64.55s0-.06,0,0a0,0,0,1,0,0,0Z" transform="translate(1.28)"/><path class="cls-6" d="M178.66,63.75s0-.06,0,0a0,0,0,1,0,0,0Z" transform="translate(1.28)"/><path class="cls-6" d="M178,65.17s0-.06,0,0,0,.06,0,0Z" transform="translate(1.28)"/><path class="cls-6" d="M177.63,64a0,0,0,1,0,0,0s0,.06,0,0Z" transform="translate(1.28)"/><path class="cls-6" d="M176.42,65s0-.06,0,0a0,0,0,1,0,0,0Z" transform="translate(1.28)"/><path class="cls-6" d="M176.36,63.38s0-.06,0,0a0,0,0,1,0,0,0Z" transform="translate(1.28)"/><path class="cls-6" d="M175.13,64.56s0-.06,0,0a0,0,0,1,0,0,0Z" transform="translate(1.28)"/><path class="cls-6" d="M175.36,63.3a0,0,0,1,0,0,0s0,.06,0,0Z" transform="translate(1.28)"/><path class="cls-6" d="M176.81,61.58s0-.06,0,0,0,.06,0,0Z" transform="translate(1.28)"/><path class="cls-6" d="M178.92,61a0,0,0,1,0,0,0s0,.06,0,0Z" transform="translate(1.28)"/><path class="cls-6" d="M177.08,62.91l0,0a0,0,0,0,0,0,0h0v0l0,0h0v0Z" transform="translate(1.28)"/><path class="cls-6" d="M176.24,62.08s0-.06,0,0a0,0,0,1,0,0,0Z" transform="translate(1.28)"/><path class="cls-6" d="M178.49,62.17s0-.06,0,0,0,.06,0,0Z" transform="translate(1.28)"/><path class="cls-6" d="M179,62.45s0-.06,0,0,0,.06,0,0Z" transform="translate(1.28)"/><path class="cls-6" d="M178.92,63.5s0-.07,0,0,0,.06,0,0Z" transform="translate(1.28)"/><path class="cls-6" d="M180.06,62.66s0-.06,0,0,0,.07,0,0Z" transform="translate(1.28)"/><path class="cls-6" d="M180.4,63.55a0,0,0,1,0,0,0s0,.06,0,0Z" transform="translate(1.28)"/><path class="cls-6" d="M180.13,64.19s0-.06,0,0a0,0,0,1,0,0,0Z" transform="translate(1.28)"/><path class="cls-6" d="M181.28,65s0-.06,0,0,0,.06,0,0Z" transform="translate(1.28)"/><path class="cls-6" d="M180.94,66a0,0,0,1,0,0,0s0,.06,0,0Z" transform="translate(1.28)"/><path class="cls-6" d="M180.23,65.92s0-.06,0,0a0,0,0,1,0,0,0Z" transform="translate(1.28)"/><path class="cls-6" d="M179.85,66.6s0-.06,0,0,0,.06,0,0Z" transform="translate(1.28)"/><path class="cls-6" d="M178.56,67.18s0-.06,0,0,0,.07,0,0Z" transform="translate(1.28)"/><path class="cls-6" d="M177.6,67.26s0-.06,0,0,0,.07,0,0Z" transform="translate(1.28)"/><path class="cls-6" d="M175.38,66.59s0-.06,0,0,0,.07,0,0Z" transform="translate(1.28)"/><path class="cls-6" d="M176.49,65.61s0-.07,0,0,0,.06,0,0Z" transform="translate(1.28)"/><path class="cls-6" d="M176.26,66.76s0-.06,0,0,0,.07,0,0Z" transform="translate(1.28)"/><path class="cls-6" d="M177.27,66s0-.06,0,0,0,.06,0,0Z" transform="translate(1.28)"/><path class="cls-6" d="M177.58,67l0,0a0,0,0,0,1,0,0h-.05l0,0s0,0,0,0h0Z" transform="translate(1.28)"/><path class="cls-6" d="M179,65.74a0,0,0,1,0,0,0s0,.06,0,0Z" transform="translate(1.28)"/><path class="cls-6" d="M178.9,65.77c.07-.07,0-.19-.1-.12s0,.18.1.12Z" transform="translate(1.28)"/><path class="cls-6" d="M178,66.36c.08-.06,0-.18-.09-.12s0,.19.09.12Z" transform="translate(1.28)"/><path class="cls-6" d="M177.28,65.49c.08-.06,0-.18-.1-.12a.08.08,0,1,0,.1.12Z" transform="translate(1.28)"/><path class="cls-6" d="M180,64.29a.08.08,0,0,0-.1-.12c-.08.06,0,.18.1.12Z" transform="translate(1.28)"/><path class="cls-6" d="M179.91,65.13c.08-.06,0-.18-.09-.12s0,.18.09.12Z" transform="translate(1.28)"/><path class="cls-6" d="M181.06,64.53a.08.08,0,0,0-.1-.12c-.08.06,0,.18.1.12Z" transform="translate(1.28)"/><path class="cls-6" d="M181.06,65.69c.08-.07,0-.19-.09-.12s0,.18.09.12Z" transform="translate(1.28)"/><path class="cls-6" d="M180.56,66.84a.08.08,0,0,0-.1-.12c-.08.06,0,.18.1.12Z" transform="translate(1.28)"/><path class="cls-6" d="M179.69,67.49c.08-.06,0-.18-.1-.12s0,.19.1.12Z" transform="translate(1.28)"/><path class="cls-6" d="M175.54,63.92c.08-.06,0-.18-.1-.12s0,.19.1.12Z" transform="translate(1.28)"/><path class="cls-6" d="M175.29,65.62a.08.08,0,0,0-.1-.12c-.08.06,0,.18.1.12Z" transform="translate(1.28)"/><path class="cls-6" d="M176.65,64.14c.08-.06,0-.18-.1-.12s0,.19.1.12Z" transform="translate(1.28)"/><path class="cls-6" d="M175.48,62.53c.08-.06,0-.18-.09-.12a.07.07,0,1,0,.09.12Z" transform="translate(1.28)"/><path class="cls-6" d="M177.69,60.83c.08-.06,0-.18-.1-.12s0,.19.1.12Z" transform="translate(1.28)"/><path class="cls-6" d="M177.69,62c.08-.06,0-.18-.09-.12s0,.18.09.12Z" transform="translate(1.28)"/><path class="cls-6" d="M180.15,61.91c.08-.06,0-.18-.1-.12a.08.08,0,1,0,.1.12Z" transform="translate(1.28)"/><path class="cls-6" d="M181.27,63a.08.08,0,1,0-.1-.12.08.08,0,0,0,.1.12Z" transform="translate(1.28)"/></g><g class="cls-17"><path class="cls-3" d="M109.84,77a10.07,10.07,0,0,0,2.55,2.45c2.84,2.13,5.81,4.25,9.24,5a24,24,0,0,0,7.75,0c3.81-.43,7.86-1.06,10.84-3.68a15.79,15.79,0,0,0,3.23-4.22,28.3,28.3,0,0,0,2.79-19.85,12.67,12.67,0,0,0-2.41-5.35c-1.82-2.15-4.57-3.09-7.19-3.94-2.47-.8-4.94-1.61-7.43-2.36s-5.19-1.5-7.83-1.1c-4.21.64-7.72,4.1-9.7,8.1a28.54,28.54,0,0,0-3,13.67C108.89,69.16,107.91,74,109.84,77Z" transform="translate(1.28)"/><path class="cls-4" d="M120,83.43a26.78,26.78,0,0,0,2.55-2.12c2.23-1.69,5.22-1.54,7.75-2.64a9.64,9.64,0,0,0,5.47-9.12,12.7,12.7,0,0,1-.09-3.69c.35-1.43,1.45-2.49,2.34-3.64a14.78,14.78,0,0,0,1.39-15.5A19,19,0,0,1,145,48.87a9.76,9.76,0,0,1,4.28,4.27,11.82,11.82,0,0,1,.79,5.1c-.19,9.93-4.67,19.28-9.47,27.94-1.07,1.93-2.31,4-4.28,4.79a8,8,0,0,1-3.4.4,36.9,36.9,0,0,1-12-2.59c-2-.82-7.11-2.47-7.17-5.43C115.89,83.18,117.76,84.67,120,83.43Z" transform="translate(1.28)"/><path class="cls-5" d="M129.93,52.37a.13.13,0,1,0-.26,0,.13.13,0,1,0,.26,0Z" transform="translate(1.28)"/><path class="cls-5" d="M127.68,64.72a.13.13,0,1,0-.26,0,.13.13,0,1,0,.26,0Z" transform="translate(1.28)"/><path class="cls-5" d="M122.4,59.39a.13.13,0,1,0-.26-.06.13.13,0,1,0,.26.06Z" transform="translate(1.28)"/><path class="cls-5" d="M126.41,66.26a.13.13,0,1,0-.26-.06.13.13,0,1,0,.26.06Z" transform="translate(1.28)"/><path class="cls-5" d="M119.42,75.19a.13.13,0,1,0-.26,0,.13.13,0,1,0,.26,0Z" transform="translate(1.28)"/><path class="cls-5" d="M118.06,66.48a.13.13,0,1,0-.25,0,.13.13,0,1,0,.25,0Z" transform="translate(1.28)"/><path class="cls-5" d="M121.84,70.9a.13.13,0,1,0-.26-.06.13.13,0,1,0,.26.06Z" transform="translate(1.28)"/><path class="cls-6" d="M127,61a.13.13,0,1,0-.26-.05A.13.13,0,1,0,127,61Z" transform="translate(1.28)"/><path class="cls-6" d="M128.81,69.17a.13.13,0,1,0-.26,0,.13.13,0,1,0,.26,0Z" transform="translate(1.28)"/><path class="cls-6" d="M123.57,65.45a.13.13,0,1,0-.26-.06.13.13,0,1,0,.26.06Z" transform="translate(1.28)"/><path class="cls-6" d="M122,73.93a.13.13,0,1,0-.26-.06.13.13,0,1,0,.26.06Z" transform="translate(1.28)"/><path class="cls-6" d="M116.56,67.37a.13.13,0,1,0-.26-.06.13.13,0,1,0,.26.06Z" transform="translate(1.28)"/><path class="cls-6" d="M115.36,76.53a.13.13,0,1,0-.26,0,.13.13,0,1,0,.26,0Z" transform="translate(1.28)"/><path class="cls-6" d="M112.31,70.47a.13.13,0,1,0-.26,0,.13.13,0,1,0,.26,0Z" transform="translate(1.28)"/><path class="cls-6" d="M112.63,58.31a.13.13,0,1,0-.25-.05.13.13,0,1,0,.25.05Z" transform="translate(1.28)"/><path class="cls-6" d="M119.25,48.5a.13.13,0,1,0-.26-.06.13.13,0,1,0,.26.06Z" transform="translate(1.28)"/><path class="cls-6" d="M117.94,62.91l-.18,0a.11.11,0,0,0-.1,0,.08.08,0,0,0,0,0,.08.08,0,0,0,0,0,.12.12,0,0,0,0,.1.15.15,0,0,0,.09.06l.18,0a.12.12,0,0,0,.1,0l0,0,0,0a.18.18,0,0,0,0-.1s0-.06-.08-.06Z" transform="translate(1.28)"/><path class="cls-6" d="M112,62.38a.13.13,0,1,0-.26-.05.13.13,0,1,0,.26.05Z" transform="translate(1.28)"/><path class="cls-6" d="M121.27,54.94a.13.13,0,1,0-.25,0,.13.13,0,1,0,.25,0Z" transform="translate(1.28)"/><path class="cls-6" d="M124.22,54.36a.13.13,0,1,0-.25,0,.13.13,0,1,0,.25,0Z" transform="translate(1.28)"/><path class="cls-6" d="M127.2,59a.13.13,0,1,0-.26-.06.13.13,0,1,0,.26.06Z" transform="translate(1.28)"/><path class="cls-6" d="M129.15,51.6a.13.13,0,1,0-.26-.05.13.13,0,1,0,.26.05Z" transform="translate(1.28)"/><path class="cls-6" d="M133.33,54.1a.13.13,0,1,0-.25-.06.13.13,0,1,0,.25.06Z" transform="translate(1.28)"/><path class="cls-6" d="M134.27,57.7a.13.13,0,1,0-.26-.05.13.13,0,1,0,.26.05Z" transform="translate(1.28)"/><path class="cls-6" d="M141.53,57.24a.13.13,0,1,0-.26-.05.13.13,0,1,0,.26.05Z" transform="translate(1.28)"/><path class="cls-6" d="M143.26,62.42a.13.13,0,1,0-.26-.05.13.13,0,1,0,.26.05Z" transform="translate(1.28)"/><path class="cls-6" d="M140.16,64.57a.13.13,0,1,0-.26-.06.13.13,0,1,0,.26.06Z" transform="translate(1.28)"/><path class="cls-6" d="M140.79,68.71a.13.13,0,1,0-.26,0,.13.13,0,1,0,.26,0Z" transform="translate(1.28)"/><path class="cls-6" d="M137.44,75.61a.13.13,0,1,0-.26,0,.13.13,0,1,0,.26,0Z" transform="translate(1.28)"/><path class="cls-6" d="M133.83,79.26a.13.13,0,1,0-.26-.06.13.13,0,1,0,.26.06Z" transform="translate(1.28)"/><path class="cls-6" d="M122.8,84.13a.13.13,0,1,0-.26-.06.13.13,0,1,0,.26.06Z" transform="translate(1.28)"/><path class="cls-6" d="M124.11,76.19a.13.13,0,1,0-.26-.06.13.13,0,1,0,.26.06Z" transform="translate(1.28)"/><path class="cls-6" d="M126.88,81.79a.13.13,0,1,0-.26-.05.13.13,0,1,0,.26.05Z" transform="translate(1.28)"/><path class="cls-6" d="M128.49,75.12a.13.13,0,1,0-.26-.06.13.13,0,1,0,.26.06Z" transform="translate(1.28)"/><path class="cls-6" d="M132.77,78l0-.19a.2.2,0,0,0,0-.11l0,0,0,0a.1.1,0,0,0-.1,0s-.05,0-.05.08l0,.2a.12.12,0,0,0,0,.1.08.08,0,0,0,0,0l.05,0a.1.1,0,0,0,.09,0,.15.15,0,0,0,.06-.09Z" transform="translate(1.28)"/><path class="cls-6" d="M134.49,68.17a.13.13,0,1,0-.26,0,.13.13,0,1,0,.26,0Z" transform="translate(1.28)"/><path class="cls-6" d="M134.31,68.54a.4.4,0,1,0-.78-.17.4.4,0,1,0,.78.17Z" transform="translate(1.28)"/><path class="cls-6" d="M132.54,74.17a.39.39,0,1,0-.77-.16.39.39,0,1,0,.77.16Z" transform="translate(1.28)"/><path class="cls-6" d="M127,73a.39.39,0,1,0-.77-.16A.39.39,0,1,0,127,73Z" transform="translate(1.28)"/><path class="cls-6" d="M134.18,58.49a.39.39,0,1,0-.77-.17.39.39,0,1,0,.77.17Z" transform="translate(1.28)"/><path class="cls-6" d="M136.37,62.36a.39.39,0,1,0-.77-.16.39.39,0,1,0,.77.16Z" transform="translate(1.28)"/><path class="cls-6" d="M139.06,55.92a.39.39,0,1,0-.77-.17.39.39,0,1,0,.77.17Z" transform="translate(1.28)"/><path class="cls-6" d="M142.76,60.71a.39.39,0,1,0-.77-.16.39.39,0,1,0,.77.16Z" transform="translate(1.28)"/><path class="cls-6" d="M144.38,67.27a.39.39,0,1,0-.77-.16.39.39,0,1,0,.77.16Z" transform="translate(1.28)"/><path class="cls-6" d="M143,73a.39.39,0,1,0-.77-.17A.39.39,0,1,0,143,73Z" transform="translate(1.28)"/><path class="cls-6" d="M115,72.45a.39.39,0,1,0-.77-.17.39.39,0,1,0,.77.17Z" transform="translate(1.28)"/><path class="cls-6" d="M119.34,80.39a.39.39,0,1,0-.77-.17.39.39,0,1,0,.77.17Z" transform="translate(1.28)"/><path class="cls-6" d="M120.14,69.53a.39.39,0,1,0-.77-.16.39.39,0,1,0,.77.16Z" transform="translate(1.28)"/><path class="cls-6" d="M110.33,66.85a.39.39,0,1,0-.77-.17.39.39,0,1,0,.77.17Z" transform="translate(1.28)"/><path class="cls-6" d="M113.83,52.16a.39.39,0,1,0-.77-.17.39.39,0,1,0,.77.17Z" transform="translate(1.28)"/><path class="cls-6" d="M117.67,57.18a.39.39,0,1,0-.77-.16.39.39,0,1,0,.77.16Z" transform="translate(1.28)"/><path class="cls-6" d="M127.13,48.17a.39.39,0,1,0-.77-.17.39.39,0,1,0,.77.17Z" transform="translate(1.28)"/><path class="cls-6" d="M135,48.63a.39.39,0,1,0-.77-.17.39.39,0,1,0,.77.17Z" transform="translate(1.28)"/></g></g></g></svg>