<?xml version="1.0" encoding="utf-8"?><!--Generator: Adobe Illustrator 26.0.3, SVG Export Plug-In . SVG Version: 6.00 Build 0)--><svg version="1.1" id="Layer_1" xmlns="http://www.w3.org/2000/svg" xmlns:xlink="http://www.w3.org/1999/xlink" x="0px" y="0px" viewBox="0 0 181.2 146.1" style="enable-background:new 0 0 181.2 146.1" xml:space="preserve"><style type="text/css">.st0{fill:#AB9C8A;}
	.st1{display:none;}
	.st2{display:inline;fill:#1E2873;}
	.st3{fill:#330033;}
	.st4{fill:#5162B5;}
	.st5{fill:#6D6753;}</style><g id="Layer_2"/><path class="st0" d="M174.4,40.4c0.1,1.2,0.2,2.3-0.4,4.5c-1.6,5.6-6,8.2-7.5,9c-6.2,3.2-12.2,0-13-0.4c0.1-1.6-7.2,12.8-24.1,5.5
	c-0.2-1.6-3.4,5-14.5,5c-14.8-1.9-11.1-9.3-11-9.6c-0.3,0.1-8,2.9-14.4-1.6c-5-4.3-5.4-9.9-1.7-15.2c3.4-4.2,8.9-7.9,17.1-4.4
	c0,0,7.4-20.6,24.1-6.6c0,0,4.6-15.2,16.3-9.7c11.5,5.4,9.3,14.9,9.3,15.1c1-0.4,7.9-3.5,13.8,0.3C172.2,34.6,174,38.4,174.4,40.4z"/><path class="st0" d="M51.8,104.6c0.1,0.6,0.1,1.2-0.2,2.3c-0.8,2.9-3.1,4.2-3.8,4.6c-3.2,1.6-6.3,0-6.7-0.2
	c0.1-0.8-3.7,6.6-12.4,2.8c-0.1-0.8-1.7,2.6-7.5,2.6c-7.6-1-5.7-4.8-5.6-4.9c-0.2,0.1-4.1,1.5-7.4-0.8c-2.6-2.2-2.8-5.1-0.9-7.8
	c1.8-2.2,4.6-4,8.8-2.3c0,0,3.8-10.6,12.4-3.4c0,0,2.4-7.8,8.4-5c5.9,2.8,4.8,7.7,4.8,7.8c0.5-0.2,4.1-1.8,7.1,0.2
	C50.7,101.6,51.6,103.6,51.8,104.6z"/><g class="st1"><path class="st2" d="M21.5,63.6l0.4-2c0-0.1,0.1-0.1,0.2-0.1s0.1,0.1,0.1,0.2c0,0,0,0,0,0l0,0l-0.5,1.9l0,0c0,0.1-0.1,0.1-0.1,0.1
		C21.5,63.7,21.5,63.6,21.5,63.6z"/><path class="st2" d="M22.3,59.6l0.2-1c0-0.1,0.1-0.2,0.3-0.2c0.1,0,0.2,0.1,0.2,0.3c0,0,0,0,0,0l-0.3,1c0,0.1-0.1,0.2-0.2,0.1
		C22.4,59.8,22.3,59.7,22.3,59.6z"/><path class="st2" d="M22.8,57.7l0.6-1.9c0-0.1,0.2-0.2,0.3-0.2s0.2,0.2,0.2,0.3c0,0,0,0,0,0l0,0l-0.6,1.9c0,0.1-0.2,0.2-0.3,0.2
		C22.9,57.9,22.8,57.8,22.8,57.7z"/><path class="st2" d="M24,53.8l0.3-1c0.1-0.2,0.2-0.3,0.4-0.2c0.2,0.1,0.3,0.2,0.2,0.4c0,0,0,0,0,0L24.6,54
		c-0.1,0.2-0.2,0.2-0.4,0.2C24,54.2,23.9,54,24,53.8z"/><path class="st2" d="M24.6,51.9l0.7-1.9c0.1-0.2,0.3-0.3,0.5-0.2c0.2,0.1,0.3,0.3,0.2,0.5c0,0,0,0,0,0l0,0l-0.7,1.9l0,0
		c-0.1,0.2-0.3,0.3-0.5,0.2C24.6,52.3,24.5,52.1,24.6,51.9z"/><path class="st2" d="M26,48.2l0.4-0.9c0.1-0.2,0.3-0.3,0.6-0.3c0.2,0.1,0.3,0.3,0.3,0.6c0,0,0,0,0,0l-0.4,0.9
		c-0.1,0.2-0.3,0.3-0.6,0.2C26,48.6,25.9,48.4,26,48.2z"/><path class="st2" d="M26.7,46.3l0.8-1.9c0.1-0.2,0.4-0.4,0.6-0.3c0.2,0.1,0.4,0.4,0.3,0.6c0,0,0,0,0,0l0,0l-0.8,1.8l0,0
		c-0.1,0.2-0.4,0.3-0.6,0.2C26.7,46.8,26.6,46.5,26.7,46.3z"/><path class="st2" d="M28.3,42.6l0.4-0.9c0.1-0.3,0.4-0.4,0.7-0.3c0.3,0.1,0.4,0.4,0.3,0.7c0,0,0,0,0,0l0,0L29.2,43l0,0
		c-0.1,0.3-0.4,0.4-0.7,0.2C28.3,43.2,28.2,42.9,28.3,42.6z"/><path class="st2" d="M29.1,40.8L30,39c0.1-0.3,0.5-0.4,0.8-0.3c0.3,0.1,0.4,0.5,0.3,0.8c0,0,0,0,0,0l0,0l-0.9,1.8l0,0
		c-0.1,0.3-0.5,0.4-0.7,0.2C29.1,41.4,29,41.1,29.1,40.8z"/><path class="st2" d="M30.9,37.2l0.5-0.9c0.2-0.3,0.5-0.4,0.8-0.2c0.3,0.2,0.4,0.5,0.2,0.8c0,0,0,0,0,0l0,0L32,37.8l0,0
		c-0.2,0.3-0.5,0.4-0.8,0.2C30.9,37.8,30.8,37.5,30.9,37.2z"/><path class="st2" d="M31.9,35.4l1-1.7c0.2-0.3,0.6-0.4,0.9-0.2c0.3,0.2,0.4,0.6,0.2,0.9c0,0,0,0,0,0l0,0L33,36l0,0
		c-0.2,0.3-0.5,0.4-0.8,0.2C31.8,36.1,31.7,35.7,31.9,35.4z"/><path class="st2" d="M33.9,32l0.5-0.9c0.2-0.3,0.6-0.4,0.9-0.2c0.3,0.2,0.4,0.6,0.2,0.9c0,0,0,0,0,0l0,0L35,32.7l0,0
		c-0.2,0.3-0.6,0.4-0.9,0.2C33.8,32.7,33.7,32.3,33.9,32z"/><path class="st2" d="M35,30.2l1.1-1.7c0.2-0.3,0.7-0.4,1-0.2c0.3,0.2,0.4,0.7,0.2,1c0,0,0,0,0,0l0,0L36.1,31l0,0
		c-0.2,0.3-0.6,0.4-0.9,0.2C34.9,31,34.8,30.6,35,30.2z"/><path class="st2" d="M37.3,26.9l0.6-0.8c0.2-0.3,0.7-0.4,1-0.2s0.4,0.7,0.2,1c0,0,0,0,0,0l0,0l-0.6,0.8l0,0c-0.2,0.3-0.7,0.4-1,0.1
		C37.1,27.7,37,27.2,37.3,26.9z"/><path class="st2" d="M38.4,25.3l1.2-1.6c0.3-0.3,0.7-0.4,1.1-0.1s0.4,0.7,0.1,1.1l0,0l0,0l-1.2,1.6l0,0c-0.3,0.3-0.7,0.4-1.1,0.1
		C38.2,26.1,38.2,25.6,38.4,25.3z"/><path class="st2" d="M41,22.1l0.7-0.8c0.3-0.3,0.8-0.4,1.1-0.1s0.4,0.8,0.1,1.1l0,0l0,0l-0.6,0.8l0,0c-0.3,0.3-0.8,0.4-1.1,0.1
		C40.7,22.9,40.7,22.4,41,22.1z"/><path class="st2" d="M42.3,20.6l1.4-1.5c0.3-0.3,0.8-0.3,1.1-0.1c0.3,0.3,0.3,0.8,0.1,1.1l0,0l0,0l-1.3,1.5l0,0
		c-0.3,0.3-0.8,0.3-1.1,0C42,21.4,42,20.9,42.3,20.6z"/><path class="st2" d="M45,17.6l0.7-0.7c0.3-0.3,0.8-0.3,1.1,0c0.3,0.3,0.3,0.8,0,1.1l0,0l0,0l-0.7,0.7l0,0c-0.3,0.3-0.8,0.3-1.1,0
		C44.7,18.4,44.7,17.9,45,17.6z"/><path class="st2" d="M46.4,16.2l1.5-1.4c0.3-0.3,0.8-0.3,1.2,0c0.3,0.3,0.3,0.8,0,1.2l0,0l0,0l-1.4,1.3l0,0c-0.3,0.3-0.8,0.3-1.1,0
		C46.1,17,46.1,16.5,46.4,16.2z"/><path class="st2" d="M49.4,13.4l0.8-0.7c0.3-0.3,0.9-0.3,1.2,0.1s0.3,0.9-0.1,1.2l0,0l0,0l-0.8,0.6l0,0c-0.3,0.3-0.9,0.2-1.2-0.1
		C49,14.3,49.1,13.7,49.4,13.4z"/><path class="st2" d="M51,12.1l1.6-1.3c0.4-0.3,0.9-0.2,1.2,0.1s0.2,0.9-0.1,1.2l0,0l0,0L52,13.4l0,0c-0.4,0.3-0.9,0.2-1.2-0.1
		C50.5,12.9,50.6,12.4,51,12.1z"/><path class="st2" d="M54.2,9.7L55,9.1c0.4-0.3,0.9-0.2,1.2,0.2c0.3,0.4,0.2,0.9-0.2,1.2l0,0l0,0L55.2,11l0,0
		c-0.4,0.3-0.9,0.2-1.2-0.2C53.7,10.5,53.8,9.9,54.2,9.7z"/><path class="st2" d="M55.8,8.5l1.7-1.1c0.4-0.3,0.9-0.2,1.2,0.2C59,8,58.9,8.6,58.5,8.8l0,0l0,0l-1.7,1.1l0,0
		c-0.4,0.3-0.9,0.1-1.2-0.3C55.3,9.3,55.4,8.8,55.8,8.5z"/><path class="st2" d="M59.2,6.3l0.9-0.5c0.4-0.2,1-0.1,1.2,0.3c0.2,0.4,0.1,1-0.3,1.2l0,0l0,0l-0.9,0.5l0,0c-0.4,0.2-1,0.1-1.2-0.3
		C58.7,7.1,58.8,6.5,59.2,6.3z"/><path class="st2" d="M61,5.3l1.8-1c0.4-0.2,1-0.1,1.2,0.4c0.2,0.4,0.1,1-0.4,1.2l0,0l0,0l-1.7,0.9l0,0c-0.4,0.2-1,0.1-1.2-0.4
		C60.4,6.1,60.5,5.5,61,5.3z"/><path class="st2" d="M64.6,3.4L65.5,3c0.4-0.2,1,0,1.2,0.4c0.2,0.4,0,1-0.4,1.2l0,0L65.3,5l0,0c-0.4,0.2-1,0-1.2-0.4
		C63.9,4.2,64.1,3.6,64.6,3.4L64.6,3.4z"/><path class="st2" d="M66.4,2.6l1.9-0.8c0.4-0.2,1,0,1.1,0.5c0.2,0.4,0,1-0.5,1.1l0,0l-1.8,0.7l0,0c-0.5,0.2-1,0-1.1-0.5
		C65.8,3.3,66,2.8,66.4,2.6L66.4,2.6z"/><path class="st2" d="M70.3,1.2l1-0.3c0.5-0.1,0.9,0.1,1.1,0.6c0.1,0.5-0.1,0.9-0.6,1.1l0,0l-0.9,0.3l0,0c-0.5,0.1-0.9-0.1-1.1-0.6
		C69.5,1.8,69.8,1.3,70.3,1.2L70.3,1.2z"/><path class="st2" d="M72.2,0.6l2-0.5c0.5-0.1,0.9,0.2,1,0.6c0.1,0.5-0.2,0.9-0.6,1l0,0l-1.9,0.5l0,0c-0.5,0.1-0.9-0.2-1-0.6
		C71.5,1.2,71.8,0.7,72.2,0.6L72.2,0.6z"/><path class="st2" d="M76.2-0.2l1-0.1c0.5-0.1,0.9,0.3,0.9,0.7c0.1,0.5-0.3,0.9-0.7,0.9l0,0l-1,0.1l0,0c-0.5,0.1-0.9-0.3-0.9-0.7
		C75.5,0.3,75.8-0.1,76.2-0.2L76.2-0.2z"/><path class="st2" d="M78.3-0.4c0.7,0,1.4-0.1,2.1-0.1c0.5,0,0.8,0.4,0.8,0.8c0,0.5-0.4,0.8-0.8,0.8c-0.6,0-1.3,0-1.9,0.1
		c-0.5,0-0.9-0.3-0.9-0.8C77.5,0,77.8-0.4,78.3-0.4L78.3-0.4z"/><path class="st2" d="M82.4-0.3l1,0.1c0.4,0.1,0.7,0.5,0.7,0.9c-0.1,0.4-0.4,0.7-0.9,0.7l0,0l-1-0.1l0,0c-0.4,0-0.8-0.4-0.7-0.9
		S82-0.4,82.4-0.3C82.4-0.3,82.4-0.3,82.4-0.3z"/><path class="st2" d="M84.5,0c0.7,0.1,1.3,0.3,2,0.5C86.9,0.6,87.1,1,87,1.4c-0.1,0.4-0.5,0.6-0.9,0.5c-0.6-0.2-1.2-0.3-1.9-0.4
		c-0.4-0.1-0.7-0.5-0.6-0.9C83.6,0.2,84-0.1,84.5,0C84.5,0,84.5,0,84.5,0z"/><path class="st2" d="M88.4,1.2l0.9,0.4c0.4,0.2,0.5,0.6,0.4,1c-0.2,0.4-0.6,0.5-0.9,0.4l0,0l-0.9-0.4l0,0c-0.4-0.2-0.6-0.6-0.4-1
		C87.6,1.2,88,1,88.4,1.2C88.4,1.2,88.4,1.2,88.4,1.2z"/><path class="st2" d="M90.3,2.1c0.6,0.3,1.2,0.7,1.8,1.1c0.3,0.2,0.4,0.6,0.2,1c-0.2,0.3-0.6,0.4-0.9,0.2c-0.5-0.3-1.1-0.7-1.7-1
		c-0.4-0.2-0.5-0.6-0.3-1C89.5,2,89.9,1.9,90.3,2.1C90.3,2.1,90.3,2.1,90.3,2.1z"/><path class="st2" d="M93.7,4.4L94.5,5c0.3,0.2,0.3,0.6,0.1,0.9C94.4,6.2,94,6.2,93.7,6l0,0l-0.8-0.6l0,0c-0.3-0.2-0.3-0.6-0.1-0.9
		S93.4,4.1,93.7,4.4C93.7,4.4,93.7,4.4,93.7,4.4z"/><path class="st2" d="M95.3,5.7c0.5,0.5,1,1,1.4,1.5c0.2,0.3,0.2,0.6-0.1,0.9C96.4,8.3,96,8.3,95.8,8c-0.4-0.5-0.9-0.9-1.4-1.4
		c-0.3-0.2-0.3-0.6,0-0.9C94.6,5.5,95,5.5,95.3,5.7C95.3,5.7,95.3,5.7,95.3,5.7z"/><path class="st2" d="M98,8.8l0.6,0.8c0.2,0.3,0.1,0.6-0.1,0.8c-0.3,0.2-0.6,0.1-0.8-0.1l0,0L97,9.5l0,0c-0.2-0.3-0.1-0.6,0.1-0.8
		S97.8,8.6,98,8.8C97.9,8.8,98,8.8,98,8.8z"/><path class="st2" d="M99.1,10.5l1,1.8c0.1,0.3,0.1,0.6-0.2,0.7c-0.3,0.1-0.6,0.1-0.7-0.2l0,0l-1-1.7l0,0c-0.2-0.3-0.1-0.6,0.2-0.8
		C98.6,10.2,98.9,10.2,99.1,10.5C99.1,10.5,99.1,10.5,99.1,10.5z"/><path class="st2" d="M101,14.1l0.4,0.9c0.1,0.3,0,0.5-0.3,0.7c-0.2,0.1-0.5,0-0.7-0.2l0,0l-0.4-0.9l0,0c-0.1-0.3,0-0.6,0.2-0.7
		C100.6,13.7,100.9,13.8,101,14.1C101,14.1,101,14.1,101,14.1z"/><path class="st2" d="M101.8,16l0.7,1.9c0.1,0.2,0,0.5-0.3,0.6c-0.2,0.1-0.5,0-0.6-0.3l0,0l-0.7-1.8l0,0c-0.1-0.2,0-0.5,0.3-0.6
		S101.7,15.7,101.8,16C101.8,15.9,101.8,16,101.8,16z"/><path class="st2" d="M103.1,19.8l0.3,1c0.1,0.2-0.1,0.5-0.3,0.5c-0.2,0.1-0.4-0.1-0.5-0.3l0,0l-0.3-0.9l0,0
		c-0.1-0.2,0.1-0.5,0.3-0.5S103,19.5,103.1,19.8C103.1,19.8,103.1,19.8,103.1,19.8z"/><path class="st2" d="M103.6,21.7l0.4,2c0,0.2-0.1,0.4-0.3,0.5c-0.2,0-0.4-0.1-0.5-0.3l0,0l-0.5-1.9l0,0c-0.1-0.2,0.1-0.4,0.3-0.5
		C103.4,21.4,103.6,21.5,103.6,21.7C103.6,21.7,103.6,21.7,103.6,21.7z"/><path class="st2" d="M104.4,25.7l0.1,1c0,0.2-0.1,0.4-0.3,0.4c-0.2,0-0.4-0.1-0.4-0.3l0,0l-0.2-1l0,0c0-0.2,0.1-0.4,0.3-0.4
		S104.4,25.5,104.4,25.7L104.4,25.7z"/><path class="st2" d="M104.7,27.7l0.2,2c0,0.2-0.1,0.4-0.3,0.4c-0.2,0-0.4-0.1-0.4-0.3l0,0l-0.2-2l0,0c0-0.2,0.1-0.4,0.3-0.4
		S104.7,27.5,104.7,27.7L104.7,27.7z"/><path class="st2" d="M105,31.7l0,1c0,0.2-0.1,0.4-0.3,0.4c-0.2,0-0.4-0.1-0.4-0.3l0,0l-0.1-1l0,0c0-0.2,0.1-0.4,0.3-0.4
		S105,31.5,105,31.7L105,31.7z"/><path class="st2" d="M105.1,33.7l0,2c0,0.2-0.1,0.3-0.3,0.3c-0.2,0-0.3-0.1-0.3-0.3l0,0l0-2l0,0c0-0.2,0.1-0.3,0.3-0.3
		C104.9,33.4,105.1,33.5,105.1,33.7L105.1,33.7z"/><path class="st2" d="M105,37.7l-0.1,1c0,0.2-0.2,0.3-0.3,0.3c-0.2,0-0.3-0.2-0.3-0.3l0-1c0-0.2,0.2-0.3,0.3-0.3
		C104.9,37.4,105,37.5,105,37.7L105,37.7z"/><path class="st2" d="M104.9,39.7l-0.2,2c0,0.2-0.2,0.3-0.3,0.3c-0.2,0-0.3-0.2-0.3-0.3l0,0l0.2-2l0,0c0-0.2,0.2-0.3,0.3-0.3
		C104.8,39.4,104.9,39.6,104.9,39.7L104.9,39.7z"/><path class="st2" d="M104.5,43.7l-0.1,1c0,0.2-0.2,0.3-0.3,0.3s-0.3-0.2-0.3-0.3l0,0l0.1-1c0-0.2,0.2-0.3,0.3-0.3
		C104.4,43.4,104.5,43.6,104.5,43.7z"/><path class="st2" d="M104.3,45.7l-0.3,2c0,0.2-0.2,0.3-0.4,0.3c-0.2,0-0.3-0.2-0.3-0.4l0,0l0,0l0.3-2l0,0c0-0.2,0.2-0.3,0.4-0.3
		C104.2,45.4,104.3,45.6,104.3,45.7z"/><path class="st2" d="M103.6,49.7l-0.2,1c0,0.2-0.2,0.3-0.4,0.3s-0.3-0.2-0.3-0.4l0,0l0.2-1c0-0.2,0.2-0.3,0.4-0.3
		C103.5,49.3,103.6,49.5,103.6,49.7z"/><path class="st2" d="M103.1,51.6l-0.5,2c0,0.2-0.2,0.3-0.4,0.3c-0.2,0-0.3-0.2-0.3-0.4l0,0l0,0l0.5-1.9l0,0c0-0.2,0.2-0.3,0.4-0.2
		C103.1,51.3,103.2,51.5,103.1,51.6z"/><path class="st2" d="M102.1,55.5l-0.3,1c-0.1,0.2-0.3,0.3-0.4,0.2c-0.2-0.1-0.3-0.3-0.2-0.4l0,0l0.3-1c0.1-0.2,0.2-0.3,0.4-0.2
		C102.1,55.1,102.2,55.3,102.1,55.5z"/><path class="st2" d="M101.6,57.5l-0.6,1.9c-0.1,0.2-0.3,0.3-0.5,0.2c-0.2-0.1-0.3-0.3-0.2-0.5l0,0l0,0l0.6-1.9l0,0
		c0.1-0.2,0.3-0.3,0.5-0.2C101.5,57.1,101.6,57.3,101.6,57.5z"/><path class="st2" d="M100.3,61.3l-0.3,0.9c-0.1,0.2-0.3,0.3-0.5,0.2c-0.2-0.1-0.3-0.3-0.2-0.5c0,0,0,0,0,0l0.4-0.9
		c0.1-0.2,0.3-0.3,0.5-0.2C100.2,60.9,100.3,61.1,100.3,61.3z"/><path class="st2" d="M99.6,63.1L98.8,65c-0.1,0.2-0.3,0.3-0.5,0.2c-0.2-0.1-0.3-0.3-0.2-0.5c0,0,0,0,0,0l0,0l0.8-1.8l0,0
		c0.1-0.2,0.3-0.3,0.5-0.2C99.6,62.7,99.6,62.9,99.6,63.1z"/><path class="st2" d="M98,66.9l-0.4,0.9c-0.1,0.2-0.4,0.3-0.6,0.2c-0.2-0.1-0.3-0.4-0.2-0.6c0,0,0,0,0,0l0.4-0.9
		c0.1-0.2,0.4-0.3,0.6-0.2C98,66.4,98.1,66.6,98,66.9z"/><path class="st2" d="M97.2,68.7l-0.8,1.8c-0.1,0.2-0.4,0.3-0.6,0.2c-0.2-0.1-0.3-0.4-0.2-0.6c0,0,0,0,0,0l0,0l0.9-1.8l0,0
		c0.1-0.2,0.4-0.3,0.6-0.2C97.2,68.2,97.3,68.5,97.2,68.7z"/><path class="st2" d="M95.5,72.3l-0.4,0.9c-0.1,0.3-0.4,0.4-0.7,0.2c-0.3-0.1-0.4-0.4-0.2-0.7c0,0,0,0,0,0l0.5-0.9
		c0.1-0.2,0.4-0.3,0.7-0.2C95.5,71.8,95.6,72.1,95.5,72.3z"/><path class="st2" d="M94.6,74.1l-0.9,1.8c-0.1,0.3-0.5,0.4-0.7,0.2c-0.3-0.1-0.4-0.5-0.2-0.7c0,0,0,0,0,0l0,0l0.9-1.8l0,0
		c0.1-0.3,0.4-0.3,0.7-0.2C94.7,73.6,94.7,73.9,94.6,74.1z"/><path class="st2" d="M92.8,77.7l-0.5,0.9c-0.1,0.3-0.5,0.4-0.8,0.2s-0.4-0.5-0.2-0.8c0,0,0,0,0,0l0.5-0.9c0.1-0.3,0.5-0.4,0.8-0.2
		C92.8,77.1,92.9,77.4,92.8,77.7z"/><path class="st2" d="M91.8,79.5l-1,1.8c-0.2,0.3-0.5,0.4-0.8,0.2c-0.3-0.2-0.4-0.5-0.2-0.8c0,0,0,0,0,0l1-1.7
		c0.2-0.3,0.5-0.4,0.8-0.2C91.9,78.8,92,79.2,91.8,79.5z"/><path class="st2" d="M89.9,83l-0.5,0.9c-0.2,0.3-0.6,0.4-0.9,0.2c-0.3-0.2-0.4-0.6-0.2-0.9c0,0,0,0,0,0l0.5-0.9
		c0.2-0.3,0.6-0.4,0.9-0.2C90,82.3,90.1,82.7,89.9,83z"/><path class="st2" d="M88.9,84.7l-1,1.7c-0.2,0.3-0.6,0.4-0.9,0.3c-0.3-0.2-0.4-0.6-0.3-0.9c0,0,0,0,0,0l1-1.7
		c0.2-0.3,0.6-0.4,0.9-0.2C89,84,89.1,84.4,88.9,84.7z"/><path class="st2" d="M86.9,88.2l-0.5,0.9c-0.2,0.3-0.6,0.5-1,0.3c-0.3-0.2-0.5-0.6-0.3-1c0,0,0,0,0,0l0.5-0.9
		c0.2-0.3,0.6-0.4,1-0.2C87,87.4,87.1,87.9,86.9,88.2z"/><path class="st2" d="M85.9,89.9l-1,1.7c-0.2,0.4-0.7,0.5-1,0.3s-0.5-0.7-0.3-1c0,0,0,0,0,0l1.1-1.7c0.2-0.3,0.6-0.4,1-0.2
		C86,89.1,86.1,89.6,85.9,89.9z"/><path class="st2" d="M83.9,93.4l-0.5,0.9c-0.2,0.4-0.7,0.5-1.1,0.3c-0.4-0.2-0.5-0.7-0.3-1.1c0,0,0,0,0,0l0.5-0.9
		c0.2-0.4,0.7-0.5,1-0.2C84,92.6,84.1,93,83.9,93.4z"/><path class="st2" d="M82.9,95.1l-1,1.7c-0.2,0.4-0.7,0.5-1.1,0.3c-0.4-0.2-0.5-0.7-0.3-1.1c0,0,0,0,0,0l1.1-1.7
		c0.2-0.4,0.7-0.5,1.1-0.3C83,94.3,83.1,94.7,82.9,95.1z"/><path class="st2" d="M80.8,98.5l-0.5,0.9c-0.2,0.4-0.7,0.5-1.1,0.3s-0.5-0.7-0.3-1.1c0,0,0,0,0,0l0.5-0.9c0.2-0.4,0.7-0.5,1.1-0.3
		C80.9,97.7,81,98.1,80.8,98.5z"/><path class="st2" d="M79.8,100.2l-1,1.7c-0.2,0.4-0.7,0.5-1.1,0.3c-0.4-0.2-0.5-0.7-0.3-1.1c0,0,0,0,0,0l1.1-1.7
		c0.2-0.4,0.7-0.5,1.1-0.3C79.9,99.4,80,99.9,79.8,100.2z"/><path class="st2" d="M77.7,103.7l-0.5,0.9c-0.2,0.4-0.8,0.5-1.2,0.3c-0.4-0.2-0.5-0.8-0.3-1.2c0,0,0,0,0,0l0.5-0.9
		c0.2-0.4,0.8-0.5,1.2-0.3C77.8,102.8,78,103.3,77.7,103.7z"/><path class="st2" d="M76.7,105.4l-1,1.7c-0.2,0.4-0.8,0.6-1.2,0.3c-0.4-0.2-0.6-0.8-0.3-1.2c0,0,0,0,0,0l1-1.7
		c0.2-0.4,0.8-0.5,1.2-0.3C76.8,104.5,77,105,76.7,105.4z"/><path class="st2" d="M74.7,108.8l-0.5,0.9c-0.2,0.4-0.8,0.6-1.2,0.3s-0.6-0.8-0.3-1.2c0,0,0,0,0,0l0.5-0.9c0.3-0.4,0.8-0.6,1.2-0.3
		C74.8,107.9,75,108.4,74.7,108.8z"/><path class="st2" d="M73.7,110.6l-1,1.7l0,0c-0.2,0.4-0.8,0.6-1.2,0.3c-0.4-0.2-0.6-0.8-0.3-1.2l0,0l1-1.7c0.2-0.4,0.8-0.6,1.2-0.3
		C73.8,109.6,74,110.1,73.7,110.6L73.7,110.6z"/><path class="st2" d="M71.8,114.1l-0.5,0.9l0,0c-0.2,0.5-0.8,0.6-1.3,0.4c-0.5-0.2-0.6-0.8-0.4-1.3l0,0l0.5-0.9
		c0.2-0.4,0.8-0.6,1.3-0.4C71.9,113,72,113.6,71.8,114.1L71.8,114.1z"/><path class="st2" d="M70.9,115.8l-0.9,1.8l0,0c-0.2,0.5-0.8,0.6-1.3,0.4c-0.5-0.2-0.6-0.8-0.4-1.3l0,0l0.9-1.8
		c0.2-0.5,0.8-0.6,1.3-0.4C70.9,114.8,71.1,115.3,70.9,115.8L70.9,115.8z"/><path class="st2" d="M69.1,119.4l-0.4,0.9l0,0c-0.2,0.5-0.8,0.7-1.3,0.4c-0.5-0.2-0.7-0.8-0.4-1.3l0,0l0.4-0.9
		c0.2-0.5,0.8-0.7,1.3-0.4C69.1,118.3,69.3,118.9,69.1,119.4L69.1,119.4z"/><path class="st2" d="M68.2,121.1l-0.8,1.8l0,0c-0.2,0.5-0.8,0.7-1.3,0.5s-0.7-0.8-0.5-1.3l0,0l0.8-1.8c0.2-0.5,0.8-0.7,1.3-0.5
		C68.2,120.1,68.4,120.6,68.2,121.1L68.2,121.1z"/><path class="st2" d="M66.7,124.8l-0.3,0.9l0,0c-0.2,0.5-0.8,0.8-1.3,0.6s-0.8-0.8-0.6-1.3l0,0l0.4-1c0.2-0.5,0.8-0.8,1.3-0.6
		C66.6,123.7,66.9,124.3,66.7,124.8L66.7,124.8z"/><path class="st2" d="M66,126.6l-0.6,1.9l0,0.1c-0.2,0.5-0.7,0.8-1.2,0.6c-0.5-0.2-0.8-0.7-0.6-1.2l0,0l0.6-2
		c0.2-0.5,0.7-0.8,1.2-0.6C65.9,125.5,66.2,126.1,66,126.6L66,126.6z"/><path class="st2" d="M65,130.4l-0.2,0.9l0,0c-0.1,0.5-0.6,0.9-1.2,0.8c-0.5-0.1-0.9-0.6-0.8-1.2l0,0l0.2-1c0.1-0.5,0.6-0.9,1.2-0.8
		C64.7,129.2,65.1,129.8,65,130.4L65,130.4z"/><path class="st2" d="M64.6,132.2c-0.1,0.6-0.1,1.3-0.1,1.9c0,0.6-0.5,1-1,1c-0.6,0-1-0.5-1-1l0,0c0-0.7,0.1-1.4,0.2-2.1
		c0.1-0.6,0.6-0.9,1.1-0.9C64.3,131.2,64.7,131.7,64.6,132.2z"/><path class="st2" d="M64.6,135.9l0.2,0.9l0,0.1c0.1,0.6-0.2,1.1-0.8,1.2c-0.6,0.1-1.1-0.2-1.2-0.8l0,0l-0.2-1.1
		c-0.1-0.6,0.3-1.1,0.8-1.2C64,134.9,64.5,135.3,64.6,135.9L64.6,135.9z"/><path class="st2" d="M65.1,137.7c0.2,0.5,0.5,1.1,0.8,1.5c0.3,0.5,0.2,1.1-0.2,1.5c-0.5,0.3-1.1,0.2-1.5-0.2l0,0
		c-0.4-0.6-0.8-1.3-1-2c-0.2-0.5,0.1-1.1,0.6-1.3C64.3,136.9,64.9,137.1,65.1,137.7z"/><path class="st2" d="M67.1,140.5l0.7,0.5l0.1,0.1c0.5,0.4,0.6,1,0.2,1.5s-1,0.6-1.5,0.2l0,0l-0.9-0.7c-0.5-0.4-0.5-1-0.2-1.5
		C65.9,140.1,66.5,140,67.1,140.5L67.1,140.5z"/><path class="st2" d="M68.5,141.5c0.5,0.3,1.1,0.6,1.7,0.8c0.5,0.2,0.8,0.8,0.6,1.4c-0.2,0.5-0.8,0.8-1.4,0.6
		c-0.7-0.2-1.3-0.5-2-0.9c-0.5-0.3-0.7-0.9-0.4-1.4S68,141.2,68.5,141.5L68.5,141.5z"/><path class="st2" d="M72,142.8l0.9,0.2l0,0c0.6,0.1,0.9,0.7,0.8,1.3s-0.7,0.9-1.3,0.8l-1-0.2c-0.6-0.1-0.9-0.7-0.8-1.3
		C70.8,143,71.4,142.7,72,142.8L72,142.8L72,142.8z"/><path class="st2" d="M73.9,143.2l1.9,0.2l0.1,0c0.6,0.1,1,0.6,0.9,1.2c-0.1,0.6-0.6,1-1.2,0.9l-2.1-0.3c-0.6-0.1-1-0.6-0.9-1.2
		S73.2,143.1,73.9,143.2L73.9,143.2L73.9,143.2z"/><path class="st2" d="M77.7,143.5l0.9,0l0,0c0.6,0,1.1,0.4,1.1,1c0,0.6-0.4,1.1-1,1.1l-1,0c-0.6,0-1.1-0.4-1.1-1
		S77.1,143.5,77.7,143.5L77.7,143.5L77.7,143.5z"/><path class="st2" d="M79.6,143.4c0.6-0.1,1.3-0.1,1.9-0.3c0.6-0.1,1.1,0.3,1.2,0.8c0.1,0.6-0.3,1.1-0.8,1.2
		c-0.7,0.1-1.4,0.2-2.1,0.3c-0.6,0.1-1.1-0.4-1.1-0.9C78.6,144,79,143.5,79.6,143.4L79.6,143.4z"/><path class="st2" d="M83.4,142.8l0.9-0.2l0,0c0.6-0.1,1.1,0.2,1.3,0.7c0.1,0.6-0.2,1.1-0.7,1.3l-1,0.3c-0.6,0.1-1.1-0.2-1.3-0.7
		C82.5,143.5,82.8,143,83.4,142.8L83.4,142.8L83.4,142.8z"/><path class="st2" d="M85.3,142.3l1.8-0.6l0,0c0.5-0.2,1.1,0.1,1.3,0.7c0.2,0.5-0.1,1.1-0.7,1.3l-1.9,0.7c-0.5,0.2-1.1-0.1-1.3-0.7
		C84.4,143.1,84.7,142.5,85.3,142.3L85.3,142.3L85.3,142.3z"/><path class="st2" d="M88.9,141l0.9-0.4l0,0c0.5-0.2,1.1,0,1.3,0.5c0.2,0.5,0,1.1-0.5,1.3l-0.9,0.4c-0.5,0.2-1.1,0-1.3-0.5
		C88.1,141.8,88.4,141.2,88.9,141L88.9,141L88.9,141z"/><path class="st2" d="M90.7,140.2l1.8-0.8l0,0c0.5-0.2,1.1,0,1.4,0.5c0.2,0.5,0,1.1-0.5,1.4l-1.8,0.9c-0.5,0.2-1.1,0-1.4-0.5
		S90.2,140.5,90.7,140.2L90.7,140.2L90.7,140.2z"/><path class="st2" d="M94.3,138.5l0.9-0.5l0,0c0.5-0.3,1.1-0.1,1.4,0.4s0.1,1.1-0.4,1.4l-0.9,0.5c-0.5,0.3-1.1,0.1-1.4-0.4
		C93.6,139.4,93.7,138.7,94.3,138.5L94.3,138.5L94.3,138.5z"/><path class="st2" d="M96,137.5l1.7-1l0,0c0.5-0.3,1.1-0.1,1.4,0.4s0.1,1.1-0.4,1.4l-1.7,1c-0.5,0.3-1.1,0.1-1.4-0.4
		C95.3,138.4,95.5,137.8,96,137.5L96,137.5L96,137.5z"/><path class="st2" d="M99.4,135.5l0.8-0.5l0,0c0.5-0.3,1.1-0.2,1.4,0.3s0.2,1.1-0.3,1.4l-0.8,0.5c-0.5,0.3-1.1,0.2-1.4-0.3
		C98.7,136.4,98.9,135.8,99.4,135.5L99.4,135.5L99.4,135.5z"/><path class="st2" d="M101,134.4l1.6-1.1l0,0c0.5-0.3,1.1-0.2,1.4,0.3c0.3,0.5,0.2,1.1-0.3,1.4l-1.7,1.1c-0.5,0.3-1.1,0.2-1.4-0.3
		C100.4,135.3,100.5,134.7,101,134.4L101,134.4L101,134.4z"/><path class="st2" d="M104.3,132.1l0.8-0.6l0,0c0.4-0.3,1-0.2,1.4,0.2c0.3,0.4,0.2,1-0.2,1.4l-0.8,0.6c-0.4,0.3-1.1,0.2-1.4-0.2
		C103.7,133.1,103.8,132.5,104.3,132.1C104.3,132.1,104.3,132.1,104.3,132.1L104.3,132.1z"/><path class="st2" d="M105.9,131l1.6-1.2l0,0c0.4-0.3,1-0.2,1.3,0.2c0.3,0.4,0.2,1-0.2,1.3l-1.6,1.2c-0.4,0.3-1,0.3-1.4-0.2
		C105.4,131.9,105.4,131.3,105.9,131C105.9,131,105.9,131,105.9,131L105.9,131z"/><path class="st2" d="M109,128.6l0.8-0.6l0,0c0.4-0.3,1-0.3,1.3,0.2c0.3,0.4,0.3,1-0.1,1.3l-0.8,0.6c-0.4,0.3-1,0.3-1.3-0.1
		C108.6,129.5,108.6,128.9,109,128.6C109,128.6,109,128.6,109,128.6L109,128.6z"/><path class="st2" d="M110.6,127.3l1.5-1.3l0,0c0.4-0.3,1-0.3,1.3,0.1c0.3,0.4,0.3,1-0.1,1.3l-1.5,1.3c-0.4,0.3-1,0.3-1.3-0.1
		C110.1,128.3,110.2,127.7,110.6,127.3C110.6,127.3,110.6,127.3,110.6,127.3L110.6,127.3z"/><path class="st2" d="M113.7,124.8l0.8-0.6l0,0c0.4-0.3,0.9-0.3,1.2,0.1c0.3,0.4,0.3,0.9-0.1,1.2l-0.8,0.7c-0.4,0.3-0.9,0.3-1.3-0.1
		C113.2,125.7,113.3,125.1,113.7,124.8C113.6,124.8,113.6,124.8,113.7,124.8L113.7,124.8z"/><path class="st2" d="M115.2,123.5l1.5-1.3l0,0c0.4-0.3,0.9-0.3,1.2,0.1c0.3,0.4,0.3,0.9-0.1,1.2l-1.5,1.4c-0.4,0.3-0.9,0.3-1.2-0.1
		S114.8,123.8,115.2,123.5C115.1,123.5,115.1,123.5,115.2,123.5L115.2,123.5z"/><path class="st2" d="M118.1,120.8l0.7-0.7c0.3-0.3,0.9-0.3,1.2,0c0.3,0.3,0.3,0.9,0,1.2l-0.7,0.7c-0.3,0.3-0.9,0.3-1.2,0
		C117.8,121.7,117.8,121.2,118.1,120.8C118.1,120.9,118.1,120.8,118.1,120.8z"/><path class="st2" d="M119.6,119.5l1.5-1.4l0,0c0.3-0.3,0.8-0.3,1.2,0c0.3,0.3,0.3,0.8,0,1.1l-1.4,1.4c-0.3,0.3-0.9,0.3-1.2,0
		C119.2,120.4,119.2,119.8,119.6,119.5C119.6,119.5,119.6,119.5,119.6,119.5L119.6,119.5z"/><path class="st2" d="M122.5,116.7l0.7-0.7c0.3-0.3,0.8-0.3,1.1,0c0.3,0.3,0.3,0.8,0,1.1l-0.7,0.7c-0.3,0.3-0.8,0.3-1.1,0
		C122.2,117.6,122.2,117.1,122.5,116.7C122.5,116.8,122.5,116.8,122.5,116.7z"/><path class="st2" d="M123.9,115.4l1.4-1.4l0,0c0.3-0.3,0.8-0.3,1.1,0c0.3,0.3,0.3,0.8,0,1.1l-1.4,1.4c-0.3,0.3-0.8,0.3-1.1,0
		C123.6,116.2,123.6,115.7,123.9,115.4C123.9,115.4,123.9,115.4,123.9,115.4L123.9,115.4z"/><path class="st2" d="M126.7,112.5l0.7-0.7c0.3-0.3,0.8-0.3,1.1,0c0.3,0.3,0.3,0.8,0,1.1l-0.7,0.7c-0.3,0.3-0.8,0.3-1.1,0
		S126.4,112.8,126.7,112.5C126.7,112.5,126.7,112.5,126.7,112.5z"/><path class="st2" d="M128.1,111.1l1.4-1.4l0,0c0.3-0.3,0.7-0.3,1,0c0.3,0.3,0.3,0.7,0,1l-1.4,1.5c-0.3,0.3-0.7,0.3-1,0
		C127.8,111.9,127.8,111.4,128.1,111.1C128.1,111.1,128.1,111.1,128.1,111.1L128.1,111.1z"/><path class="st2" d="M130.9,108.2l0.7-0.7c0.3-0.3,0.7-0.3,1,0c0.3,0.2,0.3,0.7,0,0.9l-0.7,0.7c-0.3,0.3-0.7,0.3-1,0.1
		C130.6,108.9,130.6,108.5,130.9,108.2C130.8,108.2,130.9,108.2,130.9,108.2z"/><path class="st2" d="M132.2,106.8l1.3-1.5l0,0c0.2-0.3,0.6-0.3,0.9,0c0.3,0.2,0.3,0.6,0,0.9l-1.3,1.5c-0.2,0.3-0.7,0.3-0.9,0.1
		C132,107.5,132,107,132.2,106.8C132.2,106.8,132.2,106.8,132.2,106.8L132.2,106.8z"/><path class="st2" d="M134.9,103.8l0.7-0.7c0.2-0.2,0.6-0.3,0.8-0.1c0.2,0.2,0.3,0.6,0.1,0.8l-0.6,0.8c-0.2,0.3-0.6,0.3-0.9,0.1
		C134.7,104.5,134.7,104.1,134.9,103.8C134.9,103.8,134.9,103.8,134.9,103.8z"/><path class="st2" d="M136.2,102.3l1.3-1.5c0.2-0.2,0.6-0.3,0.8-0.1c0.2,0.2,0.3,0.6,0.1,0.8l-1.3,1.5c-0.2,0.2-0.6,0.3-0.8,0.1
		C136,103,136,102.6,136.2,102.3C136.2,102.3,136.2,102.3,136.2,102.3z"/><path class="st2" d="M138.8,99.3l0.6-0.8c0.2-0.2,0.5-0.2,0.7-0.1c0.2,0.2,0.2,0.5,0.1,0.7l-0.6,0.8c-0.2,0.2-0.5,0.3-0.8,0.1
		C138.7,99.9,138.6,99.5,138.8,99.3C138.8,99.3,138.8,99.3,138.8,99.3z"/><path class="st2" d="M140.1,97.8l1.3-1.5c0.2-0.2,0.5-0.2,0.7-0.1c0.2,0.2,0.2,0.5,0.1,0.7l-1.2,1.6c-0.2,0.2-0.5,0.3-0.7,0.1
		S140,98,140.1,97.8C140.1,97.8,140.1,97.8,140.1,97.8z"/><path class="st2" d="M142.7,94.7l0.6-0.8c0.2-0.2,0.4-0.2,0.6-0.1c0.2,0.2,0.2,0.4,0.1,0.6l-0.6,0.8c-0.2,0.2-0.4,0.2-0.7,0.1
		S142.5,94.9,142.7,94.7C142.7,94.7,142.7,94.7,142.7,94.7z"/><path class="st2" d="M144,93.2l1.3-1.6c0.1-0.2,0.4-0.2,0.6-0.1c0.2,0.1,0.2,0.4,0.1,0.6l-1.2,1.6c-0.1,0.2-0.4,0.2-0.6,0.1
		C143.8,93.6,143.8,93.4,144,93.2C143.9,93.2,144,93.2,144,93.2z"/><path class="st2" d="M146.5,90.1l0.6-0.8c0.1-0.1,0.3-0.2,0.5-0.1c0.1,0.1,0.2,0.3,0.1,0.5l-0.6,0.8c-0.1,0.2-0.3,0.2-0.5,0.1
		S146.3,90.2,146.5,90.1C146.5,90.1,146.5,90.1,146.5,90.1z"/><path class="st2" d="M147.7,88.5l1.2-1.6c0.1-0.1,0.3-0.2,0.4-0.1c0.1,0.1,0.1,0.3,0.1,0.4l-1.2,1.6c-0.1,0.1-0.3,0.2-0.5,0.1
		S147.6,88.6,147.7,88.5C147.7,88.5,147.7,88.5,147.7,88.5z"/><path class="st2" d="M150.1,85.3l0.6-0.8c0.1-0.1,0.2-0.1,0.3,0c0.1,0.1,0.1,0.2,0.1,0.3l-0.6,0.8c-0.1,0.1-0.2,0.1-0.4,0.1
		S150.1,85.4,150.1,85.3C150.1,85.3,150.1,85.3,150.1,85.3z"/><path class="st2" d="M151.3,83.7l1.2-1.6c0.1-0.1,0.2-0.1,0.3,0c0.1,0.1,0.1,0.2,0,0.3l-1.1,1.6c-0.1,0.1-0.2,0.1-0.3,0.1
		C151.3,84,151.3,83.8,151.3,83.7C151.3,83.7,151.3,83.7,151.3,83.7z"/><path class="st2" d="M153.7,80.5l0.6-0.8c0-0.1,0.1-0.1,0.2,0c0.1,0,0.1,0.1,0,0.2l-0.6,0.8c0,0.1-0.1,0.1-0.2,0
		C153.7,80.7,153.7,80.6,153.7,80.5C153.7,80.5,153.7,80.5,153.7,80.5z"/><path class="st2" d="M154.9,78.9l0.4-0.6c0,0,0.1-0.1,0.1,0c0,0,0.1,0.1,0,0.1l-0.4,0.6c0,0.1-0.1,0.1-0.2,0S154.9,78.9,154.9,78.9
		C154.9,78.9,154.9,78.9,154.9,78.9z"/></g><g class="st1"><path class="st2" d="M173,33.2l-0.3,1.4c0,0.1-0.1,0.1-0.1,0.1c-0.1,0-0.1-0.1-0.1-0.1c0,0,0,0,0,0l0,0l0.4-1.4l0,0
		C172.8,33.2,172.9,33.1,173,33.2C172.9,33.2,173,33.2,173,33.2z"/><path class="st2" d="M172.3,36.1l-0.2,0.7c0,0.1-0.1,0.1-0.2,0.1c-0.1,0-0.1-0.1-0.1-0.2c0,0,0,0,0,0L172,36c0-0.1,0.1-0.1,0.2-0.1
		C172.3,35.9,172.3,36,172.3,36.1z"/><path class="st2" d="M171.9,37.5l-0.4,1.4c0,0.1-0.1,0.2-0.2,0.1c-0.1,0-0.2-0.1-0.1-0.2c0,0,0,0,0,0l0,0l0.5-1.4
		c0-0.1,0.1-0.1,0.2-0.1C171.9,37.3,171.9,37.4,171.9,37.5z"/><path class="st2" d="M171,40.2l-0.2,0.7c0,0.1-0.2,0.2-0.3,0.1c-0.1,0-0.2-0.2-0.1-0.3c0,0,0,0,0,0l0.3-0.7c0-0.1,0.2-0.2,0.3-0.1
		C171,40,171.1,40.1,171,40.2z"/><path class="st2" d="M170.6,41.6l-0.5,1.4c-0.1,0.1-0.2,0.2-0.4,0.2c-0.1-0.1-0.2-0.2-0.2-0.4c0,0,0,0,0,0l0,0l0.5-1.3l0,0
		c0.1-0.1,0.2-0.2,0.3-0.1C170.5,41.3,170.6,41.5,170.6,41.6z"/><path class="st2" d="M169.5,44.3l-0.3,0.7c-0.1,0.2-0.3,0.2-0.4,0.2c-0.2-0.1-0.2-0.3-0.2-0.4c0,0,0,0,0,0l0.3-0.7
		c0.1-0.2,0.2-0.2,0.4-0.2C169.5,44,169.6,44.1,169.5,44.3z"/><path class="st2" d="M169,45.6l-0.6,1.3c-0.1,0.2-0.3,0.3-0.5,0.2c-0.2-0.1-0.3-0.3-0.2-0.5c0,0,0,0,0,0l0,0l0.6-1.3l0,0
		c0.1-0.2,0.3-0.2,0.4-0.2C169,45.3,169.1,45.5,169,45.6z"/><path class="st2" d="M167.8,48.3l-0.3,0.7c-0.1,0.2-0.3,0.3-0.5,0.2c-0.2-0.1-0.3-0.3-0.2-0.5c0,0,0,0,0,0l0,0l0.3-0.6l0,0
		c0.1-0.2,0.3-0.3,0.5-0.2C167.8,47.9,167.9,48.1,167.8,48.3z"/><path class="st2" d="M167.2,49.6l-0.7,1.3c-0.1,0.2-0.3,0.3-0.5,0.2c-0.2-0.1-0.3-0.3-0.2-0.5c0,0,0,0,0,0l0,0l0.7-1.3l0,0
		c0.1-0.2,0.3-0.3,0.5-0.2C167.2,49.2,167.2,49.4,167.2,49.6z"/><path class="st2" d="M165.8,52.2l-0.4,0.6c-0.1,0.2-0.4,0.3-0.6,0.2c-0.2-0.1-0.3-0.4-0.2-0.6c0,0,0,0,0,0l0,0l0.4-0.6l0,0
		c0.1-0.2,0.4-0.3,0.6-0.1C165.8,51.7,165.9,52,165.8,52.2z"/><path class="st2" d="M165.1,53.4l-0.7,1.3c-0.1,0.2-0.4,0.3-0.6,0.2c-0.2-0.1-0.3-0.4-0.2-0.6c0,0,0,0,0,0l0,0l0.8-1.2l0,0
		c0.1-0.2,0.4-0.3,0.6-0.1C165.1,53,165.2,53.2,165.1,53.4z"/><path class="st2" d="M163.6,55.9l-0.4,0.6c-0.1,0.2-0.4,0.3-0.7,0.1s-0.3-0.4-0.1-0.7c0,0,0,0,0,0l0,0l0.4-0.6l0,0
		c0.1-0.2,0.4-0.3,0.7-0.1C163.7,55.4,163.7,55.7,163.6,55.9z"/><path class="st2" d="M162.8,57.1l-0.8,1.2c-0.2,0.2-0.5,0.3-0.7,0.1c-0.2-0.2-0.3-0.5-0.1-0.7c0,0,0,0,0,0l0,0l0.8-1.2l0,0
		c0.2-0.2,0.5-0.3,0.7-0.1C162.9,56.6,162.9,56.9,162.8,57.1z"/><path class="st2" d="M161.1,59.5l-0.4,0.6c-0.2,0.2-0.5,0.3-0.7,0.1c-0.2-0.2-0.3-0.5-0.1-0.7c0,0,0,0,0,0l0,0l0.4-0.6l0,0
		c0.2-0.2,0.5-0.3,0.7-0.1C161.2,59,161.3,59.3,161.1,59.5z"/><path class="st2" d="M160.2,60.7l-0.9,1.1c-0.2,0.2-0.5,0.3-0.8,0.1s-0.3-0.5-0.1-0.8l0,0l0,0l0.9-1.1l0,0c0.2-0.2,0.5-0.3,0.8-0.1
		C160.4,60.1,160.4,60.4,160.2,60.7z"/><path class="st2" d="M158.4,62.9l-0.5,0.5c-0.2,0.2-0.6,0.3-0.8,0.1c-0.2-0.2-0.3-0.6-0.1-0.8l0,0l0,0l0.5-0.5l0,0
		c0.2-0.2,0.6-0.2,0.8,0C158.6,62.4,158.6,62.7,158.4,62.9z"/><path class="st2" d="M157.4,64l-1,1.1c-0.2,0.2-0.6,0.2-0.8,0c-0.2-0.2-0.2-0.6,0-0.8l0,0l0,0l1-1l0,0c0.2-0.2,0.6-0.2,0.8,0
		C157.6,63.4,157.6,63.8,157.4,64z"/><path class="st2" d="M155.4,66.1l-0.5,0.5c-0.2,0.2-0.6,0.2-0.8,0c-0.2-0.2-0.2-0.6,0-0.8l0,0l0,0l0.5-0.5l0,0
		c0.2-0.2,0.6-0.2,0.8,0C155.6,65.5,155.6,65.9,155.4,66.1z"/><path class="st2" d="M154.4,67.1l-1.1,1c-0.2,0.2-0.6,0.2-0.8,0c-0.2-0.2-0.2-0.6,0-0.8l0,0l0,0l1.1-1l0,0c0.2-0.2,0.6-0.2,0.8,0
		C154.6,66.6,154.6,66.9,154.4,67.1z"/><path class="st2" d="M152.2,69.1l-0.6,0.5c-0.3,0.2-0.6,0.2-0.8-0.1s-0.2-0.6,0.1-0.8l0,0l0,0l0.6-0.5l0,0c0.3-0.2,0.6-0.2,0.8,0.1
		C152.5,68.5,152.4,68.9,152.2,69.1z"/><path class="st2" d="M151,70l-1.2,0.9c-0.3,0.2-0.7,0.2-0.9-0.1c-0.2-0.3-0.2-0.7,0.1-0.9l0,0l0,0l1.1-0.9l0,0
		c0.3-0.2,0.6-0.1,0.8,0.1C151.4,69.4,151.3,69.8,151,70z"/><path class="st2" d="M148.7,71.8l-0.6,0.4c-0.3,0.2-0.7,0.1-0.9-0.2c-0.2-0.3-0.1-0.7,0.2-0.9l0,0l0,0l0.6-0.4l0,0
		c0.3-0.2,0.7-0.1,0.9,0.2C149.1,71.2,149,71.6,148.7,71.8z"/><path class="st2" d="M147.5,72.6l-1.2,0.8c-0.3,0.2-0.7,0.1-0.9-0.2c-0.2-0.3-0.1-0.7,0.2-0.9l0,0l0,0l1.2-0.8l0,0
		c0.3-0.2,0.7-0.1,0.9,0.2C147.9,72,147.8,72.4,147.5,72.6z"/><path class="st2" d="M145,74.1l-0.6,0.4c-0.3,0.2-0.7,0.1-0.9-0.2c-0.2-0.3-0.1-0.7,0.2-0.9l0,0l0,0l0.6-0.3l0,0
		c0.3-0.2,0.7-0.1,0.9,0.2C145.4,73.6,145.3,74,145,74.1z"/><path class="st2" d="M143.7,74.8l-1.3,0.7c-0.3,0.2-0.7,0-0.9-0.3c-0.2-0.3,0-0.7,0.3-0.9l0,0l0,0l1.3-0.6l0,0
		c0.3-0.2,0.7,0,0.9,0.3C144.2,74.3,144,74.7,143.7,74.8z"/><path class="st2" d="M141.1,76.1l-0.7,0.3c-0.3,0.1-0.7,0-0.8-0.3c-0.1-0.3,0-0.7,0.3-0.8l0,0l0.6-0.3l0,0c0.3-0.1,0.7,0,0.8,0.3
		C141.6,75.6,141.4,76,141.1,76.1L141.1,76.1z"/><path class="st2" d="M139.7,76.7l-1.4,0.5c-0.3,0.1-0.7,0-0.8-0.4c-0.1-0.3,0-0.7,0.4-0.8l0,0l1.3-0.5l0,0c0.3-0.1,0.7,0,0.8,0.4
		C140.2,76.2,140.1,76.6,139.7,76.7L139.7,76.7z"/><path class="st2" d="M137,77.7l-0.7,0.2c-0.3,0.1-0.7-0.1-0.8-0.4c-0.1-0.3,0.1-0.7,0.4-0.8l0,0l0.7-0.2l0,0
		c0.3-0.1,0.7,0.1,0.8,0.4C137.5,77.2,137.3,77.6,137,77.7L137,77.7z"/><path class="st2" d="M135.5,78.1l-1.4,0.3c-0.3,0.1-0.7-0.1-0.7-0.5c-0.1-0.3,0.1-0.7,0.5-0.7l0,0l1.4-0.3l0,0
		c0.3-0.1,0.7,0.1,0.7,0.5C136.1,77.7,135.9,78,135.5,78.1L135.5,78.1z"/><path class="st2" d="M132.6,78.6l-0.7,0.1c-0.3,0-0.6-0.2-0.7-0.5c0-0.3,0.2-0.6,0.5-0.7l0,0l0.7-0.1l0,0c0.3,0,0.6,0.2,0.7,0.5
		C133.2,78.3,133,78.6,132.6,78.6L132.6,78.6z"/><path class="st2" d="M131.1,78.7c-0.5,0-1,0-1.5,0c-0.3,0-0.6-0.3-0.6-0.6c0-0.3,0.3-0.6,0.6-0.6c0.5,0,0.9,0,1.4,0
		c0.3,0,0.6,0.2,0.6,0.6C131.7,78.4,131.5,78.7,131.1,78.7L131.1,78.7z"/><path class="st2" d="M128.2,78.6l-0.7-0.1c-0.3,0-0.5-0.3-0.5-0.7c0-0.3,0.3-0.5,0.6-0.5l0,0l0.7,0.1l0,0c0.3,0,0.5,0.3,0.5,0.7
		C128.8,78.4,128.5,78.7,128.2,78.6C128.2,78.6,128.2,78.6,128.2,78.6z"/><path class="st2" d="M126.7,78.4c-0.5-0.1-1-0.2-1.4-0.4c-0.3-0.1-0.4-0.4-0.4-0.7c0.1-0.3,0.4-0.4,0.7-0.4
		c0.4,0.1,0.9,0.2,1.4,0.3c0.3,0.1,0.5,0.4,0.4,0.7C127.3,78.2,127,78.4,126.7,78.4C126.7,78.4,126.7,78.4,126.7,78.4z"/><path class="st2" d="M123.8,77.5l-0.7-0.3c-0.3-0.1-0.4-0.4-0.3-0.7c0.1-0.3,0.4-0.4,0.7-0.3l0,0l0.6,0.3l0,0
		c0.3,0.1,0.4,0.4,0.3,0.7S124.1,77.6,123.8,77.5C123.9,77.5,123.8,77.5,123.8,77.5z"/><path class="st2" d="M122.5,76.8c-0.4-0.2-0.9-0.5-1.3-0.8c-0.2-0.2-0.3-0.5-0.1-0.7c0.2-0.2,0.5-0.3,0.7-0.1
		c0.4,0.3,0.8,0.5,1.2,0.7c0.3,0.1,0.3,0.4,0.2,0.7C123.1,76.8,122.8,76.9,122.5,76.8C122.5,76.8,122.5,76.8,122.5,76.8z"/><path class="st2" d="M120.1,75.1l-0.6-0.5c-0.2-0.2-0.2-0.5,0-0.7c0.2-0.2,0.5-0.2,0.7,0l0,0l0.5,0.5l0,0c0.2,0.2,0.2,0.5,0.1,0.7
		C120.6,75.3,120.3,75.3,120.1,75.1C120.1,75.1,120.1,75.1,120.1,75.1z"/><path class="st2" d="M119,74.1c-0.3-0.4-0.7-0.7-1-1.1c-0.2-0.2-0.1-0.5,0.1-0.6c0.2-0.2,0.5-0.1,0.6,0c0.3,0.4,0.6,0.7,1,1
		c0.2,0.2,0.2,0.5,0,0.7C119.4,74.3,119.2,74.3,119,74.1C119,74.1,119,74.1,119,74.1z"/><path class="st2" d="M117.1,71.8l-0.4-0.6c-0.1-0.2-0.1-0.4,0.1-0.6c0.2-0.1,0.4-0.1,0.6,0.1l0,0l0.4,0.6l0,0
		c0.1,0.2,0.1,0.5-0.1,0.6C117.5,72.1,117.2,72,117.1,71.8C117.1,71.8,117.1,71.8,117.1,71.8z"/><path class="st2" d="M116.3,70.6l-0.7-1.3c-0.1-0.2,0-0.4,0.1-0.5c0.2-0.1,0.4,0,0.5,0.1l0,0l0.7,1.2l0,0c0.1,0.2,0.1,0.4-0.1,0.6
		C116.6,70.9,116.4,70.8,116.3,70.6C116.3,70.6,116.3,70.6,116.3,70.6z"/><path class="st2" d="M114.9,68l-0.3-0.7c-0.1-0.2,0-0.4,0.2-0.5c0.2-0.1,0.4,0,0.5,0.2l0,0l0.3,0.6l0,0c0.1,0.2,0,0.4-0.2,0.5
		C115.2,68.3,115,68.2,114.9,68C114.9,68,114.9,68,114.9,68z"/><path class="st2" d="M114.4,66.6l-0.5-1.4c-0.1-0.2,0-0.4,0.2-0.4c0.2-0.1,0.4,0,0.4,0.2l0,0l0.5,1.3l0,0c0.1,0.2,0,0.4-0.2,0.5
		C114.6,66.9,114.4,66.8,114.4,66.6C114.4,66.6,114.4,66.6,114.4,66.6z"/><path class="st2" d="M113.5,63.9l-0.2-0.7c0-0.2,0.1-0.3,0.2-0.4c0.2,0,0.3,0.1,0.4,0.2l0,0l0.2,0.7l0,0c0,0.2-0.1,0.3-0.2,0.4
		C113.7,64.1,113.5,64,113.5,63.9C113.5,63.9,113.5,63.9,113.5,63.9z"/><path class="st2" d="M113.1,62.4l-0.3-1.4c0-0.2,0.1-0.3,0.2-0.3c0.2,0,0.3,0.1,0.3,0.2l0,0l0.3,1.4l0,0c0,0.2-0.1,0.3-0.2,0.4
		C113.3,62.7,113.2,62.6,113.1,62.4C113.1,62.4,113.1,62.4,113.1,62.4z"/><path class="st2" d="M112.6,59.6l-0.1-0.7c0-0.1,0.1-0.3,0.2-0.3c0.1,0,0.3,0.1,0.3,0.2l0,0l0.1,0.7l0,0c0,0.2-0.1,0.3-0.2,0.3
		S112.6,59.7,112.6,59.6L112.6,59.6z"/><path class="st2" d="M112.4,58.1l-0.1-1.4c0-0.1,0.1-0.3,0.2-0.3c0.1,0,0.3,0.1,0.3,0.2l0,0l0.1,1.4l0,0c0,0.1-0.1,0.3-0.2,0.3
		C112.6,58.4,112.4,58.3,112.4,58.1L112.4,58.1z"/><path class="st2" d="M112.2,55.2l0-0.7c0-0.1,0.1-0.3,0.2-0.3c0.1,0,0.3,0.1,0.3,0.2l0,0l0,0.7l0,0c0,0.1-0.1,0.3-0.2,0.3
		S112.2,55.4,112.2,55.2L112.2,55.2z"/><path class="st2" d="M112.2,53.8l0-1.5c0-0.1,0.1-0.2,0.2-0.2c0.1,0,0.2,0.1,0.2,0.2l0,0l0,1.4l0,0c0,0.1-0.1,0.2-0.2,0.2
		C112.3,54,112.2,53.9,112.2,53.8L112.2,53.8z"/><path class="st2" d="M112.3,50.9l0-0.7c0-0.1,0.1-0.2,0.2-0.2c0.1,0,0.2,0.1,0.2,0.2l0,0.7c0,0.1-0.1,0.2-0.2,0.2
		C112.4,51.1,112.3,51,112.3,50.9L112.3,50.9z"/><path class="st2" d="M112.4,49.4l0.2-1.4c0-0.1,0.1-0.2,0.2-0.2c0.1,0,0.2,0.1,0.2,0.2l0,0l-0.1,1.4l0,0c0,0.1-0.1,0.2-0.2,0.2
		C112.5,49.7,112.4,49.6,112.4,49.4L112.4,49.4z"/><path class="st2" d="M112.7,46.5l0.1-0.7c0-0.1,0.1-0.2,0.3-0.2c0.1,0,0.2,0.1,0.2,0.3l0,0l-0.1,0.7c0,0.1-0.1,0.2-0.2,0.2
		C112.8,46.8,112.7,46.7,112.7,46.5z"/><path class="st2" d="M113,45.1l0.3-1.4c0-0.1,0.1-0.2,0.3-0.2c0.1,0,0.2,0.1,0.2,0.3l0,0l0,0l-0.3,1.4l0,0c0,0.1-0.1,0.2-0.3,0.2
		C113,45.4,112.9,45.2,113,45.1z"/><path class="st2" d="M113.5,42.3l0.2-0.7c0-0.1,0.2-0.2,0.3-0.2c0.1,0,0.2,0.2,0.2,0.3l0,0l-0.2,0.7c0,0.1-0.2,0.2-0.3,0.2
		C113.6,42.5,113.5,42.4,113.5,42.3z"/><path class="st2" d="M113.8,40.9l0.4-1.4c0-0.1,0.2-0.2,0.3-0.2c0.1,0,0.2,0.2,0.2,0.3l0,0l0,0l-0.4,1.4l0,0c0,0.1-0.2,0.2-0.3,0.2
		C113.9,41.1,113.8,41,113.8,40.9z"/><path class="st2" d="M114.6,38.1l0.2-0.7c0-0.1,0.2-0.2,0.3-0.2c0.1,0,0.2,0.2,0.2,0.3l0,0l-0.2,0.7c0,0.1-0.2,0.2-0.3,0.2
		C114.6,38.3,114.6,38.2,114.6,38.1z"/><path class="st2" d="M115.1,36.7l0.5-1.4c0-0.1,0.2-0.2,0.3-0.2c0.1,0,0.2,0.2,0.2,0.3l0,0l0,0l-0.5,1.4l0,0c0,0.1-0.2,0.2-0.3,0.2
		C115.1,37,115,36.8,115.1,36.7z"/><path class="st2" d="M116,33.9l0.3-0.7c0.1-0.1,0.2-0.2,0.4-0.2c0.1,0.1,0.2,0.2,0.2,0.4c0,0,0,0,0,0l-0.3,0.7
		c-0.1,0.1-0.2,0.2-0.4,0.2C116,34.2,116,34.1,116,33.9z"/></g><g class="st1"><path class="st2" d="M24.2,58l-0.7,1.2l0,0c-0.2,0.3-0.6,0.5-1,0.3c-0.3-0.2-0.5-0.6-0.3-1l0.7-1.3c0.2-0.3,0.6-0.5,1-0.3
		C24.3,57.2,24.4,57.6,24.2,58L24.2,58L24.2,58z"/><path class="st2" d="M22.8,60.5l-0.3,0.6l0,0c-0.2,0.3-0.6,0.5-1,0.3c-0.3-0.2-0.5-0.6-0.3-0.9l0.3-0.6c0.2-0.3,0.6-0.5,1-0.3
		C22.8,59.7,23,60.1,22.8,60.5C22.8,60.5,22.8,60.5,22.8,60.5L22.8,60.5z"/><path class="st2" d="M22.1,61.7L21.4,63l0,0c-0.2,0.3-0.6,0.5-0.9,0.3c-0.3-0.2-0.5-0.6-0.3-0.9l0.7-1.3c0.2-0.3,0.6-0.5,0.9-0.3
		C22.1,61,22.3,61.4,22.1,61.7C22.1,61.7,22.1,61.7,22.1,61.7L22.1,61.7z"/><path class="st2" d="M20.7,64.3l-0.3,0.6l0,0c-0.2,0.3-0.6,0.5-0.9,0.3c-0.3-0.2-0.5-0.6-0.3-0.9l0.3-0.7c0.2-0.3,0.6-0.5,0.9-0.3
		C20.8,63.5,20.9,63.9,20.7,64.3C20.8,64.3,20.8,64.3,20.7,64.3L20.7,64.3z"/><path class="st2" d="M20.1,65.6l-0.6,1.3l0,0c-0.2,0.3-0.5,0.5-0.9,0.3c-0.3-0.2-0.5-0.5-0.3-0.9l0.6-1.3c0.2-0.3,0.5-0.5,0.9-0.3
		C20.1,64.8,20.3,65.2,20.1,65.6C20.1,65.6,20.1,65.6,20.1,65.6L20.1,65.6z"/><path class="st2" d="M18.9,68.2l-0.3,0.7l0,0c-0.1,0.3-0.5,0.5-0.8,0.3c-0.3-0.1-0.5-0.5-0.3-0.8l0.3-0.7c0.1-0.3,0.5-0.5,0.8-0.3
		C18.9,67.5,19,67.8,18.9,68.2C18.9,68.2,18.9,68.2,18.9,68.2L18.9,68.2z"/><path class="st2" d="M18.3,69.5l-0.6,1.3l0,0c-0.1,0.3-0.5,0.5-0.8,0.3c-0.3-0.1-0.5-0.5-0.3-0.8l0.6-1.3c0.1-0.3,0.5-0.5,0.8-0.3
		C18.3,68.8,18.5,69.1,18.3,69.5C18.3,69.5,18.3,69.5,18.3,69.5L18.3,69.5z"/><path class="st2" d="M17.2,72.1l-0.3,0.7c-0.1,0.3-0.5,0.5-0.8,0.3c-0.3-0.1-0.5-0.5-0.3-0.8l0.3-0.7c0.1-0.3,0.5-0.5,0.8-0.3
		C17.2,71.4,17.3,71.8,17.2,72.1C17.2,72.1,17.2,72.1,17.2,72.1z"/><path class="st2" d="M16.7,73.5l-0.5,1.3l0,0c-0.1,0.3-0.5,0.5-0.8,0.3c-0.3-0.1-0.4-0.5-0.3-0.8l0.5-1.4c0.1-0.3,0.5-0.5,0.8-0.4
		C16.6,72.8,16.8,73.1,16.7,73.5C16.7,73.4,16.7,73.4,16.7,73.5L16.7,73.5z"/><path class="st2" d="M15.6,76.1l-0.3,0.7c-0.1,0.3-0.4,0.4-0.7,0.3c-0.3-0.1-0.4-0.4-0.3-0.7l0.2-0.7c0.1-0.3,0.4-0.5,0.7-0.4
		C15.6,75.5,15.7,75.8,15.6,76.1C15.6,76.1,15.6,76.1,15.6,76.1z"/><path class="st2" d="M15.1,77.5l-0.5,1.4l0,0c-0.1,0.3-0.4,0.4-0.7,0.3c-0.3-0.1-0.4-0.4-0.3-0.7l0.5-1.4c0.1-0.3,0.4-0.5,0.7-0.4
		C15.1,76.9,15.2,77.2,15.1,77.5C15.1,77.5,15.1,77.5,15.1,77.5L15.1,77.5z"/><path class="st2" d="M14.1,80.2l-0.2,0.7c-0.1,0.3-0.4,0.4-0.7,0.3c-0.3-0.1-0.4-0.4-0.3-0.7l0.2-0.7c0.1-0.3,0.4-0.4,0.7-0.3
		C14.1,79.6,14.2,79.9,14.1,80.2C14.1,80.2,14.1,80.2,14.1,80.2z"/><path class="st2" d="M13.7,81.6l-0.5,1.4l0,0c-0.1,0.3-0.4,0.4-0.7,0.3c-0.3-0.1-0.4-0.4-0.3-0.6l0.4-1.4c0.1-0.3,0.4-0.4,0.7-0.4
		C13.6,81,13.8,81.3,13.7,81.6C13.7,81.6,13.7,81.6,13.7,81.6L13.7,81.6z"/><path class="st2" d="M12.8,84.3L12.5,85c-0.1,0.3-0.4,0.4-0.6,0.3c-0.3-0.1-0.4-0.3-0.3-0.6l0.2-0.7c0.1-0.3,0.4-0.4,0.6-0.3
		C12.7,83.7,12.8,84,12.8,84.3C12.8,84.3,12.8,84.3,12.8,84.3z"/><path class="st2" d="M12.3,85.7L11.9,87l0,0c-0.1,0.2-0.3,0.4-0.6,0.3c-0.2-0.1-0.4-0.3-0.3-0.6l0.4-1.4c0.1-0.3,0.3-0.4,0.6-0.3
		C12.3,85.1,12.4,85.4,12.3,85.7C12.3,85.7,12.3,85.7,12.3,85.7L12.3,85.7z"/><path class="st2" d="M11.5,88.4l-0.2,0.7c-0.1,0.2-0.3,0.4-0.5,0.3c-0.2-0.1-0.4-0.3-0.3-0.5l0.2-0.7c0.1-0.2,0.3-0.4,0.5-0.3
		C11.4,87.9,11.5,88.2,11.5,88.4C11.5,88.4,11.5,88.4,11.5,88.4z"/><path class="st2" d="M11.1,89.8l-0.4,1.4c-0.1,0.2-0.3,0.3-0.5,0.3C10,91.4,9.8,91.2,9.9,91l0.4-1.4c0.1-0.2,0.3-0.4,0.5-0.3
		C11,89.3,11.1,89.6,11.1,89.8C11.1,89.8,11.1,89.8,11.1,89.8z"/><path class="st2" d="M10.3,92.6l-0.2,0.7c-0.1,0.2-0.3,0.3-0.5,0.3c-0.2-0.1-0.3-0.3-0.3-0.5l0.2-0.7c0.1-0.2,0.3-0.3,0.5-0.3
		C10.2,92.1,10.3,92.4,10.3,92.6C10.3,92.6,10.3,92.6,10.3,92.6z"/><path class="st2" d="M9.9,94l-0.4,1.4c0,0.2-0.2,0.3-0.4,0.3c-0.2,0-0.3-0.2-0.3-0.4l0.3-1.4c0-0.2,0.2-0.3,0.4-0.3
		C9.8,93.6,10,93.8,9.9,94C9.9,94,9.9,94,9.9,94z"/><path class="st2" d="M9.2,96.8L9,97.5c0,0.2-0.2,0.3-0.4,0.2c-0.2,0-0.3-0.2-0.2-0.4l0.2-0.7c0-0.2,0.2-0.3,0.4-0.3
		C9.1,96.4,9.2,96.6,9.2,96.8C9.2,96.8,9.2,96.8,9.2,96.8z"/><path class="st2" d="M8.8,98.2l-0.3,1.4c0,0.2-0.2,0.2-0.3,0.2c-0.2,0-0.2-0.2-0.2-0.3L8.2,98c0-0.2,0.2-0.3,0.4-0.2
		C8.8,97.8,8.9,98,8.8,98.2C8.8,98.2,8.8,98.2,8.8,98.2z"/><path class="st2" d="M8.2,101L8,101.7c0,0.1-0.2,0.2-0.3,0.2c-0.1,0-0.2-0.2-0.2-0.3l0.1-0.7c0-0.1,0.2-0.2,0.3-0.2
		S8.2,100.8,8.2,101C8.2,101,8.2,101,8.2,101z"/><path class="st2" d="M7.8,102.4l-0.3,1.4c0,0.1-0.1,0.2-0.2,0.2c-0.1,0-0.2-0.1-0.2-0.2l0.3-1.4c0-0.1,0.1-0.2,0.3-0.2
		C7.8,102.1,7.9,102.2,7.8,102.4C7.8,102.4,7.8,102.4,7.8,102.4z"/><path class="st2" d="M7.2,105.2l-0.1,0.7c0,0.1-0.1,0.2-0.2,0.1c-0.1,0-0.1-0.1-0.1-0.2l0.1-0.7c0-0.1,0.1-0.2,0.2-0.1
		C7.2,105,7.2,105.1,7.2,105.2C7.2,105.2,7.2,105.2,7.2,105.2z"/><path class="st2" d="M6.9,106.6L6.6,108c0,0.1-0.1,0.1-0.2,0.1c-0.1,0-0.1-0.1-0.1-0.2l0.2-1.4c0-0.1,0.1-0.1,0.2-0.1
		C6.9,106.4,6.9,106.5,6.9,106.6C6.9,106.6,6.9,106.6,6.9,106.6z"/><path class="st2" d="M6.4,109.4l-0.1,0.7c0,0.1-0.1,0.1-0.1,0.1c0,0-0.1-0.1-0.1-0.1l0.1-0.7c0-0.1,0.1-0.1,0.1-0.1
		S6.4,109.4,6.4,109.4C6.4,109.4,6.4,109.4,6.4,109.4z"/><path class="st2" d="M6.1,110.9L6,111.4c0,0,0,0.1-0.1,0.1c0,0-0.1,0-0.1-0.1l0.1-0.5C6,110.8,6,110.8,6.1,110.9
		C6.1,110.8,6.1,110.8,6.1,110.9C6.1,110.9,6.1,110.9,6.1,110.9z"/></g><path class="st3" d="M180.9,69.7c0.3,1.9,0.5,3.8-0.9,7.5c-3.3,9.3-12.2,13.6-15.2,14.9c-12.7,5.3-24.8,0-26.4-0.7
	c0.2-2.7-14.6,21.3-49,9.1c-0.4-2.7-6.9,8.3-29.5,8.3c-30.1-3.1-22.5-15.5-22.3-15.9c-0.6,0.2-16.3,4.8-29.2-2.7
	C-1.7,83-2.6,73.7,5,64.8c7-7,18.2-13.1,34.7-7.3c0,0,15.1-34.3,49-11c0,0,9.4-25.2,33.1-16.2c23.4,9,18.9,24.8,19,25.1
	c2-0.7,16.1-5.8,28.1,0.5C176.4,60,180.2,66.4,180.9,69.7z"/><path class="st3" d="M46.3,34.8c0.2,0.3,0.3,0.6,0.4,1.3c0.3,1.7-0.5,2.9-0.8,3.3c-1.2,1.6-3.1,1.3-3.3,1.3
	c-0.2-0.5-0.3,4.3-5.4,4.1c-0.2-0.4-0.3,1.7-3,3c-3.9,1.1-3.9-1.3-3.9-1.4c-0.1,0.1-1.7,1.7-3.8,1.1c-1.8-0.6-2.5-2.1-2.2-4
	c0.4-1.5,1.3-3.1,3.8-3.1c0,0-0.6-6.5,5.3-4.4c0,0-0.7-4.7,2.9-4.4c3.5,0.2,4.1,3.1,4.1,3.1c0.2-0.2,1.6-1.8,3.5-1.4
	C45.1,33.5,46,34.3,46.3,34.8z"/><path class="st0" d="M18.7,34.8c0,0.1,0,0.3-0.1,0.5c-0.2,0.6-0.7,0.8-0.9,0.9C17,36.5,16.4,36,16.3,36c0-0.2-0.9,1.4-2.6,0.3
	c0-0.2-0.4,0.5-1.6,0.4c-1.5-0.4-1-1.2-1-1.2c0,0-0.9,0.2-1.5-0.4c-0.5-0.5-0.4-1.2,0-1.7c0.4-0.4,1-0.8,1.8-0.3
	c0,0,1.1-2.2,2.6-0.4c0,0,0.7-1.7,1.8-0.9c1.1,0.8,0.7,1.8,0.7,1.8c0.1,0,0.9-0.3,1.4,0.2C18.5,34.1,18.7,34.5,18.7,34.8z"/><path class="st3" d="M93.9,112.9c0.1,0.2,0.2,0.4,0.3,0.9c0.2,1.2-0.5,2.1-0.7,2.4c-0.9,1.2-2.4,1-2.6,1c-0.1-0.3-0.3,3.1-4.2,3.1
	c-0.2-0.3-0.2,1.3-2.4,2.2c-3,0.9-2.9-0.9-2.9-0.9c0,0-1.3,1.2-2.9,0.9c-1.3-0.4-1.9-1.5-1.6-2.8c0.3-1.1,1.1-2.3,3-2.3
	c0,0-0.3-4.6,4.1-3.3c0,0-0.4-3.3,2.3-3.3c2.7,0.1,3.1,2.1,3.1,2.2c0.2-0.2,1.2-1.3,2.7-1.1C92.9,111.9,93.6,112.5,93.9,112.9z"/><path class="st0" d="M125.1,128c-0.2,0.1-0.4,0.2-0.7,0.2c-1,0.2-1.6-0.2-1.8-0.3c-0.8-0.6-0.6-1.5-0.6-1.6c0.3-0.1-2.4,0-2.1-2.6
	c0.3-0.1-1-0.1-1.5-1.4c-0.5-1.9,0.9-2,1-2c0,0-0.9-0.8-0.5-1.9c0.4-0.9,1.3-1.3,2.4-1.2c0.9,0.1,1.7,0.6,1.6,1.8
	c0,0,3.7-0.5,2.3,2.5c0,0,2.7-0.5,2.4,1.3c-0.3,1.8-1.9,2.1-2,2.2c0.1,0.1,1,0.7,0.7,1.7C125.9,127.4,125.4,127.9,125.1,128z"/><path class="st3" d="M151.7,103.5c0.1,0.1,0.2,0.2,0.3,0.4c0.2,0.6,0.1,1.1,0,1.2c-0.2,0.6-0.9,0.6-1,0.6c-0.1-0.2,0.3,1.6-1.4,1.7
	c-0.1-0.1,0.1,0.6-0.7,1.2c-1.2,0.5-1.4-0.3-1.4-0.4c0,0-0.4,0.7-1.1,0.5c-0.6-0.2-1-0.7-1.1-1.4c0-0.6,0.1-1.2,0.9-1.3
	c0,0-0.8-2.3,1.3-1.8c0,0-0.6-1.7,0.5-1.7c1.2-0.1,1.6,1,1.6,1c0-0.1,0.3-0.7,1-0.6C151.1,103,151.5,103.3,151.7,103.5z"/><path class="st3" d="M97.4,20.3c-0.1,0.1-0.3,0.3-0.6,0.5c-0.9,0.5-1.6,0.3-1.8,0.2c-1-0.3-1-1.2-1.1-1.4c0.2-0.2-2.3,0.7-2.8-1.8
	c0.2-0.2-1,0.2-1.9-0.9c-1-1.7,0.3-2.2,0.3-2.2c0,0-1.1-0.5-1-1.6c0.1-1,0.9-1.7,1.9-1.9c0.9-0.1,1.8,0,2,1.2c0,0,3.4-1.6,2.9,1.7
	c0,0,2.4-1.2,2.7,0.6c0.3,1.8-1.2,2.6-1.2,2.6c0.1,0.1,1.1,0.4,1.1,1.4C98,19.5,97.7,20.1,97.4,20.3z"/><path class="st4" d="M2.1,93.2c0.1,0,0.1,0,0.1,0C2.2,93.2,2.2,93.2,2.1,93.2C2.1,93.3,2.1,93.3,2.1,93.2z"/><path class="st5" d="M177.1,75.9c-2.6,6.8-9.6,9.9-12,10.9c-3.7,1.4-7.3,1.8-10.5,1.7c1.8-0.3,3.8-0.8,5.7-1.5
	c2.6-1,10.5-4.6,13.4-12.2c1.2-3,1.1-4.6,0.8-6.1c-0.4-1.8-2.1-4.8-5.2-7.6c5.3,2.9,7.9,7.2,8.5,9.4C178,71.8,178.2,73.2,177.1,75.9
	z"/><path class="st5" d="M116.1,32.5c6.7,2.9,9.6,10,10.4,12.4c1.3,3.7,1.5,7.4,1.3,10.5c-0.2-1.9-0.6-3.8-1.3-5.7
	c-0.9-2.7-4.2-10.7-11.7-13.9c-2.9-1.3-4.5-1.2-6.1-1c-1.8,0.3-4.9,1.9-7.8,4.9c3.1-5.1,7.4-7.7,9.7-8.1
	C112.1,31.4,113.5,31.3,116.1,32.5z"/><path class="st5" d="M111.6,98.9c-4.2,2.8-9.6,1.7-11.4,1.3c-2.8-0.7-5.1-1.9-6.9-3.3c1.2,0.6,2.6,1.1,4,1.4c2,0.5,8.1,1.7,12.7-1.5
	c1.9-1.2,2.4-2.2,2.8-3.1c0.4-1.2,0.6-3.6-0.2-6.4c2.1,3.8,2,7.3,1.5,8.8C113.7,96.9,113.3,97.8,111.6,98.9z"/><path class="st5" d="M22.5,91.1c-6.9-1.6-10-5.9-11-7.4c-1.4-2.3-1.8-4.5-1.7-6.5c0.3,1.1,0.8,2.3,1.6,3.5c1.1,1.6,4.6,6.5,12.3,8.2
	c3,0.8,4.6,0.6,6.2,0.5c1.8-0.3,4.9-1.3,7.6-3.3c-2.9,3.3-7.2,4.9-9.5,5.3C26.6,91.6,25.2,91.7,22.5,91.1z"/></svg>