<?xml version="1.0" encoding="utf-8"?><!--Generator: Adobe Illustrator 26.0.2, SVG Export Plug-In . SVG Version: 6.00 Build 0)--><svg version="1.1" id="Layer_1" xmlns="http://www.w3.org/2000/svg" xmlns:xlink="http://www.w3.org/1999/xlink" x="0px" y="0px" viewBox="0 0 181.2 117.1" style="enable-background:new 0 0 181.2 117.1" xml:space="preserve"><style type="text/css">.st0{fill:#AB9C8A;}
	.st1{display:none;}
	.st2{display:inline;fill:#1E2873;}
	.st3{fill:#330033;}
	.st4{fill:#5162B5;}
	.st5{fill:#6D6753;}</style><g id="Layer_2_00000170255083474503974910000000889383632950014619_"/><path class="st0" d="M174.4,29.2c0.1,1.2,0.2,2.3-0.4,4.5c-1.6,5.6-6,8.2-7.5,9c-6.2,3.2-12.2,0-13-0.4c0.1-1.6-7.2,12.8-24.1,5.5
	c-0.2-1.6-3.4,5-14.5,5c-14.8-1.9-11.1-9.3-11-9.6c-0.3,0.1-8,2.9-14.4-1.6c-5-4.3-5.4-9.9-1.7-15.2c3.4-4.2,8.9-7.9,17.1-4.4
	c0,0,7.4-20.6,24.1-6.6c0,0,4.6-15.2,16.3-9.7c11.5,5.4,9.3,14.9,9.3,15.1c1-0.4,7.9-3.5,13.8,0.3C172.2,23.4,174,27.2,174.4,29.2z"/><path class="st0" d="M51.8,93.4c0.1,0.6,0.1,1.2-0.2,2.3c-0.8,2.9-3.1,4.2-3.8,4.6c-3.2,1.6-6.3,0-6.7-0.2c0.1-0.8-3.7,6.6-12.4,2.8
	c-0.1-0.8-1.7,2.6-7.5,2.6c-7.6-1-5.7-4.8-5.6-4.9c-0.2,0.1-4.1,1.5-7.4-0.8c-2.6-2.2-2.8-5.1-0.9-7.8c1.8-2.2,4.6-4,8.8-2.3
	c0,0,3.8-10.6,12.4-3.4c0,0,2.4-7.8,8.4-5c5.9,2.8,4.8,7.7,4.8,7.8c0.5-0.2,4.1-1.8,7.1,0.2C50.7,90.4,51.6,92.4,51.8,93.4z"/><g class="st1"><path class="st2" d="M21.5,52.4l0.4-2c0-0.1,0.1-0.1,0.2-0.1s0.1,0.1,0.1,0.2l0,0l0,0l-0.5,1.9l0,0c0,0.1-0.1,0.1-0.1,0.1
		C21.5,52.5,21.5,52.4,21.5,52.4z"/><path class="st2" d="M22.3,48.4l0.2-1c0-0.1,0.1-0.2,0.3-0.2c0.1,0,0.2,0.1,0.2,0.3l0,0l-0.3,1c0,0.1-0.1,0.2-0.2,0.1
		C22.4,48.6,22.3,48.5,22.3,48.4z"/><path class="st2" d="M22.8,46.5l0.6-1.9c0-0.1,0.2-0.2,0.3-0.2s0.2,0.2,0.2,0.3l0,0l0,0l-0.6,1.9c0,0.1-0.2,0.2-0.3,0.2
		C22.9,46.7,22.8,46.6,22.8,46.5z"/><path class="st2" d="M24,42.6l0.3-1c0.1-0.2,0.2-0.3,0.4-0.2c0.2,0.1,0.3,0.2,0.2,0.4l0,0l-0.3,1C24.5,43,24.4,43,24.2,43
		C24,43,23.9,42.8,24,42.6z"/><path class="st2" d="M24.6,40.7l0.7-1.9c0.1-0.2,0.3-0.3,0.5-0.2s0.3,0.3,0.2,0.5l0,0l0,0L25.3,41l0,0c-0.1,0.2-0.3,0.3-0.5,0.2
		C24.6,41.1,24.5,40.9,24.6,40.7z"/><path class="st2" d="M26,37l0.4-0.9c0.1-0.2,0.3-0.3,0.6-0.3c0.2,0.1,0.3,0.3,0.3,0.6l0,0l-0.4,0.9c-0.1,0.2-0.3,0.3-0.6,0.2
		C26,37.4,25.9,37.2,26,37z"/><path class="st2" d="M26.7,35.1l0.8-1.9c0.1-0.2,0.4-0.4,0.6-0.3c0.2,0.1,0.4,0.4,0.3,0.6l0,0l0,0l-0.8,1.8l0,0
		c-0.1,0.2-0.4,0.3-0.6,0.2C26.7,35.6,26.6,35.3,26.7,35.1z"/><path class="st2" d="M28.3,31.4l0.4-0.9c0.1-0.3,0.4-0.4,0.7-0.3c0.3,0.1,0.4,0.4,0.3,0.7l0,0l0,0l-0.5,0.9l0,0
		c-0.1,0.3-0.4,0.4-0.7,0.2C28.3,32,28.2,31.7,28.3,31.4z"/><path class="st2" d="M29.1,29.6l0.9-1.8c0.1-0.3,0.5-0.4,0.8-0.3c0.3,0.1,0.4,0.5,0.3,0.8l0,0l0,0l-0.9,1.8l0,0
		c-0.1,0.3-0.5,0.4-0.7,0.2C29.1,30.2,29,29.9,29.1,29.6z"/><path class="st2" d="M30.9,26l0.5-0.9c0.2-0.3,0.5-0.4,0.8-0.2c0.3,0.2,0.4,0.5,0.2,0.8l0,0l0,0L32,26.6l0,0
		c-0.2,0.3-0.5,0.4-0.8,0.2C30.9,26.6,30.8,26.3,30.9,26z"/><path class="st2" d="M31.9,24.2l1-1.7c0.2-0.3,0.6-0.4,0.9-0.2c0.3,0.2,0.4,0.6,0.2,0.9l0,0l0,0l-1,1.6l0,0
		c-0.2,0.3-0.5,0.4-0.8,0.2C31.8,24.9,31.7,24.5,31.9,24.2z"/><path class="st2" d="M33.9,20.8l0.5-0.9c0.2-0.3,0.6-0.4,0.9-0.2c0.3,0.2,0.4,0.6,0.2,0.9l0,0l0,0L35,21.5l0,0
		c-0.2,0.3-0.6,0.4-0.9,0.2C33.8,21.5,33.7,21.1,33.9,20.8z"/><path class="st2" d="M35,19l1.1-1.7c0.2-0.3,0.7-0.4,1-0.2c0.3,0.2,0.4,0.7,0.2,1l0,0l0,0l-1.2,1.7l0,0c-0.2,0.3-0.6,0.4-0.9,0.2
		C34.9,19.8,34.8,19.4,35,19z"/><path class="st2" d="M37.3,15.7l0.6-0.8c0.2-0.3,0.7-0.4,1-0.2s0.4,0.7,0.2,1l0,0l0,0l-0.6,0.8l0,0c-0.2,0.3-0.7,0.4-1,0.1
		C37.1,16.5,37,16,37.3,15.7z"/><path class="st2" d="M38.4,14.1l1.2-1.6c0.3-0.3,0.7-0.4,1.1-0.1s0.4,0.7,0.1,1.1l0,0l0,0l-1.2,1.6l0,0c-0.3,0.3-0.7,0.4-1.1,0.1
		C38.2,14.9,38.2,14.4,38.4,14.1z"/><path class="st2" d="M41,10.9l0.7-0.8c0.3-0.3,0.8-0.4,1.1-0.1s0.4,0.8,0.1,1.1l0,0l0,0l-0.6,0.8l0,0c-0.3,0.3-0.8,0.4-1.1,0.1
		C40.7,11.7,40.7,11.2,41,10.9z"/><path class="st2" d="M42.3,9.4l1.4-1.5c0.3-0.3,0.8-0.3,1.1-0.1c0.3,0.3,0.3,0.8,0.1,1.1l0,0l0,0l-1.3,1.5l0,0
		c-0.3,0.3-0.8,0.3-1.1,0C42,10.2,42,9.7,42.3,9.4z"/><path class="st2" d="M45,6.4l0.7-0.7c0.3-0.3,0.8-0.3,1.1,0s0.3,0.8,0,1.1l0,0l0,0l-0.7,0.7l0,0c-0.3,0.3-0.8,0.3-1.1,0
		C44.7,7.2,44.7,6.7,45,6.4z"/><path class="st2" d="M46.4,5l1.5-1.4c0.3-0.3,0.8-0.3,1.2,0c0.3,0.3,0.3,0.8,0,1.2l0,0l0,0l-1.4,1.3l0,0c-0.3,0.3-0.8,0.3-1.1,0
		C46.1,5.8,46.1,5.3,46.4,5z"/><path class="st2" d="M49.4,2.2l0.8-0.7c0.3-0.3,0.9-0.3,1.2,0.1s0.3,0.9-0.1,1.2l0,0l0,0l-0.8,0.6l0,0c-0.3,0.3-0.9,0.2-1.2-0.1
		C49,3.1,49.1,2.5,49.4,2.2z"/><path class="st2" d="M51,0.9l1.6-1.3c0.4-0.3,0.9-0.2,1.2,0.1s0.2,0.9-0.1,1.2l0,0l0,0L52,2.2l0,0c-0.4,0.3-0.9,0.2-1.2-0.1
		C50.5,1.7,50.6,1.2,51,0.9z"/><path class="st2" d="M54.2-1.5L55-2.1c0.4-0.3,0.9-0.2,1.2,0.2S56.4-1,56-0.7l0,0l0,0l-0.8,0.5l0,0C54.8,0.1,54.3,0,54-0.4
		C53.7-0.7,53.8-1.3,54.2-1.5z"/><path class="st2" d="M55.8-2.7l1.7-1.1c0.4-0.3,0.9-0.2,1.2,0.2c0.3,0.4,0.2,1-0.2,1.2l0,0l0,0l-1.7,1.1l0,0
		c-0.4,0.3-0.9,0.1-1.2-0.3C55.3-1.9,55.4-2.4,55.8-2.7z"/><path class="st2" d="M59.2-4.9l0.9-0.5c0.4-0.2,1-0.1,1.2,0.3s0.1,1-0.3,1.2l0,0l0,0l-0.9,0.5l0,0c-0.4,0.2-1,0.1-1.2-0.3
		S58.8-4.7,59.2-4.9z"/><path class="st2" d="M61-5.9l1.8-1c0.4-0.2,1-0.1,1.2,0.4c0.2,0.4,0.1,1-0.4,1.2l0,0l0,0l-1.7,0.9l0,0c-0.4,0.2-1,0.1-1.2-0.4
		C60.4-5.1,60.5-5.7,61-5.9z"/><path class="st2" d="M64.6-7.8l0.9-0.4c0.4-0.2,1,0,1.2,0.4s0,1-0.4,1.2l0,0l-1,0.4l0,0c-0.4,0.2-1,0-1.2-0.4
		C63.9-7,64.1-7.6,64.6-7.8L64.6-7.8z"/><path class="st2" d="M66.4-8.6l1.9-0.8c0.4-0.2,1,0,1.1,0.5c0.2,0.4,0,1-0.5,1.1l0,0l-1.8,0.7l0,0c-0.5,0.2-1,0-1.1-0.5
		C65.8-7.9,66-8.4,66.4-8.6L66.4-8.6z"/><path class="st2" d="M70.3-10l1-0.3c0.5-0.1,0.9,0.1,1.1,0.6c0.1,0.5-0.1,0.9-0.6,1.1l0,0l-0.9,0.3l0,0c-0.5,0.1-0.9-0.1-1.1-0.6
		C69.5-9.4,69.8-9.9,70.3-10L70.3-10z"/><path class="st2" d="M72.2-10.6l2-0.5c0.5-0.1,0.9,0.2,1,0.6c0.1,0.5-0.2,0.9-0.6,1l0,0L72.7-9l0,0c-0.5,0.1-0.9-0.2-1-0.6
		C71.5-10,71.8-10.5,72.2-10.6L72.2-10.6z"/><path class="st2" d="M76.2-11.4l1-0.1c0.5-0.1,0.9,0.3,0.9,0.7c0.1,0.5-0.3,0.9-0.7,0.9l0,0l-1,0.1l0,0c-0.5,0.1-0.9-0.3-0.9-0.7
		C75.5-10.9,75.8-11.3,76.2-11.4L76.2-11.4z"/><path class="st2" d="M78.3-11.6c0.7,0,1.4-0.1,2.1-0.1c0.5,0,0.8,0.4,0.8,0.8c0,0.5-0.4,0.8-0.8,0.8c-0.6,0-1.3,0-1.9,0.1
		c-0.5,0-0.9-0.3-0.9-0.8C77.5-11.2,77.8-11.6,78.3-11.6L78.3-11.6z"/><path class="st2" d="M82.4-11.5l1,0.1c0.4,0.1,0.7,0.5,0.7,0.9c-0.1,0.4-0.4,0.7-0.9,0.7l0,0l-1-0.1l0,0c-0.4,0-0.8-0.4-0.7-0.9
		S82-11.6,82.4-11.5L82.4-11.5z"/><path class="st2" d="M84.5-11.2c0.7,0.1,1.3,0.3,2,0.5c0.4,0.1,0.6,0.5,0.5,0.9c-0.1,0.4-0.5,0.6-0.9,0.5c-0.6-0.2-1.2-0.3-1.9-0.4
		c-0.4-0.1-0.7-0.5-0.6-0.9C83.6-11,84-11.3,84.5-11.2L84.5-11.2z"/><path class="st2" d="M88.4-10l0.9,0.4c0.4,0.2,0.5,0.6,0.4,1c-0.2,0.4-0.6,0.5-0.9,0.4l0,0l-0.9-0.4l0,0c-0.4-0.2-0.6-0.6-0.4-1
		C87.6-10,88-10.2,88.4-10L88.4-10z"/><path class="st2" d="M90.3-9.1c0.6,0.3,1.2,0.7,1.8,1.1c0.3,0.2,0.4,0.6,0.2,1c-0.2,0.3-0.6,0.4-0.9,0.2c-0.5-0.3-1.1-0.7-1.7-1
		c-0.4-0.2-0.5-0.6-0.3-1C89.5-9.2,89.9-9.3,90.3-9.1L90.3-9.1z"/><path class="st2" d="M93.7-6.8l0.8,0.6c0.3,0.2,0.3,0.6,0.1,0.9C94.4-5,94-5,93.7-5.2l0,0l-0.8-0.6l0,0c-0.3-0.2-0.3-0.6-0.1-0.9
		S93.4-7.1,93.7-6.8L93.7-6.8z"/><path class="st2" d="M95.3-5.5c0.5,0.5,1,1,1.4,1.5c0.2,0.3,0.2,0.6-0.1,0.9c-0.2,0.2-0.6,0.2-0.8-0.1c-0.4-0.5-0.9-0.9-1.4-1.4
		c-0.3-0.2-0.3-0.6,0-0.9C94.6-5.7,95-5.7,95.3-5.5L95.3-5.5z"/><path class="st2" d="M98-2.4l0.6,0.8c0.2,0.3,0.1,0.6-0.1,0.8c-0.3,0.2-0.6,0.1-0.8-0.1l0,0L97-1.7l0,0c-0.2-0.3-0.1-0.6,0.1-0.8
		S97.8-2.6,98-2.4C97.9-2.4,98-2.4,98-2.4z"/><path class="st2" d="M99.1-0.7l1,1.8c0.1,0.3,0.1,0.6-0.2,0.7c-0.3,0.1-0.6,0.1-0.7-0.2l0,0l-1-1.7l0,0c-0.2-0.3-0.1-0.6,0.2-0.8
		C98.6-1,98.9-1,99.1-0.7L99.1-0.7z"/><path class="st2" d="M101,2.9l0.4,0.9c0.1,0.3,0,0.5-0.3,0.7c-0.2,0.1-0.5,0-0.7-0.2l0,0L100,3.4l0,0c-0.1-0.3,0-0.6,0.2-0.7
		C100.6,2.5,100.9,2.6,101,2.9L101,2.9z"/><path class="st2" d="M101.8,4.8l0.7,1.9c0.1,0.2,0,0.5-0.3,0.6c-0.2,0.1-0.5,0-0.6-0.3l0,0l-0.7-1.8l0,0c-0.1-0.2,0-0.5,0.3-0.6
		S101.7,4.5,101.8,4.8C101.8,4.7,101.8,4.8,101.8,4.8z"/><path class="st2" d="M103.1,8.6l0.3,1c0.1,0.2-0.1,0.5-0.3,0.5c-0.2,0.1-0.4-0.1-0.5-0.3l0,0l-0.3-0.9l0,0
		c-0.1-0.2,0.1-0.5,0.3-0.5S103,8.3,103.1,8.6L103.1,8.6z"/><path class="st2" d="M103.6,10.5l0.4,2c0,0.2-0.1,0.4-0.3,0.5c-0.2,0-0.4-0.1-0.5-0.3l0,0l-0.5-1.9l0,0c-0.1-0.2,0.1-0.4,0.3-0.5
		C103.4,10.2,103.6,10.3,103.6,10.5L103.6,10.5z"/><path class="st2" d="M104.4,14.5l0.1,1c0,0.2-0.1,0.4-0.3,0.4c-0.2,0-0.4-0.1-0.4-0.3l0,0l-0.2-1l0,0c0-0.2,0.1-0.4,0.3-0.4
		S104.4,14.3,104.4,14.5L104.4,14.5z"/><path class="st2" d="M104.7,16.5l0.2,2c0,0.2-0.1,0.4-0.3,0.4c-0.2,0-0.4-0.1-0.4-0.3l0,0l-0.2-2l0,0c0-0.2,0.1-0.4,0.3-0.4
		S104.7,16.3,104.7,16.5L104.7,16.5z"/><path class="st2" d="M105,20.5v1c0,0.2-0.1,0.4-0.3,0.4c-0.2,0-0.4-0.1-0.4-0.3l0,0l-0.1-1l0,0c0-0.2,0.1-0.4,0.3-0.4
		S105,20.3,105,20.5L105,20.5z"/><path class="st2" d="M105.1,22.5v2c0,0.2-0.1,0.3-0.3,0.3c-0.2,0-0.3-0.1-0.3-0.3l0,0v-2l0,0c0-0.2,0.1-0.3,0.3-0.3
		C104.9,22.2,105.1,22.3,105.1,22.5L105.1,22.5z"/><path class="st2" d="M105,26.5l-0.1,1c0,0.2-0.2,0.3-0.3,0.3c-0.2,0-0.3-0.2-0.3-0.3v-1c0-0.2,0.2-0.3,0.3-0.3
		C104.9,26.2,105,26.3,105,26.5L105,26.5z"/><path class="st2" d="M104.9,28.5l-0.2,2c0,0.2-0.2,0.3-0.3,0.3c-0.2,0-0.3-0.2-0.3-0.3l0,0l0.2-2l0,0c0-0.2,0.2-0.3,0.3-0.3
		C104.8,28.2,104.9,28.4,104.9,28.5L104.9,28.5z"/><path class="st2" d="M104.5,32.5l-0.1,1c0,0.2-0.2,0.3-0.3,0.3s-0.3-0.2-0.3-0.3l0,0l0.1-1c0-0.2,0.2-0.3,0.3-0.3
		C104.4,32.2,104.5,32.4,104.5,32.5z"/><path class="st2" d="M104.3,34.5l-0.3,2c0,0.2-0.2,0.3-0.4,0.3c-0.2,0-0.3-0.2-0.3-0.4l0,0l0,0l0.3-2l0,0c0-0.2,0.2-0.3,0.4-0.3
		C104.2,34.2,104.3,34.4,104.3,34.5z"/><path class="st2" d="M103.6,38.5l-0.2,1c0,0.2-0.2,0.3-0.4,0.3s-0.3-0.2-0.3-0.4l0,0l0.2-1c0-0.2,0.2-0.3,0.4-0.3
		S103.6,38.3,103.6,38.5z"/><path class="st2" d="M103.1,40.4l-0.5,2c0,0.2-0.2,0.3-0.4,0.3c-0.2,0-0.3-0.2-0.3-0.4l0,0l0,0l0.5-1.9l0,0c0-0.2,0.2-0.3,0.4-0.2
		C103.1,40.1,103.2,40.3,103.1,40.4z"/><path class="st2" d="M102.1,44.3l-0.3,1c-0.1,0.2-0.3,0.3-0.4,0.2c-0.2-0.1-0.3-0.3-0.2-0.4l0,0l0.3-1c0.1-0.2,0.2-0.3,0.4-0.2
		C102.1,43.9,102.2,44.1,102.1,44.3z"/><path class="st2" d="M101.6,46.3l-0.6,1.9c-0.1,0.2-0.3,0.3-0.5,0.2s-0.3-0.3-0.2-0.5l0,0l0,0l0.6-1.9l0,0c0.1-0.2,0.3-0.3,0.5-0.2
		C101.5,45.9,101.6,46.1,101.6,46.3z"/><path class="st2" d="M100.3,50.1L100,51c-0.1,0.2-0.3,0.3-0.5,0.2s-0.3-0.3-0.2-0.5l0,0l0.4-0.9c0.1-0.2,0.3-0.3,0.5-0.2
		C100.2,49.7,100.3,49.9,100.3,50.1z"/><path class="st2" d="M99.6,51.9l-0.8,1.9c-0.1,0.2-0.3,0.3-0.5,0.2c-0.2-0.1-0.3-0.3-0.2-0.5l0,0l0,0l0.8-1.8l0,0
		c0.1-0.2,0.3-0.3,0.5-0.2C99.6,51.5,99.6,51.7,99.6,51.9z"/><path class="st2" d="M98,55.7l-0.4,0.9c-0.1,0.2-0.4,0.3-0.6,0.2c-0.2-0.1-0.3-0.4-0.2-0.6l0,0l0.4-0.9c0.1-0.2,0.4-0.3,0.6-0.2
		C98,55.2,98.1,55.4,98,55.7z"/><path class="st2" d="M97.2,57.5l-0.8,1.8c-0.1,0.2-0.4,0.3-0.6,0.2c-0.2-0.1-0.3-0.4-0.2-0.6l0,0l0,0l0.9-1.8l0,0
		c0.1-0.2,0.4-0.3,0.6-0.2C97.2,57,97.3,57.3,97.2,57.5z"/><path class="st2" d="M95.5,61.1L95.1,62c-0.1,0.3-0.4,0.4-0.7,0.2c-0.3-0.1-0.4-0.4-0.2-0.7l0,0l0.5-0.9c0.1-0.2,0.4-0.3,0.7-0.2
		C95.5,60.6,95.6,60.9,95.5,61.1z"/><path class="st2" d="M94.6,62.9l-0.9,1.8c-0.1,0.3-0.5,0.4-0.7,0.2c-0.3-0.1-0.4-0.5-0.2-0.7l0,0l0,0l0.9-1.8l0,0
		c0.1-0.3,0.4-0.3,0.7-0.2C94.7,62.4,94.7,62.7,94.6,62.9z"/><path class="st2" d="M92.8,66.5l-0.5,0.9c-0.1,0.3-0.5,0.4-0.8,0.2s-0.4-0.5-0.2-0.8l0,0l0.5-0.9c0.1-0.3,0.5-0.4,0.8-0.2
		C92.8,65.9,92.9,66.2,92.8,66.5z"/><path class="st2" d="M91.8,68.3l-1,1.8c-0.2,0.3-0.5,0.4-0.8,0.2c-0.3-0.2-0.4-0.5-0.2-0.8l0,0l1-1.7c0.2-0.3,0.5-0.4,0.8-0.2
		C91.9,67.6,92,68,91.8,68.3z"/><path class="st2" d="M89.9,71.8l-0.5,0.9c-0.2,0.3-0.6,0.4-0.9,0.2c-0.3-0.2-0.4-0.6-0.2-0.9l0,0l0.5-0.9c0.2-0.3,0.6-0.4,0.9-0.2
		C90,71.1,90.1,71.5,89.9,71.8z"/><path class="st2" d="M88.9,73.5l-1,1.7c-0.2,0.3-0.6,0.4-0.9,0.3c-0.3-0.2-0.4-0.6-0.3-0.9l0,0l1-1.7c0.2-0.3,0.6-0.4,0.9-0.2
		C89,72.8,89.1,73.2,88.9,73.5z"/><path class="st2" d="M86.9,77l-0.5,0.9c-0.2,0.3-0.6,0.5-1,0.3c-0.3-0.2-0.5-0.6-0.3-1l0,0l0.5-0.9c0.2-0.3,0.6-0.4,1-0.2
		C87,76.2,87.1,76.7,86.9,77z"/><path class="st2" d="M85.9,78.7l-1,1.7c-0.2,0.4-0.7,0.5-1,0.3s-0.5-0.7-0.3-1l0,0l1.1-1.7c0.2-0.3,0.6-0.4,1-0.2
		C86,77.9,86.1,78.4,85.9,78.7z"/><path class="st2" d="M83.9,82.2l-0.5,0.9c-0.2,0.4-0.7,0.5-1.1,0.3s-0.5-0.7-0.3-1.1l0,0l0.5-0.9c0.2-0.4,0.7-0.5,1-0.2
		C84,81.4,84.1,81.8,83.9,82.2z"/><path class="st2" d="M82.9,83.9l-1,1.7c-0.2,0.4-0.7,0.5-1.1,0.3s-0.5-0.7-0.3-1.1l0,0l1.1-1.7c0.2-0.4,0.7-0.5,1.1-0.3
		C83,83.1,83.1,83.5,82.9,83.9z"/><path class="st2" d="M80.8,87.3l-0.5,0.9c-0.2,0.4-0.7,0.5-1.1,0.3s-0.5-0.7-0.3-1.1l0,0l0.5-0.9c0.2-0.4,0.7-0.5,1.1-0.3
		C80.9,86.5,81,86.9,80.8,87.3z"/><path class="st2" d="M79.8,89l-1,1.7c-0.2,0.4-0.7,0.5-1.1,0.3s-0.5-0.7-0.3-1.1l0,0l1.1-1.7c0.2-0.4,0.7-0.5,1.1-0.3
		C79.9,88.2,80,88.7,79.8,89z"/><path class="st2" d="M77.7,92.5l-0.5,0.9c-0.2,0.4-0.8,0.5-1.2,0.3c-0.4-0.2-0.5-0.8-0.3-1.2l0,0l0.5-0.9c0.2-0.4,0.8-0.5,1.2-0.3
		C77.8,91.6,78,92.1,77.7,92.5z"/><path class="st2" d="M76.7,94.2l-1,1.7c-0.2,0.4-0.8,0.6-1.2,0.3c-0.4-0.2-0.6-0.8-0.3-1.2l0,0l1-1.7c0.2-0.4,0.8-0.5,1.2-0.3
		C76.8,93.3,77,93.8,76.7,94.2z"/><path class="st2" d="M74.7,97.6l-0.5,0.9c-0.2,0.4-0.8,0.6-1.2,0.3s-0.6-0.8-0.3-1.2l0,0l0.5-0.9c0.3-0.4,0.8-0.6,1.2-0.3
		C74.8,96.7,75,97.2,74.7,97.6z"/><path class="st2" d="M73.7,99.4l-1,1.7l0,0c-0.2,0.4-0.8,0.6-1.2,0.3c-0.4-0.2-0.6-0.8-0.3-1.2l0,0l1-1.7c0.2-0.4,0.8-0.6,1.2-0.3
		C73.8,98.4,74,98.9,73.7,99.4L73.7,99.4z"/><path class="st2" d="M71.8,102.9l-0.5,0.9l0,0c-0.2,0.5-0.8,0.6-1.3,0.4s-0.6-0.8-0.4-1.3l0,0l0.5-0.9c0.2-0.4,0.8-0.6,1.3-0.4
		C71.9,101.8,72,102.4,71.8,102.9L71.8,102.9z"/><path class="st2" d="M70.9,104.6l-0.9,1.8l0,0c-0.2,0.5-0.8,0.6-1.3,0.4s-0.6-0.8-0.4-1.3l0,0l0.9-1.8c0.2-0.5,0.8-0.6,1.3-0.4
		C70.9,103.6,71.1,104.1,70.9,104.6L70.9,104.6z"/><path class="st2" d="M69.1,108.2l-0.4,0.9l0,0c-0.2,0.5-0.8,0.7-1.3,0.4c-0.5-0.2-0.7-0.8-0.4-1.3l0,0l0.4-0.9
		c0.2-0.5,0.8-0.7,1.3-0.4C69.1,107.1,69.3,107.7,69.1,108.2L69.1,108.2z"/><path class="st2" d="M68.2,109.9l-0.8,1.8l0,0c-0.2,0.5-0.8,0.7-1.3,0.5s-0.7-0.8-0.5-1.3l0,0l0.8-1.8c0.2-0.5,0.8-0.7,1.3-0.5
		C68.2,108.9,68.4,109.4,68.2,109.9L68.2,109.9z"/><path class="st2" d="M66.7,113.6l-0.3,0.9l0,0c-0.2,0.5-0.8,0.8-1.3,0.6s-0.8-0.8-0.6-1.3l0,0l0.4-1c0.2-0.5,0.8-0.8,1.3-0.6
		C66.6,112.5,66.9,113.1,66.7,113.6L66.7,113.6z"/><path class="st2" d="M66,115.4l-0.6,1.9v0.1c-0.2,0.5-0.7,0.8-1.2,0.6s-0.8-0.7-0.6-1.2l0,0l0.6-2c0.2-0.5,0.7-0.8,1.2-0.6
		C65.9,114.3,66.2,114.9,66,115.4L66,115.4z"/><path class="st2" d="M65,119.2l-0.2,0.9l0,0c-0.1,0.5-0.6,0.9-1.2,0.8c-0.5-0.1-0.9-0.6-0.8-1.2l0,0l0.2-1c0.1-0.5,0.6-0.9,1.2-0.8
		C64.7,118,65.1,118.6,65,119.2L65,119.2z"/><path class="st2" d="M64.6,121c-0.1,0.6-0.1,1.3-0.1,1.9c0,0.6-0.5,1-1,1c-0.6,0-1-0.5-1-1l0,0c0-0.7,0.1-1.4,0.2-2.1
		c0.1-0.6,0.6-0.9,1.1-0.9C64.3,120,64.7,120.5,64.6,121z"/><path class="st2" d="M64.6,124.7l0.2,0.9v0.1c0.1,0.6-0.2,1.1-0.8,1.2c-0.6,0.1-1.1-0.2-1.2-0.8l0,0l-0.2-1.1
		c-0.1-0.6,0.3-1.1,0.8-1.2C64,123.7,64.5,124.1,64.6,124.7L64.6,124.7z"/><path class="st2" d="M65.1,126.5c0.2,0.5,0.5,1.1,0.8,1.5c0.3,0.5,0.2,1.1-0.2,1.5c-0.5,0.3-1.1,0.2-1.5-0.2l0,0
		c-0.4-0.6-0.8-1.3-1-2c-0.2-0.5,0.1-1.1,0.6-1.3C64.3,125.7,64.9,125.9,65.1,126.5z"/><path class="st2" d="M67.1,129.3l0.7,0.5l0.1,0.1c0.5,0.4,0.6,1,0.2,1.5s-1,0.6-1.5,0.2l0,0l-0.9-0.7c-0.5-0.4-0.5-1-0.2-1.5
		C65.9,128.9,66.5,128.8,67.1,129.3L67.1,129.3z"/><path class="st2" d="M68.5,130.3c0.5,0.3,1.1,0.6,1.7,0.8c0.5,0.2,0.8,0.8,0.6,1.4c-0.2,0.5-0.8,0.8-1.4,0.6
		c-0.7-0.2-1.3-0.5-2-0.9c-0.5-0.3-0.7-0.9-0.4-1.4S68,130,68.5,130.3L68.5,130.3z"/><path class="st2" d="M72,131.6l0.9,0.2l0,0c0.6,0.1,0.9,0.7,0.8,1.3s-0.7,0.9-1.3,0.8l-1-0.2c-0.6-0.1-0.9-0.7-0.8-1.3
		C70.8,131.8,71.4,131.5,72,131.6L72,131.6L72,131.6z"/><path class="st2" d="M73.9,132l1.9,0.2h0.1c0.6,0.1,1,0.6,0.9,1.2c-0.1,0.6-0.6,1-1.2,0.9l-2.1-0.3c-0.6-0.1-1-0.6-0.9-1.2
		S73.2,131.9,73.9,132L73.9,132L73.9,132z"/><path class="st2" d="M77.7,132.3h0.9l0,0c0.6,0,1.1,0.4,1.1,1s-0.4,1.1-1,1.1h-1c-0.6,0-1.1-0.4-1.1-1S77.1,132.3,77.7,132.3
		L77.7,132.3L77.7,132.3z"/><path class="st2" d="M79.6,132.2c0.6-0.1,1.3-0.1,1.9-0.3c0.6-0.1,1.1,0.3,1.2,0.8c0.1,0.6-0.3,1.1-0.8,1.2
		c-0.7,0.1-1.4,0.2-2.1,0.3c-0.6,0.1-1.1-0.4-1.1-0.9C78.6,132.8,79,132.3,79.6,132.2L79.6,132.2z"/><path class="st2" d="M83.4,131.6l0.9-0.2l0,0c0.6-0.1,1.1,0.2,1.3,0.7c0.1,0.6-0.2,1.1-0.7,1.3l-1,0.3c-0.6,0.1-1.1-0.2-1.3-0.7
		C82.5,132.3,82.8,131.8,83.4,131.6L83.4,131.6L83.4,131.6z"/><path class="st2" d="M85.3,131.1l1.8-0.6l0,0c0.5-0.2,1.1,0.1,1.3,0.7c0.2,0.5-0.1,1.1-0.7,1.3l-1.9,0.7c-0.5,0.2-1.1-0.1-1.3-0.7
		C84.4,131.9,84.7,131.3,85.3,131.1L85.3,131.1L85.3,131.1z"/><path class="st2" d="M88.9,129.8l0.9-0.4l0,0c0.5-0.2,1.1,0,1.3,0.5c0.2,0.5,0,1.1-0.5,1.3l-0.9,0.4c-0.5,0.2-1.1,0-1.3-0.5
		C88.1,130.6,88.4,130,88.9,129.8L88.9,129.8L88.9,129.8z"/><path class="st2" d="M90.7,129l1.8-0.8l0,0c0.5-0.2,1.1,0,1.4,0.5c0.2,0.5,0,1.1-0.5,1.4l-1.8,0.9c-0.5,0.2-1.1,0-1.4-0.5
		S90.2,129.3,90.7,129L90.7,129L90.7,129z"/><path class="st2" d="M94.3,127.3l0.9-0.5l0,0c0.5-0.3,1.1-0.1,1.4,0.4s0.1,1.1-0.4,1.4l-0.9,0.5c-0.5,0.3-1.1,0.1-1.4-0.4
		S93.7,127.5,94.3,127.3L94.3,127.3L94.3,127.3z"/><path class="st2" d="M96,126.3l1.7-1l0,0c0.5-0.3,1.1-0.1,1.4,0.4s0.1,1.1-0.4,1.4l-1.7,1c-0.5,0.3-1.1,0.1-1.4-0.4
		C95.3,127.2,95.5,126.6,96,126.3L96,126.3L96,126.3z"/><path class="st2" d="M99.4,124.3l0.8-0.5l0,0c0.5-0.3,1.1-0.2,1.4,0.3s0.2,1.1-0.3,1.4l-0.8,0.5c-0.5,0.3-1.1,0.2-1.4-0.3
		C98.7,125.2,98.9,124.6,99.4,124.3L99.4,124.3L99.4,124.3z"/><path class="st2" d="M101,123.2l1.6-1.1l0,0c0.5-0.3,1.1-0.2,1.4,0.3s0.2,1.1-0.3,1.4l-1.7,1.1c-0.5,0.3-1.1,0.2-1.4-0.3
		C100.4,124.1,100.5,123.5,101,123.2L101,123.2L101,123.2z"/><path class="st2" d="M104.3,120.9l0.8-0.6l0,0c0.4-0.3,1-0.2,1.4,0.2c0.3,0.4,0.2,1-0.2,1.4l-0.8,0.6c-0.4,0.3-1.1,0.2-1.4-0.2
		C103.7,121.9,103.8,121.3,104.3,120.9L104.3,120.9L104.3,120.9z"/><path class="st2" d="M105.9,119.8l1.6-1.2l0,0c0.4-0.3,1-0.2,1.3,0.2s0.2,1-0.2,1.3l-1.6,1.2c-0.4,0.3-1,0.3-1.4-0.2
		C105.4,120.7,105.4,120.1,105.9,119.8L105.9,119.8L105.9,119.8z"/><path class="st2" d="M109,117.4l0.8-0.6l0,0c0.4-0.3,1-0.3,1.3,0.2c0.3,0.4,0.3,1-0.1,1.3l-0.8,0.6c-0.4,0.3-1,0.3-1.3-0.1
		C108.6,118.3,108.6,117.7,109,117.4L109,117.4L109,117.4z"/><path class="st2" d="M110.6,116.1l1.5-1.3l0,0c0.4-0.3,1-0.3,1.3,0.1s0.3,1-0.1,1.3l-1.5,1.3c-0.4,0.3-1,0.3-1.3-0.1
		C110.1,117.1,110.2,116.5,110.6,116.1L110.6,116.1L110.6,116.1z"/><path class="st2" d="M113.7,113.6l0.8-0.6l0,0c0.4-0.3,0.9-0.3,1.2,0.1c0.3,0.4,0.3,0.9-0.1,1.2l-0.8,0.7c-0.4,0.3-0.9,0.3-1.3-0.1
		C113.2,114.5,113.3,113.9,113.7,113.6C113.6,113.6,113.6,113.6,113.7,113.6L113.7,113.6z"/><path class="st2" d="M115.2,112.3l1.5-1.3l0,0c0.4-0.3,0.9-0.3,1.2,0.1c0.3,0.4,0.3,0.9-0.1,1.2l-1.5,1.4c-0.4,0.3-0.9,0.3-1.2-0.1
		S114.8,112.6,115.2,112.3C115.1,112.3,115.1,112.3,115.2,112.3L115.2,112.3z"/><path class="st2" d="M118.1,109.6l0.7-0.7c0.3-0.3,0.9-0.3,1.2,0c0.3,0.3,0.3,0.9,0,1.2l-0.7,0.7c-0.3,0.3-0.9,0.3-1.2,0
		S117.8,110,118.1,109.6C118.1,109.7,118.1,109.6,118.1,109.6z"/><path class="st2" d="M119.6,108.3l1.5-1.4l0,0c0.3-0.3,0.8-0.3,1.2,0c0.3,0.3,0.3,0.8,0,1.1l-1.4,1.4c-0.3,0.3-0.9,0.3-1.2,0
		C119.2,109.2,119.2,108.6,119.6,108.3L119.6,108.3L119.6,108.3z"/><path class="st2" d="M122.5,105.5l0.7-0.7c0.3-0.3,0.8-0.3,1.1,0c0.3,0.3,0.3,0.8,0,1.1l-0.7,0.7c-0.3,0.3-0.8,0.3-1.1,0
		C122.2,106.4,122.2,105.9,122.5,105.5C122.5,105.6,122.5,105.6,122.5,105.5z"/><path class="st2" d="M123.9,104.2l1.4-1.4l0,0c0.3-0.3,0.8-0.3,1.1,0c0.3,0.3,0.3,0.8,0,1.1l-1.4,1.4c-0.3,0.3-0.8,0.3-1.1,0
		C123.6,105,123.6,104.5,123.9,104.2L123.9,104.2L123.9,104.2z"/><path class="st2" d="M126.7,101.3l0.7-0.7c0.3-0.3,0.8-0.3,1.1,0s0.3,0.8,0,1.1l-0.7,0.7c-0.3,0.3-0.8,0.3-1.1,0
		S126.4,101.6,126.7,101.3L126.7,101.3z"/><path class="st2" d="M128.1,99.9l1.4-1.4l0,0c0.3-0.3,0.7-0.3,1,0s0.3,0.7,0,1l-1.4,1.5c-0.3,0.3-0.7,0.3-1,0
		C127.8,100.7,127.8,100.2,128.1,99.9L128.1,99.9L128.1,99.9z"/><path class="st2" d="M130.9,97l0.7-0.7c0.3-0.3,0.7-0.3,1,0c0.3,0.2,0.3,0.7,0,0.9l-0.7,0.7c-0.3,0.3-0.7,0.3-1,0.1
		C130.6,97.7,130.6,97.3,130.9,97C130.8,97,130.9,97,130.9,97z"/><path class="st2" d="M132.2,95.6l1.3-1.5l0,0c0.2-0.3,0.6-0.3,0.9,0c0.3,0.2,0.3,0.6,0,0.9l-1.3,1.5c-0.2,0.3-0.7,0.3-0.9,0.1
		C132,96.3,132,95.8,132.2,95.6L132.2,95.6L132.2,95.6z"/><path class="st2" d="M134.9,92.6l0.7-0.7c0.2-0.2,0.6-0.3,0.8-0.1c0.2,0.2,0.3,0.6,0.1,0.8l-0.6,0.8c-0.2,0.3-0.6,0.3-0.9,0.1
		C134.7,93.3,134.7,92.9,134.9,92.6L134.9,92.6z"/><path class="st2" d="M136.2,91.1l1.3-1.5c0.2-0.2,0.6-0.3,0.8-0.1c0.2,0.2,0.3,0.6,0.1,0.8l-1.3,1.5c-0.2,0.2-0.6,0.3-0.8,0.1
		C136,91.8,136,91.4,136.2,91.1L136.2,91.1z"/><path class="st2" d="M138.8,88.1l0.6-0.8c0.2-0.2,0.5-0.2,0.7-0.1c0.2,0.2,0.2,0.5,0.1,0.7l-0.6,0.8c-0.2,0.2-0.5,0.3-0.8,0.1
		C138.7,88.7,138.6,88.3,138.8,88.1L138.8,88.1z"/><path class="st2" d="M140.1,86.6l1.3-1.5c0.2-0.2,0.5-0.2,0.7-0.1c0.2,0.2,0.2,0.5,0.1,0.7l-1.2,1.6c-0.2,0.2-0.5,0.3-0.7,0.1
		S140,86.8,140.1,86.6L140.1,86.6z"/><path class="st2" d="M142.7,83.5l0.6-0.8c0.2-0.2,0.4-0.2,0.6-0.1c0.2,0.2,0.2,0.4,0.1,0.6l-0.6,0.8c-0.2,0.2-0.4,0.2-0.7,0.1
		S142.5,83.7,142.7,83.5L142.7,83.5z"/><path class="st2" d="M144,82l1.3-1.6c0.1-0.2,0.4-0.2,0.6-0.1c0.2,0.1,0.2,0.4,0.1,0.6l-1.2,1.6c-0.1,0.2-0.4,0.2-0.6,0.1
		C143.8,82.4,143.8,82.2,144,82C143.9,82,144,82,144,82z"/><path class="st2" d="M146.5,78.9l0.6-0.8c0.1-0.1,0.3-0.2,0.5-0.1c0.1,0.1,0.2,0.3,0.1,0.5l-0.6,0.8c-0.1,0.2-0.3,0.2-0.5,0.1
		S146.3,79,146.5,78.9L146.5,78.9z"/><path class="st2" d="M147.7,77.3l1.2-1.6c0.1-0.1,0.3-0.2,0.4-0.1c0.1,0.1,0.1,0.3,0.1,0.4l-1.2,1.6c-0.1,0.1-0.3,0.2-0.5,0.1
		S147.6,77.4,147.7,77.3L147.7,77.3z"/><path class="st2" d="M150.1,74.1l0.6-0.8c0.1-0.1,0.2-0.1,0.3,0s0.1,0.2,0.1,0.3l-0.6,0.8c-0.1,0.1-0.2,0.1-0.4,0.1
		S150.1,74.2,150.1,74.1L150.1,74.1z"/><path class="st2" d="M151.3,72.5l1.2-1.6c0.1-0.1,0.2-0.1,0.3,0s0.1,0.2,0,0.3l-1.1,1.6c-0.1,0.1-0.2,0.1-0.3,0.1
		C151.3,72.8,151.3,72.6,151.3,72.5L151.3,72.5z"/><path class="st2" d="M153.7,69.3l0.6-0.8c0-0.1,0.1-0.1,0.2,0c0.1,0,0.1,0.1,0,0.2l-0.6,0.8c0,0.1-0.1,0.1-0.2,0
		C153.7,69.5,153.7,69.4,153.7,69.3L153.7,69.3z"/><path class="st2" d="M154.9,67.7l0.4-0.6c0,0,0.1-0.1,0.1,0c0,0,0.1,0.1,0,0.1l-0.4,0.6C155,67.9,154.9,67.9,154.9,67.7
		C154.7,67.7,154.9,67.7,154.9,67.7L154.9,67.7z"/></g><g class="st1"><path class="st2" d="M173,22l-0.3,1.4c0,0.1-0.1,0.1-0.1,0.1c-0.1,0-0.1-0.1-0.1-0.1l0,0l0,0l0.4-1.4l0,0
		C172.8,22,172.9,21.9,173,22C172.9,22,173,22,173,22z"/><path class="st2" d="M172.3,24.9l-0.2,0.7c0,0.1-0.1,0.1-0.2,0.1c-0.1,0-0.1-0.1-0.1-0.2l0,0l0.2-0.7c0-0.1,0.1-0.1,0.2-0.1
		C172.3,24.7,172.3,24.8,172.3,24.9z"/><path class="st2" d="M171.9,26.3l-0.4,1.4c0,0.1-0.1,0.2-0.2,0.1c-0.1,0-0.2-0.1-0.1-0.2l0,0l0,0l0.5-1.4c0-0.1,0.1-0.1,0.2-0.1
		C171.9,26.1,171.9,26.2,171.9,26.3z"/><path class="st2" d="M171,29l-0.2,0.7c0,0.1-0.2,0.2-0.3,0.1c-0.1,0-0.2-0.2-0.1-0.3l0,0l0.3-0.7c0-0.1,0.2-0.2,0.3-0.1
		C171,28.8,171.1,28.9,171,29z"/><path class="st2" d="M170.6,30.4l-0.5,1.4c-0.1,0.1-0.2,0.2-0.4,0.2c-0.1-0.1-0.2-0.2-0.2-0.4l0,0l0,0l0.5-1.3l0,0
		c0.1-0.1,0.2-0.2,0.3-0.1C170.5,30.1,170.6,30.3,170.6,30.4z"/><path class="st2" d="M169.5,33.1l-0.3,0.7c-0.1,0.2-0.3,0.2-0.4,0.2c-0.2-0.1-0.2-0.3-0.2-0.4l0,0l0.3-0.7c0.1-0.2,0.2-0.2,0.4-0.2
		C169.5,32.8,169.6,32.9,169.5,33.1z"/><path class="st2" d="M169,34.4l-0.6,1.3c-0.1,0.2-0.3,0.3-0.5,0.2s-0.3-0.3-0.2-0.5l0,0l0,0l0.6-1.3l0,0c0.1-0.2,0.3-0.2,0.4-0.2
		C169,34.1,169.1,34.3,169,34.4z"/><path class="st2" d="M167.8,37.1l-0.3,0.7c-0.1,0.2-0.3,0.3-0.5,0.2s-0.3-0.3-0.2-0.5l0,0l0,0l0.3-0.6l0,0c0.1-0.2,0.3-0.3,0.5-0.2
		C167.8,36.7,167.9,36.9,167.8,37.1z"/><path class="st2" d="M167.2,38.4l-0.7,1.3c-0.1,0.2-0.3,0.3-0.5,0.2s-0.3-0.3-0.2-0.5l0,0l0,0l0.7-1.3l0,0c0.1-0.2,0.3-0.3,0.5-0.2
		C167.2,38,167.2,38.2,167.2,38.4z"/><path class="st2" d="M165.8,41l-0.4,0.6c-0.1,0.2-0.4,0.3-0.6,0.2c-0.2-0.1-0.3-0.4-0.2-0.6l0,0l0,0l0.4-0.6l0,0
		c0.1-0.2,0.4-0.3,0.6-0.1C165.8,40.5,165.9,40.8,165.8,41z"/><path class="st2" d="M165.1,42.2l-0.7,1.3c-0.1,0.2-0.4,0.3-0.6,0.2c-0.2-0.1-0.3-0.4-0.2-0.6l0,0l0,0l0.8-1.2l0,0
		c0.1-0.2,0.4-0.3,0.6-0.1C165.1,41.8,165.2,42,165.1,42.2z"/><path class="st2" d="M163.6,44.7l-0.4,0.6c-0.1,0.2-0.4,0.3-0.7,0.1s-0.3-0.4-0.1-0.7l0,0l0,0l0.4-0.6l0,0c0.1-0.2,0.4-0.3,0.7-0.1
		C163.7,44.2,163.7,44.5,163.6,44.7z"/><path class="st2" d="M162.8,45.9l-0.8,1.2c-0.2,0.2-0.5,0.3-0.7,0.1s-0.3-0.5-0.1-0.7l0,0l0,0l0.8-1.2l0,0c0.2-0.2,0.5-0.3,0.7-0.1
		S162.9,45.7,162.8,45.9z"/><path class="st2" d="M161.1,48.3l-0.4,0.6c-0.2,0.2-0.5,0.3-0.7,0.1s-0.3-0.5-0.1-0.7l0,0l0,0l0.4-0.6l0,0c0.2-0.2,0.5-0.3,0.7-0.1
		S161.3,48.1,161.1,48.3z"/><path class="st2" d="M160.2,49.5l-0.9,1.1c-0.2,0.2-0.5,0.3-0.8,0.1s-0.3-0.5-0.1-0.8l0,0l0,0l0.9-1.1l0,0c0.2-0.2,0.5-0.3,0.8-0.1
		C160.4,48.9,160.4,49.2,160.2,49.5z"/><path class="st2" d="M158.4,51.7l-0.5,0.5c-0.2,0.2-0.6,0.3-0.8,0.1s-0.3-0.6-0.1-0.8l0,0l0,0l0.5-0.5l0,0c0.2-0.2,0.6-0.2,0.8,0
		C158.6,51.2,158.6,51.5,158.4,51.7z"/><path class="st2" d="M157.4,52.8l-1,1.1c-0.2,0.2-0.6,0.2-0.8,0s-0.2-0.6,0-0.8l0,0l0,0l1-1l0,0c0.2-0.2,0.6-0.2,0.8,0
		C157.6,52.2,157.6,52.6,157.4,52.8z"/><path class="st2" d="M155.4,54.9l-0.5,0.5c-0.2,0.2-0.6,0.2-0.8,0s-0.2-0.6,0-0.8l0,0l0,0l0.5-0.5l0,0c0.2-0.2,0.6-0.2,0.8,0
		C155.6,54.3,155.6,54.7,155.4,54.9z"/><path class="st2" d="M154.4,55.9l-1.1,1c-0.2,0.2-0.6,0.2-0.8,0s-0.2-0.6,0-0.8l0,0l0,0l1.1-1l0,0c0.2-0.2,0.6-0.2,0.8,0
		C154.6,55.4,154.6,55.7,154.4,55.9z"/><path class="st2" d="M152.2,57.9l-0.6,0.5c-0.3,0.2-0.6,0.2-0.8-0.1s-0.2-0.6,0.1-0.8l0,0l0,0l0.6-0.5l0,0c0.3-0.2,0.6-0.2,0.8,0.1
		C152.5,57.3,152.4,57.7,152.2,57.9z"/><path class="st2" d="M151,58.8l-1.2,0.9c-0.3,0.2-0.7,0.2-0.9-0.1c-0.2-0.3-0.2-0.7,0.1-0.9l0,0l0,0l1.1-0.9l0,0
		c0.3-0.2,0.6-0.1,0.8,0.1C151.4,58.2,151.3,58.6,151,58.8z"/><path class="st2" d="M148.7,60.6l-0.6,0.4c-0.3,0.2-0.7,0.1-0.9-0.2c-0.2-0.3-0.1-0.7,0.2-0.9l0,0l0,0l0.6-0.4l0,0
		c0.3-0.2,0.7-0.1,0.9,0.2C149.1,60,149,60.4,148.7,60.6z"/><path class="st2" d="M147.5,61.4l-1.2,0.8c-0.3,0.2-0.7,0.1-0.9-0.2c-0.2-0.3-0.1-0.7,0.2-0.9l0,0l0,0l1.2-0.8l0,0
		c0.3-0.2,0.7-0.1,0.9,0.2C147.9,60.8,147.8,61.2,147.5,61.4z"/><path class="st2" d="M145,62.9l-0.6,0.4c-0.3,0.2-0.7,0.1-0.9-0.2c-0.2-0.3-0.1-0.7,0.2-0.9l0,0l0,0l0.6-0.3l0,0
		c0.3-0.2,0.7-0.1,0.9,0.2C145.4,62.4,145.3,62.8,145,62.9z"/><path class="st2" d="M143.7,63.6l-1.3,0.7c-0.3,0.2-0.7,0-0.9-0.3c-0.2-0.3,0-0.7,0.3-0.9l0,0l0,0l1.3-0.6l0,0
		c0.3-0.2,0.7,0,0.9,0.3S144,63.5,143.7,63.6z"/><path class="st2" d="M141.1,64.9l-0.7,0.3c-0.3,0.1-0.7,0-0.8-0.3s0-0.7,0.3-0.8l0,0l0.6-0.3l0,0c0.3-0.1,0.7,0,0.8,0.3
		C141.6,64.4,141.4,64.8,141.1,64.9L141.1,64.9z"/><path class="st2" d="M139.7,65.5l-1.4,0.5c-0.3,0.1-0.7,0-0.8-0.4c-0.1-0.3,0-0.7,0.4-0.8l0,0l1.3-0.5l0,0c0.3-0.1,0.7,0,0.8,0.4
		C140.2,65,140.1,65.4,139.7,65.5L139.7,65.5z"/><path class="st2" d="M137,66.5l-0.7,0.2c-0.3,0.1-0.7-0.1-0.8-0.4s0.1-0.7,0.4-0.8l0,0l0.7-0.2l0,0c0.3-0.1,0.7,0.1,0.8,0.4
		S137.3,66.4,137,66.5L137,66.5z"/><path class="st2" d="M135.5,66.9l-1.4,0.3c-0.3,0.1-0.7-0.1-0.7-0.5c-0.1-0.3,0.1-0.7,0.5-0.7l0,0l1.4-0.3l0,0
		c0.3-0.1,0.7,0.1,0.7,0.5C136.1,66.5,135.9,66.8,135.5,66.9L135.5,66.9z"/><path class="st2" d="M132.6,67.4l-0.7,0.1c-0.3,0-0.6-0.2-0.7-0.5c0-0.3,0.2-0.6,0.5-0.7l0,0l0.7-0.1l0,0c0.3,0,0.6,0.2,0.7,0.5
		C133.2,67.1,133,67.4,132.6,67.4L132.6,67.4z"/><path class="st2" d="M131.1,67.5c-0.5,0-1,0-1.5,0c-0.3,0-0.6-0.3-0.6-0.6c0-0.3,0.3-0.6,0.6-0.6c0.5,0,0.9,0,1.4,0
		c0.3,0,0.6,0.2,0.6,0.6C131.7,67.2,131.5,67.5,131.1,67.5L131.1,67.5z"/><path class="st2" d="M128.2,67.4l-0.7-0.1c-0.3,0-0.5-0.3-0.5-0.7c0-0.3,0.3-0.5,0.6-0.5l0,0l0.7,0.1l0,0c0.3,0,0.5,0.3,0.5,0.7
		C128.8,67.2,128.5,67.5,128.2,67.4L128.2,67.4z"/><path class="st2" d="M126.7,67.2c-0.5-0.1-1-0.2-1.4-0.4c-0.3-0.1-0.4-0.4-0.4-0.7c0.1-0.3,0.4-0.4,0.7-0.4
		c0.4,0.1,0.9,0.2,1.4,0.3c0.3,0.1,0.5,0.4,0.4,0.7C127.3,67,127,67.2,126.7,67.2L126.7,67.2z"/><path class="st2" d="M123.8,66.3l-0.7-0.3c-0.3-0.1-0.4-0.4-0.3-0.7c0.1-0.3,0.4-0.4,0.7-0.3l0,0l0.6,0.3l0,0
		c0.3,0.1,0.4,0.4,0.3,0.7S124.1,66.4,123.8,66.3C123.9,66.3,123.8,66.3,123.8,66.3z"/><path class="st2" d="M122.5,65.6c-0.4-0.2-0.9-0.5-1.3-0.8c-0.2-0.2-0.3-0.5-0.1-0.7c0.2-0.2,0.5-0.3,0.7-0.1
		c0.4,0.3,0.8,0.5,1.2,0.7c0.3,0.1,0.3,0.4,0.2,0.7C123.1,65.6,122.8,65.7,122.5,65.6L122.5,65.6z"/><path class="st2" d="M120.1,63.9l-0.6-0.5c-0.2-0.2-0.2-0.5,0-0.7s0.5-0.2,0.7,0l0,0l0.5,0.5l0,0c0.2,0.2,0.2,0.5,0.1,0.7
		C120.6,64.1,120.3,64.1,120.1,63.9L120.1,63.9z"/><path class="st2" d="M119,62.9c-0.3-0.4-0.7-0.7-1-1.1c-0.2-0.2-0.1-0.5,0.1-0.6c0.2-0.2,0.5-0.1,0.6,0c0.3,0.4,0.6,0.7,1,1
		c0.2,0.2,0.2,0.5,0,0.7C119.4,63.1,119.2,63.1,119,62.9L119,62.9z"/><path class="st2" d="M117.1,60.6l-0.4-0.6c-0.1-0.2-0.1-0.4,0.1-0.6c0.2-0.1,0.4-0.1,0.6,0.1l0,0l0.4,0.6l0,0
		c0.1,0.2,0.1,0.5-0.1,0.6C117.5,60.9,117.2,60.8,117.1,60.6L117.1,60.6z"/><path class="st2" d="M116.3,59.4l-0.7-1.3c-0.1-0.2,0-0.4,0.1-0.5c0.2-0.1,0.4,0,0.5,0.1l0,0l0.7,1.2l0,0c0.1,0.2,0.1,0.4-0.1,0.6
		C116.6,59.7,116.4,59.6,116.3,59.4L116.3,59.4z"/><path class="st2" d="M114.9,56.8l-0.3-0.7c-0.1-0.2,0-0.4,0.2-0.5s0.4,0,0.5,0.2l0,0l0.3,0.6l0,0c0.1,0.2,0,0.4-0.2,0.5
		C115.2,57.1,115,57,114.9,56.8L114.9,56.8z"/><path class="st2" d="M114.4,55.4l-0.5-1.4c-0.1-0.2,0-0.4,0.2-0.4c0.2-0.1,0.4,0,0.4,0.2l0,0l0.5,1.3l0,0c0.1,0.2,0,0.4-0.2,0.5
		C114.6,55.7,114.4,55.6,114.4,55.4L114.4,55.4z"/><path class="st2" d="M113.5,52.7l-0.2-0.7c0-0.2,0.1-0.3,0.2-0.4c0.2,0,0.3,0.1,0.4,0.2l0,0l0.2,0.7l0,0c0,0.2-0.1,0.3-0.2,0.4
		C113.7,52.9,113.5,52.8,113.5,52.7L113.5,52.7z"/><path class="st2" d="M113.1,51.2l-0.3-1.4c0-0.2,0.1-0.3,0.2-0.3c0.2,0,0.3,0.1,0.3,0.2l0,0l0.3,1.4l0,0c0,0.2-0.1,0.3-0.2,0.4
		C113.3,51.5,113.2,51.4,113.1,51.2L113.1,51.2z"/><path class="st2" d="M112.6,48.4l-0.1-0.7c0-0.1,0.1-0.3,0.2-0.3s0.3,0.1,0.3,0.2l0,0l0.1,0.7l0,0c0,0.2-0.1,0.3-0.2,0.3
		S112.6,48.5,112.6,48.4L112.6,48.4z"/><path class="st2" d="M112.4,46.9l-0.1-1.4c0-0.1,0.1-0.3,0.2-0.3s0.3,0.1,0.3,0.2l0,0l0.1,1.4l0,0c0,0.1-0.1,0.3-0.2,0.3
		C112.6,47.2,112.4,47.1,112.4,46.9L112.4,46.9z"/><path class="st2" d="M112.2,44v-0.7c0-0.1,0.1-0.3,0.2-0.3s0.3,0.1,0.3,0.2l0,0v0.7l0,0c0,0.1-0.1,0.3-0.2,0.3S112.2,44.2,112.2,44
		L112.2,44z"/><path class="st2" d="M112.2,42.6v-1.5c0-0.1,0.1-0.2,0.2-0.2s0.2,0.1,0.2,0.2l0,0v1.4l0,0c0,0.1-0.1,0.2-0.2,0.2
		C112.3,42.8,112.2,42.7,112.2,42.6L112.2,42.6z"/><path class="st2" d="M112.3,39.7V39c0-0.1,0.1-0.2,0.2-0.2s0.2,0.1,0.2,0.2v0.7c0,0.1-0.1,0.2-0.2,0.2
		C112.4,39.9,112.3,39.8,112.3,39.7L112.3,39.7z"/><path class="st2" d="M112.4,38.2l0.2-1.4c0-0.1,0.1-0.2,0.2-0.2s0.2,0.1,0.2,0.2l0,0l-0.1,1.4l0,0c0,0.1-0.1,0.2-0.2,0.2
		C112.5,38.5,112.4,38.4,112.4,38.2L112.4,38.2z"/><path class="st2" d="M112.7,35.3l0.1-0.7c0-0.1,0.1-0.2,0.3-0.2c0.1,0,0.2,0.1,0.2,0.3l0,0l-0.1,0.7c0,0.1-0.1,0.2-0.2,0.2
		C112.8,35.6,112.7,35.5,112.7,35.3z"/><path class="st2" d="M113,33.9l0.3-1.4c0-0.1,0.1-0.2,0.3-0.2c0.1,0,0.2,0.1,0.2,0.3l0,0l0,0l-0.3,1.4l0,0c0,0.1-0.1,0.2-0.3,0.2
		C113,34.2,112.9,34,113,33.9z"/><path class="st2" d="M113.5,31.1l0.2-0.7c0-0.1,0.2-0.2,0.3-0.2c0.1,0,0.2,0.2,0.2,0.3l0,0l-0.2,0.7c0,0.1-0.2,0.2-0.3,0.2
		C113.6,31.3,113.5,31.2,113.5,31.1z"/><path class="st2" d="M113.8,29.7l0.4-1.4c0-0.1,0.2-0.2,0.3-0.2c0.1,0,0.2,0.2,0.2,0.3l0,0l0,0l-0.4,1.4l0,0c0,0.1-0.2,0.2-0.3,0.2
		C113.9,29.9,113.8,29.8,113.8,29.7z"/><path class="st2" d="M114.6,26.9l0.2-0.7c0-0.1,0.2-0.2,0.3-0.2c0.1,0,0.2,0.2,0.2,0.3l0,0l-0.2,0.7c0,0.1-0.2,0.2-0.3,0.2
		C114.6,27.1,114.6,27,114.6,26.9z"/><path class="st2" d="M115.1,25.5l0.5-1.4c0-0.1,0.2-0.2,0.3-0.2c0.1,0,0.2,0.2,0.2,0.3l0,0l0,0l-0.5,1.4l0,0c0,0.1-0.2,0.2-0.3,0.2
		C115.1,25.8,115,25.6,115.1,25.5z"/><path class="st2" d="M116,22.7l0.3-0.7c0.1-0.1,0.2-0.2,0.4-0.2c0.1,0.1,0.2,0.2,0.2,0.4l0,0l-0.3,0.7c-0.1,0.1-0.2,0.2-0.4,0.2
		C116,23,116,22.9,116,22.7z"/></g><g class="st1"><path class="st2" d="M24.2,46.8L23.5,48l0,0c-0.2,0.3-0.6,0.5-1,0.3c-0.3-0.2-0.5-0.6-0.3-1l0.7-1.3c0.2-0.3,0.6-0.5,1-0.3
		C24.3,46,24.4,46.4,24.2,46.8L24.2,46.8L24.2,46.8z"/><path class="st2" d="M22.8,49.3l-0.3,0.6l0,0c-0.2,0.3-0.6,0.5-1,0.3c-0.3-0.2-0.5-0.6-0.3-0.9l0.3-0.6c0.2-0.3,0.6-0.5,1-0.3
		C22.8,48.5,23,48.9,22.8,49.3L22.8,49.3L22.8,49.3z"/><path class="st2" d="M22.1,50.5l-0.7,1.3l0,0c-0.2,0.3-0.6,0.5-0.9,0.3s-0.5-0.6-0.3-0.9l0.7-1.3c0.2-0.3,0.6-0.5,0.9-0.3
		S22.3,50.2,22.1,50.5L22.1,50.5L22.1,50.5z"/><path class="st2" d="M20.7,53.1l-0.3,0.6l0,0c-0.2,0.3-0.6,0.5-0.9,0.3s-0.5-0.6-0.3-0.9l0.3-0.7c0.2-0.3,0.6-0.5,0.9-0.3
		C20.8,52.3,20.9,52.7,20.7,53.1C20.8,53.1,20.8,53.1,20.7,53.1L20.7,53.1z"/><path class="st2" d="M20.1,54.4l-0.6,1.3l0,0C19.3,56,19,56.2,18.6,56c-0.3-0.2-0.5-0.5-0.3-0.9l0.6-1.3c0.2-0.3,0.5-0.5,0.9-0.3
		C20.1,53.6,20.3,54,20.1,54.4L20.1,54.4L20.1,54.4z"/><path class="st2" d="M18.9,57l-0.3,0.7l0,0c-0.1,0.3-0.5,0.5-0.8,0.3c-0.3-0.1-0.5-0.5-0.3-0.8l0.3-0.7c0.1-0.3,0.5-0.5,0.8-0.3
		C18.9,56.3,19,56.6,18.9,57L18.9,57L18.9,57z"/><path class="st2" d="M18.3,58.3l-0.6,1.3l0,0c-0.1,0.3-0.5,0.5-0.8,0.3c-0.3-0.1-0.5-0.5-0.3-0.8l0.6-1.3c0.1-0.3,0.5-0.5,0.8-0.3
		C18.3,57.6,18.5,57.9,18.3,58.3L18.3,58.3L18.3,58.3z"/><path class="st2" d="M17.2,60.9l-0.3,0.7c-0.1,0.3-0.5,0.5-0.8,0.3c-0.3-0.1-0.5-0.5-0.3-0.8l0.3-0.7c0.1-0.3,0.5-0.5,0.8-0.3
		C17.2,60.2,17.3,60.6,17.2,60.9L17.2,60.9z"/><path class="st2" d="M16.7,62.3l-0.5,1.3l0,0c-0.1,0.3-0.5,0.5-0.8,0.3c-0.3-0.1-0.4-0.5-0.3-0.8l0.5-1.4c0.1-0.3,0.5-0.5,0.8-0.4
		C16.6,61.6,16.8,61.9,16.7,62.3C16.7,62.2,16.7,62.2,16.7,62.3L16.7,62.3z"/><path class="st2" d="M15.6,64.9l-0.3,0.7c-0.1,0.3-0.4,0.4-0.7,0.3s-0.4-0.4-0.3-0.7l0.2-0.7c0.1-0.3,0.4-0.5,0.7-0.4
		C15.6,64.3,15.7,64.6,15.6,64.9L15.6,64.9z"/><path class="st2" d="M15.1,66.3l-0.5,1.4l0,0c-0.1,0.3-0.4,0.4-0.7,0.3s-0.4-0.4-0.3-0.7l0.5-1.4c0.1-0.3,0.4-0.5,0.7-0.4
		C15.1,65.7,15.2,66,15.1,66.3L15.1,66.3L15.1,66.3z"/><path class="st2" d="M14.1,69l-0.2,0.7c-0.1,0.3-0.4,0.4-0.7,0.3s-0.4-0.4-0.3-0.7l0.2-0.7c0.1-0.3,0.4-0.4,0.7-0.3
		S14.2,68.7,14.1,69L14.1,69z"/><path class="st2" d="M13.7,70.4l-0.5,1.4l0,0c-0.1,0.3-0.4,0.4-0.7,0.3s-0.4-0.4-0.3-0.6l0.4-1.4c0.1-0.3,0.4-0.4,0.7-0.4
		C13.6,69.8,13.8,70.1,13.7,70.4L13.7,70.4L13.7,70.4z"/><path class="st2" d="M12.8,73.1l-0.3,0.7c-0.1,0.3-0.4,0.4-0.6,0.3c-0.3-0.1-0.4-0.3-0.3-0.6l0.2-0.7c0.1-0.3,0.4-0.4,0.6-0.3
		C12.7,72.5,12.8,72.8,12.8,73.1L12.8,73.1z"/><path class="st2" d="M12.3,74.5l-0.4,1.3l0,0c-0.1,0.2-0.3,0.4-0.6,0.3c-0.2-0.1-0.4-0.3-0.3-0.6l0.4-1.4c0.1-0.3,0.3-0.4,0.6-0.3
		C12.3,73.9,12.4,74.2,12.3,74.5L12.3,74.5L12.3,74.5z"/><path class="st2" d="M11.5,77.2l-0.2,0.7c-0.1,0.2-0.3,0.4-0.5,0.3s-0.4-0.3-0.3-0.5l0.2-0.7c0.1-0.2,0.3-0.4,0.5-0.3
		C11.4,76.7,11.5,77,11.5,77.2L11.5,77.2z"/><path class="st2" d="M11.1,78.6L10.7,80c-0.1,0.2-0.3,0.3-0.5,0.3C10,80.2,9.8,80,9.9,79.8l0.4-1.4c0.1-0.2,0.3-0.4,0.5-0.3
		C11,78.1,11.1,78.4,11.1,78.6L11.1,78.6z"/><path class="st2" d="M10.3,81.4l-0.2,0.7c-0.1,0.2-0.3,0.3-0.5,0.3c-0.2-0.1-0.3-0.3-0.3-0.5l0.2-0.7c0.1-0.2,0.3-0.3,0.5-0.3
		S10.3,81.2,10.3,81.4L10.3,81.4z"/><path class="st2" d="M9.9,82.8l-0.4,1.4c0,0.2-0.2,0.3-0.4,0.3s-0.3-0.2-0.3-0.4l0.3-1.4c0-0.2,0.2-0.3,0.4-0.3
		C9.8,82.4,10,82.6,9.9,82.8L9.9,82.8z"/><path class="st2" d="M9.2,85.6L9,86.3c0,0.2-0.2,0.3-0.4,0.2c-0.2,0-0.3-0.2-0.2-0.4l0.2-0.7c0-0.2,0.2-0.3,0.4-0.3
		C9.1,85.2,9.2,85.4,9.2,85.6L9.2,85.6z"/><path class="st2" d="M8.8,87l-0.3,1.4c0,0.2-0.2,0.2-0.3,0.2C8,88.6,8,88.4,8,88.3l0.2-1.5c0-0.2,0.2-0.3,0.4-0.2
		C8.8,86.6,8.9,86.8,8.8,87L8.8,87z"/><path class="st2" d="M8.2,89.8L8,90.5c0,0.1-0.2,0.2-0.3,0.2c-0.1,0-0.2-0.2-0.2-0.3l0.1-0.7c0-0.1,0.2-0.2,0.3-0.2
		C8,89.5,8.2,89.6,8.2,89.8L8.2,89.8z"/><path class="st2" d="M7.8,91.2l-0.3,1.4c0,0.1-0.1,0.2-0.2,0.2s-0.2-0.1-0.2-0.2l0.3-1.4c0-0.1,0.1-0.2,0.3-0.2
		C7.8,90.9,7.9,91,7.8,91.2L7.8,91.2z"/><path class="st2" d="M7.2,94l-0.1,0.7c0,0.1-0.1,0.2-0.2,0.1c-0.1,0-0.1-0.1-0.1-0.2l0.1-0.7c0-0.1,0.1-0.2,0.2-0.1
		C7.2,93.8,7.2,93.9,7.2,94L7.2,94z"/><path class="st2" d="M6.9,95.4l-0.3,1.4c0,0.1-0.1,0.1-0.2,0.1s-0.1-0.1-0.1-0.2l0.2-1.4c0-0.1,0.1-0.1,0.2-0.1
		C6.9,95.2,6.9,95.3,6.9,95.4L6.9,95.4z"/><path class="st2" d="M6.4,98.2l-0.1,0.7C6.3,99,6.2,99,6.2,99l-0.1-0.1l0.1-0.7C6.2,98.1,6.3,98.1,6.4,98.2L6.4,98.2L6.4,98.2z"/><path class="st2" d="M6.1,99.7L6,100.2c0,0,0,0.1-0.1,0.1c0,0-0.1,0-0.1-0.1l0.1-0.5C6,99.6,6,99.6,6.1,99.7
		C6.1,99.6,6.1,99.6,6.1,99.7L6.1,99.7z"/></g><path class="st3" d="M180.9,58.5c0.3,1.9,0.5,3.8-0.9,7.5c-3.3,9.3-12.2,13.6-15.2,14.9c-12.7,5.3-24.8,0-26.4-0.7
	c0.2-2.7-14.6,21.3-49,9.1c-0.4-2.7-6.9,8.3-29.5,8.3c-30.1-3.1-22.5-15.5-22.3-15.9C37,81.9,21.3,86.5,8.4,79
	C-1.7,71.8-2.6,62.5,5,53.6c7-7,18.2-13.1,34.7-7.3c0,0,15.1-34.3,49-11c0,0,9.4-25.2,33.1-16.2c23.4,9,18.9,24.8,19,25.1
	c2-0.7,16.1-5.8,28.1,0.5C176.4,48.8,180.2,55.2,180.9,58.5z"/><path class="st3" d="M46.3,23.6c0.2,0.3,0.3,0.6,0.4,1.3c0.3,1.7-0.5,2.9-0.8,3.3c-1.2,1.6-3.1,1.3-3.3,1.3
	c-0.2-0.5-0.3,4.3-5.4,4.1c-0.2-0.4-0.3,1.7-3,3c-3.9,1.1-3.9-1.3-3.9-1.4c-0.1,0.1-1.7,1.7-3.8,1.1c-1.8-0.6-2.5-2.1-2.2-4
	c0.4-1.5,1.3-3.1,3.8-3.1c0,0-0.6-6.5,5.3-4.4c0,0-0.7-4.7,2.9-4.4c3.5,0.2,4.1,3.1,4.1,3.1c0.2-0.2,1.6-1.8,3.5-1.4
	C45.1,22.3,46,23.1,46.3,23.6z"/><path class="st0" d="M18.7,23.6c0,0.1,0,0.3-0.1,0.5c-0.2,0.6-0.7,0.8-0.9,0.9c-0.7,0.3-1.3-0.2-1.4-0.2c0-0.2-0.9,1.4-2.6,0.3
	c0-0.2-0.4,0.5-1.6,0.4c-1.5-0.4-1-1.2-1-1.2s-0.9,0.2-1.5-0.4c-0.5-0.5-0.4-1.2,0-1.7c0.4-0.4,1-0.8,1.8-0.3c0,0,1.1-2.2,2.6-0.4
	c0,0,0.7-1.7,1.8-0.9s0.7,1.8,0.7,1.8c0.1,0,0.9-0.3,1.4,0.2C18.5,22.9,18.7,23.3,18.7,23.6z"/><path class="st3" d="M93.9,101.7c0.1,0.2,0.2,0.4,0.3,0.9c0.2,1.2-0.5,2.1-0.7,2.4c-0.9,1.2-2.4,1-2.6,1c-0.1-0.3-0.3,3.1-4.2,3.1
	c-0.2-0.3-0.2,1.3-2.4,2.2c-3,0.9-2.9-0.9-2.9-0.9s-1.3,1.2-2.9,0.9c-1.3-0.4-1.9-1.5-1.6-2.8c0.3-1.1,1.1-2.3,3-2.3
	c0,0-0.3-4.6,4.1-3.3c0,0-0.4-3.3,2.3-3.3c2.7,0.1,3.1,2.1,3.1,2.2c0.2-0.2,1.2-1.3,2.7-1.1C92.9,100.7,93.6,101.3,93.9,101.7z"/><path class="st0" d="M125.1,116.8c-0.2,0.1-0.4,0.2-0.7,0.2c-1,0.2-1.6-0.2-1.8-0.3c-0.8-0.6-0.6-1.5-0.6-1.6c0.3-0.1-2.4,0-2.1-2.6
	c0.3-0.1-1-0.1-1.5-1.4c-0.5-1.9,0.9-2,1-2c0,0-0.9-0.8-0.5-1.9c0.4-0.9,1.3-1.3,2.4-1.2c0.9,0.1,1.7,0.6,1.6,1.8
	c0,0,3.7-0.5,2.3,2.5c0,0,2.7-0.5,2.4,1.3c-0.3,1.8-1.9,2.1-2,2.2c0.1,0.1,1,0.7,0.7,1.7C125.9,116.2,125.4,116.7,125.1,116.8z"/><path class="st3" d="M151.7,92.3c0.1,0.1,0.2,0.2,0.3,0.4c0.2,0.6,0.1,1.1,0,1.2c-0.2,0.6-0.9,0.6-1,0.6c-0.1-0.2,0.3,1.6-1.4,1.7
	c-0.1-0.1,0.1,0.6-0.7,1.2c-1.2,0.5-1.4-0.3-1.4-0.4c0,0-0.4,0.7-1.1,0.5c-0.6-0.2-1-0.7-1.1-1.4c0-0.6,0.1-1.2,0.9-1.3
	c0,0-0.8-2.3,1.3-1.8c0,0-0.6-1.7,0.5-1.7c1.2-0.1,1.6,1,1.6,1c0-0.1,0.3-0.7,1-0.6C151.1,91.8,151.5,92.1,151.7,92.3z"/><path class="st3" d="M97.4,9.1c-0.1,0.1-0.3,0.3-0.6,0.5c-0.9,0.5-1.6,0.3-1.8,0.2c-1-0.3-1-1.2-1.1-1.4c0.2-0.2-2.3,0.7-2.8-1.8
	c0.2-0.2-1,0.2-1.9-0.9c-1-1.7,0.3-2.2,0.3-2.2s-1.1-0.5-1-1.6c0.1-1,0.9-1.7,1.9-1.9c0.9-0.1,1.8,0,2,1.2c0,0,3.4-1.6,2.9,1.7
	c0,0,2.4-1.2,2.7,0.6c0.3,1.8-1.2,2.6-1.2,2.6c0.1,0.1,1.1,0.4,1.1,1.4C98,8.3,97.7,8.9,97.4,9.1z"/><path class="st4" d="M2.1,82C2.2,82,2.2,82,2.1,82C2.2,82,2.2,82,2.1,82C2.1,82.1,2.1,82.1,2.1,82z"/><path class="st5" d="M177.1,64.7c-2.6,6.8-9.6,9.9-12,10.9c-3.7,1.4-7.3,1.8-10.5,1.7c1.8-0.3,3.8-0.8,5.7-1.5
	c2.6-1,10.5-4.6,13.4-12.2c1.2-3,1.1-4.6,0.8-6.1c-0.4-1.8-2.1-4.8-5.2-7.6c5.3,2.9,7.9,7.2,8.5,9.4C178,60.6,178.2,62,177.1,64.7z"/><path class="st5" d="M116.1,21.3c6.7,2.9,9.6,10,10.4,12.4c1.3,3.7,1.5,7.4,1.3,10.5c-0.2-1.9-0.6-3.8-1.3-5.7
	c-0.9-2.7-4.2-10.7-11.7-13.9c-2.9-1.3-4.5-1.2-6.1-1c-1.8,0.3-4.9,1.9-7.8,4.9c3.1-5.1,7.4-7.7,9.7-8.1
	C112.1,20.2,113.5,20.1,116.1,21.3z"/><path class="st5" d="M111.6,87.7c-4.2,2.8-9.6,1.7-11.4,1.3c-2.8-0.7-5.1-1.9-6.9-3.3c1.2,0.6,2.6,1.1,4,1.4c2,0.5,8.1,1.7,12.7-1.5
	c1.9-1.2,2.4-2.2,2.8-3.1c0.4-1.2,0.6-3.6-0.2-6.4c2.1,3.8,2,7.3,1.5,8.8C113.7,85.7,113.3,86.6,111.6,87.7z"/><path class="st5" d="M22.5,79.9c-6.9-1.6-10-5.9-11-7.4C10.1,70.2,9.7,68,9.8,66c0.3,1.1,0.8,2.3,1.6,3.5c1.1,1.6,4.6,6.5,12.3,8.2
	c3,0.8,4.6,0.6,6.2,0.5c1.8-0.3,4.9-1.3,7.6-3.3c-2.9,3.3-7.2,4.9-9.5,5.3C26.6,80.4,25.2,80.5,22.5,79.9z"/></svg>