<?xml version="1.0" encoding="utf-8"?><!--Generator: Adobe Illustrator 26.0.2, SVG Export Plug-In . SVG Version: 6.00 Build 0)--><svg version="1.1" id="Layer_1" xmlns="http://www.w3.org/2000/svg" xmlns:xlink="http://www.w3.org/1999/xlink" x="0px" y="0px" viewBox="0 0 400 400" style="enable-background:new 0 0 400 400" xml:space="preserve"><style type="text/css">.st0{fill:none;stroke:#CC0099;stroke-width:3;stroke-miterlimit:10;}
	.st1{fill:#54CE3E;}
	.st2{fill:#333132;}
	.st3{fill:#2D292A;}
	.st4{fill:#CD243D;}
	.st5{fill:#00ACE7;}
	.st6{fill:#FEC100;}
	.st7{fill:#F66D37;}
	.st8{fill:#ED5B94;}
	.st9{fill:#EC5B94;}
	.st10{fill:#333031;}
	.st11{fill:#323132;}
	.st12{fill:#343131;}</style><path class="st0" d="M378.1,87.9c-120-21.8-222.2-45-348.1-73.4C19.5,12.2,6.3,26.8,9.9,37c33.6,96.2,78.4,232.4,110.5,338.2
	c3.1,10.3,22.3,14.3,29.6,6.2c78.9-88,162.4-183.1,237.6-264.8C394.8,108.7,388.8,89.9,378.1,87.9z"/><g><path class="st1" d="M16.9,237.1c9,52.9,51.2,109.3,114.2,124c59.2,13.8,95.7-0.7,142.7-26.2c34.5-18.7,81.7-55.6,100.7-112.6
		C419.3,88,316.6,40,251.3,80.7c-28,17.5-43,17.1-63-20.1c-14.3-26.7-48.6-35.3-73.6-18.2C49.8,86.7,3.3,157.3,16.9,237.1z"/></g><g id="Layer_2_00000159445127318784663650000007840393920876408216_"><g id="Layer_4_00000060006460836004305930000000631969708242434746_"><g><path class="st2" d="M114.2,287.1c0.8,0.1,1.6,0.3,2.3,0.7c1.5,0.8,2.3,2,2.8,3.5c0.3,1,0.4,2.1,0.4,3.1c0,0.1,0,0.2,0,0.3
				c0,0.1,0,0.1,0.1,0.1c0.1,0,0.2,0,0.3,0c4.6-0.3,8.5,2.6,9.5,6.7c0.2,0.7,0.3,1.4,0.3,2.1c0,0.1,0,0.3,0,0.5
				c1.7-0.5,3.4-0.6,5.2-0.2c1.7,0.4,3.2,1.1,4.5,2.3c0.1,0,0.2-0.1,0.3-0.2c0.7-0.7,1.5-1.2,2.4-1.6c1.5-0.5,3-0.3,4.5,0.4
				c0.2,0.1,0.4,0.1,0.6,0.1c1.6-0.4,3.2-0.4,4.8,0c0.3,0.1,0.3,0.1,0.4-0.2c0.5-1.2,1.3-2.2,2.4-2.9c2.4-1.6,5.5-1.2,7.5,0.8
				c0.9,1,1.5,2.1,2,3.4c0,0,0,0,0,0.1c0.1,0.4,0,0.3,0.4,0.3c0.7,0,1.4,0.1,2.1,0.2c0.6,0.2,1.1,0.4,1.7,0.7
				c0.2,0.1,0.3,0.1,0.4-0.1c0.8-0.9,1.8-1.4,3-1.7c0.3-0.1,0.3-0.1,0.3-0.4c-0.3-2.6,0.3-4.9,2.2-6.8c1.4-1.4,3.1-1.9,5-1.7
				c3.3,0.4,5.4,2.8,6,5.4c0.1,0.6,0.2,1.1,0.3,1.7c0,0.1,0,0.1,0,0.2c0.3-0.1,0.3-0.1,0.3-0.4c-0.1-1.3,0.1-2.6,0.6-3.8
				c0.9-2,2.6-3.2,4.8-3.5c2.8-0.4,4.9,0.7,6.5,3c0,0.1,0.1,0.1,0.2,0.2c0.1,0,0.2-0.1,0.2-0.2c1.6-1.3,3.4-1.9,5.4-1.9
				c0.2,0,0.3,0,0.5-0.1c1.2-0.8,2.6-1.1,4-0.8c0.3,0.1,0.3,0.1,0.4-0.2c0.6-1.4,1.3-2.6,2.4-3.7c1.6-1.5,3.4-2.3,5.5-2.7
				c2.4-0.4,4.7,0.1,6.7,1.4c2.2,1.4,3.4,3.4,3.9,5.9c0.1,0.5,0.2,1,0.2,1.5c0,0.2,0.1,0.2,0.2,0.3c1.8,1.1,2.8,2.7,3,4.7
				c0.2,1.4,0,2.7-0.6,4c-1.1,2.7-2.9,4.8-5.4,6.2c-1.8,1-3.8,1.3-5.9,1c-0.1,0-0.2-0.1-0.4,0c0,0.3,0.1,0.5,0.2,0.8
				c0.5,1.8,1,3.5,1.4,5.3c0.4,1.7,0.6,3.5,0.5,5.2c-0.1,2-0.5,3.8-1.5,5.5c-1.6,2.8-4.1,4.4-7.2,5c-1.7,0.4-3.5,0.3-5.2-0.1
				c-1.5-0.4-2.9-1.2-3.9-2.4c-1-1.3-1.6-2.7-1.5-4.3c0.1-3,2.1-5.3,5.1-5.9c0.2,0,0.4-0.1,0.6-0.1c0.1,0,0.2-0.1,0.1-0.2
				c-0.1-0.3-0.1-0.6-0.2-0.9c0-0.2-0.1-0.2-0.3-0.2c-1.3,0.2-2.6,0.1-3.9-0.3c-0.2-0.1-0.3,0-0.3,0.2c-0.3,1-0.8,1.9-1.6,2.6
				c-1.2,1.1-2.6,1.6-4.3,1.6c-0.5,0-1,0.1-1.5,0.4c-1.6,1-3.4,1.3-5.2,1.1c-0.1,0-0.2,0-0.3,0c0,0.5,0,0.9-0.1,1.4
				c-0.1,1.1-0.3,2.3-0.8,3.3c-0.9,1.9-2.4,3.1-4.5,3.5c-2,0.4-3.7-0.2-5.1-1.5c-1.1-1-1.7-2.3-2.2-3.7c-0.1-0.3-0.2-0.5-0.3-0.8
				c-0.1-0.3-0.1-0.3-0.4-0.2c-1.4,0.2-2.8,0-4-0.8c-0.5-0.3-0.9-0.6-1.3-1c-0.1-0.1-0.2-0.2-0.4-0.3c-0.2,0.2-0.4,0.4-0.6,0.6
				c-1.9,1.8-4.2,2.5-6.8,2.3c-0.5,0-0.9-0.1-1.4-0.3c-0.1,0-0.3,0-0.4,0c-1,0.4-2,0.5-3.1,0.5c-0.2,0-0.5-0.1-0.7-0.2
				c-1.6-0.4-2.8-1.4-3.7-2.9c-0.1-0.2-0.2-0.3-0.3-0.5c-0.1,0-0.2,0-0.2,0.1c-0.9,0.5-1.8,0.9-2.8,1.1c-0.3,0.1-0.3,0.1-0.3,0.4
				c-0.1,2.2-0.2,4.3-0.3,6.5c-0.1,1.3-0.2,2.6-0.6,3.9c-0.4,1.3-1,2.4-2,3.3c-1.8,1.8-4.8,2.3-7,1.1c-1.4-0.7-2.3-1.9-2.8-3.3
				c-0.4-0.9-0.6-1.9-0.7-2.8c-0.2-1.9-0.1-3.8-0.1-5.7c0-0.7,0-1.5,0-2.2c0-0.2-0.1-0.2-0.3-0.2c-1.4,0-2.7-0.4-3.9-1.2
				c-0.1-0.1-0.3-0.1-0.4-0.1c-1.5,0.2-3.1,0.1-4.5-0.5c-1.6-0.6-2.8-1.7-3.8-3.1c-0.1-0.1-0.1-0.2-0.2-0.3c0,0,0,0,0,0
				c0,0-0.1,0-0.1,0.1c-1.4,1.3-3,2.1-4.8,2.5c-1.8,0.4-3.5,0.4-5.3,0.3c-2.5-0.2-5-0.7-7.4-1.5c-1.2-0.4-2.3-0.9-3.2-1.7
				c-1.4-1.2-2.2-2.7-2.6-4.5c-0.1-0.4-0.1-0.9-0.2-1.3c0-0.1,0-0.2-0.1-0.3c0-0.5,0-1.1,0-1.6c0.1-0.3,0.1-0.5,0.1-0.8
				c0-0.6,0.1-1.2,0.2-1.7c0.3-1.4,0.5-2.7,0.8-4.1c0.6-3.3,1.4-6.5,2.3-9.7c0.7-2.3,1.5-4.6,2.6-6.7c0.7-1.5,1.6-2.9,2.8-4.1
				c1.3-1.3,2.7-2.2,4.6-2.4C113.4,287.1,113.8,287.1,114.2,287.1z M205.7,304c-0.2-0.2-0.3-0.4-0.5-0.6c-0.8-0.6-1.6-0.8-2.5-0.5
				c-1.2,0.3-1.9,1.1-2.5,2.1c-0.8,1.5-1,3.1-1,4.8c0,0.5,0,0.9,0.1,1.4c0.1,1.2,0.4,2.3,0.9,3.4c0.5,1.2,1.2,2.3,2.2,3.1
				c0.8,0.7,1.7,1.1,2.8,1.1c0.9,0,1.7-0.2,2.4-0.5c0.8-0.4,1.5-0.9,1.8-1.7c0-0.1,0.1-0.1,0.1-0.1c0.1,0.3,0.2,0.7,0.3,1
				c0.5,1.9,1,3.8,1.5,5.7c0.2,1,0.5,1.9,0.4,3c0,0.6-0.2,1.1-0.4,1.6c-0.4,0.8-1.1,1.2-1.9,1.4c-0.5,0.1-0.9,0-1.4,0
				c-0.4-0.1-0.9,0-1.3,0.1c-0.9,0.3-1.2,1.2-1,1.9c0.1,0.7,0.5,1.1,1.1,1.5c0.7,0.4,1.5,0.5,2.3,0.6c1.1,0,2.1-0.1,3.1-0.6
				c2.3-1,3.4-2.8,3.6-5.2c0.2-1.8-0.1-3.7-0.6-5.5c-0.5-1.8-1-3.7-1.5-5.5c-0.6-2.2-1.3-4.3-2-6.4c-0.4-1.2-0.9-2.5-1.4-3.7
				c-0.5-1.1-0.9-2.3-1.6-3.3c-0.3-0.4-0.5-0.8-1-1.1c-0.3-0.2-0.6-0.2-0.9,0c-0.4,0.2-0.6,0.5-0.8,0.9
				C205.9,303.2,205.8,303.5,205.7,304z M145.8,310.8c-0.1-0.2-0.1-0.4-0.2-0.6c-0.2-0.5-0.3-0.9-0.7-1.2c-0.4-0.4-1-0.4-1.4,0
				c-0.2,0.1-0.3,0.3-0.4,0.4c-0.3,0.4-0.4,0.8-0.6,1.2c-0.4,1.1-0.6,2.3-0.7,3.5c-0.1,1.4-0.2,2.8-0.3,4.3c0,0.6,0,1.2-0.1,1.8
				c-0.1,1.7-0.2,3.3-0.3,5c0,1.3,0,2.6-0.1,3.9c-0.1,1.8-0.1,3.6-0.1,5.3c0,1.2,0,2.4,0.2,3.6c0.1,0.5,0.2,1,0.5,1.4
				c0.2,0.4,0.6,0.6,1.1,0.6c0.6,0,1-0.3,1.3-0.7c0.5-0.7,0.7-1.6,0.8-2.4c0.2-1.4,0.2-2.9,0.3-4.3c0.1-1.6,0.2-3.1,0.2-4.7
				c0.1-1.4,0.1-2.8,0.2-4.1c0-0.2,0-0.4,0.1-0.6c0.4,0.6,0.9,0.8,1.5,1c0.5,0.2,1.1,0.2,1.7,0.2c0.8,0,1.5-0.3,2.1-0.8
				c0.9-0.7,1.6-1.7,2-2.8c1-2.5,1.2-5,0.7-7.7c-0.2-1-0.6-1.9-1.2-2.6c-0.5-0.6-1.1-1-1.8-1.1c-1.3-0.2-2.5,0-3.6,0.6
				C146.6,310.1,146.2,310.5,145.8,310.8z M114.8,323c0.9,0,1.9-0.1,2.8-0.2c0.8-0.1,1.5-0.3,2.2-0.8c0.5-0.3,0.8-0.7,1.1-1.2
				c0.3-0.7,0.1-1.3-0.5-1.7c-0.3-0.2-0.6-0.4-1-0.5c-0.8-0.3-1.7-0.6-2.6-0.7c-2.3-0.4-4.5-0.6-6.8-0.7c-0.1,0-0.3,0-0.4,0
				c-0.2,0-0.2-0.1-0.2-0.3c0-0.1,0-0.1,0-0.2c0.1-0.5,0.2-1.1,0.3-1.6c0.6-2.6,1.4-5.2,2-7.8c0.9-3.4,1.8-6.8,2.3-10.3
				c0.2-1,0.2-2,0.2-3.1c0-0.3-0.1-0.6-0.2-0.9c-0.2-0.7-0.6-0.8-1.2-0.7c-0.1,0-0.3,0.1-0.4,0.2c-0.3,0.2-0.6,0.4-0.8,0.6
				c-0.4,0.5-0.8,1-1.1,1.5c-0.6,0.9-1,1.9-1.5,3c-1.3,3.1-2.2,6.3-3.1,9.6c-0.6,2.4-1.1,4.9-1.6,7.4c-0.2,1.1-0.3,2.2-0.2,3.4
				c0.1,0.9,0.3,1.7,0.8,2.4c0.5,0.8,1.3,1.2,2.1,1.4C109.5,322.6,112.1,322.9,114.8,323z M160.4,324.6c0.3,0.3,0.6,0.6,0.9,0.8
				c1.6,1.2,3.9,1.2,5.4-0.5c0.6-0.6,1-1.4,1.3-2.2c0.5-1.2,0.7-2.4,0.8-3.6c0.1-1.4,0.1-2.7-0.2-4.1c-0.2-0.9-0.5-1.8-1.1-2.6
				c-1-1.3-2.3-1.7-3.8-1.2c-1.2,0.4-2.2,1.2-2.9,2.3c0,0.1-0.1,0.2-0.2,0.2c-0.1-1-0.1-1.9-0.2-2.9c-0.1-1.2-0.3-2.3-0.6-3.4
				c-0.2-0.6-0.4-1.1-0.8-1.5c-0.7-0.8-1.7-0.8-2.3,0.1c-0.2,0.4-0.4,0.8-0.5,1.2c-0.2,0.8-0.3,1.6-0.3,2.5c0,0.8,0,1.6,0,2.4
				c0,1.3,0.2,2.5,0.2,3.8c0.1,2,0.1,4,0.3,6c0.1,0.9,0.2,1.9,0.5,2.8c0.1,0.4,0.3,0.8,0.6,1.2c0.2,0.3,0.5,0.5,0.9,0.4
				c0.5,0,0.9-0.3,1.2-0.6C160.2,325.5,160.3,325.1,160.4,324.6z M194.4,320.6c0.1,0.1,0.1,0.2,0.2,0.3c0.2,0.4,0.5,0.7,0.9,0.9
				c1,0.6,2.1,0.1,2.3-1c0.1-0.4,0.1-0.8,0-1.2c-0.1-0.7-0.2-1.4-0.4-2.1c-0.3-1.5-0.7-2.9-1.1-4.4c-0.5-2.2-0.8-4.4-1.1-6.5
				c-0.2-1.2-0.4-2.4-0.7-3.6c-0.2-0.5-0.4-1-0.7-1.4c-0.4-0.4-0.9-0.7-1.5-0.6c-0.9,0.1-1.4,0.4-1.6,1.3c-0.1,0.4-0.1,0.8-0.1,1.3
				c0.1,0.8,0.2,1.6,0.3,2.3c0.2,1.1,0.3,2.2,0.5,3.2c0,0.1,0.1,0.2,0,0.3c-0.4-0.4-0.9-0.7-1.4-0.9c-1.7-0.7-3.5-0.1-4.4,1.6
				c-0.2,0.4-0.4,0.8-0.5,1.2c-0.3,1.3-0.3,2.5-0.2,3.8c0.1,1.4,0.4,2.7,1,4c0.5,1,1.1,2,1.9,2.8c0.3,0.3,0.7,0.6,1,0.9
				c1.5,1.1,3.2,0.7,4.3-0.3C193.7,322.1,194.1,321.4,194.4,320.6z M134.2,322.8c0,0.1,0,0.2,0,0.3c0,1.2,0.8,2,2,2
				c0.4,0,0.8-0.2,1.1-0.5c0.5-0.6,0.8-1.4,0.9-2.2c0.3-1.4,0.4-2.9,0.4-4.4c0.1-1.2,0-2.4-0.1-3.5c-0.1-1-0.3-2-0.7-3
				c-0.4-1.1-1.1-1.9-2-2.5c-1.1-0.7-2.4-1-3.7-0.8c-1.1,0.1-2.1,0.5-3,1.1c-0.7,0.5-1.3,1.2-1.5,2.1c-0.2,0.9,0.6,1.6,1.3,1.6
				c0.4,0,0.8-0.1,1.2-0.3c0.5-0.2,0.9-0.4,1.4-0.6c0.5-0.2,1-0.3,1.6-0.2c0.7,0.1,1.2,0.6,1.4,1.3c0.1,0.3,0,0.6,0,0.9
				c0,0.2-0.1,0.3-0.3,0.3c-1.3,0.1-2.5,0.3-3.7,0.7c-1,0.4-2,0.9-2.8,1.6c-0.8,0.7-1.3,1.7-1.3,2.8c0,1.1,0.5,2,1.2,2.8
				c0.8,1,1.9,1.4,3.2,1.3c1.1-0.1,2.1-0.4,3-1C134,322.9,134.1,322.8,134.2,322.8z M114.7,307.6c0,1.6,0.2,2.8,0.7,4
				c0.5,1.3,1.3,2.4,2.5,3.2c1.2,0.8,2.5,1.2,3.8,0.8c1.9-0.5,3.4-1.6,4.4-3.4c0.3-0.5,0.4-1.1,0.4-1.7c0-0.4-0.2-0.6-0.5-0.9
				c-0.5-0.4-1.1-0.4-1.7-0.1c-0.4,0.2-0.8,0.5-1.2,0.8c-0.3,0.2-0.7,0.5-1,0.7c-0.5,0.3-1.1,0.4-1.7,0.2c-0.5-0.1-0.9-0.4-1.1-1
				c-0.1-0.3-0.1-0.3,0.2-0.4c2.2-0.4,3.9-1.5,5.1-3.4c0.6-1.1,0.9-2.3,0.6-3.5c-0.2-1.3-1-2.3-2.2-2.9c-0.9-0.5-1.9-0.6-2.9-0.5
				c-0.8,0.1-1.6,0.3-2.3,0.9c-0.8,0.6-1.4,1.4-1.9,2.2C115.1,304.2,114.8,306.1,114.7,307.6z M212.3,301.3c0,0.6,0.1,1.2,0.1,1.9
				c0.3,2.3,1.3,4.2,3,5.8c0.9,0.8,2,1.4,3.2,1.6c1.2,0.2,2.3,0,3.3-0.6c0.6-0.4,1-0.8,1.5-1.3c0.7-0.9,1.3-1.9,1.5-3
				c0.1-0.6,0.1-1.2-0.1-1.8c-0.2-0.6-0.6-0.8-1.1-0.9c-0.6,0-1.1,0.2-1.5,0.7c-0.4,0.5-0.8,1.1-1.2,1.6c-0.4,0.5-0.9,0.8-1.5,0.9
				c-0.6,0.1-1.2,0-1.6-0.6c-0.2-0.2-0.2-0.2,0.1-0.4c1.3-0.6,2.3-1.6,3.1-2.8c0.8-1.4,1.1-2.9,0.7-4.5c-0.2-0.9-0.7-1.6-1.4-2.2
				c-1.1-0.9-2.3-1.1-3.6-0.9c-1.6,0.2-2.8,1.1-3.6,2.5C212.6,298.4,212.3,299.8,212.3,301.3z M175.6,312.1
				c-0.1-0.3-0.2-0.6-0.3-0.9c-0.2-0.5-0.4-0.9-0.8-1.3c-0.3-0.3-0.6-0.4-1-0.4c-0.6,0.1-1.1,0.3-1.4,0.8c-0.3,0.5-0.5,1.1-0.5,1.7
				c0,1.1,0.1,2.2,0.3,3.2c0.1,0.9,0.3,1.7,0.4,2.6c0.1,1.2,0.2,2.3,0.5,3.5c0.2,0.9,0.4,1.7,0.8,2.5c0.2,0.3,0.4,0.6,0.7,0.9
				c0.6,0.5,1.4,0.4,1.9-0.1c0.2-0.2,0.4-0.5,0.5-0.8c0.2-0.5,0.3-0.9,0.3-1.4c0.1-1.4-0.2-2.8-0.3-4.3c-0.1-0.9-0.1-1.8,0.3-2.7
				c0.2-0.6,0.6-1.2,1.1-1.6c0.5-0.4,1.1-0.6,1.8-0.4c0.2,0.1,0.5,0.1,0.7,0.2c0.6,0.2,1.2,0,1.7-0.3c0.6-0.4,0.9-1,0.7-1.7
				c-0.2-1.1-0.8-1.8-1.8-2.1c-0.6-0.2-1.2-0.3-1.8-0.2c-1.1,0.1-2.1,0.5-2.7,1.4c-0.2,0.3-0.5,0.7-0.7,1
				C175.7,311.9,175.7,312,175.6,312.1z M179.3,320.5c0,0.5,0,1.1,0.1,1.8c0.2,1.8,0.5,3.5,0.9,5.3c0.2,1,0.5,2,1,2.9
				c0.2,0.4,0.4,0.8,0.8,1c0.3,0.2,0.6,0.3,0.9,0.3c0.5-0.1,0.9-0.4,1.1-0.8c0.3-0.6,0.5-1.2,0.5-1.8c0.1-1,0-2-0.1-3
				c-0.2-1.5-0.4-3-0.7-4.6c-0.2-1-0.4-2-0.7-3c-0.2-0.6-0.5-1.1-0.8-1.6c-0.3-0.4-0.7-0.6-1.2-0.6c-0.5,0.1-0.9,0.3-1.2,0.7
				c-0.2,0.4-0.4,0.7-0.5,1.1C179.4,319,179.3,319.7,179.3,320.5z M181.2,304.4c0-0.1,0-0.4-0.1-0.6c-0.1-0.7-0.4-1.4-0.9-1.9
				c-0.5-0.4-1-0.6-1.6-0.6c-0.8,0.1-1.2,0.6-1.5,1.2c-0.6,1.3-0.3,2.6,0.4,3.8c0.2,0.3,0.4,0.5,0.6,0.6c0.8,0.5,1.9,0.6,2.6-0.6
				C181,305.8,181.1,305.2,181.2,304.4z"/><path class="st3" d="M191.6,349.6c0.1,0,0.1,0.1,0.1,0.1c0.6,0.2,0.8,0.8,0.7,1.3c-0.1,0.5-0.4,0.9-1.1,1
				c-0.6,0.1-1.3,0.1-1.9,0.1c-0.3,0-0.3-0.1-0.3-0.4c-0.1-1-0.1-2-0.1-3c0-0.2,0-0.5,0-0.7c0-0.3,0.1-0.3,0.3-0.4
				c0.5,0,1.1-0.1,1.6-0.1c0.6,0,1,0.2,1.2,0.6C192.2,348.7,192.1,349.1,191.6,349.6z M190.5,350C190.5,350,190.5,350,190.5,350
				c-0.2,0-0.4,0-0.6,0.1c-0.3,0-0.3,0-0.3,0.3c0,0.2,0,0.5,0,0.7c0,0.6,0,0.6,0.6,0.5c0.3,0,0.7,0,1-0.1c0.4-0.1,0.6-0.4,0.6-0.9
				c0-0.4-0.3-0.6-0.7-0.7C190.9,349.9,190.7,350,190.5,350z M190.4,348.1C190.4,348.1,190.4,348.1,190.4,348.1c-0.2,0-0.5,0-0.7,0
				c-0.1,0-0.2,0.1-0.2,0.2c0,0.3,0,0.7,0.1,1c0,0.1,0.1,0.2,0.2,0.1c0.4,0,0.9,0,1.3-0.1c0.4,0,0.5-0.4,0.5-0.7
				c0-0.4-0.2-0.6-0.6-0.6C190.7,348,190.6,348.1,190.4,348.1z"/><path class="st3" d="M203.4,349.8c-0.1-0.8-0.2-1.6-0.3-2.4c0-0.2-0.1-0.4-0.1-0.6c0-0.2,0.1-0.4,0.2-0.4c0.2,0,0.2,0.1,0.3,0.3
				c0.1,1,0.3,2,0.4,3.1c0,0.2,0.1,0.4,0.1,0.6c0,0.2,0.1,0.4-0.1,0.5c-0.2,0.1-0.3-0.1-0.4-0.2c-0.5-0.5-1-1-1.5-1.5
				c-0.4-0.4-0.8-0.8-1.2-1.2c0-0.1-0.1-0.1-0.2-0.1c0,0.2,0,0.4,0,0.5c0.1,0.8,0.2,1.6,0.3,2.5c0,0,0,0.1,0,0.1
				c0,0.2-0.1,0.3-0.2,0.3c-0.2,0-0.2-0.1-0.3-0.2c0-0.1,0-0.3-0.1-0.4c-0.1-1.1-0.3-2.3-0.4-3.4c0-0.1,0-0.1,0-0.2
				c0-0.2,0.2-0.4,0.4-0.2c0.1,0,0.1,0.1,0.2,0.2c0.8,0.8,1.6,1.6,2.4,2.4C203,349.6,203.2,349.7,203.4,349.8
				C203.3,349.8,203.4,349.8,203.4,349.8z"/><path class="st3" d="M217.4,347.2c-0.1-0.5-0.2-1-0.3-1.5c-0.1-0.5-0.2-0.9-0.3-1.4c0-0.1,0-0.1,0-0.2c0-0.1,0-0.3,0.2-0.3
				c0.1,0,0.2,0,0.3,0.2c0,0.1,0,0.1,0.1,0.2c0.3,1.2,0.5,2.3,0.8,3.5c0,0,0,0.1,0,0.1c0,0.1,0,0.3-0.1,0.3c-0.1,0.1-0.2,0-0.4,0
				c-0.1-0.1-0.1-0.1-0.2-0.2c-0.9-0.8-1.9-1.6-2.8-2.3c-0.1,0-0.1-0.1-0.2-0.2c-0.1,0.1,0,0.2,0,0.3c0.2,0.9,0.4,1.8,0.6,2.6
				c0.1,0.3,0,0.5-0.1,0.5c-0.2,0-0.3-0.1-0.3-0.4c-0.2-0.9-0.4-1.7-0.6-2.6c-0.1-0.3-0.1-0.6-0.2-0.9c0-0.2-0.1-0.4,0.1-0.5
				c0.2-0.1,0.3,0,0.5,0.1c1,0.8,1.9,1.6,2.9,2.4C217.2,347.1,217.3,347.2,217.4,347.2z"/><path class="st3" d="M223.7,343.9c0.5-0.1,0.9-0.3,1.4-0.4c0.1,0,0.1,0,0.2,0c0.2-0.1,0.4,0,0.4,0.2c0,0.2-0.1,0.3-0.2,0.3
				c-0.4,0.1-0.9,0.3-1.3,0.4c-0.3,0.1-0.3,0.1-0.2,0.4c0.1,0.3,0.2,0.6,0.3,1c0,0.2,0.1,0.2,0.3,0.1c0.5-0.2,1-0.3,1.5-0.4
				c0.1,0,0.2-0.1,0.3-0.1c0.1,0,0.3,0,0.3,0.2c0,0.1,0,0.2-0.2,0.3c-0.1,0-0.1,0-0.2,0.1c-0.6,0.2-1.3,0.4-1.9,0.6
				c-0.3,0.1-0.4,0.1-0.5-0.3c-0.4-1.2-0.7-2.4-1.1-3.5c-0.1-0.3-0.1-0.4,0.3-0.5c0.6-0.2,1.3-0.4,1.9-0.6c0,0,0.1,0,0.1,0
				c0.2,0,0.3,0,0.4,0.2c0,0.2-0.1,0.3-0.2,0.3c-0.1,0-0.2,0.1-0.3,0.1c-0.5,0.1-1,0.3-1.4,0.4c-0.1,0-0.2,0.1-0.2,0.3
				C223.5,343.1,223.6,343.5,223.7,343.9z"/><path class="st3" d="M219.8,345.6c0.1,0.5,0.2,0.9,0.4,1.3c0,0.2,0.1,0.2,0.2,0.1c0.5-0.1,1-0.3,1.5-0.4c0.1,0,0.2-0.1,0.3-0.1
				c0.1,0,0.2,0.1,0.2,0.2c0,0.1,0,0.2-0.1,0.3c-0.1,0-0.1,0.1-0.2,0.1c-0.6,0.2-1.3,0.3-1.9,0.5c-0.4,0.1-0.4,0.1-0.5-0.3
				c-0.3-1.2-0.6-2.4-1-3.6c-0.1-0.3,0-0.4,0.3-0.5c0.7-0.2,1.4-0.4,2-0.5c0,0,0.1,0,0.1,0c0.1,0,0.2,0,0.3,0.2c0,0.1,0,0.2-0.2,0.3
				c-0.1,0-0.2,0.1-0.4,0.1c-0.5,0.1-0.9,0.3-1.4,0.4c-0.2,0-0.2,0.1-0.2,0.3c0.1,0.4,0.2,0.8,0.3,1.2c0.5-0.1,1-0.3,1.5-0.4
				c0.1,0,0.1,0,0.2-0.1c0.1,0,0.2,0.1,0.3,0.2c0,0.1,0,0.2-0.2,0.3c-0.2,0.1-0.4,0.1-0.6,0.2C220.5,345.4,220.2,345.5,219.8,345.6z
				"/><path class="st3" d="M205.3,350.2c0-0.2,0.1-0.4,0.1-0.6c0.3-1.1,0.5-2.2,0.8-3.4c0-0.2,0-0.4,0.3-0.4c0.2,0,0.3,0.2,0.4,0.3
				c0.7,1.1,1.4,2.2,2,3.3c0,0.1,0.1,0.1,0.1,0.2c0.1,0.1,0.1,0.3-0.1,0.3c-0.1,0.1-0.3,0.1-0.4-0.1c-0.2-0.2-0.3-0.5-0.4-0.7
				c-0.2-0.3-0.2-0.3-0.5-0.2c-0.5,0.1-1,0.2-1.5,0.2c-0.2,0-0.2,0.1-0.3,0.2c0,0.2-0.1,0.4-0.1,0.7c0,0.1,0,0.2-0.1,0.3
				c0,0.1-0.1,0.2-0.3,0.2C205.3,350.6,205.3,350.5,205.3,350.2z M206.1,348.8c0.6-0.1,1-0.2,1.6-0.3c-0.4-0.6-0.7-1.2-1.1-1.8
				C206.4,347.4,206.3,348.1,206.1,348.8z"/><path class="st3" d="M211.3,348.6c0.2-1.1,0.4-2.2,0.6-3.2c0-0.1,0-0.2,0.1-0.3c0.1-0.2,0.2-0.3,0.3-0.2c0.2,0,0.2,0.1,0.2,0.3
				c-0.1,0.4-0.1,0.7-0.2,1.1c-0.2,1-0.4,1.9-0.6,2.9c0,0.1,0,0.1,0,0.2c0,0.1-0.1,0.3-0.2,0.3c-0.2,0-0.2-0.1-0.3-0.2
				c-0.5-0.7-0.9-1.4-1.4-2.1c-0.3-0.4-0.5-0.8-0.8-1.2c-0.1-0.1-0.1-0.2-0.1-0.3c0-0.1,0-0.2,0.1-0.3c0.1-0.1,0.2-0.1,0.3,0
				c0.1,0.1,0.2,0.2,0.2,0.3c0.6,0.9,1.2,1.7,1.7,2.6C211.1,348.5,211.1,348.6,211.3,348.6z"/><path class="st3" d="M228.3,341c0.2,0.5,0.4,1.1,0.5,1.6c0.2,0.6,0.4,1.2,0.6,1.8c0,0.1,0.1,0.2,0.1,0.3c0,0.1-0.1,0.2-0.2,0.3
				c-0.1,0-0.3,0-0.3-0.1c0-0.1-0.1-0.2-0.1-0.3c-0.3-1-0.7-2-1-3c-0.1-0.2-0.1-0.2-0.3-0.2c-0.2,0.1-0.5,0.2-0.7,0.2
				c-0.1,0-0.2,0.1-0.3,0.1c-0.1,0-0.2-0.1-0.2-0.2c0-0.1,0-0.2,0.1-0.3c0.1-0.1,0.2-0.1,0.2-0.1c0.8-0.3,1.7-0.6,2.5-0.9
				c0.3-0.1,0.4-0.1,0.5,0.1c0.1,0.2,0,0.3-0.3,0.4C229,340.7,228.7,340.8,228.3,341z"/><path class="st3" d="M194.9,349.1c0.2-0.3,0.4-0.6,0.6-0.9c0.2-0.3,0.3-0.6,0.5-0.9c0.1-0.1,0.2-0.2,0.3-0.1
				c0.1,0.1,0.2,0.2,0.1,0.4c0,0.1-0.1,0.2-0.1,0.2c-0.3,0.5-0.6,1.1-1,1.6c-0.1,0.2-0.2,0.4-0.1,0.6c0,0.5,0.1,0.9,0.1,1.4
				c0,0.1,0,0.2,0,0.2c0,0.1-0.1,0.2-0.2,0.2c-0.1,0-0.2-0.1-0.3-0.2c0-0.1,0-0.2,0-0.3c0-0.4-0.1-0.9-0.1-1.3
				c0-0.2-0.1-0.4-0.3-0.6c-0.4-0.4-0.8-0.9-1.2-1.4c-0.1-0.1-0.1-0.2-0.2-0.3c-0.1-0.1,0-0.2,0.1-0.3c0.1-0.1,0.2-0.1,0.3,0
				c0.1,0.1,0.1,0.1,0.2,0.2C194.1,348.1,194.5,348.6,194.9,349.1z"/><path class="st4" d="M205.7,304c0.1-0.4,0.2-0.8,0.3-1.1c0.1-0.4,0.4-0.7,0.8-0.9c0.3-0.2,0.6-0.2,0.9,0c0.4,0.3,0.7,0.7,1,1.1
				c0.7,1,1.1,2.2,1.6,3.3c0.5,1.2,1,2.4,1.4,3.7c0.7,2.1,1.4,4.2,2,6.4c0.5,1.8,1,3.7,1.5,5.5c0.5,1.8,0.7,3.6,0.6,5.5
				c-0.2,2.4-1.4,4.2-3.6,5.2c-1,0.4-2,0.6-3.1,0.6c-0.8,0-1.6-0.2-2.3-0.6c-0.6-0.3-1-0.8-1.1-1.5c-0.1-0.7,0.2-1.6,1-1.9
				c0.4-0.1,0.9-0.2,1.3-0.1c0.5,0.1,1,0.1,1.4,0c0.8-0.2,1.5-0.6,1.9-1.4c0.3-0.5,0.4-1,0.4-1.6c0.1-1-0.2-2-0.4-3
				c-0.5-1.9-0.9-3.8-1.5-5.7c-0.1-0.3-0.2-0.7-0.3-1c-0.1,0-0.1,0-0.1,0.1c-0.4,0.8-1,1.3-1.8,1.7c-0.8,0.3-1.6,0.6-2.4,0.5
				c-1.1,0-2-0.4-2.8-1.1c-1-0.8-1.7-1.9-2.2-3.1c-0.5-1.1-0.7-2.3-0.9-3.4c-0.1-0.5-0.1-0.9-0.1-1.4c0-1.6,0.1-3.3,1-4.8
				c0.6-1,1.4-1.8,2.5-2.1c0.9-0.3,1.8-0.1,2.5,0.5C205.4,303.5,205.5,303.8,205.7,304z M207.6,311.7c0-0.3,0-0.6-0.1-0.9
				c-0.2-1-0.8-1.8-1.5-2.6c-0.3-0.3-0.6-0.6-1-0.7c-0.4-0.2-0.7-0.1-1,0.1c-0.3,0.2-0.6,0.5-0.7,0.8c-0.3,0.8-0.4,1.6-0.3,2.4
				c0.1,1,0.5,1.9,1,2.7c0.3,0.4,0.6,0.8,1.1,1.1c0.3,0.2,0.6,0.2,1,0.1c0.5-0.2,0.9-0.6,1.1-1C207.5,313,207.6,312.4,207.6,311.7z"/><path class="st5" d="M145.8,310.8c0.4-0.4,0.8-0.7,1.3-0.9c1.1-0.6,2.3-0.8,3.6-0.6c0.7,0.1,1.3,0.5,1.8,1.1
				c0.6,0.8,1,1.7,1.2,2.6c0.5,2.6,0.3,5.2-0.7,7.7c-0.4,1.1-1.1,2.1-2,2.8c-0.6,0.5-1.3,0.7-2.1,0.8c-0.6,0-1.1,0-1.7-0.2
				c-0.6-0.2-1.1-0.4-1.5-1c0,0.2,0,0.4-0.1,0.6c-0.1,1.4-0.1,2.8-0.2,4.1c-0.1,1.6-0.1,3.1-0.2,4.7c-0.1,1.4-0.1,2.9-0.3,4.3
				c-0.1,0.9-0.3,1.7-0.8,2.4c-0.3,0.4-0.8,0.7-1.3,0.7c-0.5,0-0.8-0.2-1.1-0.6c-0.2-0.4-0.4-0.9-0.5-1.4c-0.2-1.2-0.2-2.4-0.2-3.6
				c0-1.8,0-3.6,0.1-5.3c0-1.3,0-2.6,0.1-3.9c0.1-1.7,0.2-3.3,0.3-5c0-0.6,0.1-1.2,0.1-1.8c0.1-1.4,0.1-2.9,0.3-4.3
				c0.1-1.2,0.3-2.4,0.7-3.5c0.1-0.4,0.3-0.8,0.6-1.2c0.1-0.2,0.2-0.3,0.4-0.4c0.4-0.3,1-0.3,1.4,0c0.4,0.3,0.6,0.8,0.7,1.2
				C145.7,310.4,145.7,310.6,145.8,310.8z M150.1,315.8c0-0.5,0-1-0.2-1.4c-0.3-0.6-0.7-0.9-1.3-0.9c-0.9,0-1.6,0.4-2.3,1
				c-0.2,0.2-0.3,0.4-0.3,0.7c-0.1,0.9-0.1,1.8-0.1,2.7c0,0.3,0.1,0.6,0.4,0.9c0.4,0.3,0.9,0.6,1.4,0.7c0.6,0.1,1.1,0,1.5-0.5
				c0.2-0.3,0.4-0.7,0.5-1C150,317.4,150.1,316.6,150.1,315.8z"/><path class="st6" d="M114.8,323c-2.6-0.1-5.2-0.4-7.7-1.2c-0.9-0.3-1.6-0.7-2.1-1.4c-0.5-0.7-0.7-1.5-0.8-2.4
				c-0.1-1.1,0-2.2,0.2-3.4c0.4-2.5,0.9-5,1.6-7.4c0.8-3.3,1.8-6.5,3.1-9.6c0.4-1,0.9-2,1.5-3c0.3-0.5,0.7-1.1,1.1-1.5
				c0.2-0.2,0.5-0.5,0.8-0.6c0.1-0.1,0.3-0.1,0.4-0.2c0.6-0.1,1,0,1.2,0.7c0.1,0.3,0.2,0.6,0.2,0.9c0,1,0,2.1-0.2,3.1
				c-0.5,3.5-1.4,6.9-2.3,10.3c-0.7,2.6-1.4,5.2-2,7.8c-0.1,0.5-0.2,1.1-0.3,1.6c0,0.1,0,0.1,0,0.2c0,0.2,0,0.3,0.2,0.3
				c0.1,0,0.3,0,0.4,0c2.3,0.1,4.6,0.3,6.8,0.7c0.9,0.2,1.8,0.4,2.6,0.7c0.3,0.1,0.7,0.3,1,0.5c0.6,0.5,0.8,1,0.5,1.7
				c-0.2,0.5-0.6,0.9-1.1,1.2c-0.7,0.4-1.4,0.6-2.2,0.8C116.6,322.9,115.7,323,114.8,323z"/><path class="st5" d="M160.4,324.6c-0.1,0.5-0.2,0.9-0.5,1.2c-0.3,0.4-0.7,0.6-1.2,0.6c-0.4,0-0.7-0.1-0.9-0.4
				c-0.3-0.4-0.4-0.8-0.6-1.2c-0.3-0.9-0.4-1.8-0.5-2.8c-0.2-2-0.3-4-0.3-6c0-1.3-0.2-2.5-0.2-3.8c0-0.8,0-1.6,0-2.4
				c0-0.8,0.1-1.6,0.3-2.5c0.1-0.4,0.3-0.9,0.5-1.2c0.6-0.9,1.6-1,2.3-0.1c0.4,0.4,0.6,1,0.8,1.5c0.4,1.1,0.5,2.3,0.6,3.4
				c0.1,0.9,0,1.9,0.2,2.9c0.1-0.1,0.1-0.2,0.2-0.2c0.7-1.1,1.7-1.9,2.9-2.3c1.5-0.5,2.8,0,3.8,1.2c0.6,0.8,0.9,1.6,1.1,2.6
				c0.3,1.4,0.3,2.7,0.2,4.1c-0.1,1.2-0.4,2.5-0.8,3.6c-0.3,0.8-0.7,1.5-1.3,2.2c-1.5,1.7-3.9,1.7-5.4,0.5
				C161,325.2,160.7,324.9,160.4,324.6z M165.1,318.1c0-0.2,0-0.4,0-0.6c0-0.4-0.1-0.9-0.4-1.2c-0.3-0.4-0.6-0.6-1.1-0.6
				c-0.4,0-0.7,0.2-1,0.4c-0.7,0.4-1.2,1-1.6,1.6c-0.1,0.1-0.1,0.2-0.1,0.3c0,0.7-0.1,1.3-0.1,2c0,0.1,0,0.2,0.1,0.3
				c0.5,0.6,1.1,1,1.9,1.1c0.8,0.1,1.3-0.2,1.7-0.9c0.1-0.2,0.2-0.5,0.3-0.7C165,319.3,165.1,318.7,165.1,318.1z"/><path class="st6" d="M194.4,320.6c-0.3,0.8-0.7,1.5-1.3,2c-1,1-2.8,1.4-4.3,0.3c-0.4-0.3-0.7-0.6-1-0.9c-0.8-0.8-1.4-1.8-1.9-2.8
				c-0.6-1.3-0.9-2.6-1-4c-0.1-1.3,0-2.5,0.2-3.8c0.1-0.4,0.3-0.8,0.5-1.2c0.9-1.7,2.6-2.3,4.4-1.6c0.5,0.2,1,0.5,1.4,0.9
				c0.1-0.1,0-0.2,0-0.3c-0.2-1.1-0.3-2.2-0.5-3.2c-0.1-0.8-0.2-1.6-0.3-2.3c0-0.4,0-0.9,0.1-1.3c0.2-0.9,0.6-1.2,1.6-1.3
				c0.6-0.1,1.1,0.2,1.5,0.6c0.4,0.4,0.6,0.9,0.7,1.4c0.3,1.2,0.6,2.4,0.7,3.6c0.3,2.2,0.6,4.4,1.1,6.5c0.3,1.5,0.8,2.9,1.1,4.4
				c0.1,0.7,0.3,1.4,0.4,2.1c0,0.4,0,0.8,0,1.2c-0.2,1.1-1.3,1.6-2.3,1c-0.4-0.2-0.7-0.5-0.9-0.9
				C194.6,320.8,194.5,320.7,194.4,320.6z M190,312.7c-0.6,0-1,0.3-1.2,0.8c-0.1,0.3-0.2,0.6-0.1,1c0.1,1.4,0.5,2.7,1.1,3.9
				c0.1,0.2,0.3,0.4,0.4,0.6c0.2,0.3,0.5,0.3,0.9,0.2c0.2-0.1,0.5-0.2,0.7-0.4c0.5-0.4,0.8-0.9,1.1-1.4c0.1-0.2,0.1-0.3,0.1-0.5
				c-0.2-0.7-0.3-1.4-0.5-2.2c0-0.1,0-0.1-0.1-0.2c-0.5-0.6-1-1.3-1.7-1.6C190.5,312.8,190.2,312.7,190,312.7z"/><path class="st7" d="M134.2,322.8c-0.1,0-0.2,0.1-0.3,0.2c-0.9,0.6-2,0.9-3,1c-1.3,0.1-2.4-0.3-3.2-1.3c-0.7-0.8-1.1-1.7-1.2-2.8
				c0-1.1,0.4-2.1,1.3-2.8c0.8-0.7,1.8-1.2,2.8-1.6c1.2-0.4,2.4-0.7,3.7-0.7c0.2,0,0.3-0.1,0.3-0.3c0-0.3,0.1-0.6,0-0.9
				c-0.1-0.7-0.6-1.2-1.4-1.3c-0.5-0.1-1.1,0-1.6,0.2c-0.5,0.2-0.9,0.4-1.4,0.6c-0.4,0.2-0.8,0.3-1.2,0.3c-0.8,0-1.5-0.7-1.3-1.6
				c0.2-1,0.7-1.6,1.5-2.1c0.9-0.6,1.9-0.9,3-1.1c1.3-0.2,2.6,0.1,3.7,0.8c1,0.6,1.7,1.4,2,2.5c0.3,1,0.5,1.9,0.7,3
				c0.1,1.2,0.2,2.3,0.1,3.5c-0.1,1.5-0.1,2.9-0.4,4.4c-0.2,0.8-0.4,1.5-0.9,2.2c-0.3,0.3-0.6,0.5-1.1,0.5c-1.2,0-2-0.8-2-2
				C134.3,323,134.3,322.9,134.2,322.8z M134.4,318.5c0-0.2,0-0.3,0-0.5c0-0.3,0-0.4-0.3-0.3c-1.1,0-2,0.4-2.8,1.2
				c-0.2,0.2-0.3,0.3-0.3,0.6c-0.1,0.4,0,0.5,0.4,0.7c0.3,0.1,0.6,0.2,0.9,0.1c0.7-0.1,1.3-0.3,1.9-0.6c0.1,0,0.2-0.1,0.2-0.2
				C134.4,319,134.4,318.7,134.4,318.5z"/><path class="st7" d="M114.7,307.6c0-1.6,0.4-3.4,1.3-5.1c0.5-0.9,1.1-1.6,1.9-2.2c0.7-0.5,1.4-0.8,2.3-0.9c1-0.1,2,0,2.9,0.5
				c1.2,0.6,1.9,1.6,2.2,2.9c0.2,1.3,0,2.4-0.6,3.5c-1.1,2-2.9,3.1-5.1,3.4c-0.3,0.1-0.3,0.1-0.2,0.4c0.2,0.5,0.6,0.8,1.1,1
				c0.6,0.2,1.2,0.1,1.7-0.2c0.4-0.2,0.7-0.4,1-0.7c0.4-0.3,0.8-0.6,1.2-0.8c0.6-0.3,1.1-0.3,1.7,0.1c0.3,0.2,0.4,0.5,0.5,0.9
				c0,0.6-0.1,1.2-0.4,1.7c-1,1.7-2.5,2.9-4.4,3.4c-1.4,0.4-2.7,0-3.8-0.8c-1.1-0.8-1.9-1.9-2.5-3.2
				C115,310.4,114.7,309.2,114.7,307.6z M119.2,306.1c0.3,0,0.6-0.1,0.9-0.1c0.6-0.1,1.2-0.3,1.7-0.7c0.5-0.4,0.7-0.9,0.4-1.6
				c-0.1-0.4-0.3-0.5-0.7-0.5c-0.4,0-0.8,0.1-1.1,0.4c-0.7,0.6-1,1.4-1.2,2.3C119.1,306,119.1,306,119.2,306.1z"/><path class="st4" d="M212.3,301.3c0-1.5,0.3-2.8,0.9-4.1c0.8-1.4,2-2.3,3.6-2.5c1.3-0.2,2.5,0.1,3.6,0.9c0.7,0.6,1.1,1.4,1.4,2.2
				c0.4,1.6,0.2,3.1-0.7,4.5c-0.7,1.2-1.7,2.2-3.1,2.8c-0.3,0.1-0.3,0.1-0.1,0.4c0.4,0.6,1,0.7,1.6,0.6c0.6-0.1,1.1-0.4,1.5-0.9
				c0.4-0.5,0.8-1.1,1.2-1.6c0.4-0.5,0.8-0.7,1.5-0.7c0.6,0,1,0.3,1.1,0.9c0.2,0.6,0.2,1.2,0.1,1.8c-0.3,1.1-0.8,2.1-1.5,3
				c-0.4,0.5-0.9,1-1.5,1.3c-1,0.6-2.1,0.9-3.3,0.6c-1.2-0.2-2.3-0.8-3.2-1.6c-1.7-1.6-2.7-3.5-3-5.8
				C212.4,302.5,212.3,301.9,212.3,301.3z M216.2,300.6c0,0.4,0.1,0.8,0.2,1.2c0,0.2,0.1,0.2,0.3,0.1c0.3-0.2,0.7-0.4,1-0.7
				c0.3-0.3,0.6-0.6,0.9-1c0.4-0.7,0.1-1.2-0.3-1.6c-0.2-0.2-0.5-0.3-0.8-0.2c-0.4,0.2-0.7,0.4-0.9,0.7
				C216.3,299.6,216.2,300.1,216.2,300.6z"/><path class="st8" d="M175.6,312.1c0.1-0.1,0.1-0.2,0.2-0.3c0.2-0.3,0.4-0.7,0.7-1c0.7-0.9,1.6-1.3,2.7-1.4c0.6-0.1,1.2,0,1.8,0.2
				c1,0.4,1.7,1.1,1.8,2.1c0.1,0.7-0.1,1.3-0.7,1.7c-0.5,0.3-1.1,0.5-1.7,0.3c-0.2-0.1-0.5-0.1-0.7-0.2c-0.7-0.2-1.3,0-1.8,0.4
				c-0.5,0.4-0.8,1-1.1,1.6c-0.3,0.9-0.3,1.8-0.3,2.7c0.1,1.4,0.3,2.8,0.3,4.3c0,0.5-0.1,1-0.3,1.4c-0.1,0.3-0.3,0.6-0.5,0.8
				c-0.5,0.5-1.4,0.6-1.9,0.1c-0.3-0.2-0.5-0.5-0.7-0.9c-0.4-0.8-0.6-1.6-0.8-2.5c-0.2-1.1-0.4-2.3-0.5-3.5
				c-0.1-0.9-0.3-1.7-0.4-2.6c-0.2-1.1-0.3-2.2-0.3-3.2c0-0.6,0.2-1.2,0.5-1.7c0.3-0.5,0.8-0.8,1.4-0.8c0.4,0,0.7,0.1,1,0.4
				c0.4,0.4,0.6,0.8,0.8,1.3C175.4,311.5,175.5,311.8,175.6,312.1z"/><path class="st8" d="M179.3,320.5c0-0.8,0-1.5,0.2-2.2c0.1-0.4,0.2-0.8,0.5-1.1c0.3-0.4,0.7-0.7,1.2-0.7c0.5-0.1,0.9,0.2,1.2,0.6
				c0.4,0.5,0.6,1,0.8,1.6c0.4,1,0.6,2,0.7,3c0.2,1.5,0.5,3,0.7,4.6c0.1,1,0.2,2,0.1,3c-0.1,0.6-0.2,1.2-0.5,1.8
				c-0.3,0.4-0.6,0.7-1.1,0.8c-0.3,0.1-0.6,0-0.9-0.3c-0.3-0.3-0.6-0.7-0.8-1c-0.5-0.9-0.7-1.9-1-2.9c-0.4-1.7-0.7-3.5-0.9-5.3
				C179.4,321.7,179.3,321,179.3,320.5z"/><path class="st9" d="M181.2,304.4c0,0.8-0.2,1.4-0.5,2c-0.7,1.2-1.8,1.1-2.6,0.6c-0.3-0.2-0.5-0.4-0.6-0.6
				c-0.8-1.2-1-2.5-0.4-3.8c0.3-0.6,0.7-1.1,1.5-1.2c0.6,0,1.2,0.1,1.6,0.6c0.5,0.5,0.8,1.1,0.9,1.9
				C181.1,304,181.2,304.3,181.2,304.4z"/><path class="st10" d="M207.6,311.7c0,0.7-0.1,1.3-0.4,1.9c-0.3,0.5-0.7,0.8-1.1,1c-0.3,0.1-0.7,0.1-1-0.1
				c-0.4-0.3-0.8-0.7-1.1-1.1c-0.5-0.8-0.9-1.7-1-2.7c-0.1-0.8,0-1.6,0.3-2.4c0.1-0.3,0.4-0.6,0.7-0.8c0.3-0.2,0.7-0.2,1-0.1
				c0.4,0.2,0.7,0.4,1,0.7c0.7,0.8,1.3,1.6,1.5,2.6C207.6,311.1,207.6,311.4,207.6,311.7z"/><path class="st11" d="M150.1,315.8c0,0.8-0.1,1.5-0.4,2.3c-0.1,0.4-0.3,0.7-0.5,1c-0.4,0.5-0.9,0.6-1.5,0.5
				c-0.5-0.1-1-0.4-1.4-0.7c-0.3-0.2-0.4-0.5-0.4-0.9c0-0.9-0.1-1.8,0.1-2.7c0-0.3,0.1-0.5,0.3-0.7c0.6-0.6,1.4-1,2.3-1
				c0.6,0,1,0.3,1.3,0.9C150.1,314.9,150.1,315.4,150.1,315.8z"/><path class="st11" d="M165.1,318.1c0,0.6,0,1.2-0.2,1.7c-0.1,0.3-0.2,0.5-0.3,0.7c-0.4,0.7-1,0.9-1.7,0.9
				c-0.8-0.1-1.4-0.5-1.9-1.1c-0.1-0.1-0.1-0.2-0.1-0.3c0-0.7,0.1-1.3,0.1-2c0-0.1,0-0.2,0.1-0.3c0.5-0.6,1-1.2,1.6-1.6
				c0.3-0.2,0.7-0.3,1-0.4c0.5,0,0.8,0.2,1.1,0.6c0.2,0.4,0.3,0.8,0.4,1.2C165.1,317.7,165.1,317.9,165.1,318.1z"/><path class="st12" d="M190,312.7c0.2,0,0.5,0.1,0.8,0.2c0.7,0.4,1.2,1,1.7,1.6c0,0,0,0.1,0.1,0.2c0.2,0.7,0.3,1.4,0.5,2.2
				c0,0.2,0,0.4-0.1,0.5c-0.3,0.5-0.6,1-1.1,1.4c-0.2,0.2-0.4,0.3-0.7,0.4c-0.4,0.1-0.6,0-0.9-0.2c-0.2-0.2-0.3-0.4-0.4-0.6
				c-0.7-1.2-1.1-2.5-1.1-3.9c0-0.3,0-0.6,0.1-1C189,313,189.4,312.7,190,312.7z"/><path class="st12" d="M134.4,318.5c0,0.3,0,0.6-0.1,0.9c0,0.1-0.1,0.2-0.2,0.2c-0.6,0.2-1.2,0.5-1.9,0.6c-0.3,0-0.6,0-0.9-0.1
				c-0.3-0.1-0.4-0.3-0.4-0.7c0-0.2,0.1-0.4,0.3-0.6c0.8-0.8,1.7-1.2,2.8-1.2c0.3,0,0.3,0,0.3,0.3
				C134.4,318.1,134.4,318.3,134.4,318.5z"/><path class="st12" d="M119.2,306.1c-0.1-0.1-0.1-0.1-0.1-0.2c0.2-0.9,0.5-1.7,1.2-2.3c0.3-0.3,0.7-0.4,1.1-0.4
				c0.4,0,0.6,0.1,0.7,0.5c0.2,0.6,0.1,1.1-0.4,1.6c-0.5,0.4-1.1,0.5-1.7,0.7C119.8,306,119.5,306.1,119.2,306.1z"/><path class="st10" d="M216.2,300.6c0-0.5,0.1-1,0.4-1.5c0.2-0.4,0.5-0.6,0.9-0.7c0.3-0.1,0.5-0.1,0.8,0.2c0.4,0.4,0.7,1,0.3,1.6
				c-0.2,0.4-0.5,0.7-0.9,1c-0.3,0.3-0.7,0.5-1,0.7c-0.2,0.1-0.2,0.1-0.3-0.1C216.3,301.4,216.2,301,216.2,300.6z"/></g></g></g></svg>