<?xml version="1.0" encoding="utf-8"?><!--Generator: Adobe Illustrator 26.0.2, SVG Export Plug-In . SVG Version: 6.00 Build 0)--><svg version="1.1" id="Layer_1" xmlns="http://www.w3.org/2000/svg" xmlns:xlink="http://www.w3.org/1999/xlink" x="0px" y="0px" viewBox="0 0 400 400" style="enable-background:new 0 0 400 400" xml:space="preserve"><style type="text/css">.st0{display:none;fill:none;stroke:#EE5B95;stroke-width:3;stroke-miterlimit:10;}
	.st1{display:none;fill:#EDD55D;}
	.st2{fill:none;stroke:#0099FF;stroke-width:3;stroke-miterlimit:10;}
	.st3{fill:#FF9933;}
	.st4{fill:#333132;}
	.st5{fill:#2D292A;}
	.st6{fill:#CD243D;}
	.st7{fill:#00ACE7;}
	.st8{fill:#FEC100;}
	.st9{fill:#F66D37;}
	.st10{fill:#ED5B94;}
	.st11{fill:#EC5B94;}
	.st12{fill:#333031;}
	.st13{fill:#323132;}
	.st14{fill:#343131;}</style><path class="st0" d="M42.3,82.5L10.1,251.3c-1.9,9.8,1.6,19.9,9.2,26.4l129.2,111.5c8.1,7,19.4,9.1,29.5,5.6l161.2-56.1
	c9.5-3.3,16.4-11.4,18.3-21.2l32.2-168.8c1.9-9.8-1.6-19.9-9.2-26.4L250.3,10c-7.6-6.5-18.1-8.5-27.5-5.2L60.6,61.3
	C51.1,64.6,44.2,72.7,42.3,82.5z"/><path class="st1" d="M381.4,59.5C258,57,152.2,50.3,22,42.2C11.1,41.6,0.2,58.3,5.4,67.9c49.1,90.6,115.7,219.4,164.8,319.9
	c4.8,9.8,24.6,10.6,30.5,1.5c64.7-100.6,132.6-209,194.6-302.7C401.4,77.5,392.3,59.7,381.4,59.5z"/><path class="st2" d="M373.8,117.7C255.9,86.5,155.8,55.2,32.6,17C22.3,13.8,7.9,27.4,10.7,37.8c25.9,98.5,59.8,237.9,83.4,345.9
	c2.3,10.5,21.2,16,29,8.5c85.7-81.5,176.3-169.7,257.8-245.1C388.8,139.8,384.2,120.5,373.8,117.7z"/><g><path class="st3" d="M378,299.5c28.8-44.1,18.1-98.9,4.1-133c-17.1-41.4-49.5-81.9-95.5-109.3c-33.7-20.1-94.9-56.6-148.3-29
		C14.2,92.4-33.1,242.1,35.2,277.4c35.6,18.4,99.9-56.4,104.2,28.9C143.2,385.2,319.2,389.7,378,299.5z"/></g><g id="Layer_2_00000159445127318784663650000007840393920876408216_"><g id="Layer_4_00000060006460836004305930000000631969708242434746_"><g><path class="st4" d="M183.9,287.8c0.8,0.1,1.6,0.3,2.3,0.7c1.5,0.8,2.3,2,2.8,3.5c0.3,1,0.4,2.1,0.4,3.1c0,0.1,0,0.2,0,0.3
				c0,0.1,0,0.1,0.1,0.1c0.1,0,0.2,0,0.3,0c4.6-0.3,8.5,2.6,9.5,6.7c0.2,0.7,0.3,1.4,0.3,2.1c0,0.1,0,0.3,0,0.5
				c1.7-0.5,3.4-0.6,5.2-0.2c1.7,0.4,3.2,1.1,4.5,2.3c0.1,0,0.2-0.1,0.3-0.2c0.7-0.7,1.5-1.2,2.4-1.6c1.5-0.5,3-0.3,4.5,0.4
				c0.2,0.1,0.4,0.1,0.6,0.1c1.6-0.4,3.2-0.4,4.8,0c0.3,0.1,0.3,0.1,0.4-0.2c0.5-1.2,1.3-2.2,2.4-2.9c2.4-1.6,5.5-1.2,7.5,0.8
				c0.9,1,1.5,2.1,2,3.4c0,0,0,0,0,0.1c0.1,0.4,0,0.3,0.4,0.3c0.7,0,1.4,0.1,2.1,0.2c0.6,0.2,1.1,0.4,1.7,0.7
				c0.2,0.1,0.3,0.1,0.4-0.1c0.8-0.9,1.8-1.4,3-1.7c0.3-0.1,0.3-0.1,0.3-0.4c-0.3-2.6,0.3-4.9,2.2-6.8c1.4-1.4,3.1-1.9,5-1.7
				c3.3,0.4,5.4,2.8,6,5.4c0.1,0.6,0.2,1.1,0.3,1.7c0,0.1,0,0.1,0,0.2c0.3-0.1,0.3-0.1,0.3-0.4c-0.1-1.3,0.1-2.6,0.6-3.8
				c0.9-2,2.6-3.2,4.8-3.5c2.8-0.4,4.9,0.7,6.5,3c0,0.1,0.1,0.1,0.2,0.2c0.1,0,0.2-0.1,0.2-0.2c1.6-1.3,3.4-1.9,5.4-1.9
				c0.2,0,0.3,0,0.5-0.1c1.2-0.8,2.6-1.1,4-0.8c0.3,0.1,0.3,0.1,0.4-0.2c0.6-1.4,1.3-2.6,2.4-3.7c1.6-1.5,3.4-2.3,5.5-2.7
				c2.4-0.4,4.7,0.1,6.7,1.4c2.2,1.4,3.4,3.4,3.9,5.9c0.1,0.5,0.2,1,0.2,1.5c0,0.2,0.1,0.2,0.2,0.3c1.8,1.1,2.8,2.7,3,4.7
				c0.2,1.4,0,2.7-0.6,4c-1.1,2.7-2.9,4.8-5.4,6.2c-1.8,1-3.8,1.3-5.9,1c-0.1,0-0.2-0.1-0.4,0c0,0.3,0.1,0.5,0.2,0.8
				c0.5,1.8,1,3.5,1.4,5.3c0.4,1.7,0.6,3.5,0.5,5.2c-0.1,2-0.5,3.8-1.5,5.5c-1.6,2.8-4.1,4.4-7.2,5c-1.7,0.4-3.5,0.3-5.2-0.1
				c-1.5-0.4-2.9-1.2-3.9-2.4c-1-1.3-1.6-2.7-1.5-4.3c0.1-3,2.1-5.3,5.1-5.9c0.2,0,0.4-0.1,0.6-0.1c0.1,0,0.2-0.1,0.1-0.2
				c-0.1-0.3-0.1-0.6-0.2-0.9c0-0.2-0.1-0.2-0.3-0.2c-1.3,0.2-2.6,0.1-3.9-0.3c-0.2-0.1-0.3,0-0.3,0.2c-0.3,1-0.8,1.9-1.6,2.6
				c-1.2,1.1-2.6,1.6-4.3,1.6c-0.5,0-1,0.1-1.5,0.4c-1.6,1-3.4,1.3-5.2,1.1c-0.1,0-0.2,0-0.3,0c0,0.5,0,0.9-0.1,1.4
				c-0.1,1.1-0.3,2.3-0.8,3.3c-0.9,1.9-2.4,3.1-4.5,3.5c-2,0.4-3.7-0.2-5.1-1.5c-1.1-1-1.7-2.3-2.2-3.7c-0.1-0.3-0.2-0.5-0.3-0.8
				c-0.1-0.3-0.1-0.3-0.4-0.2c-1.4,0.2-2.8,0-4-0.8c-0.5-0.3-0.9-0.6-1.3-1c-0.1-0.1-0.2-0.2-0.4-0.3c-0.2,0.2-0.4,0.4-0.6,0.6
				c-1.9,1.8-4.2,2.5-6.8,2.3c-0.5,0-0.9-0.1-1.4-0.3c-0.1,0-0.3,0-0.4,0c-1,0.4-2,0.5-3.1,0.5c-0.2,0-0.5-0.1-0.7-0.2
				c-1.6-0.4-2.8-1.4-3.7-2.9c-0.1-0.2-0.2-0.3-0.3-0.5c-0.1,0-0.2,0-0.2,0.1c-0.9,0.5-1.8,0.9-2.8,1.1c-0.3,0.1-0.3,0.1-0.3,0.4
				c-0.1,2.2-0.2,4.3-0.3,6.5c-0.1,1.3-0.2,2.6-0.6,3.9c-0.4,1.3-1,2.4-2,3.3c-1.8,1.8-4.8,2.3-7,1.1c-1.4-0.7-2.3-1.9-2.8-3.3
				c-0.4-0.9-0.6-1.9-0.7-2.8c-0.2-1.9-0.1-3.8-0.1-5.7c0-0.7,0-1.5,0-2.2c0-0.2-0.1-0.2-0.3-0.2c-1.4,0-2.7-0.4-3.9-1.2
				c-0.1-0.1-0.3-0.1-0.4-0.1c-1.5,0.2-3.1,0.1-4.5-0.5c-1.6-0.6-2.8-1.7-3.8-3.1c-0.1-0.1-0.1-0.2-0.2-0.3c0,0,0,0,0,0
				c0,0-0.1,0-0.1,0.1c-1.4,1.3-3,2.1-4.8,2.5c-1.8,0.4-3.5,0.4-5.3,0.3c-2.5-0.2-5-0.7-7.4-1.5c-1.2-0.4-2.3-0.9-3.2-1.7
				c-1.4-1.2-2.2-2.7-2.6-4.5c-0.1-0.4-0.1-0.9-0.2-1.3c0-0.1,0-0.2-0.1-0.3c0-0.5,0-1.1,0-1.6c0.1-0.3,0.1-0.5,0.1-0.8
				c0-0.6,0.1-1.2,0.2-1.7c0.3-1.4,0.5-2.7,0.8-4.1c0.6-3.3,1.4-6.5,2.3-9.7c0.7-2.3,1.5-4.6,2.6-6.7c0.7-1.5,1.6-2.9,2.8-4.1
				c1.3-1.3,2.7-2.2,4.6-2.4C183.2,287.8,183.6,287.8,183.9,287.8z M275.5,304.7c-0.2-0.2-0.3-0.4-0.5-0.6c-0.8-0.6-1.6-0.8-2.5-0.5
				c-1.2,0.3-1.9,1.1-2.5,2.1c-0.8,1.5-1,3.1-1,4.8c0,0.5,0,0.9,0.1,1.4c0.1,1.2,0.4,2.3,0.9,3.4c0.5,1.2,1.2,2.3,2.2,3.1
				c0.8,0.7,1.7,1.1,2.8,1.1c0.9,0,1.7-0.2,2.4-0.5c0.8-0.4,1.5-0.9,1.8-1.7c0-0.1,0.1-0.1,0.1-0.1c0.1,0.3,0.2,0.7,0.3,1
				c0.5,1.9,1,3.8,1.5,5.7c0.2,1,0.5,1.9,0.4,3c0,0.6-0.2,1.1-0.4,1.6c-0.4,0.8-1.1,1.2-1.9,1.4c-0.5,0.1-0.9,0-1.4,0
				c-0.4-0.1-0.9,0-1.3,0.1c-0.9,0.3-1.2,1.2-1,1.9c0.1,0.7,0.5,1.1,1.1,1.5c0.7,0.4,1.5,0.5,2.3,0.6c1.1,0,2.1-0.1,3.1-0.6
				c2.3-1,3.4-2.8,3.6-5.2c0.2-1.8-0.1-3.7-0.6-5.5c-0.5-1.8-1-3.7-1.5-5.5c-0.6-2.2-1.3-4.3-2-6.4c-0.4-1.2-0.9-2.5-1.4-3.7
				c-0.5-1.1-0.9-2.3-1.6-3.3c-0.3-0.4-0.5-0.8-1-1.1c-0.3-0.2-0.6-0.2-0.9,0c-0.4,0.2-0.6,0.5-0.8,0.9
				C275.6,303.9,275.5,304.2,275.5,304.7z M215.6,311.5c-0.1-0.2-0.1-0.4-0.2-0.6c-0.2-0.5-0.3-0.9-0.7-1.2c-0.4-0.4-1-0.4-1.4,0
				c-0.2,0.1-0.3,0.3-0.4,0.4c-0.3,0.4-0.4,0.8-0.6,1.2c-0.4,1.1-0.6,2.3-0.7,3.5c-0.1,1.4-0.2,2.8-0.3,4.3c0,0.6,0,1.2-0.1,1.8
				c-0.1,1.7-0.2,3.3-0.3,5c0,1.3,0,2.6-0.1,3.9c-0.1,1.8-0.1,3.6-0.1,5.3c0,1.2,0,2.4,0.2,3.6c0.1,0.5,0.2,1,0.5,1.4
				c0.2,0.4,0.6,0.6,1.1,0.6c0.6,0,1-0.3,1.3-0.7c0.5-0.7,0.7-1.6,0.8-2.4c0.2-1.4,0.2-2.9,0.3-4.3c0.1-1.6,0.2-3.1,0.2-4.7
				c0.1-1.4,0.1-2.8,0.2-4.1c0-0.2,0-0.4,0.1-0.6c0.4,0.6,0.9,0.8,1.5,1c0.5,0.2,1.1,0.2,1.7,0.2c0.8,0,1.5-0.3,2.1-0.8
				c0.9-0.7,1.6-1.7,2-2.8c1-2.5,1.2-5,0.7-7.7c-0.2-1-0.6-1.9-1.2-2.6c-0.5-0.6-1.1-1-1.8-1.1c-1.3-0.2-2.5,0-3.6,0.6
				C216.4,310.8,216,311.1,215.6,311.5z M184.5,323.6c0.9,0,1.9-0.1,2.8-0.2c0.8-0.1,1.5-0.3,2.2-0.8c0.5-0.3,0.8-0.7,1.1-1.2
				c0.3-0.7,0.1-1.3-0.5-1.7c-0.3-0.2-0.6-0.4-1-0.5c-0.8-0.3-1.7-0.6-2.6-0.7c-2.3-0.4-4.5-0.6-6.8-0.7c-0.1,0-0.3,0-0.4,0
				c-0.2,0-0.2-0.1-0.2-0.3c0-0.1,0-0.1,0-0.2c0.1-0.5,0.2-1.1,0.3-1.6c0.6-2.6,1.4-5.2,2-7.8c0.9-3.4,1.8-6.8,2.3-10.3
				c0.2-1,0.2-2,0.2-3.1c0-0.3-0.1-0.6-0.2-0.9c-0.2-0.7-0.6-0.8-1.2-0.7c-0.1,0-0.3,0.1-0.4,0.2c-0.3,0.2-0.6,0.4-0.8,0.6
				c-0.4,0.5-0.8,1-1.1,1.5c-0.6,0.9-1,1.9-1.5,3c-1.3,3.1-2.2,6.3-3.1,9.6c-0.6,2.4-1.1,4.9-1.6,7.4c-0.2,1.1-0.3,2.2-0.2,3.4
				c0.1,0.9,0.3,1.7,0.8,2.4c0.5,0.8,1.3,1.2,2.1,1.4C179.3,323.3,181.9,323.6,184.5,323.6z M230.2,325.3c0.3,0.3,0.6,0.6,0.9,0.8
				c1.6,1.2,3.9,1.2,5.4-0.5c0.6-0.6,1-1.4,1.3-2.2c0.5-1.2,0.7-2.4,0.8-3.6c0.1-1.4,0.1-2.7-0.2-4.1c-0.2-0.9-0.5-1.8-1.1-2.6
				c-1-1.3-2.3-1.7-3.8-1.2c-1.2,0.4-2.2,1.2-2.9,2.3c0,0.1-0.1,0.2-0.2,0.2c-0.1-1-0.1-1.9-0.2-2.9c-0.1-1.2-0.3-2.3-0.6-3.4
				c-0.2-0.6-0.4-1.1-0.8-1.5c-0.7-0.8-1.7-0.8-2.3,0.1c-0.2,0.4-0.4,0.8-0.5,1.2c-0.2,0.8-0.3,1.6-0.3,2.5c0,0.8,0,1.6,0,2.4
				c0,1.3,0.2,2.5,0.2,3.8c0.1,2,0.1,4,0.3,6c0.1,0.9,0.2,1.9,0.5,2.8c0.1,0.4,0.3,0.8,0.6,1.2c0.2,0.3,0.5,0.5,0.9,0.4
				c0.5,0,0.9-0.3,1.2-0.6C229.9,326.2,230.1,325.8,230.2,325.3z M264.2,321.3c0.1,0.1,0.1,0.2,0.2,0.3c0.2,0.4,0.5,0.7,0.9,0.9
				c1,0.6,2.1,0.1,2.3-1c0.1-0.4,0.1-0.8,0-1.2c-0.1-0.7-0.2-1.4-0.4-2.1c-0.3-1.5-0.7-2.9-1.1-4.4c-0.5-2.2-0.8-4.4-1.1-6.5
				c-0.2-1.2-0.4-2.4-0.7-3.6c-0.2-0.5-0.4-1-0.7-1.4c-0.4-0.4-0.9-0.7-1.5-0.6c-0.9,0.1-1.4,0.4-1.6,1.3c-0.1,0.4-0.1,0.8-0.1,1.3
				c0.1,0.8,0.2,1.6,0.3,2.3c0.2,1.1,0.3,2.2,0.5,3.2c0,0.1,0.1,0.2,0,0.3c-0.4-0.4-0.9-0.7-1.4-0.9c-1.7-0.7-3.5-0.1-4.4,1.6
				c-0.2,0.4-0.4,0.8-0.5,1.2c-0.3,1.3-0.3,2.5-0.2,3.8c0.1,1.4,0.4,2.7,1,4c0.5,1,1.1,2,1.9,2.8c0.3,0.3,0.7,0.6,1,0.9
				c1.5,1.1,3.2,0.7,4.3-0.3C263.5,322.7,263.9,322.1,264.2,321.3z M204,323.5c0,0.1,0,0.2,0,0.3c0,1.2,0.8,2,2,2
				c0.4,0,0.8-0.2,1.1-0.5c0.5-0.6,0.8-1.4,0.9-2.2c0.3-1.4,0.4-2.9,0.4-4.4c0.1-1.2,0-2.4-0.1-3.5c-0.1-1-0.3-2-0.7-3
				c-0.4-1.1-1.1-1.9-2-2.5c-1.1-0.7-2.4-1-3.7-0.8c-1.1,0.1-2.1,0.5-3,1.1c-0.7,0.5-1.3,1.2-1.5,2.1c-0.2,0.9,0.6,1.6,1.3,1.6
				c0.4,0,0.8-0.1,1.2-0.3c0.5-0.2,0.9-0.4,1.4-0.6c0.5-0.2,1-0.3,1.6-0.2c0.7,0.1,1.2,0.6,1.4,1.3c0.1,0.3,0,0.6,0,0.9
				c0,0.2-0.1,0.3-0.3,0.3c-1.3,0.1-2.5,0.3-3.7,0.7c-1,0.4-2,0.9-2.8,1.6c-0.8,0.7-1.3,1.7-1.3,2.8c0,1.1,0.5,2,1.2,2.8
				c0.8,1,1.9,1.4,3.2,1.3c1.1-0.1,2.1-0.4,3-1C203.8,323.6,203.9,323.5,204,323.5z M184.5,308.3c0,1.6,0.2,2.8,0.7,4
				c0.5,1.3,1.3,2.4,2.5,3.2c1.2,0.8,2.5,1.2,3.8,0.8c1.9-0.5,3.4-1.6,4.4-3.4c0.3-0.5,0.4-1.1,0.4-1.7c0-0.4-0.2-0.6-0.5-0.9
				c-0.5-0.4-1.1-0.4-1.7-0.1c-0.4,0.2-0.8,0.5-1.2,0.8c-0.3,0.2-0.7,0.5-1,0.7c-0.5,0.3-1.1,0.4-1.7,0.2c-0.5-0.1-0.9-0.4-1.1-1
				c-0.1-0.3-0.1-0.3,0.2-0.4c2.2-0.4,3.9-1.5,5.1-3.4c0.6-1.1,0.9-2.3,0.6-3.5c-0.2-1.3-1-2.3-2.2-2.9c-0.9-0.5-1.9-0.6-2.9-0.5
				c-0.8,0.1-1.6,0.3-2.3,0.9c-0.8,0.6-1.4,1.4-1.9,2.2C184.9,304.9,184.5,306.7,184.5,308.3z M282.1,301.9c0,0.6,0.1,1.2,0.1,1.9
				c0.3,2.3,1.3,4.2,3,5.8c0.9,0.8,2,1.4,3.2,1.6c1.2,0.2,2.3,0,3.3-0.6c0.6-0.4,1-0.8,1.5-1.3c0.7-0.9,1.3-1.9,1.5-3
				c0.1-0.6,0.1-1.2-0.1-1.8c-0.2-0.6-0.6-0.8-1.1-0.9c-0.6,0-1.1,0.2-1.5,0.7c-0.4,0.5-0.8,1.1-1.2,1.6c-0.4,0.5-0.9,0.8-1.5,0.9
				c-0.6,0.1-1.2,0-1.6-0.6c-0.2-0.2-0.2-0.2,0.1-0.4c1.3-0.6,2.3-1.6,3.1-2.8c0.8-1.4,1.1-2.9,0.7-4.5c-0.2-0.9-0.7-1.6-1.4-2.2
				c-1.1-0.9-2.3-1.1-3.6-0.9c-1.6,0.2-2.8,1.1-3.6,2.5C282.3,299.1,282.1,300.5,282.1,301.9z M245.3,312.8
				c-0.1-0.3-0.2-0.6-0.3-0.9c-0.2-0.5-0.4-0.9-0.8-1.3c-0.3-0.3-0.6-0.4-1-0.4c-0.6,0.1-1.1,0.3-1.4,0.8c-0.3,0.5-0.5,1.1-0.5,1.7
				c0,1.1,0.1,2.2,0.3,3.2c0.1,0.9,0.3,1.7,0.4,2.6c0.1,1.2,0.2,2.3,0.5,3.5c0.2,0.9,0.4,1.7,0.8,2.5c0.2,0.3,0.4,0.6,0.7,0.9
				c0.6,0.5,1.4,0.4,1.9-0.1c0.2-0.2,0.4-0.5,0.5-0.8c0.2-0.5,0.3-0.9,0.3-1.4c0.1-1.4-0.2-2.8-0.3-4.3c-0.1-0.9-0.1-1.8,0.3-2.7
				c0.2-0.6,0.6-1.2,1.1-1.6c0.5-0.4,1.1-0.6,1.8-0.4c0.2,0.1,0.5,0.1,0.7,0.2c0.6,0.2,1.2,0,1.7-0.3c0.6-0.4,0.9-1,0.7-1.7
				c-0.2-1.1-0.8-1.8-1.8-2.1c-0.6-0.2-1.2-0.3-1.8-0.2c-1.1,0.1-2.1,0.5-2.7,1.4c-0.2,0.3-0.5,0.7-0.7,1
				C245.5,312.6,245.4,312.7,245.3,312.8z M249.1,321.2c0,0.5,0,1.1,0.1,1.8c0.2,1.8,0.5,3.5,0.9,5.3c0.2,1,0.5,2,1,2.9
				c0.2,0.4,0.4,0.8,0.8,1c0.3,0.2,0.6,0.3,0.9,0.3c0.5-0.1,0.9-0.4,1.1-0.8c0.3-0.6,0.5-1.2,0.5-1.8c0.1-1,0-2-0.1-3
				c-0.2-1.5-0.4-3-0.7-4.6c-0.2-1-0.4-2-0.7-3c-0.2-0.6-0.5-1.1-0.8-1.6c-0.3-0.4-0.7-0.6-1.2-0.6c-0.5,0.1-0.9,0.3-1.2,0.7
				c-0.2,0.4-0.4,0.7-0.5,1.1C249.1,319.7,249.1,320.4,249.1,321.2z M250.9,305.1c0-0.1,0-0.4-0.1-0.6c-0.1-0.7-0.4-1.4-0.9-1.9
				c-0.5-0.4-1-0.6-1.6-0.6c-0.8,0.1-1.2,0.6-1.5,1.2c-0.6,1.3-0.3,2.6,0.4,3.8c0.2,0.3,0.4,0.5,0.6,0.6c0.8,0.5,1.9,0.6,2.6-0.6
				C250.7,306.5,250.9,305.9,250.9,305.1z"/><path class="st5" d="M261.4,350.2c0.1,0,0.1,0.1,0.1,0.1c0.6,0.2,0.8,0.8,0.7,1.3c-0.1,0.5-0.4,0.9-1.1,1
				c-0.6,0.1-1.3,0.1-1.9,0.1c-0.3,0-0.3-0.1-0.3-0.4c-0.1-1-0.1-2-0.1-3c0-0.2,0-0.5,0-0.7c0-0.3,0.1-0.3,0.3-0.4
				c0.5,0,1.1-0.1,1.6-0.1c0.6,0,1,0.2,1.2,0.6C262,349.3,261.8,349.8,261.4,350.2z M260.2,350.6
				C260.2,350.6,260.2,350.6,260.2,350.6c-0.2,0-0.4,0-0.6,0.1c-0.3,0-0.3,0-0.3,0.3c0,0.2,0,0.5,0,0.7c0,0.6,0,0.6,0.6,0.5
				c0.3,0,0.7,0,1-0.1c0.4-0.1,0.6-0.4,0.6-0.9c0-0.4-0.3-0.6-0.7-0.7C260.7,350.6,260.4,350.6,260.2,350.6z M260.1,348.7
				C260.1,348.7,260.1,348.8,260.1,348.7c-0.2,0-0.5,0-0.7,0c-0.1,0-0.2,0.1-0.2,0.2c0,0.3,0,0.7,0.1,1c0,0.1,0.1,0.2,0.2,0.1
				c0.4,0,0.9,0,1.3-0.1c0.4,0,0.5-0.4,0.5-0.7c0-0.4-0.2-0.6-0.6-0.6C260.5,348.7,260.3,348.7,260.1,348.7z"/><path class="st5" d="M273.1,350.5c-0.1-0.8-0.2-1.6-0.3-2.4c0-0.2-0.1-0.4-0.1-0.6c0-0.2,0.1-0.4,0.2-0.4c0.2,0,0.2,0.1,0.3,0.3
				c0.1,1,0.3,2,0.4,3.1c0,0.2,0.1,0.4,0.1,0.6c0,0.2,0.1,0.4-0.1,0.5c-0.2,0.1-0.3-0.1-0.4-0.2c-0.5-0.5-1-1-1.5-1.5
				c-0.4-0.4-0.8-0.8-1.2-1.2c0-0.1-0.1-0.1-0.2-0.1c0,0.2,0,0.4,0,0.5c0.1,0.8,0.2,1.6,0.3,2.5c0,0,0,0.1,0,0.1
				c0,0.2-0.1,0.3-0.2,0.3c-0.2,0-0.2-0.1-0.3-0.2c0-0.1,0-0.3-0.1-0.4c-0.1-1.1-0.3-2.3-0.4-3.4c0-0.1,0-0.1,0-0.2
				c0-0.2,0.2-0.4,0.4-0.2c0.1,0,0.1,0.1,0.2,0.2c0.8,0.8,1.6,1.6,2.4,2.4C272.8,350.2,272.9,350.4,273.1,350.5
				C273.1,350.5,273.1,350.5,273.1,350.5z"/><path class="st5" d="M287.2,347.9c-0.1-0.5-0.2-1-0.3-1.5c-0.1-0.5-0.2-0.9-0.3-1.4c0-0.1,0-0.1,0-0.2c0-0.1,0-0.3,0.2-0.3
				c0.1,0,0.2,0,0.3,0.2c0,0.1,0,0.1,0.1,0.2c0.3,1.2,0.5,2.3,0.8,3.5c0,0,0,0.1,0,0.1c0,0.1,0,0.3-0.1,0.3c-0.1,0.1-0.2,0-0.4,0
				c-0.1-0.1-0.1-0.1-0.2-0.2c-0.9-0.8-1.9-1.6-2.8-2.3c-0.1,0-0.1-0.1-0.2-0.2c-0.1,0.1,0,0.2,0,0.3c0.2,0.9,0.4,1.8,0.6,2.6
				c0.1,0.3,0,0.5-0.1,0.5c-0.2,0-0.3-0.1-0.3-0.4c-0.2-0.9-0.4-1.7-0.6-2.6c-0.1-0.3-0.1-0.6-0.2-0.9c0-0.2-0.1-0.4,0.1-0.5
				c0.2-0.1,0.3,0,0.5,0.1c1,0.8,1.9,1.6,2.9,2.4C287,347.8,287,347.8,287.2,347.9z"/><path class="st5" d="M293.5,344.6c0.5-0.1,0.9-0.3,1.4-0.4c0.1,0,0.1,0,0.2,0c0.2-0.1,0.4,0,0.4,0.2c0,0.2-0.1,0.3-0.2,0.3
				c-0.4,0.1-0.9,0.3-1.3,0.4c-0.3,0.1-0.3,0.1-0.2,0.4c0.1,0.3,0.2,0.6,0.3,1c0,0.2,0.1,0.2,0.3,0.1c0.5-0.2,1-0.3,1.5-0.4
				c0.1,0,0.2-0.1,0.3-0.1c0.1,0,0.3,0,0.3,0.2c0,0.1,0,0.2-0.2,0.3c-0.1,0-0.1,0-0.2,0.1c-0.6,0.2-1.3,0.4-1.9,0.6
				c-0.3,0.1-0.4,0.1-0.5-0.3c-0.4-1.2-0.7-2.4-1.1-3.5c-0.1-0.3-0.1-0.4,0.3-0.5c0.6-0.2,1.3-0.4,1.9-0.6c0,0,0.1,0,0.1,0
				c0.2,0,0.3,0,0.4,0.2c0,0.2-0.1,0.3-0.2,0.3c-0.1,0-0.2,0.1-0.3,0.1c-0.5,0.1-1,0.3-1.4,0.4c-0.1,0-0.2,0.1-0.2,0.3
				C293.2,343.8,293.3,344.2,293.5,344.6z"/><path class="st5" d="M289.5,346.2c0.1,0.5,0.2,0.9,0.4,1.3c0,0.2,0.1,0.2,0.2,0.1c0.5-0.1,1-0.3,1.5-0.4c0.1,0,0.2-0.1,0.3-0.1
				c0.1,0,0.2,0.1,0.2,0.2c0,0.1,0,0.2-0.1,0.3c-0.1,0-0.1,0.1-0.2,0.1c-0.6,0.2-1.3,0.3-1.9,0.5c-0.4,0.1-0.4,0.1-0.5-0.3
				c-0.3-1.2-0.6-2.4-1-3.6c-0.1-0.3,0-0.4,0.3-0.5c0.7-0.2,1.4-0.4,2-0.5c0,0,0.1,0,0.1,0c0.1,0,0.2,0,0.3,0.2c0,0.1,0,0.2-0.2,0.3
				c-0.1,0-0.2,0.1-0.4,0.1c-0.5,0.1-0.9,0.3-1.4,0.4c-0.2,0-0.2,0.1-0.2,0.3c0.1,0.4,0.2,0.8,0.3,1.2c0.5-0.1,1-0.3,1.5-0.4
				c0.1,0,0.1,0,0.2-0.1c0.1,0,0.2,0.1,0.3,0.2c0,0.1,0,0.2-0.2,0.3c-0.2,0.1-0.4,0.1-0.6,0.2C290.3,346.1,289.9,346.1,289.5,346.2z
				"/><path class="st5" d="M275,350.9c0-0.2,0.1-0.4,0.1-0.6c0.3-1.1,0.5-2.2,0.8-3.4c0-0.2,0-0.4,0.3-0.4c0.2,0,0.3,0.2,0.4,0.3
				c0.7,1.1,1.4,2.2,2,3.3c0,0.1,0.1,0.1,0.1,0.2c0.1,0.1,0.1,0.3-0.1,0.3c-0.1,0.1-0.3,0.1-0.4-0.1c-0.2-0.2-0.3-0.5-0.4-0.7
				c-0.2-0.3-0.2-0.3-0.5-0.2c-0.5,0.1-1,0.2-1.5,0.2c-0.2,0-0.2,0.1-0.3,0.2c0,0.2-0.1,0.4-0.1,0.7c0,0.1,0,0.2-0.1,0.3
				c0,0.1-0.1,0.2-0.3,0.2C275.1,351.3,275,351.1,275,350.9z M275.9,349.4c0.6-0.1,1-0.2,1.6-0.3c-0.4-0.6-0.7-1.2-1.1-1.8
				C276.2,348.1,276,348.7,275.9,349.4z"/><path class="st5" d="M281,349.3c0.2-1.1,0.4-2.2,0.6-3.2c0-0.1,0-0.2,0.1-0.3c0.1-0.2,0.2-0.3,0.3-0.2c0.2,0,0.2,0.1,0.2,0.3
				c-0.1,0.4-0.1,0.7-0.2,1.1c-0.2,1-0.4,1.9-0.6,2.9c0,0.1,0,0.1,0,0.2c0,0.1-0.1,0.3-0.2,0.3c-0.2,0-0.2-0.1-0.3-0.2
				c-0.5-0.7-0.9-1.4-1.4-2.1c-0.3-0.4-0.5-0.8-0.8-1.2c-0.1-0.1-0.1-0.2-0.1-0.3c0-0.1,0-0.2,0.1-0.3c0.1-0.1,0.2-0.1,0.3,0
				c0.1,0.1,0.2,0.2,0.2,0.3c0.6,0.9,1.2,1.7,1.7,2.6C280.9,349.2,280.9,349.2,281,349.3z"/><path class="st5" d="M298.1,341.6c0.2,0.5,0.4,1.1,0.5,1.6c0.2,0.6,0.4,1.2,0.6,1.8c0,0.1,0.1,0.2,0.1,0.3c0,0.1-0.1,0.2-0.2,0.3
				c-0.1,0-0.3,0-0.3-0.1c0-0.1-0.1-0.2-0.1-0.3c-0.3-1-0.7-2-1-3c-0.1-0.2-0.1-0.2-0.3-0.2c-0.2,0.1-0.5,0.2-0.7,0.2
				c-0.1,0-0.2,0.1-0.3,0.1c-0.1,0-0.2-0.1-0.2-0.2c0-0.1,0-0.2,0.1-0.3c0.1-0.1,0.2-0.1,0.2-0.1c0.8-0.3,1.7-0.6,2.5-0.9
				c0.3-0.1,0.4-0.1,0.5,0.1c0.1,0.2,0,0.3-0.3,0.4C298.7,341.4,298.4,341.5,298.1,341.6z"/><path class="st5" d="M264.6,349.7c0.2-0.3,0.4-0.6,0.6-0.9c0.2-0.3,0.3-0.6,0.5-0.9c0.1-0.1,0.2-0.2,0.3-0.1
				c0.1,0.1,0.2,0.2,0.1,0.4c0,0.1-0.1,0.2-0.1,0.2c-0.3,0.5-0.6,1.1-1,1.6c-0.1,0.2-0.2,0.4-0.1,0.6c0,0.5,0.1,0.9,0.1,1.4
				c0,0.1,0,0.2,0,0.2c0,0.1-0.1,0.2-0.2,0.2c-0.1,0-0.2-0.1-0.3-0.2c0-0.1,0-0.2,0-0.3c0-0.4-0.1-0.9-0.1-1.3
				c0-0.2-0.1-0.4-0.3-0.6c-0.4-0.4-0.8-0.9-1.2-1.4c-0.1-0.1-0.1-0.2-0.2-0.3c-0.1-0.1,0-0.2,0.1-0.3c0.1-0.1,0.2-0.1,0.3,0
				c0.1,0.1,0.1,0.1,0.2,0.2C263.8,348.8,264.2,349.2,264.6,349.7z"/><path class="st6" d="M275.5,304.7c0.1-0.4,0.2-0.8,0.3-1.1c0.1-0.4,0.4-0.7,0.8-0.9c0.3-0.2,0.6-0.2,0.9,0c0.4,0.3,0.7,0.7,1,1.1
				c0.7,1,1.1,2.2,1.6,3.3c0.5,1.2,1,2.4,1.4,3.7c0.7,2.1,1.4,4.2,2,6.4c0.5,1.8,1,3.7,1.5,5.5c0.5,1.8,0.7,3.6,0.6,5.5
				c-0.2,2.4-1.4,4.2-3.6,5.2c-1,0.4-2,0.6-3.1,0.6c-0.8,0-1.6-0.2-2.3-0.6c-0.6-0.3-1-0.8-1.1-1.5c-0.1-0.7,0.2-1.6,1-1.9
				c0.4-0.1,0.9-0.2,1.3-0.1c0.5,0.1,1,0.1,1.4,0c0.8-0.2,1.5-0.6,1.9-1.4c0.3-0.5,0.4-1,0.4-1.6c0.1-1-0.2-2-0.4-3
				c-0.5-1.9-0.9-3.8-1.5-5.7c-0.1-0.3-0.2-0.7-0.3-1c-0.1,0-0.1,0-0.1,0.1c-0.4,0.8-1,1.3-1.8,1.7c-0.8,0.3-1.6,0.6-2.4,0.5
				c-1.1,0-2-0.4-2.8-1.1c-1-0.8-1.7-1.9-2.2-3.1c-0.5-1.1-0.7-2.3-0.9-3.4c-0.1-0.5-0.1-0.9-0.1-1.4c0-1.6,0.1-3.3,1-4.8
				c0.6-1,1.4-1.8,2.5-2.1c0.9-0.3,1.8-0.1,2.5,0.5C275.1,304.2,275.2,304.5,275.5,304.7z M277.4,312.4c0-0.3,0-0.6-0.1-0.9
				c-0.2-1-0.8-1.8-1.5-2.6c-0.3-0.3-0.6-0.6-1-0.7c-0.4-0.2-0.7-0.1-1,0.1c-0.3,0.2-0.6,0.5-0.7,0.8c-0.3,0.8-0.4,1.6-0.3,2.4
				c0.1,1,0.5,1.9,1,2.7c0.3,0.4,0.6,0.8,1.1,1.1c0.3,0.2,0.6,0.2,1,0.1c0.5-0.2,0.9-0.6,1.1-1C277.2,313.7,277.4,313.1,277.4,312.4
				z"/><path class="st7" d="M215.6,311.5c0.4-0.4,0.8-0.7,1.3-0.9c1.1-0.6,2.3-0.8,3.6-0.6c0.7,0.1,1.3,0.5,1.8,1.1
				c0.6,0.8,1,1.7,1.2,2.6c0.5,2.6,0.3,5.2-0.7,7.7c-0.4,1.1-1.1,2.1-2,2.8c-0.6,0.5-1.3,0.7-2.1,0.8c-0.6,0-1.1,0-1.7-0.2
				c-0.6-0.2-1.1-0.4-1.5-1c0,0.2,0,0.4-0.1,0.6c-0.1,1.4-0.1,2.8-0.2,4.1c-0.1,1.6-0.1,3.1-0.2,4.7c-0.1,1.4-0.1,2.9-0.3,4.3
				c-0.1,0.9-0.3,1.7-0.8,2.4c-0.3,0.4-0.8,0.7-1.3,0.7c-0.5,0-0.8-0.2-1.1-0.6c-0.2-0.4-0.4-0.9-0.5-1.4c-0.2-1.2-0.2-2.4-0.2-3.6
				c0-1.8,0-3.6,0.1-5.3c0-1.3,0-2.6,0.1-3.9c0.1-1.7,0.2-3.3,0.3-5c0-0.6,0.1-1.2,0.1-1.8c0.1-1.4,0.1-2.9,0.3-4.3
				c0.1-1.2,0.3-2.4,0.7-3.5c0.1-0.4,0.3-0.8,0.6-1.2c0.1-0.2,0.2-0.3,0.4-0.4c0.4-0.3,1-0.3,1.4,0c0.4,0.3,0.6,0.8,0.7,1.2
				C215.4,311.1,215.4,311.3,215.6,311.5z M219.9,316.5c0-0.5,0-1-0.2-1.4c-0.3-0.6-0.7-0.9-1.3-0.9c-0.9,0-1.6,0.4-2.3,1
				c-0.2,0.2-0.3,0.4-0.3,0.7c-0.1,0.9-0.1,1.8-0.1,2.7c0,0.3,0.1,0.6,0.4,0.9c0.4,0.3,0.9,0.6,1.4,0.7c0.6,0.1,1.1,0,1.5-0.5
				c0.2-0.3,0.4-0.7,0.5-1C219.7,318,219.9,317.3,219.9,316.5z"/><path class="st8" d="M184.5,323.6c-2.6-0.1-5.2-0.4-7.7-1.2c-0.9-0.3-1.6-0.7-2.1-1.4c-0.5-0.7-0.7-1.5-0.8-2.4
				c-0.1-1.1,0-2.2,0.2-3.4c0.4-2.5,0.9-5,1.6-7.4c0.8-3.3,1.8-6.5,3.1-9.6c0.4-1,0.9-2,1.5-3c0.3-0.5,0.7-1.1,1.1-1.5
				c0.2-0.2,0.5-0.5,0.8-0.6c0.1-0.1,0.3-0.1,0.4-0.2c0.6-0.1,1,0,1.2,0.7c0.1,0.3,0.2,0.6,0.2,0.9c0,1,0,2.1-0.2,3.1
				c-0.5,3.5-1.4,6.9-2.3,10.3c-0.7,2.6-1.4,5.2-2,7.8c-0.1,0.5-0.2,1.1-0.3,1.6c0,0.1,0,0.1,0,0.2c0,0.2,0,0.3,0.2,0.3
				c0.1,0,0.3,0,0.4,0c2.3,0.1,4.6,0.3,6.8,0.7c0.9,0.2,1.8,0.4,2.6,0.7c0.3,0.1,0.7,0.3,1,0.5c0.6,0.5,0.8,1,0.5,1.7
				c-0.2,0.5-0.6,0.9-1.1,1.2c-0.7,0.4-1.4,0.6-2.2,0.8C186.4,323.6,185.4,323.6,184.5,323.6z"/><path class="st7" d="M230.2,325.3c-0.1,0.5-0.2,0.9-0.5,1.2c-0.3,0.4-0.7,0.6-1.2,0.6c-0.4,0-0.7-0.1-0.9-0.4
				c-0.3-0.4-0.4-0.8-0.6-1.2c-0.3-0.9-0.4-1.8-0.5-2.8c-0.2-2-0.3-4-0.3-6c0-1.3-0.2-2.5-0.2-3.8c0-0.8,0-1.6,0-2.4
				c0-0.8,0.1-1.6,0.3-2.5c0.1-0.4,0.3-0.9,0.5-1.2c0.6-0.9,1.6-1,2.3-0.1c0.4,0.4,0.6,1,0.8,1.5c0.4,1.1,0.5,2.3,0.6,3.4
				c0.1,0.9,0,1.9,0.2,2.9c0.1-0.1,0.1-0.2,0.2-0.2c0.7-1.1,1.7-1.9,2.9-2.3c1.5-0.5,2.8,0,3.8,1.2c0.6,0.8,0.9,1.6,1.1,2.6
				c0.3,1.4,0.3,2.7,0.2,4.1c-0.1,1.3-0.4,2.5-0.8,3.6c-0.3,0.8-0.7,1.5-1.3,2.2c-1.5,1.7-3.9,1.7-5.4,0.5
				C230.8,325.9,230.5,325.6,230.2,325.3z M234.8,318.8c0-0.2,0-0.4,0-0.6c0-0.4-0.1-0.9-0.4-1.2c-0.3-0.4-0.6-0.6-1.1-0.6
				c-0.4,0-0.7,0.2-1,0.4c-0.7,0.4-1.2,1-1.6,1.6c-0.1,0.1-0.1,0.2-0.1,0.3c0,0.7-0.1,1.3-0.1,2c0,0.1,0,0.2,0.1,0.3
				c0.5,0.6,1.1,1,1.9,1.1c0.8,0.1,1.3-0.2,1.7-0.9c0.1-0.2,0.2-0.5,0.3-0.7C234.8,320,234.8,319.4,234.8,318.8z"/><path class="st8" d="M264.2,321.3c-0.3,0.8-0.7,1.5-1.3,2c-1,1-2.8,1.4-4.3,0.3c-0.4-0.3-0.7-0.6-1-0.9c-0.8-0.8-1.4-1.8-1.9-2.8
				c-0.6-1.3-0.9-2.6-1-4c-0.1-1.3,0-2.5,0.2-3.8c0.1-0.4,0.3-0.8,0.5-1.2c0.9-1.7,2.6-2.3,4.4-1.6c0.5,0.2,1,0.5,1.4,0.9
				c0.1-0.1,0-0.2,0-0.3c-0.2-1.1-0.3-2.2-0.5-3.2c-0.1-0.8-0.2-1.6-0.3-2.3c0-0.4,0-0.9,0.1-1.3c0.2-0.9,0.6-1.2,1.6-1.3
				c0.6-0.1,1.1,0.2,1.5,0.6c0.4,0.4,0.6,0.9,0.7,1.4c0.3,1.2,0.6,2.4,0.7,3.6c0.3,2.2,0.6,4.4,1.1,6.5c0.3,1.5,0.8,2.9,1.1,4.4
				c0.1,0.7,0.3,1.4,0.4,2.1c0,0.4,0,0.8,0,1.2c-0.2,1.1-1.3,1.6-2.3,1c-0.4-0.2-0.7-0.5-0.9-0.9
				C264.3,321.5,264.3,321.4,264.2,321.3z M259.8,313.4c-0.6,0-1,0.3-1.2,0.8c-0.1,0.3-0.2,0.6-0.1,1c0.1,1.4,0.5,2.7,1.1,3.9
				c0.1,0.2,0.3,0.4,0.4,0.6c0.2,0.3,0.5,0.3,0.9,0.2c0.2-0.1,0.5-0.2,0.7-0.4c0.5-0.4,0.8-0.9,1.1-1.4c0.1-0.2,0.1-0.3,0.1-0.5
				c-0.2-0.7-0.3-1.4-0.5-2.2c0-0.1,0-0.1-0.1-0.2c-0.5-0.6-1-1.3-1.7-1.6C260.3,313.5,260,313.4,259.8,313.4z"/><path class="st9" d="M204,323.5c-0.1,0-0.2,0.1-0.3,0.2c-0.9,0.6-2,0.9-3,1c-1.3,0.1-2.4-0.3-3.2-1.3c-0.7-0.8-1.1-1.7-1.2-2.8
				c0-1.1,0.4-2.1,1.3-2.8c0.8-0.7,1.8-1.2,2.8-1.6c1.2-0.4,2.4-0.7,3.7-0.7c0.2,0,0.3-0.1,0.3-0.3c0-0.3,0.1-0.6,0-0.9
				c-0.1-0.7-0.6-1.2-1.4-1.3c-0.5-0.1-1.1,0-1.6,0.2c-0.5,0.2-0.9,0.4-1.4,0.6c-0.4,0.2-0.8,0.3-1.2,0.3c-0.8,0-1.5-0.7-1.3-1.6
				c0.2-1,0.7-1.6,1.5-2.1c0.9-0.6,1.9-0.9,3-1.1c1.3-0.2,2.6,0.1,3.7,0.8c1,0.6,1.7,1.4,2,2.5c0.3,1,0.5,1.9,0.7,3
				c0.1,1.2,0.2,2.3,0.1,3.5c-0.1,1.5-0.1,2.9-0.4,4.4c-0.2,0.8-0.4,1.5-0.9,2.2c-0.3,0.3-0.6,0.5-1.1,0.5c-1.2,0-2-0.8-2-2
				C204,323.7,204,323.6,204,323.5z M204.2,319.1c0-0.2,0-0.3,0-0.5c0-0.3,0-0.4-0.3-0.3c-1.1,0-2,0.4-2.8,1.2
				c-0.2,0.2-0.3,0.3-0.3,0.6c-0.1,0.4,0,0.5,0.4,0.7c0.3,0.1,0.6,0.2,0.9,0.1c0.7-0.1,1.3-0.3,1.9-0.6c0.1,0,0.2-0.1,0.2-0.2
				C204.1,319.7,204.1,319.4,204.2,319.1z"/><path class="st9" d="M184.5,308.3c0-1.6,0.4-3.4,1.3-5.1c0.5-0.9,1.1-1.6,1.9-2.2c0.7-0.5,1.4-0.8,2.3-0.9c1-0.1,2,0,2.9,0.5
				c1.2,0.6,1.9,1.6,2.2,2.9c0.2,1.3,0,2.4-0.6,3.5c-1.1,2-2.9,3.1-5.1,3.4c-0.3,0.1-0.3,0.1-0.2,0.4c0.2,0.5,0.6,0.8,1.1,1
				c0.6,0.2,1.2,0.1,1.7-0.2c0.4-0.2,0.7-0.4,1-0.7c0.4-0.3,0.8-0.6,1.2-0.8c0.6-0.3,1.1-0.3,1.7,0.1c0.3,0.2,0.4,0.5,0.5,0.9
				c0,0.6-0.1,1.2-0.4,1.7c-1,1.7-2.5,2.9-4.4,3.4c-1.4,0.4-2.7,0-3.8-0.8c-1.1-0.8-1.9-1.9-2.5-3.2
				C184.7,311.1,184.5,309.9,184.5,308.3z M188.9,306.8c0.3,0,0.6-0.1,0.9-0.1c0.6-0.1,1.2-0.3,1.7-0.7c0.5-0.4,0.7-0.9,0.4-1.6
				c-0.1-0.4-0.3-0.5-0.7-0.5c-0.4,0-0.8,0.1-1.1,0.4c-0.7,0.6-1,1.4-1.2,2.3C188.9,306.7,188.9,306.7,188.9,306.8z"/><path class="st6" d="M282.1,301.9c0-1.5,0.3-2.8,0.9-4.1c0.8-1.4,2-2.3,3.6-2.5c1.3-0.2,2.5,0.1,3.6,0.9c0.7,0.6,1.1,1.4,1.4,2.2
				c0.4,1.6,0.2,3.1-0.7,4.5c-0.7,1.2-1.7,2.2-3.1,2.8c-0.3,0.1-0.3,0.1-0.1,0.4c0.4,0.6,1,0.7,1.6,0.6c0.6-0.1,1.1-0.4,1.5-0.9
				c0.4-0.5,0.8-1.1,1.2-1.6c0.4-0.5,0.8-0.7,1.5-0.7c0.6,0,1,0.3,1.1,0.9c0.2,0.6,0.2,1.2,0.1,1.8c-0.3,1.1-0.8,2.1-1.5,3
				c-0.4,0.5-0.9,1-1.5,1.3c-1,0.6-2.1,0.9-3.3,0.6c-1.2-0.2-2.3-0.8-3.2-1.6c-1.7-1.6-2.7-3.5-3-5.8
				C282.1,303.2,282.1,302.5,282.1,301.9z M285.9,301.3c0,0.4,0.1,0.8,0.2,1.2c0,0.2,0.1,0.2,0.3,0.1c0.3-0.2,0.7-0.4,1-0.7
				c0.3-0.3,0.6-0.6,0.9-1c0.4-0.7,0.1-1.2-0.3-1.6c-0.2-0.2-0.5-0.3-0.8-0.2c-0.4,0.2-0.7,0.4-0.9,0.7
				C286,300.2,286,300.8,285.9,301.3z"/><path class="st10" d="M245.3,312.8c0.1-0.1,0.1-0.2,0.2-0.3c0.2-0.3,0.4-0.7,0.7-1c0.7-0.9,1.6-1.3,2.7-1.4
				c0.6-0.1,1.2,0,1.8,0.2c1,0.4,1.7,1.1,1.8,2.1c0.1,0.7-0.1,1.3-0.7,1.7c-0.5,0.3-1.1,0.5-1.7,0.3c-0.2-0.1-0.5-0.1-0.7-0.2
				c-0.7-0.2-1.3,0-1.8,0.4c-0.5,0.4-0.8,1-1.1,1.6c-0.3,0.9-0.3,1.8-0.3,2.7c0.1,1.4,0.3,2.8,0.3,4.3c0,0.5-0.1,1-0.3,1.4
				c-0.1,0.3-0.3,0.6-0.5,0.8c-0.5,0.5-1.4,0.6-1.9,0.1c-0.3-0.2-0.5-0.5-0.7-0.9c-0.4-0.8-0.6-1.6-0.8-2.5
				c-0.2-1.1-0.4-2.3-0.5-3.5c-0.1-0.9-0.3-1.7-0.4-2.6c-0.2-1.1-0.3-2.2-0.3-3.2c0-0.6,0.2-1.2,0.5-1.7c0.3-0.5,0.8-0.8,1.4-0.8
				c0.4,0,0.7,0.1,1,0.4c0.4,0.4,0.6,0.8,0.8,1.3C245.1,312.2,245.2,312.5,245.3,312.8z"/><path class="st10" d="M249.1,321.2c0-0.8,0-1.5,0.2-2.2c0.1-0.4,0.2-0.8,0.5-1.1c0.3-0.4,0.7-0.7,1.2-0.7
				c0.5-0.1,0.9,0.2,1.2,0.6c0.4,0.5,0.6,1,0.8,1.6c0.4,1,0.6,2,0.7,3c0.2,1.5,0.5,3,0.7,4.6c0.1,1,0.2,2,0.1,3
				c-0.1,0.6-0.2,1.2-0.5,1.8c-0.3,0.4-0.6,0.7-1.1,0.8c-0.3,0.1-0.6,0-0.9-0.3c-0.3-0.3-0.6-0.7-0.8-1c-0.5-0.9-0.7-1.9-1-2.9
				c-0.4-1.7-0.7-3.5-0.9-5.3C249.1,322.3,249.1,321.7,249.1,321.2z"/><path class="st11" d="M250.9,305.1c0,0.8-0.2,1.4-0.5,2c-0.7,1.2-1.8,1.1-2.6,0.6c-0.3-0.2-0.5-0.4-0.6-0.6
				c-0.8-1.2-1-2.5-0.4-3.8c0.3-0.6,0.7-1.1,1.5-1.2c0.6,0,1.2,0.1,1.6,0.6c0.5,0.5,0.8,1.1,0.9,1.9
				C250.9,304.7,250.9,304.9,250.9,305.1z"/><path class="st12" d="M277.4,312.4c0,0.7-0.1,1.3-0.4,1.9c-0.3,0.5-0.7,0.8-1.1,1c-0.3,0.1-0.7,0.1-1-0.1
				c-0.4-0.3-0.8-0.7-1.1-1.1c-0.5-0.8-0.9-1.7-1-2.7c-0.1-0.8,0-1.6,0.3-2.4c0.1-0.3,0.4-0.6,0.7-0.8c0.3-0.2,0.7-0.2,1-0.1
				c0.4,0.2,0.7,0.4,1,0.7c0.7,0.8,1.3,1.6,1.5,2.6C277.3,311.8,277.4,312.1,277.4,312.4z"/><path class="st13" d="M219.9,316.5c0,0.8-0.1,1.5-0.4,2.3c-0.1,0.4-0.3,0.7-0.5,1c-0.4,0.5-0.9,0.6-1.5,0.5
				c-0.5-0.1-1-0.4-1.4-0.7c-0.3-0.2-0.4-0.5-0.4-0.9c0-0.9-0.1-1.8,0.1-2.7c0-0.3,0.1-0.5,0.3-0.7c0.6-0.6,1.4-1,2.3-1
				c0.6,0,1,0.3,1.3,0.9C219.8,315.6,219.9,316,219.9,316.5z"/><path class="st13" d="M234.8,318.8c0,0.6,0,1.2-0.2,1.7c-0.1,0.3-0.2,0.5-0.3,0.7c-0.4,0.7-1,0.9-1.7,0.9
				c-0.8-0.1-1.4-0.5-1.9-1.1c-0.1-0.1-0.1-0.2-0.1-0.3c0-0.7,0.1-1.3,0.1-2c0-0.1,0-0.2,0.1-0.3c0.5-0.6,1-1.2,1.6-1.6
				c0.3-0.2,0.7-0.3,1-0.4c0.5,0,0.8,0.2,1.1,0.6c0.2,0.4,0.3,0.8,0.4,1.2C234.8,318.4,234.8,318.6,234.8,318.8z"/><path class="st14" d="M259.8,313.4c0.2,0,0.5,0.1,0.8,0.2c0.7,0.4,1.2,1,1.7,1.6c0,0,0,0.1,0.1,0.2c0.2,0.7,0.3,1.4,0.5,2.2
				c0,0.2,0,0.4-0.1,0.5c-0.3,0.5-0.6,1-1.1,1.4c-0.2,0.2-0.4,0.3-0.7,0.4c-0.4,0.1-0.6,0-0.9-0.2c-0.2-0.2-0.3-0.4-0.4-0.6
				c-0.7-1.2-1.1-2.5-1.1-3.9c0-0.3,0-0.6,0.1-1C258.8,313.6,259.1,313.4,259.8,313.4z"/><path class="st14" d="M204.2,319.1c0,0.3,0,0.6-0.1,0.9c0,0.1-0.1,0.2-0.2,0.2c-0.6,0.2-1.2,0.5-1.9,0.6c-0.3,0-0.6,0-0.9-0.1
				c-0.3-0.1-0.4-0.3-0.4-0.7c0-0.2,0.1-0.4,0.3-0.6c0.8-0.8,1.7-1.2,2.8-1.2c0.3,0,0.3,0,0.3,0.3
				C204.2,318.8,204.2,319,204.2,319.1z"/><path class="st14" d="M188.9,306.8c-0.1-0.1-0.1-0.1-0.1-0.2c0.2-0.9,0.5-1.7,1.2-2.3c0.3-0.3,0.7-0.4,1.1-0.4
				c0.4,0,0.6,0.1,0.7,0.5c0.2,0.6,0.1,1.1-0.4,1.6c-0.5,0.4-1.1,0.5-1.7,0.7C189.5,306.7,189.2,306.7,188.9,306.8z"/><path class="st12" d="M285.9,301.3c0-0.5,0.1-1,0.4-1.5c0.2-0.4,0.5-0.6,0.9-0.7c0.3-0.1,0.5-0.1,0.8,0.2c0.4,0.4,0.7,1,0.3,1.6
				c-0.2,0.4-0.5,0.7-0.9,1c-0.3,0.3-0.7,0.5-1,0.7c-0.2,0.1-0.2,0.1-0.3-0.1C286,302.1,286,301.7,285.9,301.3z"/></g></g></g></svg>