<?xml version="1.0" encoding="UTF-8" standalone="no"?><!--Generator: Adobe Illustrator 26.0.2, SVG Export Plug-In . SVG Version: 6.00 Build 0)--><svg version="1.1" id="Layer_1" x="0px" y="0px" viewBox="0 0 400 400" style="enable-background:new 0 0 400 400" xml:space="preserve" sodipodi:docname="shape-01.svg" inkscape:version="1.1.2 (b8e25be833, 2022-02-05)" xmlns:inkscape="http://www.inkscape.org/namespaces/inkscape" xmlns:sodipodi="http://sodipodi.sourceforge.net/DTD/sodipodi-0.dtd" xmlns="http://www.w3.org/2000/svg" xmlns:svg="http://www.w3.org/2000/svg"><defs id="defs77"/><sodipodi:namedview id="namedview75" pagecolor="#ffffff" bordercolor="#666666" borderopacity="1.0" inkscape:pageshadow="2" inkscape:pageopacity="0.0" inkscape:pagecheckerboard="0" showgrid="false" inkscape:zoom="1.81" inkscape:cx="199.72376" inkscape:cy="199.72376" inkscape:window-width="1920" inkscape:window-height="1013" inkscape:window-x="-9" inkscape:window-y="-9" inkscape:window-maximized="1" inkscape:current-layer="Layer_1"/><style type="text/css" id="style2">.st0{display:none;fill:none;stroke:#EE5B95;stroke-width:3;stroke-miterlimit:10;}
	.st1{display:none;fill:#EDD55D;}
	.st2{fill:none;stroke:#0099FF;stroke-width:3;stroke-miterlimit:10;}
	.st3{fill:#EE3C96;}
	.st4{fill:#333132;}
	.st5{fill:#2D292A;}
	.st6{fill:#CD243D;}
	.st7{fill:#00ACE7;}
	.st8{fill:#FEC100;}
	.st9{fill:#F66D37;}
	.st10{fill:#ED5B94;}
	.st11{fill:#EC5B94;}
	.st12{fill:#333031;}
	.st13{fill:#323132;}
	.st14{fill:#343131;}</style><path class="st0" d="M42.3,82.5L10.1,251.3c-1.9,9.8,1.6,19.9,9.2,26.4l129.2,111.5c8.1,7,19.4,9.1,29.5,5.6l161.2-56.1  c9.5-3.3,16.4-11.4,18.3-21.2l32.2-168.8c1.9-9.8-1.6-19.9-9.2-26.4L250.3,10c-7.6-6.5-18.1-8.5-27.5-5.2L60.6,61.3  C51.1,64.6,44.2,72.7,42.3,82.5z" id="path4"/><path class="st1" d="M381.4,59.5C258,57,152.2,50.3,22,42.2C11.1,41.6,0.2,58.3,5.4,67.9c49.1,90.6,115.7,219.4,164.8,319.9  c4.8,9.8,24.6,10.6,30.5,1.5c64.7-100.6,132.6-209,194.6-302.7C401.4,77.5,392.3,59.7,381.4,59.5z" id="path6"/><path class="st2" d="M373.8,117.7C255.9,86.5,155.8,55.2,32.6,17C22.3,13.8,7.9,27.4,10.7,37.8c25.9,98.5,59.8,237.9,83.4,345.9  c2.3,10.5,21.2,16,29,8.5c85.7-81.5,176.3-169.7,257.8-245.1C388.8,139.8,384.2,120.5,373.8,117.7z" id="path8"/><g id="g12" transform="rotate(-9.1207503,323.60521,247.45235)"><path class="st3" d="m 378,299.5 c 28.8,-44.1 18.1,-98.9 4.1,-133 C 365,125.1 332.6,84.6 286.6,57.2 252.9,37.1 191.7,0.6 138.3,28.2 14.2,92.4 -33.1,242.1 35.2,277.4 c 35.6,18.4 99.9,-56.4 104.2,28.9 3.8,78.9 179.8,83.4 238.6,-6.8 z" id="path10"/></g><g id="Layer_2_00000159445127318784663650000007840393920876408216_" transform="translate(-8.4972376,18.209945)"><g id="Layer_4_00000060006460836004305930000000631969708242434746_"><g id="g70"><path class="st4" d="m 184.2,287.8 c 0.8,0.1 1.6,0.3 2.3,0.7 1.5,0.8 2.3,2 2.8,3.5 0.3,1 0.4,2.1 0.4,3.1 0,0.1 0,0.2 0,0.3 0,0.1 0,0.1 0.1,0.1 0.1,0 0.2,0 0.3,0 4.6,-0.3 8.5,2.6 9.5,6.7 0.2,0.7 0.3,1.4 0.3,2.1 0,0.1 0,0.3 0,0.5 1.7,-0.5 3.4,-0.6 5.2,-0.2 1.7,0.4 3.2,1.1 4.5,2.3 0.1,0 0.2,-0.1 0.3,-0.2 0.7,-0.7 1.5,-1.2 2.4,-1.6 1.5,-0.5 3,-0.3 4.5,0.4 0.2,0.1 0.4,0.1 0.6,0.1 1.6,-0.4 3.2,-0.4 4.8,0 0.3,0.1 0.3,0.1 0.4,-0.2 0.5,-1.2 1.3,-2.2 2.4,-2.9 2.4,-1.6 5.5,-1.2 7.5,0.8 0.9,1 1.5,2.1 2,3.4 0,0 0,0 0,0.1 0.1,0.4 0,0.3 0.4,0.3 0.7,0 1.4,0.1 2.1,0.2 0.6,0.2 1.1,0.4 1.7,0.7 0.2,0.1 0.3,0.1 0.4,-0.1 0.8,-0.9 1.8,-1.4 3,-1.7 0.3,-0.1 0.3,-0.1 0.3,-0.4 -0.3,-2.6 0.3,-4.9 2.2,-6.8 1.4,-1.4 3.1,-1.9 5,-1.7 3.3,0.4 5.4,2.8 6,5.4 0.1,0.6 0.2,1.1 0.3,1.7 0,0.1 0,0.1 0,0.2 0.3,-0.1 0.3,-0.1 0.3,-0.4 -0.1,-1.3 0.1,-2.6 0.6,-3.8 0.9,-2 2.6,-3.2 4.8,-3.5 2.8,-0.4 4.9,0.7 6.5,3 0,0.1 0.1,0.1 0.2,0.2 0.1,0 0.2,-0.1 0.2,-0.2 1.6,-1.3 3.4,-1.9 5.4,-1.9 0.2,0 0.3,0 0.5,-0.1 1.2,-0.8 2.6,-1.1 4,-0.8 0.3,0.1 0.3,0.1 0.4,-0.2 0.6,-1.4 1.3,-2.6 2.4,-3.7 1.6,-1.5 3.4,-2.3 5.5,-2.7 2.4,-0.4 4.7,0.1 6.7,1.4 2.2,1.4 3.4,3.4 3.9,5.9 0.1,0.5 0.2,1 0.2,1.5 0,0.2 0.1,0.2 0.2,0.3 1.8,1.1 2.8,2.7 3,4.7 0.2,1.4 0,2.7 -0.6,4 -1.1,2.7 -2.9,4.8 -5.4,6.2 -1.8,1 -3.8,1.3 -5.9,1 -0.1,0 -0.2,-0.1 -0.4,0 0,0.3 0.1,0.5 0.2,0.8 0.5,1.8 1,3.5 1.4,5.3 0.4,1.7 0.6,3.5 0.5,5.2 -0.1,2 -0.5,3.8 -1.5,5.5 -1.6,2.8 -4.1,4.4 -7.2,5 -1.7,0.4 -3.5,0.3 -5.2,-0.1 -1.5,-0.4 -2.9,-1.2 -3.9,-2.4 -1,-1.3 -1.6,-2.7 -1.5,-4.3 0.1,-3 2.1,-5.3 5.1,-5.9 0.2,0 0.4,-0.1 0.6,-0.1 0.1,0 0.2,-0.1 0.1,-0.2 -0.1,-0.3 -0.1,-0.6 -0.2,-0.9 0,-0.2 -0.1,-0.2 -0.3,-0.2 -1.3,0.2 -2.6,0.1 -3.9,-0.3 -0.2,-0.1 -0.3,0 -0.3,0.2 -0.3,1 -0.8,1.9 -1.6,2.6 -1.2,1.1 -2.6,1.6 -4.3,1.6 -0.5,0 -1,0.1 -1.5,0.4 -1.6,1 -3.4,1.3 -5.2,1.1 -0.1,0 -0.2,0 -0.3,0 0,0.5 0,0.9 -0.1,1.4 -0.1,1.1 -0.3,2.3 -0.8,3.3 -0.9,1.9 -2.4,3.1 -4.5,3.5 -2,0.4 -3.7,-0.2 -5.1,-1.5 -1.1,-1 -1.7,-2.3 -2.2,-3.7 -0.1,-0.3 -0.2,-0.5 -0.3,-0.8 -0.1,-0.3 -0.1,-0.3 -0.4,-0.2 -1.4,0.2 -2.8,0 -4,-0.8 -0.5,-0.3 -0.9,-0.6 -1.3,-1 -0.1,-0.1 -0.2,-0.2 -0.4,-0.3 -0.2,0.2 -0.4,0.4 -0.6,0.6 -1.9,1.8 -4.2,2.5 -6.8,2.3 -0.5,0 -0.9,-0.1 -1.4,-0.3 -0.1,0 -0.3,0 -0.4,0 -1,0.4 -2,0.5 -3.1,0.5 -0.2,0 -0.5,-0.1 -0.7,-0.2 -1.6,-0.4 -2.8,-1.4 -3.7,-2.9 -0.1,-0.2 -0.2,-0.3 -0.3,-0.5 -0.1,0 -0.2,0 -0.2,0.1 -0.9,0.5 -1.8,0.9 -2.8,1.1 -0.3,0.1 -0.3,0.1 -0.3,0.4 -0.1,2.2 -0.2,4.3 -0.3,6.5 -0.1,1.3 -0.2,2.6 -0.6,3.9 -0.4,1.3 -1,2.4 -2,3.3 -1.8,1.8 -4.8,2.3 -7,1.1 -1.4,-0.7 -2.3,-1.9 -2.8,-3.3 -0.4,-0.9 -0.6,-1.9 -0.7,-2.8 -0.2,-1.9 -0.1,-3.8 -0.1,-5.7 0,-0.7 0,-1.5 0,-2.2 0,-0.2 -0.1,-0.2 -0.3,-0.2 -1.4,0 -2.7,-0.4 -3.9,-1.2 -0.1,-0.1 -0.3,-0.1 -0.4,-0.1 -1.5,0.2 -3.1,0.1 -4.5,-0.5 -1.6,-0.6 -2.8,-1.7 -3.8,-3.1 -0.1,-0.1 -0.1,-0.2 -0.2,-0.3 0,0 0,0 0,0 0,0 -0.1,0 -0.1,0.1 -1.4,1.3 -3,2.1 -4.8,2.5 -1.8,0.4 -3.5,0.4 -5.3,0.3 -2.5,-0.2 -5,-0.7 -7.4,-1.5 -1.2,-0.4 -2.3,-0.9 -3.2,-1.7 -1.4,-1.2 -2.2,-2.7 -2.6,-4.5 -0.1,-0.4 -0.1,-0.9 -0.2,-1.3 0,-0.1 0,-0.2 -0.1,-0.3 0,-0.5 0,-1.1 0,-1.6 0.1,-0.3 0.1,-0.5 0.1,-0.8 0,-0.6 0.1,-1.2 0.2,-1.7 0.3,-1.4 0.5,-2.7 0.8,-4.1 0.6,-3.3 1.4,-6.5 2.3,-9.7 0.7,-2.3 1.5,-4.6 2.6,-6.7 0.7,-1.5 1.6,-2.9 2.8,-4.1 1.3,-1.3 2.7,-2.2 4.6,-2.4 0.3,0.1 0.7,0.1 1.1,0.1 z m 91.5,16.9 c -0.2,-0.2 -0.3,-0.4 -0.5,-0.6 -0.8,-0.6 -1.6,-0.8 -2.5,-0.5 -1.2,0.3 -1.9,1.1 -2.5,2.1 -0.8,1.5 -1,3.1 -1,4.8 0,0.5 0,0.9 0.1,1.4 0.1,1.2 0.4,2.3 0.9,3.4 0.5,1.2 1.2,2.3 2.2,3.1 0.8,0.7 1.7,1.1 2.8,1.1 0.9,0 1.7,-0.2 2.4,-0.5 0.8,-0.4 1.5,-0.9 1.8,-1.7 0,-0.1 0.1,-0.1 0.1,-0.1 0.1,0.3 0.2,0.7 0.3,1 0.5,1.9 1,3.8 1.5,5.7 0.2,1 0.5,1.9 0.4,3 0,0.6 -0.2,1.1 -0.4,1.6 -0.4,0.8 -1.1,1.2 -1.9,1.4 -0.5,0.1 -0.9,0 -1.4,0 -0.4,-0.1 -0.9,0 -1.3,0.1 -0.9,0.3 -1.2,1.2 -1,1.9 0.1,0.7 0.5,1.1 1.1,1.5 0.7,0.4 1.5,0.5 2.3,0.6 1.1,0 2.1,-0.1 3.1,-0.6 2.3,-1 3.4,-2.8 3.6,-5.2 0.2,-1.8 -0.1,-3.7 -0.6,-5.5 -0.5,-1.8 -1,-3.7 -1.5,-5.5 -0.6,-2.2 -1.3,-4.3 -2,-6.4 -0.4,-1.2 -0.9,-2.5 -1.4,-3.7 -0.5,-1.1 -0.9,-2.3 -1.6,-3.3 -0.3,-0.4 -0.5,-0.8 -1,-1.1 -0.3,-0.2 -0.6,-0.2 -0.9,0 -0.4,0.2 -0.6,0.5 -0.8,0.9 -0.1,0.3 -0.2,0.6 -0.3,1.1 z m -59.9,6.8 c -0.1,-0.2 -0.1,-0.4 -0.2,-0.6 -0.2,-0.5 -0.3,-0.9 -0.7,-1.2 -0.4,-0.4 -1,-0.4 -1.4,0 -0.2,0.1 -0.3,0.3 -0.4,0.4 -0.3,0.4 -0.4,0.8 -0.6,1.2 -0.4,1.1 -0.6,2.3 -0.7,3.5 -0.1,1.4 -0.2,2.8 -0.3,4.3 0,0.6 0,1.2 -0.1,1.8 -0.1,1.7 -0.2,3.3 -0.3,5 0,1.3 0,2.6 -0.1,3.9 -0.1,1.8 -0.1,3.6 -0.1,5.3 0,1.2 0,2.4 0.2,3.6 0.1,0.5 0.2,1 0.5,1.4 0.2,0.4 0.6,0.6 1.1,0.6 0.6,0 1,-0.3 1.3,-0.7 0.5,-0.7 0.7,-1.6 0.8,-2.4 0.2,-1.4 0.2,-2.9 0.3,-4.3 0.1,-1.6 0.2,-3.1 0.2,-4.7 0.1,-1.4 0.1,-2.8 0.2,-4.1 0,-0.2 0,-0.4 0.1,-0.6 0.4,0.6 0.9,0.8 1.5,1 0.5,0.2 1.1,0.2 1.7,0.2 0.8,0 1.5,-0.3 2.1,-0.8 0.9,-0.7 1.6,-1.7 2,-2.8 1,-2.5 1.2,-5 0.7,-7.7 -0.2,-1 -0.6,-1.9 -1.2,-2.6 -0.5,-0.6 -1.1,-1 -1.8,-1.1 -1.3,-0.2 -2.5,0 -3.6,0.6 -0.4,0.1 -0.8,0.4 -1.2,0.8 z m -31,12.1 c 0.9,0 1.9,-0.1 2.8,-0.2 0.8,-0.1 1.5,-0.3 2.2,-0.8 0.5,-0.3 0.8,-0.7 1.1,-1.2 0.3,-0.7 0.1,-1.3 -0.5,-1.7 -0.3,-0.2 -0.6,-0.4 -1,-0.5 -0.8,-0.3 -1.7,-0.6 -2.6,-0.7 -2.3,-0.4 -4.5,-0.6 -6.8,-0.7 -0.1,0 -0.3,0 -0.4,0 -0.2,0 -0.2,-0.1 -0.2,-0.3 0,-0.1 0,-0.1 0,-0.2 0.1,-0.5 0.2,-1.1 0.3,-1.6 0.6,-2.6 1.4,-5.2 2,-7.8 0.9,-3.4 1.8,-6.8 2.3,-10.3 0.2,-1 0.2,-2 0.2,-3.1 0,-0.3 -0.1,-0.6 -0.2,-0.9 -0.2,-0.7 -0.6,-0.8 -1.2,-0.7 -0.1,0 -0.3,0.1 -0.4,0.2 -0.3,0.2 -0.6,0.4 -0.8,0.6 -0.4,0.5 -0.8,1 -1.1,1.5 -0.6,0.9 -1,1.9 -1.5,3 -1.3,3.1 -2.2,6.3 -3.1,9.6 -0.6,2.4 -1.1,4.9 -1.6,7.4 -0.2,1.1 -0.3,2.2 -0.2,3.4 0.1,0.9 0.3,1.7 0.8,2.4 0.5,0.8 1.3,1.2 2.1,1.4 2.5,0.9 5.1,1.2 7.8,1.2 z m 45.6,1.7 c 0.3,0.3 0.6,0.6 0.9,0.8 1.6,1.2 3.9,1.2 5.4,-0.5 0.6,-0.6 1,-1.4 1.3,-2.2 0.5,-1.2 0.7,-2.4 0.8,-3.6 0.1,-1.4 0.1,-2.7 -0.2,-4.1 -0.2,-0.9 -0.5,-1.8 -1.1,-2.6 -1,-1.3 -2.3,-1.7 -3.8,-1.2 -1.2,0.4 -2.2,1.2 -2.9,2.3 0,0.1 -0.1,0.2 -0.2,0.2 -0.1,-1 -0.1,-1.9 -0.2,-2.9 -0.1,-1.2 -0.3,-2.3 -0.6,-3.4 -0.2,-0.6 -0.4,-1.1 -0.8,-1.5 -0.7,-0.8 -1.7,-0.8 -2.3,0.1 -0.2,0.4 -0.4,0.8 -0.5,1.2 -0.2,0.8 -0.3,1.6 -0.3,2.5 0,0.8 0,1.6 0,2.4 0,1.3 0.2,2.5 0.2,3.8 0.1,2 0.1,4 0.3,6 0.1,0.9 0.2,1.9 0.5,2.8 0.1,0.4 0.3,0.8 0.6,1.2 0.2,0.3 0.5,0.5 0.9,0.4 0.5,0 0.9,-0.3 1.2,-0.6 0.6,-0.2 0.7,-0.6 0.8,-1.1 z m 34,-4 c 0.1,0.1 0.1,0.2 0.2,0.3 0.2,0.4 0.5,0.7 0.9,0.9 1,0.6 2.1,0.1 2.3,-1 0.1,-0.4 0.1,-0.8 0,-1.2 -0.1,-0.7 -0.2,-1.4 -0.4,-2.1 -0.3,-1.5 -0.7,-2.9 -1.1,-4.4 -0.5,-2.2 -0.8,-4.4 -1.1,-6.5 -0.2,-1.2 -0.4,-2.4 -0.7,-3.6 -0.2,-0.5 -0.4,-1 -0.7,-1.4 -0.4,-0.4 -0.9,-0.7 -1.5,-0.6 -0.9,0.1 -1.4,0.4 -1.6,1.3 -0.1,0.4 -0.1,0.8 -0.1,1.3 0.1,0.8 0.2,1.6 0.3,2.3 0.2,1.1 0.3,2.2 0.5,3.2 0,0.1 0.1,0.2 0,0.3 -0.4,-0.4 -0.9,-0.7 -1.4,-0.9 -1.7,-0.7 -3.5,-0.1 -4.4,1.6 -0.2,0.4 -0.4,0.8 -0.5,1.2 -0.3,1.3 -0.3,2.5 -0.2,3.8 0.1,1.4 0.4,2.7 1,4 0.5,1 1.1,2 1.9,2.8 0.3,0.3 0.7,0.6 1,0.9 1.5,1.1 3.2,0.7 4.3,-0.3 0.6,-0.5 1,-1.1 1.3,-1.9 z m -60.2,2.2 c 0,0.1 0,0.2 0,0.3 0,1.2 0.8,2 2,2 0.4,0 0.8,-0.2 1.1,-0.5 0.5,-0.6 0.8,-1.4 0.9,-2.2 0.3,-1.4 0.4,-2.9 0.4,-4.4 0.1,-1.2 0,-2.4 -0.1,-3.5 -0.1,-1 -0.3,-2 -0.7,-3 -0.4,-1.1 -1.1,-1.9 -2,-2.5 -1.1,-0.7 -2.4,-1 -3.7,-0.8 -1.1,0.1 -2.1,0.5 -3,1.1 -0.7,0.5 -1.3,1.2 -1.5,2.1 -0.2,0.9 0.6,1.6 1.3,1.6 0.4,0 0.8,-0.1 1.2,-0.3 0.5,-0.2 0.9,-0.4 1.4,-0.6 0.5,-0.2 1,-0.3 1.6,-0.2 0.7,0.1 1.2,0.6 1.4,1.3 0.1,0.3 0,0.6 0,0.9 0,0.2 -0.1,0.3 -0.3,0.3 -1.3,0.1 -2.5,0.3 -3.7,0.7 -1,0.4 -2,0.9 -2.8,1.6 -0.8,0.7 -1.3,1.7 -1.3,2.8 0,1.1 0.5,2 1.2,2.8 0.8,1 1.9,1.4 3.2,1.3 1.1,-0.1 2.1,-0.4 3,-1 0.2,0.3 0.3,0.2 0.4,0.2 z m -19.5,-15.2 c 0,1.6 0.2,2.8 0.7,4 0.5,1.3 1.3,2.4 2.5,3.2 1.2,0.8 2.5,1.2 3.8,0.8 1.9,-0.5 3.4,-1.6 4.4,-3.4 0.3,-0.5 0.4,-1.1 0.4,-1.7 0,-0.4 -0.2,-0.6 -0.5,-0.9 -0.5,-0.4 -1.1,-0.4 -1.7,-0.1 -0.4,0.2 -0.8,0.5 -1.2,0.8 -0.3,0.2 -0.7,0.5 -1,0.7 -0.5,0.3 -1.1,0.4 -1.7,0.2 -0.5,-0.1 -0.9,-0.4 -1.1,-1 -0.1,-0.3 -0.1,-0.3 0.2,-0.4 2.2,-0.4 3.9,-1.5 5.1,-3.4 0.6,-1.1 0.9,-2.3 0.6,-3.5 -0.2,-1.3 -1,-2.3 -2.2,-2.9 -0.9,-0.5 -1.9,-0.6 -2.9,-0.5 -0.8,0.1 -1.6,0.3 -2.3,0.9 -0.8,0.6 -1.4,1.4 -1.9,2.2 -0.8,1.6 -1.1,3.4 -1.2,5 z m 97.6,-6.4 c 0,0.6 0.1,1.2 0.1,1.9 0.3,2.3 1.3,4.2 3,5.8 0.9,0.8 2,1.4 3.2,1.6 1.2,0.2 2.3,0 3.3,-0.6 0.6,-0.4 1,-0.8 1.5,-1.3 0.7,-0.9 1.3,-1.9 1.5,-3 0.1,-0.6 0.1,-1.2 -0.1,-1.8 -0.2,-0.6 -0.6,-0.8 -1.1,-0.9 -0.6,0 -1.1,0.2 -1.5,0.7 -0.4,0.5 -0.8,1.1 -1.2,1.6 -0.4,0.5 -0.9,0.8 -1.5,0.9 -0.6,0.1 -1.2,0 -1.6,-0.6 -0.2,-0.2 -0.2,-0.2 0.1,-0.4 1.3,-0.6 2.3,-1.6 3.1,-2.8 0.8,-1.4 1.1,-2.9 0.7,-4.5 -0.2,-0.9 -0.7,-1.6 -1.4,-2.2 -1.1,-0.9 -2.3,-1.1 -3.6,-0.9 -1.6,0.2 -2.8,1.1 -3.6,2.5 -0.6,1.2 -0.9,2.6 -0.9,4 z m -36.7,10.9 c -0.1,-0.3 -0.2,-0.6 -0.3,-0.9 -0.2,-0.5 -0.4,-0.9 -0.8,-1.3 -0.3,-0.3 -0.6,-0.4 -1,-0.4 -0.6,0.1 -1.1,0.3 -1.4,0.8 -0.3,0.5 -0.5,1.1 -0.5,1.7 0,1.1 0.1,2.2 0.3,3.2 0.1,0.9 0.3,1.7 0.4,2.6 0.1,1.2 0.2,2.3 0.5,3.5 0.2,0.9 0.4,1.7 0.8,2.5 0.2,0.3 0.4,0.6 0.7,0.9 0.6,0.5 1.4,0.4 1.9,-0.1 0.2,-0.2 0.4,-0.5 0.5,-0.8 0.2,-0.5 0.3,-0.9 0.3,-1.4 0.1,-1.4 -0.2,-2.8 -0.3,-4.3 -0.1,-0.9 -0.1,-1.8 0.3,-2.7 0.2,-0.6 0.6,-1.2 1.1,-1.6 0.5,-0.4 1.1,-0.6 1.8,-0.4 0.2,0.1 0.5,0.1 0.7,0.2 0.6,0.2 1.2,0 1.7,-0.3 0.6,-0.4 0.9,-1 0.7,-1.7 -0.2,-1.1 -0.8,-1.8 -1.8,-2.1 -0.6,-0.2 -1.2,-0.3 -1.8,-0.2 -1.1,0.1 -2.1,0.5 -2.7,1.4 -0.2,0.3 -0.5,0.7 -0.7,1 -0.3,0.2 -0.3,0.3 -0.4,0.4 z m 3.7,8.4 c 0,0.5 0,1.1 0.1,1.8 0.2,1.8 0.5,3.5 0.9,5.3 0.2,1 0.5,2 1,2.9 0.2,0.4 0.4,0.8 0.8,1 0.3,0.2 0.6,0.3 0.9,0.3 0.5,-0.1 0.9,-0.4 1.1,-0.8 0.3,-0.6 0.5,-1.2 0.5,-1.8 0.1,-1 0,-2 -0.1,-3 -0.2,-1.5 -0.4,-3 -0.7,-4.6 -0.2,-1 -0.4,-2 -0.7,-3 -0.2,-0.6 -0.5,-1.1 -0.8,-1.6 -0.3,-0.4 -0.7,-0.6 -1.2,-0.6 -0.5,0.1 -0.9,0.3 -1.2,0.7 -0.2,0.4 -0.4,0.7 -0.5,1.1 0,0.8 -0.1,1.5 -0.1,2.3 z m 1.9,-16.1 c 0,-0.1 0,-0.4 -0.1,-0.6 -0.1,-0.7 -0.4,-1.4 -0.9,-1.9 -0.5,-0.4 -1,-0.6 -1.6,-0.6 -0.8,0.1 -1.2,0.6 -1.5,1.2 -0.6,1.3 -0.3,2.6 0.4,3.8 0.2,0.3 0.4,0.5 0.6,0.6 0.8,0.5 1.9,0.6 2.6,-0.6 0.3,-0.5 0.4,-1.1 0.5,-1.9 z" id="path14"/><path class="st5" d="m 261.6,350.2 c 0.1,0 0.1,0.1 0.1,0.1 0.6,0.2 0.8,0.8 0.7,1.3 -0.1,0.5 -0.4,0.9 -1.1,1 -0.6,0.1 -1.3,0.1 -1.9,0.1 -0.3,0 -0.3,-0.1 -0.3,-0.4 -0.1,-1 -0.1,-2 -0.1,-3 0,-0.2 0,-0.5 0,-0.7 0,-0.3 0.1,-0.3 0.3,-0.4 0.5,0 1.1,-0.1 1.6,-0.1 0.6,0 1,0.2 1.2,0.6 0.1,0.6 0,1.1 -0.5,1.5 z m -1.1,0.4 c 0,0 0,0 0,0 -0.2,0 -0.4,0 -0.6,0.1 -0.3,0 -0.3,0 -0.3,0.3 0,0.2 0,0.5 0,0.7 0,0.6 0,0.6 0.6,0.5 0.3,0 0.7,0 1,-0.1 0.4,-0.1 0.6,-0.4 0.6,-0.9 0,-0.4 -0.3,-0.6 -0.7,-0.7 -0.2,0.1 -0.4,0.1 -0.6,0.1 z m -0.1,-1.9 c 0,0 0,0.1 0,0 -0.2,0 -0.5,0 -0.7,0 -0.1,0 -0.2,0.1 -0.2,0.2 0,0.3 0,0.7 0.1,1 0,0.1 0.1,0.2 0.2,0.1 0.4,0 0.9,0 1.3,-0.1 0.4,0 0.5,-0.4 0.5,-0.7 0,-0.4 -0.2,-0.6 -0.6,-0.6 -0.3,0.1 -0.4,0.1 -0.6,0.1 z" id="path16"/><path class="st5" d="m 273.4,350.5 c -0.1,-0.8 -0.2,-1.6 -0.3,-2.4 0,-0.2 -0.1,-0.4 -0.1,-0.6 0,-0.2 0.1,-0.4 0.2,-0.4 0.2,0 0.2,0.1 0.3,0.3 0.1,1 0.3,2 0.4,3.1 0,0.2 0.1,0.4 0.1,0.6 0,0.2 0.1,0.4 -0.1,0.5 -0.2,0.1 -0.3,-0.1 -0.4,-0.2 -0.5,-0.5 -1,-1 -1.5,-1.5 -0.4,-0.4 -0.8,-0.8 -1.2,-1.2 0,-0.1 -0.1,-0.1 -0.2,-0.1 0,0.2 0,0.4 0,0.5 0.1,0.8 0.2,1.6 0.3,2.5 0,0 0,0.1 0,0.1 0,0.2 -0.1,0.3 -0.2,0.3 -0.2,0 -0.2,-0.1 -0.3,-0.2 0,-0.1 0,-0.3 -0.1,-0.4 -0.1,-1.1 -0.3,-2.3 -0.4,-3.4 0,-0.1 0,-0.1 0,-0.2 0,-0.2 0.2,-0.4 0.4,-0.2 0.1,0 0.1,0.1 0.2,0.2 0.8,0.8 1.6,1.6 2.4,2.4 0.1,0 0.3,0.2 0.5,0.3 -0.1,0 0,0 0,0 z" id="path18"/><path class="st5" d="m 287.4,347.9 c -0.1,-0.5 -0.2,-1 -0.3,-1.5 -0.1,-0.5 -0.2,-0.9 -0.3,-1.4 0,-0.1 0,-0.1 0,-0.2 0,-0.1 0,-0.3 0.2,-0.3 0.1,0 0.2,0 0.3,0.2 0,0.1 0,0.1 0.1,0.2 0.3,1.2 0.5,2.3 0.8,3.5 0,0 0,0.1 0,0.1 0,0.1 0,0.3 -0.1,0.3 -0.1,0.1 -0.2,0 -0.4,0 -0.1,-0.1 -0.1,-0.1 -0.2,-0.2 -0.9,-0.8 -1.9,-1.6 -2.8,-2.3 -0.1,0 -0.1,-0.1 -0.2,-0.2 -0.1,0.1 0,0.2 0,0.3 0.2,0.9 0.4,1.8 0.6,2.6 0.1,0.3 0,0.5 -0.1,0.5 -0.2,0 -0.3,-0.1 -0.3,-0.4 -0.2,-0.9 -0.4,-1.7 -0.6,-2.6 -0.1,-0.3 -0.1,-0.6 -0.2,-0.9 0,-0.2 -0.1,-0.4 0.1,-0.5 0.2,-0.1 0.3,0 0.5,0.1 1,0.8 1.9,1.6 2.9,2.4 -0.2,0.2 -0.1,0.2 0,0.3 z" id="path20"/><path class="st5" d="m 293.7,344.6 c 0.5,-0.1 0.9,-0.3 1.4,-0.4 0.1,0 0.1,0 0.2,0 0.2,-0.1 0.4,0 0.4,0.2 0,0.2 -0.1,0.3 -0.2,0.3 -0.4,0.1 -0.9,0.3 -1.3,0.4 -0.3,0.1 -0.3,0.1 -0.2,0.4 0.1,0.3 0.2,0.6 0.3,1 0,0.2 0.1,0.2 0.3,0.1 0.5,-0.2 1,-0.3 1.5,-0.4 0.1,0 0.2,-0.1 0.3,-0.1 0.1,0 0.3,0 0.3,0.2 0,0.1 0,0.2 -0.2,0.3 -0.1,0 -0.1,0 -0.2,0.1 -0.6,0.2 -1.3,0.4 -1.9,0.6 -0.3,0.1 -0.4,0.1 -0.5,-0.3 -0.4,-1.2 -0.7,-2.4 -1.1,-3.5 -0.1,-0.3 -0.1,-0.4 0.3,-0.5 0.6,-0.2 1.3,-0.4 1.9,-0.6 0,0 0.1,0 0.1,0 0.2,0 0.3,0 0.4,0.2 0,0.2 -0.1,0.3 -0.2,0.3 -0.1,0 -0.2,0.1 -0.3,0.1 -0.5,0.1 -1,0.3 -1.4,0.4 -0.1,0 -0.2,0.1 -0.2,0.3 0.1,0.1 0.2,0.5 0.3,0.9 z" id="path22"/><path class="st5" d="m 289.8,346.2 c 0.1,0.5 0.2,0.9 0.4,1.3 0,0.2 0.1,0.2 0.2,0.1 0.5,-0.1 1,-0.3 1.5,-0.4 0.1,0 0.2,-0.1 0.3,-0.1 0.1,0 0.2,0.1 0.2,0.2 0,0.1 0,0.2 -0.1,0.3 -0.1,0 -0.1,0.1 -0.2,0.1 -0.6,0.2 -1.3,0.3 -1.9,0.5 -0.4,0.1 -0.4,0.1 -0.5,-0.3 -0.3,-1.2 -0.6,-2.4 -1,-3.6 -0.1,-0.3 0,-0.4 0.3,-0.5 0.7,-0.2 1.4,-0.4 2,-0.5 0,0 0.1,0 0.1,0 0.1,0 0.2,0 0.3,0.2 0,0.1 0,0.2 -0.2,0.3 -0.1,0 -0.2,0.1 -0.4,0.1 -0.5,0.1 -0.9,0.3 -1.4,0.4 -0.2,0 -0.2,0.1 -0.2,0.3 0.1,0.4 0.2,0.8 0.3,1.2 0.5,-0.1 1,-0.3 1.5,-0.4 0.1,0 0.1,0 0.2,-0.1 0.1,0 0.2,0.1 0.3,0.2 0,0.1 0,0.2 -0.2,0.3 -0.2,0.1 -0.4,0.1 -0.6,0.2 -0.2,0.1 -0.5,0.1 -0.9,0.2 z" id="path24"/><path class="st5" d="m 275.3,350.9 c 0,-0.2 0.1,-0.4 0.1,-0.6 0.3,-1.1 0.5,-2.2 0.8,-3.4 0,-0.2 0,-0.4 0.3,-0.4 0.2,0 0.3,0.2 0.4,0.3 0.7,1.1 1.4,2.2 2,3.3 0,0.1 0.1,0.1 0.1,0.2 0.1,0.1 0.1,0.3 -0.1,0.3 -0.1,0.1 -0.3,0.1 -0.4,-0.1 -0.2,-0.2 -0.3,-0.5 -0.4,-0.7 -0.2,-0.3 -0.2,-0.3 -0.5,-0.2 -0.5,0.1 -1,0.2 -1.5,0.2 -0.2,0 -0.2,0.1 -0.3,0.2 0,0.2 -0.1,0.4 -0.1,0.7 0,0.1 0,0.2 -0.1,0.3 0,0.1 -0.1,0.2 -0.3,0.2 0,0.1 0,-0.1 0,-0.3 z m 0.8,-1.5 c 0.6,-0.1 1,-0.2 1.6,-0.3 -0.4,-0.6 -0.7,-1.2 -1.1,-1.8 -0.2,0.8 -0.3,1.4 -0.5,2.1 z" id="path26"/><path class="st5" d="m 281.3,349.3 c 0.2,-1.1 0.4,-2.2 0.6,-3.2 0,-0.1 0,-0.2 0.1,-0.3 0.1,-0.2 0.2,-0.3 0.3,-0.2 0.2,0 0.2,0.1 0.2,0.3 -0.1,0.4 -0.1,0.7 -0.2,1.1 -0.2,1 -0.4,1.9 -0.6,2.9 0,0.1 0,0.1 0,0.2 0,0.1 -0.1,0.3 -0.2,0.3 -0.2,0 -0.2,-0.1 -0.3,-0.2 -0.5,-0.7 -0.9,-1.4 -1.4,-2.1 -0.3,-0.4 -0.5,-0.8 -0.8,-1.2 -0.1,-0.1 -0.1,-0.2 -0.1,-0.3 0,-0.1 0,-0.2 0.1,-0.3 0.1,-0.1 0.2,-0.1 0.3,0 0.1,0.1 0.2,0.2 0.2,0.3 0.6,0.9 1.2,1.7 1.7,2.6 -0.1,0 -0.1,0 0.1,0.1 z" id="path28"/><path class="st5" d="m 298.3,341.6 c 0.2,0.5 0.4,1.1 0.5,1.6 0.2,0.6 0.4,1.2 0.6,1.8 0,0.1 0.1,0.2 0.1,0.3 0,0.1 -0.1,0.2 -0.2,0.3 -0.1,0 -0.3,0 -0.3,-0.1 0,-0.1 -0.1,-0.2 -0.1,-0.3 -0.3,-1 -0.7,-2 -1,-3 -0.1,-0.2 -0.1,-0.2 -0.3,-0.2 -0.2,0.1 -0.5,0.2 -0.7,0.2 -0.1,0 -0.2,0.1 -0.3,0.1 -0.1,0 -0.2,-0.1 -0.2,-0.2 0,-0.1 0,-0.2 0.1,-0.3 0.1,-0.1 0.2,-0.1 0.2,-0.1 0.8,-0.3 1.7,-0.6 2.5,-0.9 0.3,-0.1 0.4,-0.1 0.5,0.1 0.1,0.2 0,0.3 -0.3,0.4 -0.4,0.1 -0.7,0.2 -1.1,0.3 z" id="path30"/><path class="st5" d="m 264.9,349.7 c 0.2,-0.3 0.4,-0.6 0.6,-0.9 0.2,-0.3 0.3,-0.6 0.5,-0.9 0.1,-0.1 0.2,-0.2 0.3,-0.1 0.1,0.1 0.2,0.2 0.1,0.4 0,0.1 -0.1,0.2 -0.1,0.2 -0.3,0.5 -0.6,1.1 -1,1.6 -0.1,0.2 -0.2,0.4 -0.1,0.6 0,0.5 0.1,0.9 0.1,1.4 0,0.1 0,0.2 0,0.2 0,0.1 -0.1,0.2 -0.2,0.2 -0.1,0 -0.2,-0.1 -0.3,-0.2 0,-0.1 0,-0.2 0,-0.3 0,-0.4 -0.1,-0.9 -0.1,-1.3 0,-0.2 -0.1,-0.4 -0.3,-0.6 -0.4,-0.4 -0.8,-0.9 -1.2,-1.4 -0.1,-0.1 -0.1,-0.2 -0.2,-0.3 -0.1,-0.1 0,-0.2 0.1,-0.3 0.1,-0.1 0.2,-0.1 0.3,0 0.1,0.1 0.1,0.1 0.2,0.2 0.5,0.6 0.9,1 1.3,1.5 z" id="path32"/><path class="st6" d="m 275.7,304.7 c 0.1,-0.4 0.2,-0.8 0.3,-1.1 0.1,-0.4 0.4,-0.7 0.8,-0.9 0.3,-0.2 0.6,-0.2 0.9,0 0.4,0.3 0.7,0.7 1,1.1 0.7,1 1.1,2.2 1.6,3.3 0.5,1.2 1,2.4 1.4,3.7 0.7,2.1 1.4,4.2 2,6.4 0.5,1.8 1,3.7 1.5,5.5 0.5,1.8 0.7,3.6 0.6,5.5 -0.2,2.4 -1.4,4.2 -3.6,5.2 -1,0.4 -2,0.6 -3.1,0.6 -0.8,0 -1.6,-0.2 -2.3,-0.6 -0.6,-0.3 -1,-0.8 -1.1,-1.5 -0.1,-0.7 0.2,-1.6 1,-1.9 0.4,-0.1 0.9,-0.2 1.3,-0.1 0.5,0.1 1,0.1 1.4,0 0.8,-0.2 1.5,-0.6 1.9,-1.4 0.3,-0.5 0.4,-1 0.4,-1.6 0.1,-1 -0.2,-2 -0.4,-3 -0.5,-1.9 -0.9,-3.8 -1.5,-5.7 -0.1,-0.3 -0.2,-0.7 -0.3,-1 -0.1,0 -0.1,0 -0.1,0.1 -0.4,0.8 -1,1.3 -1.8,1.7 -0.8,0.3 -1.6,0.6 -2.4,0.5 -1.1,0 -2,-0.4 -2.8,-1.1 -1,-0.8 -1.7,-1.9 -2.2,-3.1 -0.5,-1.1 -0.7,-2.3 -0.9,-3.4 -0.1,-0.5 -0.1,-0.9 -0.1,-1.4 0,-1.6 0.1,-3.3 1,-4.8 0.6,-1 1.4,-1.8 2.5,-2.1 0.9,-0.3 1.8,-0.1 2.5,0.5 0.2,0.1 0.3,0.4 0.5,0.6 z m 1.9,7.7 c 0,-0.3 0,-0.6 -0.1,-0.9 -0.2,-1 -0.8,-1.8 -1.5,-2.6 -0.3,-0.3 -0.6,-0.6 -1,-0.7 -0.4,-0.2 -0.7,-0.1 -1,0.1 -0.3,0.2 -0.6,0.5 -0.7,0.8 -0.3,0.8 -0.4,1.6 -0.3,2.4 0.1,1 0.5,1.9 1,2.7 0.3,0.4 0.6,0.8 1.1,1.1 0.3,0.2 0.6,0.2 1,0.1 0.5,-0.2 0.9,-0.6 1.1,-1 0.3,-0.7 0.4,-1.3 0.4,-2 z" id="path34"/><path class="st7" d="m 215.8,311.5 c 0.4,-0.4 0.8,-0.7 1.3,-0.9 1.1,-0.6 2.3,-0.8 3.6,-0.6 0.7,0.1 1.3,0.5 1.8,1.1 0.6,0.8 1,1.7 1.2,2.6 0.5,2.6 0.3,5.2 -0.7,7.7 -0.4,1.1 -1.1,2.1 -2,2.8 -0.6,0.5 -1.3,0.7 -2.1,0.8 -0.6,0 -1.1,0 -1.7,-0.2 -0.6,-0.2 -1.1,-0.4 -1.5,-1 0,0.2 0,0.4 -0.1,0.6 -0.1,1.4 -0.1,2.8 -0.2,4.1 -0.1,1.6 -0.1,3.1 -0.2,4.7 -0.1,1.4 -0.1,2.9 -0.3,4.3 -0.1,0.9 -0.3,1.7 -0.8,2.4 -0.3,0.4 -0.8,0.7 -1.3,0.7 -0.5,0 -0.8,-0.2 -1.1,-0.6 -0.2,-0.4 -0.4,-0.9 -0.5,-1.4 -0.2,-1.2 -0.2,-2.4 -0.2,-3.6 0,-1.8 0,-3.6 0.1,-5.3 0,-1.3 0,-2.6 0.1,-3.9 0.1,-1.7 0.2,-3.3 0.3,-5 0,-0.6 0.1,-1.2 0.1,-1.8 0.1,-1.4 0.1,-2.9 0.3,-4.3 0.1,-1.2 0.3,-2.4 0.7,-3.5 0.1,-0.4 0.3,-0.8 0.6,-1.2 0.1,-0.2 0.2,-0.3 0.4,-0.4 0.4,-0.3 1,-0.3 1.4,0 0.4,0.3 0.6,0.8 0.7,1.2 0,0.3 0,0.5 0.1,0.7 z m 4.3,5 c 0,-0.5 0,-1 -0.2,-1.4 -0.3,-0.6 -0.7,-0.9 -1.3,-0.9 -0.9,0 -1.6,0.4 -2.3,1 -0.2,0.2 -0.3,0.4 -0.3,0.7 -0.1,0.9 -0.1,1.8 -0.1,2.7 0,0.3 0.1,0.6 0.4,0.9 0.4,0.3 0.9,0.6 1.4,0.7 0.6,0.1 1.1,0 1.5,-0.5 0.2,-0.3 0.4,-0.7 0.5,-1 0.3,-0.7 0.4,-1.4 0.4,-2.2 z" id="path36"/><path class="st8" d="m 184.8,323.6 c -2.6,-0.1 -5.2,-0.4 -7.7,-1.2 -0.9,-0.3 -1.6,-0.7 -2.1,-1.4 -0.5,-0.7 -0.7,-1.5 -0.8,-2.4 -0.1,-1.1 0,-2.2 0.2,-3.4 0.4,-2.5 0.9,-5 1.6,-7.4 0.8,-3.3 1.8,-6.5 3.1,-9.6 0.4,-1 0.9,-2 1.5,-3 0.3,-0.5 0.7,-1.1 1.1,-1.5 0.2,-0.2 0.5,-0.5 0.8,-0.6 0.1,-0.1 0.3,-0.1 0.4,-0.2 0.6,-0.1 1,0 1.2,0.7 0.1,0.3 0.2,0.6 0.2,0.9 0,1 0,2.1 -0.2,3.1 -0.5,3.5 -1.4,6.9 -2.3,10.3 -0.7,2.6 -1.4,5.2 -2,7.8 -0.1,0.5 -0.2,1.1 -0.3,1.6 0,0.1 0,0.1 0,0.2 0,0.2 0,0.3 0.2,0.3 0.1,0 0.3,0 0.4,0 2.3,0.1 4.6,0.3 6.8,0.7 0.9,0.2 1.8,0.4 2.6,0.7 0.3,0.1 0.7,0.3 1,0.5 0.6,0.5 0.8,1 0.5,1.7 -0.2,0.5 -0.6,0.9 -1.1,1.2 -0.7,0.4 -1.4,0.6 -2.2,0.8 -1.1,0.2 -2,0.2 -2.9,0.2 z" id="path38"/><path class="st7" d="m 230.4,325.3 c -0.1,0.5 -0.2,0.9 -0.5,1.2 -0.3,0.4 -0.7,0.6 -1.2,0.6 -0.4,0 -0.7,-0.1 -0.9,-0.4 -0.3,-0.4 -0.4,-0.8 -0.6,-1.2 -0.3,-0.9 -0.4,-1.8 -0.5,-2.8 -0.2,-2 -0.3,-4 -0.3,-6 0,-1.3 -0.2,-2.5 -0.2,-3.8 0,-0.8 0,-1.6 0,-2.4 0,-0.8 0.1,-1.6 0.3,-2.5 0.1,-0.4 0.3,-0.9 0.5,-1.2 0.6,-0.9 1.6,-1 2.3,-0.1 0.4,0.4 0.6,1 0.8,1.5 0.4,1.1 0.5,2.3 0.6,3.4 0.1,0.9 0,1.9 0.2,2.9 0.1,-0.1 0.1,-0.2 0.2,-0.2 0.7,-1.1 1.7,-1.9 2.9,-2.3 1.5,-0.5 2.8,0 3.8,1.2 0.6,0.8 0.9,1.6 1.1,2.6 0.3,1.4 0.3,2.7 0.2,4.1 -0.1,1.3 -0.4,2.5 -0.8,3.6 -0.3,0.8 -0.7,1.5 -1.3,2.2 -1.5,1.7 -3.9,1.7 -5.4,0.5 -0.6,-0.3 -0.9,-0.6 -1.2,-0.9 z m 4.7,-6.5 c 0,-0.2 0,-0.4 0,-0.6 0,-0.4 -0.1,-0.9 -0.4,-1.2 -0.3,-0.4 -0.6,-0.6 -1.1,-0.6 -0.4,0 -0.7,0.2 -1,0.4 -0.7,0.4 -1.2,1 -1.6,1.6 -0.1,0.1 -0.1,0.2 -0.1,0.3 0,0.7 -0.1,1.3 -0.1,2 0,0.1 0,0.2 0.1,0.3 0.5,0.6 1.1,1 1.9,1.1 0.8,0.1 1.3,-0.2 1.7,-0.9 0.1,-0.2 0.2,-0.5 0.3,-0.7 0.2,-0.5 0.3,-1.1 0.3,-1.7 z" id="path40"/><path class="st8" d="m 264.4,321.3 c -0.3,0.8 -0.7,1.5 -1.3,2 -1,1 -2.8,1.4 -4.3,0.3 -0.4,-0.3 -0.7,-0.6 -1,-0.9 -0.8,-0.8 -1.4,-1.8 -1.9,-2.8 -0.6,-1.3 -0.9,-2.6 -1,-4 -0.1,-1.3 0,-2.5 0.2,-3.8 0.1,-0.4 0.3,-0.8 0.5,-1.2 0.9,-1.7 2.6,-2.3 4.4,-1.6 0.5,0.2 1,0.5 1.4,0.9 0.1,-0.1 0,-0.2 0,-0.3 -0.2,-1.1 -0.3,-2.2 -0.5,-3.2 -0.1,-0.8 -0.2,-1.6 -0.3,-2.3 0,-0.4 0,-0.9 0.1,-1.3 0.2,-0.9 0.6,-1.2 1.6,-1.3 0.6,-0.1 1.1,0.2 1.5,0.6 0.4,0.4 0.6,0.9 0.7,1.4 0.3,1.2 0.6,2.4 0.7,3.6 0.3,2.2 0.6,4.4 1.1,6.5 0.3,1.5 0.8,2.9 1.1,4.4 0.1,0.7 0.3,1.4 0.4,2.1 0,0.4 0,0.8 0,1.2 -0.2,1.1 -1.3,1.6 -2.3,1 -0.4,-0.2 -0.7,-0.5 -0.9,-0.9 0,-0.2 -0.1,-0.3 -0.2,-0.4 z m -4.4,-7.9 c -0.6,0 -1,0.3 -1.2,0.8 -0.1,0.3 -0.2,0.6 -0.1,1 0.1,1.4 0.5,2.7 1.1,3.9 0.1,0.2 0.3,0.4 0.4,0.6 0.2,0.3 0.5,0.3 0.9,0.2 0.2,-0.1 0.5,-0.2 0.7,-0.4 0.5,-0.4 0.8,-0.9 1.1,-1.4 0.1,-0.2 0.1,-0.3 0.1,-0.5 -0.2,-0.7 -0.3,-1.4 -0.5,-2.2 0,-0.1 0,-0.1 -0.1,-0.2 -0.5,-0.6 -1,-1.3 -1.7,-1.6 -0.2,-0.1 -0.5,-0.2 -0.7,-0.2 z" id="path42"/><path class="st9" d="m 204.2,323.5 c -0.1,0 -0.2,0.1 -0.3,0.2 -0.9,0.6 -2,0.9 -3,1 -1.3,0.1 -2.4,-0.3 -3.2,-1.3 -0.7,-0.8 -1.1,-1.7 -1.2,-2.8 0,-1.1 0.4,-2.1 1.3,-2.8 0.8,-0.7 1.8,-1.2 2.8,-1.6 1.2,-0.4 2.4,-0.7 3.7,-0.7 0.2,0 0.3,-0.1 0.3,-0.3 0,-0.3 0.1,-0.6 0,-0.9 -0.1,-0.7 -0.6,-1.2 -1.4,-1.3 -0.5,-0.1 -1.1,0 -1.6,0.2 -0.5,0.2 -0.9,0.4 -1.4,0.6 -0.4,0.2 -0.8,0.3 -1.2,0.3 -0.8,0 -1.5,-0.7 -1.3,-1.6 0.2,-1 0.7,-1.6 1.5,-2.1 0.9,-0.6 1.9,-0.9 3,-1.1 1.3,-0.2 2.6,0.1 3.7,0.8 1,0.6 1.7,1.4 2,2.5 0.3,1 0.5,1.9 0.7,3 0.1,1.2 0.2,2.3 0.1,3.5 -0.1,1.5 -0.1,2.9 -0.4,4.4 -0.2,0.8 -0.4,1.5 -0.9,2.2 -0.3,0.3 -0.6,0.5 -1.1,0.5 -1.2,0 -2,-0.8 -2,-2 0,-0.5 0,-0.6 -0.1,-0.7 z m 0.2,-4.4 c 0,-0.2 0,-0.3 0,-0.5 0,-0.3 0,-0.4 -0.3,-0.3 -1.1,0 -2,0.4 -2.8,1.2 -0.2,0.2 -0.3,0.3 -0.3,0.6 -0.1,0.4 0,0.5 0.4,0.7 0.3,0.1 0.6,0.2 0.9,0.1 0.7,-0.1 1.3,-0.3 1.9,-0.6 0.1,0 0.2,-0.1 0.2,-0.2 0,-0.4 0,-0.7 0,-1 z" id="path44"/><path class="st9" d="m 184.7,308.3 c 0,-1.6 0.4,-3.4 1.3,-5.1 0.5,-0.9 1.1,-1.6 1.9,-2.2 0.7,-0.5 1.4,-0.8 2.3,-0.9 1,-0.1 2,0 2.9,0.5 1.2,0.6 1.9,1.6 2.2,2.9 0.2,1.3 0,2.4 -0.6,3.5 -1.1,2 -2.9,3.1 -5.1,3.4 -0.3,0.1 -0.3,0.1 -0.2,0.4 0.2,0.5 0.6,0.8 1.1,1 0.6,0.2 1.2,0.1 1.7,-0.2 0.4,-0.2 0.7,-0.4 1,-0.7 0.4,-0.3 0.8,-0.6 1.2,-0.8 0.6,-0.3 1.1,-0.3 1.7,0.1 0.3,0.2 0.4,0.5 0.5,0.9 0,0.6 -0.1,1.2 -0.4,1.7 -1,1.7 -2.5,2.9 -4.4,3.4 -1.4,0.4 -2.7,0 -3.8,-0.8 -1.1,-0.8 -1.9,-1.9 -2.5,-3.2 -0.5,-1.1 -0.8,-2.3 -0.8,-3.9 z m 4.5,-1.5 c 0.3,0 0.6,-0.1 0.9,-0.1 0.6,-0.1 1.2,-0.3 1.7,-0.7 0.5,-0.4 0.7,-0.9 0.4,-1.6 -0.1,-0.4 -0.3,-0.5 -0.7,-0.5 -0.4,0 -0.8,0.1 -1.1,0.4 -0.7,0.6 -1,1.4 -1.2,2.3 -0.1,0.1 -0.1,0.1 0,0.2 z" id="path46"/><path class="st6" d="m 282.3,301.9 c 0,-1.5 0.3,-2.8 0.9,-4.1 0.8,-1.4 2,-2.3 3.6,-2.5 1.3,-0.2 2.5,0.1 3.6,0.9 0.7,0.6 1.1,1.4 1.4,2.2 0.4,1.6 0.2,3.1 -0.7,4.5 -0.7,1.2 -1.7,2.2 -3.1,2.8 -0.3,0.1 -0.3,0.1 -0.1,0.4 0.4,0.6 1,0.7 1.6,0.6 0.6,-0.1 1.1,-0.4 1.5,-0.9 0.4,-0.5 0.8,-1.1 1.2,-1.6 0.4,-0.5 0.8,-0.7 1.5,-0.7 0.6,0 1,0.3 1.1,0.9 0.2,0.6 0.2,1.2 0.1,1.8 -0.3,1.1 -0.8,2.1 -1.5,3 -0.4,0.5 -0.9,1 -1.5,1.3 -1,0.6 -2.1,0.9 -3.3,0.6 -1.2,-0.2 -2.3,-0.8 -3.2,-1.6 -1.7,-1.6 -2.7,-3.5 -3,-5.8 0,-0.5 -0.1,-1.2 -0.1,-1.8 z m 3.9,-0.6 c 0,0.4 0.1,0.8 0.2,1.2 0,0.2 0.1,0.2 0.3,0.1 0.3,-0.2 0.7,-0.4 1,-0.7 0.3,-0.3 0.6,-0.6 0.9,-1 0.4,-0.7 0.1,-1.2 -0.3,-1.6 -0.2,-0.2 -0.5,-0.3 -0.8,-0.2 -0.4,0.2 -0.7,0.4 -0.9,0.7 -0.3,0.4 -0.4,1 -0.4,1.5 z" id="path48"/><path class="st10" d="m 245.6,312.8 c 0.1,-0.1 0.1,-0.2 0.2,-0.3 0.2,-0.3 0.4,-0.7 0.7,-1 0.7,-0.9 1.6,-1.3 2.7,-1.4 0.6,-0.1 1.2,0 1.8,0.2 1,0.4 1.7,1.1 1.8,2.1 0.1,0.7 -0.1,1.3 -0.7,1.7 -0.5,0.3 -1.1,0.5 -1.7,0.3 -0.2,-0.1 -0.5,-0.1 -0.7,-0.2 -0.7,-0.2 -1.3,0 -1.8,0.4 -0.5,0.4 -0.8,1 -1.1,1.6 -0.3,0.9 -0.3,1.8 -0.3,2.7 0.1,1.4 0.3,2.8 0.3,4.3 0,0.5 -0.1,1 -0.3,1.4 -0.1,0.3 -0.3,0.6 -0.5,0.8 -0.5,0.5 -1.4,0.6 -1.9,0.1 -0.3,-0.2 -0.5,-0.5 -0.7,-0.9 -0.4,-0.8 -0.6,-1.6 -0.8,-2.5 -0.2,-1.1 -0.4,-2.3 -0.5,-3.5 -0.1,-0.9 -0.3,-1.7 -0.4,-2.6 -0.2,-1.1 -0.3,-2.2 -0.3,-3.2 0,-0.6 0.2,-1.2 0.5,-1.7 0.3,-0.5 0.8,-0.8 1.4,-0.8 0.4,0 0.7,0.1 1,0.4 0.4,0.4 0.6,0.8 0.8,1.3 0.3,0.2 0.4,0.5 0.5,0.8 z" id="path50"/><path class="st10" d="m 249.3,321.2 c 0,-0.8 0,-1.5 0.2,-2.2 0.1,-0.4 0.2,-0.8 0.5,-1.1 0.3,-0.4 0.7,-0.7 1.2,-0.7 0.5,-0.1 0.9,0.2 1.2,0.6 0.4,0.5 0.6,1 0.8,1.6 0.4,1 0.6,2 0.7,3 0.2,1.5 0.5,3 0.7,4.6 0.1,1 0.2,2 0.1,3 -0.1,0.6 -0.2,1.2 -0.5,1.8 -0.3,0.4 -0.6,0.7 -1.1,0.8 -0.3,0.1 -0.6,0 -0.9,-0.3 -0.3,-0.3 -0.6,-0.7 -0.8,-1 -0.5,-0.9 -0.7,-1.9 -1,-2.9 -0.4,-1.7 -0.7,-3.5 -0.9,-5.3 -0.1,-0.8 -0.2,-1.4 -0.2,-1.9 z" id="path52"/><path class="st11" d="m 251.2,305.1 c 0,0.8 -0.2,1.4 -0.5,2 -0.7,1.2 -1.8,1.1 -2.6,0.6 -0.3,-0.2 -0.5,-0.4 -0.6,-0.6 -0.8,-1.2 -1,-2.5 -0.4,-3.8 0.3,-0.6 0.7,-1.1 1.5,-1.2 0.6,0 1.2,0.1 1.6,0.6 0.5,0.5 0.8,1.1 0.9,1.9 0,0.1 0.1,0.3 0.1,0.5 z" id="path54"/><path class="st12" d="m 277.6,312.4 c 0,0.7 -0.1,1.3 -0.4,1.9 -0.3,0.5 -0.7,0.8 -1.1,1 -0.3,0.1 -0.7,0.1 -1,-0.1 -0.4,-0.3 -0.8,-0.7 -1.1,-1.1 -0.5,-0.8 -0.9,-1.7 -1,-2.7 -0.1,-0.8 0,-1.6 0.3,-2.4 0.1,-0.3 0.4,-0.6 0.7,-0.8 0.3,-0.2 0.7,-0.2 1,-0.1 0.4,0.2 0.7,0.4 1,0.7 0.7,0.8 1.3,1.6 1.5,2.6 0.1,0.4 0.1,0.7 0.1,1 z" id="path56"/><path class="st13" d="m 220.1,316.5 c 0,0.8 -0.1,1.5 -0.4,2.3 -0.1,0.4 -0.3,0.7 -0.5,1 -0.4,0.5 -0.9,0.6 -1.5,0.5 -0.5,-0.1 -1,-0.4 -1.4,-0.7 -0.3,-0.2 -0.4,-0.5 -0.4,-0.9 0,-0.9 -0.1,-1.8 0.1,-2.7 0,-0.3 0.1,-0.5 0.3,-0.7 0.6,-0.6 1.4,-1 2.3,-1 0.6,0 1,0.3 1.3,0.9 0.2,0.4 0.2,0.8 0.2,1.3 z" id="path58"/><path class="st13" d="m 235.1,318.8 c 0,0.6 0,1.2 -0.2,1.7 -0.1,0.3 -0.2,0.5 -0.3,0.7 -0.4,0.7 -1,0.9 -1.7,0.9 -0.8,-0.1 -1.4,-0.5 -1.9,-1.1 -0.1,-0.1 -0.1,-0.2 -0.1,-0.3 0,-0.7 0.1,-1.3 0.1,-2 0,-0.1 0,-0.2 0.1,-0.3 0.5,-0.6 1,-1.2 1.6,-1.6 0.3,-0.2 0.7,-0.3 1,-0.4 0.5,0 0.8,0.2 1.1,0.6 0.2,0.4 0.3,0.8 0.4,1.2 -0.1,0.2 -0.1,0.4 -0.1,0.6 z" id="path60"/><path class="st14" d="m 260,313.4 c 0.2,0 0.5,0.1 0.8,0.2 0.7,0.4 1.2,1 1.7,1.6 0,0 0,0.1 0.1,0.2 0.2,0.7 0.3,1.4 0.5,2.2 0,0.2 0,0.4 -0.1,0.5 -0.3,0.5 -0.6,1 -1.1,1.4 -0.2,0.2 -0.4,0.3 -0.7,0.4 -0.4,0.1 -0.6,0 -0.9,-0.2 -0.2,-0.2 -0.3,-0.4 -0.4,-0.6 -0.7,-1.2 -1.1,-2.5 -1.1,-3.9 0,-0.3 0,-0.6 0.1,-1 0.1,-0.6 0.5,-0.8 1.1,-0.8 z" id="path62"/><path class="st14" d="m 204.4,319.1 c 0,0.3 0,0.6 -0.1,0.9 0,0.1 -0.1,0.2 -0.2,0.2 -0.6,0.2 -1.2,0.5 -1.9,0.6 -0.3,0 -0.6,0 -0.9,-0.1 -0.3,-0.1 -0.4,-0.3 -0.4,-0.7 0,-0.2 0.1,-0.4 0.3,-0.6 0.8,-0.8 1.7,-1.2 2.8,-1.2 0.3,0 0.3,0 0.3,0.3 0.1,0.3 0.1,0.5 0.1,0.6 z" id="path64"/><path class="st14" d="m 189.2,306.8 c -0.1,-0.1 -0.1,-0.1 -0.1,-0.2 0.2,-0.9 0.5,-1.7 1.2,-2.3 0.3,-0.3 0.7,-0.4 1.1,-0.4 0.4,0 0.6,0.1 0.7,0.5 0.2,0.6 0.1,1.1 -0.4,1.6 -0.5,0.4 -1.1,0.5 -1.7,0.7 -0.2,0 -0.5,0 -0.8,0.1 z" id="path66"/><path class="st12" d="m 286.2,301.3 c 0,-0.5 0.1,-1 0.4,-1.5 0.2,-0.4 0.5,-0.6 0.9,-0.7 0.3,-0.1 0.5,-0.1 0.8,0.2 0.4,0.4 0.7,1 0.3,1.6 -0.2,0.4 -0.5,0.7 -0.9,1 -0.3,0.3 -0.7,0.5 -1,0.7 -0.2,0.1 -0.2,0.1 -0.3,-0.1 -0.1,-0.4 -0.2,-0.8 -0.2,-1.2 z" id="path68"/></g></g></g></svg>