<?xml version="1.0" encoding="utf-8"?>
<!-- Generator: Adobe Illustrator 26.0.3, SVG Export Plug-In . SVG Version: 6.00 Build 0)  -->
<svg version="1.1" id="Layer_1" xmlns="http://www.w3.org/2000/svg" xmlns:xlink="http://www.w3.org/1999/xlink" x="0px" y="0px"
	 viewBox="0 0 403.6 642" style="enable-background:new 0 0 403.6 642;" xml:space="preserve">
<style type="text/css">
	.st0{opacity:0.15;fill:#6B6B6B;enable-background:new    ;}
	.st1{fill:#DD5E7C;}
	.st2{fill:#5E6163;}
	.st3{fill:#C0CED8;}
	.st4{fill:#C45872;}
	.st5{fill:#EF7592;}
</style>
<path class="st0" d="M20.9,289.1l-0.1,27v-24.8C20.8,290.6,20.8,289.8,20.9,289.1z"/>
<path class="st1" d="M368.9,291.4v190.2c0,16.5-13.4,29.9-29.9,29.9h-72c-5,0-9.6,2-12.9,5.4c-3.3,3.3-5.4,7.9-5.4,12.9v95L150,611
	l-1.5-99.5v-63c0-11.9,9.7-21.6,21.6-21.6h82.7c8.9,0,16.2-7.2,16.2-16.2l0.5-31c0.1-8.1-6.4-14.8-14.6-14.8H63.7
	c-12.6,0-22.9-10.3-22.9-22.9V160.4c0-16.5,13.4-29.9,29.9-29.9h62c5,0,9.6-2,12.9-5.4c3.3-3.3,5.4-7.9,5.4-12.9v-95h98.8l1.5,113.3
	v71c0,11.9-9.7,21.6-21.6,21.6H157c-8.9,0-16.2,7.2-16.2,16.2l-0.4,15.6c-0.1,7.5,5.9,13.7,13.4,13.7H346
	C358.7,268.5,368.9,278.7,368.9,291.4z"/>
<g>
	<path class="st2" d="M129.5,18.7V9.4c0-5.2,4.6-9.4,10.3-9.4h122.1c5.7,0,10.3,4.2,10.3,9.4v9.2c0,5.2-4.6,9.4-10.3,9.4H139.8
		C134.1,28.1,129.5,23.9,129.5,18.7z"/>
	<circle class="st3" cx="157.1" cy="14" r="3.2"/>
	<circle class="st3" cx="200.8" cy="14" r="3.2"/>
	<circle class="st3" cx="241.5" cy="14" r="3.2"/>
</g>
<g>
	<path class="st4" d="M141.4,258.4c-40.1,0-60.2,0-100.3,0v-17c40.1,0,60.2,0,100.3,0C141.4,247.1,141.4,252.8,141.4,258.4z"/>
	<path class="st5" d="M26.1,240.4L26.1,240.4c0-5.3,4.3-9.5,9.5-9.5h112.5c5.3,0,9.5,4.3,9.5,9.5l0,0c0,5.3-4.3,9.5-9.5,9.5H35.6
		C30.4,249.9,26.1,245.7,26.1,240.4z"/>
</g>
<rect x="145.8" y="552.4" class="st4" width="100.2" height="17"/>
<g>
	<path class="st2" d="M269.3,621.3v10.3c0,5.8-4.7,10.5-10.5,10.5H134.7c-5.8,0-10.5-4.7-10.5-10.5v-10.3c0-5.8,4.7-10.5,10.5-10.5
		h124.2C264.7,610.8,269.3,615.5,269.3,621.3z"/>
	<circle class="st3" cx="245.3" cy="626.4" r="3.5"/>
	<circle class="st3" cx="196.8" cy="626.4" r="3.5"/>
	<circle class="st3" cx="151.6" cy="626.4" r="3.5"/>
</g>
<path class="st5" d="M256.4,551L256.4,551c0,5.3-4.3,9.5-9.5,9.5H146.6c-5.3,0-9.5-4.3-9.5-9.5l0,0c0-5.3,4.3-9.5,9.5-9.5h100.3
	C252.2,541.5,256.4,545.7,256.4,551z"/>
<g>
	<path class="st4" d="M267.7,417.3c0.6-2.4,0.6-10.9,0.6-10.9h100.3v17H264.3C264.3,423.4,267.2,419.2,267.7,417.3z"/>
	<path class="st5" d="M383.6,401.6L383.6,401.6c0,5.3-4.3,9.5-9.5,9.5H261.6c-5.3,0-9.5-4.3-9.5-9.5l0,0c0-5.3,4.3-9.5,9.5-9.5
		h112.5C379.4,392,383.6,396.3,383.6,401.6z"/>
</g>
<polygon class="st4" points="151.2,77.3 250.4,77.3 254.5,88.5 146.7,88.5 "/>
<path class="st5" d="M138.3,90L138.3,90c0-4.6,4.4-8.3,9.8-8.3h103c5.4,0,9.8,3.8,9.8,8.3l0,0c0,4.6-4.4,8.3-9.8,8.3h-103
	C142.6,98.3,138.3,94.6,138.3,90z"/>
</svg>
