<svg xmlns="http://www.w3.org/2000/svg" viewBox="0 0 1979.75 169.28"><defs><style>.cls-1{fill:#565757;}.cls-2{fill:#424243;}.cls-3{fill:#fff;}</style></defs><g id="Layer_2" data-name="Layer 2"><g id="front_stones" data-name="front stones"><path class="cls-1" d="M1976.37,167.19H1513c-.62-3-.15-6.7,1.74-11.4,13.44-33.4,90.75-55.58,121.74-61.14,26.83-4.81,54.44-5.09,80.84-11.86,42.06-10.79,78.08-37.17,116.54-57.34s84.34-34.39,124.9-18.86c5.54,2.12,11.14,5,14.43,9.93,3.15,4.72,3.74,10.64,4.19,16.3A786.13,786.13,0,0,1,1976.37,167.19Z"/><path class="cls-2" d="M1891.46,28.33c-12,7.39-33,7.3-46.6,13.26-15.32,6.7-29.44,16-39.74,29.37-6,7.8-10.59,16.76-17.69,23.58-7.32,7-16.92,11.37-24.19,18.47-14.09,13.75-16.53,37.7-5.92,54.18h-14a79.21,79.21,0,0,1-11.5-10.15,14.83,14.83,0,0,1-3.71-5.65c-1-3.24.15-6.7,1.39-9.85a121.1,121.1,0,0,1,40.1-52.37c-19.69-6.78-38.35,10.82-57.22,19.62-32.16,15-70.17,4.17-105.21,9.78a113.76,113.76,0,0,0-75.64,48.62H1530c-3.48-11.41,1.87-24.33,10.52-32.74,9-8.8,21-13.74,32.72-18.47,18.23-7.39,36.76-14.85,56.33-16.87,22.48-2.32,45.35,2.67,67.71-.65,18.83-2.8,36.25-11.33,53.32-19.75l68.2-33.63c16.85-8.3,34-16.77,52.32-21.45C1881.79,20.91,1911.66,15.85,1891.46,28.33Z"/><path class="cls-2" d="M1969.17,96.48q-.6,15.08-1.21,30.16c-.24,6.09-.51,12.3-2.65,18-3.79,10.11-12.92,17.24-22.36,22.5l-.09.05H1890c16.9-5.74,31.09-16.25,27.13-38.85-3.22-18.4-19.87-30.93-30-46.6-2.25-3.48-4.26-7.4-4-11.54s3.46-8.36,7.61-8.27a11.58,11.58,0,0,1,5.27,1.84,71.27,71.27,0,0,1,32.48,39.78c1,3,2.47,6.65,5.6,6.75a6.42,6.42,0,0,0,3.26-1,26.89,26.89,0,0,0,13.4-23.74c-.41-13.52-11.08-25.59-9.72-39,10.87-1,20.79,7.57,24.91,17.69S1969.6,85.57,1969.17,96.48Z"/><path class="cls-1" d="M822.27,167.19H756.52a192.15,192.15,0,0,1-56.56,0H187c-.7-12.37,4.54-22.63,13.15-31.26a83.85,83.85,0,0,1,14.22-11.23c24.83-16,60.19-25.22,78.36-33.21,40.91-18,83.7-36.38,128.35-34.18,23.51,1.16,46.31,8,68.84,14.83,30.69,9.28,61.37,18.55,91.82,28.58,37.6,12.39,75.3,26,114.74,29.58,21.38,1.92,43,.83,64.29,3.65s43,10.13,57.61,25.83a14.54,14.54,0,0,1,3.55,5.34A8.21,8.21,0,0,1,822.27,167.19Z"/><path class="cls-1" d="M231.83,152.8c-.33-9.38-6.52-18.72-14.5-25.67-1-.85-2-1.67-3-2.43a47.21,47.21,0,0,0-15.55-8.06c-11.26-3.09-21,4.88-31,2.08-12.12-3.41-11.76-23.36-19-33-8.88-11.92-22.74-17.61-37.06-16.84a3.33,3.33,0,0,0-2.55-1.63c-19.42-3-39.46,5.33-48.9,23.19C57,96.55,56.61,102,50.68,106.46s-12,4-18.94,5.85A42.32,42.32,0,0,0,8.28,128.44c-7.6,10.47-11.73,27.09-4.56,38.75h160a33.7,33.7,0,0,0,7.1,0H224a12.12,12.12,0,0,0,5.81-4.92,12.56,12.56,0,0,0,1.45-3.6A20.73,20.73,0,0,0,231.83,152.8Z"/><path class="cls-2" d="M145.41,159.54a35.19,35.19,0,0,0,18.28,7.65H28A102.71,102.71,0,0,1,37.82,159a3.25,3.25,0,0,1,2.12-.57c-1.25-12.66,2.67-26.75,12.83-34.72,2.79-2.18,8.64-.3,6.9,4-2.93,7.28-4.14,14.88-2.2,22.64,1.18,4.75,3.42,7.7,6.33,9.48a89.65,89.65,0,0,1,10.52-2.18,82.42,82.42,0,0,1,12.54-.86c13.88-6,27.61-12.58,36.77-25.09a102.37,102.37,0,0,0,.87-15.44c-.39-19.46-13-28.78-24.79-42.21-2.57-2.93-.17-8.2,4-6.9,10.8,3.34,21.83,7.07,29.2,16.11,7.07,8.68,12.42,21.1,14.9,31.94,2.77,12.06,1.66,24.67-.75,36.68C146.6,154.19,145.93,156.84,145.41,159.54Z"/><path class="cls-2" d="M232.83,156.24a31.59,31.59,0,0,1-2.07,5.28,3.78,3.78,0,0,1-1.57,3.68,2,2,0,0,1-.33.24l-.35.18-.41.69a4.52,4.52,0,0,1-.7.88H170.79c.45-.05.9-.1,1.35-.17q4.77-1.29,9.5-3c2.88-9.68-.62-20.56-5.55-29.3-1.45-2.58.35-6.42,3.57-6.22,7.67.5,14.2,3.53,20.45,7.39,2.94,1.82,5.83,3.83,8.73,5.84.34.24,2,1.41,4.19,3a14.61,14.61,0,0,0,2.88-3.55c1.83-3.7.19-9.33,1.19-13.46a2.71,2.71,0,0,1,.23-.64c1.25-2.78,5.84-3.33,7.31-.35,3.22,6.52,7.79,13.45,8.85,20.76A20.58,20.58,0,0,1,232.83,156.24Z"/><path class="cls-2" d="M781.48,161.76a188.15,188.15,0,0,1-25,5.43,192.15,192.15,0,0,1-56.56,0c-4.68-.69-9.34-1.56-14-2.61-14.27-3.24-29.19-8.13-43.17-3.77-5,1.54-9.48,4.18-14.18,6.38H561.35a124.69,124.69,0,0,1-60.61-41.28c-1.73-2.2-3.56-4.59-6.23-5.44-6-1.93-11.42,5.68-10.24,11.87s6.17,10.79,10.52,15.34a107.75,107.75,0,0,1,14.81,19.51H408.87c-23.75-10.27-47.69-19.32-72.64-16.49-17,1.92-32.54,9.23-48.16,16.49H229c0-.66.11-1.33.2-2a21,21,0,0,1,.65-2.93,19.09,19.09,0,0,1,1.45-3.6,16.51,16.51,0,0,1,1-1.62q.27-.41.57-.81c5.82-8,15.38-12.34,23.47-18.12,13.75-9.83,23.64-24.17,36.71-34.9,16.29-13.61,51.7-30.56,73.64-25.41,40.48,9.51-39.45,26.57-20.6,40.66,17.95,8.51,39.89,1.22,58.69,7.67,8.35,2.86,15.6,8.29,23.87,11.35s18.76,3.13,24.66-3.43c7.84-8.72,3.91-24.72,13.2-31.88,3.84-3,9-3.5,13.87-3.3,35.27,1.48,61.72,34.48,96.25,41.79,20.93,4.43,42.5-1,63.81-2.88C688.23,133.64,735.55,147.78,781.48,161.76Z"/><path class="cls-1" d="M1103.41,148.75c8.85,5.78,17.69,12.35,26.71,18.44H910.66c8.9-8.39,17.37-17.28,27.16-24.59,23.57-17.61,53.95-25,83.3-23S1078.78,132.66,1103.41,148.75Z"/><path class="cls-1" d="M1580.64,157.87c-5.83,2.68-11.77,5.44-16.84,9.32h-12.49A246.47,246.47,0,0,0,1580.64,157.87Z"/><path class="cls-2" d="M1027.53,147.66c-2.23,7.65-12.51,9.16-18,14.93a14.38,14.38,0,0,0-2.94,4.6H983a45.52,45.52,0,0,0-7.28-8.45,203.08,203.08,0,0,0-24.15,8.45H922.32c13.82-12.17,31.44-19.85,48.93-25.56C979.85,138.82,1035.26,121.07,1027.53,147.66Z"/><path class="cls-3" d="M163.69,167.19h7.1A33.7,33.7,0,0,1,163.69,167.19Z"/><path class="cls-3" d="M700,167.19h56.56A192.15,192.15,0,0,1,700,167.19Z"/></g></g></svg>