<svg xmlns="http://www.w3.org/2000/svg" viewBox="0 0 122.23 94.06"><defs><style>.cls-1{fill:#fff;}</style></defs><g id="Layer_2" data-name="Layer 2"><g id="temp"><path class="cls-1" d="M50.67,13.3a16.06,16.06,0,0,0,.3,6.32,24,24,0,0,0-13.3,21,26.93,26.93,0,0,0-17,12.06A14.62,14.62,0,0,0,13,51.93,15,15,0,0,0,0,67.34a15.66,15.66,0,0,0,14.72,15,15.15,15.15,0,0,0,6.49-1.07A25.88,25.88,0,0,0,43.57,94.06,25,25,0,0,0,64,83.44a24.15,24.15,0,0,0,20.32,9.71,25,25,0,0,0,23.38-30.84l.83,0a14.72,14.72,0,0,0,13.66-14.81,17.89,17.89,0,0,0-11.09-16.56,9.79,9.79,0,0,0-4.36-2.26C99.86,27.48,94,33.48,93.26,40.08a23.38,23.38,0,0,0-6.36-2A24.15,24.15,0,0,0,77,21.84a13.87,13.87,0,0,0,2.2-7.95A14.38,14.38,0,0,0,65,0C57.28-.1,51.52,5.92,50.67,13.3Z"/></g></g></svg>