<?xml version="1.0" encoding="utf-8"?>
<!-- Generator: Adobe Illustrator 26.0.2, SVG Export Plug-In . SVG Version: 6.00 Build 0)  -->
<svg version="1.1" id="Layer_1" xmlns="http://www.w3.org/2000/svg" xmlns:xlink="http://www.w3.org/1999/xlink" x="0px" y="0px"
	 viewBox="0 0 149.2 148.5" style="enable-background:new 0 0 149.2 148.5;" xml:space="preserve">
<style type="text/css">
	.st0{fill:#EC469B;}
	.st1{fill:#373753;}
	.st2{clip-path:url(#SVGID_00000036936225463586417870000008658123617644510614_);}
	.st3{fill:#F7FBFF;}
	.st4{clip-path:url(#SVGID_00000080181244493382934930000010083928243277231288_);}
</style>
<path id="wingr" class="st0" d="M137.3,17.1c1.8-6.9,6-12.8,12-16.7C134.9-1.2,106.8,1,86.1,23.8s-7.1,62.1,9.1,82.1
	s24.2,46.3,24.8,42.2s7.7-16.6,22.3-51s-23.8-50.8-23.8-50.8C128.7,44.9,134,28.9,137.3,17.1z"/>
<path id="wingr-2" class="st0" d="M30.7,46.3c0,0-38.4,16.4-23.7,50.8s21.7,46.9,22.3,51s8.5-22.3,24.8-42.2s29.8-59.4,9.1-82.1
	S14.4-1.2,0,0.4c5.9,3.9,10.2,9.8,11.9,16.7C15.2,28.9,20.5,44.9,30.7,46.3z"/>
<path class="st1" d="M79.1,88.3c0.4,1.7,0.6,4.1-0.9,5c-0.4,0.2-0.8,0.2-1.3,0.2c-3.1-0.4-5.1-4.3-6.4-7.6
	c-1.5-3.7-2.6-7.4-3.3-11.3c-1.6-10.2,0.7-20.9,6.5-28.7c2.4-3.3,2.9-2.2,4.6,1.7c2,4.8,3.3,9.4,3.1,13.9
	C81.1,70.3,77.1,79.4,79.1,88.3z"/>
<ellipse class="st1" cx="75.2" cy="39.2" rx="6.6" ry="7.8"/>
<ellipse transform="matrix(0.9457 -0.3251 0.3251 0.9457 2.9673 28.2806)" class="st1" cx="86.1" cy="5.3" rx="2.9" ry="3.5"/>
<path class="st1" d="M76.7,34.4c-0.8-10.7,1.7-21.5,7.2-30.7L85,5c-5.2,8.8-7.7,18.9-6.9,29.1L76.7,34.4z"/>
<ellipse transform="matrix(0.3251 -0.9457 0.9457 0.3251 38.8921 65.062)" class="st1" cx="65" cy="5.3" rx="3.5" ry="2.9"/>
<path class="st1" d="M73.1,34.2C73.8,24,71.4,13.8,66.1,5l1.1-1.3c5.7,9.2,8.2,19.9,7.3,30.7L73.1,34.2z"/>
<g>
	<defs>
		<path id="SVGID_1_" d="M80.7,34.2c0,0-1.3,2.2-2.6,1.3s0-3.5,0-3.5C79.1,32.6,80,33.3,80.7,34.2z"/>
	</defs>
	<clipPath id="SVGID_00000062157394004608090540000014849660598773230756_">
		<use xlink:href="#SVGID_1_"  style="overflow:visible;"/>
	</clipPath>
	<g style="clip-path:url(#SVGID_00000062157394004608090540000014849660598773230756_);">
		<path class="st3" d="M80.7,34.2c0,0-1.3,2.2-2.6,1.3s0-3.5,0-3.5C79.1,32.6,80,33.3,80.7,34.2z"/>
		<ellipse cx="78.9" cy="33.4" rx="0.9" ry="1.1"/>
		<ellipse class="st3" cx="78.5" cy="33" rx="0.4" ry="0.4"/>
	</g>
</g>
<g>
	<defs>
		<path id="SVGID_00000116945121381017789160000011928818582719648687_" d="M72.7,31.6c0,0,1.3,2.6,0,3.5s-2.5-1.3-2.5-1.3
			C71,33,71.8,32.2,72.7,31.6z"/>
	</defs>
	<clipPath id="SVGID_00000132086500710362341350000000167419257777476755_">
		<use xlink:href="#SVGID_00000116945121381017789160000011928818582719648687_"  style="overflow:visible;"/>
	</clipPath>
	<g style="clip-path:url(#SVGID_00000132086500710362341350000000167419257777476755_);">
		<path class="st3" d="M72.7,31.6c0,0,1.3,2.6,0,3.5s-2.5-1.3-2.5-1.3C71,33,71.8,32.2,72.7,31.6z"/>
		<ellipse cx="72.2" cy="33.1" rx="0.9" ry="1.1"/>
		<ellipse class="st3" cx="72.5" cy="32.7" rx="0.4" ry="0.4"/>
	</g>
</g>
</svg>
