<svg xmlns="http://www.w3.org/2000/svg" xmlns:xlink="http://www.w3.org/1999/xlink" viewBox="0 0 77.3 38.62"><defs><style>.cls-1{fill:url(#linear-gradient);}.cls-2{fill:#f2bc4d;}.cls-3{fill:#fbe664;}</style><linearGradient id="linear-gradient" x1="-107.8" y1="271.38" x2="-41.3" y2="203.1" gradientTransform="matrix(0.37, 0.93, -0.93, 0.37, 290.55, 4.74)" gradientUnits="userSpaceOnUse"><stop offset="0" stop-color="#fef6f5"/><stop offset="0.22" stop-color="#fae1b3"/><stop offset="0.34" stop-color="#f8d792"/><stop offset="0.37" stop-color="#f8cc85"/><stop offset="0.45" stop-color="#f9b76c"/><stop offset="0.54" stop-color="#f9a659"/><stop offset="0.64" stop-color="#fa9a4b"/><stop offset="0.77" stop-color="#fa9343"/><stop offset="1" stop-color="#fa9141"/></linearGradient></defs><g id="Layer_2" data-name="Layer 2"><g id="fire_comets" data-name="fire comets"><path class="cls-1" d="M40,13.67c-7.78-4.52-15.72-8.86-24.16-12A19.87,19.87,0,0,0,7.27,0C4.36.29,1.4,1.94.39,4.68A7.88,7.88,0,0,0,.55,10c1.3,3.65,4.33,6.37,7.41,8.72A85.33,85.33,0,0,0,43.63,34.62c4.48.85,9,1.34,13.55,1.83L77.3,38.62c-.58-1.44-2.2-2.11-3.66-2.63L57.36,30.17a29,29,0,0,1,8.2,1.47c.81.27,3.13,1.2,2.5-.33-.37-.9-3.12-2.11-4-2.67q-4-2.62-8-5.17Q48.11,18.42,40,13.67Z"/><path class="cls-2" d="M10.11,3A10.8,10.8,0,0,0,5.94,6.82C5,8,4.06,9.36,4.1,10.88a4.94,4.94,0,0,0,1,2.65c1.75,2.44,4.6,3.81,7.38,5a16.66,16.66,0,0,0,6.15,1.59,6.27,6.27,0,0,0,5.48-2.69c1.15-1.92.79-4.34.4-6.55a11.86,11.86,0,0,0-1.4-4.42C21.78,4.32,19.78,4.57,17.72,4,15.17,3.18,12.8,1.94,10.11,3Z"/><path class="cls-3" d="M20.21,7.53a4.19,4.19,0,0,0-2.44-1.26c-.21,1,.8,1.75,1.73,2a1.11,1.11,0,0,0,.91,0c.27-.17.3-.65,0-.75"/><path class="cls-3" d="M15.32,7.13a4,4,0,0,0-3.63-1.68,3.52,3.52,0,0,0,1.72,2.84A2.05,2.05,0,0,0,15,8.55a1.12,1.12,0,0,0,.77-1.31"/><path class="cls-3" d="M21.27,13.38A8.11,8.11,0,0,0,18.66,12a1.57,1.57,0,0,0-.71-.1,1.23,1.23,0,0,0-.76,1.69A3.39,3.39,0,0,0,18.7,15a4.87,4.87,0,0,0,1.95.79A1.77,1.77,0,0,0,22.44,15a1.3,1.3,0,0,0-1.74-1.72"/><path class="cls-3" d="M14.2,13.45a3.06,3.06,0,0,0-1.78-1.95,1.3,1.3,0,0,0-1.14,0,1.1,1.1,0,0,0-.4,1.18,3.08,3.08,0,0,0,.64,1.16A2.85,2.85,0,0,0,13,15.06c.65.14,1.46-.43,1.27-1.07-.1-.32-.39-.74-.11-.92"/><path class="cls-3" d="M9.48,8.75a1,1,0,0,0-1-1.23,1.2,1.2,0,0,0-1,1.31,1.46,1.46,0,0,0,1.24,1.23,1,1,0,0,0,1-.42c.14-.32,0-.69.13-1"/><path class="cls-3" d="M17.6,17.09,16,16.24c-.26-.14-.62-.26-.81,0s.06.63.32.84a2.1,2.1,0,0,0,1,.54.82.82,0,0,0,.92-.55"/></g></g></svg>