<?xml version="1.0" encoding="utf-8"?><!--Generator: Adobe Illustrator 26.0.2, SVG Export Plug-In . SVG Version: 6.00 Build 0)--><svg version="1.1" id="Layer_1" xmlns="http://www.w3.org/2000/svg" xmlns:xlink="http://www.w3.org/1999/xlink" x="0px" y="0px" viewBox="0 0 15.3 44" style="enable-background:new 0 0 15.3 44" xml:space="preserve"><style type="text/css">.st0{fill:#363753;}
	.st1{clip-path:url(#SVGID_00000009588978559588109560000012721916977794156962_);}
	.st2{fill:#F8FFFF;}
	.st3{clip-path:url(#SVGID_00000000908333800830689800000009575456812132378000_);}</style><path class="st0" d="M9.6,40.8c0.2,0.8,0.3,1.9-0.5,2.3c-0.2,0.1-0.5,0.1-0.7,0.1c-1.7-0.2-2.8-2-3.5-3.5c-0.8-1.7-1.4-3.4-1.8-5.2
	c-0.9-4.7,0.4-9.6,3.6-13.2c1.3-1.5,1.6-1,2.5,0.8c1.1,2.2,1.8,4.3,1.7,6.4C10.7,32.5,8.5,36.7,9.6,40.8z"/><circle class="st0" cx="7.5" cy="18.2" r="3.6"/><g><ellipse transform="matrix(0.6412 -0.7674 0.7674 0.6412 2.8357 11.2748)" class="st0" cx="13.5" cy="2.6" rx="1.5" ry="1.7"/><path class="st0" d="M8.3,16c-0.4-5.1,1-10.1,4-14.1l0.6,0.6c-2.8,3.8-4.2,8.6-3.8,13.4L8.3,16z"/></g><g><ellipse transform="matrix(0.7674 -0.6412 0.6412 0.7674 -1.2387 1.8161)" class="st0" cx="1.9" cy="2.6" rx="1.7" ry="1.5"/><path class="st0" d="M6.3,15.9c0.4-4.8-1-9.6-3.8-13.4l0.6-0.6c3,3.9,4.5,9,4,14.1L6.3,15.9z"/></g><g><g><g><defs><path id="SVGID_1_" d="M10.5,15.9c0,0-0.7,1-1.4,0.6s0-1.6,0-1.6C9.7,15.2,10.1,15.5,10.5,15.9z"/></defs><clipPath id="SVGID_00000124863496614454011560000013729697866871198347_"><use xlink:href="#SVGID_1_" style="overflow:visible"/></clipPath><g style="clip-path:url(#SVGID_00000124863496614454011560000013729697866871198347_)"><path class="st2" d="M10.5,15.9c0,0-0.7,1-1.4,0.6s0-1.6,0-1.6C9.7,15.2,10.1,15.5,10.5,15.9z"/><ellipse cx="9.5" cy="15.5" rx="0.5" ry="0.5"/><ellipse class="st2" cx="9.3" cy="15.4" rx="0.2" ry="0.2"/></g></g></g></g><g><g><g><defs><path id="SVGID_00000049920508654458722320000013995980342582159294_" d="M6.1,14.7c0,0,0.7,1.2,0,1.6s-1.4-0.6-1.4-0.6
					C5.2,15.3,5.6,15,6.1,14.7z"/></defs><clipPath id="SVGID_00000117665834629435223300000008361809375422208395_"><use xlink:href="#SVGID_00000049920508654458722320000013995980342582159294_" style="overflow:visible"/></clipPath><g style="clip-path:url(#SVGID_00000117665834629435223300000008361809375422208395_)"><path class="st2" d="M6.1,14.7c0,0,0.7,1.2,0,1.6s-1.4-0.6-1.4-0.6C5.2,15.3,5.6,15,6.1,14.7z"/><ellipse cx="5.8" cy="15.4" rx="0.5" ry="0.5"/><ellipse class="st2" cx="6" cy="15.2" rx="0.2" ry="0.2"/></g></g></g></g></svg>