<svg xmlns="http://www.w3.org/2000/svg" viewBox="0 0 280 755.7"><defs><style>.cls-1{fill:#5e6163;}.cls-2{fill:#c0ced8;}.cls-3{fill:#dd5e7c;}.cls-4{fill:#c45872;}.cls-5{fill:#ef7592;}.cls-6{fill:#6b6b6b;opacity:0.15;}</style></defs><g id="Layer_2" data-name="Layer 2"><g id="pipe"><rect class="cls-1" x="14.41" y="0.52" width="145.14" height="31.18" rx="10.46" transform="translate(0.14 -0.72) rotate(0.48)"/><circle class="cls-2" cx="38.48" cy="15.71" r="3.52"/><circle class="cls-2" cx="86.98" cy="16.11" r="3.52"/><circle class="cls-2" cx="132.11" cy="16.48" r="3.52"/><path class="cls-3" d="M24.66,101.17c4-7.63,14.9-8.24,23.14-5.66S64,102.85,72.58,102.4c7.2-.38,13.74-4.39,20.87-5.52,16.44-2.6,25.16,13,41.15,17.59,4.54,1.31,10.19,1.64,13.21-2L149,32.22l-124.22-1Z"/><path class="cls-3" d="M265.73,266.7v83l-.33,40.95-.14,17-.26,32-.25,30.85-.42,51.75a30,30,0,0,1-29.51,24.93h-92a18.29,18.29,0,0,0-18.29,18.29V747L25.75,733.22,24.24,547.15v-83a21.57,21.57,0,0,1,21.57-21.57h82.68a16.15,16.15,0,0,0,16.16-16.15l.34.05V368A18.29,18.29,0,0,0,126.7,349.7H55.15a29.93,29.93,0,0,1-29.93-29.93V144.09s33.08-.3,56.66,1h.35c21,1.17,56.11-4.9,61.05-5.78l.1,0,.27,0,.11,0,.1,0,1.12,69,.24,14.41.07,4.62,0,1.72q0,.48,0,1V230q0,.45.09.9c0,.24.06.48.1.72s.05.28.08.42.08.44.14.66a.44.44,0,0,0,0,.1,0,0,0,0,0,0,0,1.43,1.43,0,0,0,.07.28c.06.22.12.44.19.66s.13.43.21.65l0,.1c0,.12.08.22.13.34a.41.41,0,0,0,0,.08,14.94,14.94,0,0,0,.88,1.85c.11.19.22.39.34.58a13.26,13.26,0,0,0,1.16,1.65,3.09,3.09,0,0,0,.33.39l.1.13c.17.2.35.4.53.59a.23.23,0,0,0,.07.07,6,6,0,0,0,.57.56l.6.54c.23.2.46.38.7.56a15.47,15.47,0,0,0,2,1.32,11.58,11.58,0,0,0,1.06.52l.61.26a6.37,6.37,0,0,0,.61.23l.55.19a5.43,5.43,0,0,0,.61.18l.46.12.45.1.25.05.64.11c.22,0,.44.07.67.09s.58.06.88.07.61,0,.91,0h82.68A21.56,21.56,0,0,1,265.73,266.7Z"/><path class="cls-4" d="M149.3,239.59H25v-17H145.29s0,2.17.1,4.62c.08,2,.19,4.19.39,5.55a0,0,0,0,0,0,0,5,5,0,0,0,.12.7,6.65,6.65,0,0,0,.52,1.33.41.41,0,0,0,0,.08,41.76,41.76,0,0,0,2.71,4.47l.1.13Z"/><polygon class="cls-4" points="265.73 390.65 265.73 407.6 265.26 407.6 265.4 390.65 265.73 390.65"/><rect class="cls-5" x="9.96" y="208.22" width="151.51" height="19.02" rx="9.51"/><path class="cls-6" d="M265.73,349.7v-83a21.57,21.57,0,0,0-21.57-21.56H161.47A16.16,16.16,0,0,1,145.32,229v-1.73H152a9.5,9.5,0,0,0,9.51-9.51h0a9.51,9.51,0,0,0-9.51-9.51h-6.61l-1.49-69s-27.13,4.32-55.35,5.64c-23.61,1.1-63.29-.77-63.29-.77v64.13H19.47A9.51,9.51,0,0,0,10,217.73h0a9.51,9.51,0,0,0,9.51,9.51h5.75v17.89h0v74.64A29.93,29.93,0,0,0,55.14,349.7h71.21A18.29,18.29,0,0,1,144.65,368v60.16L265,439.62Z"/><path class="cls-4" d="M140.67,437H265v-17H144.68s-.06,8.54-.62,10.9C143.62,432.85,140.67,437,140.67,437Z"/><rect class="cls-4" x="24.23" y="588.09" width="100.25" height="16.96" transform="translate(148.72 1193.14) rotate(-180)"/><rect class="cls-1" y="724.52" width="145.14" height="31.18" rx="10.46" transform="translate(145.14 1480.22) rotate(-180)"/><circle class="cls-2" cx="121.07" cy="740.11" r="3.52"/><circle class="cls-2" cx="72.57" cy="740.11" r="3.52"/><circle class="cls-2" cx="27.44" cy="740.11" r="3.52"/><rect class="cls-5" x="128.49" y="405.67" width="151.51" height="19.02" rx="9.51" transform="translate(408.49 830.36) rotate(180)"/><rect class="cls-5" x="15.53" y="577.15" width="119.3" height="19.02" rx="9.51" transform="translate(150.37 1173.32) rotate(-180)"/></g></g></svg>