<svg xmlns="http://www.w3.org/2000/svg" xmlns:xlink="http://www.w3.org/1999/xlink" viewBox="0 0 205.37 266.19"><defs><style>.cls-1{fill:none;}.cls-2{clip-path:url(#clip-path);}.cls-3{fill:#f47ea3;}.cls-4{fill:#ef639f;}.cls-5{fill:#e86997;}.cls-6{fill:#932a55;}.cls-7{clip-path:url(#clip-path-2);}.cls-8{fill:#f48e9a;}.cls-9{fill:#ea8191;}.cls-10{clip-path:url(#clip-path-3);}.cls-11{clip-path:url(#clip-path-4);}.cls-12{clip-path:url(#clip-path-5);}.cls-13{fill:#e28391;}.cls-14{fill:#d87d8f;}.cls-15{clip-path:url(#clip-path-6);}.cls-16{clip-path:url(#clip-path-7);}.cls-17{clip-path:url(#clip-path-8);}.cls-18{clip-path:url(#clip-path-9);}.cls-19{clip-path:url(#clip-path-10);}.cls-20{clip-path:url(#clip-path-11);}</style><clipPath id="clip-path" transform="translate(1.36)"><path class="cls-1" d="M85.34.67a8.46,8.46,0,0,0-2.8,1.15c-2.67,1.47-5.39,3.06-7.26,5.47a22.37,22.37,0,0,0-3,6c-1.14,3.12-2.21,6.48-1.4,9.7a12.3,12.3,0,0,0,1.91,4,21.84,21.84,0,0,0,13.71,9,10.4,10.4,0,0,0,4.9,0c2.29-.68,4-2.5,5.68-4.25s3.09-3.29,4.6-5A16.49,16.49,0,0,0,105.52,21c1.14-3.49-.1-7.41-2.32-10.33a21.9,21.9,0,0,0-9-7C91.51,2.62,88.29.2,85.34.67Z"/></clipPath><clipPath id="clip-path-2" transform="translate(1.36)"><path class="cls-1" d="M111.88,39.73a9.47,9.47,0,0,0,.68,3.7c1.13,3.35,2.37,6.73,4.91,8.43,1.86,1.26,4.31,1.53,6.76,1.73,3.61.29,7.54.37,11.82-2.32a30.62,30.62,0,0,0,5.5-4.69A66.49,66.49,0,0,0,156.61,21.8a20.58,20.58,0,0,0,1.3-7.37c-.23-3.15-2-5-3.78-6.63s-3.3-3.15-5-4.66S145.55.07,143,0c-4.08-.11-9.35,3.54-13.63,8.23A68.1,68.1,0,0,0,118,25.05C116,29.53,112.1,35.49,111.88,39.73Z"/></clipPath><clipPath id="clip-path-3" transform="translate(1.36)"><path class="cls-1" d="M108.21,191.66a9,9,0,0,0,.86,2.75,24.26,24.26,0,0,0,4.52,7.57,23.92,23.92,0,0,0,5.32,3.78c2.79,1.6,5.81,3.19,8.83,3a10.2,10.2,0,0,0,3.78-1,17,17,0,0,0,9.25-10.8,9.37,9.37,0,0,0,.32-4.44c-.47-2.21-2-4.13-3.5-5.93s-2.81-3.39-4.24-5.07a18.2,18.2,0,0,0-5-4.49,10.47,10.47,0,0,0-9.67.23,16.92,16.92,0,0,0-7.13,6.89C110.45,186.42,108,188.9,108.21,191.66Z"/></clipPath><clipPath id="clip-path-4" transform="translate(1.36)"><path class="cls-1" d="M188.13,249.11a4.82,4.82,0,0,0-.83,1.42A12.47,12.47,0,0,0,186,255.3a12.3,12.3,0,0,0,.71,3.58,9.17,9.17,0,0,0,2.61,4.65,6.67,6.67,0,0,0,2.13,1.07,11.87,11.87,0,0,0,8.89-.66,5.71,5.71,0,0,0,2.1-1.63,7.44,7.44,0,0,0,1.05-3.72c.12-1.22.24-2.44.34-3.66a9,9,0,0,0-.25-3.73,6.28,6.28,0,0,0-4.42-3.68,11.83,11.83,0,0,0-6.22-.06C191.44,247.91,189.25,247.93,188.13,249.11Z"/></clipPath><clipPath id="clip-path-5" transform="translate(1.36)"><path class="cls-1" d="M64.54,82a4.69,4.69,0,0,0-.83,1.42,12.38,12.38,0,0,0-1.32,4.76,12.3,12.3,0,0,0,.71,3.58c.54,1.72,1.19,3.53,2.6,4.65a6.85,6.85,0,0,0,2.14,1.08,11.87,11.87,0,0,0,8.89-.67,5.71,5.71,0,0,0,2.1-1.63,7.4,7.4,0,0,0,1-3.71c.12-1.22.24-2.44.34-3.67A9,9,0,0,0,80,84.08a6.28,6.28,0,0,0-4.42-3.68,11.93,11.93,0,0,0-6.22-.06C67.85,80.79,65.66,80.81,64.54,82Z"/></clipPath><clipPath id="clip-path-6" transform="translate(1.36)"><path class="cls-1" d="M117.91,136.05a4.69,4.69,0,0,0-.83,1.42,12.19,12.19,0,0,0-1.31,4.76,11.62,11.62,0,0,0,.71,3.58,9,9,0,0,0,2.6,4.65,6.69,6.69,0,0,0,2.13,1.08,11.92,11.92,0,0,0,8.89-.66,5.65,5.65,0,0,0,2.1-1.64,7.4,7.4,0,0,0,1.05-3.71c.12-1.22.24-2.44.34-3.66a9,9,0,0,0-.25-3.73,6.3,6.3,0,0,0-4.42-3.69,11.93,11.93,0,0,0-6.22-.06C121.22,134.85,119,134.87,117.91,136.05Z"/></clipPath><clipPath id="clip-path-7" transform="translate(1.36)"><path class="cls-1" d="M156.36,216.23a3,3,0,0,0-.51.88,7.47,7.47,0,0,0-.81,2.94,7.28,7.28,0,0,0,.43,2.2,5.73,5.73,0,0,0,1.61,2.87,4,4,0,0,0,1.31.66,7.29,7.29,0,0,0,5.48-.4,3.52,3.52,0,0,0,1.3-1,4.62,4.62,0,0,0,.65-2.29c.07-.75.15-1.51.21-2.26a5.73,5.73,0,0,0-.15-2.3,3.9,3.9,0,0,0-2.73-2.27,7.46,7.46,0,0,0-3.84,0C158.4,215.49,157.05,215.5,156.36,216.23Z"/></clipPath><clipPath id="clip-path-8" transform="translate(1.36)"><path class="cls-1" d="M120.52,242.75a3.21,3.21,0,0,0-.51.88,7.47,7.47,0,0,0-.81,2.93,7.3,7.3,0,0,0,.44,2.21,5.64,5.64,0,0,0,1.6,2.87,4.09,4.09,0,0,0,1.32.66,7.34,7.34,0,0,0,5.48-.41,3.44,3.44,0,0,0,1.29-1,4.62,4.62,0,0,0,.65-2.29c.07-.76.15-1.51.21-2.26A5.56,5.56,0,0,0,130,244a3.89,3.89,0,0,0-2.73-2.27,7.22,7.22,0,0,0-3.83,0C122.56,242,121.21,242,120.52,242.75Z"/></clipPath><clipPath id="clip-path-9" transform="translate(1.36)"><path class="cls-1" d="M1.32,229.72a3,3,0,0,0-.51.87A7.47,7.47,0,0,0,0,233.53a7.23,7.23,0,0,0,.44,2.2A5.6,5.6,0,0,0,2,238.6a4.33,4.33,0,0,0,1.32.67,7.33,7.33,0,0,0,5.48-.41,3.58,3.58,0,0,0,1.3-1,4.61,4.61,0,0,0,.64-2.29c.08-.75.15-1.5.21-2.26a5.56,5.56,0,0,0-.15-2.3,3.89,3.89,0,0,0-2.73-2.27,7.32,7.32,0,0,0-3.83,0C3.36,229,2,229,1.32,229.72Z"/></clipPath><clipPath id="clip-path-10" transform="translate(1.36)"><path class="cls-1" d="M42.1,153.16a2.63,2.63,0,0,0-.51.87,7.66,7.66,0,0,0-.82,2.94,7.55,7.55,0,0,0,.44,2.2A5.55,5.55,0,0,0,42.82,162a4.17,4.17,0,0,0,1.31.67,7.33,7.33,0,0,0,5.48-.41,3.49,3.49,0,0,0,1.3-1,4.62,4.62,0,0,0,.65-2.29c.07-.75.15-1.5.21-2.26a5.56,5.56,0,0,0-.16-2.3,3.87,3.87,0,0,0-2.72-2.27,7.36,7.36,0,0,0-3.84,0C44.14,152.41,42.79,152.43,42.1,153.16Z"/></clipPath><clipPath id="clip-path-11" transform="translate(1.36)"><path class="cls-1" d="M106,89.6a9,9,0,0,0,.39,3.09c.76,3,1.62,6.15,3.56,8.56a21.32,21.32,0,0,0,5.3,4.31c2.86,1.82,6,3.64,9.48,3.5a13.83,13.83,0,0,0,4.56-1.1A25,25,0,0,0,142.18,95.9a11.2,11.2,0,0,0,1.32-5c-.06-2.48-1.42-4.65-2.74-6.69s-2.5-3.85-3.78-5.75a15.71,15.71,0,0,0-4.76-5.1c-3.24-1.9-7.56-1.48-11.15.17a25.12,25.12,0,0,0-9.66,7.68C109.65,83.72,106.3,86.48,106,89.6Z"/></clipPath></defs><g id="Layer_2" data-name="Layer 2"><g id="comets"><g class="cls-2"><path class="cls-3" d="M85.34.67a8.46,8.46,0,0,0-2.8,1.15c-2.67,1.47-5.39,3.06-7.26,5.47a22.37,22.37,0,0,0-3,6c-1.14,3.12-2.21,6.48-1.4,9.7a12.3,12.3,0,0,0,1.91,4,21.84,21.84,0,0,0,13.71,9,10.4,10.4,0,0,0,4.9,0c2.29-.68,4-2.5,5.68-4.25s3.09-3.29,4.6-5A16.49,16.49,0,0,0,105.52,21c1.14-3.49-.1-7.41-2.32-10.33a21.9,21.9,0,0,0-9-7C91.51,2.62,88.29.2,85.34.67Z" transform="translate(1.36)"/><path class="cls-4" d="M76.66,6.33A21.16,21.16,0,0,0,77.26,9c.4,2.32-.85,4.59-1,6.94A7.64,7.64,0,0,0,81,23.36a9.87,9.87,0,0,1,2.78,1.2,8.15,8.15,0,0,1,1.82,3.06,11.49,11.49,0,0,0,11,6.41,17.92,17.92,0,0,1-3.76,3.67A8.68,8.68,0,0,1,88,39.56a9.49,9.49,0,0,1-4.1-1.14c-7.32-3.56-12.57-10.25-17.18-17-1-1.5-2.09-3.16-1.93-5a7.05,7.05,0,0,1,1-2.78A33.47,33.47,0,0,1,72.3,5.27C73.69,4,76.85.58,79.08,1.55,78.4,3.25,76.57,4.19,76.66,6.33Z" transform="translate(1.36)"/><path class="cls-5" d="M96,24.74a.11.11,0,0,0,.14-.18.11.11,0,0,0-.14.18Z" transform="translate(1.36)"/><path class="cls-5" d="M87.63,18.76c.12.09.26-.1.14-.19s-.25.1-.14.19Z" transform="translate(1.36)"/><path class="cls-5" d="M93.62,16.48a.11.11,0,0,0,.14-.18.11.11,0,0,0-.14.18Z" transform="translate(1.36)"/><path class="cls-5" d="M87,17.24c.11.09.25-.09.14-.18a.11.11,0,0,0-.14.18Z" transform="translate(1.36)"/><path class="cls-5" d="M83,8.74c.11.08.25-.1.13-.19s-.25.1-.13.19Z" transform="translate(1.36)"/><path class="cls-5" d="M90,10.67c.11.09.25-.09.14-.18a.11.11,0,0,0-.14.18Z" transform="translate(1.36)"/><path class="cls-5" d="M85.27,12.09a.11.11,0,0,0,.14-.18.11.11,0,0,0-.14.18Z" transform="translate(1.36)"/><path class="cls-6" d="M90.7,19.49a.11.11,0,0,0,.14-.18c-.11-.09-.25.09-.14.18Z" transform="translate(1.36)"/><path class="cls-6" d="M83.89,18.11a.11.11,0,0,0,.14-.18.11.11,0,0,0-.14.18Z" transform="translate(1.36)"/><path class="cls-6" d="M88.66,15.3a.11.11,0,0,0,.14-.18c-.11-.09-.25.09-.14.18Z" transform="translate(1.36)"/><path class="cls-6" d="M83,11.14a.11.11,0,0,0,.14-.18.11.11,0,0,0-.14.18Z" transform="translate(1.36)"/><path class="cls-6" d="M89.92,9.19c.11.09.25-.09.14-.18a.11.11,0,0,0-.14.18Z" transform="translate(1.36)"/><path class="cls-6" d="M83.55,5.12c.11.09.25-.09.14-.18a.11.11,0,0,0-.14.18Z" transform="translate(1.36)"/><path class="cls-6" d="M89.23,4.83c.11.09.25-.1.13-.18s-.25.09-.13.18Z" transform="translate(1.36)"/><path class="cls-6" d="M98.16,9.25c.11.09.25-.09.13-.18s-.25.09-.13.18Z" transform="translate(1.36)"/><path class="cls-6" d="M102.94,17.77c.11.08.25-.1.14-.19s-.26.1-.14.19Z" transform="translate(1.36)"/><path class="cls-6" d="M92.71,11.8l.1-.13a.19.19,0,0,0,0-.08,2622488257879.52,2622488257879.52,0,0,1,0-.08.1.1,0,0,0-.09,0,.08.08,0,0,0-.07,0l-.1.13a.08.08,0,0,0,0,.08s0,0,0,0l0,0a.08.08,0,0,0,.08,0,.12.12,0,0,0,.08,0Z" transform="translate(1.36)"/><path class="cls-6" d="M95.39,7.33c.11.09.25-.09.14-.18a.11.11,0,0,0-.14.18Z" transform="translate(1.36)"/><path class="cls-6" d="M97.37,17.13c.11.09.25-.09.14-.18a.11.11,0,0,0-.14.18Z" transform="translate(1.36)"/><path class="cls-6" d="M96.67,19.62c.11.09.25-.09.14-.18a.11.11,0,0,0-.14.18Z" transform="translate(1.36)"/><path class="cls-6" d="M92.07,20.34a.11.11,0,0,0,.14-.18c-.11-.09-.25.09-.14.18Z" transform="translate(1.36)"/><path class="cls-6" d="M96.84,24.4a.11.11,0,0,0,.14-.18.11.11,0,0,0-.14.18Z" transform="translate(1.36)"/><path class="cls-6" d="M93.38,26.8a.11.11,0,0,0,.14-.18c-.11-.09-.25.09-.14.18Z" transform="translate(1.36)"/><path class="cls-6" d="M90.34,26.29a.11.11,0,0,0,.14-.18c-.11-.09-.25.09-.14.18Z" transform="translate(1.36)"/><path class="cls-6" d="M87.91,32.1a.11.11,0,0,0,.14-.18.11.11,0,0,0-.14.18Z" transform="translate(1.36)"/><path class="cls-6" d="M83.39,31.66a.11.11,0,0,0,.14-.18.11.11,0,0,0-.14.18Z" transform="translate(1.36)"/><path class="cls-6" d="M83,28.52c.11.09.25-.09.14-.18a.11.11,0,0,0-.14.18Z" transform="translate(1.36)"/><path class="cls-6" d="M79.65,27.58a.11.11,0,0,0,.14-.18c-.11-.09-.25.09-.14.18Z" transform="translate(1.36)"/><path class="cls-6" d="M75.79,22.61c.12.08.26-.1.14-.19s-.25.1-.14.19Z" transform="translate(1.36)"/><path class="cls-6" d="M74.46,18.55a.11.11,0,0,0,.14-.18.11.11,0,0,0-.14.18Z" transform="translate(1.36)"/><path class="cls-6" d="M75.05,8.3a.11.11,0,0,0,.14-.18.11.11,0,0,0-.14.18Z" transform="translate(1.36)"/><path class="cls-6" d="M80.46,12a.11.11,0,0,0,.14-.18.11.11,0,0,0-.14.18Z" transform="translate(1.36)"/><path class="cls-6" d="M75.23,12.28c.12.08.26-.1.14-.19s-.26.1-.14.19Z" transform="translate(1.36)"/><path class="cls-6" d="M79.59,15.82c.11.09.25-.09.13-.18s-.25.09-.13.18Z" transform="translate(1.36)"/><path class="cls-6" d="M75.78,18.15l.12.1.09,0,0,0,0,0a.29.29,0,0,0,0-.09.14.14,0,0,0,0-.08L75.92,18a.16.16,0,0,0-.09,0l0,0,0,0a.11.11,0,0,0,0,.08.14.14,0,0,0,0,.08Z" transform="translate(1.36)"/><path class="cls-6" d="M82.46,22.87a.11.11,0,0,0,.14-.18.11.11,0,0,0-.14.18Z" transform="translate(1.36)"/><path class="cls-6" d="M82.26,22.6a.34.34,0,0,0,.42-.54.34.34,0,0,0-.42.54Z" transform="translate(1.36)"/><path class="cls-6" d="M78.74,19.29a.34.34,0,0,0,.42-.54.34.34,0,0,0-.42.54Z" transform="translate(1.36)"/><path class="cls-6" d="M81.76,15.35c.35.27.77-.28.42-.54a.34.34,0,0,0-.42.54Z" transform="translate(1.36)"/><path class="cls-6" d="M89.79,26a.34.34,0,0,0,.42-.54.34.34,0,0,0-.42.54Z" transform="translate(1.36)"/><path class="cls-6" d="M86.07,26.33a.35.35,0,0,0,.42-.55.35.35,0,0,0-.42.55Z" transform="translate(1.36)"/><path class="cls-6" d="M89.84,30.63a.34.34,0,0,0,.42-.54.34.34,0,0,0-.42.54Z" transform="translate(1.36)"/><path class="cls-6" d="M84.86,31.86a.34.34,0,0,0,.41-.54.34.34,0,0,0-.41.54Z" transform="translate(1.36)"/><path class="cls-6" d="M79.35,30.87a.34.34,0,0,0,.42-.54.34.34,0,0,0-.42.54Z" transform="translate(1.36)"/><path class="cls-6" d="M75.63,27.82a.34.34,0,0,0,.42-.54.34.34,0,0,0-.42.54Z" transform="translate(1.36)"/><path class="cls-6" d="M86.73,6.23a.34.34,0,0,0,.42-.54.34.34,0,0,0-.42.54Z" transform="translate(1.36)"/><path class="cls-6" d="M79.16,6.89c.35.27.77-.28.42-.54a.34.34,0,0,0-.42.54Z" transform="translate(1.36)"/><path class="cls-6" d="M86.94,11.24a.34.34,0,0,0,.41-.55c-.35-.27-.76.28-.41.55Z" transform="translate(1.36)"/><path class="cls-6" d="M92.68,4.53A.34.34,0,0,0,93.1,4a.34.34,0,0,0-.42.54Z" transform="translate(1.36)"/><path class="cls-6" d="M102.28,12.3a.35.35,0,0,0,.42-.55.35.35,0,0,0-.42.55Z" transform="translate(1.36)"/><path class="cls-6" d="M97.07,13.56a.35.35,0,0,0,.42-.55.35.35,0,0,0-.42.55Z" transform="translate(1.36)"/><path class="cls-6" d="M100.17,24a.34.34,0,0,0,.42-.54.34.34,0,0,0-.42.54Z" transform="translate(1.36)"/><path class="cls-6" d="M96.84,29.94c.35.27.76-.28.41-.55a.34.34,0,0,0-.41.55Z" transform="translate(1.36)"/></g><g class="cls-7"><path class="cls-8" d="M111.88,39.73a9.47,9.47,0,0,0,.68,3.7c1.13,3.35,2.37,6.73,4.91,8.43,1.86,1.26,4.31,1.53,6.76,1.73,3.61.29,7.54.37,11.82-2.32a30.62,30.62,0,0,0,5.5-4.69A66.49,66.49,0,0,0,156.61,21.8a20.58,20.58,0,0,0,1.3-7.37c-.23-3.15-2-5-3.78-6.63s-3.3-3.15-5-4.66S145.55.07,143,0c-4.08-.11-9.35,3.54-13.63,8.23A68.1,68.1,0,0,0,118,25.05C116,29.53,112.1,35.49,111.88,39.73Z" transform="translate(1.36)"/><path class="cls-9" d="M116.63,50.23c1.18-.48,2.38-1.5,3.58-2.15,3-1.66,5.54-.81,8.45-1.66,3.87-1.13,8.35-5.56,10.58-10.46a28.71,28.71,0,0,1,2.27-4.75,21.49,21.49,0,0,1,4.36-4.13c5.66-4.77,10.28-12.91,11.07-19.53a10.7,10.7,0,0,1,3.59,4,9.69,9.69,0,0,1,1,6.41,24.92,24.92,0,0,1-2.56,6.7c-6.48,12.67-16.34,23.64-26,33.67-2.17,2.23-4.55,4.59-6.79,5.18a5.32,5.32,0,0,1-3.22-.24,19.37,19.37,0,0,1-8.84-6c-1.28-1.5-4.65-4.72-2.82-8.52C113.23,49,113.92,51.33,116.63,50.23Z" transform="translate(1.36)"/><path class="cls-5" d="M145.09,12.69c.15-.22,0-.34-.19-.13s0,.35.19.13Z" transform="translate(1.36)"/><path class="cls-5" d="M135.28,28c.14-.22-.05-.35-.2-.13s0,.34.2.13Z" transform="translate(1.36)"/><path class="cls-5" d="M134.05,20c.14-.22-.05-.34-.19-.13s0,.35.19.13Z" transform="translate(1.36)"/><path class="cls-5" d="M133.19,29.68c.14-.22-.05-.34-.19-.13s.05.35.19.13Z" transform="translate(1.36)"/><path class="cls-5" d="M121.39,39.57c.15-.21,0-.34-.19-.12s0,.34.19.12Z" transform="translate(1.36)"/><path class="cls-5" d="M125.75,28.13c.14-.21,0-.34-.19-.12s0,.34.19.12Z" transform="translate(1.36)"/><path class="cls-5" d="M126.24,34.61c.15-.22,0-.34-.19-.13s0,.35.19.13Z" transform="translate(1.36)"/><path class="cls-6" d="M137,23c.15-.22,0-.34-.19-.13s.05.35.19.13Z" transform="translate(1.36)"/><path class="cls-6" d="M133.43,33.94c.15-.22,0-.34-.19-.13s0,.35.19.13Z" transform="translate(1.36)"/><path class="cls-6" d="M131.21,28c.15-.22,0-.34-.19-.13s0,.35.19.13Z" transform="translate(1.36)"/><path class="cls-6" d="M124.41,38.51c.15-.22,0-.34-.19-.12s0,.34.19.12Z" transform="translate(1.36)"/><path class="cls-6" d="M123.87,28.93c.14-.22-.05-.35-.19-.13s0,.34.19.13Z" transform="translate(1.36)"/><path class="cls-6" d="M117,40.39c.15-.21,0-.34-.19-.12s0,.34.19.12Z" transform="translate(1.36)"/><path class="cls-6" d="M118.18,32c.14-.22-.05-.35-.19-.13s.05.34.19.13Z" transform="translate(1.36)"/><path class="cls-6" d="M126.19,16.48c.15-.22,0-.34-.19-.13s0,.35.19.13Z" transform="translate(1.36)"/><path class="cls-6" d="M138.22,5.37c.14-.21-.05-.34-.19-.12s0,.34.19.12Z" transform="translate(1.36)"/><path class="cls-6" d="M127.91,23.53l-.14-.09a.09.09,0,0,0-.1,0l0,0-.05.06a.3.3,0,0,0,0,.14s0,.08,0,.09l.13.09a.09.09,0,0,0,.1,0l.06,0,0-.06a.3.3,0,0,0,0-.14s0-.08,0-.09Z" transform="translate(1.36)"/><path class="cls-6" d="M123,21.53c.14-.21,0-.34-.19-.12s0,.34.19.12Z" transform="translate(1.36)"/><path class="cls-6" d="M135.89,14.07c.15-.22,0-.35-.19-.13s.05.34.19.13Z" transform="translate(1.36)"/><path class="cls-6" d="M138.84,14c.14-.21-.05-.34-.19-.12s0,.34.19.12Z" transform="translate(1.36)"/><path class="cls-6" d="M138.49,20.58c.14-.22-.05-.35-.19-.13s0,.34.19.13Z" transform="translate(1.36)"/><path class="cls-6" d="M144.9,11.54c.15-.22,0-.35-.19-.13s0,.34.19.13Z" transform="translate(1.36)"/><path class="cls-6" d="M147,15.65c.15-.22,0-.34-.19-.13s.05.35.19.13Z" transform="translate(1.36)"/><path class="cls-6" d="M145.5,20.47c.14-.22-.05-.34-.19-.13s0,.35.19.13Z" transform="translate(1.36)"/><path class="cls-6" d="M152.14,21.48c.14-.21,0-.34-.19-.12s0,.34.19.12Z" transform="translate(1.36)"/><path class="cls-6" d="M150.36,28.49c.14-.22-.05-.34-.19-.13s0,.35.19.13Z" transform="translate(1.36)"/><path class="cls-6" d="M146.28,30.56c.15-.22,0-.35-.19-.13s0,.34.19.13Z" transform="translate(1.36)"/><path class="cls-6" d="M144.2,36c.14-.22,0-.35-.19-.13s0,.34.19.13Z" transform="translate(1.36)"/><path class="cls-6" d="M136.88,44.09c.14-.22,0-.34-.19-.13s0,.35.19.13Z" transform="translate(1.36)"/><path class="cls-6" d="M131.41,48c.14-.22,0-.35-.19-.13s0,.34.19.13Z" transform="translate(1.36)"/><path class="cls-6" d="M118.67,51.75c.14-.21,0-.34-.19-.12s0,.34.19.12Z" transform="translate(1.36)"/><path class="cls-6" d="M124.86,41.88c.15-.21,0-.34-.19-.12s0,.34.19.12Z" transform="translate(1.36)"/><path class="cls-6" d="M123.72,49.66c.15-.22,0-.34-.19-.13s0,.35.19.13Z" transform="translate(1.36)"/><path class="cls-6" d="M129.37,41.48c.15-.22,0-.35-.19-.13s0,.34.19.13Z" transform="translate(1.36)"/><path class="cls-6" d="M131.26,46.15l.16-.23a.3.3,0,0,0,.05-.14v-.06l0,0a.12.12,0,0,0-.1,0,.26.26,0,0,0-.11.1l-.16.24a.24.24,0,0,0,0,.13.11.11,0,0,0,0,.06s0,0,0,0a.12.12,0,0,0,.1,0,.24.24,0,0,0,.1-.1Z" transform="translate(1.36)"/><path class="cls-6" d="M139,33.92c.15-.22,0-.35-.19-.13s0,.35.19.13Z" transform="translate(1.36)"/><path class="cls-6" d="M138.64,34.34c.44-.65-.13-1-.57-.38s.14,1,.57.38Z" transform="translate(1.36)"/><path class="cls-6" d="M133.51,41.16c.44-.65-.13-1-.57-.38s.14,1,.57.38Z" transform="translate(1.36)"/><path class="cls-6" d="M129.38,38.41c.43-.65-.14-1-.57-.38s.14,1,.57.38Z" transform="translate(1.36)"/><path class="cls-6" d="M144.92,21.45c.44-.65-.13-1-.57-.38s.14,1,.57.38Z" transform="translate(1.36)"/><path class="cls-6" d="M144.38,26.89c.43-.65-.14-1-.57-.38s.13,1,.57.38Z" transform="translate(1.36)"/><path class="cls-6" d="M150.83,19.24c.43-.65-.14-1-.57-.38s.13,1,.57.38Z" transform="translate(1.36)"/><path class="cls-6" d="M151,26.19c.43-.65-.14-1-.57-.38s.13,1,.57.38Z" transform="translate(1.36)"/><path class="cls-6" d="M148.26,34.94c.43-.65-.14-1-.57-.38s.13,1,.57.38Z" transform="translate(1.36)"/><path class="cls-6" d="M143.4,42c.43-.65-.14-1-.57-.38s.13,1,.57.38Z" transform="translate(1.36)"/><path class="cls-6" d="M119.27,35.08c.43-.65-.14-1-.57-.38s.13,1,.57.38Z" transform="translate(1.36)"/><path class="cls-6" d="M118,46.2c.43-.65-.14-1-.57-.38s.14,1,.57.38Z" transform="translate(1.36)"/><path class="cls-6" d="M125.62,32.49c.43-.65-.14-1-.57-.38s.14,1,.57.38Z" transform="translate(1.36)"/><path class="cls-6" d="M118.76,26.89c.43-.65-.14-1-.57-.38s.13,1,.57.38Z" transform="translate(1.36)"/><path class="cls-6" d="M131.16,8.86c.43-.65-.14-1-.57-.38s.14,1,.57.38Z" transform="translate(1.36)"/><path class="cls-6" d="M131.32,16.14c.43-.65-.14-1-.57-.38s.13,1,.57.38Z" transform="translate(1.36)"/><path class="cls-6" d="M145.32,6.69c.43-.65-.14-1-.57-.38s.14,1,.57.38Z" transform="translate(1.36)"/><path class="cls-6" d="M151.87,9c.43-.65-.14-1-.57-.38s.13,1,.57.38Z" transform="translate(1.36)"/></g><g class="cls-10"><path class="cls-3" d="M108.21,191.66a9,9,0,0,0,.86,2.75,24.26,24.26,0,0,0,4.52,7.57,23.92,23.92,0,0,0,5.32,3.78c2.79,1.6,5.81,3.19,8.83,3a10.2,10.2,0,0,0,3.78-1,17,17,0,0,0,9.25-10.8,9.37,9.37,0,0,0,.32-4.44c-.47-2.21-2-4.13-3.5-5.93s-2.81-3.39-4.24-5.07a18.2,18.2,0,0,0-5-4.49,10.47,10.47,0,0,0-9.67.23,16.92,16.92,0,0,0-7.13,6.89C110.45,186.42,108,188.9,108.21,191.66Z" transform="translate(1.36)"/><path class="cls-4" d="M112.8,200.56a19.55,19.55,0,0,0,2.54-.06c2.16.06,4.16,1.61,6.31,2.17a6.24,6.24,0,0,0,7.13-2.92,8,8,0,0,1,1.3-2.3,6.77,6.77,0,0,1,2.95-1.09,9.1,9.1,0,0,0,6.69-8.81,19.14,19.14,0,0,1,3.1,4.07,8.68,8.68,0,0,1,1.37,4.71,7.65,7.65,0,0,1-1.34,3.5c-3.8,6-10.34,9.53-16.84,12.5-1.45.66-3.06,1.31-4.71.85a7.76,7.76,0,0,1-2.49-1.42,37.3,37.3,0,0,1-7.3-7.44c-1.11-1.5-4-5-2.93-6.82C110.09,198.42,110.83,200.25,112.8,200.56Z" transform="translate(1.36)"/><path class="cls-5" d="M131.13,186.4c.09-.09-.07-.25-.16-.16s.07.25.16.16Z" transform="translate(1.36)"/><path class="cls-5" d="M125,192.87c.09-.09-.06-.25-.15-.16s.06.25.15.16Z" transform="translate(1.36)"/><path class="cls-5" d="M123.36,187c.09-.09-.07-.25-.16-.16s.07.25.16.16Z" transform="translate(1.36)"/><path class="cls-5" d="M123.58,193.19c.09-.09-.06-.25-.16-.16s.07.25.16.16Z" transform="translate(1.36)"/><path class="cls-5" d="M115.47,195.25c.09-.09-.07-.25-.16-.16s.07.25.16.16Z" transform="translate(1.36)"/><path class="cls-5" d="M117.75,189.26c.09-.09-.07-.25-.16-.16s.07.25.16.16Z" transform="translate(1.36)"/><path class="cls-5" d="M118.72,193.8c.09-.09-.06-.25-.16-.16s.07.25.16.16Z" transform="translate(1.36)"/><path class="cls-6" d="M125.92,190.22c.09-.09-.06-.25-.16-.16s.07.25.16.16Z" transform="translate(1.36)"/><path class="cls-6" d="M124.16,196.14c.09-.09-.07-.24-.16-.16s.07.25.16.16Z" transform="translate(1.36)"/><path class="cls-6" d="M121.92,191.31c.09-.09-.07-.25-.16-.16s.07.25.16.16Z" transform="translate(1.36)"/><path class="cls-6" d="M117.68,195.71c.09-.09-.07-.25-.16-.16s.07.25.16.16Z" transform="translate(1.36)"/><path class="cls-6" d="M116.39,189.06c.09-.09-.07-.25-.16-.16s.06.25.16.16Z" transform="translate(1.36)"/><path class="cls-6" d="M112.18,194.09c.09-.09-.07-.25-.16-.16s.07.25.16.16Z" transform="translate(1.36)"/><path class="cls-6" d="M112.32,188.89c.09-.09-.07-.25-.16-.16s.07.25.16.16Z" transform="translate(1.36)"/><path class="cls-6" d="M117,181.6c.09-.09-.07-.25-.16-.16s.07.25.16.16Z" transform="translate(1.36)"/><path class="cls-6" d="M125.21,178.81c.09-.08-.07-.24-.16-.15s.07.24.16.15Z" transform="translate(1.36)"/><path class="cls-6" d="M119,187l-.11-.11-.07,0h0l0,0s0,0,0,.07a.11.11,0,0,0,0,.08l.11.11a.12.12,0,0,0,.08,0h0l0,0a.09.09,0,0,0,0-.07.2.2,0,0,0,0-.08Z" transform="translate(1.36)"/><path class="cls-6" d="M115.06,183.76c.09-.09-.06-.25-.16-.16s.07.25.16.16Z" transform="translate(1.36)"/><path class="cls-6" d="M124.22,183.75c.09-.09-.06-.25-.16-.16s.07.25.16.16Z" transform="translate(1.36)"/><path class="cls-6" d="M126.47,184.84c.09-.09-.07-.25-.16-.16s.07.25.16.16Z" transform="translate(1.36)"/><path class="cls-6" d="M126.8,189.13c.09-.09-.07-.25-.16-.16s.07.25.16.16Z" transform="translate(1.36)"/><path class="cls-6" d="M130.88,185.55c.09-.09-.07-.25-.16-.16s.07.25.16.16Z" transform="translate(1.36)"/><path class="cls-6" d="M132.84,189.12c.09-.09-.07-.25-.16-.16s.07.25.16.16Z" transform="translate(1.36)"/><path class="cls-6" d="M132.15,191.78c.09-.09-.07-.25-.16-.16s.07.25.16.16Z" transform="translate(1.36)"/><path class="cls-6" d="M137.32,195c.09-.09-.07-.24-.16-.16s.07.25.16.16Z" transform="translate(1.36)"/><path class="cls-6" d="M136.6,199.06c.09-.09-.07-.25-.16-.16s.07.25.16.16Z" transform="translate(1.36)"/><path class="cls-6" d="M133.67,198.86c.09-.09-.06-.25-.16-.16s.07.25.16.16Z" transform="translate(1.36)"/><path class="cls-6" d="M132.57,201.71c.09-.09-.06-.25-.15-.16s.06.25.15.16Z" transform="translate(1.36)"/><path class="cls-6" d="M127.72,204.3c.09-.09-.07-.25-.16-.16s.07.25.16.16Z" transform="translate(1.36)"/><path class="cls-6" d="M123.89,204.77c.09-.09-.07-.25-.16-.16s.07.25.16.16Z" transform="translate(1.36)"/><path class="cls-6" d="M114.5,202.37c.09-.08-.07-.24-.16-.15s.07.24.16.15Z" transform="translate(1.36)"/><path class="cls-6" d="M118.33,198.15c.09-.09-.07-.25-.16-.16s.07.25.16.16Z" transform="translate(1.36)"/><path class="cls-6" d="M118.17,202.93c.09-.09-.07-.25-.16-.16s.07.25.16.16Z" transform="translate(1.36)"/><path class="cls-6" d="M121.74,199.63c.09-.09-.07-.25-.16-.16s.07.25.16.16Z" transform="translate(1.36)"/><path class="cls-6" d="M123.61,203.5l.1-.09a.11.11,0,0,0,0-.08.08.08,0,0,0,0,0l0,0a.1.1,0,0,0-.07,0,.08.08,0,0,0-.07,0l-.1.1a.08.08,0,0,0,0,.07.06.06,0,0,0,0,0l0,0s.05,0,.08,0a.09.09,0,0,0,.07,0Z" transform="translate(1.36)"/><path class="cls-6" d="M128.44,198.31c.09-.09-.07-.25-.16-.16s.07.24.16.16Z" transform="translate(1.36)"/><path class="cls-6" d="M128.18,198.44c.27-.27-.2-.75-.48-.48s.2.74.48.48Z" transform="translate(1.36)"/><path class="cls-6" d="M124.88,201c.27-.27-.2-.75-.47-.48s.2.75.47.48Z" transform="translate(1.36)"/><path class="cls-6" d="M121.47,197.57c.27-.27-.2-.74-.47-.48s.19.75.47.48Z" transform="translate(1.36)"/><path class="cls-6" d="M131.8,192.22c.27-.27-.2-.75-.47-.48s.2.75.47.48Z" transform="translate(1.36)"/><path class="cls-6" d="M131.88,195.66c.27-.27-.2-.74-.47-.47s.2.74.47.47Z" transform="translate(1.36)"/><path class="cls-6" d="M136.11,193c.27-.27-.2-.75-.47-.48s.2.75.47.48Z" transform="translate(1.36)"/><path class="cls-6" d="M136.88,197.77c.28-.27-.19-.75-.47-.48s.2.75.47.48Z" transform="translate(1.36)"/><path class="cls-6" d="M135.58,202.58c.27-.27-.2-.75-.47-.48s.2.75.47.48Z" transform="translate(1.36)"/><path class="cls-6" d="M132.5,205.39c.28-.27-.19-.74-.47-.47s.2.74.47.47Z" transform="translate(1.36)"/><path class="cls-6" d="M113.43,191.41c.27-.27-.2-.75-.47-.48s.2.75.47.48Z" transform="translate(1.36)"/><path class="cls-6" d="M113.49,198.39c.28-.27-.19-.74-.47-.47s.2.74.47.47Z" transform="translate(1.36)"/><path class="cls-6" d="M118.05,192.13c.27-.26-.2-.74-.47-.47s.2.74.47.47Z" transform="translate(1.36)"/><path class="cls-6" d="M112.29,185.71c.28-.27-.19-.75-.47-.48s.2.74.47.48Z" transform="translate(1.36)"/><path class="cls-6" d="M120.13,178.42c.27-.27-.2-.75-.47-.48s.2.74.47.48Z" transform="translate(1.36)"/><path class="cls-6" d="M120.91,183.36c.28-.26-.19-.74-.47-.47s.2.74.47.47Z" transform="translate(1.36)"/><path class="cls-6" d="M130.76,182.46c.27-.27-.2-.75-.48-.48s.2.75.48.48Z" transform="translate(1.36)"/><path class="cls-6" d="M136,186.56c.27-.27-.2-.75-.47-.48s.2.75.47.48Z" transform="translate(1.36)"/></g><g class="cls-11"><path class="cls-3" d="M188.13,249.11a4.82,4.82,0,0,0-.83,1.42A12.47,12.47,0,0,0,186,255.3a12.3,12.3,0,0,0,.71,3.58,9.17,9.17,0,0,0,2.61,4.65,6.67,6.67,0,0,0,2.13,1.07,11.87,11.87,0,0,0,8.89-.66,5.71,5.71,0,0,0,2.1-1.63,7.44,7.44,0,0,0,1.05-3.72c.12-1.22.24-2.44.34-3.66a9,9,0,0,0-.25-3.73,6.28,6.28,0,0,0-4.42-3.68,11.83,11.83,0,0,0-6.22-.06C191.44,247.91,189.25,247.93,188.13,249.11Z" transform="translate(1.36)"/><path class="cls-4" d="M186.26,254.43a13.84,13.84,0,0,0,1.16,1c.93.86,1.15,2.26,1.86,3.32a4.14,4.14,0,0,0,4.47,1.63,5.37,5.37,0,0,1,1.6-.4,4.39,4.39,0,0,1,1.79.72,6.25,6.25,0,0,0,6.87-.88,9.37,9.37,0,0,1-.41,2.83,4.6,4.6,0,0,1-1.46,2.39,5.11,5.11,0,0,1-2.14.87c-4.34.89-8.82-.27-13-1.63a4.43,4.43,0,0,1-2.48-1.51,3.86,3.86,0,0,1-.48-1.53,18.2,18.2,0,0,1,0-5.8c.17-1,.42-3.53,1.7-3.85C186,252.52,185.52,253.53,186.26,254.43Z" transform="translate(1.36)"/><path class="cls-5" d="M200.68,256a.06.06,0,0,0,0-.12.06.06,0,0,0,0,.12Z" transform="translate(1.36)"/><path class="cls-5" d="M195.11,256.16a.07.07,0,0,0,0-.13.07.07,0,0,0,0,.13Z" transform="translate(1.36)"/><path class="cls-5" d="M196.94,253.19a.06.06,0,0,0,0-.12.06.06,0,0,0,0,.12Z" transform="translate(1.36)"/><path class="cls-5" d="M194.32,255.72a.06.06,0,1,0,0-.12.06.06,0,0,0,0,.12Z" transform="translate(1.36)"/><path class="cls-5" d="M189.79,253.37a.07.07,0,0,0,0-.13.07.07,0,0,0,0,.13Z" transform="translate(1.36)"/><path class="cls-5" d="M193.45,251.89a.07.07,0,0,0,0-.13.07.07,0,0,0,0,.13Z" transform="translate(1.36)"/><path class="cls-5" d="M191.88,254.06a.06.06,0,0,0,0-.12.06.06,0,0,0,0,.12Z" transform="translate(1.36)"/><path class="cls-6" d="M196.68,255.46a.06.06,0,0,0,0-.12.06.06,0,0,0,0,.12Z" transform="translate(1.36)"/><path class="cls-6" d="M193.28,257.12a.07.07,0,0,0,0-.13.07.07,0,0,0,0,.13Z" transform="translate(1.36)"/><path class="cls-6" d="M194.41,254.33a.07.07,0,0,0,0-.13.07.07,0,0,0,0,.13Z" transform="translate(1.36)"/><path class="cls-6" d="M190.57,254.41a.06.06,0,0,0,0-.12.06.06,0,0,0,0,.12Z" transform="translate(1.36)"/><path class="cls-6" d="M192.93,251.28a.07.07,0,0,0,0-.13.07.07,0,0,0,0,.13Z" transform="translate(1.36)"/><path class="cls-6" d="M188.83,251.62a.06.06,0,0,0,0-.12.06.06,0,0,0,0,.12Z" transform="translate(1.36)"/><path class="cls-6" d="M191.18,249.62a.06.06,0,0,0,0-.12.06.06,0,0,0,0,.12Z" transform="translate(1.36)"/><path class="cls-6" d="M196.5,248.57a.06.06,0,0,0,0-.12.06.06,0,0,0,0,.12Z" transform="translate(1.36)"/><path class="cls-6" d="M201.38,250.67a.07.07,0,0,0,0-.13.07.07,0,0,0,0,.13Z" transform="translate(1.36)"/><path class="cls-6" d="M195,251.48v-.09a.09.09,0,0,0,0,0h-.09s0,0,0,0v.09a.08.08,0,0,0,0,0h0l0,0a.06.06,0,0,0,0,0Z" transform="translate(1.36)"/><path class="cls-6" d="M194.67,248.66a.06.06,0,1,0,0-.12.06.06,0,1,0,0,.12Z" transform="translate(1.36)"/><path class="cls-6" d="M198.77,252.23a.06.06,0,0,0,0-.12.06.06,0,1,0,0,.12Z" transform="translate(1.36)"/><path class="cls-6" d="M199.29,253.54a.06.06,0,0,0,0-.12.06.06,0,0,0,0,.12Z" transform="translate(1.36)"/><path class="cls-6" d="M197.55,255.37a.06.06,0,0,0,0-.12.06.06,0,0,0,0,.12Z" transform="translate(1.36)"/><path class="cls-6" d="M201,255.55a.07.07,0,0,0,0-.13.07.07,0,0,0,0,.13Z" transform="translate(1.36)"/><path class="cls-6" d="M200.25,257.73a.07.07,0,0,0,0-.13.07.07,0,0,0,0,.13Z" transform="translate(1.36)"/><path class="cls-6" d="M198.77,258.51a.06.06,0,0,0,0-.12.06.06,0,0,0,0,.12Z" transform="translate(1.36)"/><path class="cls-6" d="M199.64,261.82a.06.06,0,0,0,0-.12.06.06,0,0,0,0,.12Z" transform="translate(1.36)"/><path class="cls-6" d="M197.55,263.13a.06.06,0,0,0,0-.12.06.06,0,0,0,0,.12Z" transform="translate(1.36)"/><path class="cls-6" d="M196.33,261.91a.07.07,0,0,0,0-.13.07.07,0,0,0,0,.13Z" transform="translate(1.36)"/><path class="cls-6" d="M194.58,262.61a.07.07,0,0,0,0-.13.07.07,0,0,0,0,.13Z" transform="translate(1.36)"/><path class="cls-6" d="M191.27,261.73a.06.06,0,0,0,0-.12.06.06,0,0,0,0,.12Z" transform="translate(1.36)"/><path class="cls-6" d="M189.35,260.43a.07.07,0,0,0,0-.13.07.07,0,0,0,0,.13Z" transform="translate(1.36)"/><path class="cls-6" d="M186.22,255.81a.07.07,0,0,0,0-.13.07.07,0,0,0,0,.13Z" transform="translate(1.36)"/><path class="cls-6" d="M189.79,255.63a.06.06,0,1,0,0-.12.06.06,0,0,0,0,.12Z" transform="translate(1.36)"/><path class="cls-6" d="M187.61,257.46a.06.06,0,0,0,0-.12.06.06,0,0,0,0,.12Z" transform="translate(1.36)"/><path class="cls-6" d="M190.66,257.55a.06.06,0,1,0,0-.12.06.06,0,1,0,0,.12Z" transform="translate(1.36)"/><path class="cls-6" d="M189.79,259.82h.09l0,0s0,0,0,0v0a.08.08,0,0,0,0-.05l0,0h-.09l0,0,0,0v0a0,0,0,0,0,0,0l0,0Z" transform="translate(1.36)"/><path class="cls-6" d="M194.23,259.64a.06.06,0,1,0,0-.12.06.06,0,1,0,0,.12Z" transform="translate(1.36)"/><path class="cls-6" d="M194.06,259.59a.19.19,0,0,0,0-.37.19.19,0,0,0,0,.37Z" transform="translate(1.36)"/><path class="cls-6" d="M191.45,259.33a.19.19,0,0,0,0-.37.19.19,0,0,0,0,.37Z" transform="translate(1.36)"/><path class="cls-6" d="M191.45,256.63a.19.19,0,0,0,0-.37.19.19,0,0,0,0,.37Z" transform="translate(1.36)"/><path class="cls-6" d="M198.42,258.55a.19.19,0,0,0,0-.38.19.19,0,0,0,0,.38Z" transform="translate(1.36)"/><path class="cls-6" d="M196.94,259.94a.19.19,0,0,0,0-.37.19.19,0,0,0,0,.37Z" transform="translate(1.36)"/><path class="cls-6" d="M200,260.55a.19.19,0,0,0,0-.37.19.19,0,0,0,0,.37Z" transform="translate(1.36)"/><path class="cls-6" d="M198.24,262.73a.19.19,0,0,0,0-.37.19.19,0,0,0,0,.37Z" transform="translate(1.36)"/><path class="cls-6" d="M195.54,264.13a.19.19,0,0,0,0-.38.19.19,0,0,0,0,.38Z" transform="translate(1.36)"/><path class="cls-6" d="M192.93,264a.19.19,0,0,0,0-.37.19.19,0,0,0,0,.37Z" transform="translate(1.36)"/><path class="cls-6" d="M190.57,251.05a.19.19,0,0,0,0-.37.19.19,0,0,0,0,.37Z" transform="translate(1.36)"/><path class="cls-6" d="M187.52,253.84a.19.19,0,0,0,0-.37.19.19,0,0,0,0,.37Z" transform="translate(1.36)"/><path class="cls-6" d="M192.32,253.14a.19.19,0,0,0,0-.37.19.19,0,0,0,0,.37Z" transform="translate(1.36)"/><path class="cls-6" d="M192.58,248.35a.19.19,0,0,0,0-.37.19.19,0,0,0,0,.37Z" transform="translate(1.36)"/><path class="cls-6" d="M199.29,248.52a.19.19,0,0,0,0-.37.19.19,0,0,0,0,.37Z" transform="translate(1.36)"/><path class="cls-6" d="M197.46,250.79a.19.19,0,0,0,0-.37.19.19,0,0,0,0,.37Z" transform="translate(1.36)"/><path class="cls-6" d="M202.25,254.28a.19.19,0,0,0,0-.38.19.19,0,0,0,0,.38Z" transform="translate(1.36)"/><path class="cls-6" d="M202.78,257.94a.19.19,0,0,0,0-.38.19.19,0,0,0,0,.38Z" transform="translate(1.36)"/></g><g class="cls-12"><path class="cls-13" d="M64.54,82a4.69,4.69,0,0,0-.83,1.42,12.38,12.38,0,0,0-1.32,4.76,12.3,12.3,0,0,0,.71,3.58c.54,1.72,1.19,3.53,2.6,4.65a6.85,6.85,0,0,0,2.14,1.08,11.87,11.87,0,0,0,8.89-.67,5.71,5.71,0,0,0,2.1-1.63,7.4,7.4,0,0,0,1-3.71c.12-1.22.24-2.44.34-3.67A9,9,0,0,0,80,84.08a6.28,6.28,0,0,0-4.42-3.68,11.93,11.93,0,0,0-6.22-.06C67.85,80.79,65.66,80.81,64.54,82Z" transform="translate(1.36)"/><path class="cls-14" d="M62.67,87.31a10.72,10.72,0,0,0,1.15,1c.94.87,1.15,2.26,1.87,3.32a4.14,4.14,0,0,0,4.47,1.63,5.61,5.61,0,0,1,1.6-.4,4.39,4.39,0,0,1,1.79.72,6.25,6.25,0,0,0,6.87-.88A9.32,9.32,0,0,1,80,95.5a4.67,4.67,0,0,1-1.46,2.4,5,5,0,0,1-2.14.86c-4.34.89-8.82-.26-13-1.63a4.33,4.33,0,0,1-2.48-1.5,4.09,4.09,0,0,1-.49-1.54,18.5,18.5,0,0,1,0-5.8c.17-1,.42-3.52,1.7-3.84C62.4,85.41,61.92,86.42,62.67,87.31Z" transform="translate(1.36)"/><path class="cls-5" d="M77.09,88.87a.07.07,0,0,0,0-.13.07.07,0,0,0,0,.13Z" transform="translate(1.36)"/><path class="cls-5" d="M71.51,89a.06.06,0,0,0,0-.12.06.06,0,1,0,0,.12Z" transform="translate(1.36)"/><path class="cls-5" d="M73.34,86.08a.07.07,0,0,0,0-.13.07.07,0,0,0,0,.13Z" transform="translate(1.36)"/><path class="cls-5" d="M70.73,88.6a.06.06,0,1,0,0-.12.06.06,0,0,0,0,.12Z" transform="translate(1.36)"/><path class="cls-5" d="M66.2,86.25a.06.06,0,0,0,0-.12.06.06,0,1,0,0,.12Z" transform="translate(1.36)"/><path class="cls-5" d="M69.86,84.77a.06.06,0,1,0,0-.12.06.06,0,0,0,0,.12Z" transform="translate(1.36)"/><path class="cls-5" d="M68.29,87a.07.07,0,0,0,0-.13.07.07,0,0,0,0,.13Z" transform="translate(1.36)"/><path class="cls-6" d="M73.08,88.34a.06.06,0,1,0,0-.12.06.06,0,0,0,0,.12Z" transform="translate(1.36)"/><path class="cls-6" d="M69.68,90a.07.07,0,0,0,0-.13.07.07,0,0,0,0,.13Z" transform="translate(1.36)"/><path class="cls-6" d="M70.82,87.21a.06.06,0,1,0,0-.12.06.06,0,0,0,0,.12Z" transform="translate(1.36)"/><path class="cls-6" d="M67,87.3a.07.07,0,0,0,0-.13.07.07,0,0,0,0,.13Z" transform="translate(1.36)"/><path class="cls-6" d="M69.34,84.16a.06.06,0,1,0,0-.12.06.06,0,0,0,0,.12Z" transform="translate(1.36)"/><path class="cls-6" d="M65.24,84.51a.07.07,0,0,0,0-.13.07.07,0,0,0,0,.13Z" transform="translate(1.36)"/><path class="cls-6" d="M67.59,82.5a.06.06,0,0,0,0-.12.06.06,0,0,0,0,.12Z" transform="translate(1.36)"/><path class="cls-6" d="M72.91,81.46a.07.07,0,0,0,0-.13.07.07,0,0,0,0,.13Z" transform="translate(1.36)"/><path class="cls-6" d="M77.79,83.55a.07.07,0,0,0,0-.13.07.07,0,0,0,0,.13Z" transform="translate(1.36)"/><path class="cls-6" d="M71.4,84.36v-.09a0,0,0,0,0,0,0s0,0,0,0h0a.07.07,0,0,0-.06.06v.09a0,0,0,0,0,0,0l0,0h0a.05.05,0,0,0,0,0s0,0,0,0Z" transform="translate(1.36)"/><path class="cls-6" d="M71.08,81.54a.06.06,0,0,0,0-.12.06.06,0,1,0,0,.12Z" transform="translate(1.36)"/><path class="cls-6" d="M75.18,85.12a.07.07,0,0,0,0-.13.07.07,0,0,0,0,.13Z" transform="translate(1.36)"/><path class="cls-6" d="M75.7,86.43a.07.07,0,0,0,0-.13.07.07,0,0,0,0,.13Z" transform="translate(1.36)"/><path class="cls-6" d="M74,88.26a.07.07,0,0,0,0-.13c-.07,0-.08.13,0,.13Z" transform="translate(1.36)"/><path class="cls-6" d="M77.35,88.43a.06.06,0,1,0,0-.12.06.06,0,1,0,0,.12Z" transform="translate(1.36)"/><path class="cls-6" d="M76.66,90.61a.07.07,0,0,0,0-.13.07.07,0,0,0,0,.13Z" transform="translate(1.36)"/><path class="cls-6" d="M75.18,91.39a.06.06,0,0,0,0-.12.06.06,0,0,0,0,.12Z" transform="translate(1.36)"/><path class="cls-6" d="M76.05,94.71a.07.07,0,0,0,0-.13.07.07,0,0,0,0,.13Z" transform="translate(1.36)"/><path class="cls-6" d="M74,96a.06.06,0,0,0,0-.12c-.07,0-.08.12,0,.12Z" transform="translate(1.36)"/><path class="cls-6" d="M72.73,94.79a.06.06,0,0,0,0-.12.06.06,0,1,0,0,.12Z" transform="translate(1.36)"/><path class="cls-6" d="M71,95.49a.06.06,0,1,0,0-.12.06.06,0,0,0,0,.12Z" transform="translate(1.36)"/><path class="cls-6" d="M67.68,94.62a.07.07,0,0,0,0-.13.07.07,0,0,0,0,.13Z" transform="translate(1.36)"/><path class="cls-6" d="M65.76,93.31a.06.06,0,0,0,0-.12.06.06,0,1,0,0,.12Z" transform="translate(1.36)"/><path class="cls-6" d="M62.62,88.69a.06.06,0,1,0,0-.12.06.06,0,1,0,0,.12Z" transform="translate(1.36)"/><path class="cls-6" d="M66.2,88.52a.07.07,0,0,0,0-.13.07.07,0,0,0,0,.13Z" transform="translate(1.36)"/><path class="cls-6" d="M64,90.35a.07.07,0,0,0,0-.13.07.07,0,0,0,0,.13Z" transform="translate(1.36)"/><path class="cls-6" d="M67.07,90.43a.06.06,0,0,0,0-.12.06.06,0,0,0,0,.12Z" transform="translate(1.36)"/><path class="cls-6" d="M66.2,92.7h.08l0,0a0,0,0,0,0,0,0s0,0,0,0,0,0,0,0h-.18v0a.06.06,0,0,0,0,0l0,0Z" transform="translate(1.36)"/><path class="cls-6" d="M70.64,92.53a.07.07,0,0,0,0-.13.07.07,0,0,0,0,.13Z" transform="translate(1.36)"/><path class="cls-6" d="M70.47,92.48a.19.19,0,0,0,0-.38.19.19,0,0,0,0,.38Z" transform="translate(1.36)"/><path class="cls-6" d="M67.85,92.21a.19.19,0,0,0,0-.37.19.19,0,0,0,0,.37Z" transform="translate(1.36)"/><path class="cls-6" d="M67.85,89.51a.19.19,0,0,0,0-.37.19.19,0,0,0,0,.37Z" transform="translate(1.36)"/><path class="cls-6" d="M74.83,91.43a.19.19,0,0,0,0-.37.19.19,0,0,0,0,.37Z" transform="translate(1.36)"/><path class="cls-6" d="M73.34,92.83a.19.19,0,0,0,0-.38.19.19,0,0,0,0,.38Z" transform="translate(1.36)"/><path class="cls-6" d="M76.4,93.44a.19.19,0,0,0,0-.38.19.19,0,0,0,0,.38Z" transform="translate(1.36)"/><path class="cls-6" d="M74.65,95.61a.19.19,0,0,0,0-.37.19.19,0,0,0,0,.37Z" transform="translate(1.36)"/><path class="cls-6" d="M72,97a.19.19,0,0,0,0-.37A.19.19,0,0,0,72,97Z" transform="translate(1.36)"/><path class="cls-6" d="M69.34,96.92a.19.19,0,0,0,0-.37.19.19,0,0,0,0,.37Z" transform="translate(1.36)"/><path class="cls-6" d="M67,83.93a.19.19,0,0,0,0-.37.19.19,0,0,0,0,.37Z" transform="translate(1.36)"/><path class="cls-6" d="M63.93,86.72a.19.19,0,0,0,0-.37.19.19,0,0,0,0,.37Z" transform="translate(1.36)"/><path class="cls-6" d="M68.73,86a.19.19,0,0,0,0-.38.19.19,0,0,0,0,.38Z" transform="translate(1.36)"/><path class="cls-6" d="M69,81.23a.19.19,0,0,0,0-.37.19.19,0,0,0,0,.37Z" transform="translate(1.36)"/><path class="cls-6" d="M75.7,81.41a.19.19,0,0,0,0-.38.19.19,0,0,0,0,.38Z" transform="translate(1.36)"/><path class="cls-6" d="M73.87,83.67a.19.19,0,0,0,0-.37.19.19,0,0,0,0,.37Z" transform="translate(1.36)"/><path class="cls-6" d="M78.66,87.16a.19.19,0,0,0,0-.37.19.19,0,0,0,0,.37Z" transform="translate(1.36)"/><path class="cls-6" d="M79.18,90.82a.19.19,0,0,0,0-.37.19.19,0,0,0,0,.37Z" transform="translate(1.36)"/></g><g class="cls-15"><path class="cls-13" d="M117.91,136.05a4.69,4.69,0,0,0-.83,1.42,12.19,12.19,0,0,0-1.31,4.76,11.62,11.62,0,0,0,.71,3.58,9,9,0,0,0,2.6,4.65,6.69,6.69,0,0,0,2.13,1.08,11.92,11.92,0,0,0,8.89-.66,5.65,5.65,0,0,0,2.1-1.64,7.4,7.4,0,0,0,1.05-3.71c.12-1.22.24-2.44.34-3.66a9,9,0,0,0-.25-3.73,6.3,6.3,0,0,0-4.42-3.69,11.93,11.93,0,0,0-6.22-.06C121.22,134.85,119,134.87,117.91,136.05Z" transform="translate(1.36)"/><path class="cls-14" d="M116,141.36a10.83,10.83,0,0,0,1.16,1c.94.87,1.15,2.26,1.86,3.33a4.15,4.15,0,0,0,4.47,1.62,5.69,5.69,0,0,1,1.6-.4,4.48,4.48,0,0,1,1.79.72,6.24,6.24,0,0,0,6.87-.87,9.3,9.3,0,0,1-.41,2.82,4.67,4.67,0,0,1-1.46,2.4,5,5,0,0,1-2.14.86c-4.34.89-8.82-.26-13-1.63a4.36,4.36,0,0,1-2.48-1.5,3.91,3.91,0,0,1-.48-1.53,17.92,17.92,0,0,1,0-5.8c.16-1,.41-3.53,1.69-3.85C115.77,139.46,115.3,140.47,116,141.36Z" transform="translate(1.36)"/><path class="cls-5" d="M130.47,142.92c.07,0,.08-.13,0-.13a.07.07,0,0,0,0,.13Z" transform="translate(1.36)"/><path class="cls-5" d="M124.89,143.09a.06.06,0,0,0,0-.12.06.06,0,0,0,0,.12Z" transform="translate(1.36)"/><path class="cls-5" d="M126.72,140.13a.07.07,0,0,0,0-.13.07.07,0,0,0,0,.13Z" transform="translate(1.36)"/><path class="cls-5" d="M124.1,142.66a.07.07,0,0,0,0-.13.07.07,0,0,0,0,.13Z" transform="translate(1.36)"/><path class="cls-5" d="M119.57,140.3a.06.06,0,0,0,0-.12.06.06,0,0,0,0,.12Z" transform="translate(1.36)"/><path class="cls-5" d="M123.23,138.82a.06.06,0,1,0,0-.12.06.06,0,1,0,0,.12Z" transform="translate(1.36)"/><path class="cls-5" d="M121.66,141a.06.06,0,0,0,0-.12.06.06,0,0,0,0,.12Z" transform="translate(1.36)"/><path class="cls-6" d="M126.46,142.39a.06.06,0,1,0,0-.12.06.06,0,1,0,0,.12Z" transform="translate(1.36)"/><path class="cls-6" d="M123.06,144.05a.06.06,0,0,0,0-.12.06.06,0,0,0,0,.12Z" transform="translate(1.36)"/><path class="cls-6" d="M124.19,141.26a.06.06,0,0,0,0-.12.06.06,0,0,0,0,.12Z" transform="translate(1.36)"/><path class="cls-6" d="M120.35,141.35a.07.07,0,0,0,0-.13.07.07,0,0,0,0,.13Z" transform="translate(1.36)"/><path class="cls-6" d="M122.71,138.21a.06.06,0,1,0,0-.12.06.06,0,1,0,0,.12Z" transform="translate(1.36)"/><path class="cls-6" d="M118.61,138.56a.06.06,0,1,0,0-.12.06.06,0,1,0,0,.12Z" transform="translate(1.36)"/><path class="cls-6" d="M121,136.55a.06.06,0,1,0,0-.12.06.06,0,1,0,0,.12Z" transform="translate(1.36)"/><path class="cls-6" d="M126.28,135.51a.07.07,0,0,0,0-.13.07.07,0,0,0,0,.13Z" transform="translate(1.36)"/><path class="cls-6" d="M131.16,137.6a.06.06,0,0,0,0-.12.06.06,0,0,0,0,.12Z" transform="translate(1.36)"/><path class="cls-6" d="M124.77,138.41v-.09a.06.06,0,0,0,0,0h-.05l0,0a.08.08,0,0,0,0,0v.09a.05.05,0,0,0,0,0s0,0,0,0h0s0,0,.05,0,0,0,0,0Z" transform="translate(1.36)"/><path class="cls-6" d="M124.45,135.6a.07.07,0,0,0,0-.13.07.07,0,0,0,0,.13Z" transform="translate(1.36)"/><path class="cls-6" d="M128.55,139.17a.06.06,0,1,0,0-.12.06.06,0,0,0,0,.12Z" transform="translate(1.36)"/><path class="cls-6" d="M129.07,140.48a.07.07,0,0,0,0-.13.07.07,0,0,0,0,.13Z" transform="translate(1.36)"/><path class="cls-6" d="M127.33,142.31a.07.07,0,0,0,0-.13.07.07,0,0,0,0,.13Z" transform="translate(1.36)"/><path class="cls-6" d="M130.73,142.48a.06.06,0,0,0,0-.12.06.06,0,1,0,0,.12Z" transform="translate(1.36)"/><path class="cls-6" d="M130,144.66a.06.06,0,0,0,0-.12.06.06,0,0,0,0,.12Z" transform="translate(1.36)"/><path class="cls-6" d="M128.55,145.44a.06.06,0,0,0,0-.12.06.06,0,0,0,0,.12Z" transform="translate(1.36)"/><path class="cls-6" d="M129.42,148.76a.07.07,0,0,0,0-.13.07.07,0,0,0,0,.13Z" transform="translate(1.36)"/><path class="cls-6" d="M127.33,150.06a.06.06,0,0,0,0-.12.06.06,0,1,0,0,.12Z" transform="translate(1.36)"/><path class="cls-6" d="M126.11,148.84a.06.06,0,0,0,0-.12.06.06,0,1,0,0,.12Z" transform="translate(1.36)"/><path class="cls-6" d="M124.36,149.54a.06.06,0,0,0,0-.12.06.06,0,1,0,0,.12Z" transform="translate(1.36)"/><path class="cls-6" d="M121.05,148.67a.06.06,0,1,0,0-.12.06.06,0,1,0,0,.12Z" transform="translate(1.36)"/><path class="cls-6" d="M119.13,147.36a.06.06,0,0,0,0-.12.06.06,0,0,0,0,.12Z" transform="translate(1.36)"/><path class="cls-6" d="M116,142.74a.06.06,0,0,0,0-.12.06.06,0,0,0,0,.12Z" transform="translate(1.36)"/><path class="cls-6" d="M119.57,142.57a.07.07,0,0,0,0-.13.07.07,0,0,0,0,.13Z" transform="translate(1.36)"/><path class="cls-6" d="M117.39,144.4a.07.07,0,0,0,0-.13.07.07,0,0,0,0,.13Z" transform="translate(1.36)"/><path class="cls-6" d="M120.44,144.49a.07.07,0,0,0,0-.13.07.07,0,0,0,0,.13Z" transform="translate(1.36)"/><path class="cls-6" d="M119.57,146.75h.09a0,0,0,0,0,0,0s0,0,0,0,0,0,0,0a.05.05,0,0,0,0,0l0,0h-.09s0,0,0,0l0,0v0s0,0,0,0,0,0,0,0Z" transform="translate(1.36)"/><path class="cls-6" d="M124,146.58a.07.07,0,0,0,0-.13.07.07,0,0,0,0,.13Z" transform="translate(1.36)"/><path class="cls-6" d="M123.84,146.53a.19.19,0,0,0,0-.37.19.19,0,0,0,0,.37Z" transform="translate(1.36)"/><path class="cls-6" d="M121.23,146.27a.19.19,0,0,0,0-.38.19.19,0,0,0,0,.38Z" transform="translate(1.36)"/><path class="cls-6" d="M121.23,143.56a.19.19,0,0,0,0-.37.19.19,0,0,0,0,.37Z" transform="translate(1.36)"/><path class="cls-6" d="M128.2,145.48a.19.19,0,0,0,0-.37.19.19,0,0,0,0,.37Z" transform="translate(1.36)"/><path class="cls-6" d="M126.72,146.88a.19.19,0,0,0,0-.38.19.19,0,0,0,0,.38Z" transform="translate(1.36)"/><path class="cls-6" d="M129.77,147.49a.19.19,0,0,0,0-.38.19.19,0,0,0,0,.38Z" transform="translate(1.36)"/><path class="cls-6" d="M128,149.67a.19.19,0,0,0,0-.38.19.19,0,0,0,0,.38Z" transform="translate(1.36)"/><path class="cls-6" d="M125.32,151.06a.19.19,0,0,0,0-.37.19.19,0,0,0,0,.37Z" transform="translate(1.36)"/><path class="cls-6" d="M122.71,151a.19.19,0,0,0,0-.37.19.19,0,0,0,0,.37Z" transform="translate(1.36)"/><path class="cls-6" d="M120.35,138a.19.19,0,0,0,0-.38.19.19,0,0,0,0,.38Z" transform="translate(1.36)"/><path class="cls-6" d="M117.3,140.78a.19.19,0,0,0,0-.38.19.19,0,0,0,0,.38Z" transform="translate(1.36)"/><path class="cls-6" d="M122.1,140.08a.19.19,0,0,0,0-.37.19.19,0,0,0,0,.37Z" transform="translate(1.36)"/><path class="cls-6" d="M122.36,135.28a.19.19,0,0,0,0-.37.19.19,0,0,0,0,.37Z" transform="translate(1.36)"/><path class="cls-6" d="M129.07,135.46a.19.19,0,0,0,0-.37.19.19,0,0,0,0,.37Z" transform="translate(1.36)"/><path class="cls-6" d="M127.24,137.72a.19.19,0,0,0,0-.37.19.19,0,0,0,0,.37Z" transform="translate(1.36)"/><path class="cls-6" d="M132,141.21a.19.19,0,0,0,0-.37.19.19,0,0,0,0,.37Z" transform="translate(1.36)"/><path class="cls-6" d="M132.56,144.87a.19.19,0,0,0,0-.37.19.19,0,0,0,0,.37Z" transform="translate(1.36)"/></g><g class="cls-16"><path class="cls-3" d="M156.36,216.23a3,3,0,0,0-.51.88,7.47,7.47,0,0,0-.81,2.94,7.28,7.28,0,0,0,.43,2.2,5.73,5.73,0,0,0,1.61,2.87,4,4,0,0,0,1.31.66,7.29,7.29,0,0,0,5.48-.4,3.52,3.52,0,0,0,1.3-1,4.62,4.62,0,0,0,.65-2.29c.07-.75.15-1.51.21-2.26a5.73,5.73,0,0,0-.15-2.3,3.9,3.9,0,0,0-2.73-2.27,7.46,7.46,0,0,0-3.84,0C158.4,215.49,157.05,215.5,156.36,216.23Z" transform="translate(1.36)"/><path class="cls-4" d="M155.21,219.51a5.92,5.92,0,0,0,.71.6c.58.53.71,1.39,1.15,2a2.56,2.56,0,0,0,2.75,1,3.51,3.51,0,0,1,1-.25,2.8,2.8,0,0,1,1.11.45,3.86,3.86,0,0,0,4.23-.54,5.68,5.68,0,0,1-.25,1.74A2.91,2.91,0,0,1,165,226a3.25,3.25,0,0,1-1.32.53c-2.68.55-5.44-.16-8-1a2.63,2.63,0,0,1-1.52-.92,2.41,2.41,0,0,1-.3-.95,11.25,11.25,0,0,1,0-3.57c.1-.64.25-2.18,1-2.38C155,218.34,154.75,219,155.21,219.51Z" transform="translate(1.36)"/><path class="cls-5" d="M164.1,220.47a0,0,0,0,0,0-.08,0,0,0,0,0,0,.08Z" transform="translate(1.36)"/><path class="cls-5" d="M160.66,220.58a0,0,0,0,0,0-.08,0,0,0,0,0,0,.08Z" transform="translate(1.36)"/><path class="cls-5" d="M161.79,218.75a0,0,0,0,0,0-.08,0,0,0,0,0,0,.08Z" transform="translate(1.36)"/><path class="cls-5" d="M160.18,220.31a0,0,0,0,0,0-.08,0,0,0,0,0,0,.08Z" transform="translate(1.36)"/><path class="cls-5" d="M157.38,218.86a0,0,0,0,0,0-.08,0,0,0,0,0,0,.08Z" transform="translate(1.36)"/><path class="cls-5" d="M159.64,217.94a0,0,0,1,0,0-.07,0,0,0,1,0,0,.07Z" transform="translate(1.36)"/><path class="cls-5" d="M158.67,219.29a0,0,0,0,0,0-.08,0,0,0,0,0,0,.08Z" transform="translate(1.36)"/><path class="cls-6" d="M161.63,220.15a0,0,0,0,0,0-.08,0,0,0,0,0,0,.08Z" transform="translate(1.36)"/><path class="cls-6" d="M159.53,221.17a0,0,0,0,0,0-.08,0,0,0,0,0,0,.08Z" transform="translate(1.36)"/><path class="cls-6" d="M160.23,219.45a0,0,0,0,0,0-.08,0,0,0,0,0,0,.08Z" transform="translate(1.36)"/><path class="cls-6" d="M157.87,219.5a0,0,0,0,0,0-.08,0,0,0,0,0,0,.08Z" transform="translate(1.36)"/><path class="cls-6" d="M159.32,217.57a0,0,0,0,0,0-.08,0,0,0,0,0,0,.08Z" transform="translate(1.36)"/><path class="cls-6" d="M156.79,217.78a0,0,0,0,0,0-.08,0,0,0,0,0,0,.08Z" transform="translate(1.36)"/><path class="cls-6" d="M158.24,216.55a0,0,0,0,0,0-.08,0,0,0,0,0,0,.08Z" transform="translate(1.36)"/><path class="cls-6" d="M161.52,215.9a0,0,0,0,0,0-.08,0,0,0,0,0,0,.08Z" transform="translate(1.36)"/><path class="cls-6" d="M164.53,217.19a0,0,0,0,0,0-.08,0,0,0,0,0,0,.08Z" transform="translate(1.36)"/><path class="cls-6" d="M160.59,217.69v-.05a0,0,0,0,0,0,0h0s0,0,0,0l0,0v.05l0,0h.05a0,0,0,0,0,0,0Z" transform="translate(1.36)"/><path class="cls-6" d="M160.39,216a0,0,0,1,0,0-.07,0,0,0,1,0,0,.07Z" transform="translate(1.36)"/><path class="cls-6" d="M162.92,218.16a0,0,0,0,0,0-.08,0,0,0,0,0,0,.08Z" transform="translate(1.36)"/><path class="cls-6" d="M163.24,219a0,0,0,1,0,0-.07,0,0,0,1,0,0,.07Z" transform="translate(1.36)"/><path class="cls-6" d="M162.17,220.09s0-.07,0-.07a0,0,0,1,0,0,.07Z" transform="translate(1.36)"/><path class="cls-6" d="M164.26,220.2a0,0,0,0,0,0-.08,0,0,0,0,0,0,.08Z" transform="translate(1.36)"/><path class="cls-6" d="M163.83,221.54a0,0,0,1,0,0-.07,0,0,0,1,0,0,.07Z" transform="translate(1.36)"/><path class="cls-6" d="M162.92,222a0,0,0,0,0,0-.08,0,0,0,0,0,0,.08Z" transform="translate(1.36)"/><path class="cls-6" d="M163.45,224.07a0,0,0,0,0,0-.08s0,.08,0,.08Z" transform="translate(1.36)"/><path class="cls-6" d="M162.17,224.88s0-.08,0-.08a0,0,0,0,0,0,.08Z" transform="translate(1.36)"/><path class="cls-6" d="M161.41,224.12a0,0,0,1,0,0-.07,0,0,0,1,0,0,.07Z" transform="translate(1.36)"/><path class="cls-6" d="M160.34,224.55a0,0,0,1,0,0-.07,0,0,0,1,0,0,.07Z" transform="translate(1.36)"/><path class="cls-6" d="M158.3,224a0,0,0,0,0,0-.08,0,0,0,0,0,0,.08Z" transform="translate(1.36)"/><path class="cls-6" d="M157.11,223.21a0,0,0,0,0,0-.08,0,0,0,0,0,0,.08Z" transform="translate(1.36)"/><path class="cls-6" d="M155.18,220.36a0,0,0,0,0,0-.08,0,0,0,0,0,0,.08Z" transform="translate(1.36)"/><path class="cls-6" d="M157.38,220.25a0,0,0,1,0,0-.07,0,0,0,1,0,0,.07Z" transform="translate(1.36)"/><path class="cls-6" d="M156,221.38a0,0,0,1,0,0-.07,0,0,0,1,0,0,.07Z" transform="translate(1.36)"/><path class="cls-6" d="M157.92,221.44a0,0,0,0,0,0-.08,0,0,0,0,0,0,.08Z" transform="translate(1.36)"/><path class="cls-6" d="M157.38,222.83h.06s0,0,0,0h0v0s0,0,0,0,0,0,0,0h-.06s0,0,0,0h0s0,0,0,0,0,0,0,0Z" transform="translate(1.36)"/><path class="cls-6" d="M160.12,222.73a0,0,0,0,0,0-.08,0,0,0,0,0,0,.08Z" transform="translate(1.36)"/><path class="cls-6" d="M160,222.69a.11.11,0,0,0,0-.22.11.11,0,1,0,0,.22Z" transform="translate(1.36)"/><path class="cls-6" d="M158.4,222.53a.12.12,0,0,0,0-.23.12.12,0,0,0,0,.23Z" transform="translate(1.36)"/><path class="cls-6" d="M158.4,220.87a.12.12,0,0,0,0-.23.12.12,0,0,0,0,.23Z" transform="translate(1.36)"/><path class="cls-6" d="M162.7,222.05a.12.12,0,0,0,0-.23.12.12,0,0,0,0,.23Z" transform="translate(1.36)"/><path class="cls-6" d="M161.79,222.91a.12.12,0,0,0,0-.23.12.12,0,0,0,0,.23Z" transform="translate(1.36)"/><path class="cls-6" d="M163.67,223.29a.12.12,0,0,0,0-.23.12.12,0,0,0,0,.23Z" transform="translate(1.36)"/><path class="cls-6" d="M162.6,224.63a.12.12,0,0,0,0-.23.12.12,0,0,0,0,.23Z" transform="translate(1.36)"/><path class="cls-6" d="M160.93,225.49a.12.12,0,0,0,0-.23.12.12,0,0,0,0,.23Z" transform="translate(1.36)"/><path class="cls-6" d="M159.32,225.44a.12.12,0,0,0,0-.23.12.12,0,0,0,0,.23Z" transform="translate(1.36)"/><path class="cls-6" d="M157.87,217.43a.12.12,0,0,0,0-.23.12.12,0,0,0,0,.23Z" transform="translate(1.36)"/><path class="cls-6" d="M156,219.15a.12.12,0,0,0,0-.23.12.12,0,0,0,0,.23Z" transform="translate(1.36)"/><path class="cls-6" d="M158.94,218.72a.12.12,0,0,0,0-.23.12.12,0,0,0,0,.23Z" transform="translate(1.36)"/><path class="cls-6" d="M159.1,215.76a.12.12,0,0,0,0-.23.12.12,0,0,0,0,.23Z" transform="translate(1.36)"/><path class="cls-6" d="M163.24,215.87a.12.12,0,0,0,0-.23.12.12,0,0,0,0,.23Z" transform="translate(1.36)"/><path class="cls-6" d="M162.11,217.27a.12.12,0,0,0,0-.23.12.12,0,0,0,0,.23Z" transform="translate(1.36)"/><path class="cls-6" d="M165.07,219.42a.12.12,0,0,0,0-.23.12.12,0,0,0,0,.23Z" transform="translate(1.36)"/><path class="cls-6" d="M165.39,221.67a.12.12,0,0,0,0-.23.12.12,0,0,0,0,.23Z" transform="translate(1.36)"/></g><g class="cls-17"><path class="cls-3" d="M120.52,242.75a3.21,3.21,0,0,0-.51.88,7.47,7.47,0,0,0-.81,2.93,7.3,7.3,0,0,0,.44,2.21,5.64,5.64,0,0,0,1.6,2.87,4.09,4.09,0,0,0,1.32.66,7.34,7.34,0,0,0,5.48-.41,3.44,3.44,0,0,0,1.29-1,4.62,4.62,0,0,0,.65-2.29c.07-.76.15-1.51.21-2.26A5.56,5.56,0,0,0,130,244a3.89,3.89,0,0,0-2.73-2.27,7.22,7.22,0,0,0-3.83,0C122.56,242,121.21,242,120.52,242.75Z" transform="translate(1.36)"/><path class="cls-4" d="M119.37,246a8.32,8.32,0,0,0,.71.6c.58.53.71,1.39,1.15,2.05a2.56,2.56,0,0,0,2.75,1,3.51,3.51,0,0,1,1-.25,2.66,2.66,0,0,1,1.11.45,3.84,3.84,0,0,0,4.23-.55,5.79,5.79,0,0,1-.25,1.75,2.91,2.91,0,0,1-.9,1.48,3.25,3.25,0,0,1-1.32.53c-2.68.55-5.44-.16-8-1a2.62,2.62,0,0,1-1.53-.93,2.36,2.36,0,0,1-.3-.94,11.31,11.31,0,0,1,0-3.58c.1-.63.25-2.17,1-2.37C119.2,244.85,118.91,245.48,119.37,246Z" transform="translate(1.36)"/><path class="cls-5" d="M128.26,247a0,0,0,0,0,0-.08,0,0,0,0,0,0,.08Z" transform="translate(1.36)"/><path class="cls-5" d="M124.82,247.09a0,0,0,1,0,0-.07,0,0,0,1,0,0,.07Z" transform="translate(1.36)"/><path class="cls-5" d="M126,245.27a0,0,0,0,0,0-.08,0,0,0,0,0,0,.08Z" transform="translate(1.36)"/><path class="cls-5" d="M124.34,246.83a0,0,0,0,0,0-.08,0,0,0,0,0,0,.08Z" transform="translate(1.36)"/><path class="cls-5" d="M121.54,245.37a0,0,0,1,0,0-.07,0,0,0,1,0,0,.07Z" transform="translate(1.36)"/><path class="cls-5" d="M123.8,244.46a0,0,0,0,0,0-.08,0,0,0,0,0,0,.08Z" transform="translate(1.36)"/><path class="cls-5" d="M122.83,245.8a0,0,0,1,0,0-.07,0,0,0,1,0,0,.07Z" transform="translate(1.36)"/><path class="cls-6" d="M125.79,246.66a0,0,0,1,0,0-.07,0,0,0,1,0,0,.07Z" transform="translate(1.36)"/><path class="cls-6" d="M123.69,247.69a0,0,0,0,0,0-.08,0,0,0,0,0,0,.08Z" transform="translate(1.36)"/><path class="cls-6" d="M124.39,246a0,0,0,0,0,0-.08,0,0,0,0,0,0,.08Z" transform="translate(1.36)"/><path class="cls-6" d="M122,246a0,0,0,0,0,0-.08,0,0,0,0,0,0,.08Z" transform="translate(1.36)"/><path class="cls-6" d="M123.48,244.08a0,0,0,1,0,0-.07,0,0,0,1,0,0,.07Z" transform="translate(1.36)"/><path class="cls-6" d="M121,244.3a0,0,0,0,0,0-.08,0,0,0,0,0,0,.08Z" transform="translate(1.36)"/><path class="cls-6" d="M122.4,243.06a0,0,0,1,0,0-.07,0,0,0,1,0,0,.07Z" transform="translate(1.36)"/><path class="cls-6" d="M125.68,242.42a0,0,0,0,0,0-.08,0,0,0,0,0,0,.08Z" transform="translate(1.36)"/><path class="cls-6" d="M128.69,243.71a0,0,0,0,0,0-.08,0,0,0,0,0,0,.08Z" transform="translate(1.36)"/><path class="cls-6" d="M124.75,244.21v-.06s0,0,0,0h0s0,0,0,0v.06s0,0,0,0h0l0,0s0,0,0,0Z" transform="translate(1.36)"/><path class="cls-6" d="M124.55,242.47a0,0,0,1,0,0-.07,0,0,0,1,0,0,.07Z" transform="translate(1.36)"/><path class="cls-6" d="M127.08,244.68a0,0,0,0,0,0-.08,0,0,0,0,0,0,.08Z" transform="translate(1.36)"/><path class="cls-6" d="M127.4,245.48a0,0,0,1,0,0-.07,0,0,0,1,0,0,.07Z" transform="translate(1.36)"/><path class="cls-6" d="M126.33,246.61a0,0,0,0,0,0-.08,0,0,0,0,0,0,.08Z" transform="translate(1.36)"/><path class="cls-6" d="M128.42,246.72a0,0,0,0,0,0-.08,0,0,0,0,0,0,.08Z" transform="translate(1.36)"/><path class="cls-6" d="M128,248.06a0,0,0,1,0,0-.07,0,0,0,1,0,0,.07Z" transform="translate(1.36)"/><path class="cls-6" d="M127.08,248.55a0,0,0,0,0,0-.08,0,0,0,0,0,0,.08Z" transform="translate(1.36)"/><path class="cls-6" d="M127.62,250.59a0,0,0,0,0,0-.08,0,0,0,0,0,0,.08Z" transform="translate(1.36)"/><path class="cls-6" d="M126.33,251.39a0,0,0,1,0,0-.07,0,0,0,1,0,0,.07Z" transform="translate(1.36)"/><path class="cls-6" d="M125.57,250.64a0,0,0,0,0,0-.08,0,0,0,0,0,0,.08Z" transform="translate(1.36)"/><path class="cls-6" d="M124.5,251.07a0,0,0,0,0,0-.08,0,0,0,0,0,0,.08Z" transform="translate(1.36)"/><path class="cls-6" d="M122.46,250.53a0,0,0,1,0,0-.07,0,0,0,1,0,0,.07Z" transform="translate(1.36)"/><path class="cls-6" d="M121.27,249.73a0,0,0,0,0,0-.08s0,.08,0,.08Z" transform="translate(1.36)"/><path class="cls-6" d="M119.34,246.88a0,0,0,0,0,0-.08,0,0,0,0,0,0,.08Z" transform="translate(1.36)"/><path class="cls-6" d="M121.54,246.77a0,0,0,1,0,0-.07,0,0,0,1,0,0,.07Z" transform="translate(1.36)"/><path class="cls-6" d="M120.2,247.9a0,0,0,0,0,0-.08,0,0,0,0,0,0,.08Z" transform="translate(1.36)"/><path class="cls-6" d="M122.08,248a0,0,0,1,0,0-.07,0,0,0,1,0,0,.07Z" transform="translate(1.36)"/><path class="cls-6" d="M121.54,249.35h.09s0,0,0,0l0,0,0,0h-.06l0,0h0s0,0,0,0a0,0,0,0,0,0,0Z" transform="translate(1.36)"/><path class="cls-6" d="M124.28,249.24a0,0,0,1,0,0-.07s0,.07,0,.07Z" transform="translate(1.36)"/><path class="cls-6" d="M124.18,249.21a.12.12,0,0,0,0-.23.12.12,0,0,0,0,.23Z" transform="translate(1.36)"/><path class="cls-6" d="M122.56,249.05a.12.12,0,0,0,0-.23.12.12,0,0,0,0,.23Z" transform="translate(1.36)"/><path class="cls-6" d="M122.56,247.39a.12.12,0,0,0,0-.23.12.12,0,0,0,0,.23Z" transform="translate(1.36)"/><path class="cls-6" d="M126.86,248.57a.12.12,0,0,0,0-.23.12.12,0,0,0,0,.23Z" transform="translate(1.36)"/><path class="cls-6" d="M126,249.43a.12.12,0,0,0,0-.23.12.12,0,0,0,0,.23Z" transform="translate(1.36)"/><path class="cls-6" d="M127.83,249.8a.12.12,0,0,0,0-.23.12.12,0,0,0,0,.23Z" transform="translate(1.36)"/><path class="cls-6" d="M126.76,251.15a.12.12,0,0,0,0-.23.12.12,0,0,0,0,.23Z" transform="translate(1.36)"/><path class="cls-6" d="M125.09,252a.12.12,0,0,0,0-.23.12.12,0,0,0,0,.23Z" transform="translate(1.36)"/><path class="cls-6" d="M123.48,252a.12.12,0,0,0,0-.23.12.12,0,0,0,0,.23Z" transform="translate(1.36)"/><path class="cls-6" d="M122,244a.12.12,0,0,0,0-.23.12.12,0,0,0,0,.23Z" transform="translate(1.36)"/><path class="cls-6" d="M120.15,245.67a.12.12,0,0,0,0-.23.12.12,0,0,0,0,.23Z" transform="translate(1.36)"/><path class="cls-6" d="M123.1,245.24a.12.12,0,0,0,0-.23.12.12,0,0,0,0,.23Z" transform="translate(1.36)"/><path class="cls-6" d="M123.26,242.28a.12.12,0,0,0,0-.23.12.12,0,0,0,0,.23Z" transform="translate(1.36)"/><path class="cls-6" d="M127.4,242.39a.12.12,0,0,0,0-.23.12.12,0,0,0,0,.23Z" transform="translate(1.36)"/><path class="cls-6" d="M126.27,243.79a.12.12,0,0,0,0-.23.12.12,0,0,0,0,.23Z" transform="translate(1.36)"/><path class="cls-6" d="M129.23,245.93a.11.11,0,1,0,0-.22.11.11,0,1,0,0,.22Z" transform="translate(1.36)"/><path class="cls-6" d="M129.55,248.19a.12.12,0,0,0,0-.23.12.12,0,0,0,0,.23Z" transform="translate(1.36)"/></g><g class="cls-18"><path class="cls-3" d="M1.32,229.72a3,3,0,0,0-.51.87A7.47,7.47,0,0,0,0,233.53a7.23,7.23,0,0,0,.44,2.2A5.6,5.6,0,0,0,2,238.6a4.33,4.33,0,0,0,1.32.67,7.33,7.33,0,0,0,5.48-.41,3.58,3.58,0,0,0,1.3-1,4.61,4.61,0,0,0,.64-2.29c.08-.75.15-1.5.21-2.26a5.56,5.56,0,0,0-.15-2.3,3.89,3.89,0,0,0-2.73-2.27,7.32,7.32,0,0,0-3.83,0C3.36,229,2,229,1.32,229.72Z" transform="translate(1.36)"/><path class="cls-4" d="M.17,233a6.82,6.82,0,0,0,.71.6c.58.53.71,1.39,1.15,2a2.55,2.55,0,0,0,2.76,1,3.35,3.35,0,0,1,1-.24,2.78,2.78,0,0,1,1.11.44,3.86,3.86,0,0,0,4.24-.54,6,6,0,0,1-.26,1.74,2.91,2.91,0,0,1-.9,1.48,3.12,3.12,0,0,1-1.32.53c-2.67.55-5.44-.16-8-1a2.72,2.72,0,0,1-1.53-.93,2.41,2.41,0,0,1-.3-1,11.25,11.25,0,0,1,0-3.57c.1-.64.26-2.18,1.05-2.37C0,231.82-.29,232.44.17,233Z" transform="translate(1.36)"/><path class="cls-5" d="M9.06,234a0,0,0,0,0,0-.08,0,0,0,0,0,0,.08Z" transform="translate(1.36)"/><path class="cls-5" d="M5.62,234.06a0,0,0,0,0,0-.08s0,.08,0,.08Z" transform="translate(1.36)"/><path class="cls-5" d="M6.75,232.23a0,0,0,0,0,0-.08,0,0,0,0,0,0,.08Z" transform="translate(1.36)"/><path class="cls-5" d="M5.14,233.79a0,0,0,0,0,0-.08,0,0,0,0,0,0,.08Z" transform="translate(1.36)"/><path class="cls-5" d="M2.35,232.34a0,0,0,0,0,0-.08,0,0,0,0,0,0,.08Z" transform="translate(1.36)"/><path class="cls-5" d="M4.6,231.42a0,0,0,1,0,0-.07,0,0,0,1,0,0,.07Z" transform="translate(1.36)"/><path class="cls-5" d="M3.64,232.77a0,0,0,0,0,0-.08,0,0,0,0,0,0,.08Z" transform="translate(1.36)"/><path class="cls-6" d="M6.59,233.63a0,0,0,0,0,0-.08,0,0,0,0,0,0,.08Z" transform="translate(1.36)"/><path class="cls-6" d="M4.5,234.65a0,0,0,0,0,0-.08,0,0,0,0,0,0,.08Z" transform="translate(1.36)"/><path class="cls-6" d="M5.19,232.93a0,0,0,0,0,0-.08s0,.08,0,.08Z" transform="translate(1.36)"/><path class="cls-6" d="M2.83,233a0,0,0,1,0,0-.07,0,0,0,1,0,0,.07Z" transform="translate(1.36)"/><path class="cls-6" d="M4.28,231.05a0,0,0,0,0,0-.08,0,0,0,0,0,0,.08Z" transform="translate(1.36)"/><path class="cls-6" d="M1.76,231.26s0-.07,0-.07a0,0,0,1,0,0,.07Z" transform="translate(1.36)"/><path class="cls-6" d="M3.21,230a0,0,0,0,0,0-.08,0,0,0,0,0,0,.08Z" transform="translate(1.36)"/><path class="cls-6" d="M6.48,229.38a0,0,0,1,0,0-.07s-.05.07,0,.07Z" transform="translate(1.36)"/><path class="cls-6" d="M9.49,230.67a0,0,0,1,0,0-.07,0,0,0,1,0,0,.07Z" transform="translate(1.36)"/><path class="cls-6" d="M5.56,231.17v0l0,0h0a0,0,0,0,0,0,0v0a0,0,0,0,0,0,0h0s0,0,0,0,0,0,0,0Z" transform="translate(1.36)"/><path class="cls-6" d="M5.36,229.44a0,0,0,0,0,0-.08,0,0,0,0,0,0,.08Z" transform="translate(1.36)"/><path class="cls-6" d="M7.88,231.64a0,0,0,0,0,0-.08,0,0,0,0,0,0,.08Z" transform="translate(1.36)"/><path class="cls-6" d="M8.2,232.45a0,0,0,0,0,0-.08,0,0,0,0,0,0,.08Z" transform="translate(1.36)"/><path class="cls-6" d="M7.13,233.57a0,0,0,1,0,0-.07,0,0,0,1,0,0,.07Z" transform="translate(1.36)"/><path class="cls-6" d="M9.23,233.68s0-.07,0-.07a0,0,0,1,0,0,.07Z" transform="translate(1.36)"/><path class="cls-6" d="M8.8,235s0-.08,0-.08a0,0,0,0,0,0,.08Z" transform="translate(1.36)"/><path class="cls-6" d="M7.88,235.51a0,0,0,0,0,0-.08,0,0,0,0,0,0,.08Z" transform="translate(1.36)"/><path class="cls-6" d="M8.42,237.55a0,0,0,0,0,0-.08,0,0,0,0,0,0,.08Z" transform="translate(1.36)"/><path class="cls-6" d="M7.13,238.36a0,0,0,0,0,0-.08,0,0,0,0,0,0,.08Z" transform="translate(1.36)"/><path class="cls-6" d="M6.38,237.61a0,0,0,0,0,0-.08,0,0,0,0,0,0,.08Z" transform="translate(1.36)"/><path class="cls-6" d="M5.3,238a0,0,0,1,0,0-.07,0,0,0,1,0,0,.07Z" transform="translate(1.36)"/><path class="cls-6" d="M3.26,237.5a0,0,0,0,0,0-.08,0,0,0,0,0,0,.08Z" transform="translate(1.36)"/><path class="cls-6" d="M2.08,236.69a0,0,0,0,0,0-.08,0,0,0,0,0,0,.08Z" transform="translate(1.36)"/><path class="cls-6" d="M.14,233.84a0,0,0,1,0,0-.07,0,0,0,1,0,0,.07Z" transform="translate(1.36)"/><path class="cls-6" d="M2.35,233.74a0,0,0,0,0,0-.08,0,0,0,0,0,0,.08Z" transform="translate(1.36)"/><path class="cls-6" d="M1,234.86a0,0,0,1,0,0-.07,0,0,0,1,0,0,.07Z" transform="translate(1.36)"/><path class="cls-6" d="M2.88,234.92a0,0,0,0,0,0-.08,0,0,0,0,0,0,.08Z" transform="translate(1.36)"/><path class="cls-6" d="M2.35,236.32h0l0,0h0v0H2.31v0s0,0,0,0l0,0Z" transform="translate(1.36)"/><path class="cls-6" d="M5.09,236.21a0,0,0,0,0,0-.08,0,0,0,0,0,0,.08Z" transform="translate(1.36)"/><path class="cls-6" d="M5,236.18A.12.12,0,0,0,5,236a.12.12,0,0,0,0,.23Z" transform="translate(1.36)"/><path class="cls-6" d="M3.37,236a.12.12,0,0,0,0-.23.12.12,0,0,0,0,.23Z" transform="translate(1.36)"/><path class="cls-6" d="M3.37,234.35a.12.12,0,0,0,0-.23.12.12,0,0,0,0,.23Z" transform="translate(1.36)"/><path class="cls-6" d="M7.67,235.53a.12.12,0,0,0,0-.23.12.12,0,0,0,0,.23Z" transform="translate(1.36)"/><path class="cls-6" d="M6.75,236.39a.12.12,0,0,0,0-.23.12.12,0,0,0,0,.23Z" transform="translate(1.36)"/><path class="cls-6" d="M8.63,236.77a.12.12,0,0,0,0-.23.12.12,0,0,0,0,.23Z" transform="translate(1.36)"/><path class="cls-6" d="M7.56,238.11a.12.12,0,0,0,0-.23.12.12,0,0,0,0,.23Z" transform="translate(1.36)"/><path class="cls-6" d="M5.89,239a.12.12,0,0,0,0-.23.12.12,0,0,0,0,.23Z" transform="translate(1.36)"/><path class="cls-6" d="M4.28,238.92a.12.12,0,0,0,0-.23.12.12,0,0,0,0,.23Z" transform="translate(1.36)"/><path class="cls-6" d="M2.83,230.91a.12.12,0,0,0,0-.23.12.12,0,0,0,0,.23Z" transform="translate(1.36)"/><path class="cls-6" d="M1,232.63a.12.12,0,0,0,0-.23.12.12,0,0,0,0,.23Z" transform="translate(1.36)"/><path class="cls-6" d="M3.9,232.2a.12.12,0,0,0,0-.23.12.12,0,0,0,0,.23Z" transform="translate(1.36)"/><path class="cls-6" d="M4.07,229.24a.12.12,0,0,0,0-.23.12.12,0,0,0,0,.23Z" transform="translate(1.36)"/><path class="cls-6" d="M8.2,229.35a.12.12,0,0,0,0-.23.12.12,0,0,0,0,.23Z" transform="translate(1.36)"/><path class="cls-6" d="M7.08,230.75a.12.12,0,0,0,0-.23.12.12,0,0,0,0,.23Z" transform="translate(1.36)"/><path class="cls-6" d="M10,232.9a.12.12,0,0,0,0-.23.12.12,0,0,0,0,.23Z" transform="translate(1.36)"/><path class="cls-6" d="M10.35,235.16a.12.12,0,0,0,0-.23.12.12,0,0,0,0,.23Z" transform="translate(1.36)"/></g><g class="cls-19"><path class="cls-3" d="M42.1,153.16a2.63,2.63,0,0,0-.51.87,7.66,7.66,0,0,0-.82,2.94,7.55,7.55,0,0,0,.44,2.2A5.55,5.55,0,0,0,42.82,162a4.17,4.17,0,0,0,1.31.67,7.33,7.33,0,0,0,5.48-.41,3.49,3.49,0,0,0,1.3-1,4.62,4.62,0,0,0,.65-2.29c.07-.75.15-1.5.21-2.26a5.56,5.56,0,0,0-.16-2.3,3.87,3.87,0,0,0-2.72-2.27,7.36,7.36,0,0,0-3.84,0C44.14,152.41,42.79,152.43,42.1,153.16Z" transform="translate(1.36)"/><path class="cls-4" d="M40.94,156.43a6.94,6.94,0,0,0,.72.6c.58.53.71,1.39,1.15,2.05a2.54,2.54,0,0,0,2.75,1,3.49,3.49,0,0,1,1-.24,2.68,2.68,0,0,1,1.1.44,3.86,3.86,0,0,0,4.24-.54,6,6,0,0,1-.25,1.74,2.91,2.91,0,0,1-.9,1.48,3.16,3.16,0,0,1-1.33.53c-2.67.55-5.43-.16-8-1a2.72,2.72,0,0,1-1.53-.93,2.78,2.78,0,0,1-.3-.95,11.25,11.25,0,0,1,0-3.57c.1-.64.25-2.18,1-2.37C40.78,155.26,40.49,155.88,40.94,156.43Z" transform="translate(1.36)"/><path class="cls-5" d="M49.84,157.39a0,0,0,0,0,0-.08,0,0,0,0,0,0,.08Z" transform="translate(1.36)"/><path class="cls-5" d="M46.4,157.5a0,0,0,0,0,0-.08,0,0,0,0,0,0,.08Z" transform="translate(1.36)"/><path class="cls-5" d="M47.53,155.67a0,0,0,0,0,0-.08,0,0,0,0,0,0,.08Z" transform="translate(1.36)"/><path class="cls-5" d="M45.91,157.23a0,0,0,0,0,0-.08s0,.08,0,.08Z" transform="translate(1.36)"/><path class="cls-5" d="M43.12,155.78a0,0,0,0,0,0-.08,0,0,0,0,0,0,.08Z" transform="translate(1.36)"/><path class="cls-5" d="M45.38,154.86a0,0,0,1,0,0-.07,0,0,0,1,0,0,.07Z" transform="translate(1.36)"/><path class="cls-5" d="M44.41,156.21a0,0,0,0,0,0-.08,0,0,0,0,0,0,.08Z" transform="translate(1.36)"/><path class="cls-6" d="M47.37,157.07a0,0,0,0,0,0-.08,0,0,0,0,0,0,.08Z" transform="translate(1.36)"/><path class="cls-6" d="M45.27,158.09a0,0,0,0,0,0-.08,0,0,0,0,0,0,.08Z" transform="translate(1.36)"/><path class="cls-6" d="M46,156.37a0,0,0,0,0,0-.08,0,0,0,0,0,0,.08Z" transform="translate(1.36)"/><path class="cls-6" d="M43.6,156.42a0,0,0,1,0,0-.07,0,0,0,1,0,0,.07Z" transform="translate(1.36)"/><path class="cls-6" d="M45.06,154.49s0-.08,0-.08a0,0,0,0,0,0,.08Z" transform="translate(1.36)"/><path class="cls-6" d="M42.53,154.7a0,0,0,1,0,0-.07,0,0,0,1,0,0,.07Z" transform="translate(1.36)"/><path class="cls-6" d="M44,153.47a0,0,0,0,0,0-.08,0,0,0,0,0,0,.08Z" transform="translate(1.36)"/><path class="cls-6" d="M47.26,152.82a0,0,0,1,0,0-.07,0,0,0,1,0,0,.07Z" transform="translate(1.36)"/><path class="cls-6" d="M50.27,154.11a0,0,0,1,0,0-.07,0,0,0,1,0,0,.07Z" transform="translate(1.36)"/><path class="cls-6" d="M46.33,154.61v-.05a0,0,0,0,0,0,0h-.06v.11h.06a0,0,0,0,0,0,0Z" transform="translate(1.36)"/><path class="cls-6" d="M46.13,152.88a0,0,0,0,0,0-.08,0,0,0,0,0,0,.08Z" transform="translate(1.36)"/><path class="cls-6" d="M48.66,155.08a0,0,0,0,0,0-.08,0,0,0,0,0,0,.08Z" transform="translate(1.36)"/><path class="cls-6" d="M49,155.89a0,0,0,0,0,0-.08,0,0,0,0,0,0,.08Z" transform="translate(1.36)"/><path class="cls-6" d="M47.9,157a0,0,0,1,0,0-.07,0,0,0,1,0,0,.07Z" transform="translate(1.36)"/><path class="cls-6" d="M50,157.12a0,0,0,0,0,0-.08,0,0,0,0,0,0,.08Z" transform="translate(1.36)"/><path class="cls-6" d="M49.57,158.47a0,0,0,0,0,0-.08,0,0,0,0,0,0,.08Z" transform="translate(1.36)"/><path class="cls-6" d="M48.66,159a0,0,0,0,0,0-.08,0,0,0,0,0,0,.08Z" transform="translate(1.36)"/><path class="cls-6" d="M49.19,161a0,0,0,0,0,0-.08,0,0,0,0,0,0,.08Z" transform="translate(1.36)"/><path class="cls-6" d="M47.9,161.8a0,0,0,0,0,0-.08,0,0,0,0,0,0,.08Z" transform="translate(1.36)"/><path class="cls-6" d="M47.15,161a0,0,0,1,0,0-.07,0,0,0,1,0,0,.07Z" transform="translate(1.36)"/><path class="cls-6" d="M46.08,161.47a0,0,0,1,0,0-.07,0,0,0,1,0,0,.07Z" transform="translate(1.36)"/><path class="cls-6" d="M44,160.94a0,0,0,0,0,0-.08,0,0,0,0,0,0,.08Z" transform="translate(1.36)"/><path class="cls-6" d="M42.85,160.13a0,0,0,0,0,0-.08,0,0,0,0,0,0,.08Z" transform="translate(1.36)"/><path class="cls-6" d="M40.92,157.28a0,0,0,1,0,0-.07,0,0,0,1,0,0,.07Z" transform="translate(1.36)"/><path class="cls-6" d="M43.12,157.18a0,0,0,0,0,0-.08,0,0,0,0,0,0,.08Z" transform="translate(1.36)"/><path class="cls-6" d="M41.78,158.3a0,0,0,1,0,0-.07,0,0,0,1,0,0,.07Z" transform="translate(1.36)"/><path class="cls-6" d="M43.66,158.36a0,0,0,0,0,0-.08,0,0,0,0,0,0,.08Z" transform="translate(1.36)"/><path class="cls-6" d="M43.12,159.75h.09a0,0,0,0,0,0,0h-.11v0Z" transform="translate(1.36)"/><path class="cls-6" d="M45.86,159.65a0,0,0,0,0,0-.08,0,0,0,0,0,0,.08Z" transform="translate(1.36)"/><path class="cls-6" d="M45.75,159.62a.12.12,0,0,0,0-.23.12.12,0,0,0,0,.23Z" transform="translate(1.36)"/><path class="cls-6" d="M44.14,159.46a.12.12,0,0,0,0-.23.12.12,0,0,0,0,.23Z" transform="translate(1.36)"/><path class="cls-6" d="M44.14,157.79a.12.12,0,0,0,0-.23.12.12,0,0,0,0,.23Z" transform="translate(1.36)"/><path class="cls-6" d="M48.44,159a.12.12,0,0,0,0-.23.12.12,0,0,0,0,.23Z" transform="translate(1.36)"/><path class="cls-6" d="M47.53,159.83a.12.12,0,0,0,0-.23.12.12,0,0,0,0,.23Z" transform="translate(1.36)"/><path class="cls-6" d="M49.41,160.21a.12.12,0,0,0,0-.23.12.12,0,0,0,0,.23Z" transform="translate(1.36)"/><path class="cls-6" d="M48.33,161.55a.12.12,0,0,0,0-.23.12.12,0,0,0,0,.23Z" transform="translate(1.36)"/><path class="cls-6" d="M46.67,162.41a.12.12,0,0,0,0-.23.12.12,0,0,0,0,.23Z" transform="translate(1.36)"/><path class="cls-6" d="M45.06,162.36a.12.12,0,0,0,0-.23.12.12,0,0,0,0,.23Z" transform="translate(1.36)"/><path class="cls-6" d="M43.6,154.35a.12.12,0,0,0,0-.23.12.12,0,0,0,0,.23Z" transform="translate(1.36)"/><path class="cls-6" d="M41.72,156.07a.12.12,0,0,0,0-.23.12.12,0,0,0,0,.23Z" transform="translate(1.36)"/><path class="cls-6" d="M44.68,155.64a.12.12,0,0,0,0-.23.12.12,0,0,0,0,.23Z" transform="translate(1.36)"/><path class="cls-6" d="M44.84,152.68a.12.12,0,0,0,0-.23.12.12,0,0,0,0,.23Z" transform="translate(1.36)"/><path class="cls-6" d="M49,152.79a.12.12,0,0,0,0-.23.12.12,0,0,0,0,.23Z" transform="translate(1.36)"/><path class="cls-6" d="M47.85,154.19a.12.12,0,0,0,0-.23.12.12,0,0,0,0,.23Z" transform="translate(1.36)"/><path class="cls-6" d="M50.81,156.34a.12.12,0,0,0,0-.23.12.12,0,0,0,0,.23Z" transform="translate(1.36)"/><path class="cls-6" d="M51.13,158.6a.12.12,0,0,0,0-.23.12.12,0,0,0,0,.23Z" transform="translate(1.36)"/></g><g class="cls-20"><path class="cls-3" d="M106,89.6a9,9,0,0,0,.39,3.09c.76,3,1.62,6.15,3.56,8.56a21.32,21.32,0,0,0,5.3,4.31c2.86,1.82,6,3.64,9.48,3.5a13.83,13.83,0,0,0,4.56-1.1A25,25,0,0,0,142.18,95.9a11.2,11.2,0,0,0,1.32-5c-.06-2.48-1.42-4.65-2.74-6.69s-2.5-3.85-3.78-5.75a15.71,15.71,0,0,0-4.76-5.1c-3.24-1.9-7.56-1.48-11.15.17a25.12,25.12,0,0,0-9.66,7.68C109.65,83.72,106.3,86.48,106,89.6Z" transform="translate(1.36)"/><path class="cls-4" d="M109.32,99.65a23.77,23.77,0,0,0,2.92,0c2.46.09,4.43,1.85,6.78,2.5a8.49,8.49,0,0,0,8.8-3.22,11.5,11.5,0,0,1,2-2.58,9.16,9.16,0,0,1,3.62-1.19A13,13,0,0,0,143,85.27a16.89,16.89,0,0,1,2.69,4.61,8.62,8.62,0,0,1,.56,5.3A10.37,10.37,0,0,1,144,99.11c-5.65,6.71-13.91,10.63-22,13.9-1.81.73-3.79,1.45-5.59.91a7.07,7.07,0,0,1-2.55-1.62,32.42,32.42,0,0,1-6.79-8.44c-1-1.7-3.5-5.64-1.9-7.7C106.67,97.22,107.12,99.28,109.32,99.65Z" transform="translate(1.36)"/><path class="cls-5" d="M133.39,83.89a.11.11,0,1,0-.14-.18.11.11,0,1,0,.14.18Z" transform="translate(1.36)"/><path class="cls-5" d="M125,91.11a.11.11,0,1,0-.14-.18.11.11,0,1,0,.14.18Z" transform="translate(1.36)"/><path class="cls-5" d="M124.34,84.52a.12.12,0,1,0-.15-.18.12.12,0,1,0,.15.18Z" transform="translate(1.36)"/><path class="cls-5" d="M123.27,91.46a.11.11,0,1,0-.14-.18.11.11,0,1,0,.14.18Z" transform="translate(1.36)"/><path class="cls-5" d="M113.52,93.7a.12.12,0,0,0-.15-.18.12.12,0,1,0,.15.18Z" transform="translate(1.36)"/><path class="cls-5" d="M117.42,87a.11.11,0,1,0-.14-.18.11.11,0,1,0,.14.18Z" transform="translate(1.36)"/><path class="cls-5" d="M117.56,92.1a.11.11,0,1,0-.14-.18.11.11,0,1,0,.14.18Z" transform="translate(1.36)"/><path class="cls-6" d="M126.59,88.14a.11.11,0,1,0-.14-.18.11.11,0,1,0,.14.18Z" transform="translate(1.36)"/><path class="cls-6" d="M123.3,94.79a.12.12,0,1,0-.15-.18.12.12,0,1,0,.15.18Z" transform="translate(1.36)"/><path class="cls-6" d="M121.77,89.32a.12.12,0,1,0-.15-.18.12.12,0,1,0,.15.18Z" transform="translate(1.36)"/><path class="cls-6" d="M116,94.24a.11.11,0,1,0-.14-.18.11.11,0,1,0,.14.18Z" transform="translate(1.36)"/><path class="cls-6" d="M115.9,86.75a.12.12,0,1,0-.15-.18.12.12,0,0,0,.15.18Z" transform="translate(1.36)"/><path class="cls-6" d="M110,92.37a.12.12,0,1,0-.15-.18.12.12,0,1,0,.15.18Z" transform="translate(1.36)"/><path class="cls-6" d="M111.26,86.52a.11.11,0,1,0-.14-.18.11.11,0,1,0,.14.18Z" transform="translate(1.36)"/><path class="cls-6" d="M118.24,78.36a.12.12,0,1,0-.15-.18.12.12,0,1,0,.15.18Z" transform="translate(1.36)"/><path class="cls-6" d="M128.22,75.31a.11.11,0,1,0-.14-.18.11.11,0,1,0,.14.18Z" transform="translate(1.36)"/><path class="cls-6" d="M119.32,84.46l-.1-.13a.12.12,0,0,0-.08,0h0l0,0a.22.22,0,0,0,0,.08.11.11,0,0,0,0,.08l.1.13a.12.12,0,0,0,.08,0h0l0,0a.12.12,0,0,0,0-.08.08.08,0,0,0,0-.08Z" transform="translate(1.36)"/><path class="cls-6" d="M115.52,80.78a.12.12,0,1,0-.15-.18.12.12,0,1,0,.15.18Z" transform="translate(1.36)"/><path class="cls-6" d="M126,80.85a.11.11,0,1,0-.14-.18.11.11,0,1,0,.14.18Z" transform="translate(1.36)"/><path class="cls-6" d="M128.38,82.09a.12.12,0,0,0-.15-.18.12.12,0,1,0,.15.18Z" transform="translate(1.36)"/><path class="cls-6" d="M127.84,86.93a.12.12,0,1,0-.15-.18.12.12,0,1,0,.15.18Z" transform="translate(1.36)"/><path class="cls-6" d="M133.28,82.93a.11.11,0,1,0-.14-.18.11.11,0,1,0,.14.18Z" transform="translate(1.36)"/><path class="cls-6" d="M134.77,87a.12.12,0,1,0-.15-.18.12.12,0,1,0,.15.18Z" transform="translate(1.36)"/><path class="cls-6" d="M133.4,90a.11.11,0,1,0-.14-.18.11.11,0,1,0,.14.18Z" transform="translate(1.36)"/><path class="cls-6" d="M138.64,93.68a.12.12,0,1,0-.15-.18c-.12.09,0,.28.15.18Z" transform="translate(1.36)"/><path class="cls-6" d="M137,98.18a.12.12,0,1,0-.15-.18.12.12,0,0,0,.15.18Z" transform="translate(1.36)"/><path class="cls-6" d="M133.63,97.94a.11.11,0,1,0-.14-.18.11.11,0,1,0,.14.18Z" transform="translate(1.36)"/><path class="cls-6" d="M131.76,101.13c.13-.1,0-.29-.14-.19a.12.12,0,0,0,.14.19Z" transform="translate(1.36)"/><path class="cls-6" d="M125.63,104a.12.12,0,1,0-.15-.18.12.12,0,0,0,.15.18Z" transform="translate(1.36)"/><path class="cls-6" d="M121.14,104.49a.12.12,0,0,0-.15-.18.12.12,0,1,0,.15.18Z" transform="translate(1.36)"/><path class="cls-6" d="M110.87,101.7a.12.12,0,1,0-.15-.18.12.12,0,1,0,.15.18Z" transform="translate(1.36)"/><path class="cls-6" d="M116.18,97a.12.12,0,1,0-.15-.18.12.12,0,1,0,.15.18Z" transform="translate(1.36)"/><path class="cls-6" d="M115,102.37a.12.12,0,1,0-.15-.18.12.12,0,1,0,.15.18Z" transform="translate(1.36)"/><path class="cls-6" d="M119.77,98.68a.11.11,0,1,0-.14-.18.11.11,0,1,0,.14.18Z" transform="translate(1.36)"/><path class="cls-6" d="M121.09,103.06l.14-.11a.12.12,0,0,0,0-.08s0,0,0,0a.05.05,0,0,0,0,0,.14.14,0,0,0-.08-.05.16.16,0,0,0-.09,0l-.13.11a.1.1,0,0,0,0,.08V103s0,0,0,0a.12.12,0,0,0,.17,0Z" transform="translate(1.36)"/><path class="cls-6" d="M127.74,97.26a.11.11,0,1,0-.14-.18.11.11,0,1,0,.14.18Z" transform="translate(1.36)"/><path class="cls-6" d="M127.42,97.4a.35.35,0,1,0-.44-.54.35.35,0,1,0,.44.54Z" transform="translate(1.36)"/><path class="cls-6" d="M123.08,100.29a.35.35,0,1,0-.44-.54.35.35,0,1,0,.44.54Z" transform="translate(1.36)"/><path class="cls-6" d="M119.9,96.37a.35.35,0,1,0-.44-.54.35.35,0,1,0,.44.54Z" transform="translate(1.36)"/><path class="cls-6" d="M132.91,90.45a.35.35,0,1,0-.44-.55.35.35,0,1,0,.44.55Z" transform="translate(1.36)"/><path class="cls-6" d="M132.26,94.32a.35.35,0,1,0-.43-.54.35.35,0,1,0,.43.54Z" transform="translate(1.36)"/><path class="cls-6" d="M137.69,91.4a.35.35,0,1,0-.44-.54.35.35,0,1,0,.44.54Z" transform="translate(1.36)"/><path class="cls-6" d="M137.56,96.74a.35.35,0,1,0-.44-.55.35.35,0,1,0,.44.55Z" transform="translate(1.36)"/><path class="cls-6" d="M135,102.13a.35.35,0,1,0-.44-.54.35.35,0,1,0,.44.54Z" transform="translate(1.36)"/><path class="cls-6" d="M130.89,105.27a.35.35,0,1,0-.44-.54.35.35,0,1,0,.44.54Z" transform="translate(1.36)"/><path class="cls-6" d="M112,89.36a.35.35,0,1,0-.43-.54.35.35,0,1,0,.43.54Z" transform="translate(1.36)"/><path class="cls-6" d="M110.58,97.22a.35.35,0,1,0-.44-.55.35.35,0,1,0,.44.55Z" transform="translate(1.36)"/><path class="cls-6" d="M117.15,90.22a.35.35,0,1,0-.44-.54.35.35,0,1,0,.44.54Z" transform="translate(1.36)"/><path class="cls-6" d="M111.92,82.93a.35.35,0,1,0-.43-.54.35.35,0,1,0,.43.54Z" transform="translate(1.36)"/><path class="cls-6" d="M122.48,74.81a.35.35,0,1,0-.44-.54.35.35,0,1,0,.44.54Z" transform="translate(1.36)"/><path class="cls-6" d="M122.32,80.38a.35.35,0,1,0-.44-.54.35.35,0,1,0,.44.54Z" transform="translate(1.36)"/><path class="cls-6" d="M133.81,79.46a.35.35,0,1,0-.44-.54.35.35,0,1,0,.44.54Z" transform="translate(1.36)"/><path class="cls-6" d="M138.92,84.12a.35.35,0,1,0-.44-.54.35.35,0,1,0,.44.54Z" transform="translate(1.36)"/></g></g></g></svg>