<svg xmlns="http://www.w3.org/2000/svg" xmlns:xlink="http://www.w3.org/1999/xlink" viewBox="0 0 141.14 133.11"><defs><style>.cls-1{fill:none;}.cls-2{clip-path:url(#clip-path);}.cls-3{fill:#868bd1;}.cls-4{fill:#d1d6ed;}.cls-5{fill:#6972c4;}</style><clipPath id="clip-path" transform="translate(12.79)"><circle class="cls-1" cx="53.97" cy="53.97" r="53.97"/></clipPath></defs><g id="Layer_2" data-name="Layer 2"><g id="_2ND_PLANET" data-name="2ND PLANET"><g class="cls-2"><circle class="cls-3" cx="66.75" cy="53.97" r="53.97"/><path class="cls-4" d="M79.8,13.69c-22,4-44.29-4.56-66.63-4.31C8,9.44,2.55,10.07-1.66,13.1s-6.58,9.11-4,13.59c1.82,3.15,5.49,4.71,9,5.58,9.77,2.38,20.36,1,29.72,4.69a14.1,14.1,0,0,1,6.76,4.86c1.58,2.33,1.93,5.65.26,7.91-2.06,2.78-6.23,3-9.5,1.88s-6.14-3.21-9.42-4.3-7.45-.82-9.46,2c-2.1,3-.77,7.13,1.2,10.19A29.24,29.24,0,0,0,28.2,71.3C35.47,73.71,43.33,73.16,51,73s15.7.19,22.29,4.09,11,12.44,7.89,19.43c-2.1,4.71-7,7.58-11.85,9.23A42.14,42.14,0,0,1,51,107.65c-4.32-.51-9.25-1.53-12.58,1.26-2.81,2.34-3.22,6.72-1.74,10.06s4.49,5.76,7.65,7.59c11.76,6.82,26.14,6.73,39.73,6.45,7.82-.16,15.75-.34,23.24-2.58s14.62-6.84,18.16-13.81a29.56,29.56,0,0,0,2.85-12.47c.44-14.54-7.08-29.59-20.08-36.12-9-4.52-19.46-4.73-29.53-4.84L35.65,62.7c-6.65-.07-14.9-1.24-17-7.53,4.48-.51,8.94.79,13.32,1.89s9,2,13.34.67,8.06-5.55,7.31-10C51.94,44,48.65,41.5,46,38.89S40.84,32.37,42.45,29a7.62,7.62,0,0,1,3-3.1c6.91-4.31,15.77-2.52,23.91-2.2a60.52,60.52,0,0,0,14-1.1C88,21.67,92.77,20.09,96,16.67c2.49-2.62,5.93-13.07,0-11.5-1.69.44-4.8,4.46-6.74,5.48A33.37,33.37,0,0,1,79.8,13.69Z" transform="translate(12.79)"/><path class="cls-5" d="M102.73,39.2c-7.67-7-19-10.52-28.68-6.77-3.14,1.23-6.26,3.59-6.65,6.93-.44,3.74,2.8,7,6.35,8.3s7.43,1.07,11.17,1.52a33.27,33.27,0,0,1,19.63,9.66c3.38,3.45,13.16,14,11.66,2.64C115.15,53.46,108.53,44.46,102.73,39.2Z" transform="translate(12.79)"/><path class="cls-5" d="M15.31,75.38c11.45,4.14,23.91,4.11,36,5.72,4.52.6,9.66,1.9,11.66,6,1.83,3.76,0,8.57-3.34,11.1s-7.76,3.19-12,3c-8.78-.4-17-4-25.07-7.61l-18-8c-4.4-2-8.94-4-12.13-7.64-3.64-4.12-4.9-9.63-5.16-15-.18-3.78-.11-15,5.58-9.85,3.42,3.1,4.51,9.71,8.16,13.37A39.12,39.12,0,0,0,15.31,75.38Z" transform="translate(12.79)"/></g></g></g></svg>