<?xml version="1.0" encoding="utf-8"?>
<!-- Generator: Adobe Illustrator 26.0.3, SVG Export Plug-In . SVG Version: 6.00 Build 0)  -->
<svg version="1.1" id="Layer_1" xmlns="http://www.w3.org/2000/svg" xmlns:xlink="http://www.w3.org/1999/xlink" x="0px" y="0px"
	 viewBox="0 0 2000 1124.7" style="enable-background:new 0 0 2000 1124.7;" xml:space="preserve">
<style type="text/css">
	.st0{fill:url(#SVGID_1_);}
	.st1{fill:none;}
	.st2{fill:#09122D;}
	.st3{fill:#050C1E;}
</style>
<linearGradient id="SVGID_1_" gradientUnits="userSpaceOnUse" x1="2079.7458" y1="893.6548" x2="2079.7458" y2="967.6384" gradientTransform="matrix(-1 0 0 -1 2080 1168.6954)">
	<stop  offset="0" style="stop-color:#002F7F"/>
	<stop  offset="2.000000e-02" style="stop-color:#002C77"/>
	<stop  offset="9.000000e-02" style="stop-color:#001E59"/>
	<stop  offset="0.18" style="stop-color:#001341"/>
	<stop  offset="0.27" style="stop-color:#000B2E"/>
	<stop  offset="0.39" style="stop-color:#000520"/>
	<stop  offset="0.53" style="stop-color:#000118"/>
	<stop  offset="0.79" style="stop-color:#000016"/>
</linearGradient>
<path class="st0" d="M0.1,191.1l0.4,0.2v69.5L0,260.9L0.1,191.1z"/>
<line class="st1" x1="0.5" y1="282.4" x2="0.5" y2="421.9"/>
<ellipse transform="matrix(0.3035 -0.9528 0.9528 0.3035 -512.6313 487.0614)" class="st2" cx="76.8" cy="594.2" rx="15.2" ry="40.6"/>
<path class="st2" d="M139.7,729.1c11.1,3.8,9.4,14.2,7.6,18.2c-1.9,4-12.5,4.1-23.6,0.4c-11.1-3.7-18.5-10.1-16.7-14
	C108.9,729.7,128.4,725.4,139.7,729.1z"/>
<path class="st2" d="M334.8,678.3c12.8,5.2,11,19.4,8.7,24.9c-2.2,5.5-14.4,5.8-27.2,0.6c-12.8-5.2-18.7-5.4-16.5-10.9
	S322,673.1,334.8,678.3z"/>
<path class="st2" d="M49.2,809.9c-18,11.8-36.9-0.4-42.9-7c-5.9-6.7,3.9-21.4,21.9-33.2s23.1-18.7,29.1-12.2
	C63.3,764,67.2,797.9,49.2,809.9z"/>
<path class="st2" d="M251,707.1c15.5,5.4,13.3,19.9,10.6,25.5c-2.7,5.5-17.5,5.8-33,0.6c-15.7-5.2-22.7-5.4-20-11.1
	C211.2,716.6,235.3,702,251,707.1z"/>
<ellipse transform="matrix(0.7711 -0.6367 0.6367 0.7711 -441.1678 304.7357)" class="st2" cx="203.3" cy="766" rx="6.8" ry="12.9"/>
<ellipse transform="matrix(0.3035 -0.9528 0.9528 0.3035 -550.176 590.0189)" class="st2" cx="128.5" cy="671.3" rx="15.2" ry="40.6"/>
<ellipse transform="matrix(0.9935 -0.1139 0.1139 0.9935 -7.5864 28.3823)" class="st2" cx="244.5" cy="80.6" rx="36" ry="15.4"/>
<path class="st2" d="M359.9,159.7c6.6-0.7,9,5.7,9.3,8.4s-4.7,5.6-11.3,6.4c-6.5,0.8-12.1-0.9-12.4-3.7
	C345.2,168.1,353.3,160.6,359.9,159.7z"/>
<path class="st2" d="M341.3,229.8c-5,11.5-18,9.4-22.9,7.3c-4.9-2.3-4.8-13.3,0.2-24.8c5-11.5,5.3-16.8,10.3-14.7
	C333.8,199.8,346.3,218.3,341.3,229.8z"/>
<path class="st2" d="M406.9,117.9c9.2-1,12.6,7.9,13.1,11.9c0.4,3.9-6.7,7.9-15.8,9c-9.2,1.1-12.7,2.9-13.1-1.1
	C390.6,133.8,397.7,119.1,406.9,117.9z"/>
<ellipse transform="matrix(0.9935 -0.1139 0.1139 0.9935 -10.0405 54.4548)" class="st2" cx="471.4" cy="115.1" rx="22.8" ry="9.7"/>
<ellipse transform="matrix(0.9935 -0.1139 0.1139 0.9935 -12.6134 37.533)" class="st2" cx="322.1" cy="129.1" rx="36" ry="15.4"/>
<path class="st3" d="M0.4,282.4v139.4c24.3,9.8,50,15.8,76.2,17.9c34.6,2.7,73.8,0.2,98.7,24.4c17,16.6,22.3,41.3,31.4,63.2
	c36.1,86.5,137.7,130.3,231.4,128.1c17.9-0.4,39.9-5.5,44.2-22.9c3.3-13.3-6.1-26-12.2-38.3c-6-12.4-6.6-31.1,6.3-35.9
	c5.7-2,12-0.4,17.8,1.2l73.5,20.9c19.9,5.7,45.3,9.8,58.1-6.3c12.9-16.1,3.5-40-9-56.3c-38.6-50.6-104.5-79.2-167.9-72.7
	c-16.1,1.7-32,5.4-48.2,5.5c-54.3,0.3-100.1-39.8-133.7-82.4c-9.9-12.5-19.2-25.6-30.5-36.9c-15.3-15.3-33.7-27.2-52.1-38.6
	c-59.6-37-120.9-70.9-184-101.6L0.1,191L0,260.8l0.5-0.1L0.4,282.4L0.4,282.4z"/>
<path class="st2" d="M1976.2,417c0,28.3-23.8,50.9-52,48.9c-57-3.7-111.5,11.2-148.4,62.4c-21.1,29.4-36.1,69.7-71.1,78.6
	c-14.3,3.6-33.4-2.9-34.4-17.6c-0.9-13.7,14.3-22.9,18.8-36c3.8-11-0.9-23.7-9.2-31.8c-8.3-8.1-19.7-12.5-31-15.1
	c-47.5-11-101,3.3-143.4-20.8c-10.5-6-20.3-15.2-21.7-27.1c-1.6-14.9,10.8-28.2,24.6-34.3c13.8-6,29.2-7,43.7-11.1
	c22-6.4,41.4-19.9,62.4-28.9c21.7-9.3,45.3-13.8,68.7-17.1c61.8-8.7,124.5-9.4,186.8-6.3c22.4,1,44.7,3.7,66.8,8
	C1959.6,373.3,1976.2,393.5,1976.2,417L1976.2,417z"/>
<ellipse transform="matrix(0.9957 -9.305827e-02 9.305827e-02 0.9957 -28.7829 143.5944)" class="st2" cx="1525.3" cy="380.4" rx="80.4" ry="23.8"/>
<ellipse transform="matrix(0.1094 -0.994 0.994 0.1094 707.3254 1721.0071)" class="st2" cx="1314.1" cy="465.8" rx="24.4" ry="56.8"/>
<ellipse transform="matrix(0.1094 -0.994 0.994 0.1094 1576.3336 1865.22)" class="st3" cx="1829.1" cy="52.9" rx="22.1" ry="51.3"/>
<ellipse transform="matrix(0.1094 -0.994 0.994 0.1094 509.8866 839.0837)" class="st3" cx="723.2" cy="135" rx="22.1" ry="51.3"/>
<ellipse transform="matrix(0.1094 -0.994 0.994 0.1094 -53.9385 994.496)" class="st3" cx="528" cy="527.3" rx="22.1" ry="51.3"/>
<ellipse transform="matrix(0.1094 -0.994 0.994 0.1094 413.3986 1713.2852)" class="st2" cx="1162.8" cy="625.9" rx="24.4" ry="56.8"/>
<ellipse transform="matrix(0.1094 -0.994 0.994 0.1094 640.229 2064.6921)" class="st2" cx="1472.3" cy="675.1" rx="17.1" ry="19.9"/>
<ellipse transform="matrix(0.1104 -0.9939 0.9939 0.1104 626.0561 1027.2565)" class="st3" cx="886.9" cy="163.9" rx="15.3" ry="17.9"/>
<ellipse transform="matrix(0.1094 -0.994 0.994 0.1094 1479.6243 1814.1802)" class="st3" cx="1752.2" cy="81.4" rx="15.4" ry="18"/>
<ellipse transform="matrix(0.1094 -0.994 0.994 0.1094 608.9243 1669.4019)" class="st2" cx="1236.1" cy="494.9" rx="17.1" ry="19.9"/>
<ellipse transform="matrix(0.1094 -0.994 0.994 0.1094 433.6505 803.5809)" class="st3" cx="665.3" cy="159.8" rx="15.4" ry="18"/>
<path class="st2" d="M138.3,323.3c12.6,10.4-11.1,28.4,0.9,35.9c5,3,11.1,4.1,16.4,6.6c5.3,2.5,10.1,8,8.7,13.7
	c-1.4,5.9-8.4,8.5-14.4,9.6c-14.8,2.5-30.8,1.5-43.8-6c-13-7.4-22.5-22.2-20.9-37.1c0.5-5.3,2.3-10.4,2.3-15.7
	c0.2-17.9-19.1-29.7-36.6-33.4c-17.3-3.7-36.3-3.9-50.4-14.4v-21.8C29.2,254.2,125.8,312.8,138.3,323.3z"/>
<path class="st2" d="M1268.7,534.4c-8.8-2.5-17.9-3.9-27.1-4.4c-4.3-0.1-9,0-12.3,2.8c-4.4,3.7-4.4,10.8-1.3,15.7s8.1,8,13.1,10.8
	c22.4,12.3,46.8,20.5,71.9,24.2c7.8,1.1,16.1,1.8,23-1.7c7.1-3.5,11.8-12.6,8-19.4c-2.4-4.3-7.1-6.4-11.5-8.3
	c-20.2-8.5-40.9-16.2-61.9-22.6L1268.7,534.4z"/>
<path class="st2" d="M1923.2,703.4c-8.8-2.5-17.9-3.9-27.1-4.4c-4.3-0.1-9,0-12.3,2.8c-4.4,3.7-4.4,10.8-1.3,15.7
	c3,4.9,8.1,8,13.1,10.8c22.4,12.1,46.8,20.3,71.9,24.2c7.8,1.1,16,1.8,23-1.7c7.1-3.5,11.8-12.6,8-19.4c-2.2-4.3-7-6.4-11.5-8.3
	c-20.2-8.5-40.9-16.2-61.9-22.6L1923.2,703.4z"/>
</svg>
