<?xml version="1.0" encoding="utf-8"?>
<!-- Generator: Adobe Illustrator 26.0.3, SVG Export Plug-In . SVG Version: 6.00 Build 0)  -->
<svg version="1.1" id="Layer_1" xmlns="http://www.w3.org/2000/svg" xmlns:xlink="http://www.w3.org/1999/xlink" x="0px" y="0px"
	 viewBox="0 0 656.8 100.6" style="enable-background:new 0 0 656.8 100.6;" xml:space="preserve">
<style type="text/css">
	.st0{fill:#396999;}
	.st1{fill:#1B5D9E;}
</style>
<g id="Layer_2_00000129207800243297455520000003714744781052055480_">
	<g id="bg_00000132768935733466566030000002215781100089651598_">
		<path class="st0" d="M0,90.1c0,0,19.7-57.6,70.5-38c0,0,24.3-61.3,78.7-19.7c0,0,15-45.1,53.2-28.9s30.1,45.1,30.1,45.1
			s50.9-20.8,68.3,41.6L0,90.1z"/>
	</g>
</g>
<g id="Layer_2_00000094587728082352481260000016686503065831083677_">
	<g id="bg_00000012456754983972432730000009691808925208802455_">
		<path class="st1" d="M467.2,95c0,0,12.4-39.6,44.5-26.1c0,0,15.3-42.1,49.6-13.5c0,0,9.5-31,33.5-19.9s19,31,19,31
			s32.1-14.3,43,28.6L467.2,95z"/>
	</g>
</g>
<g id="Layer_2_00000181051741647058019470000000143701491110829728_">
	<g id="bg_00000081624580423689944820000015571598431771932588_">
		<path class="st1" d="M228.6,100.5c0,0,7.3-23.3,26.1-15.3c0,0,9-24.7,29.1-7.9c0,0,5.6-18.2,19.7-11.7s11.1,18.2,11.1,18.2
			s18.8-8.4,25.3,16.8L228.6,100.5z"/>
	</g>
</g>
</svg>
