<svg xmlns="http://www.w3.org/2000/svg" viewBox="0 0 356.83 96.09"><defs><style>.cls-1{fill:#23c0ee;}</style></defs><g id="Layer_2" data-name="Layer 2"><g id="bubbles"><path class="cls-1" d="M332.38,23a7.23,7.23,0,0,0-1.22,4.21,7.45,7.45,0,0,0,.35,2.61,5.82,5.82,0,0,0,2.11,2.81,6.15,6.15,0,0,0,3.95,1.14,6.65,6.65,0,0,0,5.73-4.57C345.38,22.61,336.83,17,332.38,23Z"/><path class="cls-1" d="M3.25,68.17A7.22,7.22,0,0,0,2,72.38,7.86,7.86,0,0,0,2.37,75,5.88,5.88,0,0,0,4.49,77.8a6.11,6.11,0,0,0,3.95,1.14,6.64,6.64,0,0,0,5.72-4.57C16.25,67.76,7.7,62.15,3.25,68.17Z"/><path class="cls-1" d="M340.21,43.42a4.94,4.94,0,0,0-.83,2.86,5.11,5.11,0,0,0,.24,1.78A4,4,0,0,0,341.05,50a4.19,4.19,0,0,0,2.69.78,4.52,4.52,0,0,0,3.9-3.11C349.06,43.14,343.24,39.32,340.21,43.42Z"/><path class="cls-1" d="M349.18,79.61a4.94,4.94,0,0,0-.83,2.86,5.11,5.11,0,0,0,.24,1.78A4,4,0,0,0,350,86.16a4.19,4.19,0,0,0,2.69.78,4.52,4.52,0,0,0,3.9-3.11C358,79.33,352.21,75.51,349.18,79.61Z"/><path class="cls-1" d="M258.86,1.75A4.87,4.87,0,0,0,258,4.61a5.26,5.26,0,0,0,.23,1.77A4,4,0,0,0,259.7,8.3a4.31,4.31,0,0,0,2.69.78A4.52,4.52,0,0,0,266.29,6C267.71,1.47,261.89-2.35,258.86,1.75Z"/><path class="cls-1" d="M119.6,88.75a4.92,4.92,0,0,0-.83,2.87,5.26,5.26,0,0,0,.23,1.77,4,4,0,0,0,1.44,1.92,4.22,4.22,0,0,0,2.69.77A4.5,4.5,0,0,0,127,93C128.45,88.48,122.63,84.66,119.6,88.75Z"/><path class="cls-1" d="M235.35,70.28a4.9,4.9,0,0,0-.83,2.87,5.29,5.29,0,0,0,.23,1.77,4,4,0,0,0,1.44,1.92,4.24,4.24,0,0,0,2.69.77,4.49,4.49,0,0,0,3.9-3.11C244.2,70,238.38,66.19,235.35,70.28Z"/><path class="cls-1" d="M18.59,50.29A3.35,3.35,0,0,0,18,52.22a3.45,3.45,0,0,0,.16,1.2,2.71,2.71,0,0,0,1,1.29,2.88,2.88,0,0,0,1.82.53,3.07,3.07,0,0,0,2.63-2.1C24.56,50.1,20.64,47.52,18.59,50.29Z"/><path class="cls-1" d="M.56,41.85A3.33,3.33,0,0,0,0,43.78,3.51,3.51,0,0,0,.16,45a2.76,2.76,0,0,0,1,1.29A2.88,2.88,0,0,0,3,46.79a3,3,0,0,0,2.63-2.1C6.53,41.66,2.61,39.08.56,41.85Z"/><path class="cls-1" d="M95.53,64.1A3.35,3.35,0,0,0,95,66a3.45,3.45,0,0,0,.16,1.2,2.71,2.71,0,0,0,1,1.29,2.82,2.82,0,0,0,1.82.52,3,3,0,0,0,2.62-2.1C101.5,63.91,97.58,61.33,95.53,64.1Z"/><path class="cls-1" d="M102.39,53.77a3.31,3.31,0,0,0-.56,1.94A3.2,3.2,0,0,0,102,56.9a2.61,2.61,0,0,0,1,1.3,2.85,2.85,0,0,0,1.81.52,3,3,0,0,0,2.63-2.1C108.36,53.59,104.43,51,102.39,53.77Z"/></g></g></svg>