<svg xmlns="http://www.w3.org/2000/svg" xmlns:xlink="http://www.w3.org/1999/xlink" viewBox="0 0 74.86 40.15"><defs><style>.cls-1{fill:none;}.cls-2{isolation:isolate;}.cls-3{fill:#0f6026;}.cls-4{fill:#2bb251;}.cls-5{fill:#fff;}.cls-6{clip-path:url(#clip-path);}.cls-7{fill:#0e0e0e;}.cls-8{opacity:0.79;}.cls-9{mix-blend-mode:multiply;opacity:0.5;}.cls-10{fill:#cc6c28;}</style><clipPath id="clip-path"><path class="cls-1" d="M15.62,27.46,4.43,25.16c1.06-5.11,3.39-8.94,7.5-8.1C16.19,17.94,16.67,22.36,15.62,27.46Z"/></clipPath></defs><g class="cls-2"><g id="Layer_2" data-name="Layer 2"><g id="fish_group" data-name="fish group"><path class="cls-3" d="M16.09,33.77l12.62,3.92a49.56,49.56,0,0,0,10.83,2.46c-.2-1.62-.41-3.23-.63-4.84s-.61-3.61-2.6-4.5"/><path class="cls-3" d="M18.46,13.29,26.4,5.62A31.58,31.58,0,0,1,33.48,0q.45,2.67.89,5.34c.31,1.88.56,4-.62,5.52"/><path class="cls-3" d="M74,8.5S65.21,12.09,62.9,18.59C62.9,18.59,70.82,20.53,74,8.5Z"/><path class="cls-3" d="M74.86,27.91s-9-4.16-11.81-10.82C63.05,17.09,70.84,15.65,74.86,27.91Z"/><path class="cls-4" d="M0,27.8S21.57-5.56,66.24,17.9C66.24,17.9,30.5,48.21,0,27.8Z"/><path class="cls-5" d="M15.62,27.46,4.44,25.15c1-5.11,3.38-8.94,7.49-8.1C16.19,17.93,16.67,22.35,15.62,27.46Z"/><g class="cls-6"><circle class="cls-7" cx="8.15" cy="24.25" r="2.9"/></g><circle class="cls-5" cx="7.56" cy="23.8" r="0.82"/><g class="cls-8"><g class="cls-9"><path class="cls-10" d="M23.91,30.34c.71-.88,1.71-2.19,1.34-3.67-.47-1.81-1.71-3-2.41-4.65l-.54,1.44c1.81-.58,4.6-1.64,3.84-4.75a9.08,9.08,0,0,0-1.37-2.79,7.63,7.63,0,0,1-.7-1.13c-.11-.23-.2.37,0,.25a5.2,5.2,0,0,0,.79-.63c.65-.71.29-2.49-.73-2.49-1.86,0-3.16,2.12-2,4.33a14.36,14.36,0,0,0,1.79,2.46c1.41,1.74-.8,2.31-1.93,2.72a1,1,0,0,0-.54,1.44c1,2.17,3.34,3.67,1.52,6.07-.61.8.35,2.21,1,1.4Z"/></g><g class="cls-9"><path class="cls-10" d="M42.87,26.15a8.56,8.56,0,0,0,.84-3c.19-.91.95-1.13,1.56-1.46,1.67-.91,1.89-3,1.32-5.06l-.67,1.8a5.56,5.56,0,0,0,2.38-3c.45-1.2-.91-2.59-1.78-2s-1.12,1.47-1.89,1.93a1.7,1.7,0,0,0-.67,1.8c.13.48.52,1.29.1,1.62A14.55,14.55,0,0,0,42.55,20c-1.25,1.29-1.12,3.6-1,5.51,0,.93.92,1.38,1.37.65Z"/></g><g class="cls-9"><path class="cls-10" d="M31.07,26.15a8.78,8.78,0,0,0,.84-3c.19-.91.94-1.13,1.56-1.46,1.67-.91,1.89-3,1.32-5.06l-.67,1.8a5.5,5.5,0,0,0,2.37-3c.46-1.2-.9-2.59-1.77-2s-1.12,1.47-1.89,1.93a1.71,1.71,0,0,0-.68,1.8c.14.48.53,1.29.1,1.62A17,17,0,0,0,30.74,20c-1.24,1.29-1.11,3.6-1,5.51,0,.93.92,1.38,1.37.65Z"/></g><g class="cls-9"><path class="cls-10" d="M50.61,23.84a8.42,8.42,0,0,1,1.58-.69c.9-.18,1-.55,1.41-1.5.61-1.59,2-2.19,2.9-3.49.58-.86-.31-2.54-1.21-2.21-2,.71-3.44,2.79-4,5.2l.55-.78c-.9.35-1.35,1.24-2,2s.09,1.78.8,1.47Z"/></g></g><path class="cls-3" d="M41.87,18.21a2.81,2.81,0,0,1-.17,1.56L41,22.05a3.67,3.67,0,0,1-.72,1.5,2.83,2.83,0,0,1-1.85.78,11.22,11.22,0,0,1-3.92-.59c-1.77-.49-7.24-1-7.74-3C27.91,20.23,41.69,17.71,41.87,18.21Z"/></g></g></g></svg>