<svg xmlns="http://www.w3.org/2000/svg" xmlns:xlink="http://www.w3.org/1999/xlink" viewBox="0 0 146.3 76.21"><defs><style>.cls-1{fill:none;}.cls-2{isolation:isolate;}.cls-3{fill:#7ac44b;}.cls-4{fill:#0f6026;}.cls-5{fill:#258944;}.cls-6{fill:#fff;}.cls-7{clip-path:url(#clip-path);}.cls-8{fill:#0e0e0e;}.cls-9{opacity:0.79;}.cls-10{mix-blend-mode:multiply;opacity:0.5;}.cls-11{fill:#cc6c28;}</style><clipPath id="clip-path"><path class="cls-1" d="M115.78,52.13l21.86-4.37c-2.06-9.69-6.61-17-14.65-15.37C114.66,34.06,113.72,42.44,115.78,52.13Z"/></clipPath></defs><g class="cls-2"><g id="Layer_2" data-name="Layer 2"><g id="fish_group" data-name="fish group"><path class="cls-3" d="M114.85,64.11,90.2,71.54c-6.75,2-13.62,4.09-21.18,4.67q.6-4.6,1.23-9.19c.44-3.24,1.2-6.85,5.09-8.54"/><path class="cls-3" d="M110.23,25.22,94.7,10.67c-4.26-4-8.59-8-13.83-10.67-.59,3.38-1.17,6.75-1.74,10.13-.61,3.58-1.09,7.63,1.21,10.48"/><path class="cls-4" d="M1.74,16.14S18.86,23,23.37,35.29C23.37,35.29,7.9,39,1.74,16.14Z"/><path class="cls-4" d="M0,53s17.66-7.89,23.09-20.53C23.09,32.45,7.85,29.71,0,53Z"/><path class="cls-5" d="M146.3,52.76S104.14-10.55,16.84,34C16.84,34,86.69,91.51,146.3,52.76Z"/><path class="cls-6" d="M115.77,52.12l21.86-4.37c-2-9.7-6.61-17-14.65-15.38C114.65,34,113.72,42.42,115.77,52.12Z"/><g class="cls-7"><ellipse class="cls-8" cx="130.38" cy="46.04" rx="5.67" ry="5.51"/></g><ellipse class="cls-6" cx="131.52" cy="45.18" rx="1.61" ry="1.56"/><g class="cls-9"><g class="cls-10"><path class="cls-11" d="M99.57,57.59c-1.38-1.66-3.35-4.16-2.61-7,.91-3.45,3.34-5.66,4.71-8.83.35.92.7,1.83,1.06,2.73-3.55-1.1-9-3.12-7.51-9a17.06,17.06,0,0,1,2.67-5.28,15.54,15.54,0,0,0,1.38-2.16c.2-.43.38.7.06.47a9,9,0,0,1-1.53-1.19c-1.28-1.34-.57-4.73,1.41-4.73,3.66,0,6.18,4,4,8.22a27.22,27.22,0,0,1-3.48,4.68c-2.76,3.3,1.55,4.39,3.76,5.16a2,2,0,0,1,1.06,2.73c-1.9,4.12-6.53,7-3,11.52,1.19,1.52-.68,4.19-2,2.66Z"/></g><g class="cls-10"><path class="cls-11" d="M62.51,49.63C61.44,47.94,61.29,46,60.87,44c-.36-1.74-1.84-2.14-3-2.78-3.27-1.73-3.7-5.61-2.59-9.6L56.56,35a10.53,10.53,0,0,1-4.65-5.74C51,27,53.68,24.35,55.38,25.5c1.46,1,2.2,2.79,3.69,3.65a3.21,3.21,0,0,1,1.32,3.43c-.26.9-1,2.44-.19,3.07a30.66,30.66,0,0,1,2.95,2.29c2.44,2.46,2.19,6.85,2,10.46-.08,1.76-1.79,2.63-2.68,1.23Z"/></g><g class="cls-10"><path class="cls-11" d="M85.58,49.63C84.51,47.94,84.36,46,83.93,44c-.36-1.74-1.84-2.14-3-2.78-3.28-1.73-3.7-5.61-2.59-9.6L79.63,35A10.48,10.48,0,0,1,75,29.27c-.9-2.28,1.77-4.92,3.47-3.77,1.45,1,2.19,2.79,3.69,3.65a3.21,3.21,0,0,1,1.32,3.43c-.27.9-1,2.44-.19,3.07a30.66,30.66,0,0,1,3,2.29c2.44,2.46,2.18,6.85,2,10.46-.07,1.76-1.79,2.63-2.67,1.23Z"/></g><g class="cls-10"><path class="cls-11" d="M47.39,45.25A16.9,16.9,0,0,0,44.3,44c-1.75-.35-2-1-2.75-2.86-1.2-3-4-4.16-5.66-6.61-1.15-1.65.6-4.83,2.35-4.21,3.83,1.36,6.73,5.31,7.9,9.87l-1.07-1.47c1.76.67,2.63,2.35,3.89,3.8,1.12,1.29-.18,3.37-1.57,2.78Z"/></g></g><path class="cls-3" d="M64.48,34.57a5.19,5.19,0,0,0,.32,3l1.36,4.34a6.93,6.93,0,0,0,1.39,2.84,5.62,5.62,0,0,0,3.62,1.48,22.37,22.37,0,0,0,7.67-1.12C82.29,44.14,93,43.17,94,39.39,91.75,38.4,64.82,33.61,64.48,34.57Z"/></g></g></g></svg>