<svg xmlns="http://www.w3.org/2000/svg" xmlns:xlink="http://www.w3.org/1999/xlink" viewBox="0 0 79.29 52.3"><defs><style>.cls-1,.cls-4,.cls-5{fill:none;}.cls-2{fill:#f76531;}.cls-3{fill:#f2852c;}.cls-4{stroke:#ffc0a1;stroke-miterlimit:10;stroke-width:0.78px;}.cls-4,.cls-5{stroke-linecap:round;}.cls-5{stroke:#231f20;stroke-linejoin:round;stroke-width:0.56px;}.cls-6{fill:#fff;}.cls-7{clip-path:url(#clip-path);}.cls-8{fill:#0e0e0e;}</style><clipPath id="clip-path"><path class="cls-1" d="M68.19,17l7.09-3.72c-1.7-3.24-4-5.37-6.62-4S66.49,13.72,68.19,17Z"/></clipPath></defs><g id="Layer_2" data-name="Layer 2"><g id="pink_fish" data-name="pink fish"><path class="cls-2" d="M58.6,5A58.18,58.18,0,0,0,25.34.84c5.05,2,8.82,9.93,8,16.65"/><path class="cls-2" d="M65.12,36.94c-9.26,4-20.62,7.87-30.56,8.8,2.73-2.27,4-7.13,3.19-11.68"/><path class="cls-3" d="M21,25.26,38.11,12.92A49.12,49.12,0,0,1,45,8.54,32.85,32.85,0,0,1,55.56,5.68a26.35,26.35,0,0,1,9.07.18c5.45,1.23,10.77,5.21,14.66,11-2.2,6.08-4.44,12.4-8.48,16.28-6.43,6.16-15.34,6.42-23.64,4.31s-16.41-6.33-24.7-8.5"/><path class="cls-2" d="M21.19,24.9C16,15.74,8.08,9.35,0,7.8A41.3,41.3,0,0,0,8,31.92,55.89,55.89,0,0,0,8.17,52.3c8.23-1.75,14.57-11.51,15-23"/><path class="cls-4" d="M58.85,5.2A203.63,203.63,0,0,1,65,36.48"/><path class="cls-5" d="M78.58,19A2.6,2.6,0,0,1,76,21a3.65,3.65,0,0,1-2.72-2.49"/><path class="cls-4" d="M57.7,6.06c-1,.05-1.56,1.41-1.19,2.37a4.94,4.94,0,0,0,2.15,2.14,2.66,2.66,0,0,0-1.95,2.69A2.67,2.67,0,0,0,59,15.62a2.28,2.28,0,0,0-.42,3,6.66,6.66,0,0,0,2.57,2.12,3.57,3.57,0,0,0,.36,6.46A3.42,3.42,0,0,0,59,29.93c-.12,1.33,1.23,2.7,2.49,2.27-.25,1-1.53,1.3-1.9,2.22a1.8,1.8,0,0,0,1,2.13,4.24,4.24,0,0,0,2.52.26"/><path class="cls-4" d="M52.1,7.59a2.14,2.14,0,0,0-1.5,2.85,3.35,3.35,0,0,0,2.92,2,4.64,4.64,0,0,0-3.31,4,3.29,3.29,0,0,0,3.47,3.38c-1.49.59-3.27,1.63-3.07,3.22.17,1.25,1.5,1.95,2.66,2.43a5.47,5.47,0,0,0-2.37,1.34,1.89,1.89,0,0,0-.12,2.49c1,1,3,.21,3.79,1.32A5.1,5.1,0,0,0,52.92,32a1.82,1.82,0,0,0,0,2.07c.58.7,1.83.77,2.1,1.64a2.59,2.59,0,0,0-1,1.8c0,.71,1.08,1.26,1.47.66"/><path class="cls-4" d="M44.44,10.9a4.2,4.2,0,0,0,1.35,7.37A3.31,3.31,0,0,0,43,19.52a2.68,2.68,0,0,0-.16,3,4.81,4.81,0,0,0,2.76,1.65,7.68,7.68,0,0,0-2.72.69,2.6,2.6,0,0,0-1.46,2.24c.06,1.54,1.81,2.35,3.27,2.82a1.85,1.85,0,0,0-2.2,2.15,2.35,2.35,0,0,0,3,1.5,2.25,2.25,0,0,0-1.25,1.93c.08.8,1.37,1.27,1.71.54"/><path class="cls-4" d="M36,17.91a3.58,3.58,0,0,0,1,6,2.26,2.26,0,0,0,.16,4.43c-.64-.08-1.16.56-1.29,1.19a2.59,2.59,0,0,0,1.91,2.95"/><path class="cls-2" d="M38.78,16c1.28,3,5.22,3.71,7.55,6,1.84,1.79,2.55,4.41,3.18,6.89L55.79,25a7.88,7.88,0,0,0,1.73-1.29,5.57,5.57,0,0,0,1.27-2.5c1.07-4.37-4.44-3.83-7.35-4.23-2.1-.28-4.21-.51-6.32-.67C44.46,16.29,38.92,16.36,38.78,16Z"/><path class="cls-6" d="M68.19,17l7.08-3.72c-1.69-3.23-4-5.36-6.61-4S66.49,13.71,68.19,17Z"/><g class="cls-7"><circle class="cls-8" cx="72.6" cy="13.35" r="2.03"/></g><circle class="cls-6" cx="72.91" cy="12.93" r="0.58"/></g></g></svg>