<svg xmlns="http://www.w3.org/2000/svg" viewBox="0 0 120.49 190.79"><defs><style>.cls-1{fill:#d978ea;}.cls-2{fill:#993eb7;}.cls-3{fill:#b249c4;}.cls-4{fill:#f48eea;}</style></defs><g id="Layer_2" data-name="Layer 2"><g id="jlly_fish" data-name="jlly fish"><path class="cls-1" d="M61.8,31.87c-2.95,5.05-2.1,11.25.45,16.27,2.63,5.22,6.91,8.93,11.55,12.32,2.1,1.53,4.7,3.27,5.47,5.89.86,2.94.1,6.19-.66,9.06a70.8,70.8,0,0,0-2.22,9,26.4,26.4,0,0,0,.1,7.32,31.05,31.05,0,0,0,6.2,14.29A27.51,27.51,0,0,0,88,111.29a69.89,69.89,0,0,0,6.72,4c2.08,1.21,4.63,2.71,5.65,5,1.23,2.76.9,6.11,1.22,9a25.35,25.35,0,0,0,7.09,14.89c2,2,4.29,3.51,6.43,5.28s3.8,3.35,3.67,6.17-1.47,5.48-1.84,8.29a8.46,8.46,0,0,0,2.32,7c.44.46.62.2.59-.31a4,4,0,0,0-1.06-2c-.43-.45-.08.14-.18-.36a4.34,4.34,0,0,1-.06-.62,7.93,7.93,0,0,1,.15-1.69c.22-1.26.61-2.49,1-3.71a13.86,13.86,0,0,0,.63-6.72c-1-4.67-4.77-7.75-8.36-10.5a26,26,0,0,1-5.54-5.25,17.27,17.27,0,0,1-3-7.62c-.4-2.81-.25-5.68-.84-8.47A15.52,15.52,0,0,0,99,116.53c-3.31-3.7-8.25-5.18-12.13-8.13a22.79,22.79,0,0,1-8.12-12.07,24.44,24.44,0,0,1-.8-7.66,36.85,36.85,0,0,1,1.64-8.1c1.55-5.45,2.84-10.89-.1-16.13S70.34,56.6,66.25,52.19C61.8,47.37,60,40.42,63.47,34.5c.4-.68-1.36-3.14-1.67-2.63Z"/><path class="cls-2" d="M76.7,34.92c-.19.59-.81.9-1.19,1.36a4.6,4.6,0,0,0-.81,1.57A11.39,11.39,0,0,0,74,42a9.75,9.75,0,0,0,3.14,6.31c1.89,1.55,4.26,2.32,6.15,3.86s5.25,4.48,4.84,7.21a11.94,11.94,0,0,1-1.54,3.44,38,38,0,0,1-2.34,3.8A24.79,24.79,0,0,0,82.43,70a18.77,18.77,0,0,0-1.59,3.69c-.58,2.46-1,5.27-.08,7.68a15.59,15.59,0,0,0,3.65,5.29,64.92,64.92,0,0,1,4.66,4.87c1.69,2.13,3.45,4.85,2.46,7.67-.77,2.19-2.74,3.78-4,5.67a13.07,13.07,0,0,0-2.6,7.36,16,16,0,0,0,1.74,6.56,9,9,0,0,0,1.76,2.52,16.63,16.63,0,0,1,2.29,2c1,1.31-.43,2.78-1.25,3.77s-1.82,2.26-2.74,3.37a6.21,6.21,0,0,0-1.37,6,31.5,31.5,0,0,0,3.45,8.73c1.59,2.76,3.58,5.27,5.13,8a6.1,6.1,0,0,1,.86,2.32,8,8,0,0,1-.43,2.52,11.31,11.31,0,0,0,0,4.49,9.81,9.81,0,0,0,1.46,4,20.07,20.07,0,0,0,3.13,3c.69.62,3-.36,2.28-1A26.41,26.41,0,0,1,98.41,166a8.22,8.22,0,0,1-1.58-3.9,10.53,10.53,0,0,1-.06-4.11c.29-1.36.72-2.55.29-3.95-.8-2.57-2.85-4.91-4.31-7.14a35.43,35.43,0,0,1-3.84-7.44c-.83-2.29-2.2-5.46-.78-7.75s3.81-4,5-6.49c1.1-2.28-.54-3.29-2.13-4.64-1.78-1.52-2.65-3.9-3.18-6.12a10.36,10.36,0,0,1,.8-7.39c1.13-2.3,2.94-4,4.35-6.1a6.71,6.71,0,0,0,.88-6.37,19.11,19.11,0,0,0-4.31-6.11C86.42,85.32,82.19,82,82.78,77a23.61,23.61,0,0,1,.65-4,29,29,0,0,1,1.84-4c1.17-2.46,2.88-4.64,4.14-7.07a7.33,7.33,0,0,0,1.25-3.65A7.3,7.3,0,0,0,89,54.58,20.1,20.1,0,0,0,82.27,49a12.79,12.79,0,0,1-3.48-2.31,9.77,9.77,0,0,1-2-3.81A8.08,8.08,0,0,1,77.07,38a3.77,3.77,0,0,1,1.11-1.86,3.28,3.28,0,0,0,1-1.46c.3-.92-2.19-.59-2.48.29Z"/><path class="cls-2" d="M49.08,45.72c-3.14,1.48-4.83,6.61-5.41,9.75-.68,3.61-.3,8.17,2.1,11.12C48,69.27,51.41,70,51.89,73.92c.39,3.25-.56,7.3-1.65,10.28-2,5.42-5.33,10.38-6.62,16.06-2.45,10.79,5.66,18.43,13.18,24.55,3.23,2.63,6.73,5.73,7.56,10,.42,2.16.27,4.38.74,6.55,1.46,6.61,4.32,12.34,7.54,18.23,1.14,2.11,3.6.71,2.45-1.39-3.14-5.77-6.32-11.71-7.28-18.32-.61-4.17-.44-7.48-3-11-6.58-9.17-22.17-14.45-17.74-28.42,2.74-8.64,8.9-16.49,7.89-26-.4-3.85-2.21-5.77-4.89-8.23C47,63.35,46,60.44,46.94,56.29c.51-2.18,1.89-6.21,4-7.22,1.68-.8-.18-4.16-1.9-3.35Z"/><path class="cls-1" d="M52.92,45.37c2.76,10.83,4.85,21.34,10.56,31.06,4,6.78,5.9,12.42,3.69,20.32-1.63,5.87-4.06,11.58-4.83,17.66a26.85,26.85,0,0,0,8.39,23.85c1.64,1.55,4.39,3.24,5.57,5.13,1.43,2.28-.76,3.73-1.46,5.84-1.22,3.62.13,7.5,2.08,10.56,1.36,2.14,3.33-.14,2.16-2a8.47,8.47,0,0,1-.87-7.67c.37-1,1.27-1.85,1.61-2.92a4.89,4.89,0,0,0,.35-3.11c-.72-2.91-4.08-5.08-6.16-7-5.12-4.7-8.2-9.09-8.76-16.23-.48-6.26,1.6-12.1,3.46-18,2.88-9.16,3.68-16.25-1-24.91-2.6-4.77-5.52-9.17-7.13-14.42-1.84-6-3.15-12.21-4.7-18.3-.53-2.08-3.56-2.37-2.93.09Z"/><path class="cls-2" d="M67.66,34.09c.13,3.9.79,8.22-.55,12-1.26,3.55-4.28,6.22-6.18,9.43-3,5-5.23,12.21-4.6,18.17C57.55,85.33,71.4,90.8,80,96.06c4.46,2.73,6,5.86,3.61,10.57a32.62,32.62,0,0,1-6.48,8.56c-4.66,4.5-8.31,9.18-9.17,15.86-.65,5-.19,10.18,3.35,14,3.26,3.52,7,3.71,11.24,5.38,13.25,5.25-.82,12.11-2.15,19.38-1.44,7.87,7.09,12.12,8.88,18.89.27,1,3.16,2.28,3.1,2.06-1.61-6.13-8.2-9.67-9-16-.88-7.29,7.38-9.61,8.17-15.91.45-3.52-2.94-6.15-5.52-7.88a30.72,30.72,0,0,0-5-2.83c-4.46-1.92-9.19-2.48-10.07-8.12a24.39,24.39,0,0,1,5.63-19.28c4.1-4.57,10-8.58,11.32-15.09.8-4.08-2-6.66-5-8.84C77,92.43,69.78,90,64.29,84.72c-7.56-7.22-5.17-18.66-.3-26.88,2.05-3.47,5.28-6.3,6.4-10.26,1-3.69.5-7.66.38-11.44,0-1-3.12-2.52-3.11-2Z"/><path class="cls-1" d="M34.4,51.71c-3.95,1.9-3.06,9.44-2.26,12.77A17.49,17.49,0,0,0,41.52,76c6.39,3,13.82,2.89,20,6.54,11,6.46-3.29,12.57-8.29,16.23-4.3,3.16-6.87,7.28-5.78,12.82,1.24,6.27,7.14,8.49,11.36,12.45,5.85,5.5-5.89,11.74-4,18.39.7,2.47,3,4.44,4.65,6.26,1.37,1.49,3.33,3.29,3.7,5.41.31,1.87-.33,4.33-.24,6.28,0,.7,2.14.78,2.11.16-.09-2.18.74-5.47.08-7.57-.73-2.28-3.44-4.13-4.94-5.86-3.56-4.09-4.44-7-1.44-11.84,1.27-2.05,3.45-4.06,3.87-6.56.91-5.39-6.58-8-9.72-11.16-6.68-6.82-3.07-14.8,4-19.42,3.58-2.36,10.29-4.54,10.78-9.58.42-4.4-4.44-6.72-7.82-8.13-6.53-2.72-15-2.52-20.44-7.36A16.92,16.92,0,0,1,33.86,62c-.27-2.15-.68-8.21,2-9.49,1-.5-.89-1.05-1.45-.78Z"/><path class="cls-3" d="M28.82,13.45A29.34,29.34,0,0,1,43.89,1.27,23.21,23.21,0,0,1,63,3C66,4.79,68.43,7.29,71,9.62c5.34,4.83,11.33,9.08,18.08,11.58s14.35,3.15,21.17.85c-.18,4.8-4.25,8.77-8.82,10.27s-9.53,1-14.27.21A11.92,11.92,0,0,1,75.86,42.69c-2.43,0-4.81-.72-7.23-.84s-5.16.55-6.43,2.62c-.83,1.36-.9,3.12-1.92,4.34-1.33,1.62-3.77,1.73-5.81,1.28s-4-1.31-6.13-1.18c-4.32.28-7.1,4.52-10.59,7.09a15.26,15.26,0,0,1-13.84,2.06,16.18,16.18,0,0,0-4.14-1.25c-3.66-.22-6.42,3.31-9.94,4.36C5.42,62.48.26,58.86,0,54.26c.07,1.3,11.29-.84,12.65-2,3-2.54,4.86-8.21,6.18-11.76C22.19,31.5,23.59,21.67,28.82,13.45Z"/><path class="cls-2" d="M34.52,11.35c-1.49,2.5-3.44,4.44-4.4,7.27A61.08,61.08,0,0,0,28,26.9c-1.05,5.88.58,15.46-6.61,17.79-1.48.48,1.66,2.43,2.72,2.09,5.77-1.87,6.49-7.51,6.92-12.92a72.15,72.15,0,0,1,2.1-11.6c.95-3.82,3-6.12,5-9.39.56-.93-2.89-2.61-3.53-1.52Z"/><path class="cls-4" d="M40.71,19.82l.14-.07-.38.16a1.69,1.69,0,0,1,.44-.12l-.43.06a1.3,1.3,0,0,1,.34,0l-.42-.05a1.14,1.14,0,0,1,.25.06l-.39-.16a.72.72,0,0,1,.19.11l-.33-.26a.68.68,0,0,1,.12.12L40,19.34l.08.13-.16-.38a.83.83,0,0,1,0,.15l-.06-.43a.54.54,0,0,1,0,.18l.06-.42a1,1,0,0,1-.06.23l.16-.39a1.41,1.41,0,0,1-.18.29l.26-.32-.22.24a1.08,1.08,0,0,0-.33.51,1.44,1.44,0,0,0,0,1.24,1.08,1.08,0,0,0,.33.51l.32.26a1.63,1.63,0,0,0,.81.21l.43-.05a1.66,1.66,0,0,0,.71-.42,3.83,3.83,0,0,0,.51-.62,1.1,1.1,0,0,0,.09-.14l0-.07A4.32,4.32,0,0,0,43,19.6a.65.65,0,0,0,0-.13,3.57,3.57,0,0,0,.07-.56,2.05,2.05,0,0,0-.1-.65,3.12,3.12,0,0,0-.18-.42l0-.06a2.45,2.45,0,0,0-.31-.41l-.08-.08A3.32,3.32,0,0,0,42,17a2.7,2.7,0,0,0-1.33-.35c-.13,0-.26,0-.39,0l-.4.07-.2.06c-.19.08-.39.16-.58.26a1.26,1.26,0,0,0-.45.41,1.22,1.22,0,0,0-.28.54,1.17,1.17,0,0,0,0,.64,1.15,1.15,0,0,0,.19.6l.25.33a1.68,1.68,0,0,0,.71.41l.42.06a1.75,1.75,0,0,0,.81-.22Z"/><path class="cls-4" d="M47.25,12.54a1.61,1.61,0,0,0,0-3.21,1.61,1.61,0,0,0,0,3.21Z"/><path class="cls-4" d="M55.22,17.59a.64.64,0,0,0,0-1.28.64.64,0,0,0,0,1.28Z"/><path class="cls-4" d="M58,11.25A.65.65,0,0,0,58,10a.65.65,0,0,0,0,1.29Z"/><path class="cls-4" d="M36.36,12.35l.75-.19a.43.43,0,0,0,.22-.12.42.42,0,0,0,.17-.18.4.4,0,0,0,.07-.24.43.43,0,0,0,0-.25.64.64,0,0,0-.29-.39.72.72,0,0,0-.5-.06l-.75.19a.43.43,0,0,0-.22.12.42.42,0,0,0-.17.18.48.48,0,0,0-.07.24.43.43,0,0,0,0,.25.68.68,0,0,0,.29.39.73.73,0,0,0,.5.06Z"/><path class="cls-4" d="M31,30.44a1.29,1.29,0,0,0,0-2.57,1.29,1.29,0,0,0,0,2.57Z"/><path class="cls-4" d="M41.93,28.94a1,1,0,0,0,0-1.93,1,1,0,0,0,0,1.93Z"/><path class="cls-4" d="M37.79,34.17a.32.32,0,0,0,0-.64.32.32,0,0,0,0,.64Z"/><path class="cls-4" d="M51.48,29.49a.33.33,0,0,0,0-.65.33.33,0,0,0,0,.65Z"/><path class="cls-4" d="M59.72,26.1l.18.09a.18.18,0,0,0,.07,0c-.08,0,0,0,0,0l.06.06s0,0,0,0,0,0,0,0l0,.06,0,0c0,.05,0-.08,0,0s0,0,0,.06,0,.09,0,0,0,0,0,0a.22.22,0,0,1,0,.08v0a.64.64,0,0,0,0,.07.14.14,0,0,1,0,.06s0,.1,0,0,0,0,0,0l0,.07-.09.13,0,0,0,0-.06.06-.11.11,0,0s.07-.05,0,0l0,0-.14.08-.06,0,0,0h0l-.15.05h-.07c-.05,0,.08,0,0,0h-.15c-.06,0,0,0,0,0l-.08,0-.07,0h0l0,0-.07,0,.16.28s0-.1,0-.14,0,0,0,0a.15.15,0,0,1,0-.07,2.45,2.45,0,0,1,.08-.29.14.14,0,0,0,0-.06v0l.06-.13c.05-.09.11-.18.17-.27a.31.31,0,0,0-.11-.43.32.32,0,0,0-.44.11,2.56,2.56,0,0,0-.36.72,2.7,2.7,0,0,0-.08.39.82.82,0,0,0,0,.22.35.35,0,0,0,.19.3,1.08,1.08,0,0,0,.93.09,1.8,1.8,0,0,0,.78-.55,1.38,1.38,0,0,0,.36-.9,1.12,1.12,0,0,0-.7-.95.33.33,0,0,0-.44.11.32.32,0,0,0,.11.44Z"/><path class="cls-4" d="M64.83,19.86a3.44,3.44,0,0,1,.76-.21l-.35.05a2.62,2.62,0,0,1,.74,0l-.34-.05a2.73,2.73,0,0,1,.56.15l-.31-.13a2.1,2.1,0,0,1,.41.24,1.27,1.27,0,0,0,1,.12,1.3,1.3,0,0,0,.77-.59,1.29,1.29,0,0,0,.13-1l-.13-.31a1.35,1.35,0,0,0-.46-.46,3.42,3.42,0,0,0-1.83-.58,4.4,4.4,0,0,0-1,.08,2.94,2.94,0,0,0-.66.19,1,1,0,0,0-.44.23,1,1,0,0,0-.33.36,1.31,1.31,0,0,0-.13,1,1.34,1.34,0,0,0,.59.77,1.28,1.28,0,0,0,1,.13Z"/><path class="cls-4" d="M71.71,27.72a1.29,1.29,0,0,0,0-2.57,1.29,1.29,0,0,0,0,2.57Z"/><path class="cls-4" d="M76.51,22.56a1,1,0,0,0,0-1.93,1,1,0,0,0,0,1.93Z"/><path class="cls-4" d="M65.78,12a1,1,0,0,0,0-1.93,1,1,0,0,0,0,1.93Z"/><path class="cls-4" d="M55.45,6.19a1,1,0,0,0,0-1.93,1,1,0,0,0,0,1.93Z"/><path class="cls-4" d="M51.14,16.13a1,1,0,0,0,0-1.92,1,1,0,0,0,0,1.92Z"/><path class="cls-4" d="M48.35,27.3a1,1,0,0,0,0-1.92,1,1,0,0,0,0,1.92Z"/><path class="cls-4" d="M25.51,38.74a1,1,0,0,0,0-1.92,1,1,0,0,0,0,1.92Z"/><path class="cls-4" d="M43.37,36.21a1,1,0,0,0,0-1.92,1,1,0,0,0,0,1.92Z"/><path class="cls-4" d="M42.93,42.36a1,1,0,0,0,0-1.92,1,1,0,0,0,0,1.92Z"/></g></g></svg>