<svg xmlns="http://www.w3.org/2000/svg" viewBox="0 0 93.85 120.9"><defs><style>.cls-1{fill:#00b552;}.cls-2,.cls-3,.cls-4{fill:none;stroke:#8bc53f;stroke-linecap:round;stroke-linejoin:round;}.cls-2{stroke-width:0.99px;}.cls-3{stroke-width:1.08px;}.cls-4{stroke-width:1.42px;}</style></defs><g id="Layer_2" data-name="Layer 2"><g id="coral"><path class="cls-1" d="M63.58,12.1C62.12,18,56,23.57,56.65,29.54c.53,4.87,5.56,9.27,6.79,14.11,2.09,8.21-6.86,15.87-11.36,23.78-5,8.79-4.43,18.52,1.6,27.11,2.68,3.83,6.39,7.42,8.8,11.29s3.42,8.24.62,12a9.92,9.92,0,0,0,7.76-7.13,20.74,20.74,0,0,0,0-12.21C69.22,93.11,65.41,88,63.52,82.6a23.28,23.28,0,0,1-.13-15.24C65.1,62.18,68.6,57.23,71,52.13s3.56-10.58.67-15.6C69.58,33,65.52,29.72,65,26c-.44-3.43,2.23-6.73,3.26-10.13a11.1,11.1,0,0,0-.91-8.45C66.16,5,63.71,1.47,60,0,62.4,4.11,64.68,7.66,63.58,12.1Z"/><path class="cls-2" d="M62.72,3.44c4.13,3.14,3.79,7.43,2.21,11.21S60.72,22.14,60.86,26c.22,5.95,6.91,11.3,7.94,17.22C70.14,51,61.8,58.1,59,65.7c-4.57,12.36,5.67,24.75,9.36,37.2,1.38,4.65,1.57,9.9-3.85,13.54"/><path class="cls-1" d="M42.1,112.35c.36-9.87-7.92-15.63-16.08-20.57S9.14,81.59,8.4,72.13,15.31,49.64,10.59,42C8.71,39,4.88,37.17,0,37c11.59-2.53,20.76,2,20.79,10.3,0,4.56-2.41,9.82-3.18,14.62-1.25,7.83,2.13,14.32,9.07,17.43,4,1.8,9.12,2.52,12.71,4.71a16,16,0,0,1,5,5.21,22.16,22.16,0,0,1,3.65,14.94,29.92,29.92,0,0,1-8,16.62c-.73-.57.77-2.6,1.14-3.65A16.22,16.22,0,0,0,42.1,112.35Z"/><path class="cls-3" d="M39.86,120.11c3.81-5,5.13-10.16,4.77-14.53s-2.28-8-4.45-11.49a18.44,18.44,0,0,0-4.58-5.4,30.68,30.68,0,0,0-7.53-3.49c-6.35-2.34-12.73-5.1-14.8-10.61-3.17-8.41,4.44-21.23,1.52-29.77-1.52-4.44-6-7.35-12.09-7.9"/><path class="cls-1" d="M76.56,110.09c1.65-4.74,2.26-10.15,2.74-15.55A143.36,143.36,0,0,0,80,79.36c-.17-10.36-2-21.58.85-30.48a22.33,22.33,0,0,1,13-13.9c-2.34,1.06-3.27,4.32-3.66,7.47-1.1,8.91.58,18.7.88,28.08.46,14.28-2.34,27.79-8,38.62-2.06,3.92-5.31,9.78-9.39,10.88-.61.16-1.66.64-2.21-.59s.76-1.75,1.28-2.37A21.49,21.49,0,0,0,76.56,110.09Z"/><path class="cls-4" d="M91.28,36.89c-6.5,7.2-9.72,18.54-8.7,30.64.25,3,.75,6,1.06,9,1.82,17.33-2.8,33.7-12.32,43.65"/></g></g></svg>