<svg xmlns="http://www.w3.org/2000/svg" viewBox="0 0 273.53 365.24"><defs><style>.cls-1{fill:#3a0;}.cls-2,.cls-3,.cls-4{fill:none;stroke-linecap:round;stroke-linejoin:round;}.cls-2{stroke:#2c8f99;stroke-width:0.99px;}.cls-3,.cls-4{stroke:#147d82;}.cls-3{stroke-width:1.08px;}.cls-4{stroke-width:1.42px;}</style></defs><g id="Layer_2" data-name="Layer 2"><g id="coral"><path class="cls-1" d="M148.17,32.62c-1.68,17.31-16.7,35.46-12.38,52,3.53,13.51,19.53,23.85,25,37,9.27,22.29-12.82,47.57-22.24,71.72-10.48,26.86-4.85,54,15.69,75.79,9.13,9.68,21.08,18.27,29.46,28.21s13.05,21.8,6.71,33.65c13.21-5.12,17.66-14.88,18.94-23.31a58.77,58.77,0,0,0-5-34.43c-6.87-14.55-19.73-27.46-27.26-41.84a66.3,66.3,0,0,1-6.67-42.9c2.71-15.32,10.53-30.71,15.1-46.08s5.69-31.28-4.55-44.24C173.68,89,160.89,81.5,158,71.2c-2.67-9.49,3.52-19.89,5-29.89,1.23-8.26-1-16.32-6.07-23.45-4.44-6.2-12.8-15.27-24-17.86C141.54,10.57,149.43,19.64,148.17,32.62Z"/><path class="cls-2" d="M142.17,8.56C155.11,15.7,155.9,27.94,153,39.25S144.24,62.12,146.24,73c3.06,16.67,24.13,29,29.47,45.26,7,21.22-13.61,44.79-18.4,67.38-7.79,36.74,26.19,67.42,41.73,101,5.81,12.55,8.5,27.27-5.27,39.77"/><path class="cls-1" d="M180.5,340.51c-7.73-27-35.24-35.35-61.7-41.54s-54.73-12.74-65.06-37.72c-10.48-25.35-1.09-67-20.58-83.49-7.78-6.55-19.77-8.13-33.16-4.34,29.18-17.08,58-12.86,65.39,9.57,4.06,12.34,2.14,28.72,4.3,42.43,3.51,22.31,18.38,36.92,39.93,39.23,12.45,1.34,26.93-1.23,38.57,1.55,7.13,1.7,13,5.37,18.26,9.67,11.08,9,19.82,21.08,23.05,37.27,2.8,14,1.82,33.51-7.11,52.1-2.48-.89-.21-7.71-.13-10.89A46.74,46.74,0,0,0,180.5,340.51Z"/><path class="cls-3" d="M181.27,363.52c5.91-16.89,4.94-32.06.11-43.57s-13.26-19.76-22.18-27.22c-5.13-4.29-10.5-8.38-17.18-10.59-7-2.32-15.3-2.51-23.46-2.82-19.27-.74-39-2.58-49.47-15.68-16-20-6.66-61.45-22.12-82-8-10.69-22.65-14.65-39.71-10.76"/><path class="cls-1" d="M202,299.23c6.09-12.94,9.43-28.09,12.42-43.24A407.89,407.89,0,0,0,221,213.21c2.62-29.42.65-61.76,11.56-86.11a63.63,63.63,0,0,1,41-35.49c-6.95,2.31-10.55,11.26-12.6,20.08-5.8,24.9-4,53.15-5.93,79.82-3,40.6-15,78-34.3,107-7,10.5-18,26.12-29.87,28-1.76.28-4.9,1.31-6.07-2.31s2.66-4.74,4.34-6.33A62.09,62.09,0,0,0,202,299.23Z"/><path class="cls-4" d="M265.68,96.27c-20.56,18.43-33.1,49.61-33.85,84.19-.18,8.54.32,17.25.31,25.84,0,49.66-18,94.65-48,120"/></g></g></svg>