<svg xmlns="http://www.w3.org/2000/svg" viewBox="0 0 300.76 119.67"><defs><style>.cls-1{fill:#23c0ee;fill-rule:evenodd;}</style></defs><g id="Layer_2" data-name="Layer 2"><g id="bg"><path class="cls-1" d="M103.93,11.39c2.71,6.78-35,31.38-72.1,2.55C11.11,22.19,4.82,20.36,0,20.17,14.93,15.55,22.64,9.88,22.64,9.88,9,4.36,3.13.77,3.13.77S25.11,2.42,32.41,7C51.71-3.41,85.15-2.42,103.93,11.39Z"/><path class="cls-1" d="M170.25,76.93c.54,7.27-42.87,19.33-69.51-19.36-22.24,1.62-27.68-2-32.22-3.67,15.63.11,24.69-3,24.69-3C81.87,41.55,77.36,36.36,77.36,36.36s20.46,8.2,26,14.76C124.94,47.05,156.51,58.09,170.25,76.93Z"/><path class="cls-1" d="M204.27,41.18c.33,4.44-26.18,11.8-42.45-11.82-13.59,1-16.91-1.24-19.68-2.24,9.54.06,15.08-1.82,15.08-1.82a90.18,90.18,0,0,1-9.68-8.9s12.49,5,15.9,9C176.6,22.93,195.88,29.67,204.27,41.18Z"/><path class="cls-1" d="M300.76,118c-2,5.15-35.52-.55-41.31-35.54-15.72-6-18.27-10.28-20.85-12.85,10.65,5.08,17.84,5.88,17.84,5.88-4.75-10-6.16-15-6.16-15s11.35,12.18,13.06,18.45C279.37,83.06,297.41,100.74,300.76,118Z"/><path class="cls-1" d="M234.65,109.53c-1.33,3.45-23.87-.37-27.76-23.89-10.57-4.06-12.28-6.9-14-8.64a41.64,41.64,0,0,0,12,4,76.44,76.44,0,0,1-4.14-10.11s7.63,8.18,8.78,12.4C220.28,86,232.4,97.91,234.65,109.53Z"/></g></g></svg>