<svg xmlns="http://www.w3.org/2000/svg" viewBox="0 0 1979.75 264.09"><defs><style>.cls-1{fill:#565757;}.cls-2{fill:#424243;}</style></defs><g id="Layer_2" data-name="Layer 2"><g id="front_stones" data-name="front stones"><path class="cls-1" d="M1636.45,94.65c26.83-4.81,54.44-5.09,80.84-11.86,42.06-10.79,78.08-37.17,116.54-57.34s84.34-34.39,124.9-18.86c5.54,2.12,11.14,5,14.43,9.93,3.15,4.72,3.74,10.64,4.19,16.3A786.51,786.51,0,0,1,1975.8,173c-.3,3-.72,6.18-2.81,8.32s-5.5,2.64-8.58,2.95a1861.36,1861.36,0,0,1-326,4.05q-41.34-3.11-82.51-8.07c-18.65-2.24-51.64,1.45-41.19-24.5C1528.15,122.39,1605.46,100.21,1636.45,94.65Z"/><path class="cls-2" d="M1805.12,71c-6,7.8-10.59,16.76-17.69,23.58-7.32,7-16.92,11.37-24.19,18.47-14.73,14.37-16.73,39.89-4.4,56.38a49.91,49.91,0,0,1,29.23,13.39A81.92,81.92,0,0,1,1731.84,157a14.83,14.83,0,0,1-3.71-5.65c-1-3.24.15-6.7,1.39-9.85a121,121,0,0,1,40.1-52.37c-19.69-6.78-38.35,10.82-57.22,19.62-32.16,15-70.17,4.17-105.21,9.78a113.7,113.7,0,0,0-76.67,50.17c-4.48-11.79,1-25.5,10-34.3s21-13.73,32.72-18.47c18.23-7.38,36.76-14.84,56.32-16.86,22.49-2.32,45.36,2.67,67.72-.65,18.82-2.8,36.25-11.33,53.32-19.75l68.2-33.63c16.85-8.31,34-16.78,52.32-21.45,10.67-2.72,40.54-7.78,20.34,4.7-12,7.38-33,7.3-46.6,13.26C1829.54,48.29,1815.42,57.6,1805.12,71Z"/><path class="cls-2" d="M1917.13,128.33c-3.22-18.39-19.88-30.92-30-46.59-2.25-3.48-4.27-7.4-4-11.54s3.46-8.36,7.61-8.28a11.48,11.48,0,0,1,5.27,1.85,71.27,71.27,0,0,1,32.48,39.78c1,3,2.47,6.65,5.6,6.74a6.32,6.32,0,0,0,3.26-1,26.9,26.9,0,0,0,13.4-23.75c-.41-13.51-11.08-25.58-9.72-39,10.87-1,20.79,7.57,24.91,17.69s3.74,21.41,3.31,32.32L1968,126.64c-.24,6.09-.51,12.3-2.65,18-3.79,10.11-12.92,17.24-22.36,22.5-14,7.8-63.15,28.23-70.89,4.6C1894.85,167.3,1922.46,158.78,1917.13,128.33Z"/><path class="cls-1" d="M292.69,91.49c40.91-18,83.7-36.38,128.35-34.18,23.51,1.16,46.31,8,68.84,14.83,30.69,9.28,61.37,18.55,91.82,28.58,37.6,12.39,75.3,26,114.74,29.57,21.38,1.93,43,.84,64.29,3.66s43,10.13,57.61,25.83a14.59,14.59,0,0,1,3.55,5.33c1.08,3.44-.19,7.18-1.95,10.32-8.57,15.3-27.06,21.51-44,26.17-102.42,28.28-213.82,46.14-313.22,8.6-37.19-14-73.33-35.88-113.06-34.82-20,.53-39.26,6.91-58.68,11.59a351.92,351.92,0,0,1-57.27,8.86c-17.83,1.27-40.59-2.25-45.27-19.49C174.2,123.75,260.48,105.66,292.69,91.49Z"/><path class="cls-1" d="M6.39,170.72c14.44,15.7,36.72,3.79,53.29-.2a93.7,93.7,0,0,1,46.22.71c11.81,3.21,22.77,9,34.61,12.09,9.08,2.39,18.66,3.44,27.66.2,11.72-4.23,18-14.77,31.42-14.63,13,.14,32.94,3.51,32.24-16.09-.57-16.16-18.52-32.17-33.05-36.16-11.27-3.09-21,4.88-31,2.08-12.12-3.41-11.76-23.36-19-33-8.88-11.93-22.74-17.61-37.06-16.84a3.38,3.38,0,0,0-2.55-1.64c-19.42-3-39.46,5.33-48.9,23.2C57,96.55,56.61,102,50.68,106.46s-12,4-18.94,5.84A42.38,42.38,0,0,0,8.28,128.44C-.13,140-4.29,159.11,6.39,170.72Z"/><path class="cls-2" d="M22,172.54l1.34-.31.83-.57a3.9,3.9,0,0,1,.86-1.57A98.68,98.68,0,0,1,37.82,159a3.25,3.25,0,0,1,2.12-.57c-1.25-12.67,2.67-26.75,12.83-34.72,2.79-2.18,8.64-.3,6.9,4-2.93,7.28-4.14,14.87-2.2,22.64,1.18,4.75,3.42,7.7,6.33,9.48a89.65,89.65,0,0,1,10.52-2.18,82.42,82.42,0,0,1,12.54-.86c13.88-6,27.61-12.58,36.77-25.09a102.43,102.43,0,0,0,.87-15.45c-.39-19.46-13-28.77-24.79-42.2-2.57-2.93-.17-8.2,4-6.9,10.8,3.34,21.83,7.07,29.2,16.11,7.07,8.67,12.41,21.1,14.9,31.94,2.77,12.06,1.66,24.66-.75,36.67-.47,2.33-1.14,5-1.66,7.69A34.5,34.5,0,0,0,172.14,167q4.77-1.29,9.5-3c2.88-9.68-.62-20.56-5.55-29.31-1.45-2.57.35-6.42,3.57-6.21,11.28.73,20.11,7,29.18,13.23.34.24,2,1.41,4.19,3a15.09,15.09,0,0,0,2.88-3.55c1.83-3.7.19-9.33,1.19-13.47.8-3.31,6-4.18,7.54-1,3.22,6.52,7.79,13.45,8.85,20.76.73,5-.6,9.63-2.73,14a3.84,3.84,0,0,1-1.9,3.91c-.12.08-.23.12-.35.19l-.41.69a3.84,3.84,0,0,1-4.15,1.87c-4.85,2.63-9.67,3-15.21,2.81a72.37,72.37,0,0,0-7.38,0,5.49,5.49,0,0,1-3.33.32,34.64,34.64,0,0,0-8.81,2.39A103.17,103.17,0,0,1,167.93,188a17.91,17.91,0,0,1-5.91,1.77,4.49,4.49,0,0,1-1.37.19c-11.54-.06-40.86-3.11-46.67-15.75a23.81,23.81,0,0,1-6.37-.71c-10-2.35-18.18-5-28.69-3.2-5.15.85-10.18,3.44-15.51,1.86-.36-.11-.66-.28-1-.41a4.4,4.4,0,0,1-2.78,2.77,13.34,13.34,0,0,1-9.82.06l-14.23,3.3a34.37,34.37,0,0,1-12.47,2.78C18.47,180.9,17.47,173.59,22,172.54Z"/><path class="cls-2" d="M293,103.22c-13.07,10.73-23,25.06-36.71,34.89-8.36,6-18.28,10.44-24,18.94s-4.1,23.08,5.86,25.59a20.41,20.41,0,0,0,8.79-.25c31.13-6,57.8-28.12,89.32-31.69,57.39-6.51,109.39,49.83,166.17,39.27,5-.93,10.73-3.13,12.07-8.06.93-3.42-.61-7-2.27-10.11a108.3,108.3,0,0,0-17.41-24.12c-4.35-4.56-9.34-9.16-10.52-15.35s4.24-13.79,10.24-11.87c2.67.86,4.5,3.25,6.23,5.45,24.57,31.2,65,49.24,104.59,46.71a65.65,65.65,0,0,0,19.55-3.8c6.12-2.36,11.7-6.07,18-8,14-4.35,28.9.53,43.17,3.77a191.92,191.92,0,0,0,95.47-2.81c-45.93-14-93.25-28.13-141.08-24-21.31,1.85-42.88,7.31-63.81,2.88-34.53-7.32-61-40.31-96.25-41.79-4.85-.21-10,.33-13.87,3.29-9.29,7.17-5.36,23.16-13.2,31.89-5.9,6.56-16.39,6.49-24.66,3.43s-15.53-8.49-23.87-11.35c-18.8-6.45-40.74.84-58.7-7.67-18.84-14.09,61.09-31.15,20.61-40.66C344.71,72.66,309.3,89.6,293,103.22Z"/><path class="cls-1" d="M759,182.21c9.22,10,23.44,2.42,34-.13a59.77,59.77,0,0,1,29.5.46c7.54,2,14.54,5.73,22.1,7.71,5.79,1.52,11.9,2.2,17.65.13,7.48-2.7,11.48-9.43,20-9.34,8.29.09,21,2.24,20.58-10.27-.37-10.31-11.82-20.53-21.09-23.08-7.19-2-13.42,3.12-19.79,1.33-7.74-2.18-7.51-14.91-12.11-21.1a27.17,27.17,0,0,0-23.66-10.74,2.14,2.14,0,0,0-1.63-1.05c-12.39-1.93-25.18,3.41-31.21,14.81-2.07,3.93-2.34,7.38-6.13,10.26s-7.66,2.57-12.09,3.73a27,27,0,0,0-15,10.29C754.83,162.61,752.17,174.8,759,182.21Z"/><path class="cls-2" d="M769,183.37l.85-.2.53-.36a2.63,2.63,0,0,1,.55-1,62.73,62.73,0,0,1,8.17-7.1,2.06,2.06,0,0,1,1.35-.36c-.81-8.08,1.7-17.07,8.19-22.16,1.77-1.39,5.51-.19,4.4,2.56a23.14,23.14,0,0,0-1.41,14.45,9.25,9.25,0,0,0,4,6.05,61.62,61.62,0,0,1,6.72-1.39,53.68,53.68,0,0,1,8-.54c8.86-3.8,17.62-8,23.47-16a66.06,66.06,0,0,0,.55-9.86c-.25-12.42-8.31-18.36-15.82-26.94-1.64-1.87-.1-5.23,2.56-4.4,6.9,2.13,13.94,4.51,18.64,10.29,4.51,5.53,7.92,13.46,9.51,20.38,1.77,7.7,1.06,15.74-.48,23.41-.3,1.49-.72,3.18-1.06,4.9a22,22,0,0,0,17.06,4.78c2-.55,4.05-1.17,6.06-1.89,1.84-6.18-.39-13.13-3.54-18.71-.92-1.64.22-4.09,2.28-4,7.2.47,12.84,4.43,18.62,8.44.22.15,1.3.9,2.68,1.92a9.39,9.39,0,0,0,1.84-2.26c1.16-2.37.12-6,.76-8.6.51-2.11,3.8-2.67,4.81-.63,2.05,4.17,5,8.59,5.65,13.25a15,15,0,0,1-1.74,8.93,2.46,2.46,0,0,1-1.21,2.5l-.23.11c-.09.15-.17.3-.26.44a2.46,2.46,0,0,1-2.65,1.2c-3.1,1.68-6.17,1.94-9.71,1.79a46.05,46.05,0,0,0-4.71,0,3.45,3.45,0,0,1-2.13.2,22.29,22.29,0,0,0-5.61,1.53,65.81,65.81,0,0,1-13.6,9.1,11.36,11.36,0,0,1-3.77,1.13,2.94,2.94,0,0,1-.87.13c-7.36-.05-26.08-2-29.79-10.06a15.38,15.38,0,0,1-4.06-.45c-6.38-1.5-11.6-3.16-18.32-2-3.28.55-6.49,2.2-9.9,1.19-.22-.07-.42-.18-.64-.26a2.8,2.8,0,0,1-1.77,1.77,8.52,8.52,0,0,1-6.27,0l-9.08,2.1a21.89,21.89,0,0,1-8,1.78C766.7,188.7,766.06,184,769,183.37Z"/><path class="cls-1" d="M900.12,176.53c13.12-10.67,24.15-23.81,37.7-33.93,23.57-17.61,53.95-25,83.3-23s57.66,13.06,82.29,29.16c26.81,17.51,53.49,42.2,85.38,39.23,18.3-1.71,35.48-12.73,53.74-10.72,20.87,2.28,36,20.54,54.86,29.68,47.46,23,91-10.91,136.94-20.11,48.7-9.74,99.59-10.66,146.31-29-7.19,3.31-14.54,6.73-20.23,12.23s-9.55,13.58-7.93,21.33c3.33,16,13.69,24.15,3.09,39.39-8.56,12.31-23.4,22.83-37.43,27.62-17.78,6.07-37,6-55.77,5.37-112.55-3.79-224.2-25.54-336.81-24.31-75.3.82-150.31,11.93-225.59,10.4-18.48-.37-50.83-5.69-48.59-31.34C853.21,197.71,886.15,187.9,900.12,176.53Z"/><path class="cls-2" d="M908.86,182.46c-6.49,9.72-10.64,21-18.41,29.76-3.41,3.84-7.71,7.6-8.13,12.72-.64,7.85,9.29,13.31,16.76,10.82s12.1-10,14.48-17.52,3.15-15.5,6.18-22.76c8.91-21.34,33.8-30.2,56-36.74a47.75,47.75,0,0,1,15.18,39.85c-.72,6.69-2.88,13.21-3.1,19.94s2.05,14.17,7.9,17.51a21.07,21.07,0,0,0,6.73,2.17c32.05,5.76,63.13-15.6,95.69-15.54,19.27,0,37.64,7.57,56.47,11.66s40.54,4,55-8.7c5.5-4.83,9.41-13.85,4.31-19.1-2-2-4.87-2.92-7.68-3.38-9.84-1.61-19.82,1-29.74,2s-21,0-28-7.18c-3.5-3.59-5.57-8.36-9-12-8.51-9.13-23.22-9.18-35-5s-22.1,11.67-33.82,16a67.29,67.29,0,0,1-41.73,1.44c-7.83-2.29-15.56-6.29-20.11-13.06s-5-16.74.66-22.64,15.79-7.27,18-14.93c7.73-26.58-47.68-8.83-56.28-6C947.36,149.42,923.23,160.9,908.86,182.46Z"/><path class="cls-2" d="M1277.75,216.84c25.5,18.49,59.42,21.66,90.53,16.73,12.9-2,23.4,2.05,36.51-2.42a584.88,584.88,0,0,0,97-43.3c8.72-4.89,17.47-10.06,27.19-12.4,13.08-3.15,27.42-1,39.61-6.74-6,12.78-23.29,15.45-32.74,25.93-4.06,4.5-6.45,10.2-9.62,15.36-14.09,23-37.41,27.72-61.94,25.67-30-2.51-62.3,4.78-92.94,5.1-31.57.34-64.39-2.1-93.88-14.23-6.68-2.74-38.17-16.06-38-24.79C1240,184.55,1273.52,213.77,1277.75,216.84Z"/></g></g></svg>