<svg xmlns="http://www.w3.org/2000/svg" viewBox="0 0 336.96 216.65"><defs><style>.cls-1{fill:#96a500;}.cls-2{fill:#929904;}</style></defs><g id="Layer_2" data-name="Layer 2"><g id="coral"><path class="cls-1" d="M150.29,214.77c1.22-30.93-5.19-31.87-19.8-55.27C117,139.53,126.69,118,108.18,99c-7.09-7.58-16.71-9-22-17.93-6.62-10.79-4.75-23.61-9.77-34.17C67.56,29.19,49,21.58,30.7,12.37,51.75,25.25,57.44,42.45,62.43,64.46,67.85,94.72,71.07,95.19,91,116.09c13.93,16.76,12.51,37.84,29.66,55.07C133.17,186.08,149,190,148.69,214.54"/><path class="cls-2" d="M146.78,216.65c4.33-22.29,8-32.67,2.42-54.23-3.48-13.6-.88-16.5,2.06-29.17,2.77-11.61-.73-17.57-.08-29.49.79-13,8.9-16.17,12.74-27.62,2.31-8.39-2.86-17.88.52-26.12,3.54-9.31,12.27-16.78,16.72-24.86C188.36,13.1,187.47,4.24,203.37,0c-10.55,5-11,15.86-12.59,26.55C187.84,39.23,183,42.88,179.1,54.33c-3.54,9.31,3.93,18,1.3,28.57S166.32,97.23,164.61,109s7.29,17.43,3.44,28.88c-.62,4.28-8.72,7.47-9.65,13.88-.63,4.28,5,10.55,6.53,15.14,3.46,21.25-11.07,31.14-17.84,47.63"/><path class="cls-1" d="M149.23,207.35c18.53-7.44,28-9.5,40.74-24.94,8-9.71,11.54-9,22.31-12.79,9.92-3.43,12.4-9.35,21.41-14.74,9.87-5.79,16.5-.54,26.88-3,7.34-2.22,11.49-11.3,19.28-12.55,8.65-1.66,18.73,2,27,1.72,12.61.09,18.58-5.08,30.13,6.23-9.27-6.42-17.42-1.42-26,2.59-10.78,3.83-16.05,1.52-26.43,4-8.65,1.64-11,12.29-20.08,15.32s-17.92-4.76-27.39-.35-8.8,14.83-19.18,17.28c-3.44,1.6-10.07-3.65-15.23-1.24-3.45,1.6-5,9.48-7.54,13.05-13.61,13.49-28.55,6.15-44.14,8.65"/><path class="cls-2" d="M144.2,211.91c18.34-6.07,20.83-23.17,25.3-38.89,4.15-13.59,6.45-14.35,17.47-22.58,12.4-10.2,9-9.6,15.33-22.87,7.36-13.13,15.29-7.61,23.11-16.29,7.5-6.56,5.69-16.64,14.26-23,1.22-.91,8.71.18,11.15-1.65,4.75-2.59,4.61-9.16,9.35-11.75a37.46,37.46,0,0,1,28.42-.24c-13.74-3.08-16.37,7.45-24,15.08-6.59,7.77-16.83,10.65-22.35,18.58-5.68,9-2,13.9-10.9,22.43-3.67,2.74-8.71-.17-12.85,5.77-2.76,4-1.4,9.63-3.09,13.75-6.29,13.27-6.74,8.84-17.6,16-11,8.22-7.06,11-12,22.27-6.61,15.42-23.44,26.07-41.46,22.36"/><path class="cls-1" d="M151.83,211.93c-10-21.11-28.53-14-39.65-27.6-5.49-7.34-1.79-17.72-9.57-24.31-11.59-10.42-12.07.43-21.69-1-13.9-2-7.62-7.65-16.31-15.47C53,133.16,54.07,141,44.3,140.63c-12.07.43-33-13.52-44.3-3.16,11.15-1.65,14.5,5.38,22.28,12,10.82,8.12,11.29,4.92,21.82,7.54,5.2,1.84,6.89-2.28,11.92.64,2.14.31,2,9,4.86,11.62,10.67,9.19,15.44-1,23.67,2.35,12.52,4,3.2,8.1,9.28,18.81,5.17,9.49,11.9,8.28,21.52,9.68C128,203,138,202.27,150,209.48"/></g></g></svg>