<svg xmlns="http://www.w3.org/2000/svg" viewBox="0 0 127.69 132.9"><defs><style>.cls-1{fill:#7db009;}.cls-2{fill:#00b552;}</style></defs><g id="Layer_2" data-name="Layer 2"><g id="coral"><path class="cls-1" d="M37.4,109.52c8.65-11.59,6.43-13.64,7-26.51.1-11.25,9.51-17,7.43-29.2-.73-4.79-4.06-7.88-3.71-12.71.3-5.9,4.41-10.34,5.27-15.73,1.25-9.15-3.88-17-8.49-25.37,4.7,10.53,2.34,18.65-1.56,28.44-5.91,13.08-4.8,14.11-2.68,27.41.94,10.13-5.19,17.87-3.14,29C38.4,94,43.44,99.64,36.85,109"/><path class="cls-2" d="M35.55,109.31c7.56-7.43,11.73-10.45,15.27-20.23,2.26-6.16,4-6.58,8.51-10.68,4.14-3.74,4.37-7,7.76-11.37,3.74-4.79,7.7-3.87,12.21-7.26,3.11-2.62,3.63-7.64,7.11-9.92,3.82-2.65,9.15-3.21,13-5.15,6-2.73,8-6.38,15.2-3.81-5.38-.85-8.44,3.19-11.86,6.89-4.48,4.11-7.33,4.22-11.84,7.61-3.82,2.64-3.26,8-7,11.34s-9.21,1.79-13,5.86-1.8,8.64-6.31,12c-1.37,1.48-5.33.56-7.39,2.79-1.37,1.48-.86,5.38-1.49,7.55-4.28,9.09-12.49,9.06-19.45,13.61"/><path class="cls-1" d="M39,106.38c9.09,2,13.3,3.76,22.27,1.17,5.66-1.61,6.81-.39,12,1,4.72,1.3,7.24-.32,12.13,0,5.33.38,6.5,4.15,11.14,6,3.41,1.09,7.41-1.31,10.74.27,3.77,1.65,6.68,5.72,9.93,7.79,4.83,3.37,8.49,3,10,10.37-1.88-4.92-6.33-5.16-10.7-5.89-5.16-1.37-6.58-3.66-11.22-5.46-3.77-1.65-7.49,1.82-11.78.59s-5.64-6.57-10.45-7.38-7.31,3.38-12,1.58c-1.75-.29-2.91-4.06-5.53-4.5-1.76-.3-4.44,2.32-6.36,3-8.8,1.59-12.61-5.18-19.27-8.34"/><path class="cls-2" d="M35.81,106.8c8.67,2.52,14.14-3.41,20-8.28,5.19-4.13,6.28-3.81,12.69-4.06,7.47-.65,6-1.31,12-4.75,6.31-3.11,7.9,1.11,13.2-.16,4.62-.54,6.59-4.9,11.58-5.1.72,0,3.31,2.37,4.73,2.31,2.51.26,4.2-2.3,6.71-2a17.48,17.48,0,0,1,11,7.42c-4.48-4.82-8.27-1.46-13.23-.55-4.59,1.25-9.3-.35-13.52,1.24-4.56,2-4.45,4.81-10.12,5.75-2.14.09-3.31-2.37-6.48-1.17-2.11.79-3.08,3.33-4.82,4.47-5.93,3.44-4.93,1.62-11,1.5-6.42.25-5.62,2.36-10.5,5.41a17.47,17.47,0,0,1-21.87-2.36"/><path class="cls-1" d="M38.75,108.83c1.71-10.78-7.29-12.92-8-21.11-.17-4.27,4-7.29,2.75-11.88-1.71-7.08-4.76-3-8.09-6.11-4.82-4.45-.91-5-2.19-10.27-1.71-7.07-3.36-3.79-7-6.5C11.45,49.93,7.1,39,0,40c4.73,2.31,4.16,5.9,5.41,10.5,2,6,3,4.87,6.41,8.67,1.51,2.08,3.25.94,4.41,3.4.74.68-1.63,4-1.2,5.75,1.68,6.36,6.21,3.69,8.49,7.16,3.76,4.86-.91,4-1.4,9.7-.52,5,2.38,6.33,5.72,9.41,4.1,4.48,8.12,6.82,10.85,12.78"/></g></g></svg>