<svg xmlns="http://www.w3.org/2000/svg" viewBox="0 0 582.19 1046.44"><defs><style>.cls-1{opacity:0.3;}.cls-2{fill:#0689d0;}</style></defs><g id="Layer_2" data-name="Layer 2"><g id="bg"><g class="cls-1"><polygon class="cls-2" points="232.5 0 223.45 114.96 213.11 246.46 205.72 340.43 195.38 471.76 187.04 577.86 176.84 707.41 154.97 985.46 0 977.96 41.39 776.19 68.79 642.58 99.06 495.01 128.68 350.6 151.55 239.09 175.31 123.27 180.8 96.51 186.88 66.85 200.59 0 232.5 0"/><polygon class="cls-2" points="328.44 1046.44 232.39 1046.44 240.17 672.31 240.17 672.3 242.74 548.81 244.73 452.98 247.16 336.01 249.14 240.68 251.94 106.23 254.14 0 272.81 0 277.97 97.13 284.99 229.14 290.53 333.31 295.57 428.19 300.53 521.52 300.53 521.53 306.66 636.75 328.44 1046.44"/><polygon class="cls-2" points="582.19 1013.49 436.6 1013.49 384.45 600.12 370.99 493.43 335.17 209.5 319.26 83.42 308.74 0 337.76 0 355.89 75.17 384.74 194.78 451.11 469.97 474.88 568.55 582.19 1013.49"/></g></g></g></svg>