<svg xmlns="http://www.w3.org/2000/svg" viewBox="0 0 209.09 119.93"><defs><style>.cls-1{fill:#23c0ee;fill-rule:evenodd;}</style></defs><g id="Layer_2" data-name="Layer 2"><g id="bg"><path class="cls-1" d="M73.62,115.19c-.31,4.29,27.61,11.94,44.27-11.06,14.21,1.13,17.71-1.06,20.6-1.95-10,0-15.84-2-15.84-2a91.3,91.3,0,0,0,10-8.57s-12.92,4.7-16.45,8.54C102.26,97.66,82.18,104,73.62,115.19Z"/><path class="cls-1" d="M36.78,111.21c.86,4.22,29.81,4.07,39.66-22.56,14-2.74,16.77-5.79,19.32-7.42C86.14,83.9,80,83.56,80,83.56a92.19,92.19,0,0,0,7.29-10.93s-11.18,8-13.55,12.65C59.64,86.62,42,98.13,36.78,111.21Z"/><path class="cls-1" d="M143.3,108.51c-1.58,4,22.75,19.7,45.55,2.77,13.21,5.36,17.21,4.32,20.24,4.34-9.52-3-14.51-6.67-14.51-6.67a93.11,93.11,0,0,0,12.07-5.18s-13.73.6-18.25,3.2C175.89,100.41,154.83,100.41,143.3,108.51Z"/><path class="cls-1" d="M111.14,69.1c-.25,2.41,15.32,7.23,25.13-5.41,8,.9,10-.26,11.64-.71A30.26,30.26,0,0,1,139,61.55a51.69,51.69,0,0,0,5.77-4.63s-7.36,2.41-9.42,4.5C127.59,59.76,116.16,63,111.14,69.1Z"/><path class="cls-1" d="M45.79,19.49c-.4,3.86,24.53,11.58,40.22-8.65,12.77,1.44,16-.43,18.63-1.14-9-.31-14.22-2.28-14.22-2.28A84.12,84.12,0,0,0,99.65,0S87.87,3.85,84.57,7.21C72.12,4.55,53.83,9.66,45.79,19.49Z"/><path class="cls-1" d="M0,39.52C-.25,42,15.55,46.86,25.49,34c8.1.91,10.14-.27,11.81-.72a30.93,30.93,0,0,1-9-1.45,52.61,52.61,0,0,0,5.85-4.7s-7.47,2.44-9.56,4.57C16.69,30.05,5.1,33.29,0,39.52Z"/></g></g></svg>