<svg xmlns="http://www.w3.org/2000/svg" viewBox="0 0 877.06 175.9"><defs><style>.cls-1{opacity:0.2;}.cls-2{fill:#fff;}</style></defs><g id="Layer_2" data-name="Layer 2"><g id="bg"><g class="cls-1"><path class="cls-2" d="M865.82,165.12a7.28,7.28,0,0,0-1.22,4.21,8,8,0,0,0,.35,2.61,6,6,0,0,0,2.11,2.81,6.16,6.16,0,0,0,4,1.14,6.64,6.64,0,0,0,5.72-4.57C878.82,164.72,870.28,159.1,865.82,165.12Z"/><path class="cls-2" d="M419.05,69.92a7.33,7.33,0,0,0-1.22,4.21,8,8,0,0,0,.35,2.61,5.81,5.81,0,0,0,2.12,2.81,6.11,6.11,0,0,0,3.95,1.14A6.61,6.61,0,0,0,430,76.12C432.06,69.52,423.51,63.9,419.05,69.92Z"/><path class="cls-2" d="M57.54,13.92a7.28,7.28,0,0,0-1.22,4.21,8,8,0,0,0,.35,2.61,6,6,0,0,0,2.11,2.81,6.16,6.16,0,0,0,4,1.14,6.64,6.64,0,0,0,5.72-4.57C70.54,13.51,62,7.9,57.54,13.92Z"/><path class="cls-2" d="M297.75,28.14a7.25,7.25,0,0,0-1.22,4.21,7.45,7.45,0,0,0,.35,2.61A5.73,5.73,0,0,0,299,37.77a6.15,6.15,0,0,0,3.95,1.14,6.63,6.63,0,0,0,5.73-4.57C310.75,27.74,302.2,22.12,297.75,28.14Z"/><path class="cls-2" d="M239.29,2.56a7.26,7.26,0,0,0-1.23,4.21,7.92,7.92,0,0,0,.35,2.61,5.81,5.81,0,0,0,2.12,2.81,6.18,6.18,0,0,0,3.95,1.15,6.63,6.63,0,0,0,5.72-4.58C252.29,2.16,243.74-3.46,239.29,2.56Z"/><path class="cls-2" d="M698.62,77.6a7.25,7.25,0,0,0-1.22,4.21,7.45,7.45,0,0,0,.35,2.61,5.73,5.73,0,0,0,2.11,2.81,6.15,6.15,0,0,0,3.95,1.14,6.61,6.61,0,0,0,5.72-4.57C711.62,77.2,703.07,71.58,698.62,77.6Z"/><path class="cls-2" d="M369.14,77.19a5,5,0,0,0-.84,2.87,5.3,5.3,0,0,0,.24,1.77A4,4,0,0,0,370,83.75a4.22,4.22,0,0,0,2.69.77,4.51,4.51,0,0,0,3.9-3.11C378,76.92,372.17,73.1,369.14,77.19Z"/><path class="cls-2" d="M40.79,62.21A4.9,4.9,0,0,0,40,65.08a5.29,5.29,0,0,0,.23,1.77,4,4,0,0,0,1.44,1.92,4.24,4.24,0,0,0,2.69.77,4.51,4.51,0,0,0,3.9-3.11C49.64,61.94,43.82,58.11,40.79,62.21Z"/><path class="cls-2" d="M867.42,88.43a5,5,0,0,0-.83,2.87,5.3,5.3,0,0,0,.24,1.77A3.91,3.91,0,0,0,868.27,95a4.17,4.17,0,0,0,2.69.78,4.52,4.52,0,0,0,3.89-3.11C876.27,88.16,870.46,84.33,867.42,88.43Z"/><path class="cls-2" d="M49.76,98.4a4.87,4.87,0,0,0-.83,2.86,5.35,5.35,0,0,0,.23,1.78A4,4,0,0,0,50.6,105a4.19,4.19,0,0,0,2.69.78,4.52,4.52,0,0,0,3.9-3.11C58.61,98.12,52.79,94.3,49.76,98.4Z"/><path class="cls-2" d="M.83,132.6A5,5,0,0,0,0,135.47a5.26,5.26,0,0,0,.24,1.77,4,4,0,0,0,1.44,1.92,4.29,4.29,0,0,0,2.69.78,4.52,4.52,0,0,0,3.89-3.12C9.68,132.33,3.86,128.51.83,132.6Z"/><path class="cls-2" d="M644.05,40.33a4.87,4.87,0,0,0-.83,2.86,5.35,5.35,0,0,0,.23,1.78,4,4,0,0,0,1.44,1.91,4.17,4.17,0,0,0,2.69.78,4.53,4.53,0,0,0,3.9-3.11C652.9,40.05,647.08,36.23,644.05,40.33Z"/><path class="cls-2" d="M414.42,21.21a5,5,0,0,0-.83,2.87,5.26,5.26,0,0,0,.24,1.77,4,4,0,0,0,1.44,1.92,4.29,4.29,0,0,0,2.69.78,4.52,4.52,0,0,0,3.89-3.12C423.27,20.94,417.46,17.12,414.42,21.21Z"/><path class="cls-2" d="M600.37,16.67a5,5,0,0,0-.83,2.87,5.05,5.05,0,0,0,.24,1.77,4,4,0,0,0,1.44,1.92,4.22,4.22,0,0,0,2.69.77,4.49,4.49,0,0,0,3.89-3.11C609.22,16.4,603.4,12.58,600.37,16.67Z"/><path class="cls-2" d="M64.54,49.41A3.29,3.29,0,0,0,64,51.35a3.42,3.42,0,0,0,.16,1.19,2.74,2.74,0,0,0,1,1.3,2.86,2.86,0,0,0,1.82.52,3,3,0,0,0,2.62-2.1C70.51,49.23,66.59,46.65,64.54,49.41Z"/><path class="cls-2" d="M269.28,11.46a3.35,3.35,0,0,0-.56,1.93,3.45,3.45,0,0,0,.16,1.2,2.71,2.71,0,0,0,1,1.29,2.82,2.82,0,0,0,1.82.53,3.07,3.07,0,0,0,2.63-2.1C275.25,11.27,271.33,8.69,269.28,11.46Z"/><path class="cls-2" d="M238.62,34.26a3.41,3.41,0,0,0-.56,1.93,3.78,3.78,0,0,0,.16,1.2,2.76,2.76,0,0,0,1,1.29,2.89,2.89,0,0,0,1.82.52,3,3,0,0,0,2.63-2.1C244.6,34.07,240.67,31.49,238.62,34.26Z"/><path class="cls-2" d="M63.11,116.66a3.36,3.36,0,0,0-.56,1.94,3.68,3.68,0,0,0,.16,1.19,2.74,2.74,0,0,0,1,1.3,2.88,2.88,0,0,0,1.82.52,3,3,0,0,0,2.63-2.1C69.08,116.48,65.16,113.9,63.11,116.66Z"/><path class="cls-2" d="M266.42,46.67a3.36,3.36,0,0,0-.56,1.94A3.42,3.42,0,0,0,266,49.8a2.74,2.74,0,0,0,1,1.3,2.88,2.88,0,0,0,1.82.52,3,3,0,0,0,2.62-2.1C272.39,46.49,268.47,43.91,266.42,46.67Z"/><path class="cls-2" d="M251.09,24.24a3.26,3.26,0,0,0-.56,1.93,3.28,3.28,0,0,0,.16,1.2,2.63,2.63,0,0,0,1,1.29,2.85,2.85,0,0,0,1.81.52,3,3,0,0,0,2.63-2.1C257.06,24.05,253.13,21.47,251.09,24.24Z"/><path class="cls-2" d="M283.37,78.09a3.35,3.35,0,0,0-.56,1.93,3.7,3.7,0,0,0,.16,1.2,2.71,2.71,0,0,0,1,1.29,2.84,2.84,0,0,0,1.82.53,3.06,3.06,0,0,0,2.63-2.1C289.34,77.9,285.42,75.33,283.37,78.09Z"/><path class="cls-2" d="M274.72,40.1a3.29,3.29,0,0,0-.56,1.94,3.42,3.42,0,0,0,.16,1.19,2.61,2.61,0,0,0,1,1.3,2.85,2.85,0,0,0,1.81.52,3,3,0,0,0,2.63-2.1C280.69,39.92,276.76,37.34,274.72,40.1Z"/><path class="cls-2" d="M51.16,52.48a3.28,3.28,0,0,0-.56,1.93,3.45,3.45,0,0,0,.16,1.2,2.65,2.65,0,0,0,1,1.29,2.86,2.86,0,0,0,1.81.53,3.07,3.07,0,0,0,2.63-2.1C57.13,52.29,53.21,49.71,51.16,52.48Z"/><path class="cls-2" d="M60.25,71.85a3.35,3.35,0,0,0-.56,1.93,3.45,3.45,0,0,0,.16,1.2,2.71,2.71,0,0,0,1,1.29,2.82,2.82,0,0,0,1.82.53,3,3,0,0,0,2.62-2.1C66.22,71.67,62.3,69.09,60.25,71.85Z"/><path class="cls-2" d="M81.63,33A3.28,3.28,0,0,0,81.07,35a3.45,3.45,0,0,0,.16,1.2,2.71,2.71,0,0,0,1,1.29A2.81,2.81,0,0,0,84,38a3.07,3.07,0,0,0,2.62-2.1C87.6,32.84,83.68,30.26,81.63,33Z"/><path class="cls-2" d="M37.33,33A3.28,3.28,0,0,0,36.77,35a3.45,3.45,0,0,0,.16,1.2,2.65,2.65,0,0,0,1,1.29,2.8,2.8,0,0,0,1.81.53,3.07,3.07,0,0,0,2.63-2.1C43.3,32.84,39.37,30.26,37.33,33Z"/><path class="cls-2" d="M20.1,62.5a3.35,3.35,0,0,0-.56,1.93,3.7,3.7,0,0,0,.16,1.2,2.71,2.71,0,0,0,1,1.29,2.84,2.84,0,0,0,1.82.53,3.07,3.07,0,0,0,2.63-2.1C26.07,62.31,22.15,59.73,20.1,62.5Z"/><path class="cls-2" d="M652.26,99.93a3.28,3.28,0,0,0-.56,1.93,3.45,3.45,0,0,0,.16,1.2,2.59,2.59,0,0,0,1,1.29,2.86,2.86,0,0,0,1.81.53,3.07,3.07,0,0,0,2.63-2.1C658.23,99.74,654.3,97.16,652.26,99.93Z"/><path class="cls-2" d="M659.11,89.6a3.39,3.39,0,0,0-.56,1.94,3.42,3.42,0,0,0,.16,1.19,2.74,2.74,0,0,0,1,1.3,2.88,2.88,0,0,0,1.82.52,3,3,0,0,0,2.63-2.1C665.08,89.42,661.16,86.84,659.11,89.6Z"/><path class="cls-2" d="M319.35,34.18a5,5,0,0,0-.83,2.87,5.05,5.05,0,0,0,.24,1.77,4,4,0,0,0,1.44,1.92,4.22,4.22,0,0,0,2.69.77,4.49,4.49,0,0,0,3.89-3.11C328.2,33.91,322.38,30.09,319.35,34.18Z"/></g></g></g></svg>