<svg xmlns="http://www.w3.org/2000/svg" xmlns:xlink="http://www.w3.org/1999/xlink" viewBox="0 0 95.06 113.7"><defs><style>.cls-1{fill:none;}.cls-2{fill:#73902e;}.cls-3{clip-path:url(#clip-path);}.cls-4{fill:#d3ca00;}.cls-5{fill:#a4a802;}.cls-6{fill:#89af3f;}.cls-7{fill:#abc900;}.cls-8{fill:#6f932b;}.cls-9{fill:#bcb161;}.cls-10{fill:#cbdf00;}.cls-11{fill:#fff;}.cls-12{clip-path:url(#clip-path-2);}.cls-13{fill:#0e0e0e;}.cls-14{clip-path:url(#clip-path-3);}</style><clipPath id="clip-path"><path class="cls-1" d="M29.18,77.61c.24,3.86,3.25,7,6.67,8.86S43.12,89,46.8,90.21c2.89.93,5.69,2.15,8.49,3.31C66,98,77,101.71,88,105.45a5.28,5.28,0,0,0,2.81.42c1.82-.41,2.68-2.7,2.18-4.5A9.36,9.36,0,0,0,89.57,97c-12.72-10.6-29.74-15.59-41-27.72-3.13-3.36-6.64-6.62-10.86-3.25C33.81,69.16,28.82,71.77,29.18,77.61Z"/></clipPath><clipPath id="clip-path-2"><path class="cls-1" d="M25.52,45.14c4.37,2.41,3.39,7.4.51,12.63L14.58,51.46c2.88-5.23,6.72-8.63,10.93-6.33h0"/></clipPath><clipPath id="clip-path-3"><path class="cls-1" d="M9.12,39.93c5,.58,5.94,5.57,5.24,11.5l-13-1.52c.69-5.92,3-10.53,7.73-10h0"/></clipPath></defs><g id="Layer_2" data-name="Layer 2"><g id="earth_worm" data-name="earth worm"><path class="cls-2" d="M76.62,42.86A3.77,3.77,0,0,1,78.85,42,2.58,2.58,0,0,1,81,44.28a8,8,0,0,1-.45,3.34c-4.77,17.19-4.43,35.56-10.09,52.47L76.94,103c.42.19.9.46,1,.92.12.87-1.18,1.08-2,.9a66.78,66.78,0,0,1-8.37-2.29,92,92,0,0,0,3.76-18c.3-2.83.47-5.67,1-8.47.41-2.33,1-4.6,1.62-6.89,1.27-5,2.05-10.06,3.24-15.05.43-1.81,4.39-7.87.21-8.38a3.49,3.49,0,0,0-2.24.84C68.66,51,61.63,56.86,59.18,64.55a7.89,7.89,0,0,1-1.07,2.55,3.74,3.74,0,0,1-3.79,1.19,5.22,5.22,0,0,1-3.18-2.57,1.66,1.66,0,0,1-.28-1.11,2,2,0,0,1,.7-1C59.65,56.34,67.6,49,76.62,42.86Z"/><g class="cls-3"><path class="cls-4" d="M29.18,77.61c.24,3.86,3.25,7,6.67,8.86S43.12,89,46.8,90.21c2.89.93,5.69,2.15,8.49,3.31C66,98,77,101.71,88,105.45a5.28,5.28,0,0,0,2.81.42c1.82-.41,2.68-2.7,2.18-4.5A9.36,9.36,0,0,0,89.57,97c-12.72-10.6-29.74-15.59-41-27.72-3.13-3.36-6.64-6.62-10.86-3.25C33.81,69.16,28.82,71.77,29.18,77.61Z"/><path class="cls-5" d="M48.49,93.78,47.63,93a52.47,52.47,0,0,0,10.11-18l1.09.36A53.75,53.75,0,0,1,48.49,93.78Z"/><path class="cls-5" d="M54.07,94.59l-.75-.87a29.71,29.71,0,0,0,9.22-14.4l1.1.31A31,31,0,0,1,54.07,94.59Z"/><path class="cls-5" d="M57.84,98.08,57.56,97c.21,0,.41-.33.58-.58A45.94,45.94,0,0,0,65,80.3l1.12.23a46.93,46.93,0,0,1-7,16.5A2.25,2.25,0,0,1,57.84,98.08Z"/><path class="cls-5" d="M62.62,101.14l-.87-.74a28.92,28.92,0,0,0,7-18l1.14,0A30.08,30.08,0,0,1,62.62,101.14Z"/><path class="cls-5" d="M68.7,102.11l-1-.62a37.8,37.8,0,0,0,5.81-17.08l1.14.09A39,39,0,0,1,68.7,102.11Z"/><path class="cls-5" d="M70.61,108.56l1.18-5,.13,0a39.61,39.61,0,0,0,4.3-17.17l1.14,0a40.8,40.8,0,0,1-4.64,18.1Z"/><path class="cls-5" d="M76.86,104.58l-1-.61a26.76,26.76,0,0,0,4-15.29l1.14-.05A27.88,27.88,0,0,1,76.86,104.58Z"/><path class="cls-5" d="M82,106.88l-1-.48a39.12,39.12,0,0,0,3.57-14.56l1.14,0A40.15,40.15,0,0,1,82,106.88Z"/><path class="cls-5" d="M85.61,108.86l-1-.62a21.92,21.92,0,0,0,3.4-12.9l1.14-.06A23,23,0,0,1,85.61,108.86Z"/><path class="cls-5" d="M90.07,107.33l-1-.62a15.45,15.45,0,0,0,2.44-9l1.14,0A16.66,16.66,0,0,1,90.07,107.33Z"/></g><path class="cls-6" d="M29.8,50.3S96.07,88.87,95.05,96.54,25.85,63.3,25.85,63.3Z"/><path class="cls-7" d="M30.93,50.65S55.67,58.8,53.64,62.9s-9.38,1.64-14.53,4.37S25.89,66.41,26,63.36,30.93,50.65,30.93,50.65Z"/><path class="cls-2" d="M45.25,79.45a14,14,0,0,0-3,5.11,5.79,5.79,0,0,0,1.21,5.54,5.71,5.71,0,0,0,5.66,1,12.8,12.8,0,0,0,4.95-3.36,36.56,36.56,0,0,0,7.16-10c1.84-3.83,3-8,5.08-11.67,3.17-5.68,8.27-10,13.26-14.17A34.23,34.23,0,0,1,85,48c.67,2-.34,4.13-1.11,6.09-2.14,5.48-2.51,11.46-3,17.31a285.26,285.26,0,0,1-6.49,39.83,26.87,26.87,0,0,0,9.79,2.5c.68,0,1.56-.09,1.71-.75a1.41,1.41,0,0,0-.54-1.18,9,9,0,0,0-6.07-2.65,2.86,2.86,0,0,1-1.69-.34c-.77-.57-.64-1.73-.42-2.67,2.63-11.56,5.46-23.19,5.58-35,0-1.91,0-3.82.18-5.71a62.32,62.32,0,0,1,2-8.5c.78-3.05,1.31-6.16,1.84-9.26.14-.82.16-1.9-.6-2.23a1.92,1.92,0,0,0-1.66.35,57.31,57.31,0,0,0-10.36,7.83c-2.77,2.63-4.91,5.75-8,8C58.56,66.8,51.08,72.27,45.25,79.45Z"/><path class="cls-2" d="M42.06,69.91c.2-.36.47-.76.88-.77.68,0,.81,1,.7,1.63L39.8,95.05a4.05,4.05,0,0,0,.06,2.16c.49,1.17,1.89,1.58,3.09,2s2.55,1.17,2.57,2.43a18,18,0,0,1-7.84-1.41,1.07,1.07,0,0,1-.58-.41,1.21,1.21,0,0,1,0-.9,162.26,162.26,0,0,0,3.8-23.07l-4.17,7.64c-.34.61-2.11,3.21-2.92,2.06-.56-.8,1.52-3.59,1.87-4.21Z"/><path class="cls-8" d="M7.91,79A42,42,0,0,0,1.06,77.8a1.1,1.1,0,0,0,0,1.56,3.3,3.3,0,0,0,1.53.79L8.5,81.94a1.13,1.13,0,0,0,.65.07,1.19,1.19,0,0,0,.51-.46q5.34-7.42,10.47-15c1.3-1.9-.06-2.12-1.35-1.12s-2.55,3.31-3.66,4.72C14.39,71.08,8.71,79.25,7.91,79Z"/><path class="cls-9" d="M15.92,41.34S18.18,8.09,14.59,0c0,0,6,12.67,3.75,41.48Z"/><path class="cls-10" d="M14.56,58.49s-20,.82-10.32-7.51C7.73,48,17.31,34.9,24.9,41.71s11.82,15.62,9,20.6S-17.29,69.14,14.56,58.49Z"/><path class="cls-9" d="M20.05,41.11S28.56,8.89,26.56.27c0,0,3.46,13.57-4.16,41.43Z"/><path class="cls-8" d="M21.65,66.89,10.4,84.05c-1.33,2-3.34,4.36-5.69,3.75-1-.27-1.89-1.09-2.95-1.25S-.53,87.69.24,88.44a1.94,1.94,0,0,0,.62.33L7,91.05a1.86,1.86,0,0,0,1.06.16,1.76,1.76,0,0,0,.9-.79c5.22-7.28,8.91-15.77,15.44-21.91L29,84a2.18,2.18,0,0,0,.39.86c.71.78,2.14,0,2.37-1a5,5,0,0,0-.74-3c-1.55-3.43-2.19-7.15-3.39-10.69C26.53,66.81,24.72,62.21,21.65,66.89Z"/><path class="cls-11" d="M26,57.76,14.58,51.45c2.88-5.23,6.73-8.64,11-6.32s3.39,7.4.5,12.63"/><g class="cls-12"><path class="cls-13" d="M22.09,53.28a3.32,3.32,0,1,1-.83-4.63,3.32,3.32,0,0,1,.83,4.63"/></g><path class="cls-11" d="M21.74,51.65a.77.77,0,1,1-.19-1.07.77.77,0,0,1,.19,1.07"/><path class="cls-11" d="M14.37,51.42l-13-1.52c.69-5.93,3-10.54,7.75-10,4.95.58,5.93,5.57,5.24,11.5"/><g class="cls-14"><path class="cls-13" d="M9,48.77a3.33,3.33,0,1,1-2.52-4,3.34,3.34,0,0,1,2.52,4"/></g><path class="cls-11" d="M8.08,47.39a.77.77,0,1,1-1.5-.34.78.78,0,0,1,.92-.58.76.76,0,0,1,.58.92"/></g></g></svg>