<svg xmlns="http://www.w3.org/2000/svg" viewBox="0 0 280 754.17"><defs><style>.cls-1{fill:#5e6163;}.cls-2{fill:#c0ced8;}.cls-3{fill:#dd5e7c;}.cls-4{fill:#c45872;}.cls-5{fill:#6b6b6b;opacity:0.15;}.cls-6{fill:#ef7592;}</style></defs><g id="Layer_2" data-name="Layer 2"><g id="pipe"><rect class="cls-1" x="11.34" y="0.52" width="145.14" height="31.18" rx="10.46" transform="translate(0.14 -0.7) rotate(0.48)"/><circle class="cls-2" cx="35.42" cy="15.71" r="3.52"/><circle class="cls-2" cx="83.91" cy="16.11" r="3.52"/><circle class="cls-2" cx="129.04" cy="16.48" r="3.52"/><path class="cls-3" d="M21.59,101.17c4.05-7.63,14.91-8.24,23.15-5.66s16.15,7.34,24.77,6.89C76.72,102,83.26,98,90.38,96.88c16.45-2.6,25.16,13,41.16,17.59,4.53,1.31,10.18,1.64,13.2-2l1.16-80.26-124.23-1Z"/><polygon class="cls-4" points="265.73 389.12 265.73 406.07 265.26 406.07 265.4 389.12 265.73 389.12"/><path class="cls-3" d="M265.73,265.17v83l-.33,40.95-.14,16.95-.1,12.47-.14,17,0,2.59-.25,30.85-.42,51.75a29.56,29.56,0,0,1-6.82,14.49,28.46,28.46,0,0,1-3.54,3.49h0a46.75,46.75,0,0,1-6.84,8.21c-20.21,19.27-54.52,17.71-84.79-1.27H142.81a18.29,18.29,0,0,0-18.29,18.29V745.47L25.75,731.69,24.24,545.62v-83A21.57,21.57,0,0,1,45.81,441h64.77a54.33,54.33,0,0,1,1.81-5.54,49.21,49.21,0,0,1,3.6-7.45,46.86,46.86,0,0,1,7.38-9.51c.22-.23.45-.45.68-.67,5.83-5.57-14.39-9.39-6.63-11.56,0,0-2.56-.05-2.56-.1C146.52,391.94,145,366.46,145,366.46a18.29,18.29,0,0,0-18.29-18.29H55.15a29.93,29.93,0,0,1-29.93-29.93V142.56s33-.3,56.58,1h.43c21,1.17,56.11-4.9,61.05-5.78l.1,0,.27,0,.11,0,.1,0,1.12,69,.24,14.41.07,4.62,0,1.72q0,.48,0,1v.07a1,1,0,0,0,0,.17c0,.25,0,.49.07.73a.22.22,0,0,0,0,.08,3.47,3.47,0,0,0,.06.45l0,.19c0,.14.05.28.08.42s.08.44.14.66a.11.11,0,0,0,0,.05.43.43,0,0,1,0,.05,0,0,0,0,0,0,0v0a0,0,0,0,0,0,0,1,1,0,0,0,.06.23c.06.22.12.44.19.66s.13.43.21.65l0,.1c0,.12.08.22.13.34l0,.08a.47.47,0,0,0,0,.1,7.86,7.86,0,0,0,.36.84l0,.09c.14.28.28.55.43.82s.22.39.34.58.35.57.55.84a9.53,9.53,0,0,0,.61.81,3.09,3.09,0,0,0,.33.39l.06.08,0,0c.15.17.3.35.46.51l.07.08a.23.23,0,0,0,.07.07,6,6,0,0,0,.57.56l.49.44.11.1c.23.2.46.38.7.56s.6.44.91.65l.2.12c.3.19.61.38.93.55s.46.24.7.35l.36.17.07,0c.18.08.35.16.54.23a6.37,6.37,0,0,0,.61.23l.55.19.07,0a4.26,4.26,0,0,0,.54.16l.46.12.45.1.25.05.64.11c.22,0,.44.07.67.09l.44,0c.14,0,.29,0,.44,0,.3,0,.6,0,.91,0h82.68A21.56,21.56,0,0,1,265.73,265.17Z"/><path class="cls-5" d="M265.73,265.17v83l-.33,40.95-.14,16.95-.1,12.47-.14,17,0,2.59-27.18-2.59L116,428.05a46.86,46.86,0,0,1,7.38-9.51c.22-.23.45-.45.68-.67,5.83-5.57-14.39-9.39-6.63-11.56,0,0-2.56-.05-2.56-.1C146.52,391.94,145,366.46,145,366.46a18.29,18.29,0,0,0-18.29-18.29H55.15a29.93,29.93,0,0,1-29.93-29.93V225.72H19.48a9.52,9.52,0,0,1,0-19h5.74V142.56s32.87,1.55,56.58,1h.14c2.29-.06,4.5-.13,6.58-.23,25.8-1.21,50.69-4.92,54.76-5.54l.1,0a1.76,1.76,0,0,1,.27,0l.11,0,.1,0,1.49,69H152a9.52,9.52,0,0,1,0,19h-6.65v1.72q0,.48,0,1v.07a1,1,0,0,0,0,.17c0,.25,0,.49.07.73a.22.22,0,0,0,0,.08,3.47,3.47,0,0,0,.06.45l0,.19c0,.14.05.28.08.42s.08.44.14.66a.11.11,0,0,0,0,.05.43.43,0,0,1,0,.05,0,0,0,0,0,0,0v0a0,0,0,0,0,0,0,1,1,0,0,0,.06.23c.06.22.12.44.19.66s.13.43.21.65l0,.1c0,.12.08.22.13.34l0,.08a.47.47,0,0,0,0,.1,7.86,7.86,0,0,0,.36.84l0,.09c.14.28.28.55.43.82s.22.39.34.58.35.57.55.84a9.53,9.53,0,0,0,.61.81,3.35,3.35,0,0,0,.39.47l0,0c.15.17.3.35.46.51l.07.08a.23.23,0,0,0,.07.07,6,6,0,0,0,.57.56c.16.16.32.3.49.44l.11.1c.23.2.46.38.7.56s.6.44.91.65l.2.12c.3.19.61.38.93.55s.46.24.7.35l.36.17.07,0c.18.08.35.16.54.23a6.37,6.37,0,0,0,.61.23l.55.19.07,0,.54.16.46.12.45.1.25.05.64.11c.22,0,.44.07.67.09l.44,0c.14,0,.29,0,.44,0,.3,0,.6,0,.91,0h82.68A21.56,21.56,0,0,1,265.73,265.17Z"/><path class="cls-4" d="M149.3,238.06H25v-17H145.29s0,2.17.1,4.62c.08,2,.19,4.19.39,5.55a0,0,0,0,0,0,0,5,5,0,0,0,.12.7,6.65,6.65,0,0,0,.52,1.33.41.41,0,0,0,0,.08,41.76,41.76,0,0,0,2.71,4.47l.1.13Z"/><rect class="cls-6" x="9.96" y="206.69" width="151.51" height="19.02" rx="9.51"/><path class="cls-4" d="M265.16,418.54l-.14,17H112.39c2.46-6.38,3.11-10,.81-17Z"/><rect class="cls-4" x="24.23" y="586.56" width="100.25" height="16.96" transform="translate(148.72 1190.08) rotate(-180)"/><rect class="cls-1" y="722.99" width="145.14" height="31.18" rx="10.46" transform="translate(145.14 1477.16) rotate(-180)"/><circle class="cls-2" cx="121.07" cy="738.58" r="3.52"/><circle class="cls-2" cx="72.57" cy="738.58" r="3.52"/><circle class="cls-2" cx="27.44" cy="738.58" r="3.52"/><rect class="cls-6" x="101.84" y="404.14" width="178.16" height="19.02" rx="9.51" transform="translate(381.84 827.3) rotate(-180)"/><rect class="cls-6" x="15.53" y="575.62" width="119.3" height="19.02" rx="9.51" transform="translate(150.37 1170.26) rotate(-180)"/></g></g></svg>