<svg xmlns="http://www.w3.org/2000/svg" viewBox="0 0 295.3 754.17"><defs><style>.cls-1{fill:#5e6163;}.cls-2{fill:#c0ced8;}.cls-3{fill:#dd5e7c;}.cls-4{fill:#c45872;}.cls-5{fill:#ef7592;}.cls-6{fill:#6b6b6b;opacity:0.15;}</style></defs><g id="Layer_2" data-name="Layer 2"><g id="pipe"><rect class="cls-1" x="27.4" y="0.52" width="145.14" height="31.18" rx="10.46" transform="translate(0.14 -0.83) rotate(0.48)"/><circle class="cls-2" cx="51.48" cy="15.71" r="3.52"/><circle class="cls-2" cx="99.98" cy="16.11" r="3.52"/><circle class="cls-2" cx="145.11" cy="16.48" r="3.52"/><path class="cls-3" d="M37.65,101.17c4.05-7.63,14.91-8.24,23.15-5.66S77,102.85,85.57,102.4c7.21-.38,13.75-4.39,20.87-5.52,16.45-2.6,25.16,13,41.16,17.59,4.54,1.31,10.18,1.64,13.21-2L162,32.22l-124.23-1Z"/><path class="cls-3" d="M281,265.17v83l-.33,40.95-.14,16.95-.26,32L280,468.94l-.42,51.75a30,30,0,0,1-29.51,24.93H169c-6.72,8.71-16.81,16-29.15,21.18-15.36,6.47-34.2,9.71-54.33,8.48a125.78,125.78,0,0,1-45.8-11.35c-25-11.81-40.91-31.32-39.61-52.4,1.19-19.35,16.64-35.62,39.46-44.86v-4.06A21.57,21.57,0,0,1,61.1,441h82.68a16.15,16.15,0,0,0,16.16-16.15l.34.05V366.46A18.29,18.29,0,0,0,142,348.17H70.44a29.93,29.93,0,0,1-29.93-29.93V142.56s33.08-.3,56.66,1h.35c21,1.17,56.11-4.9,61.05-5.78l.1,0,.27,0,.11,0,.1,0,1.12,69,.24,14.41.07,4.62,0,1.72q0,.48,0,1v.07q0,.45.09.9c0,.24.06.48.1.72s0,.28.08.42.08.44.14.66a.44.44,0,0,0,0,.1,0,0,0,0,0,0,0,1.43,1.43,0,0,0,.07.28c.06.22.12.44.19.66s.13.43.21.65l0,.1c0,.12.08.22.13.34a.41.41,0,0,0,0,.08,14.94,14.94,0,0,0,.88,1.85c.11.19.22.39.34.58a13.26,13.26,0,0,0,1.16,1.65,3.09,3.09,0,0,0,.33.39l.1.13c.17.2.35.4.53.59a.23.23,0,0,0,.07.07,6,6,0,0,0,.57.56l.6.54c.23.2.46.38.7.56a15.47,15.47,0,0,0,2,1.32,11.58,11.58,0,0,0,1.06.52l.61.26a6.37,6.37,0,0,0,.61.23l.55.19a5.43,5.43,0,0,0,.61.18l.46.12.45.1.25.05.64.11c.22,0,.44.07.67.09s.58.06.88.07.61,0,.91,0h82.68A21.56,21.56,0,0,1,281,265.17Z"/><path class="cls-3" d="M139.81,566.8V745.47L41,731.69,39.68,563.93a125.78,125.78,0,0,0,45.8,11.35C105.61,576.51,124.45,573.27,139.81,566.8Z"/><path class="cls-4" d="M164.59,238.06H40.29v-17H160.58s0,2.17.1,4.62c.08,2,.19,4.19.39,5.55a0,0,0,0,0,0,0,5,5,0,0,0,.12.7,6.65,6.65,0,0,0,.52,1.33.41.41,0,0,0,0,.08,41.76,41.76,0,0,0,2.71,4.47l.1.13Z"/><polygon class="cls-4" points="281.02 389.12 281.02 406.07 280.55 406.07 280.69 389.12 281.02 389.12"/><rect class="cls-5" x="25.26" y="206.69" width="151.51" height="19.02" rx="9.51"/><path class="cls-6" d="M281,348.17v-83a21.57,21.57,0,0,0-21.57-21.57H176.77a16.16,16.16,0,0,1-16.16-16.15v-1.73h6.64a9.51,9.51,0,0,0,9.51-9.51h0a9.51,9.51,0,0,0-9.51-9.51h-6.62l-1.49-69S132,142,103.81,143.33c-23.61,1.1-63.3-.77-63.3-.77v64.13H34.77a9.51,9.51,0,0,0-9.51,9.51h0a9.51,9.51,0,0,0,9.51,9.51h5.74v17.88h0v74.65a29.93,29.93,0,0,0,29.93,29.93h71.21a18.29,18.29,0,0,1,18.29,18.29v60.16l120.35,11.46Z"/><path class="cls-4" d="M156,435.5h124.3v-17H160s-.05,8.54-.61,10.9C158.91,431.31,156,435.5,156,435.5Z"/><rect class="cls-4" x="39.53" y="586.56" width="100.25" height="16.96" transform="translate(179.31 1190.08) rotate(-180)"/><rect class="cls-1" x="15.3" y="722.99" width="145.14" height="31.18" rx="10.46" transform="translate(175.73 1477.16) rotate(-180)"/><circle class="cls-2" cx="136.37" cy="738.58" r="3.52"/><circle class="cls-2" cx="87.87" cy="738.58" r="3.52"/><circle class="cls-2" cx="42.73" cy="738.58" r="3.52"/><rect class="cls-5" x="143.79" y="404.14" width="151.51" height="19.02" rx="9.51" transform="translate(439.08 827.3) rotate(180)"/><rect class="cls-5" x="30.83" y="575.62" width="119.3" height="19.02" rx="9.51" transform="translate(180.96 1170.26) rotate(-180)"/></g></g></svg>