<?xml version="1.0" encoding="utf-8"?>
<!-- Generator: Adobe Illustrator 26.0.2, SVG Export Plug-In . SVG Version: 6.00 Build 0)  -->
<svg version="1.1" id="Layer_1" xmlns="http://www.w3.org/2000/svg" xmlns:xlink="http://www.w3.org/1999/xlink" x="0px" y="0px"
	 viewBox="0 0 362.8 642.1" style="enable-background:new 0 0 362.8 642.1;" xml:space="preserve">
<style type="text/css">
	.st0{fill:#DD5E7C;}
	.st1{opacity:0.3;fill:#0398F4;enable-background:new    ;}
	.st2{opacity:0.15;fill:#6B6B6B;enable-background:new    ;}
	.st3{fill:#5E6163;}
	.st4{fill:#C0CED8;}
	.st5{fill:#C45872;}
	.st6{fill:#EF7592;}
</style>
<ellipse transform="matrix(0.2275 -0.9738 0.9738 0.2275 -266.1345 366.3718)" class="st0" cx="97.8" cy="350.9" rx="51" ry="53.5"/>
<g id="g2553">
	<path id="path2053" class="st0" d="M325.2,268.6H133c-7.5,0-13.5-6.2-13.4-13.7l0.4-15.6c0-9,7.3-16.2,16.2-16.2h72.7
		c11.9,0,21.6-9.7,21.6-21.6v-71L229,17.2h-98.8v95c0,5-2.1,9.6-5.4,12.9c-3.3,3.4-7.9,5.4-12.9,5.4h-62
		c-16.5,0-29.9,13.4-29.9,29.9V342c0,12.6,10.3,22.9,22.9,22.9h191.2c8.2,0,14.7,6.7,14.6,14.8l-0.5,31c0,9-7.3,16.2-16.2,16.2
		h-82.7c-11.9,0-21.6,9.7-21.6,21.6v63l1.5,99.5l98.7,13.8v-95c0-5,2.1-9.6,5.4-12.9c3.3-3.4,7.9-5.4,12.9-5.4h72
		c16.5,0,29.9-13.4,29.9-29.9V291.4C348.1,278.7,337.9,268.5,325.2,268.6z M184,356.2c-22.1,0-40.1-17.9-40.1-40.1
		c0-22.1,17.9-40.1,40.1-40.1c22.1,0,40.1,17.9,40.1,40.1C224.1,338.2,206.2,356.2,184,356.2L184,356.2z"/>
	<circle id="circle2149" class="st1" cx="184" cy="316" r="32.3"/>
	<path id="path2055" class="st2" d="M0.1,289.1l-0.1,27v-24.8C0,290.6,0,289.8,0.1,289.1z"/>
	<g id="g2065">
		<path id="path2057" class="st3" d="M108.7,18.7V9.4c0-5.2,4.6-9.4,10.3-9.4h122.1c5.7,0,10.3,4.2,10.3,9.4v9.2
			c0,5.2-4.6,9.4-10.3,9.4H119C113.3,28.1,108.7,23.9,108.7,18.7z"/>
		<circle id="circle2059" class="st4" cx="136.3" cy="14" r="3.2"/>
		<circle id="circle2061" class="st4" cx="180" cy="14" r="3.2"/>
		<circle id="circle2063" class="st4" cx="220.7" cy="14" r="3.2"/>
	</g>
	<g id="g2071">
		<path id="path2067" class="st5" d="M120.6,258.4c-40.1,0-60.2,0-100.3,0v-17c40.1,0,60.2,0,100.3,0
			C120.6,247.1,120.6,252.8,120.6,258.4z"/>
		<path id="path2069" class="st6" d="M5.3,240.4L5.3,240.4c0-5.3,4.3-9.5,9.5-9.5h112.5c5.3,0,9.5,4.3,9.5,9.5l0,0
			c0,5.3-4.3,9.5-9.5,9.5H14.8C9.6,249.9,5.3,245.7,5.3,240.4z"/>
	</g>
	<rect id="rect2073" x="125" y="552.4" class="st5" width="100.2" height="17"/>
	<g id="g2083">
		<path id="path2075" class="st3" d="M248.5,621.3v10.3c0,5.8-4.7,10.5-10.5,10.5H113.9c-5.8,0-10.5-4.7-10.5-10.5v-10.3
			c0-5.8,4.7-10.5,10.5-10.5h124.2C243.9,610.8,248.5,615.5,248.5,621.3z"/>
		<circle id="circle2077" class="st4" cx="224.5" cy="626.4" r="3.5"/>
		<circle id="circle2079" class="st4" cx="176" cy="626.4" r="3.5"/>
		<circle id="circle2081" class="st4" cx="130.8" cy="626.4" r="3.5"/>
	</g>
	<path id="path2085" class="st6" d="M235.6,551L235.6,551c0,5.3-4.3,9.5-9.5,9.5H125.8c-5.3,0-9.5-4.3-9.5-9.5l0,0
		c0-5.3,4.3-9.5,9.5-9.5h100.3C231.4,541.5,235.6,545.7,235.6,551L235.6,551z"/>
	<g id="g2091">
		<path id="path2087" class="st5" d="M246.9,417.3c0.6-2.4,0.6-10.9,0.6-10.9h100.3v17H243.5C243.5,423.4,246.4,419.2,246.9,417.3
			L246.9,417.3z"/>
		<path id="path2089" class="st6" d="M362.8,401.6L362.8,401.6c0,5.3-4.3,9.5-9.5,9.5H240.8c-5.3,0-9.5-4.3-9.5-9.5l0,0
			c0-5.3,4.3-9.5,9.5-9.5h112.5C358.6,392,362.8,396.3,362.8,401.6z"/>
	</g>
	<polygon id="polygon2093" class="st5" points="130.4,77.3 229.6,77.3 233.7,88.5 125.9,88.5 	"/>
	<path id="path2095" class="st6" d="M117.5,90L117.5,90c0-4.6,4.4-8.3,9.8-8.3h103c5.4,0,9.8,3.8,9.8,8.3l0,0c0,4.6-4.4,8.3-9.8,8.3
		h-103C121.8,98.3,117.5,94.6,117.5,90L117.5,90z"/>
	<g id="g2175">
		<path id="path2155" class="st1" d="M184,274.1c-24.4,0-44.1,19.8-44.1,44.1c0,24.4,19.8,44.1,44.1,44.1
			c24.4,0,44.1-19.8,44.1-44.1C228.2,293.8,208.4,274.1,184,274.1L184,274.1z M184,350.5c-17.8,0-32.3-14.4-32.3-32.3
			c0-17.8,7.9-35.3,32.3-35.3c26,0,32.3,17.4,32.3,35.3C216.3,336,201.9,350.5,184,350.5z"/>
		<path id="path2157" class="st3" d="M184,271.8c-24.4,0-44.1,19.8-44.1,44.1c0,24.4,19.8,44.1,44.1,44.1
			c24.4,0,44.1-19.8,44.1-44.1C228.2,291.6,208.4,271.8,184,271.8L184,271.8z M184,348.2c-17.8,0-32.3-14.4-32.3-32.3
			c0-17.8,14.4-32.3,32.3-32.3c17.8,0,32.3,14.4,32.3,32.3S201.9,348.2,184,348.2z"/>
		<circle id="circle2159" class="st4" cx="222.2" cy="316" r="3.5"/>
		<circle id="circle2161" class="st4" cx="211" cy="289" r="3.5"/>
		<circle id="circle2163" class="st4" cx="184" cy="277.9" r="3.5"/>
		<circle id="circle2165" class="st4" cx="157.1" cy="289" r="3.5"/>
		<circle id="circle2167" class="st4" cx="145.9" cy="316" r="3.5"/>
		<circle id="circle2169" class="st4" cx="157.1" cy="343" r="3.5"/>
		<circle id="circle2171" class="st4" cx="184" cy="354.1" r="3.5"/>
		<circle id="circle2173" class="st4" cx="211" cy="343" r="3.5"/>
	</g>
</g>
</svg>
