<svg xmlns="http://www.w3.org/2000/svg" viewBox="0 0 281.23 754.17"><defs><style>.cls-1{fill:#5e6163;}.cls-2{fill:#c0ced8;}.cls-3{fill:#dd5e7c;}.cls-4{fill:#c45872;}.cls-5{fill:#6b6b6b;opacity:0.15;}.cls-6{fill:#ef7592;}</style></defs><g id="Layer_2" data-name="Layer 2"><g id="pipe"><rect class="cls-1" x="12.57" y="0.52" width="145.14" height="31.18" rx="10.46" transform="translate(0.14 -0.71) rotate(0.48)"/><circle class="cls-2" cx="36.64" cy="15.71" r="3.52"/><circle class="cls-2" cx="85.14" cy="16.11" r="3.52"/><circle class="cls-2" cx="130.27" cy="16.48" r="3.52"/><path class="cls-3" d="M22.82,101.17c4-7.63,14.91-8.24,23.15-5.66s16.15,7.34,24.77,6.89C78,102,84.48,98,91.61,96.88c16.44-2.6,25.16,13,41.16,17.59,4.53,1.31,10.18,1.64,13.2-2l1.15-80.26-124.22-1Z"/><path class="cls-3" d="M267,265.17v83l-.73,89.92L266,468.94l-.42,51.75a30,30,0,0,1-29.51,24.93H144a18.29,18.29,0,0,0-18.29,18.29V745.47L27,731.69,25.47,545.62v-83A21.57,21.57,0,0,1,47,441h82.68a16.15,16.15,0,0,0,16.16-16.15l.34.05V366.46a18.29,18.29,0,0,0-18.29-18.29H89.61c-29.66,10.12-59.9,5.18-77-15.37C-7.91,308-2.66,268.62,23,238.06c1-1.24,2.11-2.46,3.21-3.66l.22-.24v-91.6s33-.3,56.61,1h.4c21,1.17,56.11-4.9,61.05-5.78l.1,0,.27,0,.11,0,.1,0,1.12,69,.14,8.41a50.69,50.69,0,0,1,3.49,3.81c.6.72,1.17,1.45,1.72,2.19.79,1.06,1.54,2.14,2.24,3.25.26.42.52.84.77,1.27A54,54,0,0,1,160,238.06q.81,2.7,1.35,5.48l.46,0c.3,0,.61,0,.91,0h82.68a21.48,21.48,0,0,1,15.25,6.32c.49.49.95,1,1.39,1.53a23.79,23.79,0,0,1,1.53,2.09,25.43,25.43,0,0,1,1.27,2.28,19.26,19.26,0,0,1,.82,1.93A21.44,21.44,0,0,1,267,265.17Z"/><polygon class="cls-4" points="266.95 389.12 266.95 406.07 266.48 406.07 266.62 389.12 266.95 389.12"/><path class="cls-5" d="M267,265.17v83l-.73,89.92L145.88,426.62V366.46a18.29,18.29,0,0,0-18.3-18.29h-38c-29.66,10.12-59.9,5.18-77-15.37C-8.79,307-2.16,265.2,26.45,234.16v-8.44H20.7a9.52,9.52,0,0,1,0-19h5.75V142.56s32.9,1.55,56.61,1h.11c2.29-.06,4.49-.13,6.57-.23,25.81-1.21,50.7-4.92,54.77-5.54l.1,0a1.76,1.76,0,0,1,.27,0l.11,0,.1,0,1.12,69,.14,8.41a50.69,50.69,0,0,1,3.49,3.81,52.69,52.69,0,0,1,4,5.44c.26.42.52.84.77,1.27a55.47,55.47,0,0,1,6.77,17.92l.46,0c.3,0,.61,0,.91,0h82.68a21.48,21.48,0,0,1,15.25,6.32c.49.49.95,1,1.39,1.53a23.79,23.79,0,0,1,1.53,2.09,25.43,25.43,0,0,1,1.27,2.28c.3.63.58,1.27.82,1.93A21.44,21.44,0,0,1,267,265.17Z"/><path class="cls-4" d="M160,238.06H23c1-1.24,2.11-2.46,3.21-3.66l.22-.24V221.1H150.27c.91,1.06,1.78,2.14,2.58,3.25.3.42.6.84.89,1.27A50.58,50.58,0,0,1,160,238.06Z"/><rect class="cls-6" x="11.19" y="206.69" width="151.51" height="19.02" rx="9.51"/><path class="cls-4" d="M141.89,435.5H266.2v-17H145.9s-.05,8.54-.61,10.9C144.85,431.31,141.89,435.5,141.89,435.5Z"/><rect class="cls-4" x="25.46" y="586.56" width="100.25" height="16.96" transform="translate(151.17 1190.08) rotate(-180)"/><rect class="cls-1" x="1.23" y="722.99" width="145.14" height="31.18" rx="10.46" transform="translate(147.59 1477.16) rotate(-180)"/><circle class="cls-2" cx="122.3" cy="738.58" r="3.52"/><circle class="cls-2" cx="73.8" cy="738.58" r="3.52"/><circle class="cls-2" cx="28.67" cy="738.58" r="3.52"/><rect class="cls-6" x="129.72" y="404.14" width="151.51" height="19.02" rx="9.51" transform="translate(410.95 827.3) rotate(180)"/><rect class="cls-6" x="16.76" y="575.62" width="119.3" height="19.02" rx="9.51" transform="translate(152.82 1170.26) rotate(-180)"/></g></g></svg>