<svg xmlns="http://www.w3.org/2000/svg" viewBox="0 0 299.69 754.17"><defs><style>.cls-1{fill:#5e6163;}.cls-2{fill:#c0ced8;}.cls-3{fill:#dd5e7c;}.cls-4{fill:#c45872;}.cls-5{fill:#ef7592;}.cls-6{fill:#6b6b6b;opacity:0.15;}</style></defs><g id="Layer_2" data-name="Layer 2"><g id="pipe"><rect class="cls-1" x="11.34" y="0.52" width="145.14" height="31.18" rx="10.46" transform="translate(0.14 -0.7) rotate(0.48)"/><circle class="cls-2" cx="35.42" cy="15.71" r="3.52"/><circle class="cls-2" cx="83.91" cy="16.11" r="3.52"/><circle class="cls-2" cx="129.04" cy="16.48" r="3.52"/><path class="cls-3" d="M21.59,101.17c4.05-7.63,14.91-8.24,23.15-5.66s16.15,7.34,24.77,6.89C76.72,102,83.26,98,90.38,96.88c16.45-2.6,25.16,13,41.16,17.59,4.53,1.31,10.18,1.64,13.2-2l1.16-80.26-124.23-1Z"/><path class="cls-3" d="M265.47,379.15l-.08,10-.14,16.95-.26,32-.25,30.85-.42,51.75a30,30,0,0,1-29.51,24.93h-92a18.29,18.29,0,0,0-18.29,18.29V745.47L25.74,731.69,24.23,545.62v-83A21.57,21.57,0,0,1,45.8,441h82.68a16.15,16.15,0,0,0,16.08-14.55c.05-.53.08-1.06.08-1.6l.34.05V376.32c-10.48-7.6-18-17.24-21.42-28.15H55.14a29.93,29.93,0,0,1-29.93-29.93V142.56s33-.3,56.61,1h.4c21,1.17,56.11-4.9,61.05-5.78l.1,0,.27,0,.11,0,.1,0,1.12,69,.24,14.41.07,4.62,0,1.72q0,.48,0,1a1.94,1.94,0,0,0,0,.24c0,.25,0,.49.07.73a.19.19,0,0,0,0,.08,3.47,3.47,0,0,0,.06.45,15.77,15.77,0,0,0,.92,3.43l0,.08a.31.31,0,0,0,.05.1,7.86,7.86,0,0,0,.36.84l0,.09c.14.28.28.55.43.82s.22.39.34.58a9.33,9.33,0,0,0,.55.84c.19.28.4.55.61.81a3.09,3.09,0,0,0,.33.39l.06.08a.07.07,0,0,0,0,0c.15.17.3.35.46.51s.47.49.71.71l.49.44a10.15,10.15,0,0,0,.81.66c.3.23.6.44.91.65l.2.12c.3.19.61.38.93.55l.7.35.43.2.54.23a12.82,12.82,0,0,0,1.23.44,4.26,4.26,0,0,0,.54.16,15.4,15.4,0,0,0,2.47.47l.44,0a3.15,3.15,0,0,0,.44,0c.3,0,.6,0,.91,0h82.69a21.64,21.64,0,0,1,20.26,14.15,21.68,21.68,0,0,1,1.3,7.42v16.34c19.59,10.08,32.62,26,33.87,44.71C301,347,287.41,366.44,265.47,379.15Z"/><path class="cls-4" d="M149.3,238.06H25v-17H145.29s0,2.17.1,4.62c.08,2,.19,4.19.39,5.55a0,0,0,0,0,0,0,5,5,0,0,0,.12.7,6.65,6.65,0,0,0,.52,1.33.41.41,0,0,0,0,.08,41.76,41.76,0,0,0,2.71,4.47l.1.13Z"/><polygon class="cls-4" points="265.73 389.12 265.73 406.07 265.26 406.07 265.4 389.12 265.73 389.12"/><rect class="cls-5" x="9.96" y="206.69" width="151.51" height="19.02" rx="9.51"/><path class="cls-6" d="M265.47,379.15l-.08,10-.14,16.95-.26,32L144.64,426.62l-.08-.13c.05-.53.08-1.06.08-1.6l.34.05V376.32c-10.48-7.6-18-17.24-21.42-28.15H55.14a29.93,29.93,0,0,1-29.93-29.93V225.72H19.47a9.52,9.52,0,0,1,0-19h5.74V142.56s32.9,1.55,56.61,1h.11c2.29-.06,4.5-.13,6.58-.23,25.81-1.21,50.69-4.92,54.76-5.54l.1,0a1.76,1.76,0,0,1,.27,0l.11,0,.1,0,1.49,69H152a9.52,9.52,0,0,1,0,19h-6.64v1.72q0,.48,0,1a1.94,1.94,0,0,0,0,.24c0,.25,0,.49.07.73a.19.19,0,0,0,0,.08,3.47,3.47,0,0,0,.06.45,15.77,15.77,0,0,0,.92,3.43l0,.08a.31.31,0,0,0,.05.1q.17.44.36.84l0,.09c.14.28.28.55.43.82s.22.39.34.58a9.33,9.33,0,0,0,.55.84,9.53,9.53,0,0,0,.61.81,3.35,3.35,0,0,0,.39.47.07.07,0,0,0,0,0,5.57,5.57,0,0,0,.46.51c.23.25.47.49.71.71s.32.3.49.44a10.15,10.15,0,0,0,.81.66c.3.23.6.44.91.65l.2.12c.3.19.61.38.93.55l.7.35.43.2.54.23a12.82,12.82,0,0,0,1.23.44l.54.16a15.4,15.4,0,0,0,2.47.47l.44,0a3.15,3.15,0,0,0,.44,0c.3,0,.6,0,.91,0h82.69a21.64,21.64,0,0,1,20.26,14.15,21.68,21.68,0,0,1,1.3,7.42v16.34c19.59,10.08,32.62,26,33.87,44.71C301,347,287.41,366.44,265.47,379.15Z"/><path class="cls-4" d="M140.67,435.5H265v-17H144.68s-.06,8.54-.62,10.9C143.62,431.31,140.67,435.5,140.67,435.5Z"/><rect class="cls-4" x="24.23" y="586.56" width="100.25" height="16.96" transform="translate(148.72 1190.08) rotate(-180)"/><rect class="cls-1" y="722.99" width="145.14" height="31.18" rx="10.46" transform="translate(145.14 1477.16) rotate(-180)"/><circle class="cls-2" cx="121.07" cy="738.58" r="3.52"/><circle class="cls-2" cx="72.57" cy="738.58" r="3.52"/><circle class="cls-2" cx="27.44" cy="738.58" r="3.52"/><rect class="cls-5" x="128.49" y="404.14" width="151.51" height="19.02" rx="9.51" transform="translate(408.49 827.3) rotate(180)"/><rect class="cls-5" x="15.53" y="575.62" width="119.3" height="19.02" rx="9.51" transform="translate(150.37 1170.26) rotate(-180)"/></g></g></svg>