<svg xmlns="http://www.w3.org/2000/svg" viewBox="0 0 292.07 754.17"><defs><style>.cls-1{fill:#5e6163;}.cls-2{fill:#c0ced8;}.cls-3{fill:#dd5e7c;}.cls-4{fill:#c45872;}.cls-5{fill:#ef7592;}.cls-6{fill:#6b6b6b;opacity:0.15;}</style></defs><g id="Layer_2" data-name="Layer 2"><g id="pipe"><rect class="cls-1" x="24.94" y="0.52" width="145.14" height="31.18" rx="10.46" transform="translate(0.14 -0.81) rotate(0.48)"/><circle class="cls-2" cx="49.02" cy="15.71" r="3.52"/><circle class="cls-2" cx="97.51" cy="16.11" r="3.52"/><circle class="cls-2" cx="142.64" cy="16.48" r="3.52"/><path class="cls-3" d="M35.19,101.17c4.05-7.63,14.91-8.24,23.15-5.66s16.15,7.34,24.77,6.89C90.32,102,96.86,98,104,96.88c16.45-2.6,25.16,13,41.16,17.59,4.53,1.31,10.18,1.64,13.2-2l1.16-80.26-124.23-1Z"/><path class="cls-3" d="M277.8,265.17v83l-.33,40.95-.14,16.95-.26,32-.25,30.85-.42,51.75a30,30,0,0,1-29.51,24.93h-92a18.29,18.29,0,0,0-18.29,18.29v55.18c25.9,10.75,42.64,28.82,41.44,48.26-1.11,18.06-17.45,33.06-41.44,41.11v37L37.82,731.69,37.59,703C13.94,692.07-1.07,674.86.06,656.42c1-16.88,15.38-31.08,36.83-39.45l-.58-71.35v-83A21.57,21.57,0,0,1,57.88,441h82.68a16.15,16.15,0,0,0,16.16-16.15l.34.05V366.46a18.29,18.29,0,0,0-18.29-18.29H67.22a29.93,29.93,0,0,1-29.93-29.93V142.56s33.08-.3,56.66,1h.35c21,1.17,56.11-4.9,61.05-5.78l.1,0,.27,0,.11,0,.1,0,1.12,69,.24,14.41.07,4.62,0,1.72q0,.48,0,1v.07q0,.45.09.9c0,.24.06.48.1.72s0,.28.08.42.08.44.14.66a.44.44,0,0,0,0,.1,0,0,0,0,0,0,0,1.43,1.43,0,0,0,.07.28c.06.22.12.44.19.66s.13.43.21.65l0,.1c0,.12.08.22.13.34a.41.41,0,0,0,0,.08,14.94,14.94,0,0,0,.88,1.85c.11.19.22.39.34.58a13.26,13.26,0,0,0,1.16,1.65,3.09,3.09,0,0,0,.33.39l.1.13c.17.2.35.4.53.59a.23.23,0,0,0,.07.07,6,6,0,0,0,.57.56l.6.54c.23.2.46.38.7.56a15.47,15.47,0,0,0,2,1.32,11.58,11.58,0,0,0,1.06.52l.61.26a6.37,6.37,0,0,0,.61.23l.55.19a5.43,5.43,0,0,0,.61.18l.46.12.45.1.25.05.64.11c.22,0,.44.07.67.09s.58.06.88.07.61,0,.91,0h82.68A21.56,21.56,0,0,1,277.8,265.17Z"/><path class="cls-4" d="M161.37,238.06H37.07v-17H157.36s0,2.17.1,4.62c.08,2,.19,4.19.39,5.55a0,0,0,0,0,0,0,5,5,0,0,0,.12.7,6.65,6.65,0,0,0,.52,1.33.41.41,0,0,0,0,.08,41.76,41.76,0,0,0,2.71,4.47l.1.13Z"/><polygon class="cls-4" points="277.8 389.12 277.8 406.07 277.33 406.07 277.46 389.12 277.8 389.12"/><rect class="cls-5" x="22.03" y="206.69" width="151.51" height="19.02" rx="9.51"/><path class="cls-6" d="M277.8,348.17v-83a21.57,21.57,0,0,0-21.57-21.57H173.54a16.15,16.15,0,0,1-16.15-16.15v-1.73H164a9.51,9.51,0,0,0,9.51-9.51h0a9.51,9.51,0,0,0-9.51-9.51h-6.61l-1.49-69s-27.13,4.32-55.35,5.64c-23.61,1.1-63.29-.77-63.29-.77v64.13H31.54A9.51,9.51,0,0,0,22,216.2h0a9.51,9.51,0,0,0,9.51,9.51h5.75v17.88h0v74.65a29.92,29.92,0,0,0,29.92,29.93h71.21a18.29,18.29,0,0,1,18.3,18.29v60.16l120.35,11.46Z"/><path class="cls-4" d="M152.73,435.5H277v-17H156.74s-.05,8.54-.61,10.9C155.69,431.31,152.73,435.5,152.73,435.5Z"/><rect class="cls-4" x="36.3" y="586.56" width="100.25" height="16.96" transform="translate(172.85 1190.08) rotate(-180)"/><rect class="cls-1" x="12.07" y="722.99" width="145.14" height="31.18" rx="10.46" transform="translate(169.28 1477.16) rotate(-180)"/><circle class="cls-2" cx="133.14" cy="738.58" r="3.52"/><circle class="cls-2" cx="84.64" cy="738.58" r="3.52"/><circle class="cls-2" cx="39.51" cy="738.58" r="3.52"/><rect class="cls-5" x="140.56" y="404.14" width="151.51" height="19.02" rx="9.51" transform="translate(432.63 827.3) rotate(180)"/><rect class="cls-5" x="27.6" y="575.62" width="119.3" height="19.02" rx="9.51" transform="translate(174.51 1170.26) rotate(-180)"/></g></g></svg>