<?xml version="1.0" encoding="utf-8"?>
<!-- Generator: Adobe Illustrator 26.0.2, SVG Export Plug-In . SVG Version: 6.00 Build 0)  -->
<svg version="1.1" id="Layer_1" xmlns="http://www.w3.org/2000/svg" xmlns:xlink="http://www.w3.org/1999/xlink" x="0px" y="0px"
	 viewBox="0 0 194.6 199.7" style="enable-background:new 0 0 194.6 199.7;" xml:space="preserve">
<style type="text/css">
	.st0{display:none;}
	.st1{display:inline;}
	.st2{display:inline;clip-path:url(#SVGID_00000087403713509931433050000012117189337178134418_);}
	.st3{fill:#434070;}
	.st4{fill:#333333;}
	.st5{fill:#D2324B;}
	.st6{fill:#74FF33;}
	.st7{fill:#85D1FF;}
	.st8{fill:#9E0E38;}
	.st9{opacity:0.3;fill:#0398F4;enable-background:new    ;}
	.st10{opacity:0.3;fill:#FFFFFF;enable-background:new    ;}
	.st11{opacity:0.5;fill:#5E6163;enable-background:new    ;}
	.st12{fill:#5E6163;}
	.st13{fill:#C0CED8;}
</style>
<g class="st0">
	<defs>
		<rect id="SVGID_1_" x="34.5" y="27.8" width="125.9" height="130.8"/>
	</defs>
	<clipPath id="SVGID_00000039130908878990843260000014862581038121510558_" class="st1">
		<use xlink:href="#SVGID_1_"  style="overflow:visible;"/>
	</clipPath>
	<g style="display:inline;clip-path:url(#SVGID_00000039130908878990843260000014862581038121510558_);">
		<path class="st3" d="M160.2,116.6c0,11.7-25.3,32.7-60.1,32.7s-65.7-11.2-65.7-32.6C34.3,105,160.2,104.8,160.2,116.6z"/>
		<path class="st4" d="M82.6,39.4V64h-2.9L82.6,39.4z"/>
		<path class="st5" d="M82.4,43.9c-0.8,0-1.6-0.2-2.3-0.7c-1.4-0.9-2.1-2.6-1.8-4.2c0.1-0.8,0.5-1.5,1.1-2.1c0.6-0.6,1.3-1,2.1-1.1
			c0.8-0.2,1.6-0.1,2.4,0.2c2.1,0.9,3.1,3.3,2.2,5.4c-0.2,0.5-0.5,0.9-0.8,1.3C84.6,43.5,83.5,44,82.4,43.9L82.4,43.9z"/>
		<path class="st6" d="M97.4,133.3c34.7,0,62.9-8.2,62.9-18.2S132.1,97,97.4,97s-62.9,8.2-62.9,18.2S62.7,133.4,97.4,133.3z"/>
		<path class="st3" d="M158.9,115.3c0,4.1-6.8,9.1-18,11.9c-11.2,2.8-26.4,4.5-43.4,4.7c-17.7,0.2-33.7-1.8-45-5
			c-10.3-2.8-16.6-7.9-16.7-11.8c0-3.5,5.5-8.3,13.9-10.6c4.5-1.2,9.1-2.1,13.7-2.8c1.5-0.2,3-0.4,4.6-0.6
			c9.8-1.1,19.7-1.7,29.6-1.8c1.2,0,2.3,0,3.4,0c7.9,0,15.7,0.4,23.5,1.2l1.3,0.1c1.6,0.2,3.2,0.4,4.7,0.6c4.6,0.6,9.2,1.5,13.7,2.7
			C153.7,106.5,158.9,111.6,158.9,115.3z"/>
		<path class="st6" d="M90.2,145.3c0.5,0,0.9-0.1,1.3-0.4c0.4-0.3,0.7-0.6,0.9-1.1c0.2-0.4,0.2-0.9,0.1-1.4
			c-0.1-0.5-0.3-0.9-0.7-1.2c-0.3-0.3-0.8-0.6-1.2-0.7c-0.5-0.1-1-0.1-1.4,0.1c-0.4,0.2-0.8,0.5-1.1,0.9c-0.3,0.4-0.4,0.9-0.4,1.3
			C87.8,144.2,88.9,145.3,90.2,145.3L90.2,145.3z"/>
		<path class="st6" d="M72.3,143.9c0.5,0,0.9-0.1,1.3-0.4c0.4-0.3,0.7-0.6,0.9-1.1c0.2-0.4,0.2-0.9,0.2-1.4
			c-0.1-0.5-0.3-0.9-0.7-1.2c-0.3-0.3-0.8-0.6-1.2-0.7c-1-0.2-1.9,0.2-2.5,1c-0.6,1-0.5,2.2,0.3,3.1
			C71.1,143.6,71.7,143.8,72.3,143.9z"/>
		<path class="st6" d="M58.4,139.5c0.5,0,0.9-0.1,1.3-0.4c0.4-0.3,0.7-0.6,0.9-1.1c0.2-0.4,0.2-0.9,0.2-1.4
			c-0.1-0.5-0.3-0.9-0.7-1.2c-0.7-0.7-1.7-0.9-2.7-0.5c-0.4,0.2-0.8,0.5-1.1,0.9c-0.6,1-0.5,2.2,0.3,3
			C57.1,139.2,57.7,139.5,58.4,139.5L58.4,139.5z"/>
		<path class="st6" d="M45.8,134c0.5,0,0.9-0.1,1.3-0.4c0.4-0.3,0.7-0.6,0.9-1.1c0.2-0.4,0.2-0.9,0.2-1.4c-0.1-0.5-0.3-0.9-0.7-1.2
			c-0.3-0.3-0.8-0.6-1.2-0.7c-0.5-0.1-1,0-1.4,0.1c-0.4,0.2-0.8,0.5-1.1,0.9c-0.6,1-0.5,2.2,0.3,3.1C44.5,133.7,45.1,134,45.8,134
			L45.8,134z"/>
		<path class="st6" d="M106.2,145.3c-0.5,0-0.9-0.1-1.3-0.4c-0.4-0.3-0.7-0.6-0.9-1.1c-0.2-0.4-0.2-0.9-0.2-1.4
			c0.1-0.5,0.3-0.9,0.7-1.2c0.9-0.9,2.5-1,3.4,0c0.1,0.1,0.2,0.2,0.3,0.4c0.3,0.4,0.4,0.9,0.4,1.3
			C108.6,144.2,107.6,145.3,106.2,145.3L106.2,145.3z"/>
		<path class="st6" d="M121.6,143.9c-0.5,0-0.9-0.1-1.3-0.4c-0.4-0.3-0.7-0.6-0.9-1.1c-0.2-0.4-0.2-0.9-0.2-1.4
			c0.1-0.5,0.3-0.9,0.7-1.2c0.3-0.3,0.8-0.6,1.2-0.7c1-0.2,1.9,0.2,2.5,1c0.6,1,0.5,2.2-0.3,3.1
			C122.9,143.6,122.2,143.8,121.6,143.9L121.6,143.9z"/>
		<path class="st6" d="M133.9,139.7c-1,0-1.9-0.6-2.2-1.5c-0.2-0.4-0.2-0.9-0.1-1.4c0.1-0.5,0.3-0.9,0.7-1.2
			c0.3-0.3,0.8-0.6,1.2-0.7c0.5-0.1,1,0,1.4,0.1c0.4,0.2,0.8,0.5,1.1,0.9c0.3,0.4,0.4,0.9,0.4,1.3c0,0.6-0.3,1.3-0.7,1.7
			C135.1,139.4,134.5,139.7,133.9,139.7L133.9,139.7z"/>
		<path class="st6" d="M145.3,134.2c-0.5,0-0.9-0.1-1.3-0.4c-0.4-0.3-0.7-0.6-0.9-1.1c-0.2-0.4-0.2-0.9-0.1-1.4
			c0.2-1,0.9-1.7,1.9-1.9c0.5-0.1,1-0.1,1.4,0.1c0.4,0.2,0.8,0.5,1.1,0.9c0.3,0.4,0.4,0.9,0.4,1.4c0,0.6-0.3,1.3-0.7,1.7
			C146.6,133.9,146,134.2,145.3,134.2L145.3,134.2z"/>
		<path class="st5" d="M130.1,100.3c0,1.9-0.1,3.7-0.3,5.6c-0.6,5.9-1.8,12.5-1.8,12.5s0,0.2-0.1,0.5c-0.1,0.3-0.1,0.5-0.2,0.8
			c-7.6,1.9-18.1,3.1-29.8,3.2c-12.2,0.1-23.2-1.3-30.9-3.4l-0.1-0.6c0,0-1.4-6.7-2-12.7c-0.2-1.9-0.4-3.8-0.4-5.3
			c-0.1-9.6,2.7-20.2,7.3-27.9c1.7-2.9,3.8-5.4,6.3-7.5l37.7-0.3c0.1,0.1,0.1,0.1,0.2,0.2c1.7,1.9,3.3,3.9,4.7,6l0.1,0.1l0.1,0.2
			l0,0C126.8,80.1,129.9,90.1,130.1,100.3z"/>
		<path class="st3" d="M97.4,117.4c-11,0-19.9-9-19.8-19.9c0-11,9-19.9,19.9-19.8c10.9,0,19.8,8.8,19.8,19.8
			C117.4,108.4,108.5,117.4,97.4,117.4z"/>
		<path class="st7" d="M97.3,114.7c9.6-0.1,17.3-8,17.2-17.6c-0.1-9.6-8-17.3-17.6-17.2c-9.6,0.1-17.2,8-17.2,17.5
			C79.8,107.1,87.7,114.8,97.3,114.7z"/>
		<path class="st3" d="M97.1,80.5c9.1-0.3,16.8,6.9,17.1,16c0.3,9.1-6.9,16.8-16,17.1c-0.3,0-0.5,0-0.8,0c-4.6,0,2.7-8.5,2.7-16.8
			S92.6,80.6,97.1,80.5z"/>
		<path class="st8" d="M97.2,51.7c-1.6,0-3.2,0.3-4.7,0.8c-8,2.7-20.5,19.7-20.6,20.6l49.9-0.4c-0.2-1.2-13-17.6-20.8-20.2
			C99.8,52,98.5,51.7,97.2,51.7z"/>
		<path class="st6" d="M113.8,82.8c-0.4,0-0.8-0.1-1.1-0.3c-0.3-0.2-0.6-0.5-0.7-0.9c-0.1-0.4-0.2-0.8-0.1-1.2
			c0.1-0.4,0.3-0.7,0.5-1c0.3-0.3,0.6-0.5,1-0.6c0.4-0.1,0.8,0,1.1,0.1c0.4,0.2,0.7,0.4,0.9,0.7c0.2,0.3,0.3,0.7,0.3,1.1
			c0,0.5-0.2,1.1-0.6,1.4C114.9,82.7,114.4,82.9,113.8,82.8L113.8,82.8z"/>
		<path class="st6" d="M117.5,87.5c-0.8,0-1.6-0.5-1.9-1.2c-0.2-0.4-0.2-0.8-0.1-1.2c0.1-0.4,0.3-0.7,0.6-1c0.3-0.3,0.6-0.5,1-0.6
			c0.4-0.1,0.8,0,1.2,0.1c1,0.4,1.6,1.5,1.2,2.6c-0.1,0.3-0.3,0.5-0.5,0.8C118.5,87.3,118,87.5,117.5,87.5L117.5,87.5z"/>
	</g>
</g>
<circle class="st9" cx="97.3" cy="97.5" r="71.3"/>
<rect x="77.2" y="44.1" transform="matrix(0.7071 -0.7071 0.7071 0.7071 -59.5368 92.3775)" class="st10" width="9.1" height="147.9"/>
<rect x="104.2" y="12.6" transform="matrix(0.7071 -0.7071 0.7071 0.7071 -28.0614 105.4012)" class="st10" width="18.1" height="147.8"/>
<path class="st11" d="M97.3,5.1C43.6,5.1,0,48.6,0,102.4s43.6,97.3,97.3,97.3s97.3-43.6,97.3-97.3C194.9,48.5,151.2,5.1,97.3,5.1z
	 M97.3,173.7c-39.3,0-71.3-31.9-71.3-71.2c0,0,0,0,0-0.1c0-39.3,17.4-77.9,71.3-77.9c57.4,0,71.3,38.4,71.3,77.9
	C168.6,141.7,136.7,173.6,97.3,173.7C97.4,173.7,97.3,173.7,97.3,173.7z"/>
<path class="st12" d="M97.3,0C43.6,0,0,43.6,0,97.3s43.6,97.3,97.3,97.3s97.3-43.6,97.3-97.3c0,0,0,0,0,0C194.9,43.7,151.2,0,97.3,0
	z M97.3,168.6C58,168.6,26,136.7,26,97.3S58,26,97.3,26s71.3,31.9,71.3,71.3l0,0C168.6,136.7,136.7,168.6,97.3,168.6
	C97.4,168.6,97.3,168.6,97.3,168.6L97.3,168.6z"/>
<circle class="st13" cx="181.6" cy="97.5" r="7.7"/>
<circle class="st13" cx="156.9" cy="38" r="7.7"/>
<circle class="st13" cx="97.3" cy="13.5" r="7.7"/>
<circle class="st13" cx="38" cy="38" r="7.7"/>
<circle class="st13" cx="13.2" cy="97.5" r="7.7"/>
<circle class="st13" cx="38" cy="157.1" r="7.7"/>
<circle class="st13" cx="97.3" cy="181.6" r="7.7"/>
<circle class="st13" cx="156.9" cy="157.1" r="7.7"/>
</svg>
