<?xml version="1.0" encoding="UTF-8" standalone="no"?>
<svg
   id="Layer_1"
   data-name="Layer 1"
   viewBox="0 0 194.63 199.71"
   version="1.1"
   sodipodi:docname="Window.svg"
   inkscape:version="1.1.2 (b8e25be833, 2022-02-05)"
   xmlns:inkscape="http://www.inkscape.org/namespaces/inkscape"
   xmlns:sodipodi="http://sodipodi.sourceforge.net/DTD/sodipodi-0.dtd"
   xmlns="http://www.w3.org/2000/svg"
   xmlns:svg="http://www.w3.org/2000/svg">
  <sodipodi:namedview
     id="namedview978"
     pagecolor="#ffffff"
     bordercolor="#666666"
     borderopacity="1.0"
     inkscape:pageshadow="2"
     inkscape:pageopacity="0.0"
     inkscape:pagecheckerboard="0"
     showgrid="false"
     inkscape:zoom="3.6252565"
     inkscape:cx="97.234499"
     inkscape:cy="99.717082"
     inkscape:window-width="1920"
     inkscape:window-height="1001"
     inkscape:window-x="-9"
     inkscape:window-y="-9"
     inkscape:window-maximized="1"
     inkscape:current-layer="Layer_1" />
  <defs
     id="defs907">
    <style
       id="style902">.cls-1{fill:none;}.cls-2{clip-path:url(#clip-path);}.cls-3{fill:#434070;}.cls-4{fill:#333;}.cls-5{fill:#d2324b;}.cls-6{fill:#74ff33;}.cls-7{fill:#85d1ff;}.cls-8{fill:#9e0e38;}.cls-9{fill:#0398f4;}.cls-10,.cls-11,.cls-9{isolation:isolate;}.cls-10,.cls-9{opacity:0.3;}.cls-10{fill:#fff;}.cls-11,.cls-12{fill:#5e6163;}.cls-11{opacity:0.5;}.cls-13{fill:#c0ced8;}</style>
    <clipPath
       id="clip-path"
       transform="translate(-2.68 -0.15)">
      <rect
         class="cls-1"
         x="37.15"
         y="27.95"
         width="125.93"
         height="130.78"
         id="rect904" />
    </clipPath>
  </defs>
  <g
     class="cls-2"
     clip-path="url(#clip-path)"
     id="g949">
    <path
       class="cls-3"
       d="M162.85,116.76c0,11.74-25.33,32.67-60.07,32.7s-65.7-11.25-65.73-32.57C37,105.16,162.83,105,162.85,116.76Z"
       transform="translate(-2.68 -0.15)"
       id="path909" />
    <path
       class="cls-4"
       d="M85.32,39.59V64.16H82.41Z"
       transform="translate(-2.68 -0.15)"
       id="path911" />
    <path
       class="cls-5"
       d="M85.12,44.1a4.08,4.08,0,0,1-2.27-.68,4.13,4.13,0,0,1-1.78-4.19,4,4,0,0,1,1.1-2.11A4.09,4.09,0,0,1,84.25,36a4,4,0,0,1,2.38.21A4.11,4.11,0,0,1,88,42.87a4,4,0,0,1-2.9,1.23Z"
       transform="translate(-2.68 -0.15)"
       id="path913" />
    <path
       class="cls-6"
       d="M100.09,133.48c34.74,0,62.89-8.2,62.87-18.24s-28.18-18.13-62.91-18.09-62.89,8.2-62.89,18.24S65.37,133.51,100.09,133.48Z"
       transform="translate(-2.68 -0.15)"
       id="path915" />
    <path
       class="cls-3"
       d="M161.59,115.45c0,4.08-6.83,9.14-18,11.92s-26.41,4.54-43.35,4.7c-17.74.16-33.74-1.84-45-4.95-10.28-2.84-16.62-7.9-16.65-11.8,0-3.49,5.48-8.29,13.93-10.63a112.73,112.73,0,0,1,13.74-2.78c1.47-.23,3-.42,4.58-.62a269,269,0,0,1,29.58-1.79c1.15,0,2.28,0,3.41,0a228.17,228.17,0,0,1,23.52,1.25l1.34.14c1.6.18,3.17.39,4.71.6a120.07,120.07,0,0,1,13.66,2.7C156.38,106.69,161.55,111.78,161.59,115.45Z"
       transform="translate(-2.68 -0.15)"
       id="path917" />
    <path
       class="cls-6"
       d="M92.92,145.47a2.42,2.42,0,0,0,1.34-.4,2.38,2.38,0,0,0,.89-1.09,2.56,2.56,0,0,0,.14-1.4,2.42,2.42,0,0,0-.66-1.25,2.5,2.5,0,0,0-1.24-.66,2.43,2.43,0,0,0-1.41.13,2.36,2.36,0,0,0-1.08.89,2.32,2.32,0,0,0-.41,1.34,2.46,2.46,0,0,0,2.43,2.44Z"
       transform="translate(-2.68 -0.15)"
       id="path919" />
    <path
       class="cls-6"
       d="M75,144a2.38,2.38,0,0,0,1.34-.41,2.23,2.23,0,0,0,.89-1.08,2.61,2.61,0,0,0,.15-1.41,2.46,2.46,0,0,0-.66-1.24,2.42,2.42,0,0,0-1.25-.66,2.38,2.38,0,0,0-2.49,1,2.44,2.44,0,0,0,.31,3.06A2.37,2.37,0,0,0,75,144Z"
       transform="translate(-2.68 -0.15)"
       id="path921" />
    <path
       class="cls-6"
       d="M61.07,139.65a2.4,2.4,0,0,0,1.34-.4,2.32,2.32,0,0,0,.89-1.09,2.56,2.56,0,0,0,.15-1.4,2.51,2.51,0,0,0-.67-1.25,2.46,2.46,0,0,0-2.65-.53,2.47,2.47,0,0,0-1.08.89,2.43,2.43,0,0,0,.31,3,2.35,2.35,0,0,0,1.71.73Z"
       transform="translate(-2.68 -0.15)"
       id="path923" />
    <path
       class="cls-6"
       d="M48.46,134.16a2.38,2.38,0,0,0,1.34-.41,2.23,2.23,0,0,0,.89-1.08,2.61,2.61,0,0,0,.15-1.41,2.46,2.46,0,0,0-.66-1.24,2.51,2.51,0,0,0-1.25-.67,2.62,2.62,0,0,0-1.41.13,2.54,2.54,0,0,0-1.08.89,2.44,2.44,0,0,0,.31,3.06,2.37,2.37,0,0,0,1.71.73Z"
       transform="translate(-2.68 -0.15)"
       id="path925" />
    <path
       class="cls-6"
       d="M108.92,145.47a2.4,2.4,0,0,1-1.34-.4,2.32,2.32,0,0,1-.89-1.09,2.56,2.56,0,0,1-.15-1.4,2.51,2.51,0,0,1,.67-1.25,2.42,2.42,0,0,1,3.73.36,2.31,2.31,0,0,1,.4,1.34,2.46,2.46,0,0,1-2.42,2.44Z"
       transform="translate(-2.68 -0.15)"
       id="path927" />
    <path
       class="cls-6"
       d="M124.28,144a2.38,2.38,0,0,1-1.34-.41,2.23,2.23,0,0,1-.89-1.08,2.61,2.61,0,0,1-.15-1.41,2.46,2.46,0,0,1,.66-1.24,2.42,2.42,0,0,1,1.25-.66,2.38,2.38,0,0,1,2.49,1,2.44,2.44,0,0,1-.31,3.06,2.37,2.37,0,0,1-1.71.73Z"
       transform="translate(-2.68 -0.15)"
       id="path929" />
    <path
       class="cls-6"
       d="M136.56,139.81a2.4,2.4,0,0,1-2.23-1.48,2.61,2.61,0,0,1-.14-1.41,2.35,2.35,0,0,1,.66-1.24,2.48,2.48,0,0,1,1.24-.67,2.52,2.52,0,0,1,1.41.13,2.41,2.41,0,0,1,1.08.89,2.35,2.35,0,0,1,.41,1.34,2.45,2.45,0,0,1-.71,1.72,2.42,2.42,0,0,1-1.72.72Z"
       transform="translate(-2.68 -0.15)"
       id="path931" />
    <path
       class="cls-6"
       d="M148,134.32a2.41,2.41,0,0,1-1.34-.41,2.29,2.29,0,0,1-.89-1.08,2.61,2.61,0,0,1-.15-1.41,2.43,2.43,0,0,1,1.91-1.9,2.44,2.44,0,0,1,1.41.13,2.34,2.34,0,0,1,1.08.88,2.45,2.45,0,0,1,.4,1.35,2.39,2.39,0,0,1-.71,1.71,2.35,2.35,0,0,1-1.71.73Z"
       transform="translate(-2.68 -0.15)"
       id="path933" />
    <path
       class="cls-5"
       d="M132.81,100.45a52.24,52.24,0,0,1-.31,5.56c-.58,5.95-1.79,12.47-1.79,12.47s0,.19-.1.5-.11.5-.19.82c-7.61,1.89-18.14,3.1-29.76,3.2-12.17.1-23.15-1.28-30.88-3.43l-.14-.59s-1.36-6.7-2-12.71c-.21-1.92-.36-3.77-.37-5.3-.08-9.62,2.65-20.16,7.3-27.87a29.11,29.11,0,0,1,6.32-7.53l37.72-.33a1.51,1.51,0,0,1,.17.2,48.81,48.81,0,0,1,4.74,6l.1.14.13.2a0,0,0,0,0,0,0A53.36,53.36,0,0,1,132.81,100.45Z"
       transform="translate(-2.68 -0.15)"
       id="path935" />
    <path
       class="cls-3"
       d="M100.13,117.55a19.88,19.88,0,1,1,19.93-20A20,20,0,0,1,100.13,117.55Z"
       transform="translate(-2.68 -0.15)"
       id="path937" />
    <path
       class="cls-7"
       d="M100,114.84a17.38,17.38,0,1,0-17.6-17.23A17.42,17.42,0,0,0,100,114.84Z"
       transform="translate(-2.68 -0.15)"
       id="path939" />
    <path
       class="cls-3"
       d="M99.82,80.68a16.55,16.55,0,1,1,.29,33.09c-4.59,0,2.72-8.47,2.65-16.75S95.23,80.71,99.82,80.68Z"
       transform="translate(-2.68 -0.15)"
       id="path941" />
    <path
       class="cls-8"
       d="M99.93,51.84a15.48,15.48,0,0,0-4.72.8c-8,2.71-20.54,19.67-20.64,20.57l49.87-.42c-.2-1.21-13-17.57-20.77-20.22A10.66,10.66,0,0,0,99.93,51.84Z"
       transform="translate(-2.68 -0.15)"
       id="path943" />
    <path
       class="cls-6"
       d="M116.53,83a1.84,1.84,0,0,1-1.08-.34,2,2,0,0,1-.73-.91,2.14,2.14,0,0,1-.11-1.18,2,2,0,0,1,.52-1,1.86,1.86,0,0,1,1-.56,1.83,1.83,0,0,1,1.13.11,2.06,2.06,0,0,1,.89.74,2.17,2.17,0,0,1,.34,1.14,2.07,2.07,0,0,1-.57,1.45,1.92,1.92,0,0,1-1.39.6Z"
       transform="translate(-2.68 -0.15)"
       id="path945" />
    <path
       class="cls-6"
       d="M120.15,87.63a2.07,2.07,0,0,1-1.89-1.24,2.16,2.16,0,0,1-.13-1.18,1.92,1.92,0,0,1,.55-1,2.06,2.06,0,0,1,1-.57,2,2,0,0,1,1.18.11,2,2,0,0,1,.69,3.32,2,2,0,0,1-1.44.61Z"
       transform="translate(-2.68 -0.15)"
       id="path947" />
  </g>
  <circle
     class="cls-9"
     cx="97.32"
     cy="97.54"
     r="71.28"
     id="circle951" />
  <rect
     class="cls-10"
     x="79.9"
     y="44.28"
     width="9.05"
     height="147.85"
     transform="translate(-61.54 94.17) rotate(-45)"
     id="rect953" />
  <rect
     class="cls-10"
     x="106.84"
     y="12.79"
     width="18.09"
     height="147.85"
     transform="translate(-30.06 107.2) rotate(-45)"
     id="rect955" />
  <path
     class="cls-11"
     d="M100,5.22a97.32,97.32,0,1,0,97.32,97.32C197.54,48.69,153.84,5.22,100,5.22Zm0,168.59a71.24,71.24,0,0,1-71.28-71.27c0-39.28,17.44-77.9,71.28-77.9,57.37,0,71.28,38.4,71.28,77.9A71.24,71.24,0,0,1,100,173.81Z"
     transform="translate(-2.68 -0.15)"
     id="path957" />
  <path
     class="cls-12"
     d="M100,.15a97.32,97.32,0,1,0,97.32,97.31C197.54,43.84,153.84.15,100,.15Zm0,168.59a71.28,71.28,0,1,1,71.28-71.28A71.25,71.25,0,0,1,100,168.74Z"
     transform="translate(-2.68 -0.15)"
     id="path959" />
  <circle
     class="cls-13"
     cx="181.61"
     cy="97.54"
     r="7.72"
     id="circle961" />
  <circle
     class="cls-13"
     cx="156.9"
     cy="37.96"
     r="7.72"
     id="circle963" />
  <circle
     class="cls-13"
     cx="97.32"
     cy="13.46"
     r="7.72"
     id="circle965" />
  <circle
     class="cls-13"
     cx="37.96"
     cy="37.96"
     r="7.72"
     id="circle967" />
  <circle
     class="cls-13"
     cx="13.24"
     cy="97.54"
     r="7.72"
     id="circle969" />
  <circle
     class="cls-13"
     cx="37.96"
     cy="157.12"
     r="7.72"
     id="circle971" />
  <circle
     class="cls-13"
     cx="97.32"
     cy="181.61"
     r="7.72"
     id="circle973" />
  <circle
     class="cls-13"
     cx="156.9"
     cy="157.12"
     r="7.72"
     id="circle975" />
</svg>
