<svg xmlns="http://www.w3.org/2000/svg" xmlns:xlink="http://www.w3.org/1999/xlink" viewBox="0 0 1920.52 1080"><defs><style>.cls-1{fill:url(#linear-gradient);}.cls-2{fill:none;}.cls-3{fill:#09122d;}.cls-4{fill:#121935;}.cls-5{fill:#050c1e;}</style><linearGradient id="linear-gradient" x1="1920.26" y1="515.39" x2="1920.26" y2="445.49" gradientUnits="userSpaceOnUse"><stop offset="0" stop-color="#002f7f"/><stop offset="0.02" stop-color="#002c77"/><stop offset="0.09" stop-color="#001e59"/><stop offset="0.18" stop-color="#001341"/><stop offset="0.27" stop-color="#000b2e"/><stop offset="0.39" stop-color="#000520"/><stop offset="0.53" stop-color="#000118"/><stop offset="0.79" stop-color="#000016"/></linearGradient></defs><g id="bg"><path class="cls-1" d="M1920.52,502l-.52-.13v-65.7l.39-.19Z" transform="translate(0)"/><line class="cls-2" x1="1920" y1="654.17" x2="1920" y2="522.41"/></g><g id="waves"><rect class="cls-2" width="1920" height="1080"/><ellipse class="cls-3" cx="1875" cy="923.97" rx="23.62" ry="10.11" transform="translate(-209.5 768.44) rotate(-21.97)"/><path class="cls-3" d="M1857.73,1018.32c1.1,2.71-3.15,7-9.47,9.53s-12.34,2.42-13.43-.29-2-9.74,4.34-12.29S1856.64,1015.62,1857.73,1018.32Z" transform="translate(0)"/><path class="cls-3" d="M1637.26,910.22c2.09,5.19-3.43,5.36-15.53,10.24s-23.6,4.63-25.69-.55-3.8-18.62,8.3-23.5S1635.17,905,1637.26,910.22Z" transform="translate(0)"/><path class="cls-3" d="M1886.15,1034.41c3.42-4.42,6.35.27,16.66,8.26s15.89,18,12.47,22.46-14.17,12.66-24.48,4.67S1882.72,1038.82,1886.15,1034.41Z" transform="translate(0)"/><path class="cls-3" d="M1799.85,1010.58c1.53,3.8-2.52,3.93-11.4,7.52s-17.32,3.4-18.86-.41-2.79-13.67,6.09-17.25S1798.31,1006.78,1799.85,1010.58Z" transform="translate(0)"/><ellipse class="cls-3" cx="1715.48" cy="1029.81" rx="23.62" ry="10.11" transform="translate(-260.67 716.46) rotate(-21.97)"/><ellipse class="cls-3" cx="1845.53" cy="976.17" rx="23.62" ry="10.11" transform="translate(-231.17 761.21) rotate(-21.97)"/><path class="cls-4" d="M1920,753.81v13.91c-.08.28-.15.56-.24.84-1.48,4.83-4.69,8.92-7.86,12.85C1881.12,819.55,1847,855.64,1806.38,883c-90.19,60.7-195.85,97.92-298,132.82-67.61,23.09-138.18,41.25-209.88,43.74-116.13,4-429.46-7.65-390.82-193.09,24.45-117.36,130-200.17,234.67-244,93.68-39.19,197.52-65.22,273.38-136.69,21.63-20.38,38-48.17,38.16-77.89.49-100.42-143.49-80.46-205.53-67.08-174.24,37.59-342,102.28-517.06,140.36-148,32.21-291.85,58.61-443.31,35.19-48.84-7.55-98-20.19-139.11-47.68C79.76,422.49,59,346.87,86.7,269.93,122.17,171.29,229.26,55.12,289.75,0h52.66c-50,56.69-118.84,180.56-63.15,253.19,59.19,77.17,198.43,55.07,281.32,47.82,232-20.29,460.93-73.82,678.34-157.24,89.88-34.49,178.72-74.33,273.51-91.13,119.63-21.2,335.51,6.35,344.68,164.09,3,51.5-18.33,102-49.17,143.4-84.09,112.71-221,171.7-350.29,216.41-43.17,14.93-88.93,32.29-134.16,38.84-44.24,6.42-84.28,27.54-124.55,47.44-61.06,30.16-123.33,94.71-126.83,166.3a128.49,128.49,0,0,0,95.22,130.67c32.33,8.6,66.35,8,99.75,5.92,109.9-6.68,224.15-24.06,329.44-62.52q9.49-3.45,18.9-7.16h0c48.71-19.18,95.27-43.1,138.36-72.82,57.77-39.85,104.4-94.73,164.35-131.22a149.5,149.5,0,0,0,.4,54.18C1919,748.69,1919.58,751.25,1920,753.81Z" transform="translate(0)"/><path class="cls-4" d="M1317.68,0C1258.8,46.82,1192,87.78,1122.76,117.19a1233.78,1233.78,0,0,1-396.22,95.13c-10.75.75-25.54-2.15-25.54-12.92,0-3.25,1.56-6.28,3.31-9,11-17.23,29.89-27.89,42.64-43.87,2.62-3.28,5-7,5.2-11.23.4-11.08-13.72-16-24.78-16.81-68-5-134.84,16.7-202.74,22.3-15,1.24-34.7-1.58-37.93-16.32-2.38-10.88,6.41-20.78,14.86-28C549.85,54.92,609.68,29.53,669.31,7.2Q679,3.55,688.8,0h54.33q-5,1.73-9.94,3.48c-24.73,8.76-49.87,18.68-68.92,36.72-3.31,3.14-6.56,8.19-3.83,11.84,1.48,2,4.14,2.54,6.57,3,40,7,80.9,12.33,121.06,6.45,31.9-4.67,62.3-16.26,92.61-27.27C914.08,22.05,947.83,10.52,981.89,0Z" transform="translate(0)"/><path class="cls-5" d="M1920,522.41V501.82l.52.13-.13-66-.39.19a1958.1,1958.1,0,0,0-173.83,96c-17.4,10.8-34.79,22-49.23,36.52-10.65,10.7-19.51,23-28.85,34.86-31.71,40.26-75,78.12-126.25,77.88-15.29-.07-30.34-3.6-45.56-5.15-59.89-6.13-122.12,20.8-158.65,68.66-11.77,15.41-20.71,38-8.59,53.18s36.08,11.37,54.91,6l69.43-19.79c5.48-1.57,11.41-3.12,16.76-1.16,12.17,4.47,11.64,22.22,5.92,33.86s-14.58,23.58-11.48,36.17c4.05,16.42,24.87,21.24,41.79,21.64,88.53,2.07,184.6-39.24,218.67-121,8.63-20.7,13.6-44.09,29.68-59.73,23.48-22.85,60.55-20.49,93.22-23A247,247,0,0,0,1920,654.17Z" transform="translate(0)"/><path class="cls-4" d="M0,769.23l55.94,10.68c22.87,4.37,46.51,9.05,65.54,22.46,25.73,18.12,38.89,49.32,46.2,79.93,3.06,12.82,5.47,26.19,12.63,37.26,12.2,18.86,56.58,33.39,77.55,39.51,31.81,9.3,65.42,11.42,98.4,11.78,21.65.24,45.88-1.1,60.71-16.87,15.17-16.12,14.62-41.41,9.53-63s-13.84-42.92-11.82-65c4-43.37,46.34-71.44,84.54-92.37s81.11-47.16,87.71-90.22c1.13-7.34,1-15.16-2.35-21.79-3.19-6.3-9-10.88-14.86-14.76-39.56-26-90.08-28.69-137.18-23.77s-93.66,16.55-141,16c-48.36-.59-95.6-13.9-143.67-19.24C105,575.13,49.14,575.45,0,589.11Z" transform="translate(0)"/><path class="cls-3" d="M0,646.89a399.4,399.4,0,0,1,90.9-14.95c53.23-2.73,106.8-2,159.64,5.42,20,2.82,40.1,6.65,58.68,14.61,18,7.72,34.47,19.24,53.31,24.65,12.37,3.55,25.55,4.39,37.34,9.53s22.42,16.51,21,29.29c-1.17,10.2-9.59,18.1-18.51,23.17-36.19,20.57-81.95,8.4-122.51,17.75-9.7,2.24-19.42,5.91-26.54,12.87s-11.13,17.77-7.9,27.19c3.82,11.14,16.76,19,16,30.77-.84,12.56-17.22,18.12-29.43,15.06-30-7.54-42.7-41.94-60.8-67.08C130.13,718.23,63.53,713.9,0,728.65Z" transform="translate(0)"/><ellipse class="cls-3" cx="436.45" cy="648.57" rx="20.33" ry="68.65" transform="translate(-249.9 1022.82) rotate(-84.66)"/><ellipse class="cls-3" cx="616.9" cy="721.62" rx="48.54" ry="20.79" transform="translate(-75.21 71.79) rotate(-6.28)"/><ellipse class="cls-5" cx="400.37" cy="62.66" rx="48.54" ry="20.79" transform="translate(-4.45 44.16) rotate(-6.28)"/><ellipse class="cls-5" cx="1358.89" cy="393.4" rx="48.54" ry="20.79" transform="translate(-34.87 150.96) rotate(-6.28)"/><ellipse class="cls-5" cx="1421.62" cy="753.83" rx="48.54" ry="20.79" transform="translate(-73.91 159.98) rotate(-6.28)"/><ellipse class="cls-3" cx="746.17" cy="858.53" rx="48.54" ry="20.79" transform="translate(-89.41 86.75) rotate(-6.28)"/><ellipse class="cls-3" cx="481.74" cy="900.5" rx="16.96" ry="14.59" transform="translate(-95.59 58.08) rotate(-6.28)"/><ellipse class="cls-5" cx="1208.73" cy="423.04" rx="16.96" ry="14.59" transform="matrix(0.99, -0.11, 0.11, 0.99, -39.01, 134.72)"/><ellipse class="cls-5" cx="472.94" cy="89.5" rx="16.96" ry="14.59" transform="translate(-6.95 52.26) rotate(-6.28)"/><ellipse class="cls-3" cx="683.55" cy="746.5" rx="16.96" ry="14.59" transform="translate(-77.53 79.23) rotate(-6.28)"/><ellipse class="cls-5" cx="1413.59" cy="416.8" rx="16.96" ry="14.59" transform="translate(-37.1 157.09) rotate(-6.28)"/><path class="cls-3" d="M1920,501.82v20.59c-13.33,10-31.35,10.14-47.67,13.67-16.55,3.58-34.74,14.65-34.59,31.59,0,5,1.74,9.81,2.25,14.77,1.42,14.13-7.49,28-19.81,35.08s-27.36,8.09-41.36,5.7c-5.7-1-12.28-3.41-13.62-9-1.28-5.41,3.28-10.58,8.27-13s10.71-3.34,15.44-6.28c11.34-7.07-11-24.12.82-33.86C1801.65,551.06,1893,495.72,1920,501.82Z" transform="translate(0)"/><path class="cls-3" d="M654,777.68A538.59,538.59,0,0,0,601.07,797c-3.78,1.61-7.81,3.5-9.8,7.09-3.26,5.86.8,13.65,6.79,16.65s13.1,2.44,19.73,1.45a185.11,185.11,0,0,0,61.49-20.67c4.3-2.36,8.68-5,11.23-9.24s2.6-10.3-1.14-13.47c-2.8-2.38-6.81-2.53-10.47-2.36a101.79,101.79,0,0,0-23.19,3.76Z" transform="translate(0)"/><path class="cls-3" d="M94.77,922.18A537.47,537.47,0,0,0,41.83,941.5C38,943.11,34,945,32,948.59c-3.26,5.86.8,13.65,6.79,16.65s13.1,2.44,19.73,1.45A185.11,185.11,0,0,0,120,946c4.3-2.36,8.68-5,11.23-9.24s2.6-10.3-1.14-13.47c-2.8-2.37-6.81-2.53-10.47-2.36a101.79,101.79,0,0,0-23.19,3.76Z" transform="translate(0)"/></g></svg>