<svg xmlns="http://www.w3.org/2000/svg" xmlns:xlink="http://www.w3.org/1999/xlink" viewBox="0 0 120.13 56.83"><defs><style>.cls-1{fill:url(#linear-gradient);}.cls-2{fill:#f2bc4d;}.cls-3{fill:#fbe664;}</style><linearGradient id="linear-gradient" x1="-334.78" y1="489.83" x2="-232.76" y2="385.09" gradientTransform="matrix(0.93, 0.37, -0.37, 0.93, 493.3, -277.45)" gradientUnits="userSpaceOnUse"><stop offset="0" stop-color="#fef6f5"/><stop offset="0.22" stop-color="#fae1b3"/><stop offset="0.34" stop-color="#f8d792"/><stop offset="0.37" stop-color="#f8cc85"/><stop offset="0.45" stop-color="#f9b76c"/><stop offset="0.54" stop-color="#f9a659"/><stop offset="0.64" stop-color="#fa9a4b"/><stop offset="0.77" stop-color="#fa9343"/><stop offset="1" stop-color="#fa9141"/></linearGradient></defs><g id="Layer_2" data-name="Layer 2"><g id="fire_comets" data-name="fire comets"><path class="cls-1" d="M52.86,15.27C39.6,19.1,26.38,23.3,14,29.35c-4,2-8.07,4.21-10.88,7.7S-1,45.57.94,49.59A12,12,0,0,0,7,55c5.42,2.43,11.66,2,17.52,1A131,131,0,0,0,80,33.41c5.69-4.06,11-8.57,16.38-13.07l23.75-20c-2.22-.88-4.68.21-6.8,1.28L89.61,13.47A44.4,44.4,0,0,1,99.94,6c1.16-.61,4.65-2.21,2.29-3.13-1.4-.54-5.65,1.22-7.16,1.56Q87.93,6,80.84,7.77,66.77,11.27,52.86,15.27Z"/><path class="cls-2" d="M9.43,37.09c-1.06,2.71-.68,5.74-.24,8.62.35,2.3.83,4.78,2.56,6.34a7.5,7.5,0,0,0,4,1.68c4.57.66,9.11-1.06,13.33-2.92,3-1.32,6-2.78,8.29-5.12s3.69-5.78,2.83-8.93c-.91-3.31-4-5.49-6.84-7.39A18.24,18.24,0,0,0,27,26.23c-3.75-.73-5.59,1.75-8.48,3.38C15,31.61,11.06,32.93,9.43,37.09Z"/><path class="cls-3" d="M25.11,30.64a6.5,6.5,0,0,0-4,1.37c.84,1.25,2.78,1,4.09.24a1.72,1.72,0,0,0,1-1c.1-.47-.41-1-.83-.79"/><path class="cls-3" d="M19.49,35.63a6.16,6.16,0,0,0-5.72,2.25,5.4,5.4,0,0,0,5,1.1,3.09,3.09,0,0,0,2-1.52,1.73,1.73,0,0,0-.64-2.25"/><path class="cls-3" d="M32.73,35.67a12.65,12.65,0,0,0-4.31,1.42,2.44,2.44,0,0,0-.87.68c-.64.89.06,2.23,1.07,2.63a5.16,5.16,0,0,0,3.22-.12A7.13,7.13,0,0,0,34.79,39,2.71,2.71,0,0,0,35.71,36a2,2,0,0,0-3.76.11"/><path class="cls-3" d="M25.31,43.59a4.68,4.68,0,0,0-4-.11,2,2,0,0,0-1.21,1.26,1.67,1.67,0,0,0,.88,1.7,4.84,4.84,0,0,0,2,.52,4.33,4.33,0,0,0,3-.38C26.72,46,26.93,44.5,26,44c-.46-.23-1.23-.35-1.14-.86"/><path class="cls-3" d="M15.09,43.83a1.58,1.58,0,0,0-2.45-.16A1.86,1.86,0,0,0,13,46.23a2.27,2.27,0,0,0,2.68-.08,1.45,1.45,0,0,0,.6-1.57c-.19-.49-.73-.76-1-1.23"/><path class="cls-3" d="M32.94,43.67l-2.66.9c-.43.14-.94.41-.89.86s.76.6,1.27.54a3.29,3.29,0,0,0,1.68-.58,1.26,1.26,0,0,0,.37-1.6"/></g></g></svg>