<?xml version="1.0" encoding="utf-8"?>
<!-- Generator: Adobe Illustrator 26.0.3, SVG Export Plug-In . SVG Version: 6.00 Build 0)  -->
<svg version="1.1" id="Layer_1" xmlns="http://www.w3.org/2000/svg" xmlns:xlink="http://www.w3.org/1999/xlink" x="0px" y="0px"
	 viewBox="0 0 362.8 642.1" style="enable-background:new 0 0 362.8 642.1;" xml:space="preserve">
<style type="text/css">
	.st0{opacity:0.15;fill:#6B6B6B;enable-background:new    ;}
	.st1{fill:#DD5E7C;}
	.st2{fill:#5E6163;}
	.st3{fill:#C0CED8;}
	.st4{fill:#C45872;}
	.st5{fill:#EF7592;}
	.st6{fill:none;}
</style>
<path class="st0" d="M0.1,289.1l-0.1,27v-24.8C0,290.6,0,289.8,0.1,289.1z"/>
<path class="st1" d="M348.1,291.4v190.2c0,16.5-13.4,29.9-29.9,29.9h-72c-4.9,0-9.5,1.9-12.9,5.4c-3.4,3.4-5.4,8.1-5.4,12.9v95
	L129.2,611l-1.5-99.5v-63c0-11.9,9.7-21.6,21.6-21.6H232c8.9,0,16.2-7.3,16.2-16.2l0.5-31c0.1-8.1-6.3-14.7-14.4-14.8
	c-0.1,0-0.1,0-0.2,0H42.9C30.3,364.8,20.1,354.6,20,342V160.4c0-16.5,13.4-29.9,29.9-29.9h62c4.9,0,9.5-1.9,12.9-5.4
	c3.4-3.4,5.4-8.1,5.4-12.9v-95H229l1.5,113.3v71c0,11.9-9.7,21.6-21.6,21.6h-72.7c-8.9,0-16.2,7.3-16.2,16.2l-0.4,15.6
	c-0.1,7.4,5.8,13.6,13.2,13.7c0.1,0,0.1,0,0.2,0h192.2c12.5-0.1,22.8,9.9,22.9,22.5C348.1,291.2,348.1,291.3,348.1,291.4z"/>
<path class="st2" d="M108.7,18.7V9.4c0-5.2,4.6-9.4,10.3-9.4h122.1c5.7,0,10.3,4.2,10.3,9.4v9.2c0,5.2-4.6,9.4-10.3,9.4H119
	C113.3,28.1,108.7,23.9,108.7,18.7z"/>
<circle class="st3" cx="136.3" cy="14" r="3.2"/>
<circle class="st3" cx="180" cy="14" r="3.2"/>
<circle class="st3" cx="220.7" cy="14" r="3.2"/>
<path class="st4" d="M120.6,258.4H20.3v-17h100.3V258.4z"/>
<path class="st5" d="M5.3,240.4L5.3,240.4c0-5.2,4.3-9.5,9.5-9.5h112.5c5.2,0,9.5,4.3,9.5,9.5l0,0c0,5.2-4.3,9.5-9.5,9.5H14.8
	C9.6,249.9,5.3,245.6,5.3,240.4z"/>
<rect x="125" y="552.4" class="st4" width="100.2" height="17"/>
<path class="st2" d="M248.5,621.3v10.3c0,5.8-4.7,10.5-10.5,10.5H113.9c-5.8,0-10.5-4.7-10.5-10.5v-10.3c0-5.8,4.7-10.5,10.5-10.5
	h124.2C243.8,610.8,248.5,615.5,248.5,621.3C248.5,621.2,248.5,621.3,248.5,621.3z"/>
<circle class="st3" cx="224.5" cy="626.4" r="3.5"/>
<circle class="st3" cx="176" cy="626.4" r="3.5"/>
<circle class="st3" cx="130.8" cy="626.4" r="3.5"/>
<path class="st5" d="M235.6,551L235.6,551c0,5.2-4.3,9.5-9.5,9.5l0,0H125.8c-5.2,0-9.5-4.3-9.5-9.5l0,0l0,0c0-5.2,4.3-9.5,9.5-9.5
	h100.3c5.2,0,9.5,4.2,9.5,9.4C235.6,550.9,235.6,551,235.6,551z"/>
<path class="st4" d="M246.9,417.3c0.6-2.4,0.6-10.9,0.6-10.9h100.3v17H243.5C243.5,423.4,246.4,419.2,246.9,417.3z"/>
<path class="st5" d="M362.8,401.6L362.8,401.6c0,5.2-4.3,9.5-9.5,9.5H240.8c-5.2,0-9.5-4.3-9.5-9.5l0,0c0-5.2,4.3-9.5,9.5-9.5l0,0
	h112.5c5.2-0.1,9.4,4.1,9.5,9.2C362.8,401.4,362.8,401.5,362.8,401.6z"/>
<ellipse transform="matrix(0.2275 -0.9738 0.9738 0.2275 -17.2085 354.2743)" class="st1" cx="214.7" cy="188" rx="51" ry="53.5"/>
<polygon class="st4" points="130.4,77.3 229.6,77.3 233.7,88.5 125.9,88.5 "/>
<path class="st5" d="M117.5,90L117.5,90c0-4.6,4.4-8.3,9.8-8.3h103c5.4,0,9.8,3.8,9.8,8.3l0,0c0,4.6-4.4,8.3-9.8,8.3h-103
	C121.8,98.3,117.5,94.6,117.5,90z"/>
<rect x="0" y="0" class="st6" width="362.8" height="642.1"/>
</svg>
