<?xml version="1.0" encoding="UTF-8" standalone="no"?><!--Generator: Adobe Illustrator 26.0.3, SVG Export Plug-In . SVG Version: 6.00 Build 0)--><svg version="1.1" x="0px" y="0px" viewBox="0 0 2000 2000" xml:space="preserve" id="svg1937" sodipodi:docname="earth.svg" inkscape:label="boom" inkscape:version="1.1.2 (b8e25be833, 2022-02-05)" width="2000" height="2000" xmlns:inkscape="http://www.inkscape.org/namespaces/inkscape" xmlns:sodipodi="http://sodipodi.sourceforge.net/DTD/sodipodi-0.dtd" xmlns="http://www.w3.org/2000/svg" xmlns:svg="http://www.w3.org/2000/svg"><defs id="defs1941"/><sodipodi:namedview id="namedview1939" pagecolor="#ffffff" bordercolor="#666666" borderopacity="1.0" inkscape:pageshadow="2" inkscape:pageopacity="0.0" inkscape:pagecheckerboard="false" showgrid="false" inkscape:zoom="0.3865" inkscape:cx="1000" inkscape:cy="1000" inkscape:window-width="1920" inkscape:window-height="1001" inkscape:window-x="-9" inkscape:window-y="-9" inkscape:window-maximized="1" inkscape:current-layer="svg1937" inkscape:showpageshadow="false"/><style type="text/css" id="style1385">.st0{fill:#A3D8E8;}
	.st1{fill:#8FCAD8;}
	.st2{fill:#68C382;}
	.st3{fill:#9AC97F;}
	.st4{display:none;}
	.st5{fill:#C75720;}
	.st6{fill:#5A1E21;}
	.st7{fill:#A03D17;}
	.st8{fill:#F4957F;}
	.st9{fill:#FDAF16;}
	.st10{fill:#B23909;}
	.st11{fill:#684218;}
	.st12{fill:#51A567;}
	.st13{fill:#8EAD42;}
	.st14{fill:#EDC35A;}
	.st15{fill:#00803A;}
	.st16{fill:#FCBE32;}
	.st17{fill:#B27006;}
	.st18{fill:#F77D69;}
	.st19{fill:#004DBC;}
	.st20{fill:#66CCFF;}
	.st21{fill:#45AA62;}</style><g id="g2386"><ellipse style="display:inline;fill:none;stroke:#ff0000;stroke-width:0.780504;stroke-linecap:round;stroke-linejoin:round;stroke-opacity:1" id="path2266-9" cx="-1002.0311" cy="1004.6183" transform="rotate(-90)" rx="999.60968" ry="999.60974"/><circle style="display:inline;fill:none;stroke:#ff0000;stroke-width:0.622485;stroke-linecap:round;stroke-linejoin:round;stroke-opacity:1" id="path2266" cx="-1000" cy="1000" r="797.23077" transform="rotate(-90)"/></g><g id="bg" transform="translate(908.5007,78.453536)"><path class="st0" d="M 0.00977352,60.400121 C 0.00977352,60.400121 13.1,21.7 47.2,34.8 c 0,0 16.2,-41 52.6,-13.1 0,0 10,-30.2 35.6,-19.3 25.6,10.9 20.1,30.2 20.1,30.2 0,0 34,-13.9 45.6,27.8 C 145.70626,52.37498 79.582702,51.749838 0.00977352,60.400121 Z" id="path1768-9" sodipodi:nodetypes="cccsccc"/></g><g id="bg-8" transform="rotate(26.160578,120.40506,2853.3555)" inkscape:transform-center-x="-330.65651" inkscape:transform-center-y="-672.89848"><path class="st0" d="M 0.00977352,60.400121 C 0.00977352,60.400121 13.1,21.7 47.2,34.8 c 0,0 16.2,-41 52.6,-13.1 0,0 10,-30.2 35.6,-19.3 25.6,10.9 20.1,30.2 20.1,30.2 0,0 34,-13.9 45.6,27.8 C 145.70626,52.37498 79.582702,51.749838 0.00977352,60.400121 Z" id="path1768-9-6" sodipodi:nodetypes="cccsccc"/></g><g id="bg-8-1" transform="rotate(-108.83942,632.41864,563.06495)" inkscape:transform-center-x="721.3176" inkscape:transform-center-y="237.61524"><path class="st0" d="M 0.00977352,60.400121 C 0.00977352,60.400121 13.1,21.7 47.2,34.8 c 0,0 16.2,-41 52.6,-13.1 0,0 10,-30.2 35.6,-19.3 25.6,10.9 20.1,30.2 20.1,30.2 0,0 34,-13.9 45.6,27.8 C 145.70626,52.37498 79.582702,51.749838 0.00977352,60.400121 Z" id="path1768-9-6-5" sodipodi:nodetypes="cccsccc"/></g><path style="fill:none;stroke:#ff0000;stroke-width:1px;stroke-linecap:butt;stroke-linejoin:miter;stroke-opacity:1" d="M 1000.5,6 V 2062" id="path1163" clip-path="none" sodipodi:insensitive="true"/></svg>