<?xml version="1.0" encoding="utf-8"?><!--Generator: Adobe Illustrator 26.0.3, SVG Export Plug-In . SVG Version: 6.00 Build 0)--><svg version="1.1" id="Layer_1" xmlns="http://www.w3.org/2000/svg" xmlns:xlink="http://www.w3.org/1999/xlink" x="0px" y="0px" viewBox="0 0 400 400" style="enable-background:new 0 0 400 400" xml:space="preserve"><style type="text/css">.st0{display:none;fill:none;stroke:#EE5B95;stroke-width:3;stroke-miterlimit:10;}
	.st1{display:none;fill:#EDD55D;}
	.st2{fill:none;stroke:#0099FF;stroke-width:3;stroke-miterlimit:10;}
	.st3{fill:#FF9933;}</style><path class="st0" d="M42.27,82.49L10.09,251.27c-1.87,9.83,1.64,19.91,9.21,26.44l129.2,111.51c8.11,7,19.35,9.14,29.47,5.62
	l161.17-56.14c9.45-3.29,16.42-11.37,18.29-21.2l32.18-168.78c1.87-9.83-1.64-19.91-9.21-26.44L250.33,10.02
	c-7.57-6.54-18.06-8.54-27.5-5.24L60.57,61.29C51.12,64.59,44.15,72.67,42.27,82.49z"/><path class="st1" d="M381.38,59.45C258.05,56.97,152.2,50.29,21.95,42.24c-10.9-0.67-21.72,16.1-16.52,25.7
	c49.08,90.62,115.73,219.42,164.81,319.88c4.79,9.81,24.62,10.64,30.52,1.46c64.66-100.6,132.62-208.96,194.62-302.67
	C401.4,77.5,392.3,59.66,381.38,59.45z"/><path class="st2" d="M373.8,117.72C255.92,86.49,155.82,55.24,32.63,17.02C22.27,13.8,7.95,27.39,10.69,37.82
	c25.92,98.54,59.77,237.86,83.4,345.85c2.3,10.54,21.16,15.99,28.97,8.55c85.66-81.49,176.32-169.69,257.82-245.14
	C388.8,139.75,384.24,120.48,373.8,117.72z"/><g><path class="st3" d="M377.98,299.47c28.75-44.13,18.12-98.92,4.07-133.03c-17.06-41.39-49.5-81.88-95.47-109.26
		c-33.7-20.07-94.94-56.6-148.27-29C14.21,92.43-33.12,242.09,35.2,277.39c35.59,18.39,99.95-56.43,104.16,28.85
		C143.25,385.19,319.19,389.71,377.98,299.47z"/></g></svg>