<?xml version="1.0" encoding="utf-8"?><!--Generator: Adobe Illustrator 26.0.3, SVG Export Plug-In . SVG Version: 6.00 Build 0)--><svg version="1.1" id="Layer_1" xmlns="http://www.w3.org/2000/svg" xmlns:xlink="http://www.w3.org/1999/xlink" x="0px" y="0px" viewBox="0 0 380.53 393.3" style="enable-background:new 0 0 380.53 393.3" xml:space="preserve"><style type="text/css">.st0{fill:#ED5B94;}
	.st1{fill:#6714AF;}</style><g><g><path class="st0" d="M116,39.8c16.98-11.81,31.04-16.45,40.66-13.41c5.75,1.81,10.04,6.51,12.77,13.96
			c22.25,60.73,103.94,66.41,152.74,69.81c10.11,0.71,18.84,1.31,25.02,2.29c14.38,2.29,23.57,11.03,27.31,25.99
			c6.29,25.21-3.48,66.99-26.14,111.79c-10.94,21.63-24.44,42.96-39.03,61.68c-15.6,20.01-31.82,36.44-48.22,48.83
			c-0.48,0.37-0.95,0.7-1.43,1.04c-12.92,8.99-26.44,7.88-42.53-3.5c-14.98-10.59-30.2-28.51-46.31-47.47
			c-15.99-18.82-32.51-38.29-50.27-52.24c-20.52-16.14-39.64-22.27-58.44-18.74c-30.27,5.69-48.9,0.72-55.4-14.78
			c-4.06-9.68-3.46-23.26,1.75-40.34c4.79-15.69,13.53-34.01,25.25-52.98C56.67,94.71,88.94,58.63,116,39.8 M114.44,37.55
			C38.14,90.63-67.2,266.96,62.68,242.54c81-15.22,137.71,163.86,198.59,121.51c0.5-0.35,1.01-0.71,1.51-1.09
			c87.57-66.15,160.3-241.19,84.85-253.19c-35.76-5.69-149.35,1.36-175.62-70.34C163.3,15.65,140.57,19.37,114.44,37.55
			L114.44,37.55z"/></g></g><path class="st1" d="M55.52,96.3L28,240.6c-1.6,8.4,1.4,17.03,7.87,22.61l110.47,95.34c6.94,5.99,16.56,7.82,25.22,4.8l137.81-47.99
	c8.08-2.81,14.04-9.72,15.64-18.13l27.51-144.31c1.6-8.4-1.4-17.03-7.87-22.61l-111.24-96c-6.47-5.59-15.44-7.29-23.51-4.48
	L71.16,78.17C63.08,80.98,57.12,87.89,55.52,96.3z"/></svg>