<?xml version="1.0" encoding="utf-8"?><!--Generator: Adobe Illustrator 26.0.2, SVG Export Plug-In . SVG Version: 6.00 Build 0)--><svg version="1.1" id="Layer_1" xmlns="http://www.w3.org/2000/svg" xmlns:xlink="http://www.w3.org/1999/xlink" x="0px" y="0px" viewBox="0 0 189.4 293" style="enable-background:new 0 0 189.4 293" xml:space="preserve"><style type="text/css">.st0{fill:#3A3A3A;}
	.st1{fill:#5EBAE1;}
	.st2{fill:#E5BA03;}
	.st3{clip-path:url(#SVGID_00000004540729369837604410000016033120664209123207_);}
	.st4{fill:#FFDA03;}
	.st5{fill:#C7C3B8;}</style><g id="Layer_2_00000038396030495940077610000000218094548928864422_"><g id="submarine"><g id="Fan"><path class="st0" d="M61.8,268c-7.6-2.4-20.8-6.8-25.2-4.3s-3.5,11,0.2,12.4c5.5,2.1,20.7-3.1,25-4.4L61.8,268z"/><path class="st0" d="M68.3,270.9c7.6,2.4,20.8,6.8,25.2,4.3s3.5-11-0.2-12.4c-5.6-2.1-20.7,3.1-25.1,4.4L68.3,270.9z"/><path class="st0" d="M65.3,275.5c-2.4,0-4.3-1.9-4.3-4.2c0,0,0,0,0,0l-0.3-20.4c0-2.4,1.9-4.3,4.2-4.3c0,0,0,0,0,0l0,0
				c2.4,0,4.3,1.9,4.3,4.2l0.3,20.4C69.5,273.5,67.7,275.4,65.3,275.5C65.3,275.5,65.3,275.5,65.3,275.5L65.3,275.5z"/><path class="st0" d="M78.6,239.1c0,0,1.5,14.6-2.4,16.1s-19.7,2.5-23.9-0.8c-3.7-2.9-1.3-16.3-1.3-16.3L78.6,239.1z"/><path class="st1" d="M73,263.3c0.1,3.6,0.6,11-1.2,13s-11.5,2.2-13.9-0.8c-1.6-2-1.3-8.8-1-11.9c0-1,0.8-1.7,1.8-1.7c0,0,0,0,0,0
				l12.7-0.2c0.8-0.1,1.5,0.5,1.5,1.3C73,263.1,73,263.2,73,263.3z"/></g><rect x="158.1" y="133.7" class="st2" width="20.6" height="4.9"/><circle class="st0" cx="181.5" cy="136.1" r="5.2"/><path class="st2" d="M182.1,107.3h-7.6c-2.1,0-3.8,1.7-3.8,3.8l0,0v2.7c0,1-0.8,1.9-1.9,1.9h-10.7v9.9h21.6c3.4,0,6.1-2.7,6.1-6.1
			v-8.4C185.9,109,184.2,107.3,182.1,107.3C182.1,107.3,182.1,107.3,182.1,107.3z"/><path class="st0" d="M189.4,106.9v1c0,1.6-1.3,3-3,3H171c-1.6,0-3-1.3-3-3v-1c0-1.6,1.3-3,3-3h15.4
			C188,104,189.4,105.3,189.4,106.9z"/><g><defs><path id="SVGID_1_" d="M66.6,241.6C38.4,241.6,0,205.5,0,126.3c0-61.3,25.6-111,69.9-111c40.2,0,66.7,49.7,66.7,111
					S95,241.6,66.6,241.6z"/></defs><clipPath id="SVGID_00000072248076002810660570000007874498984604716727_"><use xlink:href="#SVGID_1_" style="overflow:visible"/></clipPath><g style="clip-path:url(#SVGID_00000072248076002810660570000007874498984604716727_)"><path class="st4" d="M66.6,241.6C38.4,241.6,0,205.5,0,126.3c0-61.3,25.6-111,69.9-111c40.2,0,66.7,49.7,66.7,111
					S95,241.6,66.6,241.6z"/><path class="st2" d="M124.7,35.6c0,0-50.8,23.8-109.4,0l38-50.8L124.7,35.6z"/></g></g><circle class="st0" cx="68.3" cy="96.4" r="28"/><circle class="st1" cx="68.3" cy="96.4" r="16.2"/><circle class="st5" cx="90.3" cy="96.4" r="1.8"/><circle class="st5" cx="68.3" cy="74.6" r="1.8"/><circle class="st5" cx="68.3" cy="118.3" r="1.8"/><circle class="st5" cx="46.3" cy="96.4" r="1.8"/><circle class="st0" cx="68.3" cy="162.4" r="28"/><circle class="st1" cx="68.3" cy="162.4" r="16.2"/><circle class="st5" cx="90.3" cy="162.4" r="1.8"/><circle class="st5" cx="68.3" cy="140.6" r="1.8"/><circle class="st5" cx="68.3" cy="184.3" r="1.8"/><circle class="st5" cx="46.3" cy="162.4" r="1.8"/><path class="st4" d="M126.6,83.2c0,0,31.1,9.9,33.1,18.5c1.4,6.2,0.8,36.4,0.3,52.4c-0.2,5.6-4.8,10.1-10.4,10.1h-26.2L126.6,83.2
			z"/><circle class="st1" cx="142" cy="104" r="6.1"/><circle class="st1" cx="142" cy="125.6" r="6.1"/><circle class="st1" cx="142" cy="148.6" r="6.1"/><path class="st4" d="M100.6,220.5c5.7,3.6,16.1,9.5,23.5,13.8c4.6,2.7,5.3,6,4.8,8.5l-4.1,20.9c-1.3,6.6-4.7,5-9.2,3.8
			c-3.4-0.9-6.7-2.1-9.8-3.5c-3.3-1.7-4.8-4.3-3.8-9.4l2.2-11.4c0.9-4.4-1.7-5-4.6-7c-3.4-2.3-7.8-4-10-5.1
			C93.9,227.3,100.6,220.5,100.6,220.5z"/><path class="st2" d="M119.1,236.7c4.6,2.7,5.3,6.1,4.8,8.5l-4.1,20.9c-0.1,0.8-0.4,1.5-0.6,2.2c2.7,0.5,4.6-0.1,5.5-4.7l4.1-20.9
			c0.5-2.4-0.2-5.8-4.8-8.5c-7.4-4.3-17.8-10.1-23.5-13.8c0,0-1.4,1.5-3.4,3.4C103,227.5,112.4,232.8,119.1,236.7z"/><path class="st4" d="M28.4,220.5c-5.7,3.6-16.1,9.5-23.5,13.8c-4.6,2.7-5.3,6-4.8,8.5l4.1,20.9c1.3,6.6,4.7,5,9.2,3.8
			c3.4-0.9,6.7-2.1,9.8-3.5c3.3-1.7,4.8-4.3,3.8-9.4l-2.2-11.4c-0.9-4.4,1.6-5,4.6-7c3.4-2.3,7.8-4,10-5.1
			C35.1,227.3,28.4,220.5,28.4,220.5z"/><path class="st2" d="M9.9,236.7c-4.6,2.7-5.3,6.1-4.8,8.5l4.1,20.9c0.1,0.8,0.4,1.5,0.6,2.2c-2.7,0.5-4.6-0.1-5.5-4.7l-4.1-20.9
			c-0.5-2.4,0.2-5.8,4.8-8.5c7.4-4.3,17.8-10.1,23.5-13.8c0,0,1.4,1.5,3.4,3.4C26,227.5,16.6,232.8,9.9,236.7z"/><g id="_1"><path class="st0" d="M112.7,41.6c1.9-1.4-1.6-8.9-4-7.6C96.8,42.4,67.5,53.8,26,39.3c-3.6-1.3-7.5,5.9-4.8,7.1
				C64,61.2,95.8,51.6,112.7,41.6z"/><path class="st5" d="M105.4,42.3c-0.9,0-1.7-0.7-1.7-1.6c0-0.9,0.7-1.7,1.6-1.7c0.9,0,1.7,0.7,1.7,1.6c0,0,0,0,0,0
				C107,41.5,106.3,42.3,105.4,42.3z"/><path class="st5" d="M90.2,48.4c-0.9-0.1-1.6-0.9-1.5-1.8c0.1-0.8,0.7-1.5,1.5-1.5c0.9-0.1,1.7,0.6,1.8,1.5s-0.6,1.7-1.5,1.8
				C90.4,48.4,90.3,48.4,90.2,48.4z"/><path class="st5" d="M70.2,51.9c-0.9,0-1.6-0.7-1.7-1.6c-0.1-0.9,0.6-1.7,1.5-1.8c0.9-0.1,1.7,0.6,1.8,1.5c0,0.1,0,0.2,0,0.3
				C71.8,51.1,71.1,51.8,70.2,51.9z"/><path class="st5" d="M50.3,51c-0.9,0-1.7-0.7-1.7-1.6c0-0.9,0.7-1.7,1.6-1.7c0.9,0,1.7,0.7,1.7,1.6C51.9,50.2,51.2,51,50.3,51
				C50.3,51,50.3,51,50.3,51z"/><path class="st5" d="M32.2,46.7c-0.9,0-1.7-0.7-1.7-1.6c0-0.9,0.7-1.7,1.6-1.7s1.7,0.7,1.7,1.6c0,0,0,0,0,0
				C33.8,46,33.1,46.7,32.2,46.7C32.2,46.7,32.2,46.7,32.2,46.7z"/></g></g></g></svg>