<?xml version="1.0" encoding="utf-8"?>
<!-- Generator: Adobe Illustrator 26.0.3, SVG Export Plug-In . SVG Version: 6.00 Build 0)  -->
<svg version="1.1" id="Layer_1" xmlns="http://www.w3.org/2000/svg" xmlns:xlink="http://www.w3.org/1999/xlink" x="0px" y="0px"
	 viewBox="0 0 512 512" style="enable-background:new 0 0 512 512;" xml:space="preserve">
<style type="text/css">
	.st0{fill:#333333;}
	.st1{fill:#FFFFFF;}
	.st2{fill:#FFC200;}
	.st3{fill:#00ADE8;}
</style>
<g id="Layer_2_00000141424615305377119090000008616480092682617004_">
	<g id="Layer_1-2">
		<g id="Layer_2-2">
			<g id="Monogram_dark_bg">
				<path class="st0" d="M466.8,226.5c-0.2-11.9-1.5-23.8-3.8-35.6c-2.7-14.3-7.6-28.2-14.4-41.1c-8-15.2-19.3-28.4-33.1-38.6
					c-16.8-12.4-37.5-18.9-59.8-18.7c-1.9-7.7-4.4-15.3-7.5-22.6c-4.9-11.9-12.2-22.7-21.3-31.8c-14.3-14.1-33.7-21.8-53.8-21.5
					h-2.5c-24.3,1.3-46.5,14-59.9,34.3c-5.3,8-9.5,16.6-12.7,25.7c-0.4-0.1-0.9-0.3-1.3-0.4c-18.7-4.8-38.5-1.3-54.5,9.6
					c-39.8,26.5-69.7,98.8-91.6,249.4c-0.3,1.8-0.6,3.8-0.9,6c-4.9,31-19.8,110.8,52.2,138c15.9,6,54.5,16.2,94.9,16.2
					c26.3,0,53.4-4.3,75.5-17c23.8-13.6,39.4-35.6,44-62c0.8-4.4,1.1-8.9,0.9-13.4c7.5,1.4,15.1,2.1,22.7,2
					c19.5-0.4,37.2-5.1,53-14.4c13.3-7.9,25.1-18.3,34.5-30.7c8.4-11,15.3-23,20.6-35.8c4.7-11.3,8.5-22.9,11.3-34.8
					c2.6-10.8,4.5-21.8,5.8-32.9C466.3,246.5,466.8,236.5,466.8,226.5L466.8,226.5z"/>
				<path class="st1" d="M196.8,502.3c-42.1,0-82.1-10.9-97.3-16.7c-75.3-28.5-62-111.6-57-142.9l0.5-3.4c0.3-1.9,0.6-3.7,0.8-5.2
					C65.1,187.8,94.2,109.4,138.4,80c16.2-11,36.1-15.2,55.4-11.6c3-7.5,6.8-14.6,11.4-21.3c14.6-22.1,38.8-35.9,65.2-37.3l2.6-0.1
					c21.9-0.3,43,8.2,58.7,23.5c9.8,9.7,17.5,21.2,22.8,34c2.6,6,4.7,12.3,6.5,18.6c21.1,0.6,41.5,7.5,58.6,19.9
					c14.7,10.8,26.7,24.8,35.1,40.9c7.1,13.5,12.2,28,15.1,43c2.4,12.1,3.7,24.4,3.9,36.8v0.1c0.1,10.2-0.5,20.5-1.7,30.7
					c-1.3,11.4-3.3,22.6-5.9,33.7c-2.9,12.2-6.8,24.2-11.7,35.9c-5.5,13.4-12.7,26-21.5,37.5c-10,13-22.3,24-36.5,32.4
					c-16.6,9.8-35.6,15-56.4,15.4c-5.4,0-10.7-0.2-16.1-0.9c-0.2,2.2-0.4,4.4-0.8,6.5c-4.9,28.4-21.7,52.2-47.4,66.8
					C255,496.3,228.4,502.3,196.8,502.3z M180.2,81c-12.2,0.1-24,3.7-34.1,10.6C106,118.2,77.9,195.9,57.5,336.1
					c-0.2,1.6-0.5,3.4-0.8,5.4l-0.5,3.4c-5.3,33.5-16.4,103.3,48.3,127.7c14.4,5.5,52.4,15.8,92.4,15.8c29.2,0,53.4-5.4,72-16
					c22-12.6,36.4-32.9,40.6-57.1c0.7-3.9,0.9-8,0.8-12l-0.3-8.7l8.6,1.6c7,1.3,14.2,1.9,21.3,1.9c18.6-0.4,34.9-4.7,49.6-13.5
					c12.6-7.5,23.6-17.3,32.5-29c8-10.5,14.7-22,19.7-34.2c4.6-10.9,8.2-22.2,11-33.7c2.5-10.6,4.4-21.3,5.6-32.1
					c1.1-9.7,1.7-19.4,1.6-29.1l6.9-0.1l-6.9,0.1c-0.2-11.6-1.4-23.1-3.7-34.4c-2.6-13.7-7.2-26.9-13.7-39.1
					c-7.5-14.3-18.1-26.7-31.1-36.2c-15.6-11.5-34.7-17.4-55.6-17.3h-5.5l-1.3-5.3c-1.8-7.4-4.2-14.6-7.1-21.6
					c-4.6-11-11.3-21-19.8-29.4c-13-12.8-30.6-19.8-48.9-19.5H271c-22.1,1.2-42.3,12.8-54.5,31.3c-5,7.5-9,15.5-11.9,24l-2.2,6.1
					l-7.4-2.1C190.2,81.6,185.2,81,180.2,81z"/>
			</g>
		</g>
	</g>
	<g id="Layer_2-3">
		<path class="st2" d="M271.4,416.5c-5.3,43.2-118.3,27.5-150.4,13.6c-36.4-15.7-23-64.5-19.2-87.9c9-54.8,51.6-224.4,90.8-217.8
			c34.2,5.8-40.1,221.8-42.4,259C173.4,383.4,274.8,388.8,271.4,416.5z"/>
	</g>
	<g id="Layer_3">
		<path class="st3" d="M408,227c0.1,7.6-0.2,15.2-1.1,22.7c-0.9,8.7-2.3,17.3-4.3,25.9c-2,8.8-4.7,17.4-8.1,25.8
			c-3.2,8.1-7.5,15.7-12.7,22.6c-4.8,6.5-10.8,11.9-17.6,16.1c-7.2,4.2-15.3,6.4-23.6,6.4c-9,0.3-18-1.8-25.9-6
			c-7.9-4.3-14.9-10.3-20.3-17.6c-0.5,6.2-3,12.1-7.2,16.7c-4.2,4.7-10.2,7.4-16.5,7.4c-3.9,0.1-7.3-1.8-10-5.7
			c-3.1-4.6-5.3-9.6-6.7-14.9c-1.9-6.6-3.2-13.3-4.1-20.2c-1-7.4-1.7-14.5-2-21.4c-0.4-6.9-0.6-13.1-0.7-18.7l-0.3-11.8
			c-0.2-7.8-0.3-15.7-0.3-23.5c-0.1-7.8-0.1-15.8,0-23.9c-0.1-3.9-0.3-9.8-0.6-17.6s-0.4-16.5-0.4-26.1c0-9.6,0.3-19.4,0.9-29.4
			c0.5-9.3,1.7-18.5,3.7-27.6c1.5-7.3,4.2-14.3,8.2-20.6c3.6-5.4,8.2-8.3,14-8.6c4.4-0.2,8.7,1.5,11.9,4.6c3.6,3.6,6.5,7.9,8.4,12.6
			c2.5,5.7,4.3,11.6,5.6,17.7c1.4,6.5,2.5,13,3.2,19.6c0.7,6.5,1.2,12.8,1.4,18.7c0.3,5.9,0.4,10.7,0.5,14.3c0,0.7,0,2.3-0.1,4.7
			s0,5,0,7.8l0.2,7.4l0.1,3.7c2.2-4.8,5.1-9.2,8.7-13c3.9-4.3,8.2-8.1,13-11.4c4.7-3.3,9.8-6.1,15-8.3c4.8-2.1,9.9-3.3,15.1-3.5
			c9.7-0.2,17.9,2.1,24.5,6.9c6.7,4.9,12.3,11.2,16.2,18.5c4.1,7.7,7.1,16,8.8,24.5C406.7,210.2,407.7,218.5,408,227z M357.4,238.5
			c-0.1-3-0.3-6-0.7-9c-0.4-3.1-1.3-6.1-2.6-9c-1.3-2.6-3.1-5-5.3-6.8c-2.5-1.9-5.5-2.8-8.6-2.6c-3.8,0.1-7.5,1-10.9,2.7
			c-3.6,1.7-7,3.9-10.1,6.5c-3.1,2.6-6.1,5.4-8.8,8.3c-2.5,2.7-4.9,5.6-7.1,8.6l-2.8,30.9c3.6,5.1,8.3,9.3,13.8,12.3
			c5.5,3,11.8,4.5,18.1,4.3c4.7,0.1,9.2-1.8,12.6-5.1c3.4-3.5,6-7.6,7.7-12.1c1.9-4.9,3.1-10,3.8-15.1
			C357.1,247.8,357.4,243.1,357.4,238.5L357.4,238.5z"/>
	</g>
</g>
</svg>
