<?xml version="1.0" encoding="utf-8"?>
<!-- Generator: Adobe Illustrator 26.0.3, SVG Export Plug-In . SVG Version: 6.00 Build 0)  -->
<svg version="1.1" id="Layer_1" xmlns="http://www.w3.org/2000/svg" xmlns:xlink="http://www.w3.org/1999/xlink" x="0px" y="0px"
	 viewBox="0 0 394.1 385" style="enable-background:new 0 0 394.1 385;" xml:space="preserve">
<style type="text/css">
	.st0{fill:none;stroke:#34C6F4;stroke-width:3;stroke-miterlimit:10;}
	.st1{fill:#EE3C96;}
</style>
<path class="st0" d="M348.1,35.2c-106.7,32-199.6,55.4-313.8,84.5c-9.6,2.4-14.3,19.9-7.2,26.7C94.4,210.7,187.3,303,257.3,375.9
	c6.8,7.1,24.1,2.3,26.6-7.2c27.8-104.4,56.3-216.4,83.7-314C370.3,45.1,357.6,32.3,348.1,35.2z"/>
<g>
	<path class="st1" d="M81.3,276.6c80.3-34.6,198.7,70.2,247.9,20.8c70-70.4,89.4-209.1,6.7-194.6c-39.2,6.9-155.5,45.5-206.1,5.4
		C64,56-90.2,350.5,81.3,276.6z"/>
</g>
</svg>
