<?xml version="1.0" encoding="utf-8"?>
<!-- Generator: Adobe Illustrator 26.0.3, SVG Export Plug-In . SVG Version: 6.00 Build 0)  -->
<svg version="1.1" id="Layer_1" xmlns="http://www.w3.org/2000/svg" xmlns:xlink="http://www.w3.org/1999/xlink" x="0px" y="0px"
	 viewBox="0 0 394.12 384.99" style="enable-background:new 0 0 394.12 384.99;" xml:space="preserve">
<style type="text/css">
	.st0{fill:none;stroke:#34C6F4;stroke-width:3;stroke-miterlimit:10;}
	.st1{fill:#EE3C96;}
</style>
<path class="st0" d="M360.25,48.43c-111.38-2.21-206.98-8.28-324.58-15.54C25.78,32.27,16.01,47.43,20.7,56.1
	c44.33,81.85,104.52,198.17,148.86,288.91c4.33,8.86,22.24,9.61,27.56,1.32c58.39-90.86,119.77-188.76,175.78-273.36
	C378.34,64.73,370.12,48.62,360.25,48.43z"/>
<g>
	<path class="st1" d="M73.31,265.19c83.55-30.94,181.06,153.07,236.85,92.62c79.49-86.13,121.08-285.66,38.56-284.99
		c-39.1,0.32-158.23,28.1-200.69-43.62C92.88-63.98-105.07,331.24,73.31,265.19z"/>
</g>
</svg>
