<svg xmlns="http://www.w3.org/2000/svg" xmlns:xlink="http://www.w3.org/1999/xlink" viewBox="0 0 128.42 36.29"><defs><style>.cls-1,.cls-10,.cls-11,.cls-13,.cls-15,.cls-2,.cls-3,.cls-6,.cls-7,.cls-8,.cls-9{fill-rule:evenodd;}.cls-1{fill:url(#Безымянный_градиент_150);}.cls-2{fill:#ddc2bf;}.cls-3{fill:#bc9f9c;}.cls-4{fill:#eec49d;}.cls-5{fill:#4f415b;}.cls-6{fill:#ffecda;}.cls-12,.cls-7{fill:#fff8f3;}.cls-8{fill:#7ce8a7;}.cls-9{fill:#d1d0cf;opacity:0.32;}.cls-10{fill:#74868b;opacity:0.41;}.cls-11{fill:#a9d8d8;}.cls-13{fill:#2b7746;}.cls-14{fill:#65c1a2;}.cls-15{fill:url(#Безымянный_градиент_150-2);}</style><linearGradient id="Безымянный_градиент_150" x1="-9626.47" y1="1682.14" x2="-9626.47" y2="1675.62" gradientTransform="translate(9784.88 -623.66) rotate(6.11)" gradientUnits="userSpaceOnUse"><stop offset="0" stop-color="#ffecbe"/><stop offset="0.76" stop-color="#ffecd4"/><stop offset="1" stop-color="#fff"/></linearGradient><linearGradient id="Безымянный_градиент_150-2" x1="-535.13" y1="1678.71" x2="-535.13" y2="1672.2" gradientTransform="matrix(-0.99, -0.11, -0.11, 0.99, -260.08, -1699.19)" xlink:href="#Безымянный_градиент_150"/></defs><g id="Layer_2" data-name="Layer 2"><g id="plane"><g id="Aeroplane_1" data-name="Aeroplane 1"><g id="R_Wing" data-name="R Wing"><path class="cls-1" d="M66.57,26.25l-.06,1.28L2.22,14.4H5S43.16,17.92,66.57,26.25Z"/><path class="cls-2" d="M66.51,27.53s-6.52,1.65-26-2A382.76,382.76,0,0,1,0,15.24l2.22-.84S40.64,21.26,66.51,27.53Z"/><path class="cls-3" d="M34,27.25s-4.41,3.36-12.16.28l.68-9.11s6.48-2,11.61,2.49C34.13,20.91,37,23.43,34,27.25Z"/><ellipse class="cls-4" cx="22.33" cy="23.01" rx="4.55" ry="3.2" transform="matrix(0.11, -0.99, 0.99, 0.11, -2.93, 42.76)"/><ellipse class="cls-5" cx="22.95" cy="23.24" rx="3.43" ry="2.11" transform="translate(-2.6 43.59) rotate(-83.89)"/></g><g id="Body"><path class="cls-6" d="M108.41,25.47,110.69,2l-.94-2-.57,0L97.52,18l.83.31A68.68,68.68,0,0,1,108.41,25.47Z"/><path class="cls-7" d="M22.08,21.11S25.57,12,36.74,7.61C47.45,3.39,93.9,16.07,98.35,18.26s12.37,8.91,12.76,9.93-16.81,7.5-32.42,8S39.68,34,35.1,32.8,22.39,25.32,22.08,21.11Z"/><path class="cls-8" d="M102.83,9.77l.89-.11,5.9,3.88-1.21,11.93a79.14,79.14,0,0,0-10-7.28c-.21-.12-.51-.28-.77-.4Z"/><path class="cls-8" d="M51.66,7.33c5.14,2.61,7.28,15.72,7.28,15.72s38-.09,52.17,5.14c0,0-6.36-6.89-13.24-10.29S63.63,8.62,51.66,7.33Z"/></g><g id="Shadow"><path id="Shadow-2" data-name="Shadow" class="cls-9" d="M87.14,14.5a67.36,67.36,0,0,1,10.39,3.42L109.18,0l.57,0,.94,2-2.28,23.44,0,0a14.86,14.86,0,0,1,2.73,2.75c.4,1-16.81,7.5-32.42,8S39.68,34,35.1,32.8C86.5,31.68,71.25,10.36,87.14,14.5Z"/><polygon class="cls-10" points="98.35 18.26 109.75 0.02 109.17 0 97.52 17.95 98.35 18.26"/></g><g id="Window"><g id="front"><path class="cls-11" d="M29.24,12a78.14,78.14,0,0,1,15.4,1.65l-.32-2.74s-7-3.59-11.73-1.25A25.6,25.6,0,0,0,29.24,12Z"/><rect class="cls-12" x="39.99" y="11.36" width="3.14" height="0.14" transform="translate(25.77 51.54) rotate(-83.89)"/><rect class="cls-12" x="32.23" y="10.43" width="4.38" height="0.14" transform="translate(3.07 28.16) rotate(-46.36)"/></g><g id="Side"><path class="cls-13" d="M66.5,13.59c.1.59.37,1.1.61,1.15s.35-.41.25-1-.37-1.1-.61-1.15S66.4,13,66.5,13.59Z"/><path class="cls-13" d="M70.21,14.26c.1.59.37,1.11.61,1.15s.35-.4.25-1-.38-1.11-.61-1.15S70.11,13.67,70.21,14.26Z"/><path class="cls-13" d="M73.92,14.94c.1.59.37,1.1.61,1.15s.35-.41.25-1-.38-1.1-.62-1.15S73.82,14.34,73.92,14.94Z"/><path class="cls-13" d="M77.62,15.61c.1.59.38,1.11.61,1.15s.35-.4.25-1-.37-1.11-.61-1.15S77.52,15,77.62,15.61Z"/><path class="cls-13" d="M81.33,16.29c.1.59.37,1.1.61,1.15s.35-.41.25-1-.37-1.1-.61-1.15S81.23,15.69,81.33,16.29Z"/><path class="cls-13" d="M85,17c.1.59.37,1.11.61,1.15s.35-.4.25-1S85.52,16,85.29,16,84.94,16.37,85,17Z"/><path class="cls-13" d="M88.75,17.64c.1.59.37,1.1.61,1.15s.34-.41.24-1-.37-1.1-.61-1.15S88.65,17,88.75,17.64Z"/><path class="cls-13" d="M92.45,18.31c.1.59.38,1.11.61,1.15s.35-.4.25-1-.37-1.11-.61-1.15S92.35,17.72,92.45,18.31Z"/><path class="cls-13" d="M96.16,19c.1.59.37,1.1.61,1.15s.35-.41.25-1S96.65,18,96.41,18,96.06,18.39,96.16,19Z"/></g><path class="cls-14" d="M60.52,17.06a20.5,20.5,0,0,0-1.68-5.72l0-.07a.5.5,0,0,1,.06-.49.42.42,0,0,1,.39-.17l3.16.46a.39.39,0,0,1,.28.18,15.41,15.41,0,0,1,2,5.88.49.49,0,0,1-.12.41.4.4,0,0,1-.33.14l-3.36-.21h0A.43.43,0,0,1,60.52,17.06ZM59,10.86a.34.34,0,0,0-.05.35l0,.08a20.59,20.59,0,0,1,1.69,5.76.29.29,0,0,0,.24.28h0l3.36.2a.25.25,0,0,0,.21-.08.39.39,0,0,0,.09-.29h0a15.2,15.2,0,0,0-2-5.83.23.23,0,0,0-.18-.12l-3.16-.45h0A.26.26,0,0,0,59,10.86Z"/></g><g id="L_Wing" data-name="L Wing"><path class="cls-15" d="M61,22.21l-.21,1.27,65.61.78-2.72-.58S85.67,19,61,22.21Z"/><path class="cls-2" d="M60.81,23.48s6,3,25.81,3.6a382.8,382.8,0,0,0,41.8-1.53l-2-1.29S87.42,22.83,60.81,23.48Z"/><path class="cls-3" d="M87.47,34.27s-4.94,3.77-13.61.32l.76-10.2s7.25-2.22,13,2.79C87.61,27.18,90.81,30,87.47,34.27Z"/><ellipse class="cls-4" cx="74.35" cy="29.49" rx="5.12" ry="3.64" transform="translate(37.11 100.28) rotate(-83.89)"/><ellipse class="cls-5" cx="75.1" cy="29.79" rx="3.84" ry="2.36" transform="translate(37.49 101.29) rotate(-83.89)"/></g></g></g></g></svg>