<?xml version="1.0" encoding="utf-8"?>
<!-- Generator: Adobe Illustrator 26.0.3, SVG Export Plug-In . SVG Version: 6.00 Build 0)  -->
<svg version="1.1" id="Layer_1" xmlns="http://www.w3.org/2000/svg" xmlns:xlink="http://www.w3.org/1999/xlink" x="0px" y="0px"
	 viewBox="0 0 183.9 101.1" style="enable-background:new 0 0 183.9 101.1;" xml:space="preserve">
<style type="text/css">
	.st0{fill:#383838;}
</style>
<path class="st0" d="M182.1,50.3c0.3,2.1,0.5,4.2-0.9,8.2C177.9,68.7,169,73.4,166,74.8c-12.7,5.8-24.8,0-26.4-0.8
	c0.2-3-14.6,23.3-49,10c-0.4-3-6.9,9.1-29.5,9.1C31,89.7,38.6,76.2,38.8,75.7c-0.6,0.2-16.3,5.2-29.2-3c-10.1-7.8-11-18-3.4-27.7
	c7-7.7,18.2-14.3,34.7-8c0,0,15.1-37.5,49-12c0,0,9.4-27.6,33.1-17.7c23.4,9.8,18.9,27.1,19,27.5c2-0.8,16.1-6.3,28.1,0.6
	C177.6,39.7,181.4,46.7,182.1,50.3z"/>
</svg>
