<?xml version="1.0" encoding="utf-8"?>
<!-- Generator: Adobe Illustrator 26.0.2, SVG Export Plug-In . SVG Version: 6.00 Build 0)  -->
<svg version="1.1" id="Layer_1" xmlns="http://www.w3.org/2000/svg" xmlns:xlink="http://www.w3.org/1999/xlink" x="0px" y="0px"
	 viewBox="0 0 68 74.8" style="enable-background:new 0 0 68 74.8;" xml:space="preserve">
<style type="text/css">
	.st0{fill:#C767DB;}
	.st1{fill:#363753;}
	.st2{clip-path:url(#SVGID_00000018204193326544548400000002652219058570713249_);}
	.st3{fill:#F8FFFF;}
	.st4{clip-path:url(#SVGID_00000160894388560632563900000013601798315417027221_);}
</style>
<path id="wingl" class="st0" d="M46,58c0,0-9.8,16.3-24.3,7.5S2,52.6,0.2,52.1s10.6-2.4,20.6-8.5s28.6-9.8,37.5,1.1
	s8.2,23.7,6.5,30.1c-1.3-2.9-3.7-5.2-6.7-6.5C52.9,66.1,46,62.6,46,58z"/>
<path id="wingr" class="st0" d="M47.2,16.7c0,0-9.8-16.2-24.3-7.4S3.2,22.1,1.4,22.6C-0.4,23.1,12,25,22,31s28.6,9.7,37.5-1.1
	S67.7,6.3,66,0c-1.3,2.8-3.7,5.1-6.7,6.5C54.2,8.6,47.3,12.1,47.2,16.7z"/>
<path class="st1" d="M31.4,39.7c-0.8,0.2-1.8,0.3-2.1-0.4c-0.1-0.2-0.1-0.4-0.1-0.6c0.2-1.6,1.8-2.6,3.3-3.2
	c1.5-0.7,3.1-1.3,4.8-1.6c4.4-0.8,8.9,0.4,12.2,3.3c1.4,1.2,0.9,1.5-0.7,2.4c-2,1-4,1.7-5.9,1.6C39,40.7,35.1,38.8,31.4,39.7z"/>
<circle class="st1" cx="52.2" cy="37.8" r="3.3"/>
<g>
	<ellipse transform="matrix(0.6412 -0.7674 0.7674 0.6412 -9.3466 66.6397)" class="st1" cx="66.6" cy="43.3" rx="1.5" ry="1.4"/>
	<path class="st1" d="M54.3,38.5c4.7-0.4,9.4,0.9,13,3.7l-0.6,0.6c-3.5-2.6-7.9-3.9-12.4-3.5L54.3,38.5z"/>
</g>
<g>
	<ellipse transform="matrix(0.7674 -0.6412 0.6412 0.7674 -5.4307 50.2832)" class="st1" cx="66.6" cy="32.6" rx="1.4" ry="1.5"/>
	<path class="st1" d="M54.3,36.6c4.4,0.4,8.9-0.9,12.4-3.5l0.6,0.6c-3.6,2.8-8.3,4.1-13,3.7L54.3,36.6z"/>
</g>
<g>
	<g>
		<defs>
			<path id="SVGID_1_" d="M54.3,40.6c0,0-1-0.6-0.5-1.3c0.4-0.6,1.5,0,1.5,0C55,39.8,54.7,40.2,54.3,40.6z"/>
		</defs>
		<clipPath id="SVGID_00000164483256622031261280000000106125825679372169_">
			<use xlink:href="#SVGID_1_"  style="overflow:visible;"/>
		</clipPath>
		<g style="clip-path:url(#SVGID_00000164483256622031261280000000106125825679372169_);">
			<path class="st3" d="M54.3,40.6c0,0-1-0.6-0.5-1.3c0.4-0.6,1.5,0,1.5,0C55,39.8,54.7,40.2,54.3,40.6z"/>
			<ellipse transform="matrix(0.5496 -0.8354 0.8354 0.5496 -8.4581 63.4818)" cx="54.6" cy="39.6" rx="0.5" ry="0.5"/>
			<ellipse transform="matrix(0.5496 -0.8354 0.8354 0.5496 -8.2386 63.549)" class="st3" cx="54.8" cy="39.4" rx="0.2" ry="0.2"/>
		</g>
	</g>
</g>
<g>
	<g>
		<defs>
			<path id="SVGID_00000062885324991662133900000007009501098178021804_" d="M55.4,36.5c0,0-1.1,0.6-1.5,0c-0.4-0.7,0.6-1.2,0.6-1.2
				C54.9,35.6,55.2,36.1,55.4,36.5z"/>
		</defs>
		<clipPath id="SVGID_00000147925263154990993110000002829721171931875001_">
			<use xlink:href="#SVGID_00000062885324991662133900000007009501098178021804_"  style="overflow:visible;"/>
		</clipPath>
		<g style="clip-path:url(#SVGID_00000147925263154990993110000002829721171931875001_);">
			<path class="st3" d="M55.4,36.5c0,0-1.1,0.6-1.5,0c-0.4-0.7,0.6-1.2,0.6-1.2C54.9,35.6,55.2,36.1,55.4,36.5z"/>
			<ellipse transform="matrix(0.8547 -0.5191 0.5191 0.8547 -10.8476 33.7212)" cx="54.8" cy="36.2" rx="0.5" ry="0.5"/>
			<ellipse transform="matrix(0.8547 -0.5191 0.5191 0.8547 -10.9149 33.8329)" class="st3" cx="55" cy="36.4" rx="0.2" ry="0.2"/>
		</g>
	</g>
</g>
</svg>
