<?xml version="1.0" encoding="utf-8"?>
<!-- Generator: Adobe Illustrator 26.0.3, SVG Export Plug-In . SVG Version: 6.00 Build 0)  -->
<svg version="1.1" id="Layer_1" xmlns="http://www.w3.org/2000/svg" xmlns:xlink="http://www.w3.org/1999/xlink" x="0px" y="0px"
	 viewBox="0 0 228.2 420.4" style="enable-background:new 0 0 228.2 420.4;" xml:space="preserve">
<style type="text/css">
	.st0{fill:url(#SVGID_1_);}
	.st1{fill:#D2324B;}
	.st2{fill:#434070;}
	.st3{fill:#76C4FF;}
	.st4{fill:#85D1FF;}
	.st5{fill:url(#SVGID_00000018925893160379164900000011179113493123943558_);}
	.st6{fill:url(#SVGID_00000005989573153602222240000011898939664144473009_);}
	.st7{fill:#BC2443;}
</style>
<g id="Layer_2_00000181049559508319937710000002883469093095722119_">
	<g id="spaceship">
		
			<linearGradient id="SVGID_1_" gradientUnits="userSpaceOnUse" x1="71.2" y1="385.45" x2="155.7" y2="385.45" gradientTransform="matrix(1 0 0 1 0 -1.6)">
			<stop  offset="0" style="stop-color:#9E0E38"/>
			<stop  offset="0.5" style="stop-color:#9E0E38"/>
			<stop  offset="1" style="stop-color:#9E0E38"/>
		</linearGradient>
		<path class="st0" d="M155.7,347.3H71.2c20.4,44.8,42.3,73.1,42.3,73.1S135.4,392.1,155.7,347.3z"/>
		<path class="st1" d="M189.4,201.8c0-69-11.1-130.5-28.5-170.6h-95c-17.4,40-28.5,101.6-28.5,170.6c0,55.9,16.3,106.8,33.8,145.5
			h84.6C173.2,308.6,189.6,257.6,189.4,201.8z"/>
		<path class="st2" d="M158.5,284.5c0,24.9-20.1,45-45,45s-45-20.1-45-45s20.1-45,45-45C138.3,239.6,158.4,259.7,158.5,284.5z"/>
		<circle class="st3" cx="113.5" cy="284.5" r="31.4"/>
		<path class="st4" d="M113,290.4c15,0,30.4-13.4,30.4-5.1c0,16.5-13.5,30-30,30s-30-13.4-30-30C83.4,277,98,290.4,113,290.4z"/>
		
			<linearGradient id="SVGID_00000171709051026596171030000007249948970241973668_" gradientUnits="userSpaceOnUse" x1="142.6" y1="991.82" x2="214.8039" y2="991.82" gradientTransform="matrix(1 0 0 -1 13.3 1071.92)">
			<stop  offset="0" style="stop-color:#9E0E38"/>
			<stop  offset="0.5" style="stop-color:#9E0E38"/>
			<stop  offset="1" style="stop-color:#9E0E38"/>
		</linearGradient>
		<path style="fill:url(#SVGID_00000171709051026596171030000007249948970241973668_);" d="M228.1,0.7l-72.2,19.6
			c16.2,31.3,28,80.2,32.1,137.1l0.5,2.1C211.6,110.3,228.4,54.3,228.1,0.7z"/>
		
			<linearGradient id="SVGID_00000047020890339008173770000000318156256372512407_" gradientUnits="userSpaceOnUse" x1="-13.304" y1="992.67" x2="57.9" y2="992.67" gradientTransform="matrix(1 0 0 -1 13.3 1071.92)">
			<stop  offset="0" style="stop-color:#9E0E38"/>
			<stop  offset="0.5" style="stop-color:#9E0E38"/>
			<stop  offset="1" style="stop-color:#9E0E38"/>
		</linearGradient>
		<path style="fill:url(#SVGID_00000047020890339008173770000000318156256372512407_);" d="M71.2,20L0,0.6
			c-0.3,53.1,16.2,108.5,39,157.3C43,100.6,54.9,51.4,71.2,20z"/>
		<path class="st2" d="M66,31.1h95.1c-3.2-7.5-6.9-14.6-11.2-21.5H77.2C72.9,16.5,69.2,23.7,66,31.1z"/>
		<path class="st7" d="M113.1,159.6c-2.9,0-5.2-35.7-5.2-79.8S110.2,0,113.1,0s5.2,35.8,5.2,79.8S116,159.6,113.1,159.6z"/>
	</g>
</g>
</svg>
