<svg xmlns="http://www.w3.org/2000/svg" xmlns:xlink="http://www.w3.org/1999/xlink" viewBox="0 0 435.93 123.18"><defs><style>.cls-1,.cls-10,.cls-11,.cls-12,.cls-14,.cls-16,.cls-2,.cls-3,.cls-6,.cls-7,.cls-8,.cls-9{fill-rule:evenodd;}.cls-1{fill:url(#Безымянный_градиент_150);}.cls-2{fill:#ddc2bf;}.cls-3{fill:#bc9f9c;}.cls-4{fill:#eec49d;}.cls-5{fill:#4f415b;}.cls-6{fill:#ffecda;}.cls-13,.cls-7{fill:#fff8f3;}.cls-8{fill:#9056ba;}.cls-9{fill:#9e62c4;}.cls-10{fill:#d1d0cf;opacity:0.32;}.cls-11{fill:#74868b;opacity:0.41;}.cls-12{fill:#a9d8d8;}.cls-14{fill:#481e66;}.cls-15{fill:#ba7de2;}.cls-16{fill:url(#Безымянный_градиент_150-2);}</style><linearGradient id="Безымянный_градиент_150" x1="-9929.48" y1="1744.75" x2="-9929.48" y2="1722.65" gradientTransform="matrix(-0.99, 0.11, 0.11, 0.99, -9738.41, -596.06)" gradientUnits="userSpaceOnUse"><stop offset="0" stop-color="#ffecbe"/><stop offset="0.76" stop-color="#ffecd4"/><stop offset="1" stop-color="#fff"/></linearGradient><linearGradient id="Безымянный_градиент_150-2" x1="-943.06" y1="1733.14" x2="-943.06" y2="1711.03" gradientTransform="translate(872.44 -1732.17) rotate(-6.11)" xlink:href="#Безымянный_градиент_150"/></defs><g id="Layer_2" data-name="Layer 2"><g id="plane"><g id="Aeroplane_1" data-name="Aeroplane 1"><g id="R_Wing" data-name="R Wing"><path class="cls-1" d="M210,89.11l.2,4.35L428.39,48.89l-9.45,0S289.42,60.82,210,89.11Z"/><path class="cls-2" d="M210.15,93.46s22.13,5.59,88.22-6.61S435.93,51.74,435.93,51.74l-7.54-2.85S298,72.17,210.15,93.46Z"/><path class="cls-3" d="M320.52,92.5s15,11.42,41.26,1l-2.29-30.95s-22-6.72-39.41,8.47C320.08,71,310.38,79.55,320.52,92.5Z"/><ellipse class="cls-4" cx="360.14" cy="78.1" rx="10.85" ry="15.46" transform="translate(-6.27 38.79) rotate(-6.11)"/><ellipse class="cls-5" cx="358.02" cy="78.89" rx="7.16" ry="11.65" transform="translate(-6.36 38.56) rotate(-6.11)"/></g><g id="Body"><path class="cls-6" d="M67.91,86.46,60.18,6.9,63.38.05l1.94,0L104.9,60.92,102.08,62A232.87,232.87,0,0,0,67.91,86.46Z"/><path class="cls-7" d="M361,71.65s-11.84-30.92-49.75-45.83C274.87,11.52,117.16,54.57,102.08,62s-42,30.25-43.34,33.71S115.83,121.15,168.8,123s132.43-7.44,148-11.59S359.93,86,361,71.65Z"/><path class="cls-8" d="M86.86,33.16l-3-.37L63.8,46l4.11,40.49s19.21-16.44,34-24.72c.72-.41,1.75-1,2.62-1.36Z"/><path class="cls-9" d="M260.55,24.88c-17.42,8.87-24.71,53.36-24.71,53.36s-129.08-.3-177.1,17.46c0,0,21.62-23.39,45-34.93S219.92,29.26,260.55,24.88Z"/></g><g id="Shadow"><path id="Shadow-2" data-name="Shadow" class="cls-10" d="M140.13,49.24C118,55,112.34,58,104.84,60.83L65.32,0,63.38.05,60.18,6.9l7.73,79.56.1-.09c-5.17,4.5-8.81,8.11-9.27,9.33C57.41,99.16,115.83,121.15,168.8,123s132.43-7.44,148-11.59C142.28,107.54,194.07,35.18,140.13,49.24Z"/><polygon class="cls-11" points="102.08 61.99 63.38 0.05 65.32 0 104.9 60.92 102.08 61.99"/></g><g id="Window"><g id="front"><path class="cls-12" d="M336.68,40.62s-26.54-.15-52.3,5.6L285.49,37s23.84-12.2,39.81-4.26C329.48,34.76,336.68,40.62,336.68,40.62Z"/><rect class="cls-13" x="294.6" y="33.48" width="0.48" height="10.65" transform="translate(-2.46 31.61) rotate(-6.11)"/><rect class="cls-13" x="318.84" y="28.2" width="0.48" height="14.86" transform="translate(63.56 230.04) rotate(-43.64)"/></g><g id="Side"><path class="cls-14" d="M210.18,46.12c-.34,2-1.27,3.75-2.07,3.9s-1.19-1.36-.85-3.37,1.27-3.76,2.08-3.9S210.52,44.11,210.18,46.12Z"/><path class="cls-14" d="M197.6,48.41c-.34,2-1.27,3.76-2.08,3.9s-1.18-1.36-.84-3.37,1.27-3.75,2.07-3.9S197.94,46.4,197.6,48.41Z"/><path class="cls-14" d="M185,50.7c-.34,2-1.27,3.76-2.07,3.9s-1.19-1.36-.85-3.37,1.27-3.75,2.08-3.9S185.35,48.69,185,50.7Z"/><path class="cls-14" d="M172.43,53c-.34,2-1.27,3.76-2.08,3.91s-1.18-1.37-.84-3.37,1.27-3.76,2.07-3.91S172.77,51,172.43,53Z"/><path class="cls-14" d="M159.84,55.29c-.34,2-1.27,3.75-2.07,3.9s-1.19-1.36-.85-3.37,1.27-3.76,2.08-3.91S160.18,53.28,159.84,55.29Z"/><path class="cls-14" d="M147.26,57.58c-.34,2-1.27,3.75-2.08,3.9s-1.18-1.36-.84-3.37,1.27-3.76,2.07-3.9S147.6,55.57,147.26,57.58Z"/><path class="cls-14" d="M134.67,59.87c-.34,2-1.27,3.76-2.07,3.9s-1.19-1.36-.85-3.37,1.27-3.76,2.08-3.9S135,57.86,134.67,59.87Z"/><path class="cls-14" d="M122.09,62.16c-.34,2-1.27,3.76-2.08,3.9s-1.18-1.36-.84-3.37,1.27-3.75,2.07-3.9S122.43,60.15,122.09,62.16Z"/><path class="cls-14" d="M109.5,64.45c-.34,2-1.27,3.76-2.07,3.91S106.24,67,106.58,65s1.27-3.75,2.08-3.9S109.84,62.44,109.5,64.45Z"/></g><path class="cls-15" d="M229.25,59.31h0L217.8,60a1.4,1.4,0,0,1-1.12-.46,1.72,1.72,0,0,1-.42-1.38c.59-3.88,2.41-13.59,6.82-20a1.38,1.38,0,0,1,.94-.6L234.77,36a1.45,1.45,0,0,1,1.31.55,1.68,1.68,0,0,1,.21,1.67l-.1.25c-1.66,4-5.13,12.23-5.7,19.4A1.47,1.47,0,0,1,229.25,59.31Zm5.63-22.8h0l-10.75,1.55a.92.92,0,0,0-.61.39c-4.35,6.32-6.16,15.94-6.74,19.79h0a1.2,1.2,0,0,0,.3,1,.88.88,0,0,0,.73.3l11.4-.69h0a1,1,0,0,0,.81-1c.57-7.26,4.06-15.57,5.73-19.56l.11-.25a1.2,1.2,0,0,0-.16-1.18A.89.89,0,0,0,234.88,36.51Z"/></g><g id="L_Wing" data-name="L Wing"><path class="cls-16" d="M228.77,75.41l.73,4.3L6.77,82.35l9.24-2S145.11,64.59,228.77,75.41Z"/><path class="cls-2" d="M229.5,79.71s-20.45,10.14-87.62,12.21S0,86.73,0,86.73l6.77-4.38S139.16,77.49,229.5,79.71Z"/><path class="cls-3" d="M139,116.34s16.75,12.78,46.18,1.09l-2.56-34.64S158,75.27,138.52,92.27C138.52,92.27,127.66,101.85,139,116.34Z"/><ellipse class="cls-4" cx="183.54" cy="100.11" rx="12.35" ry="17.39" transform="translate(-9.61 20.11) rotate(-6.11)"/><ellipse class="cls-5" cx="180.98" cy="101.11" rx="8.02" ry="13.04" transform="translate(-9.74 19.84) rotate(-6.11)"/></g></g></g></g></svg>