<svg xmlns="http://www.w3.org/2000/svg" xmlns:xlink="http://www.w3.org/1999/xlink" viewBox="0 0 265.34 96.54"><defs><style>.cls-1{fill:none;}.cls-2{clip-path:url(#clip-path);}.cls-3{fill:#f47ea3;}.cls-4{fill:#ef639f;}.cls-5{fill:#e86997;}.cls-6{fill:#932a55;}.cls-7{clip-path:url(#clip-path-2);}.cls-8{clip-path:url(#clip-path-3);}.cls-9{clip-path:url(#clip-path-4);}.cls-10{clip-path:url(#clip-path-5);}.cls-11{clip-path:url(#clip-path-6);}.cls-12{clip-path:url(#clip-path-7);}.cls-13{clip-path:url(#clip-path-8);}.cls-14{clip-path:url(#clip-path-9);}</style><clipPath id="clip-path" transform="translate(1.36)"><path class="cls-1" d="M114.74,41a9,9,0,0,0,.86,2.75,24.26,24.26,0,0,0,4.52,7.57,24.25,24.25,0,0,0,5.32,3.78c2.79,1.6,5.81,3.19,8.83,3a10.2,10.2,0,0,0,3.78-1,17,17,0,0,0,9.25-10.8,9.4,9.4,0,0,0,.32-4.45c-.47-2.2-2-4.12-3.5-5.92s-2.81-3.39-4.24-5.07a18.2,18.2,0,0,0-5-4.49,10.47,10.47,0,0,0-9.67.23,16.92,16.92,0,0,0-7.13,6.89C117,35.79,114.52,38.26,114.74,41Z"/></clipPath><clipPath id="clip-path-2" transform="translate(1.36)"><path class="cls-1" d="M27.58,13.2a4.82,4.82,0,0,0-.83,1.42,12,12,0,0,0-1.32,4.76A11.86,11.86,0,0,0,26.14,23c.54,1.72,1.19,3.53,2.6,4.65a6.74,6.74,0,0,0,2.14,1.08A11.89,11.89,0,0,0,39.76,28a5.59,5.59,0,0,0,2.11-1.64,7.36,7.36,0,0,0,1-3.71c.13-1.22.25-2.44.35-3.66A9,9,0,0,0,43,15.29a6.36,6.36,0,0,0-4.42-3.69,11.93,11.93,0,0,0-6.22,0C30.88,12,28.7,12,27.58,13.2Z"/></clipPath><clipPath id="clip-path-3" transform="translate(1.36)"><path class="cls-1" d="M88.89,86a2.67,2.67,0,0,0-.51.88,7.61,7.61,0,0,0-.82,2.93A7.61,7.61,0,0,0,88,92a5.63,5.63,0,0,0,1.61,2.87,4.14,4.14,0,0,0,1.31.66,7.33,7.33,0,0,0,5.48-.41,3.49,3.49,0,0,0,1.3-1,4.51,4.51,0,0,0,.64-2.29c.08-.75.15-1.5.22-2.25a5.55,5.55,0,0,0-.16-2.3A3.92,3.92,0,0,0,95.68,85a7.36,7.36,0,0,0-3.84,0C90.93,85.27,89.58,85.28,88.89,86Z"/></clipPath><clipPath id="clip-path-4" transform="translate(1.36)"><path class="cls-1" d="M94.41,59.44a2.67,2.67,0,0,0-.51.88,7.61,7.61,0,0,0-.82,2.93,7.61,7.61,0,0,0,.44,2.21,5.68,5.68,0,0,0,1.6,2.87,4.3,4.3,0,0,0,1.32.66,7.33,7.33,0,0,0,5.48-.41,3.49,3.49,0,0,0,1.3-1,4.61,4.61,0,0,0,.64-2.29q.12-1.12.21-2.25a5.39,5.39,0,0,0-.15-2.3,3.92,3.92,0,0,0-2.72-2.28,7.36,7.36,0,0,0-3.84,0C96.45,58.7,95.1,58.71,94.41,59.44Z"/></clipPath><clipPath id="clip-path-5" transform="translate(1.36)"><path class="cls-1" d="M221.46,86a2.67,2.67,0,0,0-.51.88,7.61,7.61,0,0,0-.82,2.93,7.61,7.61,0,0,0,.44,2.21,5.68,5.68,0,0,0,1.6,2.87,4.3,4.3,0,0,0,1.32.66,7.33,7.33,0,0,0,5.48-.41,3.49,3.49,0,0,0,1.3-1,4.61,4.61,0,0,0,.64-2.29q.12-1.12.21-2.25a5.39,5.39,0,0,0-.15-2.3A3.92,3.92,0,0,0,228.25,85a7.36,7.36,0,0,0-3.84,0C223.5,85.27,222.15,85.28,221.46,86Z"/></clipPath><clipPath id="clip-path-6" transform="translate(1.36)"><path class="cls-1" d="M1.32,1.26a3.16,3.16,0,0,0-.51.87A7.52,7.52,0,0,0,0,5.07,7.36,7.36,0,0,0,.44,7.28,5.68,5.68,0,0,0,2,10.15a4.3,4.3,0,0,0,1.32.66,7.33,7.33,0,0,0,5.48-.41,3.58,3.58,0,0,0,1.3-1,4.61,4.61,0,0,0,.64-2.29Q10.9,6,11,4.85a5.55,5.55,0,0,0-.15-2.3A3.92,3.92,0,0,0,8.11.27a7.32,7.32,0,0,0-3.83,0C3.36.52,2,.53,1.32,1.26Z"/></clipPath><clipPath id="clip-path-7" transform="translate(1.36)"><path class="cls-1" d="M254.19,70.6a2.73,2.73,0,0,0-.51.87,7.71,7.71,0,0,0-.82,2.94,7.68,7.68,0,0,0,.44,2.21,5.68,5.68,0,0,0,1.6,2.87,4.3,4.3,0,0,0,1.32.66,7.33,7.33,0,0,0,5.48-.41,3.49,3.49,0,0,0,1.3-1,4.61,4.61,0,0,0,.64-2.29q.12-1.12.21-2.25a5.39,5.39,0,0,0-.15-2.3A3.92,3.92,0,0,0,261,69.61a7.36,7.36,0,0,0-3.84,0C256.23,69.86,254.88,69.87,254.19,70.6Z"/></clipPath><clipPath id="clip-path-8" transform="translate(1.36)"><path class="cls-1" d="M74,37.44a3.21,3.21,0,0,0-.51.88,7.47,7.47,0,0,0-.81,2.94,7.23,7.23,0,0,0,.44,2.2,5.6,5.6,0,0,0,1.6,2.87A4.33,4.33,0,0,0,76,47a7.33,7.33,0,0,0,5.48-.41,3.58,3.58,0,0,0,1.3-1,4.61,4.61,0,0,0,.64-2.29c.08-.75.15-1.51.21-2.26a5.56,5.56,0,0,0-.15-2.3,3.89,3.89,0,0,0-2.73-2.27,7.32,7.32,0,0,0-3.83,0C76,36.7,74.66,36.72,74,37.44Z"/></clipPath><clipPath id="clip-path-9" transform="translate(1.36)"><path class="cls-1" d="M167.6,76.18a2.81,2.81,0,0,0-.51.87,7.52,7.52,0,0,0-.81,2.94,7.34,7.34,0,0,0,.43,2.21,5.7,5.7,0,0,0,1.61,2.86,4,4,0,0,0,1.31.67,7.33,7.33,0,0,0,5.48-.41,3.42,3.42,0,0,0,1.3-1,4.62,4.62,0,0,0,.65-2.29c.07-.75.15-1.5.21-2.26a5.56,5.56,0,0,0-.16-2.3,3.92,3.92,0,0,0-2.72-2.27,7.36,7.36,0,0,0-3.84,0C169.64,75.44,168.29,75.45,167.6,76.18Z"/></clipPath></defs><g id="Layer_2" data-name="Layer 2"><g id="comet"><g class="cls-2"><path class="cls-3" d="M114.74,41a9,9,0,0,0,.86,2.75,24.26,24.26,0,0,0,4.52,7.57,24.25,24.25,0,0,0,5.32,3.78c2.79,1.6,5.81,3.19,8.83,3a10.2,10.2,0,0,0,3.78-1,17,17,0,0,0,9.25-10.8,9.4,9.4,0,0,0,.32-4.45c-.47-2.2-2-4.12-3.5-5.92s-2.81-3.39-4.24-5.07a18.2,18.2,0,0,0-5-4.49,10.47,10.47,0,0,0-9.67.23,16.92,16.92,0,0,0-7.13,6.89C117,35.79,114.52,38.26,114.74,41Z" transform="translate(1.36)"/><path class="cls-4" d="M119.33,49.93a19.59,19.59,0,0,0,2.54-.06c2.16.06,4.16,1.61,6.31,2.17a6.26,6.26,0,0,0,7.13-2.92,8,8,0,0,1,1.3-2.3,6.65,6.65,0,0,1,2.95-1.09,9.1,9.1,0,0,0,6.69-8.82,19.45,19.45,0,0,1,3.1,4.08,8.65,8.65,0,0,1,1.37,4.71,7.69,7.69,0,0,1-1.34,3.5c-3.8,6-10.34,9.53-16.84,12.5-1.45.66-3.06,1.31-4.71.85a7.76,7.76,0,0,1-2.49-1.42,37.56,37.56,0,0,1-7.3-7.44c-1.11-1.51-4-5-2.93-6.82C116.62,47.79,117.36,49.62,119.33,49.93Z" transform="translate(1.36)"/><path class="cls-5" d="M137.66,35.77c.09-.09-.07-.25-.16-.16s.07.25.16.16Z" transform="translate(1.36)"/><path class="cls-5" d="M131.55,42.24c.09-.09-.06-.25-.16-.16s.07.25.16.16Z" transform="translate(1.36)"/><path class="cls-5" d="M129.89,36.39c.09-.09-.07-.24-.16-.15s.06.24.16.15Z" transform="translate(1.36)"/><path class="cls-5" d="M130.11,42.56c.09-.09-.06-.25-.16-.16s.07.25.16.16Z" transform="translate(1.36)"/><path class="cls-5" d="M122,44.62c.09-.09-.07-.25-.16-.16s.07.25.16.16Z" transform="translate(1.36)"/><path class="cls-5" d="M124.28,38.62c.09-.08-.07-.24-.16-.15s.07.24.16.15Z" transform="translate(1.36)"/><path class="cls-5" d="M125.25,43.17c.09-.09-.06-.25-.16-.16s.07.25.16.16Z" transform="translate(1.36)"/><path class="cls-6" d="M132.45,39.59c.09-.09-.07-.25-.16-.16s.07.25.16.16Z" transform="translate(1.36)"/><path class="cls-6" d="M130.69,45.51c.09-.09-.07-.25-.16-.16s.07.25.16.16Z" transform="translate(1.36)"/><path class="cls-6" d="M128.45,40.67c.09-.09-.07-.24-.16-.15s.07.24.16.15Z" transform="translate(1.36)"/><path class="cls-6" d="M124.21,45.08c.09-.09-.07-.25-.16-.16s.07.25.16.16Z" transform="translate(1.36)"/><path class="cls-6" d="M122.92,38.43c.09-.09-.07-.25-.16-.16s.06.25.16.16Z" transform="translate(1.36)"/><path class="cls-6" d="M118.71,43.46c.09-.09-.07-.25-.16-.16s.07.25.16.16Z" transform="translate(1.36)"/><path class="cls-6" d="M118.85,38.26c.09-.09-.07-.25-.16-.16s.07.25.16.16Z" transform="translate(1.36)"/><path class="cls-6" d="M123.56,31c.09-.09-.07-.25-.16-.16s.07.25.16.16Z" transform="translate(1.36)"/><path class="cls-6" d="M131.74,28.18c.09-.09-.07-.25-.16-.16s.07.25.16.16Z" transform="translate(1.36)"/><path class="cls-6" d="M125.51,36.37l-.11-.11a.13.13,0,0,0-.07,0h0a.05.05,0,0,0,0,0s0,0,0,.07a.11.11,0,0,0,0,.08l.11.11a.2.2,0,0,0,.08,0h0l0,0a.09.09,0,0,0,0-.07.2.2,0,0,0,0-.08Z" transform="translate(1.36)"/><path class="cls-6" d="M121.59,33.13c.09-.09-.07-.25-.16-.16s.07.25.16.16Z" transform="translate(1.36)"/><path class="cls-6" d="M130.75,33.12c.09-.09-.06-.25-.16-.16s.07.25.16.16Z" transform="translate(1.36)"/><path class="cls-6" d="M133,34.21c.09-.09-.07-.25-.16-.16s.06.25.16.16Z" transform="translate(1.36)"/><path class="cls-6" d="M133.33,38.5c.09-.09-.07-.25-.16-.16s.07.25.16.16Z" transform="translate(1.36)"/><path class="cls-6" d="M137.41,34.92c.09-.09-.07-.25-.16-.16s.07.25.16.16Z" transform="translate(1.36)"/><path class="cls-6" d="M139.37,38.49c.09-.09-.07-.25-.16-.16s.07.25.16.16Z" transform="translate(1.36)"/><path class="cls-6" d="M138.68,41.15c.09-.09-.07-.25-.16-.16s.07.25.16.16Z" transform="translate(1.36)"/><path class="cls-6" d="M143.85,44.41c.09-.09-.07-.25-.16-.16s.07.25.16.16Z" transform="translate(1.36)"/><path class="cls-6" d="M143.13,48.43c.09-.09-.07-.25-.16-.16s.07.25.16.16Z" transform="translate(1.36)"/><path class="cls-6" d="M140.2,48.23c.09-.09-.07-.25-.16-.16s.07.25.16.16Z" transform="translate(1.36)"/><path class="cls-6" d="M139.1,51.08c.09-.09-.06-.25-.15-.16s.06.25.15.16Z" transform="translate(1.36)"/><path class="cls-6" d="M134.25,53.67c.09-.09-.07-.25-.16-.16s.06.25.16.16Z" transform="translate(1.36)"/><path class="cls-6" d="M130.42,54.14c.09-.09-.07-.25-.16-.16s.07.25.16.16Z" transform="translate(1.36)"/><path class="cls-6" d="M121,51.74c.09-.09-.07-.25-.16-.16s.06.25.16.16Z" transform="translate(1.36)"/><path class="cls-6" d="M124.86,47.52c.09-.09-.07-.25-.16-.16s.07.25.16.16Z" transform="translate(1.36)"/><path class="cls-6" d="M124.7,52.3c.09-.09-.07-.25-.16-.16s.07.25.16.16Z" transform="translate(1.36)"/><path class="cls-6" d="M128.27,49c.09-.09-.07-.25-.16-.16s.07.25.16.16Z" transform="translate(1.36)"/><path class="cls-6" d="M130.14,52.87l.1-.09a.11.11,0,0,0,0-.08s0,0,0,0,0,0,0,0a.1.1,0,0,0-.07,0,.08.08,0,0,0-.07,0l-.1.09a.11.11,0,0,0,0,.08.08.08,0,0,0,0,0s0,0,0,0,0,0,.08,0a.09.09,0,0,0,.07,0Z" transform="translate(1.36)"/><path class="cls-6" d="M135,47.67c.09-.09-.07-.25-.16-.16s.06.25.16.16Z" transform="translate(1.36)"/><path class="cls-6" d="M134.7,47.8c.28-.26-.19-.74-.47-.47s.2.74.47.47Z" transform="translate(1.36)"/><path class="cls-6" d="M131.41,50.4c.27-.27-.2-.75-.47-.48s.2.75.47.48Z" transform="translate(1.36)"/><path class="cls-6" d="M128,46.94c.27-.27-.2-.75-.47-.48s.19.75.47.48Z" transform="translate(1.36)"/><path class="cls-6" d="M138.33,41.59c.27-.27-.2-.75-.47-.48s.2.75.47.48Z" transform="translate(1.36)"/><path class="cls-6" d="M138.41,45c.27-.27-.2-.75-.47-.48s.2.75.47.48Z" transform="translate(1.36)"/><path class="cls-6" d="M142.64,42.4c.27-.27-.2-.75-.47-.48s.2.74.47.48Z" transform="translate(1.36)"/><path class="cls-6" d="M143.41,47.14c.28-.27-.19-.75-.47-.48s.2.74.47.48Z" transform="translate(1.36)"/><path class="cls-6" d="M142.11,52c.27-.27-.2-.75-.47-.48s.2.74.47.48Z" transform="translate(1.36)"/><path class="cls-6" d="M139,54.76c.28-.27-.2-.74-.47-.48s.2.75.47.48Z" transform="translate(1.36)"/><path class="cls-6" d="M120,40.78c.27-.27-.2-.75-.47-.48s.2.75.47.48Z" transform="translate(1.36)"/><path class="cls-6" d="M120,47.76c.28-.27-.19-.74-.47-.48s.2.75.47.48Z" transform="translate(1.36)"/><path class="cls-6" d="M124.58,41.5c.27-.27-.2-.74-.47-.47s.2.74.47.47Z" transform="translate(1.36)"/><path class="cls-6" d="M118.82,35.07c.28-.26-.19-.74-.47-.47s.2.74.47.47Z" transform="translate(1.36)"/><path class="cls-6" d="M126.66,27.78c.27-.26-.2-.74-.47-.47s.2.74.47.47Z" transform="translate(1.36)"/><path class="cls-6" d="M127.44,32.73c.28-.27-.19-.74-.47-.47s.2.74.47.47Z" transform="translate(1.36)"/><path class="cls-6" d="M137.28,31.83c.28-.27-.19-.75-.47-.48s.2.75.47.48Z" transform="translate(1.36)"/><path class="cls-6" d="M142.5,35.93c.27-.27-.2-.75-.47-.48s.2.75.47.48Z" transform="translate(1.36)"/></g><g class="cls-7"><path class="cls-3" d="M27.58,13.2a4.82,4.82,0,0,0-.83,1.42,12,12,0,0,0-1.32,4.76A11.86,11.86,0,0,0,26.14,23c.54,1.72,1.19,3.53,2.6,4.65a6.74,6.74,0,0,0,2.14,1.08A11.89,11.89,0,0,0,39.76,28a5.59,5.59,0,0,0,2.11-1.64,7.36,7.36,0,0,0,1-3.71c.13-1.22.25-2.44.35-3.66A9,9,0,0,0,43,15.29a6.36,6.36,0,0,0-4.42-3.69,11.93,11.93,0,0,0-6.22,0C30.88,12,28.7,12,27.58,13.2Z" transform="translate(1.36)"/><path class="cls-4" d="M25.7,18.51a11.92,11.92,0,0,0,1.16,1c.94.87,1.15,2.27,1.86,3.33a4.17,4.17,0,0,0,4.47,1.63,5.08,5.08,0,0,1,1.6-.4,4.3,4.3,0,0,1,1.8.72,6.27,6.27,0,0,0,6.87-.88,9.62,9.62,0,0,1-.41,2.82,4.7,4.7,0,0,1-1.46,2.4,5.05,5.05,0,0,1-2.15.86c-4.34.89-8.81-.26-13-1.63a4.33,4.33,0,0,1-2.48-1.5,3.93,3.93,0,0,1-.49-1.53,18.5,18.5,0,0,1,0-5.8c.17-1,.41-3.53,1.7-3.85C25.44,16.61,25,17.62,25.7,18.51Z" transform="translate(1.36)"/><path class="cls-5" d="M40.13,20.07a.07.07,0,0,0,0-.13.07.07,0,0,0,0,.13Z" transform="translate(1.36)"/><path class="cls-5" d="M34.55,20.24a.06.06,0,1,0,0-.12.06.06,0,0,0,0,.12Z" transform="translate(1.36)"/><path class="cls-5" d="M36.38,17.28a.06.06,0,1,0,0-.12.06.06,0,1,0,0,.12Z" transform="translate(1.36)"/><path class="cls-5" d="M33.77,19.81a.07.07,0,0,0,0-.13.07.07,0,0,0,0,.13Z" transform="translate(1.36)"/><path class="cls-5" d="M29.23,17.45a.06.06,0,1,0,0-.12.06.06,0,0,0,0,.12Z" transform="translate(1.36)"/><path class="cls-5" d="M32.89,16a.06.06,0,1,0,0-.12.06.06,0,0,0,0,.12Z" transform="translate(1.36)"/><path class="cls-5" d="M31.33,18.15a.06.06,0,1,0,0-.12.06.06,0,0,0,0,.12Z" transform="translate(1.36)"/><path class="cls-6" d="M36.12,19.55a.07.07,0,0,0,0-.13.07.07,0,0,0,0,.13Z" transform="translate(1.36)"/><path class="cls-6" d="M32.72,21.2a.06.06,0,1,0,0-.12.06.06,0,0,0,0,.12Z" transform="translate(1.36)"/><path class="cls-6" d="M33.85,18.41a.06.06,0,0,0,0-.12.06.06,0,0,0,0,.12Z" transform="translate(1.36)"/><path class="cls-6" d="M30,18.5a.06.06,0,1,0,0-.12.06.06,0,0,0,0,.12Z" transform="translate(1.36)"/><path class="cls-6" d="M32.37,15.36a.06.06,0,1,0,0-.12.06.06,0,1,0,0,.12Z" transform="translate(1.36)"/><path class="cls-6" d="M28.28,15.71a.06.06,0,0,0,0-.12.06.06,0,0,0,0,.12Z" transform="translate(1.36)"/><path class="cls-6" d="M30.63,13.71a.07.07,0,0,0,0-.13.07.07,0,0,0,0,.13Z" transform="translate(1.36)"/><path class="cls-6" d="M36,12.66a.06.06,0,1,0,0-.12.06.06,0,0,0,0,.12Z" transform="translate(1.36)"/><path class="cls-6" d="M40.83,14.75a.06.06,0,0,0,0-.12.06.06,0,0,0,0,.12Z" transform="translate(1.36)"/><path class="cls-6" d="M34.44,15.56v-.09l0,0h0l-.05,0,0,0v.09s0,0,0,0h.09s0,0,0,0Z" transform="translate(1.36)"/><path class="cls-6" d="M34.11,12.75a.07.07,0,0,0,0-.13.07.07,0,0,0,0,.13Z" transform="translate(1.36)"/><path class="cls-6" d="M38.21,16.32a.06.06,0,1,0,0-.12.06.06,0,1,0,0,.12Z" transform="translate(1.36)"/><path class="cls-6" d="M38.73,17.63a.07.07,0,0,0,0-.13.07.07,0,0,0,0,.13Z" transform="translate(1.36)"/><path class="cls-6" d="M37,19.46a.07.07,0,0,0,0-.13.07.07,0,0,0,0,.13Z" transform="translate(1.36)"/><path class="cls-6" d="M40.39,19.63a.06.06,0,1,0,0-.12.06.06,0,0,0,0,.12Z" transform="translate(1.36)"/><path class="cls-6" d="M39.69,21.81a.06.06,0,1,0,0-.12.06.06,0,0,0,0,.12Z" transform="translate(1.36)"/><path class="cls-6" d="M38.21,22.6a.07.07,0,0,0,0-.13.07.07,0,0,0,0,.13Z" transform="translate(1.36)"/><path class="cls-6" d="M39.08,25.91a.07.07,0,0,0,0-.13.07.07,0,0,0,0,.13Z" transform="translate(1.36)"/><path class="cls-6" d="M37,27.22a.07.07,0,0,0,0-.13.07.07,0,0,0,0,.13Z" transform="translate(1.36)"/><path class="cls-6" d="M35.77,26a.07.07,0,0,0,0-.13.07.07,0,0,0,0,.13Z" transform="translate(1.36)"/><path class="cls-6" d="M34,26.69a.06.06,0,0,0,0-.12.06.06,0,0,0,0,.12Z" transform="translate(1.36)"/><path class="cls-6" d="M30.72,25.82a.06.06,0,1,0,0-.12.06.06,0,1,0,0,.12Z" transform="translate(1.36)"/><path class="cls-6" d="M28.8,24.51a.06.06,0,0,0,0-.12.06.06,0,1,0,0,.12Z" transform="translate(1.36)"/><path class="cls-6" d="M25.66,19.89a.06.06,0,0,0,0-.12.06.06,0,1,0,0,.12Z" transform="translate(1.36)"/><path class="cls-6" d="M29.23,19.72a.06.06,0,0,0,0-.12.06.06,0,0,0,0,.12Z" transform="translate(1.36)"/><path class="cls-6" d="M27.05,21.55a.06.06,0,0,0,0-.12c-.07,0-.08.12,0,.12Z" transform="translate(1.36)"/><path class="cls-6" d="M30.11,21.64a.07.07,0,0,0,0-.13.07.07,0,0,0,0,.13Z" transform="translate(1.36)"/><path class="cls-6" d="M29.23,23.9h.13l0,0v0a0,0,0,0,0,0,0l0,0h-.09l0,0s0,0,0,0,0,0,0,0,0,0,0,.05Z" transform="translate(1.36)"/><path class="cls-6" d="M33.68,23.73a.06.06,0,1,0,0-.12.06.06,0,0,0,0,.12Z" transform="translate(1.36)"/><path class="cls-6" d="M33.5,23.68a.19.19,0,0,0,0-.37.19.19,0,0,0,0,.37Z" transform="translate(1.36)"/><path class="cls-6" d="M30.89,23.42a.19.19,0,0,0,0-.37.19.19,0,0,0,0,.37Z" transform="translate(1.36)"/><path class="cls-6" d="M30.89,20.72a.19.19,0,0,0,0-.38.19.19,0,0,0,0,.38Z" transform="translate(1.36)"/><path class="cls-6" d="M37.86,22.63a.19.19,0,0,0,0-.37.19.19,0,0,0,0,.37Z" transform="translate(1.36)"/><path class="cls-6" d="M36.38,24a.19.19,0,0,0,0-.37.19.19,0,0,0,0,.37Z" transform="translate(1.36)"/><path class="cls-6" d="M39.43,24.64a.19.19,0,0,0,0-.37.19.19,0,0,0,0,.37Z" transform="translate(1.36)"/><path class="cls-6" d="M37.69,26.82a.19.19,0,0,0,0-.38.19.19,0,0,0,0,.38Z" transform="translate(1.36)"/><path class="cls-6" d="M35,28.21a.19.19,0,0,0,0-.37.19.19,0,0,0,0,.37Z" transform="translate(1.36)"/><path class="cls-6" d="M32.37,28.12a.19.19,0,0,0,0-.37.19.19,0,0,0,0,.37Z" transform="translate(1.36)"/><path class="cls-6" d="M30,15.14a.19.19,0,0,0,0-.37.19.19,0,0,0,0,.37Z" transform="translate(1.36)"/><path class="cls-6" d="M27,17.93a.19.19,0,0,0,0-.38.19.19,0,0,0,0,.38Z" transform="translate(1.36)"/><path class="cls-6" d="M31.76,17.23a.19.19,0,0,0,0-.37.19.19,0,0,0,0,.37Z" transform="translate(1.36)"/><path class="cls-6" d="M32,12.44a.19.19,0,0,0,0-.38.19.19,0,0,0,0,.38Z" transform="translate(1.36)"/><path class="cls-6" d="M38.73,12.61a.19.19,0,0,0,0-.37.19.19,0,0,0,0,.37Z" transform="translate(1.36)"/><path class="cls-6" d="M36.9,14.88a.19.19,0,0,0,0-.38.19.19,0,0,0,0,.38Z" transform="translate(1.36)"/><path class="cls-6" d="M41.7,18.36a.19.19,0,0,0,0-.37.19.19,0,0,0,0,.37Z" transform="translate(1.36)"/><path class="cls-6" d="M42.22,22a.19.19,0,0,0,0-.37.19.19,0,0,0,0,.37Z" transform="translate(1.36)"/></g><g class="cls-8"><path class="cls-3" d="M88.89,86a2.67,2.67,0,0,0-.51.88,7.61,7.61,0,0,0-.82,2.93A7.61,7.61,0,0,0,88,92a5.63,5.63,0,0,0,1.61,2.87,4.14,4.14,0,0,0,1.31.66,7.33,7.33,0,0,0,5.48-.41,3.49,3.49,0,0,0,1.3-1,4.51,4.51,0,0,0,.64-2.29c.08-.75.15-1.5.22-2.25a5.55,5.55,0,0,0-.16-2.3A3.92,3.92,0,0,0,95.68,85a7.36,7.36,0,0,0-3.84,0C90.93,85.27,89.58,85.28,88.89,86Z" transform="translate(1.36)"/><path class="cls-4" d="M87.73,89.29a8.38,8.38,0,0,0,.72.59c.57.54.71,1.4,1.14,2.05a2.57,2.57,0,0,0,2.76,1,3.21,3.21,0,0,1,1-.25,2.68,2.68,0,0,1,1.1.44,3.86,3.86,0,0,0,4.24-.54,6.12,6.12,0,0,1-.25,1.75,2.88,2.88,0,0,1-.9,1.47,3.17,3.17,0,0,1-1.33.54c-2.67.54-5.43-.17-8-1a2.72,2.72,0,0,1-1.53-.93,2.36,2.36,0,0,1-.3-.94,11.62,11.62,0,0,1,0-3.58c.11-.63.26-2.17,1.05-2.37C87.57,88.11,87.27,88.73,87.73,89.29Z" transform="translate(1.36)"/><path class="cls-5" d="M96.63,90.24a0,0,0,1,0,0-.07,0,0,0,1,0,0,.07Z" transform="translate(1.36)"/><path class="cls-5" d="M93.19,90.35a0,0,0,1,0,0-.07,0,0,0,1,0,0,.07Z" transform="translate(1.36)"/><path class="cls-5" d="M94.32,88.52a0,0,0,1,0,0-.07,0,0,0,1,0,0,.07Z" transform="translate(1.36)"/><path class="cls-5" d="M92.7,90.08a0,0,0,1,0,0-.07,0,0,0,1,0,0,.07Z" transform="translate(1.36)"/><path class="cls-5" d="M89.91,88.63a0,0,0,1,0,0-.07,0,0,0,1,0,0,.07Z" transform="translate(1.36)"/><path class="cls-5" d="M92.17,87.72a0,0,0,0,0,0-.08,0,0,0,0,0,0,.08Z" transform="translate(1.36)"/><path class="cls-5" d="M91.2,89.06a0,0,0,1,0,0-.07,0,0,0,1,0,0,.07Z" transform="translate(1.36)"/><path class="cls-6" d="M94.16,89.92s0-.07,0-.07a0,0,0,1,0,0,.07Z" transform="translate(1.36)"/><path class="cls-6" d="M92.06,90.94a0,0,0,1,0,0-.07,0,0,0,1,0,0,.07Z" transform="translate(1.36)"/><path class="cls-6" d="M92.76,89.22a0,0,0,1,0,0-.07,0,0,0,1,0,0,.07Z" transform="translate(1.36)"/><path class="cls-6" d="M90.39,89.28a0,0,0,0,0,0-.08,0,0,0,0,0,0,.08Z" transform="translate(1.36)"/><path class="cls-6" d="M91.84,87.34a0,0,0,1,0,0-.07,0,0,0,1,0,0,.07Z" transform="translate(1.36)"/><path class="cls-6" d="M89.32,87.56a0,0,0,0,0,0-.08,0,0,0,0,0,0,.08Z" transform="translate(1.36)"/><path class="cls-6" d="M90.77,86.32a0,0,0,0,0,0-.08,0,0,0,0,0,0,.08Z" transform="translate(1.36)"/><path class="cls-6" d="M94.05,85.68a0,0,0,0,0,0-.08,0,0,0,0,0,0,.08Z" transform="translate(1.36)"/><path class="cls-6" d="M97.06,87a0,0,0,0,0,0-.08,0,0,0,0,0,0,.08Z" transform="translate(1.36)"/><path class="cls-6" d="M93.12,87.47v-.06s0,0,0,0h-.06s0,0,0,0v.06a0,0,0,0,0,0,0h.06s0,0,0,0Z" transform="translate(1.36)"/><path class="cls-6" d="M92.92,85.73a0,0,0,0,0,0-.08,0,0,0,0,0,0,.08Z" transform="translate(1.36)"/><path class="cls-6" d="M95.44,87.93a0,0,0,1,0,0-.07s0,.07,0,.07Z" transform="translate(1.36)"/><path class="cls-6" d="M95.77,88.74a0,0,0,0,0,0-.08,0,0,0,0,0,0,.08Z" transform="translate(1.36)"/><path class="cls-6" d="M94.69,89.87a0,0,0,0,0,0-.08,0,0,0,0,0,0,.08Z" transform="translate(1.36)"/><path class="cls-6" d="M96.79,90a0,0,0,0,0,0-.08,0,0,0,0,0,0,.08Z" transform="translate(1.36)"/><path class="cls-6" d="M96.36,91.32a0,0,0,0,0,0-.08,0,0,0,0,0,0,.08Z" transform="translate(1.36)"/><path class="cls-6" d="M95.44,91.8a0,0,0,1,0,0-.07s0,.07,0,.07Z" transform="translate(1.36)"/><path class="cls-6" d="M96,93.85a0,0,0,0,0,0-.08,0,0,0,0,0,0,.08Z" transform="translate(1.36)"/><path class="cls-6" d="M94.69,94.65a0,0,0,0,0,0-.08,0,0,0,0,0,0,.08Z" transform="translate(1.36)"/><path class="cls-6" d="M93.94,93.9a0,0,0,0,0,0-.08,0,0,0,0,0,0,.08Z" transform="translate(1.36)"/><path class="cls-6" d="M92.87,94.33s0-.08,0-.08a0,0,0,0,0,0,.08Z" transform="translate(1.36)"/><path class="cls-6" d="M90.82,93.79a0,0,0,0,0,0-.08,0,0,0,0,0,0,.08Z" transform="translate(1.36)"/><path class="cls-6" d="M89.64,93a0,0,0,0,0,0-.08,0,0,0,0,0,0,.08Z" transform="translate(1.36)"/><path class="cls-6" d="M87.71,90.14a0,0,0,0,0,0-.08,0,0,0,0,0,0,.08Z" transform="translate(1.36)"/><path class="cls-6" d="M89.91,90a0,0,0,0,0,0-.08,0,0,0,0,0,0,.08Z" transform="translate(1.36)"/><path class="cls-6" d="M88.57,91.16a0,0,0,0,0,0-.08,0,0,0,0,0,0,.08Z" transform="translate(1.36)"/><path class="cls-6" d="M90.45,91.21a0,0,0,1,0,0-.07,0,0,0,1,0,0,.07Z" transform="translate(1.36)"/><path class="cls-6" d="M89.91,92.61H90v0a0,0,0,0,0,0,0h-.11v0h0a0,0,0,0,0,0,0Z" transform="translate(1.36)"/><path class="cls-6" d="M92.65,92.5a0,0,0,1,0,0-.07,0,0,0,1,0,0,.07Z" transform="translate(1.36)"/><path class="cls-6" d="M92.54,92.47a.12.12,0,0,0,0-.23.12.12,0,0,0,0,.23Z" transform="translate(1.36)"/><path class="cls-6" d="M90.93,92.31a.12.12,0,0,0,0-.23.12.12,0,0,0,0,.23Z" transform="translate(1.36)"/><path class="cls-6" d="M90.93,90.64a.12.12,0,0,0,0-.23.12.12,0,0,0,0,.23Z" transform="translate(1.36)"/><path class="cls-6" d="M95.23,91.83a.12.12,0,0,0,0-.23.12.12,0,0,0,0,.23Z" transform="translate(1.36)"/><path class="cls-6" d="M94.32,92.69a.12.12,0,0,0,0-.23.12.12,0,0,0,0,.23Z" transform="translate(1.36)"/><path class="cls-6" d="M96.2,93.06a.12.12,0,0,0,0-.23.12.12,0,0,0,0,.23Z" transform="translate(1.36)"/><path class="cls-6" d="M95.12,94.41a.12.12,0,0,0,0-.23.12.12,0,0,0,0,.23Z" transform="translate(1.36)"/><path class="cls-6" d="M93.46,95.27a.12.12,0,0,0,0-.23.12.12,0,0,0,0,.23Z" transform="translate(1.36)"/><path class="cls-6" d="M91.84,95.21a.12.12,0,0,0,0-.23.12.12,0,0,0,0,.23Z" transform="translate(1.36)"/><path class="cls-6" d="M90.39,87.2a.12.12,0,0,0,0-.23.12.12,0,0,0,0,.23Z" transform="translate(1.36)"/><path class="cls-6" d="M88.51,88.92a.12.12,0,0,0,0-.23.12.12,0,0,0,0,.23Z" transform="translate(1.36)"/><path class="cls-6" d="M91.47,88.49a.12.12,0,0,0,0-.23.12.12,0,0,0,0,.23Z" transform="translate(1.36)"/><path class="cls-6" d="M91.63,85.54a.12.12,0,0,0,0-.23.12.12,0,0,0,0,.23Z" transform="translate(1.36)"/><path class="cls-6" d="M95.77,85.65a.12.12,0,0,0,0-.23.12.12,0,0,0,0,.23Z" transform="translate(1.36)"/><path class="cls-6" d="M94.64,87a.12.12,0,0,0,0-.23.12.12,0,0,0,0,.23Z" transform="translate(1.36)"/><path class="cls-6" d="M97.59,89.19a.12.12,0,0,0,0-.23.12.12,0,0,0,0,.23Z" transform="translate(1.36)"/><path class="cls-6" d="M97.92,91.45a.12.12,0,0,0,0-.23.12.12,0,0,0,0,.23Z" transform="translate(1.36)"/></g><g class="cls-9"><path class="cls-3" d="M94.41,59.44a2.67,2.67,0,0,0-.51.88,7.61,7.61,0,0,0-.82,2.93,7.61,7.61,0,0,0,.44,2.21,5.68,5.68,0,0,0,1.6,2.87,4.3,4.3,0,0,0,1.32.66,7.33,7.33,0,0,0,5.48-.41,3.49,3.49,0,0,0,1.3-1,4.61,4.61,0,0,0,.64-2.29q.12-1.12.21-2.25a5.39,5.39,0,0,0-.15-2.3,3.92,3.92,0,0,0-2.72-2.28,7.36,7.36,0,0,0-3.84,0C96.45,58.7,95.1,58.71,94.41,59.44Z" transform="translate(1.36)"/><path class="cls-4" d="M93.25,62.72a6.85,6.85,0,0,0,.72.59c.57.54.7,1.4,1.14,2a2.57,2.57,0,0,0,2.76,1,3.21,3.21,0,0,1,1-.25,2.57,2.57,0,0,1,1.1.45A3.88,3.88,0,0,0,104.2,66a6.12,6.12,0,0,1-.25,1.75,2.88,2.88,0,0,1-.9,1.47,3.17,3.17,0,0,1-1.33.54c-2.67.54-5.43-.17-8-1a2.67,2.67,0,0,1-1.53-.93,2.36,2.36,0,0,1-.3-.94,11.62,11.62,0,0,1,0-3.58c.11-.63.26-2.17,1-2.37C93.09,61.54,92.79,62.16,93.25,62.72Z" transform="translate(1.36)"/><path class="cls-5" d="M102.15,63.67a0,0,0,1,0,0-.07,0,0,0,1,0,0,.07Z" transform="translate(1.36)"/><path class="cls-5" d="M98.71,63.78a0,0,0,1,0,0-.07,0,0,0,1,0,0,.07Z" transform="translate(1.36)"/><path class="cls-5" d="M99.84,62a0,0,0,0,0,0-.08,0,0,0,0,0,0,.08Z" transform="translate(1.36)"/><path class="cls-5" d="M98.22,63.51a0,0,0,1,0,0-.07,0,0,0,1,0,0,.07Z" transform="translate(1.36)"/><path class="cls-5" d="M95.43,62.06a0,0,0,1,0,0-.07,0,0,0,1,0,0,.07Z" transform="translate(1.36)"/><path class="cls-5" d="M97.69,61.15a0,0,0,0,0,0-.08,0,0,0,0,0,0,.08Z" transform="translate(1.36)"/><path class="cls-5" d="M96.72,62.49a0,0,0,1,0,0-.07,0,0,0,1,0,0,.07Z" transform="translate(1.36)"/><path class="cls-6" d="M99.67,63.35a0,0,0,1,0,0-.07s0,.07,0,.07Z" transform="translate(1.36)"/><path class="cls-6" d="M97.58,64.37a0,0,0,1,0,0-.07,0,0,0,1,0,0,.07Z" transform="translate(1.36)"/><path class="cls-6" d="M98.28,62.65a0,0,0,1,0,0-.07,0,0,0,1,0,0,.07Z" transform="translate(1.36)"/><path class="cls-6" d="M95.91,62.71a0,0,0,0,0,0-.08,0,0,0,0,0,0,.08Z" transform="translate(1.36)"/><path class="cls-6" d="M97.36,60.77a0,0,0,1,0,0-.07,0,0,0,1,0,0,.07Z" transform="translate(1.36)"/><path class="cls-6" d="M94.84,61a0,0,0,0,0,0-.08,0,0,0,0,0,0,.08Z" transform="translate(1.36)"/><path class="cls-6" d="M96.29,59.75a0,0,0,1,0,0-.07,0,0,0,1,0,0,.07Z" transform="translate(1.36)"/><path class="cls-6" d="M99.57,59.11a0,0,0,0,0,0-.08,0,0,0,0,0,0,.08Z" transform="translate(1.36)"/><path class="cls-6" d="M102.58,60.4a0,0,0,0,0,0-.08,0,0,0,0,0,0,.08Z" transform="translate(1.36)"/><path class="cls-6" d="M98.64,60.9v-.06a0,0,0,0,0,0,0h0s0,0,0,0l0,0a0,0,0,0,0,0,0v.08h.06v0Z" transform="translate(1.36)"/><path class="cls-6" d="M98.44,59.16a0,0,0,0,0,0-.08,0,0,0,0,0,0,.08Z" transform="translate(1.36)"/><path class="cls-6" d="M101,61.36a0,0,0,1,0,0-.07s0,.07,0,.07Z" transform="translate(1.36)"/><path class="cls-6" d="M101.29,62.17a0,0,0,0,0,0-.08,0,0,0,0,0,0,.08Z" transform="translate(1.36)"/><path class="cls-6" d="M100.21,63.3a0,0,0,0,0,0-.08,0,0,0,0,0,0,.08Z" transform="translate(1.36)"/><path class="cls-6" d="M102.31,63.41a0,0,0,0,0,0-.08,0,0,0,0,0,0,.08Z" transform="translate(1.36)"/><path class="cls-6" d="M101.88,64.75a0,0,0,0,0,0-.08,0,0,0,0,0,0,.08Z" transform="translate(1.36)"/><path class="cls-6" d="M101,65.23a0,0,0,1,0,0-.07s0,.07,0,.07Z" transform="translate(1.36)"/><path class="cls-6" d="M101.5,67.28a0,0,0,0,0,0-.08,0,0,0,0,0,0,.08Z" transform="translate(1.36)"/><path class="cls-6" d="M100.21,68.08a0,0,0,1,0,0-.07,0,0,0,1,0,0,.07Z" transform="translate(1.36)"/><path class="cls-6" d="M99.46,67.33a0,0,0,0,0,0-.08,0,0,0,0,0,0,.08Z" transform="translate(1.36)"/><path class="cls-6" d="M98.39,67.76s0-.08,0-.08a0,0,0,0,0,0,.08Z" transform="translate(1.36)"/><path class="cls-6" d="M96.34,67.22a0,0,0,1,0,0-.07,0,0,0,1,0,0,.07Z" transform="translate(1.36)"/><path class="cls-6" d="M95.16,66.42a0,0,0,0,0,0-.08,0,0,0,0,0,0,.08Z" transform="translate(1.36)"/><path class="cls-6" d="M93.23,63.57a0,0,0,0,0,0-.08,0,0,0,0,0,0,.08Z" transform="translate(1.36)"/><path class="cls-6" d="M95.43,63.46a0,0,0,0,0,0-.08,0,0,0,0,0,0,.08Z" transform="translate(1.36)"/><path class="cls-6" d="M94.09,64.59s0-.08,0-.08a0,0,0,0,0,0,.08Z" transform="translate(1.36)"/><path class="cls-6" d="M96,64.64a0,0,0,1,0,0-.07,0,0,0,1,0,0,.07Z" transform="translate(1.36)"/><path class="cls-6" d="M95.43,66h.09v0a0,0,0,0,0,0,0H95.4v0h0a0,0,0,0,0,0,0Z" transform="translate(1.36)"/><path class="cls-6" d="M98.17,65.93a0,0,0,1,0,0-.07,0,0,0,1,0,0,.07Z" transform="translate(1.36)"/><path class="cls-6" d="M98.06,65.9a.12.12,0,0,0,0-.23.12.12,0,0,0,0,.23Z" transform="translate(1.36)"/><path class="cls-6" d="M96.45,65.74a.12.12,0,0,0,0-.23.12.12,0,0,0,0,.23Z" transform="translate(1.36)"/><path class="cls-6" d="M96.45,64.07a.12.12,0,0,0,0-.23.12.12,0,0,0,0,.23Z" transform="translate(1.36)"/><path class="cls-6" d="M100.75,65.26a.12.12,0,0,0,0-.23.12.12,0,0,0,0,.23Z" transform="translate(1.36)"/><path class="cls-6" d="M99.84,66.12a.12.12,0,0,0,0-.23.12.12,0,0,0,0,.23Z" transform="translate(1.36)"/><path class="cls-6" d="M101.72,66.49a.12.12,0,0,0,0-.23.12.12,0,0,0,0,.23Z" transform="translate(1.36)"/><path class="cls-6" d="M100.64,67.84a.12.12,0,0,0,0-.23.12.12,0,0,0,0,.23Z" transform="translate(1.36)"/><path class="cls-6" d="M99,68.7a.12.12,0,0,0,0-.23.12.12,0,0,0,0,.23Z" transform="translate(1.36)"/><path class="cls-6" d="M97.36,68.64a.12.12,0,0,0,0-.23.12.12,0,0,0,0,.23Z" transform="translate(1.36)"/><path class="cls-6" d="M95.91,60.63a.12.12,0,0,0,0-.23.12.12,0,0,0,0,.23Z" transform="translate(1.36)"/><path class="cls-6" d="M94,62.35a.12.12,0,0,0,0-.23.12.12,0,0,0,0,.23Z" transform="translate(1.36)"/><path class="cls-6" d="M97,61.92a.12.12,0,0,0,0-.23.12.12,0,0,0,0,.23Z" transform="translate(1.36)"/><path class="cls-6" d="M97.15,59a.12.12,0,0,0,0-.23.12.12,0,0,0,0,.23Z" transform="translate(1.36)"/><path class="cls-6" d="M101.29,59.08a.12.12,0,0,0,0-.23.12.12,0,0,0,0,.23Z" transform="translate(1.36)"/><path class="cls-6" d="M100.16,60.47a.12.12,0,0,0,0-.23.12.12,0,0,0,0,.23Z" transform="translate(1.36)"/><path class="cls-6" d="M103.11,62.62a.12.12,0,0,0,0-.23.12.12,0,0,0,0,.23Z" transform="translate(1.36)"/><path class="cls-6" d="M103.44,64.88a.12.12,0,0,0,0-.23.12.12,0,0,0,0,.23Z" transform="translate(1.36)"/></g><g class="cls-10"><path class="cls-3" d="M221.46,86a2.67,2.67,0,0,0-.51.88,7.61,7.61,0,0,0-.82,2.93,7.61,7.61,0,0,0,.44,2.21,5.68,5.68,0,0,0,1.6,2.87,4.3,4.3,0,0,0,1.32.66,7.33,7.33,0,0,0,5.48-.41,3.49,3.49,0,0,0,1.3-1,4.61,4.61,0,0,0,.64-2.29q.12-1.12.21-2.25a5.39,5.39,0,0,0-.15-2.3A3.92,3.92,0,0,0,228.25,85a7.36,7.36,0,0,0-3.84,0C223.5,85.27,222.15,85.28,221.46,86Z" transform="translate(1.36)"/><path class="cls-4" d="M220.3,89.29a8.38,8.38,0,0,0,.72.59c.57.54.7,1.4,1.14,2.05a2.57,2.57,0,0,0,2.76,1,3.21,3.21,0,0,1,1-.25,2.68,2.68,0,0,1,1.1.44,3.86,3.86,0,0,0,4.24-.54,6.12,6.12,0,0,1-.25,1.75,2.88,2.88,0,0,1-.9,1.47,3.17,3.17,0,0,1-1.33.54c-2.67.54-5.43-.17-8-1a2.72,2.72,0,0,1-1.53-.93,2.36,2.36,0,0,1-.3-.94,11.62,11.62,0,0,1,0-3.58c.11-.63.26-2.17,1.05-2.37C220.14,88.11,219.84,88.73,220.3,89.29Z" transform="translate(1.36)"/><path class="cls-5" d="M229.2,90.24a0,0,0,1,0,0-.07,0,0,0,1,0,0,.07Z" transform="translate(1.36)"/><path class="cls-5" d="M225.76,90.35a0,0,0,1,0,0-.07,0,0,0,1,0,0,.07Z" transform="translate(1.36)"/><path class="cls-5" d="M226.89,88.52a0,0,0,1,0,0-.07,0,0,0,1,0,0,.07Z" transform="translate(1.36)"/><path class="cls-5" d="M225.27,90.08a0,0,0,1,0,0-.07,0,0,0,1,0,0,.07Z" transform="translate(1.36)"/><path class="cls-5" d="M222.48,88.63a0,0,0,1,0,0-.07,0,0,0,1,0,0,.07Z" transform="translate(1.36)"/><path class="cls-5" d="M224.74,87.72a0,0,0,0,0,0-.08,0,0,0,0,0,0,.08Z" transform="translate(1.36)"/><path class="cls-5" d="M223.77,89.06a0,0,0,1,0,0-.07,0,0,0,1,0,0,.07Z" transform="translate(1.36)"/><path class="cls-6" d="M226.72,89.92a0,0,0,1,0,0-.07s0,.07,0,.07Z" transform="translate(1.36)"/><path class="cls-6" d="M224.63,90.94a0,0,0,1,0,0-.07,0,0,0,1,0,0,.07Z" transform="translate(1.36)"/><path class="cls-6" d="M225.33,89.22a0,0,0,1,0,0-.07,0,0,0,1,0,0,.07Z" transform="translate(1.36)"/><path class="cls-6" d="M223,89.28a0,0,0,0,0,0-.08,0,0,0,0,0,0,.08Z" transform="translate(1.36)"/><path class="cls-6" d="M224.41,87.34a0,0,0,1,0,0-.07,0,0,0,1,0,0,.07Z" transform="translate(1.36)"/><path class="cls-6" d="M221.89,87.56a0,0,0,0,0,0-.08,0,0,0,0,0,0,.08Z" transform="translate(1.36)"/><path class="cls-6" d="M223.34,86.32a0,0,0,0,0,0-.08,0,0,0,0,0,0,.08Z" transform="translate(1.36)"/><path class="cls-6" d="M226.62,85.68a0,0,0,0,0,0-.08,0,0,0,0,0,0,.08Z" transform="translate(1.36)"/><path class="cls-6" d="M229.63,87a0,0,0,0,0,0-.08,0,0,0,0,0,0,.08Z" transform="translate(1.36)"/><path class="cls-6" d="M225.69,87.47v-.06s0,0,0,0h-.06s0,0,0,0v.06a0,0,0,0,0,0,0h.06s0,0,0,0Z" transform="translate(1.36)"/><path class="cls-6" d="M225.49,85.73a0,0,0,0,0,0-.08,0,0,0,0,0,0,.08Z" transform="translate(1.36)"/><path class="cls-6" d="M228,87.93a0,0,0,1,0,0-.07s0,.07,0,.07Z" transform="translate(1.36)"/><path class="cls-6" d="M228.34,88.74a0,0,0,0,0,0-.08,0,0,0,0,0,0,.08Z" transform="translate(1.36)"/><path class="cls-6" d="M227.26,89.87a0,0,0,0,0,0-.08,0,0,0,0,0,0,.08Z" transform="translate(1.36)"/><path class="cls-6" d="M229.36,90a0,0,0,0,0,0-.08,0,0,0,0,0,0,.08Z" transform="translate(1.36)"/><path class="cls-6" d="M228.93,91.32a0,0,0,0,0,0-.08,0,0,0,0,0,0,.08Z" transform="translate(1.36)"/><path class="cls-6" d="M228,91.8a0,0,0,1,0,0-.07s0,.07,0,.07Z" transform="translate(1.36)"/><path class="cls-6" d="M228.55,93.85a0,0,0,0,0,0-.08,0,0,0,0,0,0,.08Z" transform="translate(1.36)"/><path class="cls-6" d="M227.26,94.65a0,0,0,0,0,0-.08,0,0,0,0,0,0,.08Z" transform="translate(1.36)"/><path class="cls-6" d="M226.51,93.9a0,0,0,0,0,0-.08,0,0,0,0,0,0,.08Z" transform="translate(1.36)"/><path class="cls-6" d="M225.44,94.33s0-.08,0-.08a0,0,0,0,0,0,.08Z" transform="translate(1.36)"/><path class="cls-6" d="M223.39,93.79a0,0,0,0,0,0-.08,0,0,0,0,0,0,.08Z" transform="translate(1.36)"/><path class="cls-6" d="M222.21,93a0,0,0,0,0,0-.08,0,0,0,0,0,0,.08Z" transform="translate(1.36)"/><path class="cls-6" d="M220.28,90.14a0,0,0,0,0,0-.08,0,0,0,0,0,0,.08Z" transform="translate(1.36)"/><path class="cls-6" d="M222.48,90a0,0,0,0,0,0-.08,0,0,0,0,0,0,.08Z" transform="translate(1.36)"/><path class="cls-6" d="M221.14,91.16s.05-.08,0-.08a0,0,0,0,0,0,.08Z" transform="translate(1.36)"/><path class="cls-6" d="M223,91.21a0,0,0,1,0,0-.07,0,0,0,1,0,0,.07Z" transform="translate(1.36)"/><path class="cls-6" d="M222.48,92.61h.09v0a0,0,0,0,0,0,0h-.11v0h0a0,0,0,0,0,0,0Z" transform="translate(1.36)"/><path class="cls-6" d="M225.22,92.5a0,0,0,1,0,0-.07,0,0,0,1,0,0,.07Z" transform="translate(1.36)"/><path class="cls-6" d="M225.11,92.47a.12.12,0,0,0,0-.23.12.12,0,0,0,0,.23Z" transform="translate(1.36)"/><path class="cls-6" d="M223.5,92.31a.12.12,0,0,0,0-.23.12.12,0,0,0,0,.23Z" transform="translate(1.36)"/><path class="cls-6" d="M223.5,90.64a.12.12,0,0,0,0-.23.12.12,0,0,0,0,.23Z" transform="translate(1.36)"/><path class="cls-6" d="M227.8,91.83a.12.12,0,0,0,0-.23.12.12,0,0,0,0,.23Z" transform="translate(1.36)"/><path class="cls-6" d="M226.89,92.69a.12.12,0,0,0,0-.23.12.12,0,0,0,0,.23Z" transform="translate(1.36)"/><path class="cls-6" d="M228.77,93.06a.12.12,0,0,0,0-.23.12.12,0,0,0,0,.23Z" transform="translate(1.36)"/><path class="cls-6" d="M227.69,94.41a.12.12,0,0,0,0-.23.12.12,0,0,0,0,.23Z" transform="translate(1.36)"/><path class="cls-6" d="M226,95.27a.12.12,0,0,0,0-.23.12.12,0,0,0,0,.23Z" transform="translate(1.36)"/><path class="cls-6" d="M224.41,95.21a.12.12,0,0,0,0-.23.12.12,0,0,0,0,.23Z" transform="translate(1.36)"/><path class="cls-6" d="M223,87.2a.12.12,0,0,0,0-.23.12.12,0,0,0,0,.23Z" transform="translate(1.36)"/><path class="cls-6" d="M221.08,88.92a.12.12,0,0,0,0-.23.12.12,0,0,0,0,.23Z" transform="translate(1.36)"/><path class="cls-6" d="M224,88.49a.12.12,0,0,0,0-.23.12.12,0,0,0,0,.23Z" transform="translate(1.36)"/><path class="cls-6" d="M224.2,85.54a.12.12,0,0,0,0-.23.12.12,0,0,0,0,.23Z" transform="translate(1.36)"/><path class="cls-6" d="M228.34,85.65a.12.12,0,0,0,0-.23.12.12,0,0,0,0,.23Z" transform="translate(1.36)"/><path class="cls-6" d="M227.21,87a.12.12,0,0,0,0-.23.12.12,0,0,0,0,.23Z" transform="translate(1.36)"/><path class="cls-6" d="M230.16,89.19a.12.12,0,0,0,0-.23.12.12,0,0,0,0,.23Z" transform="translate(1.36)"/><path class="cls-6" d="M230.49,91.45a.12.12,0,0,0,0-.23.12.12,0,0,0,0,.23Z" transform="translate(1.36)"/></g><g class="cls-11"><path class="cls-3" d="M1.32,1.26a3.16,3.16,0,0,0-.51.87A7.52,7.52,0,0,0,0,5.07,7.36,7.36,0,0,0,.44,7.28,5.68,5.68,0,0,0,2,10.15a4.3,4.3,0,0,0,1.32.66,7.33,7.33,0,0,0,5.48-.41,3.58,3.58,0,0,0,1.3-1,4.61,4.61,0,0,0,.64-2.29Q10.9,6,11,4.85a5.55,5.55,0,0,0-.15-2.3A3.92,3.92,0,0,0,8.11.27a7.32,7.32,0,0,0-3.83,0C3.36.52,2,.53,1.32,1.26Z" transform="translate(1.36)"/><path class="cls-4" d="M.17,4.54a8.23,8.23,0,0,0,.71.59c.58.54.71,1.4,1.15,2.05a2.56,2.56,0,0,0,2.76,1,3.08,3.08,0,0,1,1-.25,2.78,2.78,0,0,1,1.11.44,3.86,3.86,0,0,0,4.24-.54,6.13,6.13,0,0,1-.26,1.75,2.88,2.88,0,0,1-.9,1.47,3.13,3.13,0,0,1-1.32.54c-2.67.54-5.44-.17-8-1A2.72,2.72,0,0,1-.92,9.66a2.36,2.36,0,0,1-.3-.94,11.31,11.31,0,0,1,0-3.58c.1-.63.26-2.17,1.05-2.37C0,3.36-.29,4,.17,4.54Z" transform="translate(1.36)"/><path class="cls-5" d="M9.06,5.49a0,0,0,1,0,0-.07,0,0,0,1,0,0,.07Z" transform="translate(1.36)"/><path class="cls-5" d="M5.62,5.6a0,0,0,0,0,0-.08s0,.08,0,.08Z" transform="translate(1.36)"/><path class="cls-5" d="M6.75,3.77a0,0,0,1,0,0-.07,0,0,0,1,0,0,.07Z" transform="translate(1.36)"/><path class="cls-5" d="M5.14,5.33a0,0,0,1,0,0-.07,0,0,0,1,0,0,.07Z" transform="translate(1.36)"/><path class="cls-5" d="M2.35,3.88a0,0,0,1,0,0-.07,0,0,0,1,0,0,.07Z" transform="translate(1.36)"/><path class="cls-5" d="M4.6,3a0,0,0,0,0,0-.08A0,0,0,0,0,4.6,3Z" transform="translate(1.36)"/><path class="cls-5" d="M3.64,4.31a0,0,0,1,0,0-.07,0,0,0,1,0,0,.07Z" transform="translate(1.36)"/><path class="cls-6" d="M6.59,5.17a0,0,0,0,0,0-.08,0,0,0,0,0,0,.08Z" transform="translate(1.36)"/><path class="cls-6" d="M4.5,6.19a0,0,0,1,0,0-.07,0,0,0,1,0,0,.07Z" transform="translate(1.36)"/><path class="cls-6" d="M5.19,4.47a0,0,0,1,0,0-.07s0,.07,0,.07Z" transform="translate(1.36)"/><path class="cls-6" d="M2.83,4.53a0,0,0,0,0,0-.08,0,0,0,0,0,0,.08Z" transform="translate(1.36)"/><path class="cls-6" d="M4.28,2.59a0,0,0,1,0,0-.07,0,0,0,1,0,0,.07Z" transform="translate(1.36)"/><path class="cls-6" d="M1.76,2.81s0-.08,0-.08a0,0,0,0,0,0,.08Z" transform="translate(1.36)"/><path class="cls-6" d="M3.21,1.57a0,0,0,0,0,0-.08,0,0,0,0,0,0,.08Z" transform="translate(1.36)"/><path class="cls-6" d="M6.48.93a0,0,0,0,0,0-.08s-.05.08,0,.08Z" transform="translate(1.36)"/><path class="cls-6" d="M9.49,2.22a0,0,0,0,0,0-.08,0,0,0,0,0,0,.08Z" transform="translate(1.36)"/><path class="cls-6" d="M5.56,2.71v0s0,0,0,0h0a0,0,0,0,0,0,0v0a0,0,0,0,0,0,0h0s0,0,0,0Z" transform="translate(1.36)"/><path class="cls-6" d="M5.36,1a0,0,0,0,0,0-.08,0,0,0,0,0,0,.08Z" transform="translate(1.36)"/><path class="cls-6" d="M7.88,3.18a0,0,0,1,0,0-.07,0,0,0,1,0,0,.07Z" transform="translate(1.36)"/><path class="cls-6" d="M8.2,4a0,0,0,0,0,0-.08A0,0,0,0,0,8.2,4Z" transform="translate(1.36)"/><path class="cls-6" d="M7.13,5.12a0,0,0,0,0,0-.08,0,0,0,0,0,0,.08Z" transform="translate(1.36)"/><path class="cls-6" d="M9.23,5.23s0-.08,0-.08a0,0,0,0,0,0,.08Z" transform="translate(1.36)"/><path class="cls-6" d="M8.8,6.57s0-.08,0-.08a0,0,0,0,0,0,.08Z" transform="translate(1.36)"/><path class="cls-6" d="M7.88,7.05a0,0,0,1,0,0-.07,0,0,0,1,0,0,.07Z" transform="translate(1.36)"/><path class="cls-6" d="M8.42,9.09a0,0,0,1,0,0-.07,0,0,0,1,0,0,.07Z" transform="translate(1.36)"/><path class="cls-6" d="M7.13,9.9a0,0,0,0,0,0-.08,0,0,0,0,0,0,.08Z" transform="translate(1.36)"/><path class="cls-6" d="M6.38,9.15a0,0,0,0,0,0-.08,0,0,0,0,0,0,.08Z" transform="translate(1.36)"/><path class="cls-6" d="M5.3,9.58a0,0,0,0,0,0-.08,0,0,0,0,0,0,.08Z" transform="translate(1.36)"/><path class="cls-6" d="M3.26,9a0,0,0,0,0,0-.08,0,0,0,0,0,0,.08Z" transform="translate(1.36)"/><path class="cls-6" d="M2.08,8.23a0,0,0,1,0,0-.07,0,0,0,1,0,0,.07Z" transform="translate(1.36)"/><path class="cls-6" d="M.14,5.39a0,0,0,0,0,0-.08,0,0,0,0,0,0,.08Z" transform="translate(1.36)"/><path class="cls-6" d="M2.35,5.28a0,0,0,0,0,0-.08,0,0,0,0,0,0,.08Z" transform="translate(1.36)"/><path class="cls-6" d="M1,6.41a0,0,0,0,0,0-.08,0,0,0,0,0,0,.08Z" transform="translate(1.36)"/><path class="cls-6" d="M2.88,6.46a0,0,0,0,0,0-.08,0,0,0,0,0,0,.08Z" transform="translate(1.36)"/><path class="cls-6" d="M2.35,7.86h.08v0s0,0,0,0H2.32v0h0a0,0,0,0,0,0,0Z" transform="translate(1.36)"/><path class="cls-6" d="M5.09,7.75a0,0,0,0,0,0-.08,0,0,0,0,0,0,.08Z" transform="translate(1.36)"/><path class="cls-6" d="M5,7.72a.12.12,0,0,0,0-.23.12.12,0,0,0,0,.23Z" transform="translate(1.36)"/><path class="cls-6" d="M3.37,7.56a.12.12,0,0,0,0-.23.12.12,0,0,0,0,.23Z" transform="translate(1.36)"/><path class="cls-6" d="M3.37,5.89a.12.12,0,0,0,0-.23.12.12,0,0,0,0,.23Z" transform="translate(1.36)"/><path class="cls-6" d="M7.67,7.08a.12.12,0,0,0,0-.23.12.12,0,0,0,0,.23Z" transform="translate(1.36)"/><path class="cls-6" d="M6.75,7.94a.12.12,0,0,0,0-.23.12.12,0,0,0,0,.23Z" transform="translate(1.36)"/><path class="cls-6" d="M8.63,8.31a.12.12,0,0,0,0-.23.12.12,0,0,0,0,.23Z" transform="translate(1.36)"/><path class="cls-6" d="M7.56,9.65a.11.11,0,1,0,0-.22.11.11,0,1,0,0,.22Z" transform="translate(1.36)"/><path class="cls-6" d="M5.89,10.51a.11.11,0,1,0,0-.22.11.11,0,0,0,0,.22Z" transform="translate(1.36)"/><path class="cls-6" d="M4.28,10.46a.12.12,0,0,0,0-.23.12.12,0,0,0,0,.23Z" transform="translate(1.36)"/><path class="cls-6" d="M2.83,2.45a.12.12,0,0,0,0-.23.12.12,0,0,0,0,.23Z" transform="translate(1.36)"/><path class="cls-6" d="M1,4.17a.12.12,0,0,0,0-.23.12.12,0,0,0,0,.23Z" transform="translate(1.36)"/><path class="cls-6" d="M3.9,3.74a.12.12,0,0,0,0-.23.12.12,0,0,0,0,.23Z" transform="translate(1.36)"/><path class="cls-6" d="M4.07.79a.12.12,0,0,0,0-.23.12.12,0,0,0,0,.23Z" transform="translate(1.36)"/><path class="cls-6" d="M8.2.9a.12.12,0,0,0,0-.23A.12.12,0,0,0,8.2.9Z" transform="translate(1.36)"/><path class="cls-6" d="M7.08,2.29a.12.12,0,0,0,0-.23.12.12,0,0,0,0,.23Z" transform="translate(1.36)"/><path class="cls-6" d="M10,4.44a.12.12,0,0,0,0-.23.12.12,0,0,0,0,.23Z" transform="translate(1.36)"/><path class="cls-6" d="M10.35,6.7a.12.12,0,0,0,0-.23.12.12,0,0,0,0,.23Z" transform="translate(1.36)"/></g><g class="cls-12"><path class="cls-3" d="M254.19,70.6a2.73,2.73,0,0,0-.51.87,7.71,7.71,0,0,0-.82,2.94,7.68,7.68,0,0,0,.44,2.21,5.68,5.68,0,0,0,1.6,2.87,4.3,4.3,0,0,0,1.32.66,7.33,7.33,0,0,0,5.48-.41,3.49,3.49,0,0,0,1.3-1,4.61,4.61,0,0,0,.64-2.29q.12-1.12.21-2.25a5.39,5.39,0,0,0-.15-2.3A3.92,3.92,0,0,0,261,69.61a7.36,7.36,0,0,0-3.84,0C256.23,69.86,254.88,69.87,254.19,70.6Z" transform="translate(1.36)"/><path class="cls-4" d="M253,73.87a6.94,6.94,0,0,0,.72.6c.57.54.7,1.4,1.14,2a2.57,2.57,0,0,0,2.76,1,3.21,3.21,0,0,1,1-.25,2.68,2.68,0,0,1,1.1.44,3.86,3.86,0,0,0,4.24-.54,6,6,0,0,1-.25,1.74,2.87,2.87,0,0,1-.9,1.48,3.17,3.17,0,0,1-1.33.54c-2.67.54-5.43-.17-8-1a2.72,2.72,0,0,1-1.53-.93,2.36,2.36,0,0,1-.3-.94,11.61,11.61,0,0,1,0-3.58c.11-.63.26-2.17,1-2.37C252.87,72.7,252.57,73.32,253,73.87Z" transform="translate(1.36)"/><path class="cls-5" d="M261.93,74.83a0,0,0,1,0,0-.07,0,0,0,1,0,0,.07Z" transform="translate(1.36)"/><path class="cls-5" d="M258.49,74.94a0,0,0,0,0,0-.08,0,0,0,0,0,0,.08Z" transform="translate(1.36)"/><path class="cls-5" d="M259.62,73.11a0,0,0,1,0,0-.07,0,0,0,1,0,0,.07Z" transform="translate(1.36)"/><path class="cls-5" d="M258,74.67a0,0,0,1,0,0-.07,0,0,0,1,0,0,.07Z" transform="translate(1.36)"/><path class="cls-5" d="M255.21,73.22a0,0,0,0,0,0-.08,0,0,0,0,0,0,.08Z" transform="translate(1.36)"/><path class="cls-5" d="M257.47,72.31a0,0,0,0,0,0-.08,0,0,0,0,0,0,.08Z" transform="translate(1.36)"/><path class="cls-5" d="M256.5,73.65a0,0,0,0,0,0-.08,0,0,0,0,0,0,.08Z" transform="translate(1.36)"/><path class="cls-6" d="M259.45,74.51a0,0,0,0,0,0-.08s0,.08,0,.08Z" transform="translate(1.36)"/><path class="cls-6" d="M257.36,75.53a0,0,0,1,0,0-.07,0,0,0,1,0,0,.07Z" transform="translate(1.36)"/><path class="cls-6" d="M258.06,73.81a0,0,0,1,0,0-.07,0,0,0,1,0,0,.07Z" transform="translate(1.36)"/><path class="cls-6" d="M255.69,73.87a0,0,0,0,0,0-.08,0,0,0,0,0,0,.08Z" transform="translate(1.36)"/><path class="cls-6" d="M257.14,71.93a0,0,0,1,0,0-.07,0,0,0,1,0,0,.07Z" transform="translate(1.36)"/><path class="cls-6" d="M254.62,72.15a0,0,0,0,0,0-.08,0,0,0,0,0,0,.08Z" transform="translate(1.36)"/><path class="cls-6" d="M256.07,70.91a0,0,0,0,0,0-.08,0,0,0,0,0,0,.08Z" transform="translate(1.36)"/><path class="cls-6" d="M259.35,70.27a0,0,0,0,0,0-.08,0,0,0,0,0,0,.08Z" transform="translate(1.36)"/><path class="cls-6" d="M262.36,71.56a0,0,0,0,0,0-.08,0,0,0,0,0,0,.08Z" transform="translate(1.36)"/><path class="cls-6" d="M258.42,72.05v0s0,0,0,0h0s0,0,0,0h0s0,0,0,0v0s0,0,0,0h.06s0,0,0,0Z" transform="translate(1.36)"/><path class="cls-6" d="M258.22,70.32a0,0,0,0,0,0-.08,0,0,0,0,0,0,.08Z" transform="translate(1.36)"/><path class="cls-6" d="M260.74,72.52a0,0,0,1,0,0-.07s0,.07,0,.07Z" transform="translate(1.36)"/><path class="cls-6" d="M261.07,73.33a0,0,0,0,0,0-.08,0,0,0,0,0,0,.08Z" transform="translate(1.36)"/><path class="cls-6" d="M260,74.46a0,0,0,0,0,0-.08,0,0,0,0,0,0,.08Z" transform="translate(1.36)"/><path class="cls-6" d="M262.09,74.57a0,0,0,0,0,0-.08,0,0,0,0,0,0,.08Z" transform="translate(1.36)"/><path class="cls-6" d="M261.66,75.91a0,0,0,0,0,0-.08,0,0,0,0,0,0,.08Z" transform="translate(1.36)"/><path class="cls-6" d="M260.74,76.39a0,0,0,1,0,0-.07s0,.07,0,.07Z" transform="translate(1.36)"/><path class="cls-6" d="M261.28,78.43a0,0,0,1,0,0-.07,0,0,0,1,0,0,.07Z" transform="translate(1.36)"/><path class="cls-6" d="M260,79.24a0,0,0,0,0,0-.08,0,0,0,0,0,0,.08Z" transform="translate(1.36)"/><path class="cls-6" d="M259.24,78.49a0,0,0,0,0,0-.08,0,0,0,0,0,0,.08Z" transform="translate(1.36)"/><path class="cls-6" d="M258.17,78.92s0-.08,0-.08a0,0,0,0,0,0,.08Z" transform="translate(1.36)"/><path class="cls-6" d="M256.12,78.38a0,0,0,0,0,0-.08,0,0,0,0,0,0,.08Z" transform="translate(1.36)"/><path class="cls-6" d="M254.94,77.57a0,0,0,1,0,0-.07,0,0,0,1,0,0,.07Z" transform="translate(1.36)"/><path class="cls-6" d="M253,74.73a0,0,0,0,0,0-.08,0,0,0,0,0,0,.08Z" transform="translate(1.36)"/><path class="cls-6" d="M255.21,74.62a0,0,0,0,0,0-.08,0,0,0,0,0,0,.08Z" transform="translate(1.36)"/><path class="cls-6" d="M253.87,75.75s0-.08,0-.08a0,0,0,0,0,0,.08Z" transform="translate(1.36)"/><path class="cls-6" d="M255.75,75.8a0,0,0,0,0,0-.08,0,0,0,0,0,0,.08Z" transform="translate(1.36)"/><path class="cls-6" d="M255.21,77.2h.08v0h0a0,0,0,0,0,0,0h-.11v0h0a0,0,0,0,0,0,0Z" transform="translate(1.36)"/><path class="cls-6" d="M258,77.09a0,0,0,0,0,0-.08,0,0,0,0,0,0,.08Z" transform="translate(1.36)"/><path class="cls-6" d="M257.84,77.06a.12.12,0,0,0,0-.23.12.12,0,0,0,0,.23Z" transform="translate(1.36)"/><path class="cls-6" d="M256.23,76.9a.12.12,0,0,0,0-.23.12.12,0,0,0,0,.23Z" transform="translate(1.36)"/><path class="cls-6" d="M256.23,75.23a.12.12,0,0,0,0-.23.12.12,0,0,0,0,.23Z" transform="translate(1.36)"/><path class="cls-6" d="M260.53,76.42a.12.12,0,0,0,0-.23.12.12,0,0,0,0,.23Z" transform="translate(1.36)"/><path class="cls-6" d="M259.62,77.28a.12.12,0,0,0,0-.23.12.12,0,0,0,0,.23Z" transform="translate(1.36)"/><path class="cls-6" d="M261.5,77.65a.12.12,0,0,0,0-.23.12.12,0,0,0,0,.23Z" transform="translate(1.36)"/><path class="cls-6" d="M260.42,79a.11.11,0,1,0,0-.22.11.11,0,1,0,0,.22Z" transform="translate(1.36)"/><path class="cls-6" d="M258.76,79.85a.12.12,0,0,0,0-.23.12.12,0,0,0,0,.23Z" transform="translate(1.36)"/><path class="cls-6" d="M257.14,79.8a.12.12,0,0,0,0-.23.12.12,0,0,0,0,.23Z" transform="translate(1.36)"/><path class="cls-6" d="M255.69,71.79a.12.12,0,0,0,0-.23.12.12,0,0,0,0,.23Z" transform="translate(1.36)"/><path class="cls-6" d="M253.81,73.51a.12.12,0,0,0,0-.23.12.12,0,0,0,0,.23Z" transform="translate(1.36)"/><path class="cls-6" d="M256.77,73.08a.12.12,0,0,0,0-.23.12.12,0,0,0,0,.23Z" transform="translate(1.36)"/><path class="cls-6" d="M256.93,70.13a.12.12,0,0,0,0-.23.12.12,0,0,0,0,.23Z" transform="translate(1.36)"/><path class="cls-6" d="M261.07,70.23a.11.11,0,0,0,0-.22.11.11,0,1,0,0,.22Z" transform="translate(1.36)"/><path class="cls-6" d="M259.94,71.63a.12.12,0,0,0,0-.23.12.12,0,0,0,0,.23Z" transform="translate(1.36)"/><path class="cls-6" d="M262.89,73.78a.12.12,0,0,0,0-.23.12.12,0,0,0,0,.23Z" transform="translate(1.36)"/><path class="cls-6" d="M263.22,76a.12.12,0,0,0,0-.23.12.12,0,0,0,0,.23Z" transform="translate(1.36)"/></g><g class="cls-13"><path class="cls-3" d="M74,37.44a3.21,3.21,0,0,0-.51.88,7.47,7.47,0,0,0-.81,2.94,7.23,7.23,0,0,0,.44,2.2,5.6,5.6,0,0,0,1.6,2.87A4.33,4.33,0,0,0,76,47a7.33,7.33,0,0,0,5.48-.41,3.58,3.58,0,0,0,1.3-1,4.61,4.61,0,0,0,.64-2.29c.08-.75.15-1.51.21-2.26a5.56,5.56,0,0,0-.15-2.3,3.89,3.89,0,0,0-2.73-2.27,7.32,7.32,0,0,0-3.83,0C76,36.7,74.66,36.72,74,37.44Z" transform="translate(1.36)"/><path class="cls-4" d="M72.82,40.72a8,8,0,0,0,.71.6c.58.53.71,1.39,1.15,2a2.55,2.55,0,0,0,2.76,1,3.43,3.43,0,0,1,1-.24,2.73,2.73,0,0,1,1.11.44A3.87,3.87,0,0,0,83.77,44a5.69,5.69,0,0,1-.26,1.74,2.84,2.84,0,0,1-.9,1.48,3.07,3.07,0,0,1-1.32.53c-2.67.55-5.43-.16-8-1a2.72,2.72,0,0,1-1.53-.93,2.41,2.41,0,0,1-.3-1,11.25,11.25,0,0,1,0-3.57c.11-.64.26-2.18,1-2.37C72.65,39.55,72.36,40.17,72.82,40.72Z" transform="translate(1.36)"/><path class="cls-5" d="M81.71,41.68a0,0,0,0,0,0-.08s0,.08,0,.08Z" transform="translate(1.36)"/><path class="cls-5" d="M78.28,41.79s0-.08,0-.08a0,0,0,0,0,0,.08Z" transform="translate(1.36)"/><path class="cls-5" d="M79.4,40a0,0,0,0,0,0-.08,0,0,0,0,0,0,.08Z" transform="translate(1.36)"/><path class="cls-5" d="M77.79,41.52a0,0,0,0,0,0-.08,0,0,0,0,0,0,.08Z" transform="translate(1.36)"/><path class="cls-5" d="M75,40.07A0,0,0,0,0,75,40a0,0,0,0,0,0,.08Z" transform="translate(1.36)"/><path class="cls-5" d="M77.25,39.15a0,0,0,1,0,0-.07,0,0,0,1,0,0,.07Z" transform="translate(1.36)"/><path class="cls-5" d="M76.29,40.5a0,0,0,0,0,0-.08,0,0,0,0,0,0,.08Z" transform="translate(1.36)"/><path class="cls-6" d="M79.24,41.36a0,0,0,0,0,0-.08,0,0,0,0,0,0,.08Z" transform="translate(1.36)"/><path class="cls-6" d="M77.15,42.38a0,0,0,0,0,0-.08,0,0,0,0,0,0,.08Z" transform="translate(1.36)"/><path class="cls-6" d="M77.85,40.66s0-.08,0-.08a0,0,0,0,0,0,.08Z" transform="translate(1.36)"/><path class="cls-6" d="M75.48,40.71a0,0,0,1,0,0-.07,0,0,0,1,0,0,.07Z" transform="translate(1.36)"/><path class="cls-6" d="M76.93,38.78a0,0,0,0,0,0-.08,0,0,0,0,0,0,.08Z" transform="translate(1.36)"/><path class="cls-6" d="M74.41,39s0-.07,0-.07a0,0,0,1,0,0,.07Z" transform="translate(1.36)"/><path class="cls-6" d="M75.86,37.76a0,0,0,0,0,0-.08,0,0,0,0,0,0,.08Z" transform="translate(1.36)"/><path class="cls-6" d="M79.13,37.11a0,0,0,1,0,0-.07s0,.07,0,.07Z" transform="translate(1.36)"/><path class="cls-6" d="M82.14,38.4a0,0,0,1,0,0-.07s0,.07,0,.07Z" transform="translate(1.36)"/><path class="cls-6" d="M78.21,38.9v0l0,0h0a0,0,0,0,0,0,0v0a0,0,0,0,0,0,0h0l0,0Z" transform="translate(1.36)"/><path class="cls-6" d="M78,37.17a0,0,0,0,0,0-.08,0,0,0,0,0,0,.08Z" transform="translate(1.36)"/><path class="cls-6" d="M80.53,39.37a0,0,0,0,0,0-.08,0,0,0,0,0,0,.08Z" transform="translate(1.36)"/><path class="cls-6" d="M80.85,40.18a0,0,0,0,0,0-.08s0,.08,0,.08Z" transform="translate(1.36)"/><path class="cls-6" d="M79.78,41.3a0,0,0,1,0,0-.07,0,0,0,1,0,0,.07Z" transform="translate(1.36)"/><path class="cls-6" d="M81.88,41.41a0,0,0,0,0,0-.08,0,0,0,0,0,0,.08Z" transform="translate(1.36)"/><path class="cls-6" d="M81.45,42.75a0,0,0,1,0,0-.07,0,0,0,1,0,0,.07Z" transform="translate(1.36)"/><path class="cls-6" d="M80.53,43.24a0,0,0,0,0,0-.08,0,0,0,0,0,0,.08Z" transform="translate(1.36)"/><path class="cls-6" d="M81.07,45.28a0,0,0,0,0,0-.08,0,0,0,0,0,0,.08Z" transform="translate(1.36)"/><path class="cls-6" d="M79.78,46.09a0,0,0,0,0,0-.08,0,0,0,0,0,0,.08Z" transform="translate(1.36)"/><path class="cls-6" d="M79,45.33a0,0,0,1,0,0-.07,0,0,0,1,0,0,.07Z" transform="translate(1.36)"/><path class="cls-6" d="M78,45.76a0,0,0,1,0,0-.07,0,0,0,1,0,0,.07Z" transform="translate(1.36)"/><path class="cls-6" d="M75.91,45.23a0,0,0,0,0,0-.08,0,0,0,0,0,0,.08Z" transform="translate(1.36)"/><path class="cls-6" d="M74.73,44.42a0,0,0,0,0,0-.08,0,0,0,0,0,0,.08Z" transform="translate(1.36)"/><path class="cls-6" d="M72.79,41.57a0,0,0,1,0,0-.07,0,0,0,1,0,0,.07Z" transform="translate(1.36)"/><path class="cls-6" d="M75,41.47a0,0,0,0,0,0-.08,0,0,0,0,0,0,.08Z" transform="translate(1.36)"/><path class="cls-6" d="M73.65,42.59a0,0,0,1,0,0-.07,0,0,0,1,0,0,.07Z" transform="translate(1.36)"/><path class="cls-6" d="M75.53,42.65a0,0,0,0,0,0-.08,0,0,0,0,0,0,.08Z" transform="translate(1.36)"/><path class="cls-6" d="M75,44h.09a0,0,0,0,0,0,0H75v0s0,0,0,0Z" transform="translate(1.36)"/><path class="cls-6" d="M77.74,43.94a0,0,0,0,0,0-.08,0,0,0,0,0,0,.08Z" transform="translate(1.36)"/><path class="cls-6" d="M77.63,43.91a.12.12,0,0,0,0-.23.12.12,0,0,0,0,.23Z" transform="translate(1.36)"/><path class="cls-6" d="M76,43.75a.12.12,0,0,0,0-.23.12.12,0,0,0,0,.23Z" transform="translate(1.36)"/><path class="cls-6" d="M76,42.08a.12.12,0,0,0,0-.23.12.12,0,0,0,0,.23Z" transform="translate(1.36)"/><path class="cls-6" d="M80.32,43.26a.12.12,0,0,0,0-.23.12.12,0,0,0,0,.23Z" transform="translate(1.36)"/><path class="cls-6" d="M79.4,44.12a.12.12,0,0,0,0-.23.12.12,0,0,0,0,.23Z" transform="translate(1.36)"/><path class="cls-6" d="M81.28,44.5a.12.12,0,0,0,0-.23.12.12,0,0,0,0,.23Z" transform="translate(1.36)"/><path class="cls-6" d="M80.21,45.84a.12.12,0,0,0,0-.23.12.12,0,0,0,0,.23Z" transform="translate(1.36)"/><path class="cls-6" d="M78.54,46.7a.12.12,0,0,0,0-.23.12.12,0,0,0,0,.23Z" transform="translate(1.36)"/><path class="cls-6" d="M76.93,46.65a.12.12,0,0,0,0-.23.12.12,0,0,0,0,.23Z" transform="translate(1.36)"/><path class="cls-6" d="M75.48,38.64a.12.12,0,0,0,0-.23.12.12,0,0,0,0,.23Z" transform="translate(1.36)"/><path class="cls-6" d="M73.6,40.36a.12.12,0,0,0,0-.23.12.12,0,0,0,0,.23Z" transform="translate(1.36)"/><path class="cls-6" d="M76.56,39.93a.12.12,0,0,0,0-.23.12.12,0,0,0,0,.23Z" transform="translate(1.36)"/><path class="cls-6" d="M76.72,37a.12.12,0,0,0,0-.23.12.12,0,0,0,0,.23Z" transform="translate(1.36)"/><path class="cls-6" d="M80.85,37.08a.12.12,0,0,0,0-.23.12.12,0,0,0,0,.23Z" transform="translate(1.36)"/><path class="cls-6" d="M79.73,38.48a.12.12,0,0,0,0-.23.12.12,0,0,0,0,.23Z" transform="translate(1.36)"/><path class="cls-6" d="M82.68,40.63a.12.12,0,0,0,0-.23.12.12,0,0,0,0,.23Z" transform="translate(1.36)"/><path class="cls-6" d="M83,42.89a.12.12,0,0,0,0-.23.12.12,0,0,0,0,.23Z" transform="translate(1.36)"/></g><g class="cls-14"><path class="cls-3" d="M167.6,76.18a2.81,2.81,0,0,0-.51.87,7.52,7.52,0,0,0-.81,2.94,7.34,7.34,0,0,0,.43,2.21,5.7,5.7,0,0,0,1.61,2.86,4,4,0,0,0,1.31.67,7.33,7.33,0,0,0,5.48-.41,3.42,3.42,0,0,0,1.3-1,4.62,4.62,0,0,0,.65-2.29c.07-.75.15-1.5.21-2.26a5.56,5.56,0,0,0-.16-2.3,3.92,3.92,0,0,0-2.72-2.27,7.36,7.36,0,0,0-3.84,0C169.64,75.44,168.29,75.45,167.6,76.18Z" transform="translate(1.36)"/><path class="cls-4" d="M166.44,79.45a6.94,6.94,0,0,0,.72.6c.58.54.71,1.4,1.15,2a2.55,2.55,0,0,0,2.75,1,3.21,3.21,0,0,1,1-.25,2.78,2.78,0,0,1,1.11.44,3.84,3.84,0,0,0,4.23-.54,5.68,5.68,0,0,1-.25,1.74,2.87,2.87,0,0,1-.9,1.48,3,3,0,0,1-1.32.53c-2.68.55-5.44-.16-8-1a2.67,2.67,0,0,1-1.52-.93,2.36,2.36,0,0,1-.3-.94,11.31,11.31,0,0,1,0-3.58c.1-.63.25-2.17,1-2.37C166.28,78.28,166,78.9,166.44,79.45Z" transform="translate(1.36)"/><path class="cls-5" d="M175.34,80.41a0,0,0,1,0,0-.07,0,0,0,1,0,0,.07Z" transform="translate(1.36)"/><path class="cls-5" d="M171.9,80.52a0,0,0,0,0,0-.08,0,0,0,0,0,0,.08Z" transform="translate(1.36)"/><path class="cls-5" d="M173,78.69a0,0,0,1,0,0-.07,0,0,0,1,0,0,.07Z" transform="translate(1.36)"/><path class="cls-5" d="M171.42,80.25a0,0,0,1,0,0-.07,0,0,0,1,0,0,.07Z" transform="translate(1.36)"/><path class="cls-5" d="M168.62,78.8a0,0,0,0,0,0-.08,0,0,0,0,0,0,.08Z" transform="translate(1.36)"/><path class="cls-5" d="M170.88,77.89a0,0,0,0,0,0-.08,0,0,0,0,0,0,.08Z" transform="translate(1.36)"/><path class="cls-5" d="M169.91,79.23a0,0,0,0,0,0-.08,0,0,0,0,0,0,.08Z" transform="translate(1.36)"/><path class="cls-6" d="M172.87,80.09a0,0,0,0,0,0-.08,0,0,0,0,0,0,.08Z" transform="translate(1.36)"/><path class="cls-6" d="M170.77,81.11a0,0,0,1,0,0-.07,0,0,0,1,0,0,.07Z" transform="translate(1.36)"/><path class="cls-6" d="M171.47,79.39a0,0,0,1,0,0-.07,0,0,0,1,0,0,.07Z" transform="translate(1.36)"/><path class="cls-6" d="M169.11,79.45s0-.08,0-.08a0,0,0,0,0,0,.08Z" transform="translate(1.36)"/><path class="cls-6" d="M170.56,77.51a0,0,0,0,0,0-.08,0,0,0,0,0,0,.08Z" transform="translate(1.36)"/><path class="cls-6" d="M168,77.73a0,0,0,0,0,0-.08,0,0,0,0,0,0,.08Z" transform="translate(1.36)"/><path class="cls-6" d="M169.48,76.49a0,0,0,0,0,0-.08,0,0,0,0,0,0,.08Z" transform="translate(1.36)"/><path class="cls-6" d="M172.76,75.85a0,0,0,0,0,0-.08,0,0,0,0,0,0,.08Z" transform="translate(1.36)"/><path class="cls-6" d="M175.77,77.13a0,0,0,1,0,0-.07,0,0,0,1,0,0,.07Z" transform="translate(1.36)"/><path class="cls-6" d="M171.83,77.63v0a0,0,0,0,0,0,0h0s0,0,0,0v0s0,0,0,0h0a0,0,0,0,0,0,0Z" transform="translate(1.36)"/><path class="cls-6" d="M171.63,75.9a0,0,0,0,0,0-.08,0,0,0,0,0,0,.08Z" transform="translate(1.36)"/><path class="cls-6" d="M174.16,78.1a0,0,0,1,0,0-.07,0,0,0,1,0,0,.07Z" transform="translate(1.36)"/><path class="cls-6" d="M174.48,78.91a0,0,0,0,0,0-.08,0,0,0,0,0,0,.08Z" transform="translate(1.36)"/><path class="cls-6" d="M173.4,80a0,0,0,0,0,0-.08s0,.08,0,.08Z" transform="translate(1.36)"/><path class="cls-6" d="M175.5,80.14a0,0,0,1,0,0-.07,0,0,0,1,0,0,.07Z" transform="translate(1.36)"/><path class="cls-6" d="M175.07,81.49a0,0,0,0,0,0-.08,0,0,0,0,0,0,.08Z" transform="translate(1.36)"/><path class="cls-6" d="M174.16,82a0,0,0,1,0,0-.07,0,0,0,1,0,0,.07Z" transform="translate(1.36)"/><path class="cls-6" d="M174.69,84a0,0,0,1,0,0-.07s0,.07,0,.07Z" transform="translate(1.36)"/><path class="cls-6" d="M173.4,84.82a0,0,0,0,0,0-.08s0,.08,0,.08Z" transform="translate(1.36)"/><path class="cls-6" d="M172.65,84.07a0,0,0,0,0,0-.08,0,0,0,0,0,0,.08Z" transform="translate(1.36)"/><path class="cls-6" d="M171.58,84.5a0,0,0,0,0,0-.08,0,0,0,0,0,0,.08Z" transform="translate(1.36)"/><path class="cls-6" d="M169.54,84s0-.08,0-.08a0,0,0,0,0,0,.08Z" transform="translate(1.36)"/><path class="cls-6" d="M168.35,83.15a0,0,0,1,0,0-.07,0,0,0,1,0,0,.07Z" transform="translate(1.36)"/><path class="cls-6" d="M166.42,80.31a0,0,0,0,0,0-.08,0,0,0,0,0,0,.08Z" transform="translate(1.36)"/><path class="cls-6" d="M168.62,80.2a0,0,0,0,0,0-.08,0,0,0,0,0,0,.08Z" transform="translate(1.36)"/><path class="cls-6" d="M167.28,81.33a0,0,0,0,0,0-.08,0,0,0,0,0,0,.08Z" transform="translate(1.36)"/><path class="cls-6" d="M169.16,81.38a0,0,0,0,0,0-.08,0,0,0,0,0,0,.08Z" transform="translate(1.36)"/><path class="cls-6" d="M168.62,82.78h.08v0h0a0,0,0,0,0,0,0h-.11v0s0,0,0,0Z" transform="translate(1.36)"/><path class="cls-6" d="M171.36,82.67a0,0,0,0,0,0-.08,0,0,0,0,0,0,.08Z" transform="translate(1.36)"/><path class="cls-6" d="M171.26,82.64a.12.12,0,0,0,0-.23.12.12,0,0,0,0,.23Z" transform="translate(1.36)"/><path class="cls-6" d="M169.64,82.48a.12.12,0,0,0,0-.23.12.12,0,0,0,0,.23Z" transform="translate(1.36)"/><path class="cls-6" d="M169.64,80.81a.12.12,0,0,0,0-.23.12.12,0,0,0,0,.23Z" transform="translate(1.36)"/><path class="cls-6" d="M173.94,82a.12.12,0,0,0,0-.23.12.12,0,0,0,0,.23Z" transform="translate(1.36)"/><path class="cls-6" d="M173,82.85a.12.12,0,0,0,0-.23.12.12,0,0,0,0,.23Z" transform="translate(1.36)"/><path class="cls-6" d="M174.91,83.23a.12.12,0,0,0,0-.23.12.12,0,0,0,0,.23Z" transform="translate(1.36)"/><path class="cls-6" d="M173.83,84.57a.12.12,0,0,0,0-.23.12.12,0,0,0,0,.23Z" transform="translate(1.36)"/><path class="cls-6" d="M172.17,85.43a.12.12,0,0,0,0-.23.12.12,0,0,0,0,.23Z" transform="translate(1.36)"/><path class="cls-6" d="M170.56,85.38a.12.12,0,0,0,0-.23.12.12,0,0,0,0,.23Z" transform="translate(1.36)"/><path class="cls-6" d="M169.11,77.37a.12.12,0,0,0,0-.23.12.12,0,0,0,0,.23Z" transform="translate(1.36)"/><path class="cls-6" d="M167.22,79.09a.12.12,0,0,0,0-.23.12.12,0,0,0,0,.23Z" transform="translate(1.36)"/><path class="cls-6" d="M170.18,78.66a.12.12,0,0,0,0-.23.12.12,0,0,0,0,.23Z" transform="translate(1.36)"/><path class="cls-6" d="M170.34,75.71a.12.12,0,0,0,0-.23.12.12,0,0,0,0,.23Z" transform="translate(1.36)"/><path class="cls-6" d="M174.48,75.81a.12.12,0,0,0,0-.23.12.12,0,0,0,0,.23Z" transform="translate(1.36)"/><path class="cls-6" d="M173.35,77.21a.12.12,0,0,0,0-.23.12.12,0,0,0,0,.23Z" transform="translate(1.36)"/><path class="cls-6" d="M176.31,79.36a.12.12,0,0,0,0-.23.12.12,0,0,0,0,.23Z" transform="translate(1.36)"/><path class="cls-6" d="M176.63,81.62a.12.12,0,0,0,0-.23.12.12,0,0,0,0,.23Z" transform="translate(1.36)"/></g></g></g></svg>